<?xml version="1.1" encoding="UTF-8"?><svg xmlns="http://www.w3.org/2000/svg" xmlns:xlink="http://www.w3.org/1999/xlink" version="2.0" width="100pt" height="100pt" viewBox="0 0 2000 2000" clip-rule="evenodd" fill-rule="evenodd" preserveAspectRatio="none"><path d="M167 208q62 3 112 55 56 59 38 133 16 16 11 40l-14 42-6 21-8 16-6 2q-4 1-2 6l-7 39-7 37-13 34q-8 20-4 39 5 27 22 42l42 24q-77 33-111 54-53 34-83 81-20 30-34 86-15 57-16 105 0 42 9 127 11 189-14 312-14 77-11 138 3 42 20 130l18 57 16 55 6 45-34-29q-92-93-92-249V719q27-23 34-43 8-25 3-59L24 566l-5-34-9-28q-3-4-8-31l-3-7V389l2-9V338l17-34q23-40 62-67 43-30 87-29" fill="#fff" fill-opacity=".8"/><path d="M401 1435l-10-42-10-42q-33 16-46 85l-21 123-14 34q-6 34-1 111 6 83 2 120 18-41 47-79l-3-24v-27l10-19 10-18 2-21 1-24q3-20 21-91 14-57 12-86M506 379l-1-42 17-34q24-41 62-67 43-30 87-29 62 3 112 55 56 59 38 133 16 16 11 40l-14 42-14 36-6 2q-4 2-2 7l-7 39-7 37-13 34q-8 20-4 39 5 27 41 51l61 33 3 2-3-1q-53 18-89 45-35 27-63 70l-21 46q-27 76-29 146 0 41 9 126 10 189-13 313-15 69-11 138 2 50 20 129l26 84 8 29q10 53 6 101l-4 13H344q-75 0-138-23 2-49-7-90l-16-55-18-58q-17-85-20-129-3-61 11-138 24-124 14-312-9-86-9-127 1-48 16-105 14-57 34-87 28-43 101-71l128-46 58-32q33-28 39-48 8-25 3-59l-11-51q-7-50-15-62l-5-15-3-16-9-25q-6-14-5-23l6-21 8-24" fill="#fff" fill-opacity=".8"/><path d="M973 1520q14-57 12-86l-9-42-11-43q-33 16-45 85l-22 124-7 18-7 15q-6 35-1 112 6 82 2 119 19-42 48-79-5-38-3-50 1-8 9-19l10-18 2-21 1-24 21-91M1368 261q56 59 37 133 16 16 11 40l-13 41-6 22-8 15-7 2q-4 2-2 7l-7 39-7 37-13 34q-7 19-3 39 5 26 40 51 18 12 61 33l11 6q-59 20-94 42-42 27-68 68-20 31-35 86-15 57-16 105 0 42 9 127 10 189-13 313-14 77-11 138 2 48 20 129l17 57 17 55q10 55 6 102l-5 14H785l5-13q4-48-6-101l-17-55-17-58q-18-81-20-129-4-69 11-138 23-124 13-313-9-85-9-126 1-49 16-106 14-56 34-86 25-37 80-62l105-38q72-25 102-50 33-25 39-48 8-25 3-59l-11-51q-7-49-14-61l-5-15-4-16q-14-33-14-48 0-7 6-21l8-24V357 335q1-8 17-33 23-41 62-68 43-30 87-28 61 2 112 55" fill="#fff"/><path d="M1557 1518q15-57 13-86l-10-42-10-42q-33 16-46 85l-21 123-8 18-6 16q-7 35-1 112l1 119q17-37 48-79-5-40-3-51l10-18 9-18 2-21 1-24q3-21 21-92M1753 233q43-30 87-29 62 3 112 56 56 59 37 133l10 15v31l-12 35-6 21-8 16-6 2q-4 1-3 6l-7 39-7 37-12 34q-8 20-4 39 6 33 65 66v916q0 156-96 249-94 97-249 97H1369l5-14q4-47-6-102l-17-55-17-57q-18-81-20-130-3-60 11-138 23-123 13-312-9-85-9-127 1-48 16-105 15-55 35-86 24-38 79-63l105-38q66-21 102-49 32-24 40-48 8-25 3-59l-12-51-6-34-8-28-5-15-4-16-9-24-5-24q0-7 6-21l8-24V355 334q1-6 17-34 23-40 62-67" fill="#fff" fill-opacity=".8"/></svg>