<?xml version="1.1" encoding="UTF-8"?><svg xmlns="http://www.w3.org/2000/svg" xmlns:xlink="http://www.w3.org/1999/xlink" version="2.0" width="100pt" height="100pt" viewBox="0 0 2000 2000" clip-rule="evenodd" fill-rule="evenodd" preserveAspectRatio="none"><path d="M1702 535l-69 107q-86-152-232-248-149-99-326-115v93H935V279Q711 301 540 450l-96-69q100-92 224-148 127-57 267-70V88h140v75q194 16 360 116 163 98 267 256" fill="#fff" fill-opacity=".8"/><path d="M713 1772q71-47 157-75l65 10v-28l26-6 33 54 29 93 26 93H935v-90q-117-11-222-51" fill="#fff" fill-opacity=".8"/><path d="M977 461q128-27 161 73 31 90-30 166-3 20 15 33 20 14 21 27 203 34 351 1 188-41 222-181 28 6 20 32l-20 40q41 11 62-22 23-37 46-38-35 162-207 247-60 31-342 112-56 66-70 198-10 88-2 243l41 5q32-3 42 19 1 56-47 84 9 50 37 116l47 112q54 139 23 261-89 30-144-44-9-12-71-147-12-12-23-6l-36 6q-23-66-42-101-28-51-66-78-39 26-81 35l-98 13q-38 5-85 44-40 33-70 27-45-9-65-55-20-45-7-100 15-60 146-153 135-97 153-145-15-62-33-230-15-153-39-224-47-53-221-173Q420 558 368 461q-100-19-143-83 28-1 36 23 18-7-22-39-37-29-2-32l7 11 5 13q16-8-5-23-26-19-19-37l24 8q4 17 20 15 15-1-20-15v-8q2-15 38 5l69 43q21 3 23-32 1-34 25-28V389q88 92 243 175L929 700q-50-139 48-239" fill="#fff"/><path d="M1839 950h78v139h-82q-24 211-148 385-121 170-307 264l-52-103q157-79 261-222 105-146 129-324h-85V950h90q-3-55-13-101 44-29 94-98 31 104 35 199" fill="#fff" fill-opacity=".8"/><path d="M323 519l44 39 46 35Q303 755 291 950h86v139H296q18 130 80 245 60 112 156 196-46 54-35 121-131-102-213-246-85-147-104-316H92V950h83q13-238 148-431" fill="#fff" fill-opacity=".8"/></svg>