<?xml version="1.1" encoding="UTF-8"?><svg xmlns="http://www.w3.org/2000/svg" xmlns:xlink="http://www.w3.org/1999/xlink" version="2.0" width="100pt" height="100pt" viewBox="0 0 2000 2000" clip-rule="evenodd" fill-rule="evenodd" preserveAspectRatio="none"><path d="M814 934l-48 38-36-60 45-52 3-59 16-32 80-35 43-14h101l8 41h92l18-2-11-50 22 12 51-25 8 37v90l35 111-21 65-64 11-84 62-84 11-41-44-82 2 40-70-91-37" fill="#fff"/><path d="M661 566l24 50-67 70-10 76 18 37-12 85-145 143q-43-130-51-266-8-135 19-252l50 9 40 50-26 23 39 32-26 40 48-23 35-79 64 5" fill="#fff"/><path d="M1438 1244l114-106 2 64q0 284-165 457-155 163-387 163-224 0-382-165-169-177-169-460 0-61 8-130l216-40 46 54 57-34 57 25-65 137v70l-52 67 87-62-3-75 12-48 77-14 49 43 102-6 84-65h73l96 67 21 80 64-66 58 44" fill="#fff"/><path d="M1603 707l25-51 5 2q29 223-41 435l-144 30-36-48-65 22 11-68-73-101 59-64 3-98 41-69 107 1 7 50-39 63 67 26 12 65 27-72-49-42 60-43-42-46 65 8" fill="#fff"/><path d="M1163 495l65-16-78-8-40 46-70 3 14 94-57-21-5-39-135-15 9-59-51-53-82 20-14-21 40-7 5-66 92-58-99 32-52-26q176-141 344-108 115 23 211 126 90 98 146 247l-4-2-21 52-48 11-87 11-52-3-24-62-67 8-40-29 47-9 53-48" fill="#fff"/></svg>