<?xml version="1.1" encoding="UTF-8"?><svg xmlns="http://www.w3.org/2000/svg" xmlns:xlink="http://www.w3.org/1999/xlink" version="2.0" width="100pt" height="100pt" viewBox="0 0 2000 2000" clip-rule="evenodd" fill-rule="evenodd" preserveAspectRatio="none"><path d="M847 735l25 43q-34 13-63 32-31 21-40 40l-4 17v5h1l1-1 7 6 22 14q33 16 72 28l30 9q-1 23-9 42l-5 12-66 113-6 8-12-5q-57-24-101-53l-52-45q-33-37-44-75-7-26-7-48V865l1-7v-3l4-20q9-38 31-71 36-51 103-86l3-1 19-1q49 4 90 59" fill="#fff"/><path d="M953 635l-19-17 95-17 87-21q43-13 62-30l10-16-3-36q-8-34-35-76-40-62-122-139l-72-61-77-58q80 35 169 93 99 66 153 126 40 47 58 91 12 30 13 58 3 39-21 73l-47 45-49 27-96 37-35 11q-30-51-71-90" fill="#fff"/><path d="M167 631l59 7q25 9 51 30l42 42q22 29 28 57 8 27 6 63L336 939q-5 50 7 92 10 38 41 82 27 38 63 66 33 25 81 49l95 42 54 24-114 129-15-9q-65-40-95-62-55-40-93-81-45-50-71-103-30-61-38-120-7-61 11-124l31-102q11-49-11-87-28-49-68-70l-96-3q-46 18-87 61 34-47 81-74 24-13 55-18" fill="#fff"/><path d="M2009 1321l2 7v334q0 156-96 249-94 97-250 97H356q-157 0-253-97-92-92-92-249V1301q73-16 128-18 95-5 107 32l-3 53q-7 44 0 73 26 97 227 142 120 28 302 36l223 6 204-6q364-24 502-137 83-69 77-168-5-67 113-37l118 44" fill="#fff"/><path d="M1794 905q49-7 99 17 43 22 76 60-37-32-81-46l-88-3q-39 13-70 48-15 17-21 33-6 15-4 33l12 38 18 45q23 57 14 114-8 52-42 109-29 45-73 84l-20 17q-107 50-282 76l-508 23 33-41 56-75 61-18q103-31 150-56 60-33 85-77l8-17-4-3q-20-17-59-35-33-17-79-33l-33-12 21-77 21-96 3-37 54 14 101 32q66 25 109 55l59 53q34 41 45 90 13 51 1 101l-2 11-2 6v2l-2 5-3 12-13 31q81-26 123-52 76-44 101-112 11-31 4-74-17-60-16-101 0-32 16-59 14-21 38-42 45-36 94-43" fill="#fff"/><path d="M368 498q13-53 49-77 33-22 85-18 39 4 81 22l-81-10q-46 2-71 24-25 22-29 65-3 25 5 76 8 42 24 71 18 33 43 41 46 17 109-40l28-27 40-32q49-32 103-36 55-6 111 19 35 15 69 42l19 17q41 39 71 90 23 38 38 79 31 86 25 172l-3 37-21 96-21 77-3 11q-23 76-78 166l-48 74-56 75-33 41-80-2q-124-5-239-49l22-33 36-46 114-129 60-76L884 982l5-12q8-19 9-42 10-74-26-150l-25-43q-41-55-90-59l-19 1-35 9-27 15-36 26q-48 30-90 40-61 15-107-13-44-24-64-80-13-37-17-88V542l6-44" fill="#fff" fill-opacity=".8"/></svg>