<?xml version="1.1" encoding="UTF-8"?><svg xmlns="http://www.w3.org/2000/svg" xmlns:xlink="http://www.w3.org/1999/xlink" version="2.0" width="100pt" height="100pt" viewBox="0 0 2000 2000" clip-rule="evenodd" fill-rule="evenodd" preserveAspectRatio="none"><path d="M1872 831l-480-1 358 1151-98 11H1175l-52-618 68 1-23-131 248-2-19-73-243 2-11-63 84-247-223-372L795 872l91 240-4 61-218 2-15 74 228-2-9 127h52l-24 618H343l-64-4L643 829l-480-1 855-508 854 511" fill="#fff"/><path d="M1130 885l-62 206-29-461 91 255" fill="#fff"/></svg>