<?xml version="1.1" encoding="UTF-8"?><svg xmlns="http://www.w3.org/2000/svg" xmlns:xlink="http://www.w3.org/1999/xlink" version="2.0" width="100pt" height="100pt" viewBox="0 0 2000 2000" clip-rule="evenodd" fill-rule="evenodd" preserveAspectRatio="none"><path d="M716 456q-106 0-194 60-85 59-125 154-45 5-93 32 33-142 148-233 115-93 264-93h11q3 36 16 81l-27-1" fill="#fff"/><path d="M584 1119q-18 44-25 76-120-49-194-156l87-17q55 66 132 97" fill="#fff"/><path d="M716 243q-221 0-383 152Q173 547 159 766L99 780q8-249 187-423Q466 183 716 183l60 3q-23 30-34 57H716" fill="#fff"/><path d="M538 1330l-1 62q-123-37-220-120-98-83-154-197l61-11q50 93 132 162 81 70 182 104" fill="#fff"/><path d="M1396 1129q16-28 39-51 103 121 103 276 0 91-36 172-35 79-99 138-4-67 2-108v-19q53-85 53-183 0-117-73-211l11-14" fill="#fff"/><path d="M1627 1653q-78 135-212 214l-1-70q108-74 170-189 64-118 64-254 0-177-106-318l80 10q86 141 86 308 0 161-81 299" fill="#fff"/><path d="M1226 549l-13-1-38-65 14-31 6-42q57 69 91 151l-60-12" fill="#fff"/><path d="M817 701q-42-42-101-42-58 0-100 42-41 41-41 100 0 59 41 100 42 42 100 42 59 0 101-42 41-41 41-100 0-59-41-100m192 737q42 41 101 41 59 0 100-41 41-41 41-100 0-59-41-101-41-41-100-41-59 0-101 41-41 42-41 101 0 59 41 100m83-1238v19q1 10 12 6l-1 26q0 15 14 12v71q4-9 12-8-3 16 13 13v88q-7 0-16 9-8 8-22 4V549q1 9 25 4-1 11 13 15 15 5 17 11h38q17 2 21 12 165 46 236 84l68 42q42 26 70 38l116 31 124 28-5 8q-5 3-3 9 5-10 10-5 5 5 3 18l85 9 80 15v190l-39 1q-20-2-25-13-77-4-221-37l-221-52-49-11-44-5q-33 7-56 67-13 33-28 105-36 164-25 324 1 9 12 17v42q1 4 13 4v36q2 18 12 23-7-2 5 68l4-9q6 8 4 50-2 35 9 34-10 61-8 146l8 152H612v-24l4 5v8q11-31 9-98l-1-109q0-3-4-3l-8-1q-2-27 8-74 9-43 4-77h13V1526h13V1399h12V1277l-4-3-8-1q8-68-16-138-33-96-35-110-15-12-25-38l-17-46q-60 8-179 35l-170 36-20 2q-16 0-6-6L2 1054V864q156-47 386-138L767 579h30q21-30 55-26 4-24-4-44l-9-31H801l1-26q0-16-14-12V377q18-8 15-58-5-68-2-81l17-17 8-34q32-15 51-50h19q10-2 6-13h97l15 19q10 9 27 6 19 34 51 51" fill="#fff"/></svg>