<?xml version="1.1" encoding="UTF-8"?><svg xmlns="http://www.w3.org/2000/svg" xmlns:xlink="http://www.w3.org/1999/xlink" version="2.0" width="100pt" height="100pt" viewBox="0 0 2000 2000" clip-rule="evenodd" fill-rule="evenodd" preserveAspectRatio="none"><path d="M1029 1012l4-12q7-17 22-32 7-21 28-38-21-10-24-39-24-32-13-112 12-79 85-150l22-20q16-14 55-37 37-21 52-36l16-21 16-20 38-30 42-27 70-49q40-21 86-13l26-37 23-41 86-66 48-41 35-27q39-26 56-33l65-3 18-28 10-15 4-6 23 23 13 16q-9 12-10 25 14 3 31 26l4-10 14 32 9 27q-5 9-5 29l-83 76-10 9q-60 45-130 34-21 62-93 113l-6 32-3 15-59 55-50 50-57 39q-50 23-111 11l-18 35q-22 35-72 80l-41 35h-1l-2 1-35 30 3 27 1 28v7l-6-1-5 5-16-9 62 37q36 24 85 64l86 72 89 70q10 23 40 57l21-1 19-4q89 40 212 130l97 70 105 72v227 2l-48 122H1803l-10-2 10-42h-65l4 5-10 8-30-13-83-78-51-42-24-20-15-13-76-71-20-22-21-28q-33-49-40-104l-55-52-85-67-78-66-23-24-31-38-14-22-20-43q-21-54-17-104l-20 13m610-595q47-34 58-72-20-35-54-11-32 22-39 63 22 15 35 20m201-226v-1l-20 1q-19 4-33 19 10 27 0 83l34 2 28-17q-19-16-9-87m-23 1544 32 17-3-37q0-36 15-62l9-13 24-23q4-5 19-11 13-6 16-15l-34-28-131-111q-100-83-178-125 5 52-13 90-21 43-63 50 28 37 77 79l27 23 57 48 25 23 15 13q43 39 76 62l30 20M1521 526q-19-41-11-78-33-11-63 11-17 13-48 41 14 20 14 67l-6 36q34 11 68-13l57-38-11-26M907 848q2 49-27 83l-13 12 2 15q17 27 17 59l-13 53q-13 37-14 56-54 75-149 155L542 1415q-29 80-97 154l-65 61-12 10-16 13-75 62-100 83q-10 0-68 26-59 16-89-30-12-38-17-79l-3-52v-77q33 14 52 54l2 6 3 7q10 28 13 62v21q11-10 25-21l78-62 17-13 8-6 83-65q26-21 43-35l80-77q-48-20-63-59-13-32-8-76-2-6-9-5L159 1439Q61 1511 0 1567V1418l109-78q69-51 112-80l27-19q31-25 53-32l32-2 31-4 34-25 37-37 27-26 103-82 5-4 12-10 90-64q19-12 51-25 28-6 52-21l18-14-35-31-25-19-69-50q-38-30-60-60-21-29-31-59-91 9-160-53-69-78-112-107 1-41-40-81-44-42-49-75-69 3-121-33-35-24-79-81 22-85 76-142l6-6 11 24q32-16 61-5 19 6 60 36l35 24 31 23 16 23 16 24 34 25 28 21q15 19 31 62h3q73 1 136 47l77 66 43 32 13 31 47 29 71 58q51 50 73 108 26 67 10 150l4-1 13-27m224-18 10-4 20-10 7-5 61-52 32-28q42-38 57-71-6-17-20-28l-20-18-61 47q-70 60-86 128-5 20-5 42h2l3-1m-23 78-4 6 1-1 3-5M535 535q5-32 16-45l-38-31q-22-21-46-22l-18 1v58q-3 23-14 45l41 41q27 19 66 11-12-24-7-58m118 98q-14 11-17 27 36 46 73 81l10 1 27 30q30 24 68 44-1-32-11-58-15-45-56-83l-75-61-19 19M324 407l14-12 17-9q-21-42-37-56l-57-1q30 61 63 78M181 190q-15-7-54-11 18 73-4 93l30 10q19 2 28-10-26-12 0-82M502 1265l40 47 116-98 84-71q65-63 54-141l-19 1-12 9-152 108q-90 67-138 125 14 5 27 20m829-119q-60-51-115-77l-12-17-15 18-7-11-10-10 30 95-28-24q-12-39-38-63 1 35 22 64l49 47 67 51 63 54 53 44q8-40 31-52l22-5q-63-72-112-114" fill="#fff"/><path d="M1331 1020q-49-40-85-64l63-1 67-2 65-15q6-13 3-32l-4-30-75-3-76 8q81-40 120-83l67 7 24-5 47-6 78 8 85 8q44 9 74 45l44-12 44-15q37 5 128 3v194l-35-31q-56 33-145 27l-18 16q-14 9-19 13l-159 11q-96 0-152-70-57 29-141 29m512-61q58 4 91-18 6-40-35-44-38-3-70 23l14 39m-153-15q11-27 34-45-19-30-56-32h-63q-1 18-20 45l-39 40q18 29 60 33l68 8 16-49M1521 526l11 26-57 38q-34 24-68 13l6-36 63-22 45-19m-674 6q1-28 14-63-75-52-88-143-2-104-16-155 26-30 22-80-5-60 3-82h63q-15 59-1 94l37 4 9-55q0-32-19-43h82l12 47q-1 24-16 67 60 50 78 135l26 143-10 32q42 121 35 204-10 123-121 203-11-2-40-18 50-147-70-290M152 1072 0 1070V961l117 3h56l55-7q-19-38-14-70 5-39 46-79 3-6-3-10L0 782V671l215 18 49 3 46 9 25 19 26 17 61 2 71-6 111 2q22 30 60 60l69 50-159-12-154 8q8 17 8 46l-1 48H537L431 985l-50 29H361q-31 18-68 32l-40-9q-17 1-45 13l-46 18-10 4M847 335q9 32 44 51 5-24 29-47 22-21 44-27l-10-54q-6-33-35-51l-37 44-40 26 5 58M976 485l-28 3q-18 0-29 10-5 140 36 233 44-59 41-128L976 485m390 1299 26 117 23 86-3 4H1301l-15-90-19-102-18-84-18-62-4-13-12-31-27 31-16 13-27 15-78-2 1 49 7 59 18 106 3 21 14 90H1001l-15-90-15-84q-11-57-13-102v-62l1-10 1-3q5-55 35-100 0-29-31-181-27-132-14-202 17-93 76-143l3-2v2q-10 30-11 62-1 37 10 79-5 12-7 28-2 24 8 69l17 78 13 81q7 45 13 66 44-35 77-9l-5-113-1-1 58 75q29 39 42 65l-1-1v21 3q-2 43 15 87l16 36 7 13 38 62 44 63-4-19 4 5 4 20" fill="#fff" fill-opacity=".5"/><path d="M1029 1012l20-13q-4 50 17 104l20 43 14 22 31 38 23 24 78 66 8 49 43 58q15-31 34-40l55 52q7 55 40 104l21 28q-30 33-68 30l34 63 9 13 13 19 31 43 33 46 63 92 41 48 37 33q1-18 5-33 14-64 70-87l22-6 9-2 10-8-4-5h65l-10 42-36 145-72 12-212-53-22-38-29-42-56-75-4-20-4-5 4 19-44-63-38-62-7-13-16-36q-17-44-15-87v-3l1-20q-13-26-42-65l-58-75q-93-119-113-190l-2-8v-1q-11-42-10-79 1-32 11-62v-2m171-84 5-5 6 1v-7l-1-28-3-27 35-30 2-1h1l70-38 56-45q-1-17-13-32l18-35q61 12 111-11l-16 44 69 3q56-23 65-24l-8-50q-2-28 11-55l-14-7 59-55 3-15 53-53q37-12 99-44 66-34 97-46l48-16 47-1V564q-68 30-134 2-38 56-118 88l-20 43q-25 10-89 51-56 36-92 46l-47 6q-38 0-78-18l-13 16q-39 43-120 83l-74 36-3 18-12-7m614-396q-11-39-50-24-36 14-53 52l30 28q54-23 73-56m176-117q-31-9-57 8 4 30-20 80 13 10 34 11 21 1 31-11-10-12-3-41l15-47M1817 1735l-30-20q-33-23-76-62l-15-13-25-23-57-48-27-23q-49-42-77-79 42-7 63-50 43 45 123 150 78 101 126 149l-5 19M847 532q120 143 70 290l-10 26-13 27-4 1q16-83-10-150-22-58-73-108l-53-70-18 12-47-29-13-31-43-32q5-45 34-69l-33-45q-20-27-54-30-13 59-24 78-63-46-136-47 6-34-23-81-31-49-28-82-68-14-111-62l-22-30-16-28-20-41Q255 11 329 9q0 43-12 63L303 86l22 14 5 2 28-2 1-1q-11-9-7-27l4-13 23-40L361 9h83l41 47 7 16 2 9 6 19 4 8 28 34 21 27q11 22 16 67 76 18 130 87l87 116 5 33 56 60M341 1398q-58 44-169 93-129 57-172 83v-7q61-56 159-128l165-122q7-1 9 5-5 44 8 76m-93-157q-10-36 8-86 0-7-8-7L0 1252V1133q71-30 152-61l10-4 46-18q28-12 45-13l40 9 21 1q21-2 67-33l50-29 106-50 13-6 62-26q37-16 61-23 18-7 85-16l35 31-18 14q-24 15-52 21-32 13-51 25l-90 64-12 10q-100 42-157 85 11 8 22 27l-37 37-34 25-31 4-32 2q-22 7-53 32m883-411-3 1h-2q0-22 5-42 16-68 86-128l6-3 75-26q14 11 20 28-15 33-57 71-64 34-93 80l-7 5-20 10-10 4M479 188q-20-30-55-14 13 64 42 90l17-7 18-6q-10-45-22-63M467 437q24 1 46 22l38 31q-11 13-16 45-30-28-68-98M653 633l19-19 75 61q41 38 56 83 10 26 11 58-38-20-68-44l-27-30q-50-61-66-109M502 1265q-13-15-27-20 48-58 138-125l84-41q47-29 68-67l12-9 19-1q11 78-54 141l-117 65q-2 1-123 57m700-121-30-95 10 10 7 11 15-18 12 17q55 26 115 77l90 119q-23 12-31 52l-53-44-63-54-20-16-52-59 5 24-49-47q-21-29-22-64 26 24 38 63l28 24" fill="#fff" fill-opacity=".8"/></svg>