<?xml version="1.1" encoding="UTF-8"?><svg xmlns="http://www.w3.org/2000/svg" xmlns:xlink="http://www.w3.org/1999/xlink" version="2.0" width="100pt" height="100pt" viewBox="0 0 2000 2000" clip-rule="evenodd" fill-rule="evenodd" preserveAspectRatio="none"><path d="M910 467 1061 0h63l-41 502L1699 53 1203 631l762-1-600 143q-16-45-104-81l-127-44q-78-31-119 10-13 13-26 54l-10 41-12-47q-30-90-138-122-93-28-191-3-24 6-30 31-7 25 9 42l-1 6L47 248 750 541 574 0h52L910 467M-13 871v-5l-1 5 1-15L627 704l10 17 52 52q30 30 31 62l-1 1-37 37 3-3-698 1" fill="#f1f2f2" fill-opacity=".8"/><path d="M934 949l-31 31q-45 33-111 42l-153-7-74-17 67-31 30 20q35 20 64 14 29-6 58-34l22-26 98-8 30 16" fill="#fff"/><path d="M805 751q-14-31-65-68l-48-31 87 7q34 6 110 86 15 17 21 52 6 30 21 40 30 20 100-6l-68 92-43-17-75-3q-19-102-40-152" fill="#fff"/><path d="M1804 1300l-47-25-29 89q-34 100-65 153-49 82-128 172l44 25 44-44q51-60 92-138 41-78 69-163l20-69M652 1144q-93-1-143-17-80-24-90-34L286 1222l146-72q67 30 149 27 51-1 108-18l46-17-83 2m536-130 2-16-23-1-48 7q-36 12-57 30-38 31-73 100-32 66-7 145 12 40 31 67l106-163 43-100 26-69m57-3-28 66-55 117q-36 69-139 222l470 250 19-23-278-145-27-22q-9-13-4-22 5-9 21-9 16-1 33 8l286 150q45-57 81-122l-312-163q-17-9-23-27-6-19 3-37 9-17 28-23l36 3 310 162 37-104 11-41-469-240m-98-280-7 24 110 54-16 36 761 401v408q0 42-8 85l-144-77-187 177-106 127-38-21q-46-22-89-30-49-9-91 12-39 18-62 56l-11 17h-61l25-36q23-49-4-124-26-69-65-97l-55-39-50 38-42 48q-45 55-56 89-11 37 27 121H943q-59-63-64-106-4-45 26-102l31-49-91-87q-69 17-110 67-39 48-44 114-8 107 93 163H690q-31-34-45-93l-9-51-22-55q-31-63-77-107-67-64-236-12-119 37-276 127-30-67-30-155V1110q127-37 268-103l115-59 39 23 131 50q148 47 235 38 70-8 108-25 47-22 92-74l101-121-23-12 28-104 58 8" fill="#fff"/></svg>