<?xml version="1.1" encoding="UTF-8"?><svg xmlns="http://www.w3.org/2000/svg" xmlns:xlink="http://www.w3.org/1999/xlink" version="2.0" width="100pt" height="100pt" viewBox="0 0 2000 2000" clip-rule="evenodd" fill-rule="evenodd" preserveAspectRatio="none"><path d="M773 856q30 29 30 71 0 42-30 72-30 30-72 30-42 0-71-30-30-30-30-72 0-42 30-71 29-30 71-30 42 0 72 30m95 71q0-69-49-117-49-49-118-49-69 0-117 49-49 48-49 117 0 69 49 118 48 49 117 49 69 0 118-49 49-49 49-118m8-174q72 72 72 174 0 103-72 175-73 72-175 72-102 0-174-72-72-72-72-175 0-102 72-174 72-72 174-72 102 0 175 72" fill="#fff"/><path d="M1456 298q-95-63-214-47-115 16-190 96-82 87-80 215 1 60 35 132 33 72 80 113 89 78 199 77 100 0 186-64 85-63 118-160 35-104-8-208-40-99-126-154m252 201q148 84 290-1V646q-74-35-156-29-224 16-274 223-21 88 2 177 25 91 87 150 72 67 167 79 89 10 174-29v105q-83-42-166-35-127 12-207 103-84 95-73 232 6 71 48 141 43 71 102 109 81 53 180 48-90 75-230 75h-49q9-67-11-133-17-57-42-92l-48-53q-38-37-99-61-65-25-126-24-94 2-172 54-66 44-98 106-51 98-30 203H532q-181-160-270-488 65-26 102-94 35-64 36-144 3-186-138-247 68-312 300-520 148 79 285 1 141-80 125-252 135-44 304-46 175-3 306 41-24 168 126 253M657 1287q-100 13-177 87-75 74-88 168-23 166 92 283 116 117 283 92 109-16 183-107 74-90 72-203-2-156-121-250-111-87-244-70m20-670q-114 9-195 83-77 72-90 172-18 134 50 233 61 89 171 124 108 33 210-1 110-37 164-141 90-170-24-329Q853 603 677 617" fill="#fff" fill-opacity=".8"/></svg>