<?xml version="1.1" encoding="UTF-8"?><svg xmlns="http://www.w3.org/2000/svg" xmlns:xlink="http://www.w3.org/1999/xlink" version="2.0" width="100pt" height="100pt" viewBox="0 0 2000 2000" clip-rule="evenodd" fill-rule="evenodd" preserveAspectRatio="none"><path d="M628 1219l24-33q37 37 8 90-28 52-70 46-34-5-79-40-43-34-63-68-25-43 3-97 31-58 89-28 13 7 35 28l37 29q-12 45-42 64-18 12-45 12l-51-3q4 17 44 25l60-4 50-21M182 501l9 3q-2 5 1 6l12 4-5 7q-22-11-24-25l7 5m121-9q-18-18-43-20-25-1-35 17l-22-18-22-17q-43 48-57 75l20 18 20 18-34 43q-19 0-28 20L89 663q25 23 80 67l-5 10q-5 4-3 8L289 850l66 52 59 52q22 26 30 63 9 40-5 75l-27 37q-19 22-24 37 33 59 61 90 40 45 95 70l43 18q45 27 7 119l-50 127-35 52-32 47q-8 1-15 12l-11 20 108 75 114 67 9-7 8-10 49 34q51-44 92-167l60-207q15-45 42-65 30-22 66-5l12 9 12 9 22-2 12-16q1-6-10-22l-12-25q-3-20 6-44l16-37 1 3q35-10 55-31 24-26-21-41-10-7-11-22l-2-27-23-22-21-22 10-29q-9-12-26-12l-31 3L744 895l-7 1-7-1L304 534q5-6-1-11l-6-8 6-23M1953 1849l-37 46q-95 97-254 97H353q-156 0-249-97-96-93-96-249V338q0-86 19-147L1953 1849" fill="#fff" fill-opacity=".8"/><path d="M1441 340l-51 126q-16 41-17 67-2 36 25 52l42 18q55 25 95 70 27 31 62 90l-25 37q-20 23-26 38-14 34-5 75 7 36 30 62l58 52 67 52 128 103-3 7-6 10 81 67q-6 10-14 35-9 20-27 20l-35 44 20 18 21 17q-15 30-58 75l-22-17-21-18q-10 18-36 17-24-1-42-19l2-11 4-13-6-8q-5-4-1-11l-215-179-211-181-7-1h-7q-41-38-122-106L997 821l-31 3q-17 0-26-12l10-29-22-22-22-22-2-27q-1-15-11-22-45-15-21-41 19-21 54-31l2 5 15-34q10-26 7-48l-12-26q-11-16-10-22 1-9 12-16l22-2 12 9 12 9q36 18 66-5 27-20 41-65l61-206q42-124 92-168l48 34 9-9q4-8 9-8l114 67q69 42 107 75l-11 20q-6 11-14 12l-32 47q-25 31-35 53M1325 653q-29 53 8 90l24-33 51-21 59-4q40 9 44 25l-52-3q-27 1-45 12-28 19-42 64l38 29 35 28q59 30 89-28 28-54 3-97-20-34-63-67-45-36-79-41-42-6-70 46m478 775 6 5q-1-13-23-25l-5 7 12 4 1 6 9 3" fill="#fff"/></svg>