<?xml version="1.1" encoding="UTF-8"?><svg xmlns="http://www.w3.org/2000/svg" xmlns:xlink="http://www.w3.org/1999/xlink" version="2.0" width="100pt" height="100pt" viewBox="0 0 2000 2000" clip-rule="evenodd" fill-rule="evenodd" preserveAspectRatio="none"><path d="M1218 1755 994 1430 770 1755h448M153 733 477 957 153 1182V733M1230 130 1006 455 782 130h448m-90 529q10 20 20 72 10 57 4 74 37-1 15 75l-28 90q2 11 9 18l15 13 19 36q14 33 46 39l62 5q86 12 143 62 28 24 39 97l15 56 12 56q6 59 27 174l15 49 20 49 43 128 7 44q11 148 10 194H1374l-3-51 3-42q2-24-3-41l-5-42-5-43-10-19q-12-19-30 2-18 21-13 46 9 48 7 96l-11 94H705l-4-95q-1-54 7-95 5-25-13-46-18-21-30-2l-8 15-5-6q-2 24 9 71 5 40-2 122l2 36H430l-8-60q-5-39-2-95l3-96 6-43 30-110 19-60 27-174q3-21 13-56l14-56q14-75 40-97 57-50 142-62l62-5q33-6 47-39 9-25 18-36l15-13q8-7 9-18l-28-90q-21-76 16-75-7-17 4-74 9-51 19-72 18-37 56-56 34-17 76-14 42-3 77 14 37 18 55 56m727 94v449L1543 977l324-224" fill="#fff"/></svg>