<?xml version="1.1" encoding="UTF-8"?><svg xmlns="http://www.w3.org/2000/svg" xmlns:xlink="http://www.w3.org/1999/xlink" version="2.0" width="100pt" height="100pt" viewBox="0 0 2000 2000" clip-rule="evenodd" fill-rule="evenodd" preserveAspectRatio="none"><path d="M749 1512l43 8 13 11 10 14 28 25q18 18 12 33 30-3 70-22 44-23 65-33 44-19 105-35l27-3 23-7-68-23-49-9-49-10-39-12-43 2-45 12-48 5 13-8q-15 1-38 20l-30 32m-27-52q-18 1-49 14l-49 19-2-5-22 22q20 8 24 11 12 10-2 21l39 1-3 67-8 66q-8 77-8 148l13-41 7-43 25-111 15-88q7-59 20-81M977 760l-33-2-35-5-17 10q-33 17-91 102-28 39-54 116-13 38-20 85 0-56-8-103-15-9-24-57l-9-65-15-60-19-54q0 33-6 48l6 8v7q-6 13-3 40l8 42 12 66 13 112 4 55 6 55q1 12 8 28l12 28q0 35 5 51 9-12 15-50l7-57q6-27 31-97 7-21 26-49l33-49 33-52 21-24 14-26 15-21 12-25q4-6 24-19 16-11 17-22l12-16m724 456 2 4 164 75 3-1 3 1 6-5 12 10q4 7 0 12l16 8-14 27-16-7-8 16-2 11-8 9-31-15-4 5-48-23-24-12-23-10q-26-8-44 12l-7 13-8 12q-45-4-68-24l-11-10q-15-9-36 14l-30 33-20 33-1 6-4 6-42-25-32 22-161-107q-98-64-136-131-10 24-35 48l-42 41q-12 48 22 87l55 56q32 51 48 124v29q-3 20 0 31 2 8 11 17 10 10 12 18l1 19-1 23q5 28 26 73 12 40-14 75 0 16 15 42 13 22 9 47l52 86H970q-45-61-102-86-30 19-92 30l-104 18q-7 18-8 38H273q-67 0-119-16-3-59 25-96l66-63 122-126q78-73 157-99l22-37 19-40-74 48q-48 34-80-1 30-35 86-68l98-56q26-57 10-122-26-70-34-104-4-17-5-53-1-30-6-42-16-36-102-103L328 914Q211 816 167 738q-58-104-52-263 65-23 142-29 77-103 105-153l-26-15 8-15-5-5 17-36q10-22 19-34l10 6q19 13 32 17l39 12q28 9 35-6l4-13q10-28 44-51l12 6 11 7q24 6 41-11l27-41 27-41 6 2 17-26 11 3 7 8 14 9 9-13 24 15-9 14 6 10-4 13-8-1-2 2-3 1-96 137 1 4-57 79 2 9-3 9-9-3-12 15q-12 3-14 5-3 14-12 7l-10-15 4 1-11-4-2 3q-60 12-75 19-39 17-49 58-3 11 0 43v52l-16 50q-11 22-8 33 6 28 42 41 46 17 53 24 42-20 112 0 74 21 101 12-8-19-17-62-8-38-18-57l-6-9-1-11-9-29v-3q0-15-10-27l-7-45 6-68 8-20q5-49 110-76 63 5 104 59 40 54 42 134V603q7 59 60 86l33 7 32 5q44 15 95 45 53 30 77 56l15 30 15 29 58 51q37 33 42 74 135 81 184 201l32 13 5-1 13-8 11-12-4 3q-2-12 1-20 4-11 15 0l16-3 19 7 7-7 7 6 4 9 96 42" fill="#fff"/></svg>