<?xml version="1.1" encoding="UTF-8"?><svg xmlns="http://www.w3.org/2000/svg" xmlns:xlink="http://www.w3.org/1999/xlink" version="2.0" width="100pt" height="100pt" viewBox="0 0 2000 2000" clip-rule="evenodd" fill-rule="evenodd" preserveAspectRatio="none"><path d="M1694 430l17 7-5 26-3 26q0 49 5 61l19-55 16-41 18 7 9-9 11-8 14-21-13-2 30-14-2-11-1 1-33 3q-7 1-25 15l-11 9-13 7-33-1m-52 47 19-14q8-10 3-22l-2-1-40-34q-27-21-47-17l-46 10-58 7h20l22-1 34 9q-8 0-31 17l-12 11-12 7 16 3 23 8 32 15 32-7 31-14q-1 21-22 51l19-12 19-16m143-275 20 26 19 26-5 16-12 15q-3 7-3 38h-1l1 14 9 34v18l3 9 1 9-18 25q-7 12-6 35l2 37q0 23-18 71l-25 58-28 58q-23 26-68 18-12-2-33-16l-33-14-12-9-14-6-75-51-23-19q-10-11-11-25l5-50 1-50q-26-11-31-11l7 5q-7-1-17-9l-15-13-34-26 4 2q-47-37-77-38 16-10 47-19l46-15-65-15-70-2 69-42q35-22 72-39l33-14-17-8-38-16-72-18 40-3h81l60-3 38-3q-9-7-20-11h42l30 4 29 1q-20-29-35-39l-20-10-19-7 34 4 33 7 52 12 59 31q32 18 50 17l-11-16 39 27m0 441 95 84q92 105 78 204-15 107-88 255-65 129-99 156-37 28-178 175l-493 42-101 47-17 12-43 26-3-6-21 16-79-91-48 6-11 4-41 7-9-14-9-15q-10-10-25-14l-26 1-56 28-55 28-5-5-36 17-10-10q-6-6-3-12l-9-19q-7 1-19 8l-17-31 18-10q-4-6 0-15l14-12 7 6 4-1 3 2q64-33 192-93l2-5 112-52 4-11 8-7 8 8 22-9 10 4 9-1q13-13 18 0l2 23-1 1 9 9q7 8 16 10h10 10l3 6-3 9-10 5-8 12 29-17 97 12q251-84 320-98l87-11 36-1 18-60q26-71 70-120l115-124-34-59-48-23v35l-11 57-114 151-51 56-233 65q-58-125-63-180-2-31 8-127l10-98q-2-14 24-141L953 816 826 845l-81 165-108 141v46l23 21-15 17 4 4 2 3-14 19v15l-23 17-24 28-8-6-39 27-29-32-56 42-44-38 5-13q-17 14-42 25l-13-10-13-11-28-5-25 9-22 21-65 68q-3 1-7-4l-28 29-12-6q-8-5-7-12l-15-14-15 14-27-25 15-15q-7-4-5-14 1-9 9-15l8 3 4-2h4l151-149q-1-4 1-6l89-85v-12q0-6 5-9l11 4q11-11 18-15l19-3q7-16 16-6l10 21-6-2 16 9 19 5q13-8 18-7l32-56q16-49 39-107 46-115 82-155 55-60 143-134 103-87 137-92 25-3 83-35 60-33 88-39 37-7 149-2l105 6-2 12 8 64q9 67 18 87 14 32 89 119l110 11h4l1 1h3l1 1 6 2 4 3q6 1 18 8v1q47 18 86-7 32-20 59-75l20-52M1505 485l-7-7-9-3 10 35 14 31 19 30q12 20 13 33l43 31 14 17 13 17q-10-16-18-46l-12-49q-5-16-34-39l-40-35V480l-6 5M399 1231l17-10q-12-3-22 6l5 4M126 1376l-2-2-2 4h-2l-4 6 10-8m239-122-12 12q-13 21 8 35 19 12 36 4l16-9H400q-20-1-28-14-12-19 10-39l-5-2-12 13m419 237 4 7 13-8-17 1m-20 8-16 8q-11 5-15 8-19 16-4 35 15 19 33 17l20-5-4-9-10 5 6-11-16-32 14-8-8-8m-283 44-3 4-2-1-6 5 13-5-2-3m611 90 393-37-303 398H875l217-361" fill="#fff"/><path d="M1291 138l-7 75q-25 24-55 67l-5 8L297 180l994-42M562 766l-39 65-396-46 435-19M775 564q-50 30-80 63-10 10-10 25L152 590l623-26M963 451q-17 5-26 21L102 375l1077-45q-9 31-15 65l-11 12-96 18-94 26M63 1762l-3-10 842-35q-17 25-36 67l-30 69-773-91" fill="#fff" fill-opacity=".8"/></svg>