<?xml version="1.1" encoding="UTF-8"?><svg xmlns="http://www.w3.org/2000/svg" xmlns:xlink="http://www.w3.org/1999/xlink" version="2.0" width="100pt" height="100pt" viewBox="0 0 2000 2000" clip-rule="evenodd" fill-rule="evenodd" preserveAspectRatio="none"><path d="M947 1512q15 1 44 12l47 8q-11-17-45-26-36-11-46 6m207 101-12-4q-1 16 19 13-4 12 1 27 5 15 12-1-8 1-7-12v-20l-13-3m-100-62-16 19q14-3 17 16 3 19 15 17 9-15 7-48-2-32-13-30 0 14-10 26m94 26q7-20-11-25-19-5-21 12l16 7 16 6M921 1104l206 48-155 234-206-54 155-228m451 105-149 244-185-49 147-238 187 43m-83 261 140-248 193 45-151 251-182-48M609 1581q40-1 103 18l127 34 59 14q38 14 26 41-11 24-59 11l-64-23-208-63-9-8 2-11q0-5 3-8 16 18 29 4l-9-9M346 1363q-1 11 13 20 12 9 6 26l17-13 9-20-24-5-21-8m-33-38q5 5 20 7l19 6v-26q-10-11-24-6-15 5-15 19m283-296-186 209-189-50L416 987l180 42M479 1256l176-213 208 48-164 224-220-59m106 198q-9-17-54-30-42-12-49-35-8 29 32 45l71 20m14 8q-7 12-20 11l-34-8-37-5q-10 25-4 71 7 55 4 78 52 59 170 99 139 40 205 63 48-20 84-26 10-10 24-47 12-33 28-43l37 16 34 3-35-26-36-26 22-1q12-6-3-12l-41-9-52-16-1 10-8 12-3 13-13 3-2-1q-9 6-15-4l-144-31q-85-19-139-48l-35 7q-9-10-4-27l4-32q83 10 169 43l170 43q-23-17-15-40 10 25 58 42l65 3-68-15q-38-12-42-43l25-26q-18-11-26 5l-19 27q-29-18-153-46-96-21-125-77 2 12-22 33-13 12 9 6l-12 21m-176-64q3 22 13 30 9-11 8-35-2-25-14-30-9 12-7 35m56-476L671 725l165 34L655 963 479 922M279 210q-29 6-69 28 2 34-7 70l-19 59q20 3 31-18 11-21 27-21-50-20-8-69 41-48 92-15 4-7 16-14l17-12q-41-16-80-8m838 606 206 43-149 223-206-48 149-218m251 52 188 39-140 230-187-43 139-226M882 768l189 39-158 215-202-47L882 768m925 190-141 236-196-45 132-233 205 42m81-235 2 198-24 320-314 567-505-104-41 65-97 39-207-48-218-120-13-160-276-93-61-90-19-130L585 691 165 391l34-173 61-26L1728 468l160 255M1651 531q59-1 86-22-446-83-1372-284 1 12-11 21-13 10-15 18l397 71 406 77-12 16q-6 11 12 10 15-4 6-13-9-9 7-13 21 4 29 17l16 22q12-1 5-14-7-13 1-12 1 7 20 7l-11 9q-7 5-2 17 12-9 30 0 14 8 22-7v20q195-7 239 64l8-17 11-15v19q1 11 13 7 7-1 10-13 3-12 10-13 3 10-2 17-6 8-5 15l102-4m99 24q10 35-12 83l-34 78q10-4 16 9 7 13-3 11-27-22-119-44-109-26-139-40 2 23-13 26-114-44-227-52V606L907 537 592 471q0-15-13-20-4 2-5 14l-8 12-116-17q-66-12-85-48l-84-12-84-14q78 71 214 161L637 697q-30-1-54 24l-43 34q-68 83-202 213L132 1176q3 10-2 17-5 8-4 15l9 11-3 7 215 60q3 9 26 13 22 3 25 13-11 7-3 24 8 17 22 14-1-12 18-8 13 2 8-4-32-2-26-32l130 35-1 9 21 6 25 1 1-3 216 60-4 8 21-3 139 38-11 10q7-1 15 4l17 2 1-2 8 8 11-1 8-7 189 52-15 15q13 1 14 31 0 29 17 27l8-8 5-11q-10 0-11-13-3-15-15-19h20l1-15 224 62-5 11q20 8 51-6l46-27q119-241 246-439-3 31-19 69l-33 66-80 138q-47 82-69 141-22 20-29 49l-10 67 15 2q7 2 5 11l-15 1-11-1q19 8 6 44-14 39-6 47 126-233 304-544l1-127-1-112q21 1 19-20l-54-89q-32-58-56-72 5-10-10-19-21-13-29-40 39-22 56-97 18-78-23-90" fill="#fff"/></svg>