<?xml version="1.1" encoding="UTF-8"?><svg xmlns="http://www.w3.org/2000/svg" xmlns:xlink="http://www.w3.org/1999/xlink" version="2.0" width="100pt" height="100pt" viewBox="0 0 2000 2000" clip-rule="evenodd" fill-rule="evenodd" preserveAspectRatio="none"><path d="M942 611l67-263 66 263 208-174-101 252 271-18-230 145 230 144-271-18 101 252-208-174-67 263-66-263-209 174L834 942 564 960 793 816 564 671l271 18L734 437 942 611" fill="#fff" fill-opacity=".8"/><path d="M348 860l44 205 204 43-204 44-44 204-43-204-205-44 205-43 43-205" fill="#fff" fill-opacity=".8"/><path d="M1621 65l43 205 205 43-205 44-43 204-43-204-205-44 205-43 43-205" fill="#fff" fill-opacity=".8"/><path d="M1726 773l24 114 114 24-114 24-24 114-24-114-114-24 114-24 24-114" fill="#fff" fill-opacity=".8"/><path d="M463 240l20 93 93 20-93 20-20 93-19-93-94-20 94-20 19-93" fill="#fff" fill-opacity=".8"/><path d="M868 1206l-17 50q-14 56-5 87 9 31 84 45l73 8-205 90-19-37q-20-47-23-96-3-48 54-102l58-45" fill="#fff"/><path d="M1036 956q7 11 206 74 197 62 241 141 53 95-1 205-46 95-164 190-125 101-183 170-75 90-62 152 15 65 68 112H470q23-119 86-223 96-160 265-236 305-124 395-170 140-72 100-150-36-70-174-123-145-55-161-77-28-39-1-89l33-41 1 16 22 49" fill="#fff"/><path d="M1376 1578l89 60q92 80 106 180 18 129-4 182H1211l47-42q33-38 30-72-3-39-47-85l-43-38 178-185" fill="#fff"/></svg>