<?xml version="1.1" encoding="UTF-8"?><svg xmlns="http://www.w3.org/2000/svg" xmlns:xlink="http://www.w3.org/1999/xlink" version="2.0" width="100pt" height="100pt" viewBox="0 0 2000 2000" clip-rule="evenodd" fill-rule="evenodd" preserveAspectRatio="none"><path d="M92 652 479 139 313 545l179 1L345 739H539L212 1186 345 853H99L250 652H92" fill="#fff" fill-opacity=".8"/><path d="M897 411q25-46 87-42 63-3 88 42l13 44q7 34 3 44 24-1 10 45l-19 54 6 11 10 8 12 22q9 20 31 23l41 3q56 7 95 37 17 14 26 59l10 34 8 33 18 104 10 30 13 29 17 47 16 20 18 18 43 60 23 28 23 28 13 28 11 29 10 22 14 20 23 9 26 3q18 4 41 23 26 21-4 26l-16 5q-4 3-1 16 3 11 19 29l26 21 26 20q16 16-10 16l-16-3h-14l-15 5-15-3q-6 0-14 5l-14 5-14-6-13-9-32-9-9-15-9-17-19-24-8-15-15-4-16-1-8-14q-9-19-47-49l-21-22-19-25-43-47q-20-20-77-96l-14-23-13-24-20 1q-12 13-8 28l4 59-7 57q-4 21-2 50l3 50-3 29q-2 18 2 25l17 24 43 58 11 35 19 30 34 68q13 32 38 69l22 30 16 33q6 18 2 37l-8 14q-6 9-5 16 1 7 12 16l14 15 9 35q5 21 15 32l19 36 14 41 12 46H1198l-3-6-18-26-15-28q-3-11-3-36l-3-36-17-35-19-35-25-68-40-64q-26-38-32-67l-7-34q-4-17-16-30l-16-15-15 15q-12 13-16 30l-7 34q-6 29-32 67l-40 64-25 68-19 35q-13 22-17 35-4 12-3 36l-3 36-15 28-18 26-3 6H504l12-46 14-41 19-36 15-32q5-27 9-35l15-15 11-16-5-16-8-14q-4-19 2-37 3-14 16-33l22-30q23-33 37-69l35-68 19-30q4-24 11-35l43-58 17-24q5-9-1-25l-8-26 2-26 4-27-3-83q-3-51 3-83 3-15-9-28l-19-1-13 24-14 23-77 96-43 47-18 25-22 22q-37 30-47 49l-8 14-16 1-15 4-8 15-20 24-8 17-9 15q-10 9-32 9l-13 9-14 6-14-5-14-5-15 3-15-5-30 3q-26 0-10-16l26-20 26-21 19-29q3-13-1-16-2-2-16-5-47-7 37-49l25-3 24-9 14-20 10-22 11-29 13-28 22-28 24-28q25-42 43-60l19-18 15-20 17-47 23-59 18-104 8-33 10-34q9-45 26-59 37-30 94-37l42-3q21-3 30-23l13-22 10-8 5-11-18-54q-14-46 10-45-4-10 3-44 7-31 13-44" fill="#fff"/><path d="M1519 135q-12 46 7 92 11 27 11 44-1 16-14 41-56 110-25 180l37 34q23 19 49 9 21-8 28-41 10-43 16-52h7l1-7 4-1q20-57 23-89 2-24-3-44l28 67q19 60-1 109l-24 50-20 50q-6 26 3 58l14 55-5 59-10 55q-1 33 27 54 26 19 61 17 41-4 60-90 7-35-3-61l-30-54q-24-45-15-95 9-52 50-81l5-39q9 21 7 60l-6 62q-5 52 39 113l60 91q25 52 9 106-12 41-76 66-68 26-83 54-12 23-3 50l21 48q14 28 6 51-5 17-28 42-26 27-31 62v41l-8 17-7 16q5-34-15-42l5-17q-6-10-5-29l4-31-4-26-20-21-32-23q-20-14-26-28l-7-26-9-27q-12-19-42-35-36-20-46-30-32-30-43-102-5-45 26-82l33-28q23-19 22-32 15-13-1-55-13-33-30-53l-41-40-41-44q-40-57-41-122 0-63 37-124l30-38 30-39q6-12 12-55 4-35 23-50" fill="#fff" fill-opacity=".8"/><path d="M1801 129q8 20 25 44l46 70q15 39-9 87-26 50-68 47l5-5-10-2q14-13 4-30l-19-28q-12-22-7-80l24-69 9-34" fill="#fff" fill-opacity=".8"/></svg>