<?xml version="1.1" encoding="UTF-8"?><svg xmlns="http://www.w3.org/2000/svg" xmlns:xlink="http://www.w3.org/1999/xlink" version="2.0" width="100pt" height="100pt" viewBox="0 0 2000 2000" clip-rule="evenodd" fill-rule="evenodd" preserveAspectRatio="none"><path d="M749 702 737 524l144 89 31 60 58-554 20-3 20 3 58 554 31-60 144-89-12 178-91 115 580-279-446 354 61-12 158 86-130 69-92-3 434 351-585-275 117 120v184l-149-109-20-115-69 611H981l-69-611-20 115-149 109V1228l119-122-587 277 433-351-91 3-130-69 158-86 61 12L260 538 839 815 749 702m249-80-8-1-8 1-23 222-30 57L698 790 876 931l1 57-173 140 235-111 20 33 28 244h6l28-244 21-32 234 110-173-140 1-57 178-141-232 111-29-57-23-222" fill="#fff" fill-opacity=".8"/><path d="M748 1435q-20-47-23-95-3-49 55-103l58-45-17 50q-15 57-6 88 9 31 85 45l73 7-205 90-20-37" fill="#fff"/><path d="M1186 1357q139-71 99-150-35-69-174-122-145-55-161-78-28-39 0-88l33-42 1 16q4 21 21 49 7 11 206 74 198 62 242 141 53 95-1 205-46 95-164 190-126 101-184 171-75 90-61 152 17 76 84 125H437q20-118 81-224 96-169 272-249 306-124 396-170" fill="#fff"/><path d="M1345 1585l89 60q92 80 106 180 18 121-1 175H1189q72-55 69-108-3-39-47-84l-43-38 177-185" fill="#fff"/></svg>