<?xml version="1.1" encoding="UTF-8"?><svg xmlns="http://www.w3.org/2000/svg" xmlns:xlink="http://www.w3.org/1999/xlink" version="2.0" width="100pt" height="100pt" viewBox="0 0 2000 2000" clip-rule="evenodd" fill-rule="evenodd" preserveAspectRatio="none"><path d="M869 231l58-3-39 10q-46 13-81 34-114 66-81 177 16 56 125 127 65 43 230 141 330 211 375 469 48 278-171 568-109 145-228 234l-719 1q178-123 349-285 340-325 301-520-20-103-114-201-52-54-186-157-121-93-162-145-65-83-43-167 49-187 251-255 64-22 135-28" fill="#fff"/><path d="M1548 1254l48 158q27 119 17 227-9 104-77 236-33 66-65 111l-303 10 85-85q103-112 190-245 88-132 105-285V1254" fill="#fff"/></svg>