<?xml version="1.1" encoding="UTF-8"?><svg xmlns="http://www.w3.org/2000/svg" xmlns:xlink="http://www.w3.org/1999/xlink" version="2.0" width="100pt" height="100pt" viewBox="0 0 2000 2000" clip-rule="evenodd" fill-rule="evenodd" preserveAspectRatio="none"><path d="M923 1158q-17 25-20 44-2 17 5 50l9 50q1 31-12 39l-42 10-46 6q-15-2-41-24l4-4q-9-9-48-16-31-5-36-28-1-9 9-23l11-17 2-21q0-13 3-21l7-2 2-6 7 10q86-2 115-27l31-39q20-27 34-34 12 8 35 14l-29 39" fill="#fff"/><path d="M1108 846q28 52 40 106l-73 35-79 18-36 7q-23-23-35-68-14-51 3-80 10-19 49-43l50-42q42-3 81 67" fill="#fff"/><path d="M1140 1082q-13-12-9-30l19-1 14 4 9 1q5 18-4 26l-26 3-3-3" fill="#fff"/><path d="M873 1085l-17-27-12-29 38 5q9 8 8 35l-17 16" fill="#fff"/><path d="M1187 819q-17-20-21-49-5-31 11-47l9-2q13-16 31-23l39-2 24 50q15 28 4 46-9 16-39 28-28 12-42 9l-16-10" fill="#fff"/><path d="M1087 649q11-33 44-23 33 10 25 49l-30 2q-18-1-23-8l-16-20" fill="#fff"/><path d="M283 992l40-10q33-1 23 21-10 22-33 25l-37-7q-14-12 7-29" fill="#fff" fill-opacity=".8"/><path d="M1440 609l27-4q22 0 24 13l-8 30q-19 5-33-8-13-13-10-31" fill="#fff"/><path d="M1527 569l13-7q10 8 6 19-9 4-19 0V569" fill="#fff"/><path d="M720 555q14-13 1-31-13-17-31-16-21 2-25 22-3 20 18 9l37 16m141 73q10-40-34-59-45-19-61 33-16 53 21 57l20 16q43-9 54-47M424 923q-14-58-14-114 0-206 145-352Q701 312 907 312q73 0 145 22l17 30 21 27q13 19 3 26-18 14-19 34-1 22 17 34l-1 4-46 14-47 10q-2 40 3 58l-40-7-39-8q-14 29 2 40l9 38q2 23-25 19 5 9 2 28l-12 8 11 23q2 9-8 23l-20 19-23 15q-12 24-62 18-44-5-46 25-24-20-57-67l-55-69q11 137 46 177l1 8 8 5-33 7q-10 6-15 22-3 9-1 38 2 26-3 36l-9 9-31-30q-18-14-33-15l-1 8-22 16q-14 5-27-5-10 37-31 27l-62-56" fill="#fff"/><path d="M1218 1327q-8 19-8 31 53 17 77 16 39 0 57-35l-9-31q-3-14-21-23-40-18-74-6v20l-9-3-13 31m263-51q18-9 32-50-16-11-45-12l-48 1-27 30-9-3q-10 35 31 46l65-3 1-9m-20-180q16-6 18-32 1-27-26-25l-26 10q-18 12-4 34 15 23 38 13M1306 912l9-1q19-25 70 9 65 41 75 42l12-48 12-48q14 0 27 11l24 19 17 6 16 3 25 4q53 94 53 205 0 176-124 300-125 125-301 125-114 0-215-59l32-25q3-7 20-19 14-10 24-14-38-2-50-14l-9-17-15-18 55-29 58-26q3-13-4-25l-13-19q-14-8-12-44 49 7 112-15 52-17 93-9l60-4q24-14 23-44-1-16-14-50l-45-84-3-50q-1-23-22-32l10-30" fill="#fff"/><path d="M1035 0q0 79 16 125l15-6q8 16 10 50 1 35 8 49 3-2 5-2l1 22q-10-1-27-12-15-9-30-7l-25 10-31 6h-4q-20-31-16-106l40 5q13-24 17-64l5-70h16" fill="#fff" fill-opacity=".8"/><path d="M419 1612H383q-14 28 8 33 23 5 35-19l-7-14m134-80-20 23q-31 3-16 45 15 41 53 22l23-19 4-32q1-24-8-31l-36-8m127 50-13 7q-29 11-35 51-6 40 35 32 28-5 36-44 8-39-23-46m147-35 59-5q17 4 44 19 31 18 34 30l12 4q-28 28-48 66-23 43-22 77l-10-87q-11-68-35-55l-33 66-32 69-59 160q21-100 3-149-18 5-26 11-10 19-43 50l-48 50q-45 64-73 118l25-73q9-43-6-79-52-8-153 103l-66 78h-4l-67-5 27-30 87-110 40-60q25-43 20-66-35-3-93 16l-91 34-92 31-91 32-30 13q-31-46-44-101l207-112 83-42q54-31 68-60l-179 46q23-24 90-60 68-36 90-60 29-5 47-25 19-23-18-29-29-5-69 0l-67 12L0 1480v-55l37-14q92-29 139-54l49-21q35-17 38-30L0 1320v-41l77-22 134-31 60-12q43-11 51-25-78-38-151-41l152-7 157-6 10 14 96 4-26 15-29 14h55l53 7-43 13-45 11-114 43 19 6v9q-29 16-54 41l68 4q45 1 63 14-11 11-11 28-11 11-16 30-23 11-7 21l28 13 12 6 1 14-6 12-10 11 86-17 89-13-33 42-35 42q22-5 87-38 56-29 88-28l-27 52q-17 36-12 56l60-14" fill="#fff" fill-opacity=".8"/><path d="M1269 1674l24-62 18 13 20 8 26-6 25-12 12 64q10 45 3 60l-19-26q-13-16-24-17l-10 42-7 45q-2 36-1 108h-9q-3-43-27-89-16 20-26 54l-14 63-21 81h-43l-3-85 1-46-1-47-2-41q-2-27-8-39l-19 10-22 33q-16 19-15 36-2-18 2-44l8-42 2-43q2-29 11-37l-10-10q-5-10-3-29 12-11 23-4 11 7 11 23l20-7q12-6 22-5 19 34 30 109l26-58" fill="#fff" fill-opacity=".8"/><path d="M1611 389q-15 21-11 42 4 23 30 21 24-2 34-32 10-29-17-25l-27-6h-9m-152-43-16 13q-34 28-7 65 27 38 67 16 17-10 22-28 5-18-5-37l-10-13-16-7-35-9m111-58-20-29-13-14-11 38q-3 21 21 22 30 2 23-17m-254-99 30-94q16-55 20-95h2q15 82 6 241 42 1 75-62 30-75 45-96l-6 58q-6 36-4 57 44-24 100-86L1675 8l7-8 73 9-48 100-47 84q-29 56-26 88 67 13 189-142 32-42 63-69l35 35-58 72q-31 41-47 75-24 9-46 73 36 7 93-22l86-48-105 86q-65 54-90 97 41 3 113-18 76-22 113-22-30 2-93 39l-93 56q-51 28-72 43-43 30-56 59l-10 4 104 9 106-16q-21 7-83 37-54 27-86 34l49 2 50-6 103-1-75 34-77 31-41 27-36 31 59 6 57 12q-108 0-168 27 21-63 39-90l-49 3-50 7 2-3-46 5q0-30 40-73l-15 10h-9q14-14 25-43l19-46 28-36q19-22 18-37l-59 3 25-29q11-17 7-38-57 41-145 79-80 34-158 54l19-7 37-30q15-49 43-87l-30 18-31 16q13-31 13-103l-1 9q-24 8-59 48-40 45-58 56l-10-43-20 3-10-27q7-22 7-80 1-54 10-77l13 21q1 27 24 20 18-6 32-24 22-29 47-116" fill="#fff" fill-opacity=".8"/></svg>