<?xml version="1.1" encoding="UTF-8"?><svg xmlns="http://www.w3.org/2000/svg" xmlns:xlink="http://www.w3.org/1999/xlink" version="2.0" width="100pt" height="100pt" viewBox="0 0 2000 2000" clip-rule="evenodd" fill-rule="evenodd" preserveAspectRatio="none"><path d="M1000 1682l12-22 11-11 12 11q8 10 12 22l5 25q4 22 23 50l30 46 18 50 14 26 13 26 2 27 2 27q4 15 25 39v2H867l1-2 25-39 2-27 2-27 13-26 13-26 19-50 30-46q19-29 23-50l5-25" fill="#fff"/><path d="M959 830l-9 33q-6 25-3 32-18 0-7 34l13 39-4 8-7 6-9 16q-7 15-23 17l-30 2q-41 7-70 28-12 10-19 43l-13 49-14 77-16 44-13 34-25 28q-13 13-32 45l-34 41q-8 13-17 42l-8 16-10 14-17 7-19 3q-62 30-28 36l12 3q4 3 1 12l-14 21-19 16-19 14q-14 14 7 12l22-2q6 4 11 4l12-3 10 4 10 4q5 0 10-4l10-7 23-7 7-11 6-12 15-18 6-11q2-3 11-3l12-1 5-10q7-13 35-36l30-35 31-34 57-71 20-34q5-9 14 0 9 10 7 21-5 24-3 61l2 61-2 20-2 19 6 19q4 12 0 19l-12 17-32 43q-5 8-8 26l-13 22-26 50-28 51-28 46q-4 16-1 28l6 10 3 12-8 11-11 11-7 26q-3 16-10 24-8 9-14 26l-11 31-8 31H558l205-404-316 290 120-237-430 137 456-426-442-57 429-120-243-170 299 2L270 563 790 863 597 486l422 282 24-142L837 509l176-150L677 186 883 9 1323-1 1087 156l250 110-284 240 117 53-141 216h1l443-316-219 386 503-406-369 522 430-117-351 275 442 57-432 147 440 360-330-37 110 170-388-219 163 403h-95l-9-31-10-31-14-26q-7-8-10-24l-8-26-10-11-9-11q-1-6 4-12l6-10-1-28-28-46-28-51-26-50-14-22-7-26-32-43-13-17q-2-5-1-19l2-21-2-37q-1-22 1-37 9-54 2-85-2-11 6-21 9-9 15 0l9 17 11 17 57 71 31 34 30 35q28 23 34 36l6 10 12 1 11 3 6 11 14 18 6 12 7 11q7 7 24 7 11 11 20 11l10-4 10-4 11 3 12-4 22 2q21 2 7-12l-19-14-19-16-14-21q-3-9 1-12l11-3q22-4 3-19-16-15-30-17l-19-3-17-7-11-14-7-16-17-42-34-41-32-45-25-28-13-34q-15-34-16-44l-14-77-13-49q-7-33-19-43-28-21-70-28l-30-2q-16-2-23-17l-9-16q-11-5-12-14l14-39q10-34-8-34 3-7-2-32l-9-33q-17-33-65-31-47-2-64 31" fill="#fff"/></svg>