<?xml version="1.1" encoding="UTF-8"?><svg xmlns="http://www.w3.org/2000/svg" xmlns:xlink="http://www.w3.org/1999/xlink" version="2.0" width="100pt" height="100pt" viewBox="0 0 2000 2000" clip-rule="evenodd" fill-rule="evenodd" preserveAspectRatio="none"><path d="M922 214q-37-21-84-35l-40-10q95-4 199 31 209 71 260 265 23 88-44 173-44 55-168 150Q905 895 852 951q-97 101-118 208-41 202 312 538 177 168 361 295l-745-1q-123-92-236-242-227-300-177-588 47-267 388-486L875 529q113-74 130-132 34-114-83-183" fill="#fff"/><path d="M1846 1475l33 112q19 85 13 160-9 95-80 213-70 32-157 32h-69q94-87 185-225 62-94 75-203v-89" fill="#fff" fill-opacity=".8"/><path d="M1101 932q34-132 177-180 45-15 95-20l41-2-85 31q-80 46-57 125 12 39 89 90 46 30 163 100 233 149 265 331 33 190-111 389-73 100-169 177-146-107-258-206 235-225 207-361-14-73-81-142-36-38-131-111-85-65-115-103-45-58-30-118" fill="#fff" fill-opacity=".8"/><path d="M284 1658q79 121 172 226 57 65 104 108H346l-96-11q-41-60-76-133-58-120-66-218-10-112 18-235 9-42 49-164v131q18 159 109 296" fill="#fff"/></svg>