<?xml version="1.0" encoding="UTF-8" standalone="no"?>
<svg xmlns:ffdec="https://www.free-decompiler.com/flash" xmlns:xlink="http://www.w3.org/1999/xlink" ffdec:objectType="frame" height="100.0px" width="100.0px" xmlns="http://www.w3.org/2000/svg">
  <g transform="matrix(1.0, 0.0, 0.0, 1.0, 0.0, 0.0)">
    <use ffdec:characterId="1" height="98.1" transform="matrix(1.0, 0.0, 0.0, 1.0, 0.95, 1.65)" width="98.1" xlink:href="#shape0"/>
  </g>
  <defs>
    <g id="shape0" transform="matrix(1.0, 0.0, 0.0, 1.0, -0.95, -1.65)">
      <path d="M99.05 50.7 Q99.05 71.05 84.7 85.4 70.35 99.75 50.0 99.75 29.7 99.75 15.35 85.4 0.95 71.0 0.95 50.7 0.95 30.4 15.35 16.0 29.7 1.65 50.0 1.65 70.35 1.65 84.7 16.0 99.05 30.4 99.05 50.7 M44.2 24.0 L42.9 24.6 Q43.0 24.5 42.75 24.5 L42.7 24.4 42.25 24.65 42.55 24.6 42.1 25.1 41.35 25.75 42.7 25.15 43.0 25.05 44.0 24.25 44.2 24.0 M60.8 72.95 L61.35 73.05 Q61.6 72.95 61.55 73.2 L61.5 73.5 62.05 73.0 62.55 72.5 62.7 72.5 62.95 72.2 63.5 72.05 Q63.9 71.9 63.6 72.2 L63.2 72.45 64.85 71.75 Q65.75 71.35 65.85 71.5 L66.9 70.65 66.9 70.25 67.2 69.6 66.6 70.05 66.3 70.45 66.9 69.9 Q66.65 70.2 66.75 70.6 L65.6 71.3 64.75 71.55 65.15 71.1 Q65.35 70.85 65.15 70.8 L65.65 70.45 66.2 69.95 66.15 70.1 66.55 69.65 66.9 69.25 67.05 69.3 67.2 68.95 Q67.0 68.95 67.3 68.5 67.7 68.15 67.85 68.3 L68.05 68.5 Q67.65 69.15 67.8 69.35 L67.35 70.15 Q67.65 70.5 68.75 69.3 68.5 69.45 68.4 69.2 68.3 68.9 67.9 69.1 L68.5 67.85 Q68.7 67.25 69.35 66.75 L69.4 66.8 69.55 66.2 70.2 65.6 69.85 66.45 69.5 67.1 Q70.05 66.75 70.25 66.1 L70.8 64.85 Q71.3 64.55 70.9 65.25 70.45 66.1 70.55 66.15 L70.9 65.75 71.2 65.6 70.7 66.4 70.05 67.2 70.1 66.95 69.85 67.0 Q69.85 67.45 68.5 68.7 L68.9 68.6 69.6 68.0 70.5 66.8 71.25 65.75 Q71.6 65.2 71.6 65.45 L71.55 65.8 71.85 65.25 71.75 65.0 72.6 63.8 73.35 62.9 74.0 60.95 74.9 58.65 75.05 58.75 75.25 58.65 75.15 56.9 74.75 57.75 Q74.7 56.4 75.1 55.8 74.75 56.25 74.8 55.4 L74.9 54.0 75.05 52.95 Q75.05 52.35 75.2 52.15 L75.2 52.25 75.3 51.2 75.7 51.35 75.7 50.25 Q75.55 49.7 75.45 49.95 L75.55 49.45 75.8 49.5 Q76.25 50.75 76.0 51.1 L75.95 50.9 Q75.8 52.05 76.1 52.15 76.5 52.25 76.5 52.65 L76.65 51.1 Q76.8 50.45 76.3 49.15 76.5 49.8 76.2 50.9 76.0 50.35 76.15 49.9 L76.2 50.05 76.05 49.5 76.2 48.8 Q76.2 48.35 76.4 48.8 L76.2 48.3 76.0 47.9 76.0 49.25 75.75 49.25 75.65 48.7 75.65 48.1 75.4 48.15 75.5 47.2 75.25 46.45 75.45 46.0 Q75.6 45.8 75.35 45.35 L75.35 45.4 74.9 43.9 75.1 44.2 74.55 42.55 Q74.15 41.5 74.25 41.2 L74.35 41.25 74.1 40.4 Q74.0 40.0 74.3 40.35 L73.4 39.2 73.8 39.5 73.3 38.6 73.35 38.6 72.55 37.5 71.7 36.6 Q72.0 37.35 71.6 36.9 L71.0 36.4 Q70.8 36.05 71.1 35.9 71.45 35.75 72.0 36.25 71.95 36.6 72.9 37.55 L72.5 36.85 72.05 36.35 Q72.25 36.45 72.1 36.05 L71.95 35.55 Q72.45 35.55 72.75 36.25 73.1 36.8 72.85 36.75 L72.75 36.75 Q72.65 36.95 73.1 37.6 L73.75 38.6 73.55 38.45 74.05 39.35 74.55 39.95 73.8 38.75 Q73.8 38.6 73.95 38.75 L74.1 38.6 73.55 37.65 73.7 37.65 Q73.3 36.35 72.0 34.95 L71.2 34.95 70.25 34.9 67.4 31.65 67.1 31.85 Q66.25 31.05 66.45 30.85 L65.45 30.5 Q64.8 30.3 64.85 30.5 L64.7 30.45 Q64.25 29.5 62.7 28.45 62.35 28.25 62.25 28.7 L61.55 28.15 62.4 28.3 60.4 27.2 60.6 27.15 59.75 26.95 60.45 27.3 Q60.8 27.55 60.6 27.65 L59.45 27.2 58.3 27.0 Q58.2 26.35 58.55 26.2 L58.65 26.25 Q59.35 26.0 60.35 26.25 L57.4 25.1 58.15 25.05 58.7 25.0 60.15 25.7 59.7 25.65 60.95 26.1 62.0 26.35 Q62.2 26.55 61.8 26.45 61.45 26.35 61.65 26.5 61.05 26.25 60.3 26.5 60.9 26.85 61.25 26.8 L62.1 26.85 62.7 27.45 62.85 27.4 62.65 27.15 63.7 27.9 63.5 27.5 Q64.7 28.3 65.1 29.0 65.0 28.8 65.35 28.85 L66.0 29.05 65.05 27.9 62.95 26.7 60.65 25.7 60.8 25.6 Q59.4 24.7 58.1 24.8 L55.65 24.7 Q55.65 24.5 55.05 24.45 54.55 24.35 54.6 24.2 55.4 24.35 55.05 24.0 L54.35 24.1 53.35 24.0 53.4 23.75 Q53.35 23.55 53.85 23.6 L51.3 23.65 50.05 23.55 48.75 23.45 49.05 23.3 47.8 23.4 48.2 23.55 46.8 23.95 Q46.35 24.1 46.65 24.15 L47.1 24.3 47.35 24.0 48.85 23.9 48.1 24.1 47.8 24.35 48.7 24.15 49.0 24.35 51.05 24.15 50.6 24.2 50.15 24.2 52.8 23.85 52.95 23.95 53.0 24.05 52.7 24.05 52.55 24.2 53.15 24.4 Q52.0 25.0 52.0 25.05 L50.2 24.95 50.2 24.9 49.25 25.0 48.6 24.9 48.05 25.05 Q47.8 25.15 48.35 25.2 L46.95 25.5 46.6 25.05 Q46.4 24.85 47.15 24.55 L46.2 24.8 45.8 24.9 45.8 24.85 45.9 24.75 46.2 24.8 Q46.95 24.2 45.15 24.55 L45.0 24.8 43.0 25.05 Q42.2 25.65 41.3 26.55 L40.75 26.8 40.1 26.95 Q39.75 27.05 39.85 26.8 39.55 26.65 40.4 26.45 L40.45 26.55 Q40.55 26.15 39.95 26.2 L40.8 25.8 40.3 25.95 41.4 25.3 41.9 24.75 41.5 25.0 40.8 25.05 Q41.85 24.5 41.2 24.65 L40.55 25.1 Q40.15 25.4 40.75 25.25 L39.45 25.9 39.65 25.6 39.6 25.35 39.25 26.05 38.85 26.15 39.0 26.15 37.2 27.3 Q36.1 28.05 35.9 28.5 L36.4 28.15 Q36.75 27.8 37.0 27.9 L37.2 27.5 Q38.35 26.7 38.55 26.9 L37.05 28.35 36.9 28.6 35.9 29.25 35.65 29.25 35.7 29.1 34.3 30.25 32.95 31.55 Q32.85 31.45 32.45 31.75 L32.15 31.8 31.15 33.35 30.6 33.75 30.35 33.8 30.15 34.6 29.45 35.35 28.9 35.9 28.85 36.3 28.6 36.8 28.6 36.65 28.1 37.3 27.8 38.05 28.3 37.4 28.25 37.9 27.7 38.8 Q27.8 38.2 27.45 38.6 L27.1 38.85 Q26.6 39.75 26.45 40.75 L26.25 42.65 Q25.25 46.0 25.35 47.25 L25.4 47.1 25.5 47.85 25.5 47.9 25.3 48.05 Q25.15 48.1 25.15 48.45 25.0 48.3 25.1 47.7 L25.1 46.65 Q24.85 47.25 24.85 46.6 24.8 45.95 24.65 46.25 24.9 46.55 24.75 47.85 24.55 49.3 24.7 49.75 L24.55 49.95 Q24.4 49.6 24.4 49.8 L24.6 50.1 Q24.55 50.7 24.35 50.6 24.1 52.25 24.75 53.7 24.65 53.15 24.8 53.35 25.05 53.5 25.0 52.95 L25.35 54.65 Q25.3 54.4 25.15 54.7 25.0 54.95 24.95 54.15 24.7 54.4 25.2 55.5 L24.85 54.8 25.15 56.5 Q25.3 57.85 25.5 58.0 L27.1 60.25 28.15 62.8 28.0 62.7 29.15 64.6 29.05 64.85 30.6 66.75 30.5 66.45 Q30.35 66.2 30.55 66.3 30.05 65.65 30.0 65.9 29.75 65.55 29.8 65.1 L30.55 65.9 30.95 66.4 31.0 66.45 31.05 66.45 32.6 68.15 32.7 68.25 31.65 67.4 Q30.95 66.8 30.9 67.1 L33.65 69.15 36.1 71.1 36.05 71.2 35.8 71.05 Q36.6 71.7 37.75 72.15 L39.5 73.1 40.0 73.35 Q44.6 75.35 50.0 75.35 L52.6 75.25 52.5 75.45 51.9 75.55 Q51.65 75.45 52.05 75.3 L50.75 75.6 51.55 75.6 50.8 75.75 50.0 75.9 51.5 75.85 51.4 75.95 52.6 75.85 52.35 76.0 Q53.3 75.9 53.4 75.6 L54.2 75.1 53.85 75.15 53.45 75.15 54.45 75.0 54.2 75.1 54.4 75.05 54.5 75.5 55.2 75.3 54.1 76.0 55.15 76.1 56.2 75.9 Q55.9 75.8 56.05 75.7 L55.45 75.6 55.95 75.1 57.0 74.95 57.25 74.65 57.1 74.5 56.7 74.7 Q56.75 74.6 57.15 74.4 L59.2 73.65 59.35 73.65 59.3 73.7 59.7 73.45 60.8 72.95 M55.0 23.85 L54.4 23.7 54.4 23.85 54.5 23.9 55.0 23.85 M67.35 30.7 L67.4 31.65 Q68.0 31.75 69.25 33.05 L68.85 32.8 70.05 33.8 70.05 34.0 70.7 34.45 Q71.0 34.55 70.9 34.25 L70.7 34.1 70.55 33.55 Q70.25 33.65 69.6 32.95 L68.5 31.9 Q69.1 32.1 69.35 32.25 L70.0 33.0 70.15 32.75 70.1 32.7 69.5 32.05 67.8 30.9 67.9 30.9 66.7 30.0 65.75 29.05 Q65.45 29.15 66.0 29.65 L66.85 30.4 66.3 30.05 Q66.15 29.9 66.25 30.15 L65.6 29.6 65.0 29.15 65.35 29.55 64.65 29.2 63.95 28.9 64.25 29.25 65.1 29.85 64.7 29.85 66.1 30.55 66.6 30.45 67.35 30.7 M68.05 30.8 L68.7 31.25 69.2 31.45 67.4 29.8 68.05 30.8 M64.2 28.4 L63.75 28.0 Q64.1 28.35 63.85 28.45 L64.2 28.4 M70.75 33.3 L70.15 32.75 71.15 33.95 70.65 33.4 70.75 33.3 M75.0 41.05 L74.4 40.45 74.7 40.8 74.85 41.25 Q74.9 41.55 74.75 41.45 L74.45 41.3 74.55 41.4 74.8 41.55 Q74.85 42.35 75.3 42.9 L75.85 44.4 Q75.6 44.5 75.95 45.3 76.3 46.1 76.05 46.35 L75.7 45.3 75.4 44.9 75.75 46.95 Q76.0 46.25 76.45 46.85 L76.15 44.7 75.65 42.15 75.4 42.45 Q75.05 41.85 75.25 41.9 75.55 41.95 75.4 41.45 L75.0 41.1 75.0 41.05 M36.5 26.9 L35.35 27.55 Q34.6 27.75 34.2 28.1 L34.65 28.2 33.5 29.2 Q32.35 29.65 32.95 29.05 32.15 29.6 31.8 30.35 L30.65 31.95 32.0 30.75 Q31.75 31.15 31.85 31.1 L32.1 31.15 31.3 31.75 Q30.95 32.1 31.2 31.6 29.95 32.7 29.8 33.25 L30.25 32.9 Q29.25 34.0 29.25 34.8 L29.75 33.8 30.5 32.65 Q31.15 32.2 31.05 32.5 30.95 32.85 31.35 32.6 L31.95 31.7 31.55 32.0 32.05 31.3 Q32.6 30.8 32.4 30.7 L33.55 30.05 34.7 29.4 Q34.85 29.15 34.2 29.55 L34.65 29.05 Q34.85 28.75 35.3 28.6 35.65 28.45 35.35 28.45 35.05 28.45 34.65 28.7 L36.25 27.65 35.55 27.8 36.15 27.4 35.55 27.6 38.0 26.35 37.45 26.4 Q36.55 26.6 35.75 27.2 L36.05 27.0 36.5 26.9 M28.75 33.7 L28.6 33.7 27.4 34.95 Q27.75 34.9 27.25 35.65 L26.5 36.9 26.1 37.7 Q25.95 37.75 26.1 37.25 25.5 38.5 25.7 38.5 L24.7 40.7 24.55 40.85 24.6 40.95 Q22.7 45.9 22.85 51.2 L23.05 49.7 Q23.2 50.1 23.25 49.6 23.3 49.0 23.45 49.1 L23.4 50.25 23.65 50.15 23.9 50.0 23.75 48.65 Q23.5 47.9 23.65 47.25 L23.9 47.45 24.05 46.95 Q24.1 46.45 24.3 46.05 L24.25 45.3 24.5 45.4 Q24.45 44.7 24.85 43.05 L24.9 43.1 25.2 41.65 25.8 40.15 25.7 41.1 25.95 40.4 26.1 39.8 26.25 39.9 26.3 40.0 26.9 37.85 Q26.95 37.5 26.8 37.65 L26.5 37.9 Q26.45 37.7 26.8 37.2 27.15 36.7 27.25 36.75 L27.15 37.15 Q27.1 37.35 27.3 37.2 L27.4 36.25 Q27.9 35.75 27.7 36.5 L27.25 37.8 27.85 36.6 28.45 35.5 27.9 35.9 Q27.65 35.8 28.85 34.25 28.35 34.65 28.7 33.9 L28.8 33.6 28.75 33.7 M28.8 33.6 L29.35 32.95 Q29.25 32.85 28.9 33.15 L28.8 33.6 M29.5 33.25 L30.35 32.25 Q29.95 32.5 30.45 31.75 L29.35 32.95 29.5 33.25 M23.35 51.4 Q23.15 50.45 23.0 50.7 L23.15 51.6 23.05 51.5 23.15 52.65 23.45 52.25 23.4 53.2 Q23.2 53.4 23.15 53.85 L23.45 55.5 23.35 55.35 23.45 55.6 Q24.1 58.55 25.15 60.95 25.4 61.4 25.45 61.0 25.5 60.6 25.75 60.9 L25.15 59.1 Q24.85 58.15 24.6 58.15 L24.75 57.95 24.3 57.4 24.4 58.05 Q24.0 57.65 23.75 56.4 23.5 55.25 23.65 54.85 L24.05 55.8 24.35 57.1 24.5 56.9 24.65 57.05 24.05 54.2 23.65 51.25 Q23.5 52.1 23.35 51.4 M26.75 62.9 L26.4 62.65 26.6 63.15 26.75 62.9 M26.4 62.65 L26.2 62.15 26.2 62.5 26.4 62.65 M27.0 63.9 L26.6 63.15 Q26.35 63.5 26.8 64.2 L27.0 63.9 M30.15 67.9 L30.45 68.1 30.2 67.65 29.75 67.25 29.25 67.55 Q29.65 67.95 29.85 67.85 L29.85 67.45 30.15 67.9 M30.8 68.7 L31.1 68.75 30.15 68.25 31.2 69.4 31.5 69.3 Q30.9 69.1 30.8 68.7 M76.05 53.95 L76.45 53.6 Q76.25 53.7 76.15 53.2 L75.9 52.75 76.05 53.4 76.05 53.95 M74.9 54.0 L75.05 54.2 75.15 53.8 74.9 54.0 M75.3 54.6 L75.2 56.15 Q75.55 55.3 75.45 54.25 75.35 53.15 75.55 52.55 L75.2 53.05 75.3 54.6 M70.35 67.45 L70.55 67.3 70.7 66.95 70.35 67.45 M58.6 73.95 L57.95 74.4 Q57.5 74.7 58.4 74.4 L57.95 74.75 57.15 75.05 57.25 75.15 57.2 75.35 57.9 75.0 57.8 75.2 57.25 75.4 Q57.5 75.45 57.25 75.65 57.05 75.8 57.4 75.75 59.45 75.0 60.5 73.9 59.15 74.65 58.25 74.8 L58.45 74.45 59.4 74.25 60.3 73.8 58.7 74.3 Q58.15 74.35 58.3 74.2 L58.9 73.9 58.6 73.95" fill="url(#gradient0)" fill-rule="evenodd" stroke="none"/>
      <path d="M30.55 65.9 L29.8 65.1 Q29.75 65.55 30.0 65.9 30.05 65.65 30.55 66.3 30.35 66.2 30.5 66.45 L30.6 66.75 29.05 64.85 29.15 64.6 28.0 62.7 28.15 62.8 27.1 60.25 25.5 58.0 Q25.3 57.85 25.15 56.5 L24.85 54.8 25.2 55.5 Q24.7 54.4 24.95 54.15 25.0 54.95 25.15 54.7 25.3 54.4 25.35 54.65 L25.0 52.95 Q25.05 53.5 24.8 53.35 24.65 53.15 24.75 53.7 24.1 52.25 24.35 50.6 24.55 50.7 24.6 50.1 L24.4 49.8 Q24.4 49.6 24.55 49.95 L24.7 49.75 Q24.55 49.3 24.75 47.85 24.9 46.55 24.65 46.25 24.8 45.95 24.85 46.6 24.85 47.25 25.1 46.65 L25.1 47.7 Q25.0 48.3 25.15 48.45 25.15 48.1 25.3 48.05 L25.5 47.9 25.5 47.85 25.4 47.1 25.35 47.25 Q25.25 46.0 26.25 42.65 L26.45 40.75 Q26.6 39.75 27.1 38.85 L27.45 38.6 Q27.8 38.2 27.7 38.8 L28.25 37.9 28.3 37.4 27.8 38.05 28.1 37.3 28.6 36.65 28.6 36.8 28.85 36.3 28.9 35.9 29.45 35.35 30.15 34.6 30.35 33.8 30.6 33.75 31.15 33.35 32.15 31.8 32.45 31.75 Q32.85 31.45 32.95 31.55 L34.3 30.25 35.7 29.1 35.65 29.25 35.9 29.25 36.9 28.6 37.05 28.35 38.55 26.9 Q38.35 26.7 37.2 27.5 L37.0 27.9 Q36.75 27.8 36.4 28.15 L35.9 28.5 Q36.1 28.05 37.2 27.3 L39.0 26.15 38.85 26.15 39.25 26.05 39.6 25.35 39.65 25.6 39.45 25.9 40.75 25.25 Q40.15 25.4 40.55 25.1 L41.2 24.65 Q41.85 24.5 40.8 25.05 L41.5 25.0 41.9 24.75 41.4 25.3 40.3 25.95 40.8 25.8 39.95 26.2 Q40.55 26.15 40.45 26.55 L40.4 26.45 Q39.55 26.65 39.85 26.8 39.75 27.05 40.1 26.95 L40.75 26.8 41.3 26.55 Q42.2 25.65 43.0 25.05 L45.0 24.8 45.15 24.55 Q46.95 24.2 46.2 24.8 L45.9 24.75 45.8 24.85 45.8 24.9 46.2 24.8 47.15 24.55 Q46.4 24.85 46.6 25.05 L46.95 25.5 48.35 25.2 Q47.8 25.15 48.05 25.05 L48.6 24.9 49.25 25.0 50.2 24.9 50.2 24.95 52.0 25.05 Q52.0 25.0 53.15 24.4 L52.55 24.2 52.7 24.05 53.0 24.05 52.95 23.95 52.8 23.85 50.15 24.2 50.6 24.2 51.05 24.15 49.0 24.35 48.7 24.15 47.8 24.35 48.1 24.1 48.85 23.9 47.35 24.0 47.1 24.3 46.65 24.15 Q46.35 24.1 46.8 23.95 L48.2 23.55 47.8 23.4 49.05 23.3 48.75 23.45 50.05 23.55 51.3 23.65 53.85 23.6 Q53.35 23.55 53.4 23.75 L53.35 24.0 54.35 24.1 55.05 24.0 Q55.4 24.35 54.6 24.2 54.55 24.35 55.05 24.45 55.65 24.5 55.65 24.7 L58.1 24.8 Q59.4 24.7 60.8 25.6 L60.65 25.7 62.95 26.7 65.05 27.9 66.0 29.05 65.35 28.85 Q65.0 28.8 65.1 29.0 64.7 28.3 63.5 27.5 L63.7 27.9 62.65 27.15 62.85 27.4 62.7 27.45 62.1 26.85 61.25 26.8 Q60.9 26.85 60.3 26.5 61.05 26.25 61.65 26.5 61.45 26.35 61.8 26.45 62.2 26.55 62.0 26.35 L60.95 26.1 59.7 25.65 60.15 25.7 58.7 25.0 58.15 25.05 57.4 25.1 60.35 26.25 Q59.35 26.0 58.65 26.25 L58.55 26.2 Q58.2 26.35 58.3 27.0 L59.45 27.2 60.6 27.65 Q60.8 27.55 60.45 27.3 L59.75 26.95 60.6 27.15 60.4 27.2 62.4 28.3 61.55 28.15 62.25 28.7 Q62.35 28.25 62.7 28.45 64.25 29.5 64.7 30.45 L64.85 30.5 Q64.8 30.3 65.45 30.5 L66.45 30.85 Q66.25 31.05 67.1 31.85 L67.4 31.65 70.25 34.9 71.2 34.95 72.0 34.95 Q73.3 36.35 73.7 37.65 L73.55 37.65 74.1 38.6 73.95 38.75 Q73.8 38.6 73.8 38.75 L74.55 39.95 74.05 39.35 73.55 38.45 73.75 38.6 73.1 37.6 Q72.65 36.95 72.75 36.75 L72.85 36.75 Q73.1 36.8 72.75 36.25 72.45 35.55 71.95 35.55 L72.1 36.05 Q72.25 36.45 72.05 36.35 L72.5 36.85 72.9 37.55 Q71.95 36.6 72.0 36.25 71.45 35.75 71.1 35.9 70.8 36.05 71.0 36.4 L71.6 36.9 Q72.0 37.35 71.7 36.6 L72.55 37.5 73.35 38.6 73.3 38.6 73.8 39.5 73.4 39.2 74.3 40.35 Q74.0 40.0 74.1 40.4 L74.35 41.25 74.25 41.2 Q74.15 41.5 74.55 42.55 L75.1 44.2 74.9 43.9 75.35 45.4 75.35 45.35 Q75.6 45.8 75.45 46.0 L75.25 46.45 75.5 47.2 75.4 48.15 75.65 48.1 75.65 48.7 75.75 49.25 76.0 49.25 76.0 47.9 76.2 48.3 76.4 48.8 Q76.2 48.35 76.2 48.8 L76.05 49.5 76.2 50.05 76.15 49.9 Q76.0 50.35 76.2 50.9 76.5 49.8 76.3 49.15 76.8 50.45 76.65 51.1 L76.5 52.65 Q76.5 52.25 76.1 52.15 75.8 52.05 75.95 50.9 L76.0 51.1 Q76.25 50.75 75.8 49.5 L75.55 49.45 75.45 49.95 Q75.55 49.7 75.7 50.25 L75.7 51.35 75.3 51.2 75.2 52.25 75.2 52.15 Q75.05 52.35 75.05 52.95 L74.9 54.0 74.8 55.4 Q74.75 56.25 75.1 55.8 74.7 56.4 74.75 57.75 L75.15 56.9 75.25 58.65 75.05 58.75 74.9 58.65 74.0 60.95 73.35 62.9 72.6 63.8 71.75 65.0 71.85 65.25 71.55 65.8 71.6 65.45 Q71.6 65.2 71.25 65.75 L70.5 66.8 69.6 68.0 68.9 68.6 68.5 68.7 Q69.85 67.45 69.85 67.0 L70.1 66.95 70.05 67.2 70.7 66.4 71.2 65.6 70.9 65.75 70.55 66.15 Q70.45 66.1 70.9 65.25 71.3 64.55 70.8 64.85 L70.25 66.1 Q70.05 66.75 69.5 67.1 L69.85 66.45 70.2 65.6 69.55 66.2 69.4 66.8 69.35 66.75 Q68.7 67.25 68.5 67.85 L67.9 69.1 Q68.3 68.9 68.4 69.2 68.5 69.45 68.75 69.3 67.65 70.5 67.35 70.15 L67.8 69.35 Q67.65 69.15 68.05 68.5 L67.85 68.3 Q67.7 68.15 67.3 68.5 67.0 68.95 67.2 68.95 L67.05 69.3 66.9 69.25 66.55 69.65 66.15 70.1 66.2 69.95 65.65 70.45 65.15 70.8 Q65.35 70.85 65.15 71.1 L64.75 71.55 65.6 71.3 66.75 70.6 Q66.65 70.2 66.9 69.9 L66.3 70.45 66.6 70.05 67.2 69.6 66.9 70.25 66.9 70.65 65.85 71.5 Q65.75 71.35 64.85 71.75 L63.2 72.45 63.6 72.2 Q63.9 71.9 63.5 72.05 L62.95 72.2 62.7 72.5 62.55 72.5 62.05 73.0 61.5 73.5 61.55 73.2 Q61.6 72.95 61.35 73.05 L60.8 72.95 Q60.35 73.0 59.75 73.35 L59.7 73.45 59.3 73.7 59.35 73.65 59.2 73.65 58.7 73.7 Q58.9 73.5 59.45 73.35 L60.15 72.95 60.05 72.7 61.05 71.95 59.8 72.65 Q59.7 72.55 60.05 72.15 L60.05 72.35 Q60.5 72.25 60.95 71.85 L61.9 71.15 62.0 71.1 61.95 71.2 Q62.2 70.95 62.95 70.45 L63.85 69.65 63.7 69.95 65.35 67.8 65.3 67.75 Q64.95 67.75 65.65 67.4 L66.4 66.2 65.95 66.45 65.6 66.9 Q65.35 67.25 65.5 67.3 L64.4 68.25 Q64.75 68.1 64.55 68.4 L64.25 68.85 Q64.15 68.85 63.8 69.1 L63.5 69.15 63.9 68.85 Q64.05 68.6 63.6 68.85 63.15 69.05 63.4 68.75 L60.9 70.7 61.4 70.55 60.0 71.2 60.95 70.6 60.45 70.7 59.95 70.95 59.05 71.85 59.55 71.65 Q59.35 71.9 57.4 72.4 L58.2 71.95 59.3 71.5 Q59.55 71.3 59.3 71.25 59.05 71.15 59.3 71.0 58.9 71.0 58.65 71.35 L58.45 71.35 59.35 70.65 60.4 69.85 60.3 70.0 Q61.0 69.85 61.85 69.15 L61.45 69.4 61.85 68.9 61.55 68.95 61.35 68.95 62.2 68.35 62.3 68.5 62.25 68.7 62.75 68.45 63.35 68.05 Q62.9 68.35 63.1 68.0 L63.45 67.35 63.35 67.45 63.85 67.0 63.55 67.35 63.55 67.55 64.05 67.05 63.95 67.3 64.75 66.5 64.75 65.6 65.3 64.95 65.3 65.1 66.0 64.4 66.25 63.8 66.15 64.75 Q66.0 65.45 66.9 64.3 L67.15 63.6 67.05 63.0 67.15 63.05 67.35 62.7 67.4 62.3 67.0 62.85 Q66.95 62.75 67.2 62.4 L67.55 61.85 67.8 61.8 68.0 61.6 Q68.85 60.75 68.75 59.65 L69.2 59.0 69.35 58.55 Q69.4 58.85 69.6 58.45 69.8 58.2 69.75 58.5 L69.7 58.5 69.6 58.65 Q69.5 59.25 69.65 59.2 L70.15 58.65 70.1 58.9 70.75 57.95 Q70.75 57.85 70.6 58.0 L71.2 56.05 71.6 54.2 Q71.3 54.05 71.3 52.55 71.4 51.0 71.15 50.45 71.6 50.9 71.85 50.65 L72.0 51.1 72.05 51.75 71.85 52.05 Q71.75 52.25 71.65 52.05 71.65 52.8 71.85 52.5 72.15 52.15 72.2 52.3 L72.0 50.45 71.6 49.05 71.65 49.05 71.45 48.35 71.25 48.8 Q71.05 48.75 71.1 48.2 L71.15 48.3 71.1 47.45 70.85 46.45 70.55 46.1 Q70.5 45.75 70.7 45.45 L71.05 45.1 70.5 43.95 69.8 43.1 69.7 42.15 Q69.6 41.75 69.75 41.85 L68.95 41.4 Q68.45 41.15 68.3 40.25 L68.65 40.5 67.25 38.6 66.1 37.15 Q66.6 37.15 66.1 36.2 L65.6 34.8 65.0 34.55 64.6 34.15 Q64.75 34.35 64.5 34.5 64.35 34.6 64.85 34.95 63.6 34.75 62.5 33.9 L62.7 33.7 63.35 34.35 64.0 34.55 Q63.35 33.9 63.65 33.75 63.85 33.65 63.1 33.1 L62.7 32.95 62.75 32.9 62.6 32.65 62.2 32.65 Q62.05 32.25 62.6 32.5 L62.95 32.45 64.15 33.0 64.8 33.05 Q64.35 32.6 63.7 32.5 L62.6 32.0 62.55 31.8 62.05 31.75 61.65 31.8 61.4 31.4 60.35 31.25 59.35 31.2 60.8 32.0 62.25 32.9 61.4 32.55 60.55 32.5 60.7 32.25 Q59.5 31.95 58.95 31.55 L59.4 31.6 58.3 31.0 Q57.7 30.6 57.2 30.7 L57.85 30.95 56.25 30.4 55.05 30.55 54.8 30.35 Q54.55 30.2 54.8 30.1 L53.15 30.05 Q52.75 29.85 53.2 29.85 L54.0 29.7 51.0 29.6 51.3 29.8 50.6 29.7 50.4 29.85 Q49.9 29.7 50.4 29.5 L49.75 29.6 49.1 29.55 50.2 29.45 51.05 29.4 49.55 29.25 47.7 29.2 47.75 29.05 Q47.8 28.95 47.6 29.0 47.1 29.1 47.15 29.25 L47.15 29.6 48.5 29.65 48.35 29.8 47.8 29.7 47.7 30.0 47.35 29.65 46.6 29.7 47.0 29.9 47.15 30.2 46.45 30.35 Q46.05 30.25 45.7 30.5 L45.95 30.3 45.75 30.25 Q45.25 30.3 45.1 30.7 L45.55 29.8 46.75 29.45 46.0 29.35 46.5 29.1 46.55 28.85 Q45.8 28.85 45.5 29.15 L44.8 29.55 Q44.65 29.7 45.0 29.65 45.3 29.55 45.0 29.75 L44.55 29.95 44.05 30.3 44.15 30.15 43.4 30.45 43.45 30.9 Q43.5 31.35 42.8 31.6 L42.75 31.95 39.75 33.4 39.8 33.25 37.5 35.05 Q36.6 35.6 36.7 35.35 L36.4 35.7 36.45 35.5 36.55 35.3 36.4 35.45 36.25 35.15 Q36.2 34.9 36.7 34.5 36.95 34.55 36.7 34.8 36.35 35.1 36.6 35.2 L36.75 34.8 Q37.15 34.45 37.15 34.7 L37.5 34.4 37.85 34.0 38.25 33.9 38.45 33.95 38.45 33.45 39.3 33.0 Q39.85 32.6 39.6 32.3 39.35 32.0 40.0 31.5 L40.4 31.75 41.35 31.6 40.65 32.1 39.85 32.55 Q40.25 32.5 39.75 32.8 39.15 33.15 39.45 33.25 39.85 32.65 40.75 32.4 L40.6 32.5 41.2 32.05 42.0 31.6 Q42.3 31.45 42.3 31.7 42.8 31.4 42.8 31.45 L43.4 28.95 Q41.0 29.65 38.8 30.7 38.45 30.6 39.0 30.15 L39.55 29.65 40.3 29.4 39.65 29.85 Q39.15 30.2 39.6 30.15 40.15 29.8 41.15 29.35 L42.65 28.55 41.5 28.8 40.05 29.35 40.95 28.85 Q39.85 29.2 38.45 29.85 L38.3 30.05 39.35 29.6 38.45 30.25 Q38.1 30.6 38.2 30.85 L38.35 30.75 38.1 31.0 37.6 31.25 37.45 31.4 37.5 31.3 37.0 31.55 36.8 31.7 36.85 31.65 36.7 31.7 35.5 33.25 35.1 33.8 35.0 33.7 34.2 34.05 Q33.75 34.3 33.45 34.9 L33.9 34.45 33.3 35.8 Q33.0 35.9 33.25 35.5 L33.6 34.85 32.55 35.9 Q31.95 36.4 31.95 36.75 31.4 36.45 30.95 37.1 31.2 37.0 31.15 37.2 31.05 37.5 31.3 37.4 L31.05 37.8 30.9 38.15 30.85 38.0 Q30.25 38.55 30.15 39.15 L30.15 40.05 28.8 43.0 Q28.15 43.0 27.95 43.6 L28.0 44.4 Q28.0 45.05 28.15 45.15 L28.25 44.4 28.2 43.9 28.85 43.5 28.45 44.65 28.05 45.9 28.05 45.7 27.4 46.55 Q27.05 47.05 27.2 47.95 L27.3 48.6 27.2 48.55 27.0 49.45 27.0 50.45 26.95 50.35 27.0 51.35 27.25 52.2 27.0 52.25 26.8 51.95 Q26.8 53.6 27.8 55.05 L27.8 55.8 Q27.3 54.8 27.15 55.05 L27.35 55.45 27.45 55.95 26.85 55.4 Q26.85 56.1 27.1 56.1 L27.2 56.55 Q27.35 57.05 27.75 57.05 L27.7 57.8 28.5 59.15 28.55 58.9 28.4 58.45 Q28.65 58.45 29.0 59.3 28.8 59.45 29.35 60.55 29.8 61.5 29.45 61.4 31.3 64.5 32.75 65.55 L33.05 66.15 32.9 66.3 34.3 67.4 35.7 68.45 35.5 68.3 35.15 68.2 36.2 69.05 37.55 70.1 37.25 70.05 38.1 70.35 37.9 70.35 Q39.35 71.35 41.3 71.95 L44.75 72.75 Q43.95 72.6 43.75 72.95 L44.5 73.15 45.85 73.15 45.95 73.3 45.9 73.35 47.8 73.5 50.0 73.3 47.8 73.85 48.3 74.15 47.3 74.35 48.1 74.4 48.5 74.45 48.2 74.5 Q48.05 74.5 48.05 74.6 L48.6 74.65 49.1 74.55 Q47.85 75.05 44.4 74.5 L44.65 74.4 44.0 74.2 43.25 74.0 Q43.0 74.05 43.25 74.15 L43.8 74.3 43.2 74.35 Q43.2 74.25 42.25 73.9 L41.1 73.25 Q40.2 72.9 40.25 73.25 40.3 73.4 40.0 73.35 L39.5 73.1 39.15 72.65 37.75 72.15 Q36.6 71.7 35.8 71.05 L36.05 71.2 36.1 71.1 36.0 70.85 34.95 70.15 34.2 69.4 33.65 69.15 30.9 67.1 Q30.95 66.8 31.65 67.4 L32.7 68.25 32.6 68.15 32.05 67.55 Q32.5 68.0 33.15 68.15 L31.4 66.85 Q31.65 66.85 31.25 66.4 L31.05 66.45 31.0 66.45 30.95 66.4 30.9 66.25 30.55 65.9 M44.2 24.0 L44.0 24.25 43.0 25.05 42.7 25.15 41.35 25.75 42.1 25.1 42.55 24.6 42.25 24.65 42.7 24.4 42.75 24.5 Q43.0 24.5 42.9 24.6 L44.2 24.0 M55.0 23.85 L54.5 23.9 54.4 23.85 54.4 23.7 55.0 23.85 M43.25 28.2 L43.6 28.35 43.65 28.1 43.25 28.2 M42.25 28.45 L42.3 28.4 41.9 28.55 42.25 28.45 M48.8 27.65 Q48.9 27.5 48.45 27.5 L47.75 27.55 47.6 27.7 Q48.1 27.7 47.95 27.95 L47.35 28.0 46.7 28.3 Q46.6 28.45 47.05 28.45 L47.7 28.3 48.3 28.0 48.8 27.65 M51.55 27.6 L54.0 26.8 53.15 26.65 53.25 26.8 49.85 26.4 Q51.6 26.95 51.85 27.25 L49.9 27.5 49.7 27.55 51.55 27.6 M53.9 27.95 L54.4 28.0 54.5 27.85 53.85 27.8 53.9 27.95 M52.45 29.65 L52.3 29.85 51.8 29.95 52.3 29.75 51.9 29.75 51.65 29.6 52.45 29.65 M57.25 29.25 Q57.55 29.6 58.1 29.8 L59.15 30.1 59.95 30.2 Q60.5 30.85 60.95 30.9 L62.05 31.1 62.5 31.15 61.9 30.85 61.45 30.45 62.15 30.8 61.8 30.35 62.1 30.05 61.25 29.65 61.3 29.7 60.4 29.45 60.8 29.95 Q60.8 30.15 60.3 29.95 60.25 29.7 60.55 29.75 L59.7 29.2 59.25 29.25 59.75 29.55 Q59.7 29.8 60.1 29.85 L58.85 29.55 Q59.2 29.55 59.0 29.3 L58.4 28.8 56.95 28.4 56.9 28.65 57.3 28.95 56.2 28.6 56.75 28.6 56.0 28.1 55.5 28.0 55.6 28.1 55.05 28.2 55.45 28.3 55.3 28.5 55.1 28.3 54.65 28.3 55.1 28.7 54.6 28.55 54.35 28.6 56.7 29.2 56.4 28.85 57.25 29.25 M64.2 28.4 L63.85 28.45 Q64.1 28.35 63.75 28.0 L64.2 28.4 M68.05 30.8 L67.4 29.8 69.2 31.45 68.7 31.25 68.05 30.8 M67.35 30.7 L66.6 30.45 66.1 30.55 64.7 29.85 65.1 29.85 64.25 29.25 63.95 28.9 64.65 29.2 65.35 29.55 65.0 29.15 65.6 29.6 66.25 30.15 Q66.15 29.9 66.3 30.05 L66.85 30.4 66.0 29.65 Q65.45 29.15 65.75 29.05 L66.7 30.0 67.9 30.9 67.8 30.9 69.5 32.05 70.1 32.7 70.15 32.75 70.0 33.0 69.35 32.25 Q69.1 32.1 68.5 31.9 L69.6 32.95 Q70.25 33.65 70.55 33.55 L70.7 34.1 70.9 34.25 Q71.0 34.55 70.7 34.45 L70.05 34.0 70.05 33.8 68.85 32.8 69.25 33.05 Q68.0 31.75 67.4 31.65 L67.35 30.7 M64.85 35.25 Q65.1 35.5 65.15 35.25 L65.6 35.6 Q65.15 35.3 65.25 35.65 65.3 36.1 65.05 36.0 L65.1 35.75 64.85 35.25 M62.4 33.4 L62.55 33.55 Q62.1 33.55 61.45 33.0 L62.2 33.15 63.3 33.65 62.4 33.4 M65.7 32.45 L65.8 32.2 64.95 31.65 65.3 32.85 66.85 34.6 66.7 34.5 67.9 35.8 Q68.8 36.55 69.1 37.3 L67.7 36.6 68.3 37.05 Q68.05 37.1 68.25 37.4 L68.75 38.0 68.2 37.85 67.9 37.25 67.65 36.9 67.45 36.35 66.75 35.35 67.05 36.05 Q67.3 36.5 66.9 36.35 L67.3 36.8 67.65 37.3 67.25 37.2 66.9 37.2 67.55 37.85 67.05 37.5 Q66.65 37.2 66.8 37.7 L67.35 38.3 Q67.65 38.75 67.8 38.65 L67.75 38.7 68.15 39.05 68.55 39.55 Q68.75 39.45 68.45 39.1 L68.2 38.9 67.8 38.55 67.95 38.65 68.2 38.6 67.8 37.95 Q67.5 37.55 67.8 37.6 L68.15 38.2 Q68.3 38.1 68.5 38.3 L68.85 38.4 69.15 38.95 69.55 39.5 69.85 39.4 70.15 39.85 Q70.1 40.3 70.55 41.3 L71.15 42.65 71.5 43.15 71.4 42.6 Q71.25 42.25 71.45 42.4 L71.8 43.2 71.7 43.15 72.1 43.95 71.8 43.5 Q71.6 43.2 71.5 43.3 L71.65 44.15 71.5 44.05 Q71.65 44.9 72.2 44.95 72.5 45.4 72.5 44.75 72.45 44.05 72.55 44.05 L73.3 46.5 72.95 46.2 72.85 46.6 72.9 47.1 Q73.15 47.05 73.3 47.65 L73.55 48.75 73.45 48.95 73.35 48.5 Q73.2 48.55 73.2 49.05 L73.25 49.7 73.4 50.4 Q73.65 49.9 73.8 50.8 L73.85 50.8 Q74.1 48.45 73.8 47.9 L73.9 48.05 73.6 46.45 Q73.3 45.55 73.45 45.25 L73.55 45.15 73.7 45.0 73.3 44.3 73.5 44.4 73.05 43.15 73.1 43.15 72.0 41.9 71.75 41.85 71.5 41.4 71.35 40.45 71.9 41.55 Q72.3 41.55 72.15 40.8 L72.3 40.95 72.3 40.75 72.05 40.45 Q71.85 40.2 71.85 40.4 L70.9 38.35 Q70.25 37.05 69.5 36.3 69.8 36.6 69.6 36.15 69.45 35.75 69.85 36.25 69.65 35.7 69.25 35.55 L68.5 34.95 68.7 35.1 69.15 35.4 Q68.6 34.6 67.5 33.85 L65.7 32.45 M70.75 33.3 L70.65 33.4 71.15 33.95 70.15 32.75 70.75 33.3 M69.25 37.4 L69.15 37.35 69.55 37.4 69.1 36.7 69.65 37.45 69.6 37.65 69.6 37.85 Q70.3 38.65 70.1 38.0 L70.65 39.15 70.85 40.25 Q70.55 40.25 69.75 38.8 L69.9 38.85 Q69.45 38.3 69.6 38.15 L69.25 37.4 M66.95 34.05 L67.1 34.45 66.6 33.8 66.95 34.05 M36.5 26.9 L36.05 27.0 35.75 27.2 Q36.55 26.6 37.45 26.4 L38.0 26.35 35.55 27.6 36.15 27.4 35.55 27.8 36.25 27.65 34.65 28.7 Q35.05 28.45 35.35 28.45 35.65 28.45 35.3 28.6 34.85 28.75 34.65 29.05 L34.2 29.55 Q34.85 29.15 34.7 29.4 L33.55 30.05 32.4 30.7 Q32.6 30.8 32.05 31.3 L31.55 32.0 31.95 31.7 31.35 32.6 Q30.95 32.85 31.05 32.5 31.15 32.2 30.5 32.65 L29.75 33.8 29.25 34.8 Q29.25 34.0 30.25 32.9 L29.8 33.25 Q29.95 32.7 31.2 31.6 30.95 32.1 31.3 31.75 L32.1 31.15 31.85 31.1 Q31.75 31.15 32.0 30.75 L30.65 31.95 31.8 30.35 Q32.15 29.6 32.95 29.05 32.35 29.65 33.5 29.2 L34.65 28.2 34.2 28.1 Q34.6 27.75 35.35 27.55 L36.5 26.9 M75.0 41.05 L75.0 41.1 75.4 41.45 Q75.55 41.95 75.25 41.9 75.05 41.85 75.4 42.45 L75.65 42.15 76.15 44.7 76.45 46.85 Q76.0 46.25 75.75 46.95 L75.4 44.9 75.7 45.3 76.05 46.35 Q76.3 46.1 75.95 45.3 75.6 44.5 75.85 44.4 L75.3 42.9 Q74.85 42.35 74.8 41.55 L74.55 41.4 74.45 41.3 74.75 41.45 Q74.9 41.55 74.85 41.25 L74.7 40.8 74.4 40.45 75.0 41.05 M36.1 33.45 L36.25 33.5 36.1 33.6 36.1 33.45 M38.7 31.3 Q38.3 31.6 39.15 31.4 L37.0 32.8 37.15 32.5 36.75 33.0 36.4 33.4 37.25 31.75 37.3 31.75 Q37.1 32.0 37.4 32.05 37.7 32.05 38.0 31.7 L38.0 31.8 38.2 31.55 Q38.5 31.3 38.7 31.3 M38.05 31.1 L38.1 31.0 38.8 30.7 38.5 31.0 38.05 31.1 M34.9 35.3 L35.3 34.75 35.45 34.2 35.4 34.65 35.8 34.65 36.0 34.35 Q35.3 36.25 35.0 37.95 L34.25 39.1 33.55 40.1 Q33.55 39.85 33.3 40.0 L32.9 40.5 33.15 40.45 32.25 41.65 Q31.85 42.4 32.0 42.85 L31.8 42.35 31.55 44.0 31.45 43.8 31.25 44.45 31.1 45.05 31.15 44.75 Q31.05 44.65 30.9 45.25 30.85 45.55 30.95 45.75 L31.2 45.7 31.0 46.2 31.15 46.15 Q31.0 46.2 30.8 46.8 L30.45 47.2 30.25 46.75 Q30.15 46.55 30.2 46.15 30.55 45.95 30.65 45.15 L30.95 43.85 30.85 43.55 30.95 43.05 31.0 43.65 Q31.0 44.0 31.25 43.8 31.9 42.8 31.55 42.3 31.3 43.0 31.05 42.8 30.75 42.55 30.6 43.25 30.5 42.7 30.7 42.2 30.85 41.9 30.9 42.5 30.9 43.0 31.3 42.05 L30.9 41.7 31.55 40.55 Q31.15 41.4 31.3 41.85 32.35 40.05 32.5 40.1 L33.1 37.65 Q33.5 36.2 34.25 35.2 34.65 34.8 34.8 34.9 L34.9 35.3 M29.5 33.25 L29.35 32.95 30.45 31.75 Q29.95 32.5 30.35 32.25 L29.5 33.25 M28.8 33.6 L28.9 33.15 Q29.25 32.85 29.35 32.95 L28.8 33.6 28.7 33.9 Q28.35 34.65 28.85 34.25 27.65 35.8 27.9 35.9 L28.45 35.5 27.85 36.6 27.25 37.8 27.7 36.5 Q27.9 35.75 27.4 36.25 L27.3 37.2 Q27.1 37.35 27.15 37.15 L27.25 36.75 Q27.15 36.7 26.8 37.2 26.45 37.7 26.5 37.9 L26.8 37.65 Q26.95 37.5 26.9 37.85 L26.3 40.0 26.25 39.9 26.1 39.8 25.95 40.4 25.7 41.1 25.8 40.15 25.2 41.65 24.9 43.1 24.85 43.05 Q24.45 44.7 24.5 45.4 L24.25 45.3 24.3 46.05 Q24.1 46.45 24.05 46.95 L23.9 47.45 23.65 47.25 Q23.5 47.9 23.75 48.65 L23.9 50.0 23.65 50.15 23.4 50.25 23.45 49.1 Q23.3 49.0 23.25 49.6 23.2 50.1 23.05 49.7 L22.85 51.2 Q22.7 45.9 24.6 40.95 L24.55 40.85 24.7 40.7 25.7 38.5 Q25.5 38.5 26.1 37.25 25.95 37.75 26.1 37.7 L26.5 36.9 27.25 35.65 Q27.75 34.9 27.4 34.95 L28.6 33.7 28.75 33.7 28.8 33.6 M27.45 53.6 Q27.35 53.75 27.15 53.2 L27.3 52.85 27.45 53.6 M29.9 47.0 L30.0 47.35 29.85 47.35 29.7 47.15 Q29.6 47.5 29.65 47.8 L29.9 48.05 Q30.05 47.5 30.1 47.75 30.2 48.1 30.3 47.85 30.5 47.9 30.5 48.5 L30.35 49.15 29.65 49.15 29.1 48.85 Q28.9 48.3 29.1 47.3 L29.4 45.85 29.7 46.95 29.9 47.0 M30.05 43.0 L30.15 42.75 30.1 43.35 30.15 43.8 29.7 43.65 29.5 44.9 Q29.05 44.75 29.6 43.65 L30.1 41.8 30.6 41.2 Q30.3 41.1 30.7 40.3 L31.4 39.05 31.4 39.2 Q31.35 39.5 31.5 39.4 31.7 38.45 32.25 38.0 L32.25 38.15 Q32.55 37.6 32.6 37.75 L32.75 37.95 Q32.4 38.25 32.0 39.05 L31.6 40.4 31.3 40.45 31.05 40.55 30.05 43.0 M30.15 67.9 L29.85 67.45 29.85 67.85 Q29.65 67.95 29.25 67.55 L29.75 67.25 30.2 67.65 30.45 68.1 30.15 67.9 M27.0 63.9 L26.8 64.2 Q26.35 63.5 26.6 63.15 L27.0 63.9 M26.4 62.65 L26.2 62.5 26.2 62.15 26.4 62.65 26.75 62.9 26.6 63.15 26.4 62.65 M23.35 51.4 Q23.5 52.1 23.65 51.25 L24.05 54.2 24.65 57.05 24.5 56.9 24.35 57.1 24.05 55.8 23.65 54.85 Q23.5 55.25 23.75 56.4 24.0 57.65 24.4 58.05 L24.3 57.4 24.75 57.95 24.6 58.15 Q24.85 58.15 25.15 59.1 L25.75 60.9 Q25.5 60.6 25.45 61.0 25.4 61.4 25.15 60.95 24.1 58.55 23.45 55.6 L23.35 55.35 23.45 55.5 23.15 53.85 Q23.2 53.4 23.4 53.2 L23.45 52.25 23.15 52.65 23.05 51.5 23.15 51.6 23.0 50.7 Q23.15 50.45 23.35 51.4 M30.8 68.7 Q30.9 69.1 31.5 69.3 L31.2 69.4 30.15 68.25 31.1 68.75 30.8 68.7 M76.05 53.95 L76.05 53.4 75.9 52.75 76.15 53.2 Q76.25 53.7 76.45 53.6 L76.05 53.95 M72.6 52.55 L72.4 51.85 Q72.25 52.05 72.05 52.95 L72.35 54.55 72.65 53.75 72.4 55.65 72.65 55.25 Q72.8 54.8 72.6 54.7 L72.75 55.05 Q72.8 55.35 72.95 55.05 73.05 55.95 72.3 57.5 L71.95 57.5 Q71.8 57.75 71.9 58.05 L71.8 58.65 Q71.95 58.15 71.7 58.25 71.5 58.3 71.6 58.0 L71.35 58.1 Q71.2 58.15 71.1 58.55 71.2 58.9 70.9 59.2 70.65 59.45 70.7 59.75 L70.5 59.7 70.3 59.95 70.3 60.7 70.55 61.0 70.75 60.2 Q70.75 59.75 70.9 59.5 L70.85 60.85 71.15 60.4 71.05 61.1 71.05 61.45 71.85 60.1 71.95 60.25 Q72.35 59.95 72.2 59.4 72.45 58.05 72.7 57.95 L72.75 58.25 73.2 56.35 73.25 56.5 73.2 51.65 72.6 53.2 72.4 52.8 72.6 52.55 M71.5 49.75 L71.65 49.95 71.5 50.1 71.4 49.75 Q71.5 49.45 71.5 49.75 M75.3 54.6 L75.2 53.05 75.55 52.55 Q75.35 53.15 75.45 54.25 75.55 55.3 75.2 56.15 L75.3 54.6 M74.9 54.0 L75.15 53.8 75.05 54.2 74.9 54.0 M71.6 59.5 L71.15 60.35 71.25 59.7 71.6 59.5 M70.35 67.45 L70.7 66.95 70.55 67.3 70.35 67.45 M57.75 71.8 L57.05 72.35 55.85 72.45 56.7 71.95 Q57.2 71.55 57.65 71.4 L57.1 71.95 Q56.65 72.15 56.85 72.35 L57.75 71.8 M58.6 73.95 L58.9 73.9 58.3 74.2 Q58.15 74.35 58.7 74.3 L60.3 73.8 59.4 74.25 58.45 74.45 58.25 74.8 Q59.15 74.65 60.5 73.9 59.45 75.0 57.4 75.75 57.05 75.8 57.25 75.65 57.5 75.45 57.25 75.4 L57.8 75.2 57.9 75.0 57.2 75.35 57.25 75.15 57.15 75.05 57.95 74.75 58.4 74.4 Q57.5 74.7 57.95 74.4 L58.6 73.95 M54.45 75.0 L54.5 74.95 54.7 74.75 56.3 74.6 Q56.45 74.45 57.6 74.0 L57.3 74.3 57.15 74.4 Q56.75 74.6 56.7 74.7 L57.1 74.5 57.25 74.65 57.0 74.95 55.95 75.1 55.45 75.6 56.05 75.7 Q55.9 75.8 56.2 75.9 L55.15 76.1 54.1 76.0 55.2 75.3 54.5 75.5 54.4 75.05 54.2 75.1 54.45 75.0 M59.1 73.35 L59.2 73.15 59.6 72.85 59.45 73.1 59.1 73.35 M52.6 75.25 L52.65 75.2 53.3 75.05 53.45 75.15 53.85 75.15 54.2 75.1 53.4 75.6 Q53.3 75.9 52.35 76.0 L52.6 75.85 51.4 75.95 51.5 75.85 50.0 75.9 50.8 75.75 51.55 75.6 50.75 75.6 52.05 75.3 Q51.65 75.45 51.9 75.55 L52.5 75.45 52.6 75.25" fill="#ffffff" fill-rule="evenodd" stroke="none"/>
    </g>
    <radialGradient cx="0" cy="0" gradientTransform="matrix(0.0599, 0.0, 0.0, -0.0599, 50.0, 50.7)" gradientUnits="userSpaceOnUse" id="gradient0" r="819.2" spreadMethod="pad">
      <stop offset="0.0" stop-color="#ffffff" stop-opacity="0.9490196"/>
      <stop offset="0.6745098039215687" stop-color="#ffffff" stop-opacity="0.6509804"/>
      <stop offset="1.0" stop-color="#ffffff" stop-opacity="0.0"/>
    </radialGradient>
  </defs>
</svg>
