<?xml version="1.1" encoding="UTF-8"?><svg xmlns="http://www.w3.org/2000/svg" xmlns:xlink="http://www.w3.org/1999/xlink" version="2.0" width="100pt" height="100pt" viewBox="0 0 2000 2000" clip-rule="evenodd" fill-rule="evenodd" preserveAspectRatio="none"><path d="M988 220l166 21q113 26 138 85l1 14-1-10-11 29q-28-38-129-54L987 295l1-75" fill="url(#A)"/><path d="M685 330V320q28-58 139-82l164-18-1 75-164 7q-99 15-128 52-9-11-10-24" fill="url(#B)"/><path d="M1293 340v15l-2 35v1q-28 56-141 78L983 484l1-70q248 2 297-55l11-29 1 10" fill="url(#C)"/><path d="M983 484 819 466q-109-24-136-80V352l1-27 1 5q1 13 10 24 46 58 289 60l-1 70" fill="url(#D)"/><path d="M986 729l2-114 252 31q170 39 209 129l1 28-1-21q-1 24-18 44-42-57-194-82L986 729" fill="url(#E)"/><path d="M988 615l-2 114-248 11q-150 22-193 78-16-20-17-44l-2 29 2-36q43-89 211-125l249-27" fill="url(#F)"/><path d="M1431 826q17-20 18-44l1 21v12l-3 58v1q-42 85-214 118l-252 23 2-106q374 4 448-83" fill="url(#G)"/><path d="M526 803l2-29q1 24 17 44 69 88 438 91l-2 106-249-28Q566 951 526 866v-1-31-31" fill="url(#H)"/><path d="M287 1609q0 105 209 180 209 74 504 74 295 0 505-74 209-75 209-180 0-105-209-179-210-75-505-75-295 0-504 75-209 74-209 179m144-203q236-84 569-84 333 0 570 84 236 84 236 203 0 119-236 203-237 84-570 84-333 0-569-84-236-84-236-203 0-119 236-203" fill="#fff"/><path d="M1046 1562H954V1396h92v166" fill="#fff"/><path d="M1046 1668v159H954V1668h92" fill="#fff"/><path d="M1140 1592h465v33H1140v-33" fill="#fff"/><path d="M395 1592H842v33H395v-33" fill="#fff"/><path d="M910 777l110-112 111 112-121 397L910 777" fill="#fff"/><path d="M1045 26l67 576-90-82-94 100 85-594h32" fill="#fff" fill-opacity=".8"/><defs><linearGradient id="A" x1="-16384" x2="16384" gradientUnits="userSpaceOnUse" gradientTransform="matrix(-.01 0 0 .01 1140 305)"><stop offset="0" stop-color="#fff" stop-opacity=".97"/><stop offset="1" stop-color="#e2e3e4" stop-opacity="0"/></linearGradient><linearGradient id="B" x1="-16384" x2="16384" gradientUnits="userSpaceOnUse" gradientTransform="matrix(-.01 0 0 .01 835 302)"><stop offset="0" stop-color="#d5d5d7" stop-opacity="0"/><stop offset="1" stop-color="#fff" stop-opacity=".96"/><stop offset="1" stop-color="#e1e2e2"/></linearGradient><linearGradient id="C" x1="-16384" x2="16384" gradientUnits="userSpaceOnUse" gradientTransform="matrix(-.01 0 0 .01 1138 407)"><stop offset="0" stop-color="#fff" stop-opacity=".97"/><stop offset="1" stop-color="#e2e3e4" stop-opacity="0"/></linearGradient><linearGradient id="D" x1="-16384" x2="16384" gradientUnits="userSpaceOnUse" gradientTransform="matrix(-.01 0 0 .01 833 405)"><stop offset="0" stop-color="#d5d5d7" stop-opacity="0"/><stop offset="1" stop-color="#fff" stop-opacity=".96"/><stop offset="1" stop-color="#e1e2e2"/></linearGradient><linearGradient id="E" x1="-16384" x2="16384" gradientUnits="userSpaceOnUse" gradientTransform="matrix(-.01 0 0 .02 1218 744)"><stop offset="0" stop-color="#fff" stop-opacity=".97"/><stop offset="1" stop-color="#e2e3e4" stop-opacity="0"/></linearGradient><linearGradient id="F" x1="-16384" x2="16384" gradientUnits="userSpaceOnUse" gradientTransform="matrix(-.01 0 0 .02 757 740)"><stop offset="0" stop-color="#d5d5d7" stop-opacity="0"/><stop offset="1" stop-color="#fff" stop-opacity=".96"/><stop offset="1" stop-color="#e1e2e2"/></linearGradient><linearGradient id="G" x1="-16384" x2="16384" gradientUnits="userSpaceOnUse" gradientTransform="matrix(-.01 0 0 .02 1216 899)"><stop offset="0" stop-color="#fff" stop-opacity=".97"/><stop offset="1" stop-color="#e2e3e4" stop-opacity="0"/></linearGradient><linearGradient id="H" x1="-16384" x2="16384" gradientUnits="userSpaceOnUse" gradientTransform="matrix(-.01 0 0 .02 754 895)"><stop offset="0" stop-color="#d5d5d7" stop-opacity="0"/><stop offset="1" stop-color="#fff" stop-opacity=".96"/><stop offset="1" stop-color="#e1e2e2"/></linearGradient></defs></svg>