<?xml version="1.1" encoding="UTF-8"?><svg xmlns="http://www.w3.org/2000/svg" xmlns:xlink="http://www.w3.org/1999/xlink" version="2.0" width="100pt" height="100pt" viewBox="0 0 2000 2000" clip-rule="evenodd" fill-rule="evenodd" preserveAspectRatio="none"><path d="M1141 1978v-1l5 12-61-1 9-54 6-54q11 11 22 41l15 47 4 10M947 1652q5 24 3 53l-7 53q-8 50-11 115l-9 57-1 27-1 26H894l-6-33-16-99q-4-53 13-97 9-24 11-59l2-61 16-74 7-78q9 16 7 46 4 38 19 124m-26-332 9-1 20-27q9-14 7-35l13 3 7-32 10 69 10 69-4 32-10 31-2 34-4 33-7-30-7-34-13-62-4-5-28 5-2 5-49 23q-33 15-52 14 24-5 61-36 38-32 45-56M758 1181l-8-24-10-22 29 54 24 28q22 11 28 20l61 18-10 4-51 47q-26 29-27 63-4 5-5 12l-7 8-4-77-6-31-6-32-8-68m699-629 21 51-2 23q0 17 3 22l14 1 10-17q2 12-4 31l-11 29 21-4-6 18h-4l-2 9 17 7 4 81-2-4q-6-1-14-9l1 2-36-38-38-34-12-20-17-17q55-20 57-131M1051 981l18-20 16-23h5q9-20 26-16l33 10 72-9-20-11q32-7 69-42l20-28q11-29 18-33l-2 56q-5 35-24 54l77 13-20 6-29 1-28-1q-2 15 3 37l9 37-27-16q-7 0-21-8-14-8-23-8-14 0-19 10l-7 22q-16 49-8 101-9-1-22-11l-22-14-2 21-14-6q-7-5-12 0-4 3-3 18l1 20q0 20 6 37l15 33q-13 1-38-16l-39-22q-2 39 15 72 17 33 50 53-25 6-68-44-34-36-45-77-24-87 13-183l12-26 2 24h6v-5l5-1 2-5m7-261 35-7 31-15q21-13 31-16l36-8v-6h4l6-14 8-14q7-19 13-28-3-13 3-36l10-36q-1 18 3 33V518 466l29 61q13 39 11 66 23 1 46 27l39 43q-50-30-79-23-13 3-33 17l-33 19-26 18q-24 21-53 33l-63 25q-36 15-60 31-29 58 2 75 6 15 27 27l37 16-46-3-46-2q-15 3-31 20l-27 25-18 18-32 40q-24 26-33 41 10-20 51-79l31-47 18-22 14-26-51 13-51 5-25-22-33-15q-11-5-34-12-23-6-35-12-24-11-34-18l-22-28q-27-44-24-74h2q-2 17 18 39l36 29q27 15 54 14 15-6 23-28l24-52q9-20 9-59l4-32 3-22 2 60 1 11 1-7-1 8 9 53 1 16 17 43 55-3 49-13 24-6 12-24 9-68-3-34-3-35q8 9 8 40v45q4 28 13 36 10 8 37 6m673-425 27 24-37 11q-44 17-73 42-93 83-11 229 20 37 14 91-5 47-19 61 24-22 46-61 44-79 20-151 20 55 78 112 37 54-9 147l-36 74-46 67-27 31q-15 19-19 36-10 34 7 67 18 36 52 19 16-8 39-60l20-50q41 25 40 98-2 57-23 106-22 51-45 82-26 35-65 64-45 31-75 72-33 45-40 95-4 26 7 37 11 10 41 10 19 0 41-14l30-28 29-65q16-42 19-38 58 85-1 199-34 67-134 174l64-32q42-12 73 20l-91 64q-88 79-77 151l2 10H1346l-45-534-9-78-8-26q-2-15 10-21l10-12 12-23q10-15 18-19l1-6 122-105 59-54q21-19 42-73l12-42q4-21-2-43l-8-64-28-285q-5-49-29-84 14-38-46-90l-42-47q-27-32-45-38l-61 6q-42 12-56 27-13 14-20 46l-64-34q-38-17-70-8l-29 19-30 21q-11 11-14 28-14-1-39-16-26-16-41-18l-40 4q-13 5-35 21l-26 41q-10 12-23 13l-28-4-26-10-26-10q-11-1-23 6l-20 10-20 18-17 11-1 5-6 6-5 1-8 11q-4 6-2 11-12 15-9 52l10 60-11 17q-8 32 8 101l12 76q10 84 4 132v1l17 97 21 96q33 109 40 190 4 45-7 102l-42 517-154 2-73-4q50-36 30-109-29-66-26-69 25-25 57-9l48 38q-1-56-78-128L369 1603q-42-50-54-106-12-59 15-101l63 100q48 52 65 10 15-38 3-66l-22-53q-13-31-11-54 12-121-72-177-42-28-85-35 46-61 115-29 55 26 99 94 6-81-41-151l-39-54-36-56q-32-57-41-95-14-59 16-97 4 26 13 49 18 46 56 20 93-93-25-216-59-62-134-108 44-28 101-16 47 9 96 44 7-115 17-170 16-94 66-155l1 37q0 47 13 66 16 23 32 28 13 3 14-8 4-38 37-39l48-7q48-51-5-135L616 50q89-5 174 64 61 49 125 144 14-102 97-160 75-52 178-52l-27 30q-35 34-40 46-26 60 6 94 25 25 55 23 88-9 88-82l-17-72q19 2 40 13 41 21 48 63l-6 51q-3 28 29 2l34-35 37-30q48-27 78-28 48-1 119 45l-59 19q-67 22-83 54-23 47 9 83l37 27q22-7 60-33 38-25 60-32 39-11 73 11" fill="#fff"/></svg>