<?xml version="1.1" encoding="UTF-8"?><svg xmlns="http://www.w3.org/2000/svg" xmlns:xlink="http://www.w3.org/1999/xlink" version="2.0" width="100pt" height="100pt" viewBox="0 0 2000 2000" clip-rule="evenodd" fill-rule="evenodd" preserveAspectRatio="none"><path d="M151 553q72-194 237-294 116-71 378-139Q1238-5 1579 267q158 126 245 316 90 196 90 429 0 146-15 207-24 98-108 189-73 79-201 187l-213 179q171-162 284-402 117-252 109-462-9-219-274-409-241-172-514-210-220-30-396 60-161 83-247 244-83 158-65 332 19 183 147 322 83 89 200 147 186 93 406 43 219-50 337-210 154-207-29-396-160-165-425-204-124 17-177 88-48 66-43 186 64 91 139 107 63 13 169-22-101 108-232 122-198-87-212-277-14-193 185-290 152-74 362-1 193 67 308 203 101 119 142 265 43 155 3 296-40 140-204 242-92 59-287 160-262-37-385-73-194-56-323-165-106-90-182-221-91-153-90-347 0-168 68-349" fill="#fff" fill-opacity=".55"/><path d="M786 933q4-15 0-30l15 11-6-17 17 1-6-20 11 4 3-17q4-18 5-6 14-17 11-42l7 14 9-26q4 6 7 4l7-5 2 5 5-30q9 8 5 15l8-9v13q9-9 6-20 8 3 12 18l2-11 7 2q7-1 2-11 13 6 16 20l3-11 3 4q4-9 24-7 20 3 20-4 1 9 8 19V786q6 2 5 11l8-18 3 28q2 9 9-21l4 25 4-8 6-10 2 19v19l11-7 4 19 3-19 3 39 13 4q6 1 16-8l-2 17-3 20 14-6q3 6-4 13-6 7 4 24l9-8-7 14 9-3q-6 10 1 27 5-5 15-7h15l10 10v14l-8 15-6 10 8 44q3 25-16 39 14-11 55-18l63-8 48 4 47 11 80 6q-12 1-16-34l-3-43-10-44-29-44-34-42-2-4-1 4q-45-15-55-9l-49 10q-34 3-47 12-5-8-33-19-27-10-32-21-8-25 6-27 0 35 39 19l61-26-36-28q-27-19-31-35l-32-13-38 3 18 32q13 14 33 14-16 14-40 4l-32-14q-2 10 10 24l12 19q-23-5-42-28l-31-42-3-22-7-20q3-13 30-41 22-22 16-53l60-6 68-6 28 16 13 20 13 23q28 24 86 34 20 3 40 23l28 28 3-9 33 20 12 9 22 19 22 16 25 22 33 20 52 55 31 30 31 31 47 54 41 57q11 17 18 45 9 38 5 96-36 36-78 57-47 24-133 45l-130 15q-94 3-130-13-6 27-5 50l1 52q-14 138-23 137l-11-2q-2 13 4 25l12 24q-15-13-24-32-2 3-1 20l-2 22-6-6-11 47q-12 32-10 54-7 8-7 34-2 25 1 37l4-4 5 82q2 61 14 95 4 14 23 47H638q24-41 29-69l11-78q5-43 2-79 15 1-3-74-21-85-20-90l-6 4-2-16q1-7-6-10l2-9-4-9 1-17-14 6-7-60q-4 8-13 41l-17 40q25-26 19-13l-20 32q-12 21-9 45l-5 53q0 26 10 53-8-1-15-11l16 49q12 40 5 48-12-6-12-18-4 3 0 17l-9 1 3 15q2 10-7 11l-9-9-4 28q-7-4-6-13-15 27-19 91l-14 41H346l-111-14 39-105q14-70 27-122 24-101 47-107 12-27 39-65l44-61q12-19 14-57 3-42 11-60 9-22 4-47-6-30-2-48l10-44-12 1 8-14H445l30-26q-6-27 47-62l78-43-17-3q13 5 52-10 38-15 51-26l22-31q9-23-2-35l13 2q-13-13-5-11l26 8q-6-12 1-45 8-35 30-14 11-4 15-20" fill="#fff"/></svg>