<?xml version="1.1" encoding="UTF-8"?><svg xmlns="http://www.w3.org/2000/svg" xmlns:xlink="http://www.w3.org/1999/xlink" version="2.0" width="100pt" height="100pt" viewBox="0 0 2000 2000" clip-rule="evenodd" fill-rule="evenodd" preserveAspectRatio="none"><path d="M447 170q-16-1-29 10L251 326 412 553q12 17 33 17l23-8q14-9 16-25 3-16-7-30L358 339l113-99q12-11 13-27 1-16-9-29-11-13-28-14M1757 722l104 97q16 16 16 38l-3 18-193 271q-19 18-40 19l-544 69v761H986V1248l-150 18q-15 0-17-20V938q0-20 10-29l10-6 147-46V698L405 624l-13-3q-15-5-27-16-18-18-193-270-3-7-3-18 0-22 16-38 35-35 104-97 86-77 97-77L986 293V232h111v96l110 35 11 5q10 9 10 29V705l-3 11-15 10-113-14V822l563-177q11 0 97 77m37 139-167-145q-13-11-29-10-16 1-27 13-11 13-10 29 1 17 13 28l113 98-119 168q-10 14-7 30 3 16 17 26 10 7 23 7 20 0 32-17l161-227" fill="#fff"/></svg>