<?xml version="1.1" encoding="UTF-8"?><svg xmlns="http://www.w3.org/2000/svg" xmlns:xlink="http://www.w3.org/1999/xlink" version="2.0" width="100pt" height="100pt" viewBox="0 0 2000 2000" clip-rule="evenodd" fill-rule="evenodd" preserveAspectRatio="none"><path d="M1646 577l-18-36q-26-35-94-92l-32-29-47 55-29 36q27 38 94 95l3 2 29 57q43 84 59 130 29 79 32 161h12 108q6-71-10-140-11-48-41-122l-29-49-15-24-22-44m65 734q59-135 60-300H1647q-13 187-77 300l-21 29-25 33-35 52 1 2 16 12 27 28 48 45q86-101 130-201m147-355q37 0 51 19l11 15-15 12q-13 10-39 10l-20-1h-9q1 139-44 264-31 89-92 184l-16 27q-31 52-56 74l2 2q25 19 23 45l-2 21-20-2q-25-3-42-21-120 107-234 162-150 72-332 77v8q2 33-13 44l-5 4H989l-4-3q-22-11-19-49v-3l-73-9-70-8-62-20-42-16q-55-19-92-38-24-13-77-49l-75-55-7 11q-17 32-37 32l-13-3-7-3-3-6q-13-27 16-58l8-8q-116-117-176-238-81-162-84-368l-25 1-38 1-18-1V956h82q14-297 214-522l-18-19q-36-34-29-63l6-23 21 9q31 13 64 50l38-30 31-27q91-66 141-89 67-31 149-52l174-34V132q-2-41 9-56l6-8h41l4 15q5 19 3 51v26q268 15 477 168l10-14q11-17 19-23 13-13 33-15l26-3-4 26q-3 19-14 36l-20 26-4 4q266 244 286 591h22M966 358h3V225l-4 1q-152 20-222 48-60 24-131 66l-24 14-64 41q-27 21-43 45l30 30q33 37 56 54 89-72 172-110 107-50 227-56m411 117 39-39 14-16 31-41q-203-139-437-153V354q223 24 353 121m57 517-12-21 22-8 52-8 81 1q-8-123-59-223-52-101-138-164l-28 31-30 33q-18 15-36 18l-33 4 12-31q10-26 42-60l28-34q-119-92-312-111l1 25 1 48q-3 25-18 38l-20 16-11-23q-7-16-3-62l2-42-9 1Q731 448 615 571l20 18 31 30q16 20 22 42l15 51-44-29q-48-29-79-68Q453 727 432 957l62-2 55 7 34 12-28 23q-21 16-64 16l-69-3q24 272 179 401l49-56 23-27q16-14 34-11l27 3-11 25q-10 23-44 61-29 31-37 51 130 110 327 123 2-88 11-140l12-73q-73-2-133-27-129-57-188-181-65-137-5-292 41-106 120-163 72-52 182-66l19-2 32-1q132 0 234 92 101 93 116 227l3 35q2 89-39 174-49 100-141 155-81 50-191 50h-1l19 70q9 33 5 105v42q244-15 381-168l-54-45-32-35q-16-22-15-42l2-42 31 28 51 47 56 52q123-141 138-369l-98 2q-37 0-50-21m-133-7q-6-91-54-160-41-58-105-91-65-33-138-33l-19 1-17 2q-61 5-107 29-38 20-76 59-57 61-75 160-20 107 23 193 27 55 86 102 55 43 104 55l73 9q77 0 149-39 60-32 98-80 62-78 59-189l-1-18M970 966q8-35 4-116V761l1-16 16-2h6q21 0 27 20v6q-2 35 2 97V966l145-2q37 0 55 17l9 11 16 30H1024v61 97l1 9q7 48-26 55l-24 6-1-110q2-82-3-117l-42-2-83 2-65-7-31-9 21-24q15-18 44-18l30 4 22 2 55-2 48-3m209 797 19-7q135-51 193-83 97-52 146-121l-17-18-71-69q-161 169-425 185v128l67-8 88-7M594 1507l-39 49-37 46q184 153 451 175V1650q-104-5-207-49-74-32-168-94M238 1011q4 171 65 311 61 139 174 239l37-44 43-55q-185-176-197-451H238m43-54 85-1q7-116 54-218 34-74 105-170l-38-38-52-50Q348 589 305 681q-59 126-67 274l43 2" fill="#fff"/><path d="M1646 577l22 44 15 24 29 49q30 74 41 122 16 69 10 140H1655h-12q-3-82-32-161-16-46-59-130l-29-57-3-2q-67-57-94-95l29-36 47-55 32 29q68 57 94 92l18 36M1377 475q-130-97-353-121V226q234 14 437 153l-31 41-14 16-39 39M965 226l4-1V358h-3l-1-132m1 194 9-1-2 42q-4 46 3 62l11 23 20-16q15-13 18-38l-1-48-1-25q193 19 312 111l-28 34q-32 34-42 60l-12 31 33-4q18-3 36-18l30-33 28-31q86 63 138 164 51 100 59 223l-81-1-52 8-22 8 12 21-62-3-3-35q-15-134-116-227-102-92-234-92l-32 1-19 2-2-218m2 284 17-2 19-1q73 0 138 33 64 33 105 91 48 69 54 160l-75-4q-18-17-55-17l-145 2V866q-4-62-2-97v-6q-6-20-27-20h-6l-16 2-1 16v89q4 81-4 116l-2-262" fill="url(#A)"/><defs><linearGradient id="A" x1="-16384" x2="16384" gradientUnits="userSpaceOnUse" gradientTransform="matrix(.03.02.02-.03 1270 696)"><stop offset="0" stop-color="#fff"/><stop offset="1" stop-color="#fff" stop-opacity=".01"/><stop offset="1" stop-color="#fff" stop-opacity="0"/></linearGradient></defs></svg>