<?xml version="1.1" encoding="UTF-8"?><svg xmlns="http://www.w3.org/2000/svg" xmlns:xlink="http://www.w3.org/1999/xlink" version="2.0" width="100pt" height="100pt" viewBox="0 0 2000 2000" clip-rule="evenodd" fill-rule="evenodd" preserveAspectRatio="none"><path d="M851 1834q10 19 6 46l11 78-34-7 10-39 7-78m354-192-48 72 22 268-57 3-9-206-23-12-45-36q-29-32-29-65 62 50 84 45l60-36 45-33m15-445q11-29 18-32l-2 56q-5 35-24 53 37 16 77 14l-21 5-28 1-28-1q-2 15 3 38l8 36-26-16q-7 0-21-8l-23-8q-13 0-19 10l-7 22q-16 49-8 100-9-1-22-10l-22-15-2 21-14-6q-7-5-12 0-4 3-3 18l1 20q0 20 6 37l15 33q-13 1-38-16-32-20-39-22-4 80 65 125-25 5-68-44-36-41-45-77-23-88 14-182l12-26 2 23h6v-5l5-1 1-5 19-20 15-22 6-1q9-19 25-15l33 10 72-9-20-11q35-8 69-42l20-28M797 1751q-33 14-52 13 24-5 61-36 38-31 45-55l9-1 20-27q9-14 7-35l13 3 7-32 10 69 10 69q1 27-14 62l-2 34-5 33-13-63-13-62-4-5-28 4-1 6q-14 6-50 23m-73-181 28 19 61 19-10 4-51 46q-27 29-27 63l-5 12-8 8-3-77-6-31-6-32-8-68-8-23-9-22 29 54q10 19 23 28m663-661 21 51q-5 37 1 44 6 10 14 2l10-17q2 12-4 31l-11 29 21-4-6 17-4 1-3 9 18 6 3 81-2-4-14-9 1 3-36-39-37-34-12-20-17-16q55-20 57-131M931 948q8 9 8 41v45q5 27 14 35l36 7 35-8 31-15 31-15 36-8v-6h4l6-14 8-14 13-28q-3-13 3-36l10-36q-1 20 3 33l1-55V822q16 27 28 61 13 40 11 67 22 1 46 26l38 44q-45-30-78-24-13 3-33 17l-33 19-26 17-53 34-63 25q-36 14-60 30-29 58 2 75 6 15 27 26l37 17-46-3-46-3q-14 3-31 21l-27 24-18 18-32 40-32 41q10-21 50-79l32-47 32-47-51 12-51 5q-4-11-26-22l-32-15-34-12-35-12-33-18q-13-10-23-28-25-45-24-74h3q-2 17 18 39 15 17 36 29 25 15 53 15 15-8 23-29l24-51q10-22 10-60l4-31 3-26 1 64 1 10 1-6v7l8 53 1 16 16 44 55-3 50-13 23-6q6-20 13-24l8-67-3-35-3-35m713-101 41 127q42 147 50 245 11 143-46 254-28 55-59 82 85 18 156-110l54-131 9 21q9 29 7 66-7 119-118 277-93 132-245 209-106 55-251 85l-13-163-8-78-8-26q-2-15 10-21l10-12 12-23q10-15 18-19l1-6 121-104 60-54 25-33 17-39 12-42q4-21-2-43l-8-64-27-284q-5-47-28-83 13-39-46-90l-42-47q-27-33-45-39l-61 6q-42 13-55 27-12 13-21 46l-63-34q-38-17-70-8-5 2-29 18l-30 22q-10 9-14 27-14-1-39-16-26-16-41-18l-39 4-35 21-26 40q-10 12-23 13l-28-3-26-11-26-10-23 6-20 10-20 18-17 11-1 5-6 6-5 1-8 11q-4 5-2 11-12 14-9 51l10 61-11 17q-8 31 8 100l11 76q10 83 4 132l17 97q9 59 20 96 33 107 40 189 4 47-8 102l-7 79q-55 8-117-20-46-21-76-51l-92-103q-43-62-64-154 106 134 216 166l65 8 24-4-187-159q-108-89-109-259-1-101 44-270 20-76 128-224 97-136 97-183 0-59-49-126l-49-55 72 3q80 12 122 54 42 43 43 125 0 41-8 74 48-32 105-93Q926 513 969 367q38-129-16-253L891 16q125 61 162 88 222 161 335 299l185 274q49 74-6 227-28 76-65 137 3 10 14 12 21 4 58-33 38-37 58-109l12-64" fill="#fff"/></svg>