<?xml version="1.1" encoding="UTF-8"?><svg xmlns="http://www.w3.org/2000/svg" xmlns:xlink="http://www.w3.org/1999/xlink" version="2.0" width="100pt" height="100pt" viewBox="0 0 2000 2000" clip-rule="evenodd" fill-rule="evenodd" preserveAspectRatio="none"><path d="M558 1444l-2-223-55-3q-32-1-49 9l4 218 1 220 51 1 51 1-1-223m-57-288 51 2V1047q-2-72 1-112-57-1-88 77-28 72-15 143l51 1m440 41 14 112q6 65-1 106l-9 29q-7 17-7 28 0 13 7 27l10 23v40l-1 40q1 9-6 20-8 13-9 20-3 13 6 31l11 32-1 52q-4 33-1 49-62-1-305 8-187 7-313-6-4-26 2-71l8-73-6-32-7-34q-1-22 7-68 8-44 5-66l-6-15-8-16q-11-44-2-161 8-106 23-176 31-147 105-257 76-112 177-157 257 145 307 515" fill="#fff"/><path d="M1851 532V917H1472v379H1086V917H708V532h378V152h386V532h379m-93 291V625H1425V605h-47V246H1180V605h-47v20H801V823h332v21h47v359h198V844h47V823h333" fill="#fff" fill-opacity=".8"/><path d="M1652 1675h-75V1363h75v312" fill="#fff"/><path d="M1771 1556H1458v-74h313v74" fill="#fff"/><path d="M453 478H379V165h74V478" fill="#fff"/><path d="M260 359V284H572v75H260" fill="#fff"/></svg>