<?xml version="1.1" encoding="UTF-8"?><svg xmlns="http://www.w3.org/2000/svg" xmlns:xlink="http://www.w3.org/1999/xlink" version="2.0" width="100pt" height="100pt" viewBox="0 0 2000 2000" clip-rule="evenodd" fill-rule="evenodd" preserveAspectRatio="none"><path d="M476 302l65 91q44 41 124 25 16-1 28 17 12 18 27 17l74-2 68 43V643q-65 79-150 159l-91 7-59 1q-27-36-45-80-36-86 6-120 1-14-14-27-14-12-10-31l10-28q5-18 22-14-14-36-60-75-52-45-66-67 5 1 10-24 3-20 13-1 4-24 32-41h16" fill="#fff"/><path d="M1532 431l-47 54v59q-2 30-16 24-4 26 7 43l24 24q-2 13-9 3-9-13-14-11V759l-26 23q-17 17-21 28l-129-11q-78-76-112-126l-5-224 40 4 64 13q16-44-77-63l-96-9q12 109 4 304l64 62q67 68 87 103l191 13 61-66-14-150 33 55q10 18 7 62l34 1 52-1 7 38 9 37h103q14 14 17 27l6 31 4-12q1 11 12 12l84-1 90-7q-2 23 7 25v41l-79 21-94 4-18 40-21 35-56-1q-45 1-63 10-7 8-10 25l-5 33h-63q-7 58-48 133-6-52-33-149l-26-87-347 169 12 309-2 21q0 14 18 12-12 9-53 15-38 6-50 19-8-14-11-35-4-23 3-32H980q-6 14-8 67-59-26-149-34 2-15 28-21l39-9 4-259-119-171-178-9-111-7q-11 21 1 109l12 101q-27-29-39-54-17-35-16-80-8-8-31-8H373l-5-28q-6-15-3-30-94 5-142-25l-12-33q-6-20-3-42l-95-6-87-3V935q9-39 68-31l106 6q48-76 150-58 6-8 9-40 4-28 14-35h71l5-45q5-24 19-30-2 43 28 106l31 55 232-7L925 660l-4-201-89-40q-58-23-91-9 78-41 231-58l4 46q5 23 28 20 18 1 21-28 3-33 10-38 102 13 158 29 81 22 126 62 63-10 110-50 38-33 71-91h24q40 18 55 75l-47 54M980 543q5 14 32 10 27-3 15-26-4-14-31-10-27 3-16 26M968 674l2 150q-67 1-94 48-13 24-13 47l-147 4-148 3v37l2 39H870q3 53 33 84 28 28 77 32v192h63V1127q48-8 81-46 30-35 30-71h283V935l-283-5q0-48-37-74l-74-36V674H968m12 794h55v-83q-38-8-50 18-9 18-5 65" fill="#fff"/><path d="M1168 1520q10-41 1-146-8-107 0-147 268-122 261-125l38 134 32 132q3 18-3 34l-12 25q49 66 118 116l-28 46q-16 27-43 29l-63-62-63-63-30 6-25 11q-34-35-66-17-16 10-37 34l-30 15q-17 2-50-22" fill="#fff"/><path d="M537 1128l63 8 120 8 55 61q33 36 51 72l-3 94-3 93-33 24q-11 14 4 47-24-2-47-21l-40-29-62 11-48 6-47 55q-32 36-40 61 1 9-29-21-35-37-50-37 72-57 100-164 24-93 17-241l-8-27" fill="#fff"/></svg>