<?xml version="1.1" encoding="UTF-8"?><svg xmlns="http://www.w3.org/2000/svg" xmlns:xlink="http://www.w3.org/1999/xlink" version="2.0" width="100pt" height="100pt" viewBox="0 0 2000 2000" clip-rule="evenodd" fill-rule="evenodd" preserveAspectRatio="none"><path d="M952 670q21 38 82 61l9-5q5-10 16-6 14 25 26 77l21 81q-1 27-20 70-18 42-19 73 29 17 55 4l48-26 36-4 32-3q19-6 43-41 28-40 39-48 12-8 37-13l35-9q40-20 26-57l-19-54 12-15 16-17q-35-36-10-93 32-12 79-42l78-50 4-14q-1-8 10-12 23 11 42 39l30 51-56 43q-37 24-44 53 49 74 50 133-22 37-79 57l-36 68-33 48-25 33-40 36-40 34-49 58-26 27q-17 19-23 32-7 18 3 45l15 47q2 20-7 58-12 46-14 64-4 43 1 113l6 108 52 32 52 33q30 25 81 102 50 76 79 98l37 25 29 28H1164l-43-30-40-27-30-31q-13-9-42 13l-28 22-18 27-20 26H503q3-16 23-41 18-23 19-44l19-15q11-9 24-10 14-27 43-54l53-46 56-45q38-33 44-52 8-24-4-53l-17-43q-2-13 2-38l5-41q4-95-39-229l2-15 1-17q-38-21-73-67l-59-83q-34-3-71-36-12-32-42-83l-44-81q-76-13-74-80 1-53 45-113-9-26-47-51-42-26-53-45l33-51q19-31 42-32 11 2 8 10-4 9 3 12l81 51 80 45q9 30 6 50-3 21-21 40l19 17q13 9 14 18 1 9-14 29-15 21-15 32 1 34 39 45 58 16 68 23l36 48q22 35 43 41l52 11 39 18q23 11 41 7 1-27-22-78-23-51-21-90 16-11 21-40l8-46 25-32 30-41q16-17 41-27" fill="#fff"/><path d="M0 598V553l113-28 74-6L12 244q17-66 54-115L395 394l36-112 83-62 7 189 86-29-71 140q-7 19-16 23l-26-3-30-11-24-5q-11-3-27-12l-26-14-22-9-16 1q-20 10-42 41l-29 50q-10 21-4 33 10 23 20 29l33 18 21 20q13 15 3 23l-25 6-54 8-154 24 71-112L0 598" fill="#fff" fill-opacity=".8"/><path d="M1588 253l26 146 341-253q27 51 37 109L1787 514l99 5 114 38v43l-197 18 62 117-75-17-59-12q-47-13-42-28l8-12 9-11 10-23q9-21-3-37l-28-43-30-42q-25-34-52-31-22 3-47 20l-35 24-26 9-11-7-6-12-73-176 83 35 21-188 79 69" fill="#fff" fill-opacity=".8"/></svg>