<?xml version="1.1" encoding="UTF-8"?><svg xmlns="http://www.w3.org/2000/svg" xmlns:xlink="http://www.w3.org/1999/xlink" version="2.0" width="100pt" height="100pt" viewBox="0 0 2000 2000" clip-rule="evenodd" fill-rule="evenodd" preserveAspectRatio="none"><path d="M1845 1015q4-12-1-20l-8-14q-9 2-12 15l-8 21-29-7-24-2q4 22 37 20l45-13m155-68v107q-23-7-59-26l-57-26q-12 1-19 16l-14 23-43 1-43-9 1 33q-10 17-31 14 7 10 2 24l-14 17q-13-1-9 9 5 12-5 14-10 10-33 4l-30-5-33 38q-22 25-43 26-22 0-53-22l-42-29-27-4-31-5-47-18-37-10q-10 1-22 10l-22 15-18 2-20 3-13 10-10 8-26-1q-17-2-28 5l-116-35-126-8q-41-29-62-43-37-25-72-35 8 66-20 177l-15 118q-8 70-34 102l-29 262-38 283H345q-157 0-253-96-92-90-92-247V509q248 22 293 4 8-106 32-148 35-62 119-46 25-57 52-89 34-40 81-53 99 3 154 22 67 23 95 75 22 39 21 76-1 29-18 83l-11 36-12 28-23 20-22 18q-4 30-1 58l-40 20q-25 12-35 27 33 24 112 58 65 35 70 92 12 1 21 9l15 15 34 3 36 3 49 17 52 17 65 7 62 9 28 13q18 11 28 13 79 19 187 4 10-3 11 4 1 9 4 10l74-5 89-5q3-13 25-41 20-28 24-42l34 8 29-7q45 35 125 69l141 56" fill="#fff"/></svg>