<?xml version="1.1" encoding="UTF-8"?><svg xmlns="http://www.w3.org/2000/svg" xmlns:xlink="http://www.w3.org/1999/xlink" version="2.0" width="100pt" height="100pt" viewBox="0 0 2000 2000" clip-rule="evenodd" fill-rule="evenodd" preserveAspectRatio="none"><path d="M1976 192q24 69 24 159v31L1636 648l273 43-294 113 318 225-502-104 43 221-372-215-16-146-116-43-49-471 119 98L1167 74l94 150L1463 23l-83 356 596-187" fill="#fff" fill-opacity=".8"/><path d="M293 1596q37 62 112 71 67 9 138-27 71-36 106-95 38-64 12-128-17-5-28-24l-23-26q-44-22-121 21-74 42-85 85 10 29 51 52 38 21 41 45l-111-15q-67-15-92 41M0 1649V1276l143-79q55 10 146-39 93-49 110-102L905 776q23 2 57 20l55 27 17 123q11 73 27 125-53 41-190 113-138 73-191 113 8 57 39 158 17 84-24 137-45 59-158 96l-183 46q-33 94-10 258-157-1-252-96-92-92-92-247" fill="#fff"/></svg>