<?xml version="1.1" encoding="UTF-8"?><svg xmlns="http://www.w3.org/2000/svg" xmlns:xlink="http://www.w3.org/1999/xlink" version="2.0" width="100pt" height="100pt" viewBox="0 0 2000 2000" clip-rule="evenodd" fill-rule="evenodd" preserveAspectRatio="none"><path d="M1803 399l-10 1-10-3-506 158 43-186-105 105-49-79-66 154-62-51 25 246 61 22 8 76 194 112-22-115 261 54-165-117 153-59-142-22q357-258 392-296m197-48v26L1646 636l275 42-297 115 320 225-505-104 44 222-375-216-15-147-118-44-48-473 119 99L1174 58l95 151L1465 22v1l-77 342 584-183q28 69 28 169" fill="#fff" fill-opacity=".8"/><path d="M506 1502l22-36q8-22-7-49-13-24-42-24l-27 6-28 15q6 12 4 32-2 20 4 32 10 14 29 17l32 2q-19 25-51 13-29-11-46-44l-34 5q-12 22 2 51 13 24 26 31h24l38-9q25-9 47-34l1-1 6-7M927 772l22-4q15-2 27 7l25 31 5 7 10 18q16 24 21 44 5 19 3 49L609 1173q5 41 9 55 9 30 32 60l-34 27-38 21-34 22q-6 6-2 16l8 15 14 45v12l-3 11-2 24-21 35q-27 36-75 58-24 11-47 12l-27-1-16-4-16 1-36 14q-12 8-15 25-4 15 2 29l24 52 20 46 10 42q2 23-5 41-11 24-43 52-74 66-130 51l-19-8q-48-164-44-393l-7-23-8-23 4-7 13-19 17-18 20-21 16-24 3-6 3-4 4-8v-8l-7-5-20-1-41 9q1-18 26-25l37-4q28-65-26-116 9-9 6-22l27 3q14-10 29-14l26-3L807 878l87-52-4-13-9-16 23-13q14-9 23-12" fill="#fff"/></svg>