<?xml version="1.1" encoding="UTF-8"?><svg xmlns="http://www.w3.org/2000/svg" xmlns:xlink="http://www.w3.org/1999/xlink" version="2.0" width="100pt" height="100pt" viewBox="0 0 2000 2000" clip-rule="evenodd" fill-rule="evenodd" preserveAspectRatio="none"><path d="M1252 859q8 15 8 42l-4 48-173-2-174-1-39-1 1-44 2-44 26 1 353 1" fill="#fff"/><path d="M1315 858q62-11 123 15 68 27 66 77l-96-2-97-2 2-44 2-44" fill="#fff"/><path d="M1524 858q-90-59-207-85l-151-22q-101-9-140 1l-14 6-13 5-57-6-60-6-28 5-28 5h-1l-62-7-62-3q-12 102-10 246-2 144 10 246l62-3 62-7h1l56 10 60-7 57-5q5 1 13 5l14 6q39 9 140 0l151-21q117-27 207-86 90-59 134-138-44-80-134-139M1270 282q48 22 113 150 64 128 113 150l17-99q11-83 2-99 102 86 119 363 4 74 134 250-130 176-134 250-17 277-119 363 9-16-2-99-9-73-17-99-49 22-113 150-65 128-113 150l19-84q10-57 4-86-54 15-243 139L808 1834q3-24 153-198 123-143 54-129-278 54-354 52 42-5 163-69 129-69 126-99-4-39-78-54l-111-11-110 6-74 7 15-185-540-2-51-18V860l51-18 540-2-15-185 74 7 110 6 111-11q74-15 78-54 3-31-126-99-120-64-163-70l180 21 174 32q69 14-54-130Q811 183 808 160l242 153q189 124 243 139 6-29-4-86l-19-84" fill="#fff"/></svg>