<?xml version="1.1" encoding="UTF-8"?><svg xmlns="http://www.w3.org/2000/svg" xmlns:xlink="http://www.w3.org/1999/xlink" version="2.0" width="100pt" height="100pt" viewBox="0 0 2000 2000" clip-rule="evenodd" fill-rule="evenodd" preserveAspectRatio="none"><path d="M843 588q-15 15-15 36 0 21 15 35 15 15 36 15 20 0 35-15 15-14 15-35 0-21-15-36-15-15-35-15-21 0-36 15m90-226 18-18q17-16 121 84 101 104 84 121l-18 18 18 18v52q273 316 283 347l-362 363-330-285-58 7-231 192q-176 150-215 188L1 1691 0 1312l53-53q79-79 378-448l8-58L153 423 516 61q31 10 347 283h52l18 18M629 823q0 21 15 36 14 14 35 14 21 0 36-14 14-15 14-36 0-21-14-36-15-14-36-14-21 0-35 14-15 15-15 36" fill="#fff"/><path d="M2000 1232v146l-530-82 451-123 79 59m-48 609q-19 33-49 61l-47 39-393-6 34-425 455 331M1729 689l271-102V906l-428 166 157-383M1503 791 1352 305l368-4-217 490M1202 1998H649l511-505 42 505m-862-33 183-404 404-104-587 508" fill="#fff" fill-opacity=".8"/></svg>