<?xml version="1.1" encoding="UTF-8"?><svg xmlns="http://www.w3.org/2000/svg" xmlns:xlink="http://www.w3.org/1999/xlink" version="2.0" width="100pt" height="100pt" viewBox="0 0 2000 2000" clip-rule="evenodd" fill-rule="evenodd" preserveAspectRatio="none"><path d="M1039 673q0-16-12-28-11-12-28-12-16 0-28 12-12 12-12 28 0 17 12 28 12 12 28 12 17 0 28-12 12-11 12-28M999 408q-16 0-28 12-12 12-12 28 0 17 12 28 12 12 28 12 17 0 28-12 12-11 12-28 0-16-12-28-11-12-28-12M940 232l58-3q115 2 115 21v20h20l29 29 356 36V744l-346 25-29 37q-37 370-37 465v729H892V1271l-17-227-23-238-28-37-347-25V335l187-22 169-14 29-29h20V250q0-12 58-18" fill="#fff"/><path d="M1205 1008l6 2 681-354-546 539 559 114-559 115 443 435-578-250-25 8V1271q0-54 19-263m-429 2 15-5 21 266v350l-36-12-569 241 434-426L95 1309l546-114L95 656l681 354" fill="#fff" fill-opacity=".8"/></svg>