<?xml version="1.1" encoding="UTF-8"?><svg xmlns="http://www.w3.org/2000/svg" xmlns:xlink="http://www.w3.org/1999/xlink" version="2.0" width="100pt" height="100pt" viewBox="0 0 2000 2000" clip-rule="evenodd" fill-rule="evenodd" preserveAspectRatio="none"><path d="M836 1665l154 71-264 264H502l334-335-591-268 336-28L0 919V906l627 230L254 716 730 819 164 157 842 567 664 101l495 475-10-233 262 252 9-476 580 1399v138q0 156-97 248-93 96-249 96h-83L990 1736l29-29 127-111 137-114 34-4 195 168 214-214q-6-18-168-205v-31l-10-10 11-11q9-10-50-71-62-60-72-50l-10 11-11-11h-31q-187-161-205-167L966 1101l168 194-4 35-223 264-71 71m434-364q12 0 21 8 9 9 9 21 0 13-9 21-9 9-21 9-13 0-21-9-9-8-9-21 0-12 9-21 8-8 21-8m147-89q0 13-8 21-9 9-21 9-13 0-21-9-9-8-9-21 0-12 9-21 8-8 21-8 12 0 21 8 8 9 8 21" fill="#fff"/></svg>