<?xml version="1.1" encoding="UTF-8"?><svg xmlns="http://www.w3.org/2000/svg" xmlns:xlink="http://www.w3.org/1999/xlink" version="2.0" width="100pt" height="100pt" viewBox="0 0 2000 2000" clip-rule="evenodd" fill-rule="evenodd" preserveAspectRatio="none"><path d="M1184 957q-8 13-5 28 2 16 15 24 13 9 28 6 16-2 25-15 9-14 6-29-3-15-16-24-13-9-28-6-16 3-25 16M845 927l-13-42L658 740 489 607 4 275Q21 165 87 94l5-5L603 440q44 30 384 218l44-3 205-256 319 218q-4 25-163 297l8 38-11 16 16 11q14 10-46 101l-33 43q-36 42-45 36l-16-11-11 16-38 7-101 125-117 133-319-219L845 927m164-91q-9 13-6 29 3 15 16 24 13 9 28 6 16-3 25-16 9-13 6-28-3-16-16-24l-28-6q-16 2-25 15" fill="#fff"/><path d="M1695 1335l225-321-111 461q13 60-82 122-190 122-732 128-542-6-733-128-59-39-77-84-8-23-5-38L70 1014l224 321L135 677l275 474-30-381 213 514 94 1q105 13 157 78l-251 26q-224 33-228 86-5 59 194 100 183 38 436 43 252-5 435-43 199-41 195-100-4-53-228-86l-252-26q53-65 157-78 52-7 94-1l269-499-55 306 245-414-160 658" fill="#fff" fill-opacity=".8"/></svg>