<?xml version="1.1" encoding="UTF-8"?><svg xmlns="http://www.w3.org/2000/svg" xmlns:xlink="http://www.w3.org/1999/xlink" version="2.0" width="100pt" height="100pt" viewBox="0 0 2000 2000" clip-rule="evenodd" fill-rule="evenodd" preserveAspectRatio="none"><path d="M1291 1343q9-8 9-21 0-12-9-21-9-8-21-8-13 0-21 8-9 9-9 21 0 13 9 21 8 9 21 9 12 0 21-9m118-110q8-9 8-21 0-13-8-21-9-9-21-9-13 0-21 9-9 8-9 21 0 12 9 21 8 9 21 9 12 0 21-9m149-37v30q162 187 168 206l-214 214-195-169-34 5-129 107-130 112-299 299H500l407-406 223-265 4-34-168-195 214-214q18 6 205 168h31l11 10 10-11q10-9 72 50 59 62 50 71l-11 11 10 11" fill="#fff"/><path d="M2000 1657l-6 69L1511 588l-1 8-4 229-247-238 10 233L916 481l122 321L643 563 998 978 532 878l434 488-428-157 307 238-255 21 249 134-74 74-520-280 336-28L0 919V905l627 230L254 716 730 818 164 157 842 566 664 100l495 476-10-233 262 251 9-475 580 1364v174M982 1791l74-74 527 283H1371L982 1791" fill="#fff" fill-opacity=".8"/></svg>