<?xml version="1.1" encoding="UTF-8"?><svg xmlns="http://www.w3.org/2000/svg" xmlns:xlink="http://www.w3.org/1999/xlink" version="2.0" width="100pt" height="100pt" viewBox="0 0 2000 2000" clip-rule="evenodd" fill-rule="evenodd" preserveAspectRatio="none"><path d="M1029 1074q11-11 11-27 0-16-11-27-11-11-27-11-16 0-28 11-11 11-11 27 0 16 11 27 12 11 28 11 16 0 27-11M974 860q12 11 28 11 16 0 27-11 11-11 11-27 0-16-11-27-11-12-27-12-16 0-28 12-11 11-11 27 0 16 11 27m137-197h19l28 28 339 34v390l-331 24-27 35-20 227q-15 175-15 217v371H899V1618q0-88-37-444l-28-35-330-24V725l178-21 161-13 28-28h19V643q0-11 55-16l55-3q111 2 111 19v20" fill="#fff"/><path d="M1941 991q0 340-216 601-214 258-541 322v-84q146-32 269-109l-264-204 8-100 273 211-142-421 87-6 148 439q139-121 216-287 80-171 80-362 0-134-39-256L1577 923V817l127-99H1577V676l-44-22q-22-11-106-20h354q-97-213-290-348-196-137-436-152l162 481-24-2-14-14q-19-31-71-45L1000 237 893 555q-51 12-71 44l-14 14-24 2L946 134Q707 149 510 286 317 421 220 634H573q-83 9-105 20l-44 22v42H292L424 820V926L180 737q-38 123-38 254 0 191 80 362 77 166 216 287l148-439 87 6-143 420 274-212 9 100-266 206q129 79 272 110v84q-327-64-542-322Q60 1332 60 991q0-389 275-665Q611 50 1000 50q390 0 666 276 275 276 275 665" fill="#fff" fill-opacity=".8"/></svg>