<?xml version="1.1" encoding="UTF-8"?><svg xmlns="http://www.w3.org/2000/svg" xmlns:xlink="http://www.w3.org/1999/xlink" version="2.0" width="100pt" height="100pt" viewBox="0 0 2000 2000" clip-rule="evenodd" fill-rule="evenodd" preserveAspectRatio="none"><path d="M1820 962q-10 491-197 820-133 235-279 49-103-130-160-355l160 184q121 114 165 15 61-137 6-256-19-41-58-94l-63-85q118 44 179-49 54-80 45-221-10-138-71-222-69-93-165-50l51-93q37-71 52-125 46-160-81-216-49-16-108 66l-92 149q30-159 111-277 113-164 240-50 120 107 199 378 70 241 66 432" fill="#fff" fill-opacity=".8"/><path d="M730 973q-17 0-28 12-12 12-12 29 0 17 12 28 12 12 28 12 17 0 28-12 12-11 12-28 0-17-12-29-11-12-28-12m402-76h21q18 0 20 115-2 116-20 116h-21v20l-29 29q-24 332-36 355H659l-25-346-36-28-238-22-227-15H0V907H133l465-40 36-28 25-346h408q12 23 36 355l29 29v20M955 973q-17 0-29 12-12 12-12 29 0 17 12 28 12 12 29 12 17 0 28-12 12-11 12-28 0-17-12-29-11-12-28-12" fill="#fff"/></svg>