<?xml version="1.1" encoding="UTF-8"?><svg xmlns="http://www.w3.org/2000/svg" xmlns:xlink="http://www.w3.org/1999/xlink" version="2.0" width="100pt" height="100pt" viewBox="0 0 2000 2000" clip-rule="evenodd" fill-rule="evenodd" preserveAspectRatio="none"><path d="M1249 628l7 17 9 15q25 18 32 72l3 83 2 38-2 37-10 27-11 27 51-102q31-66 24-109-14-5-25-31l-18-39-28-26-28-27v23l-6-5M975 931q-12 20-43 26l-1 6q-21 6-44 36-22 27-32 54l-14 10h10l4-10q42-35 60-36 18 0 23 10l14 19 25 3 27-2q-2 27 17 120l26 102q-1-19 5-58l6-54q1-17 7-27l12-21 7-32 1-36q27-19 71 11l64 48-16-39-28-37-22-40q-58-24-89-47l-20-15-26-1-44 10m89-384q-24 16-44 15-52-3-89-27h5l-31-13 11 36 16 32 26 27q16 16 20 29l25 17 32 4q11-1 20-17l13-26 23-48 7-29q3-19 7-24-13 3-41 24m-32-203-15-11 12 46 59 1 39-42 5-29-62 29-38 6m-57 2-38-7-62-28 5 28 40 43 59-1 11-47-15 12m856 1486 1-4-3 1 5 10-1-6-2-1m-154-180-3-5-1 12q-4 6-16 6h-19v-3l-3 12q-4-2-4-17l1-2-19-21q4 30 21 49 12 12 31 8 21-4 17-25l-5-14m-54-184 13 12 15 2 13-1-1-1 15-14q10-6 11 10l14 9 10 18h10l1 10-4 9 44 98-1 5 72 170 3 1 2 3h8l3 16-9 9 6 17-29 11-7-16-17 6-9 7-13 1-13-32-7 1-20-51-20-49q-16-23-41-22l-15 5-14 4q-30-32-35-65l-1-12h-1l-13 4-2 15q-5 6-18 8l-23 4-9 7-9 6h-14l-13 1-8 18-27 3-23-50-13-44-7-19 2-20 4-13-116-327-3-185-61 80 14 229 40-2 20 112-45 5 108 533H1179l-117-367-113 367H704l106-513-42-7 15-83 52-9-22-223-56-57-2 120-116 327 4 13 2 20-7 19-12 44-24 50-26-3-9-18-13-1H541l-9-6-10-7-23-4q-12-2-17-8-3-5-3-15l-13-4-2 12q-3 31-35 65l-14-4-14-5q-27-1-41 22-9 13-21 49l-20 51-7-1-13 32-12-1q-7-1-9-7l-17-6-8 16-29-11 7-17q-7-1-9-9-2-8 2-16h8q1-6 5-4 23-58 73-170l-2-5 44-98-4-9q-2-6 1-10h10l10-18q13-5 14-9 1-16 11-10l15 14h27l13-12 6 2 3 7-3 9 1 11 61-25 50-303 37-59-21-229-10-89q-8-96 7-128 33-72 214-96l93-97h8q-31-73-31-144 0-103 20-141 29-58 122-60 89-1 120 58 22 42 22 143 0 75-34 149l125 88q79 7 139 25 92 27 114 75 15 32 8 128l-11 89-21 229 37 59 50 303 61 25 1-11-3-9q0-4 3-7l6-2m-720 90q38-18 58-25l60-33q32-19 63-20l-111 5-122 5-10-3q-7 13-2 46l6 50 58-25m358-78 7-7-90 4q12 22 38 44 28 22 48 22 2-44-3-63M239 1833l-1 6 5-10-2-1-2 5m163-196h-1l-11 29q-3 21 18 25 19 4 30-8 19-21 21-49l-18 21v2q3 13-4 17l-2-12-1 3H416q-13 0-16-6-4-7 2-22M747 660l-12 10h-7q-9 19-19 54l-17 53 10-4q-1 52 18 108l42 98q-24-93-14-183l9-81V670l10-37-10 14-10 13" fill="#fff"/><path d="M1697 608q-58-151-156-270-93-115-210-186 164 38 292 147 132 113 195 276 68 177 35 363-31 179-148 320 59-138 58-305-1-174-66-345M690 152Q573 222 479 338 382 457 324 608q-66 171-67 345-1 168 59 305-117-141-148-320-33-186 35-363 63-163 195-276Q526 190 690 152" fill="#fff" fill-opacity=".8"/></svg>