<?xml version="1.1" encoding="UTF-8"?><svg xmlns="http://www.w3.org/2000/svg" xmlns:xlink="http://www.w3.org/1999/xlink" version="2.0" width="100pt" height="100pt" viewBox="0 0 2000 2000" clip-rule="evenodd" fill-rule="evenodd" preserveAspectRatio="none"><path d="M94 1900q-28-28-48-65l478-281 9 16q71-35 132-53h12l-21 16 68-18q112-2 177 28 19 33 52 37l33 2q51 21 101 28 91 13 160-10l9 1 3 13 6-13 62-10q42-14 99-52l-3-18q16-16 45-21l54 1q25 7 28 33l-5 51q-6 44-37 86-27 38-58 47v6l-69 13-30 57-162 76-462 37-85-80-143 169H348q-158 0-254-96M1244 479l-12 4q-20 4-49 39h6l51 3q52 11 56 53 3 25-40 49l-43 19-135 23-3 15 15 8 195-39 53-51-17-89-77-34m221-85-54 22-42 77 2 138-75 63-149 33 20 12 9 87-34 31 35 46-10 49 17 71-27 56-64 30 57 344-205 48-2-14-3-2q-10-14-13-44l-2-49h1l-15-88q37-29 69-76 15-45 28-55l11-19 12-17-81 37-141 86-64-10-64 71-221 32-43-40L2 1425V990l257-42 54-86 53 41 30 2 21-49 74-29L625 700l33-19-51 12-59-71 14-132 49-17 4-37 54-22 51 19 796-289 72 141-1 66-122 43" fill="#fff"/></svg>