<?xml version="1.1" encoding="UTF-8"?><svg xmlns="http://www.w3.org/2000/svg" xmlns:xlink="http://www.w3.org/1999/xlink" version="2.0" width="100pt" height="100pt" viewBox="0 0 2000 2000" clip-rule="evenodd" fill-rule="evenodd" preserveAspectRatio="none"><path d="M1773 1979l-37 8-66 5h-5-353L935 1008l40-35 798 1006M788 973l-36 10-30-13-7 17-53 35-27 93-34 1-24-19 26-88-29-35 6-41-89-50-17-37-45 23-26-30-61 25-36-22-105 39-21-49 101-45 15-46 51-25-7-35 44-24-14-41 13-72-25-22 1-27-99-35V426l21-23 107 31 30-32 23 9 19-41 116-76 25 51 57-26-23-52 134-39 43 13 9-24 43-2 46-102 31-1 26 23-37 98 20 16 1 34 63 37 22 38 47-19 22 29 53-23 44 19 99-48 24 48-98 54-6 42-60 30 6 39-46 20 17 37-20 99 34 23 9 44 83 38-1 30-23 26-88-40-61 17-18-5-7 24-2 7-108 69-18-36-59 27 16 37-87 27m75-191-42-85 28-37 10-53 164-83-16-45-168 84-30-35-58 4-39-88-52 23 42 88-41 41 8 46-174 72 24 41 170-70 47 28 46 2 38 89 1 3 5-2 31-14 8-4-2-5" fill="#fff"/><path d="M1773 1979 975 973l-40 35 377 984H1075L788 973l87-27-16-37 59-27 18 36 108-69 2-7 926 977q-23 45-58 77-58 60-141 83M863 782l2 5-8 4 6-9m-37 23-5 2-1-3 6 1" fill="#fff" fill-opacity=".8"/></svg>