<?xml version="1.1" encoding="UTF-8"?><svg xmlns="http://www.w3.org/2000/svg" xmlns:xlink="http://www.w3.org/1999/xlink" version="2.0" width="100pt" height="100pt" viewBox="0 0 2000 2000" clip-rule="evenodd" fill-rule="evenodd" preserveAspectRatio="none"><path d="M1927 917l65-93v373l-105 119-108 108-537 472-82 97H337q-141 0-230-79v-16l169-78q176-78 207-76 34 1 92-40 48-35 84-75l258-384 121-178L898 921l-11 10q-39 33-130 41L206 373l-62 40-41-49L236 241 78 77q44-44 108-65L319 167 463 43l46 50-51 55L975 744l12 8q11 11 7 24-8 28-60 100l129 155q139-201 206-275 160-178 302-351 181-220 195-271l2-54V7q81 23 136 81 88 96 88 251V714q-95 89-186 157-68 51-133 146l-108 167q-123 179-260 332l-23 38q26-29 79-75l81-75 162-163 170-155q104-95 153-169M819 910l60-37L344 271l-71 69L785 899l4 12 30-1m415 301q54-51 25-113l-41-53-8 29q-13 35-37 66-24 31-78 36h-48q25 29 61 48 72 38 126-13" fill="#fff"/><path d="M1013 72l106 674L821 150l192-78M752 1095l-521-73 5-161 516 234M91 1328l696-128-637 370-59-242" fill="#fff" fill-opacity=".8"/></svg>