<?xml version="1.1" encoding="UTF-8"?><svg xmlns="http://www.w3.org/2000/svg" xmlns:xlink="http://www.w3.org/1999/xlink" version="2.0" width="100pt" height="100pt" viewBox="0 0 2000 2000" clip-rule="evenodd" fill-rule="evenodd" preserveAspectRatio="none"><path d="M1265 1345q-13 23-15 38-4 31 27 52 52 33 71 12 8-8 11-35 3-25 13-35l-21-23-9-6-4-11-20 3-43-12-9 16-1 1M658 1547l-33 27q-22 20 27 29l65 4q13-43 4-66l-63 6m106-336-50 5q-10 6-29 38l16 6 4 37q-6 12-3 60 11-1 54 13 30 10 50-9l42-63q32-54 29-68-3-21-48-21l-65 2M933 491l9-33 40-15-1-71h42l-1 71 40 15 9 33 138-5-3 35-135 5-23 33-30 16 2 73H985l1-73-30-16-23-33-134-5-3-35 137 5m355-246-10-23-21-9-62 53-30-11-13 12-25-21-101-15-1 41H979l-1-41-100 15-25 21-13-12-30 11-62-53q-10 5-21 9l-10 23 55 53-9 17 10 23-31 44-3 32-37 2-6 26-42 1-24 26h-1V8h725V447l-4-4-42-1-6-26-36-2-3-32-31-44 10-23-9-17 55-53m380 1335 321 169-17 51-469-92 128 250-501-240-39 274h-11l-78-274-571 229 230-223-632 74-10-28 423-148-304-160 299-21L21 801l506 448-90-336 192 187V513h1l17 26 49 2 8 28 37-1v30l44 60-16 25 8 32-44 51 10 20 23 10 47-54 46-7 10-9 15 18 93 13 2-30h47l1 30 93-13 16-18 10 9 46 7 47 54 23-10 10-20-44-51 8-32-16-25 44-60V568l36 1 8-28 46-2v561l341-363-112 448 240-133-181 389 359-195v65l-333 269m-787-50 13-3q-3-7-3-30 1-22-4-29-4-6-23-13l-23-15-6 17-33 7q4 47 27 62l37 6 15-2m70-192q-23-16-37-12-9 2-36 18-8 26 9 57 17 32 44 39l24 14 41-13q16-11 18-37-16-6-32-30l-31-36m136-308-56-30-30 14q-21 0-57 36 10 16 37 32 29 17 44 11l30-29q21-27 32-34m61 200q-13-16-65-16l-75 4q-3 30 10 97l1 45q1 28 12 40l9 7-1 1q2 7 9 6l-8-7 58-17 39-6 37-8q-14-19-13-73 2-53-13-73m260 314-13 33q-9 11-7 20h49q3-22-5-32l-24-21m-199-78q-24-22-41-19-14 3-36 27-21 23-24 36l23-13q-6 16-3 33l60-5q34-9 53-25l-32-34m-208-16-16 17-60 34q0 58 3 82l87 6 86 8q-3-58 0-87 15-48 10-66-8-29-48-19-17 4-62 25" fill="#fff"/><path d="M1265 1345l1-1q19-1 33 20l22 36q-8 6-23 8l-11 1-19-22v9q-5-19-3-51M881 1530l-15 2-15-15-25-5q-13-6-14-18 37-12 55 0 12 9 16 23l-2 13" fill="#373535"/></svg>