<?xml version="1.1" encoding="UTF-8"?><svg xmlns="http://www.w3.org/2000/svg" xmlns:xlink="http://www.w3.org/1999/xlink" version="2.0" width="100pt" height="100pt" viewBox="0 0 2000 2000" clip-rule="evenodd" fill-rule="evenodd" preserveAspectRatio="none"><path d="M1737 313l-33 51-96 4-15 54-72-2v59l-86 117 31 50-15 63 85 99-19 39-45 20-92-106-89-13-20-18-31 35-181 26-3-59H964l-3 59-181-26-31-35-19 18-90 13-92 106-45-20-19-39 86-99-16-63 31-50-85-117V420l-73 2-15-54-96-4-33-51-160-11 2-76 158 1 47-50 82-2 12-51 72-4 6-62L542 0H762L681 66 624 31 589 58v93l26 38 157-34 86-81 2-74h300l2 74 86 81 158 34 25-38V58l-35-27-57 35-81-66h220l41 58 6 62 72 4 11 51 82 2 47 50 158-1 2 76-160 11M854 730l12-199-105-79-143-28-37 18 2 105 22 20 37-36 103 32 53 103-22 25 16 28 62 11m554-401 6-68-269 9-18-64-78-29 2-100H969l2 100-78 29-17 64-269-9 6 68 263 10 45 64 58 31-3 64h69l-4-64 59-31 45-64 263-10m-6 95-142 28-106 79 12 199 62-11 16-28-21-25 52-103 103-32 37 36 22-20 2-105-37-18" fill="#fff"/><path d="M1647 1330q29-19 29-53 0-26-18-44-18-18-44-18-26 0-44 18-18 18-18 44 0 38 34 55l-4 287q-1 37-24 78-23 39-48 54l-16 4q-9-5-11-34-1-28 5-73l6-69q8-108-1-156-7-38-7-89 18-7 28-22 11-16 11-35 0-26-18-44-18-18-44-18-26 0-44 18-18 18-18 44 0 31 25 49 0 69 8 108 7 44 0 140l-5 66q-9 61-5 95 6 55 43 74l29 7q20 0 44-13 42-25 71-78 30-53 31-105l5-290m117-186-27 4-19 208 29-2-2 52-30 4-14 198 25 6-10 53-50-1-6 33q-30 74-90 118-20 15-51 23l-44 3-34-16q-22-14-29-31-7-16-13-58l-5-40v-38l-75-2V1497l-75-99V1190l-57-33 6-84h-57v-36h493v23l120-2 25 19-10 67M996 1817h174v183H996V1817m203-143q-48 30-109 30-67 0-116-34 17 30 47 48 31 18 67 18 35 0 65-17 28-17 46-45M959 1477q53-54 129-54 76 0 129 54 53 53 53 128 0 76-53 129-53 54-129 54-76 0-129-54-54-53-54-129 0-75 54-128m215-113H1032l8-73-109-88h243v161m-149-300h101v109H1025V1064M486 1371l6-170 376 2 122 122v51L887 1495l-86-116-315-8m143 33 153 4 71 137-224-6V1404M425 1180v-4H324v27H467v115H324v60H161V1009H324v70H425v-31H597v31h403v97H597v4H425" fill="#f1f2f2"/></svg>