<?xml version="1.1" encoding="UTF-8"?><svg xmlns="http://www.w3.org/2000/svg" xmlns:xlink="http://www.w3.org/1999/xlink" version="2.0" width="100pt" height="100pt" viewBox="0 0 2000 2000" clip-rule="evenodd" fill-rule="evenodd" preserveAspectRatio="none"><path d="M1304 1165q-32-32-78-32-46 0-78 32-33 33-33 79 0 46 33 78 32 32 78 32 46 0 78-32 32-32 32-78 0-46-32-79M340 1876q-27-35-43-93l8 2q35 63 113 115 38 26 55 7l25-41 14-5q27-23 101-19l109 3q129-21 194-49 48-7 69-22 19-14 42-48 23-36 38-49 18-14 104-43 71-24 84-55 31-74 116-149l44-49q12-14 50-45l52-50 6-8q-9 65-7 137l-3 15q-5 18-2 49l4 51q0 80 9 139 11 81 8 143l-5 56q-4 31 0 56 4 32 14 68H376q-8-80-36-116m222-473 11-18q12-14 36-23l39-18 27-33 17-39 5-5q27-1 76 20l32 16q20 10 34 4l4 15 13 23 15 24 13 40h8l6 20 18-8-38-55q-11-14-6-33 5-19 22-31l337-236q16-12 36-10 19 2 29 16l112 160q11 14 6 33-5 19-22 31l-337 236q-16 12-36 10-19-2-29-16l-22-32-16 10-11 6 6 6 6 12 5 13 6 1 12 47 5 52-23 9-1 4q-11 5-40 28-24 19-40 21l-27-3-28-1q-12 2-42 17l-50 31-51 24H656l-24-4-51 2-48-3q-22-6-32-31l-18-24-15-29q-18-29-25-62-4-16-3-65 0-43-9-64l2-2q5-12 34-31 22-14 42-23l22-6 19-10 12-16m176-217 30 28q21 22 21 31l-31-9-31-12-82-4q-26 2-40 15l-24 36-24 43-31 36-50 34-37 38-1 2q-32 16-58 56-12 18-10 44l6 46 5 52q2 33 7 51 8 31 8 68l-15-23-15-9-6-10q-7-10-42-31-28-18-31-37l-3-1-14-28-16-29-11-28-15-23q-7-25 3-50 6-14 27-43l56-87 21-38 14-40 4-26q4-12 15-23l69-49q58-39 110-29l98 17q70 15 93 32M851 667q54 20 66 26 35 15 60 34 53 43 164 99l33 15q18 10 20 26l66 50q50 38 70 46 52 22 135 27l141 5-27 47-28 46-25 34-23 35-14 27q-80-92-133-137l-45-41q-28-23-55-23-59 0-149 75-107 89-141 102-9 4-13 13l-14 12q0-64-28-120-29-56-81-92-35-24-76-31l29 23 68 69 19 16 17 17q7 13 9 51l5 61q1 40 8 60-33-16-58-62l2 26-6-6q-10 0-23-13l-21-17q-3-10-19-20l-26-16-49-37q-19-14-54-23l-59-15q-60-18-136 17-68 31-107 83-33 46-57 90l-28 63-34 45-2 11q-24-41 2-129l9-53 7-54q3-13 12-28l19-26q28-42 74-74 19-13 47-17l49-7 48-17q32-14 50-18l16-3-24-12-50-10q28-10 49-38l12-26 6-28q8-23 38-77l17-25q11-16 11-28l12-13 5-17-32-11 14-35 18-35 32 5 32 11 57 21 45 22 44 24m253-197-47 3q9 35 41 102l-4 11 59 11 59-8 23-10 26-2 28 7q19 3 21-9h4l8-23 4-23-29 15q-10 2-27-10l-47-43-60-58q-37-38-53-67l-58 6q-36 10-52 23 39 11 76 31l37 26 40 23-49-5m196-92 16 24 20 18 11-21q7-14 15-17l24 37q15 17 38 22 58 13 172-57 4 11-7 19l-1-1-6 53-12 52-3 24-5 23-13 18-18 14q-68 64-77 102l-5 30-7 28-14 44-9 30-17 23-6 1-19 21-25 17-70-33q65-76 91-99l-8-69-6-24-7-21q22 28 45 40 17 8 39-6l36-27 7-12-6-42 50-20q7-36 18-51-20-3-47 13l-40 27-50 22-53 19-12 6 4 15q-10 7-10 21-5 4-11 14l-12 14-1 20q-9 8-8 21-13 4-16 32l-2 40-12 61-95-53-8-8q-31-22-40-36l-29-15Q983 637 883 615l9-22 4-3q-24-2-45-100l-13-59q-7-37-5-61l4-5 70 4q11 8 20 27l16 32q1-41 35-80l60-64 26-32 18 1 14 20 17 21q9 6 20-4l12-18 11-20 7 11 8 10 16 3 15 2q24 12 45 41l53 59m364-182q6 19 33 47l43 43q41 47 60 79l-27-18-25-23-48-29 5 52 1 52q-11 0-26-13l-24-19-36-28-17-19-17-15q-8-1-26 16l-24 23-43 33-48 1q-14-10-38-40l-41-41q-16-11-24 2l-12 34-19-5q-13-17-49-39l-49-36q-47-55-68-88-12 2-21 21l-19 25q-13 6-27-9-13-13-27-3-25 19-45 55l-29 62q-10 6-25 29-16 23-18 35l-15-10-12-16V344q-11-33-17-125-6-83-25-122l8-25 44 39q21 21 49 5 30-17 76-55l24-19q14-9 28-11l16-22h34l-3 26 22-10 22-9q6 17 64 17l75-2 136 13-35 2q28 24 69 49 18 12 107 56 53 27 69 48l-6-3" fill="#fff"/></svg>