<?xml version="1.1" encoding="UTF-8"?><svg xmlns="http://www.w3.org/2000/svg" xmlns:xlink="http://www.w3.org/1999/xlink" version="2.0" width="100pt" height="100pt" viewBox="0 0 2000 2000" clip-rule="evenodd" fill-rule="evenodd" preserveAspectRatio="none"><path d="M968 925V434L492 654 968 925m60 0 476-270-476-221V925m480 373-480-263v504l480-241m33-50-2-544-487 276 489 268M968 1539V1036L485 1296l483 243M454 702v543L943 981 454 702M124 513l30-52L428 617 998 354l570 265 278-158 30 52-277 157 3 648-574 288v276H968V1606L394 1318V667L124 513" fill="#fff"/></svg>