<?xml version="1.1" encoding="UTF-8"?><svg xmlns="http://www.w3.org/2000/svg" xmlns:xlink="http://www.w3.org/1999/xlink" version="2.0" width="100pt" height="100pt" viewBox="0 0 2000 2000" clip-rule="evenodd" fill-rule="evenodd" preserveAspectRatio="none"><path d="M1719 847l-616 1 208-200-43-34q-56-39-118-67-200-90-391-33-248 75-381 312-67 118-84 221-33-149 3-322 71-346 414-463 308-105 582 44 85 46 157 112l55 57 212-177 2 549m12 895H1171V1632h560v110m0-180H1171V1452h560v110m0-180H1171V1272h560v110m0-180H1171V1092h560v110M285 1632H845v110H285V1632" fill="#fff"/><path d="M285 1452H845v110H285V1452" fill="#fff" fill-opacity=".75"/><path d="M285 1272H845v110H285V1272" fill="#fff" fill-opacity=".5"/></svg>