<?xml version="1.1" encoding="UTF-8"?><svg xmlns="http://www.w3.org/2000/svg" xmlns:xlink="http://www.w3.org/1999/xlink" version="2.0" width="100pt" height="100pt" viewBox="0 0 2000 2000" clip-rule="evenodd" fill-rule="evenodd" preserveAspectRatio="none"><path d="M1065 560l537-334 42 68-428 266 428 265-42 68-537-333M273 1022 792 587l51 62-446 373 446 373-51 62-519-435m792 437 537-334 42 68-428 266 428 265-42 68-537-333" fill="#fff"/><path d="M1820 294q-25 25-60 25-35 0-60-25-25-25-25-60 0-35 25-60 25-24 60-24 35 0 60 24 24 25 24 60 0 35-24 60m0 638q-25 25-60 25-35 0-60-25-25-24-25-59 0-35 25-60 25-25 60-25 35 0 60 25 24 25 24 60 0 35-24 59m0 280q-25 25-60 25-35 0-60-25-25-25-25-60 0-35 25-59 25-25 60-25 35 0 60 25 24 24 24 59 0 35-24 60m0 613q-25 24-60 24-35 0-60-24-25-25-25-60 0-35 25-60 25-25 60-25 35 0 60 25 24 25 24 60 0 35-24 60M1012 639q-25 25-60 25-35 0-60-25-25-25-25-60 0-35 25-60 25-25 60-25 35 0 60 25 25 25 25 60 0 35-25 60M177 937q35 0 59 25 25 25 25 60 0 35-25 60-24 25-59 25-35 0-60-25-25-25-25-60 0-35 25-60 25-25 60-25m715 449q25-25 60-25 35 0 60 25 25 25 25 60 0 35-25 59-25 25-60 25-35 0-60-25-25-24-25-59 0-35 25-60" fill="#fff" fill-opacity=".65"/></svg>