<?xml version="1.1" encoding="UTF-8"?><svg xmlns="http://www.w3.org/2000/svg" xmlns:xlink="http://www.w3.org/1999/xlink" version="2.0" width="100pt" height="100pt" viewBox="0 0 2000 2000" clip-rule="evenodd" fill-rule="evenodd" preserveAspectRatio="none"><path d="M1192 1177h-7q-75 0-138-40-61-38-93-103-66 16-109 69-43 54-43 123 0 82 58 141 58 58 140 58 83 0 141-58 58-58 58-141l-7-49m134 260-45 4q-54 0-107-24-50 45-114 60 51 46 117 46 46 0 87-24 39-23 62-62m89-401q-52 102-163 132l7 58q0 79-44 143 32 12 66 12 82 0 140-58 58-58 58-140 0-86-64-147M686 1450q24 34 60 53 38 20 81 20 67 0 115-45-70-16-122-67-61 38-134 39m60-265q-59-16-105-59-45-41-67-99-40 27-64 70-24 44-24 94 0 82 58 141 58 58 140 58 51 0 98-26-40-64-40-138l4-41M577 840l-5-8q-52 17-85 61-34 46-34 103 0 33 12 61 36-60 94-91l-1-29q0-49 19-97m80-216q-44 49-44 115l4 34q46-57 116-81v-1q0-65 32-123-64 8-108 56m786 295q0 31-7 58 57 42 83 106 24-42 24-87 0-56-32-101-32-44-83-62 15 45 15 86m-60-180q0-70-48-119-48-50-117-53 27 49 31 102 79 21 133 84l1-14m-198-18q-82 0-141 58-58 58-58 140 0 82 58 140 58 58 141 58 82 0 140-58 58-58 58-140 0-82-58-140-58-58-140-58M926 919q0-62 31-121-57-59-141-59-82 0-140 58-58 58-58 140 0 67 41 120 40 53 103 70 23-55 68-94 45-40 103-56-7-31-7-58m261-258q-11-72-66-120-55-48-129-48-79 0-136 55-57 54-62 132l22-1q102 0 176 69 36-41 85-63 51-24 108-24h2m45-171 68-43-20 67 5 3 33-37-10 47 17 9 87-19-33 56 65-14-34 53 11 11 47-3-22 32 10 12 77 12-19 51 38 42-24 14 7 14 50 28-32 21 3 9 1 2 8 11 34 4-21 17 20 54 5 4-4 2 4 32 10 8-10-4v11l-1 22 60 29-74 34-15 31-1 4 20 34-27 3-2 8q49 40 38 40h-50l-2 8 47 30-57-5-1 3 54 25-63-4-3 7-3 9 41 63-63-19-4 7 34 30-48-11-7 9-3 3 20 93-56-33 14 65-56-36-8 8 4 52-26-17-22 25-8 57-45-16-22 11-27 24-7-13-26 5-23 41-26-39-10-1h-3l-8 54-35-45-4 1-35 48-11-29 12-14-16 1 4 13-31 39 19-51-40 2-43-2 19 51-31-39 5-13-17-1 12 14-11 29-35-48-4-1-35 45-8-54h-1l-12 1-26 39-24-42-24-5-8 14-31-28-15-8-48 17-9-63-18-21-29 19 4-54-7-7-57 37 14-62-3-1-53 31 13-59-37-38-14 3 10-8-13-18-29 8 18-28-19-48-28 1 26-12-3-13-27 2 25-15-2-23H398q-10 0 29-32l2-17-22-2 20-33-18-37-72-33 57-28-1-23V986l-7 3 7-6q1-18 5-35l-2-1 2-1q7-31 22-59l-19-15 31-4 7-11 8-10-32-22 52-30 6-11-26-15 38-42-19-51 79-12 9-11-23-33 49 3 10-10-35-54 65 14-33-56 85 19 20-10-11-46 34 37 3-1 1-1-20-68 69 44 10-4-4-68 27 58h1l-4-63 32 54 5-2V409q0-8 20 15l25 31 2-1 4-35 39 22 24-5 40-87 11 21 10-21 42 91 18 4 43-25 4 35h2q45-56 45-45v57l5 1 33-53-5 62 1 1 27-58-4 67 11 4" fill="#fff"/></svg>