<?xml version="1.1" encoding="UTF-8"?><svg xmlns="http://www.w3.org/2000/svg" xmlns:xlink="http://www.w3.org/1999/xlink" version="2.0" width="100pt" height="100pt" viewBox="0 0 2000 2000" clip-rule="evenodd" fill-rule="evenodd" preserveAspectRatio="none"><path d="M1121 659l160-160 78 81L992 949 624 580l78-81L862 659V79h259V659M624 1417l368-368 367 368-78 82-160-160v580H862V1339L702 1499l-78-82" fill="#fff"/><path d="M1549 739 1430 934l332 70-332 70 119 185-452-255 452-265M451 739l451 265-451 255 119-185-333-70 333-70L451 739" fill="#d4d4d4" fill-opacity=".65"/></svg>