<?xml version="1.1" encoding="UTF-8"?><svg xmlns="http://www.w3.org/2000/svg" xmlns:xlink="http://www.w3.org/1999/xlink" version="2.0" width="100pt" height="100pt" viewBox="0 0 2000 2000" clip-rule="evenodd" fill-rule="evenodd" preserveAspectRatio="none"><path d="M1356 1081l-64-52q-98 91-108 148-4 19 5 31 15 19 55 19 51 0 130-29-13-58-18-117m43 31 12 71 59-27-62-37-9-7m-77-110 29 25-1-50-28 25m296 117-62 37 60 27 10-70-8 6m-105 60-93 44q38 147 97 147 56 0 91-147l-95-44M295 1002l29 25-1-50-28 25m34 79-64-52q-98 91-108 148-4 19 5 31 15 19 54 19 52 0 131-29-13-58-18-117m43 31 12 71 59-27-62-37-9-7m208 111q-48-20-94-44l-93 44q38 147 97 147 57 0 90-147m-51-67 60 27 10-70-8 6-62 37m98 42q76 29 129 29 39 0 54-19 9-12 5-31-10-57-108-148l-65 53-15 116m18-169 32-27-30-27-2 54M749 763q-47 0-120 28 12 66 16 132l62 52q97-92 108-152 5-23-7-37-17-23-59-23M486 816q41-23 97-49-32-138-97-138-59 0-96 139 48 21 96 48M606 943l-65-46-55-35-55 35-67 48 2 114 37 26 83 49 83-49 35-24 2-118M457 972q12-11 29-11 17 0 29 11 12 12 12 28 0 16-12 27-12 11-29 11-17 0-29-11-12-11-12-27 0-16 12-28M592 807l-66 33 77 51-11-84m-211 0q-8 38-13 85l78-52q-30-17-65-33M164 786q-11 14-7 37 11 60 108 152l61-51q3-63 17-132-71-29-120-29-42 0-59 23M1513 961q17 0 29 11 12 12 12 28 0 16-12 27-12 11-29 11-17 0-29-11-12-11-12-27 0-16 12-28 12-11 29-11m106-154-66 33 77 51-11-84m-106 9q49-27 97-49-32-138-97-138-59 0-96 139 48 21 96 48m-105-9q-8 38-13 85l78-52-65-33M841 763q20 28 14 67-13 73-118 172 106 101 118 168 6 37-13 62-26 35-86 35-53 0-138-29-42 172-128 172-89 0-134-173-85 30-140 30-60 0-86-35-19-25-13-62 12-67 118-168-104-99-118-172-6-39 14-67 30-40 92-40 53 0 130 29 44-163 133-163 93 0 135 163 75-29 128-29 62 0 92 40m350 23q-11 14-7 37 11 60 108 152l61-51q3-63 17-132-71-29-120-29-42 0-59 23M959 206h80V1793H959V206m672 855 2-118-65-46-55-35-55 35q-36 23-67 48l2 114 38 26q37 26 82 49 49-25 83-49l35-24m41-32 32-27-30-27-2 54m165 179q9-12 5-31-10-57-108-148l-65 53-15 116q76 29 129 29 39 0 54-19m31-445q20 28 14 67-13 73-118 172 106 101 118 168 6 37-13 62-26 35-86 35-53 0-138-29-42 172-128 172-89 0-134-173-83 30-139 30-61 0-87-35-19-25-13-62 12-67 118-168-104-99-118-172-6-39 14-67 30-40 92-40 53 0 130 29 44-163 133-163 93 0 135 163 75-29 128-29 62 0 92 40M1672 923l62 52q97-92 108-152 5-23-7-37-17-23-59-23-47 0-120 28 12 66 16 132" fill="#fff"/></svg>