<?xml version="1.1" encoding="UTF-8"?><svg xmlns="http://www.w3.org/2000/svg" xmlns:xlink="http://www.w3.org/1999/xlink" version="2.0" width="100pt" height="100pt" viewBox="0 0 2000 2000" clip-rule="evenodd" fill-rule="evenodd" preserveAspectRatio="none"><path d="M261 1446l197-8-26 63-156 5q-164 17-275-22v-76q124 55 260 38" fill="#fff"/><path d="M10 1733l-5-30q128-10 201-36l165-57 154-32 333 22 297 3q132-8 188-38 109 41 338 28 160-10 320 68l-2 31q-169-46-365-29-169 14-286-1l-82-18-14 16q-12 19-8 36 12 55 187 67 176 12 145 113-17 56-80 114h-2q3-43-32-82-62-72-222-85-105-7-185-76l-59-67-81 41q-66 54 6 122 54 51-193 99l-337 48H381q152-29 254-66 182-67 88-127-90-57-33-111l75-42q-41-7-125 0-166 15-375 84-56 18-255 5" fill="#fff"/><path d="M1099 1228q1-28-12-29-4 6-54 12-48 7-50 17 46 48 92 159l16-68q9-35 7-47l1-44M1263 217q16-1 33 9 28 9 63 51 43 49 38 95-1 14-27 44-23 28-21 86-36-22-55-6l-32 33q-13 3-29-14-13-14-27-3-7 7-2 29 4 21 13 28l-7 16-10 12q8 23 6 58-3 40 0 54 7 40-75 316l103-21q104-12 106 29 6 97-12 185-23 110-74 127l-47 15q-11 15 24 89l50 11q47 15 37 54-2 10-17 11l-125 7q-88-1-104-32-5 1-1 15 4 15 0 16H879q-32 0-128-62l-89-63-52 88q-16 18-41 17l-46-8q-7-14 16-69l32-76q3-14-9-22-12-6-7-14l23-40q11-28 26-36 22-6 38 20 21 33 35 40l79 10q64 5 111 33-4-12-62-67-59-56-66-77l-66-27q-30-18-36-47-10-51 6-107 13-42 51-112 36-111 86-216 97-206 211-267 29-15 56-16l40 3q11 1 31-19 21-21 31-20 21-127 85-151l29-9" fill="#fff"/></svg>