<?xml version="1.1" encoding="UTF-8"?><svg xmlns="http://www.w3.org/2000/svg" xmlns:xlink="http://www.w3.org/1999/xlink" version="2.0" width="100pt" height="100pt" viewBox="0 0 2000 2000" clip-rule="evenodd" fill-rule="evenodd" preserveAspectRatio="none"><path d="M286 11q82 48 159 123 79 78 119 102 67 40 63 80-4 41 32 64 50 31 149 71l121 50q32 15 5 87-25 67-53 86-19 13 8 40l43 36q21 19 11 53-5 20 28 70-9 29-22 27-14-2-73 19-43 17-72 61-36 56-21 127 26 126 91 161 32 18 59 10l18-6 35-4-5 54 12 3q14 8 21 29 6 18-3 39-10 24-8 37l35 99q30 81 20 104-20 49-43 71-44 42-122 40-102-3-192 19-106 27-160 84-57 62-102 145H343l-94-10H188l7-17-10-4q-53-22-96-65-92-92-92-247V352q0-155 88-249 75-80 201-92" fill="#fff"/><path d="M1250 1451q4-36 11-72 4-22 35-61 32 58 109 95 156 74 95 264-36 112-131 232l-2-9q45-112 54-203 14-151-83-192-48-20-88-54" fill="#fff"/><path d="M1687 1102q56-2 162 138 53 71 95 141-37-44-93-87-113-86-210-79l-159 7-130-27 15-78 15-70q101 60 305 55" fill="#fff"/><path d="M1188 322q71-71 186-135l5 4q-59 72-85 141-44 117 17 198 56 74-28 260-66-105-108-134 14-59-37-125-69-89 50-209" fill="#fff"/><path d="M1497 646q32-83 173-65 95 12 226 66l27 22-215-6q-144 24-168 136-30 143-153 187-3-28-15-45l-62-105q130-38 187-190" fill="#fff"/></svg>