<?xml version="1.1" encoding="UTF-8"?><svg xmlns="http://www.w3.org/2000/svg" xmlns:xlink="http://www.w3.org/1999/xlink" version="2.0" width="100pt" height="100pt" viewBox="0 0 2000 2000" clip-rule="evenodd" fill-rule="evenodd" preserveAspectRatio="none"><path d="M1209 737q-31-52-83-91l-141-4q-74 24-128 84l15-5 90-6q46 7 84 31l35 28 15 16 13 17q25 37 30 81 5 44-10 84-15 40-46 68 26-31 36-71 9-39-1-77-7-36-32-66l-14-15-14-11-31-20q-27-14-64-17-35 7-56 24-29 23-45 52-36 61-20 128 6 33 24 57l21 26 24 21q50 40 117 40 65 0 113-38 50-38 78-97 27-60 24-122-2-61-34-117M325 823q52-173 185-301Q651 387 841 369q93-8 184 15 92 23 169 74 81 52 136 125 58 76 82 168 30 113 3 233l23-40q41-78 48-161l3-41-2-43q-3-47-13-86-21-85-69-159-51-75-124-126-71-52-164-77-90-23-188-18 93-29 194-20 104 10 194 57 92 49 160 129 67 80 101 184l25 102 5 52v55q-6 106-51 209-46 99-124 176-79 77-179 121-112 46-217 42-122-5-215-74l-53-49-1-1-29-35h-1l-6-11q-30-45-45-86-40-114-14-222l7-23q-2-58 16-112l-5 6q-77 105-82 240-2 64 15 128 18 64 52 115 75 113 196 173 124 63 258 52 135-8 250-85 116-78 195-199 78-120 106-262 30-141 3-287-28-148-108-274 99 113 145 265 44 151 27 307-17 155-95 298-76 138-208 239-132 102-305 120-172 17-325-55-149-68-251-214-99-147-94-325 6-177 112-317l39-47-16 14Q498 721 451 863q-48 139-24 290 24 152 113 271 93 120 229 195 139 77 292 89 155 14 309-39 153-54 274-164-104 127-260 199-156 73-326 72-171 0-330-75-161-76-273-210-114-134-148-316-34-179 18-352" fill="#fff"/></svg>