<?xml version="1.1" encoding="UTF-8"?><svg xmlns="http://www.w3.org/2000/svg" xmlns:xlink="http://www.w3.org/1999/xlink" version="2.0" width="100pt" height="100pt" viewBox="0 0 2000 2000" clip-rule="evenodd" fill-rule="evenodd" preserveAspectRatio="none"><g transform="translate(1048 1713)"><path d="M10 0Q226 46 0 4L10 0" fill="#fff" fill-opacity=".47"/></g><path d="M908 717q67 10 109 32 148 76 62 304 12-38 14-91 3-108-58-156-67-52-141-7-67 41-69 102-1 53 11 85 15 39 61 88 37 38 111 45 42 3 100-38 68-49 108-133v2q19-144-29-219-58-91-177-84-100 5-152 57l50 13M559 650l-25 32q-48 68-82 139-110 226-39 396 90 215 212 326 136 124 362 167l55 10-79 34-221-80 27 71q-100-39-208-114-216-149-255-324-51-226-33-363 21-162 146-354 42-60 123-117Q704 359 900 372q195 13 318 124 63 57 97 118 18 12-39 108l111 44 5 108q2 120-11 179-10 45-78 89-64 40-151 63l-57 107q-92 23-194-5-206-55-260-309-7-34 0-119 8-89 24-140l-4 3q-54 68-73 217-25 187 67 291 109 122 222 172 120 52 253 28 114-21 228-59 57-19 91-34l-134 117 72 3q-51 29-121 57-139 55-229 47-105-9-237-64-128-53-181-106-57-58-109-148-59-101-67-174-12-103 11-205 27-127 105-234" fill="#fff"/><path d="M1521 602l22 11q24 23 36 79 12 56 5 127l-9 61-54-132q-4-7-34 20l-25 22q8-10 1-85l-8-62-5-24 47 88 24-105" fill="#fff"/><path d="M1667 1062q41-23 24 24-27 74-107 194l26-120q-68 30-56 9l50-98 26-61 13-38-21 123q24-21 45-33" fill="#fff"/><path d="M1552 340l49 62q52 73 69 129l-1 59q-5 44-11 14-22-102-66-193l-40-71" fill="#fff"/></svg>