<?xml version="1.1" encoding="UTF-8"?><svg xmlns="http://www.w3.org/2000/svg" xmlns:xlink="http://www.w3.org/1999/xlink" version="2.0" width="100pt" height="100pt" viewBox="0 0 2000 2000" clip-rule="evenodd" fill-rule="evenodd" preserveAspectRatio="none"><path d="M521 604 468 736 332 330 736 469 603 522 942 860V381L811 437 1001 54l188 383-131-56V860l338-338-132-53 405-137-138 404-53-132-338 338h478l-56-131 383 190-383 188 56-131H1140l338 338 53-132 138 403-405-136 132-53-338-338v478l131-56-188 384-190-384 131 56V1140L603 1478l132 53-403 139 136-406 53 132 339-338H381l56 131L54 1001 437 811 381 942H860L521 604" fill="#fff"/></svg>