<?xml version="1.1" encoding="UTF-8"?><svg xmlns="http://www.w3.org/2000/svg" xmlns:xlink="http://www.w3.org/1999/xlink" version="2.0" width="100pt" height="100pt" viewBox="0 0 2000 2000" clip-rule="evenodd" fill-rule="evenodd" preserveAspectRatio="none"><path d="M1256 782q119 121 119 287 0 168-119 287-119 119-285 119-166 0-285-119-118-118-118-287 0-167 118-287Q805 663 971 663q166 0 285 119" fill="#fff"/><path d="M1309 1563q155 0 264 109 111 107 111 262H261q0-156 109-262 108-109 263-109h676" fill="#fff"/><path d="M229 322q-25 53-34 112-9 59 4 113 15 59 51 86 38 27 89 7 43-16 94-65 82-82 131-209 49-129 42-251 31 116-4 263-38 144-122 241-58 63-114 88-39 16-79 15-42 0-80-25-61-41-86-130-18-68-7-145 25-158 130-250 36-30 71-40 49-14 90 9 38 20 57 65l11 38 3 19 1 18q1 74-35 140-20 36-44 58-37 33-68 37-24 3-43-7-19-10-29-30-16-32-13-71 10-77 66-113-45 43-43 114 2 33 17 53 17 21 38 15 41-13 71-80 25-57 20-111-3-29-15-51-11-24-27-31-32-16-76 26-40 36-67 92" fill="#fff"/><path d="M1292 98q-137 13-227 97-46 41-71 100-25 57-27 119-4 68 21 148l-58 12-6-26q-12-69-3-138 9-68 42-129 33-62 84-106 97-85 242-105 138-19 265 26 135 44 232 136 111 101 153 228 25 77 15 146-10 81-62 139-47 56-127 81-71 22-145 16-146-16-254-124-53-53-82-117-35-82-20-148 8-38 35-70 26-32 61-47 67-30 142-14 67 14 121 65 55 52 68 115l-8 2q-23-58-77-96-51-37-111-45-61-8-111 20-48 30-56 83-8 43 22 104 23 47 71 91 94 85 207 93l111-11q55-18 90-55 35-38 45-94 9-54-9-111-35-111-124-204-87-91-203-141-127-53-246-40" fill="#fff"/><path d="M1819 1208q-182 15-370-62l6-58q175 94 364 112v8" fill="#fff"/><path d="M283 1204q50-10 91 1 43 13 59 48 11 28 2 56-7 24-22 44l-35 38q-29 24-64 38l-52 10q-51-2-67-34l-4-10-1-12q0-15 12-33 20-31 57-44-36 18-51 44-14 25 0 41 21 26 70 19 50-5 95-44 21-21 25-39 4-19-5-34-18-27-54-36l-82 3q-51 12-96 44-51 35-62 78-10 36 14 70 18 27 52 41 65 30 160 10l48-14 51-23q57-27 106-74l30-34 7 13-29 35q-50 54-121 94-55 32-113 49-100 27-179 0-39-16-61-45l-10-17-8-20q-5-29 2-60 10-39 45-84 27-35 69-65 62-42 121-54" fill="#fff"/></svg>