<?xml version="1.1" encoding="UTF-8"?><svg xmlns="http://www.w3.org/2000/svg" xmlns:xlink="http://www.w3.org/1999/xlink" version="2.0" width="100pt" height="100pt" viewBox="0 0 2000 2000" clip-rule="evenodd" fill-rule="evenodd" preserveAspectRatio="none"><path d="M1135 282q28 23 13 58l-28 47q-8 18-7 48l-2 46 90 58q54 35 100 49 45 51 43 177-4 160 10 208l11 16 11 16q22 59 26 174 5 122 20 173 22 17 38 60l26 71q-5 4-10 4l-10-2-7 4 7 35q1 28 5 37-17 4-22 9l-21 19h-1q-9 0-11-16-2-16-10-16h-1q3 23-16 23l-6-1q-4-4-5-23-1-17-7-21l-5-1q-5 0-6 7l-5 7-6-1q-13-41-8-100l4-93q-5-55-42-142-43-99-52-138l-6-78q-5-51-25-75-13 49-8 115 3 47 19 133l21 99q12 56 11 104l2 157-1 158-12 79q-9 49-7 76 2 24 16 62l15 58v30H1133l5-64-2-62-14-42-16-40-29-147-27-134-17-60-1 1v-1l-17 60q-10 40-26 134l-30 147-16 40-14 42q-4 25-1 62l4 64H789v-30q1-21 16-58 13-38 15-62l-8-76-11-79q-3-59-1-158l2-157q-1-48 11-104l21-99 19-133q5-66-8-115-20 24-24 75l-7 78q-9 39-51 138-38 87-43 142l4 93q5 59-8 100l-6 1q-4 0-5-7l-6-7-5 1q-6 4-7 21l-5 23-6 1q-19 0-16-23h-1q-8 0-10 16-2 16-11 16h-1l-21-19q-5-5-22-9l5-37q1-27 7-35l-7-4-11 2-9-4 26-71q15-43 37-60 16-52 21-173 5-116 26-174l11-16 11-16q13-47 10-208-2-126 43-177 46-14 100-49 59-40 90-58l-2-46q1-30-7-48l-28-47q-15-35 13-58-21-47 4-96 24-48 72-62l12-1 14 1 15-1 12 1q48 14 72 62 25 49 4 96" fill="#fff"/><path d="M2000 461v27q-436 281-441 379-4 58 105 95 101 35 336 64v42q-259 13-368 41-119 31-117 93 3 61 124 174 105 97 356 284l-10 10q-317-182-453-232l-7-21q-21-66-49-97-10-42-14-134-4-131-29-201l-23-35q-11-44-7-147 2-94-4-135-11-73-53-120l-11-13-17-5q-41-12-114-61l-31-20v-7l2-30 6-9q51-79 20-134 10-56-14-105-16-33-39-55L1183 8h60q-46 393 48 388 90-5 413-387l21 1 2 2q-299 493-252 576 27 47 157 14 117-30 368-141" fill="#fff" fill-opacity=".8"/><path d="M1337 1617l15 19 15 2q35 119 130 354h-39q-76-121-146-216l2-10 10-76 2-88 2 1 9 14" fill="#fff" fill-opacity=".8"/><path d="M780 379q51 1 3-371h49l49 150-3 6q-24 49-14 105-31 55 20 134l6 10 2 29v7l-31 20q-73 49-114 61l-17 5-11 13q-42 47-53 120-7 44-4 135 4 103-7 147-18 21-23 35-25 70-29 201-4 92-14 134-21 23-38 65-79-6-218 31-121 33-333 112v-21q449-272 455-374 3-60-109-107Q242 983 0 936V904q415 30 415-1-1-30-415-157V714q236 44 338 45 113 2 120-46 13-80-364-456l18-18Q518 548 595 502q77-45-97-494h33Q729 377 780 379" fill="#fff" fill-opacity=".8"/><path d="M751 1766l9 72-1 3-76 151H639q54-233 62-355l12-1 15-19 9-14 2-1 2 88 10 76" fill="#fff" fill-opacity=".8"/></svg>