<?xml version="1.1" encoding="UTF-8"?><svg xmlns="http://www.w3.org/2000/svg" xmlns:xlink="http://www.w3.org/1999/xlink" version="2.0" width="100pt" height="100pt" viewBox="0 0 2000 2000" clip-rule="evenodd" fill-rule="evenodd" preserveAspectRatio="none"><path d="M627 93q151 12 334 92 365 161 523 505 106 229 57 645-24 209-70 371 14-120 15-294 1-349-65-622-67-273-437-512-116-75-248-138-66-31-109-47" fill="#fff" fill-opacity=".8"/><path d="M943 146 840 109q139 2 311 64 344 125 510 430 110 203 74 590-18 193-58 346 14-112 13-273-3-321-81-567-78-246-431-443-110-61-235-110" fill="#fff" fill-opacity=".8"/><path d="M1097 138q110-6 250 35 279 82 425 315 98 156 113 465 7 155-5 279-6-90-28-218-42-256-116-447-74-191-364-329-90-43-192-76l-83-24" fill="#fff" fill-opacity=".8"/><path d="M847 1466q-22-3-45-26l-39-40q21-5 71-30l-91 7q-61 4-87-14l12 29 37 34q22 20 42 27l100 13m-9-296 3-51-82 80 79-29m-118 41-111-32 27 43 84-11m-29 76h5l1 32q1 24 4 27l30-2 33-11 45-7q39-8 45-20 6-12-24-33l-32-18-52 27-50 5q-2-9-5 0m342 420-60 36q-32 17-69 17l-41 1-39-5q-10-3-30-17-19-14-30-16h3l-33-20-4 53-24-5-24 2q73 57 179 37 90-18 172-83m21 23-1 9-9 1q-9 39-93 70-69 23-137 23l10 3q-28 12-79-1-58-15-81-11 39 40 105 49l118-3q59-8 107-46 48-39 70-96l-10 2m89-523q-12-6-28-36l-25-44q-47-55-73-66l7 29q-6 11 4 39l15 41q4 19 0 43l-8 41q-18 89-41 154l50-48q35-31 44-50 16-6 40-29l38-35q-13-9-23-39M758 658q-16-27-41-28 37 67 34 126-2 32 9 57l27 47q28 47 67 71 30 18 95 36-47-16-83-60-13-16-26-50l-22-54q-29-57-43-99l-17-46M497 440l-61 4-28-13q-14-7-31-8H342l-34-4-7-9-10-7q5 17 3 43l-3 43q15 2 23 22 11 25 20 31 18 14 70 28l76 13 38-12q27-16 33-18 18-6 43 0l43 7q19-1 31-10l22-21 41-48q16-26 20-61 2-24-4-37l-23-25q12 25-11 61l-35 24-34 27q-22 13-41 5l-39-23-2-7-3-5 4-7-66 7m97-270q49 18 105 53l97 68 47 84q28 54 70 72 22 52 121 208 72 113 92 234 86 96 126 183 55 117 41 242l8 15q-16 142-75 262-35 74-55 142-29 46-50 108-36 103-33 159H584l48-129q-51-20-34-88 25-98 20-120 22-3 39 9 20 14 32 15-20-28-38-75l-29-82q-12 8-66 78-38 50-90 50l-40 52q-24 32-46 44-69 12-112-34-37-41-41-106-3-65 27-107 34-46 93-34l68-72q38-44 48-95 22-31 61-53 43-23 83-21-32-77-15-148 17-71 74-97 58-25 124 11 64 36 99 113l11 29q18-2 19-12-9-19-5-57 3-38-4-53-63-31-101-64-48-41-69-94-10-25-23-87-10-50-26-75-26-42-40-55-10-9-59-38-31 19-92 17l-89 3-17-12q-4-12-20-19l-13-2-116-62-5-4 15-49q4-12-3-24l5-41 4-3-4-4v-5l-3-9 7-39-5-20 6-8q38-93 39-153l7-15h3l12-2h6v-1q155-24 265 17" fill="#fff"/></svg>