<?xml version="1.1" encoding="UTF-8"?><svg xmlns="http://www.w3.org/2000/svg" xmlns:xlink="http://www.w3.org/1999/xlink" version="2.0" width="100pt" height="100pt" viewBox="0 0 2000 2000" clip-rule="evenodd" fill-rule="evenodd" preserveAspectRatio="none"><path d="M1379 1088l8-2q-3 14 7 11 10-2 9-11 5 6-6 17-11 12-18 7 0 2 8 4l-5 6-3 6-8-7q-2-7-9-5l10-7-2-17 9-2" fill="#fff"/><path d="M680 1061q-5-8 0-14l8-14q7 4 4 17-3 13-12 11" fill="#fff"/><path d="M652 1098l5 6 11-2q2 12-13 7-14-4-11 5l-11-8-5-12q16 16 24 0l2 2-2 2" fill="#fff"/><path d="M624 1138q8 2 10-8 3-10 10-8-3 17-20 20l-12-16 10 1q9 7 2 11" fill="#fff"/><path d="M523 985l20 2 13 14-11-3-14-1-8-12" fill="#fff"/><path d="M447 977l24-4q0 25-4 28H451q-4-4-4-24" fill="#fff"/><path d="M315 913l16 8-13 2q-12-5-3-10l-40-3-29-9q-14-2 10-2 15 0 9 5 14-8 33 0l17 9" fill="#fff"/><path d="M716 1154q10 5-9 13-16 8-15-9l9 1 7 3-1-12 13-4-7 8q-3 7 3 0" fill="#fff"/><path d="M1503 949q45-23 44 20-7 11-20 9l-24-9 2-10-2-10" fill="#fff"/><path d="M375 801q14-16 32-9-8 7-32 9" fill="#fff"/><path d="M1692 869q-7-5-14 3l-18 1 17-11 23-5-4 6-4 6" fill="#fff"/><path d="M1704 868v1q17 0 40-12 24-11 40-12l-12 4q-5 0 0 4-19 3-60 24 41-8 13 2l-45 10 9-11 15-10" fill="#fff"/><path d="M1756 700q-11 7-29 0l-31-8q1-6 24 0l36 8" fill="#fff"/><path d="M1760 865q-10 14 15 2 25-12 29-22-5 18-36 33-26 13-60 19 23-18 52-32" fill="#fff"/><path d="M379 1258q2-30-3-40-5 7-8 27l-4 30-15 3-3-5-5-3-5 59-10 56q-12 94 40 83 20-4 29-41 9-32 4-57l-15-52-5-60M960 617l6 27-3 60-8 62q-3 44 10 58 24 27 39-12l12-58-1-57-7-58q-2-56-10-82 2 47-8 91-13 3-20-19l-12-33-2-7q-1 11 4 28M858 780q4-31-1-47l-17-45q-7-23-3-48-8 11-12 32l-5 3q-11 28-17 100l-3 25q1 13 10 22 20 20 34 2 10-11 14-44M86 873q-5 0-4 4 16 17 43 31l33 21q-16 1-29-9-18-13-23-15 7 15 29 23l43 9q0-10-4-10l-12 2q6-5-5-12-10-6-3-12-27-3-32-12l14 1 2-9 27 19q15 13 25 9l-16-16 25 10 19 6-12 12-7-6q-4-5-5 2l2 3-6 5h24 20q-4 7 0 6 8-2 8 6l-23-3-17-1 16 7 12 9-13-2q-5-1-7 6h12q7 1 4 8-9 0-16 10-6 8-12 6 6 6-1 13-8 8-3 19-8 0-10 7-2 6 2 9l-11 3q-7 1-9 5l37 14q20 5 31-10l-9 14q-7 8-3 10 8-18 35-20l46-4q-12 0-12-4 16-15 36 0-7-12-6-25l6-27 41-19 39-1q-7 71 34 107 40 36 103 18 21-15 41-46l31-55q10 4 17 20 7 15 3 24 10-1 14 10l6 18-43 15 31 2-14 13-14 3 13 14q10 8 3 14l-10-11-10-1 9 6q5 5-1 6-9-9-16 4l8 8q5 7 0 8l-14-18q-9-11-14-6 7 3 12 20l-7-1q-3 6-9 5v-13q1-8-4-7-5 12-1 20l13 20q-5 0-12 5-3 2-8-5l-2 10 2 10-22 5q-10 5 2 11l-19 7q-13 3-6 9l114-23q69-22 91-25 5-17 12-20l8-4q-10-2-16 4l-8 12q-4-10 7-16l5-8q-9 13-32 0l8-4-11 3q-7 4-9-3l9-6 3-10-4-4-4-4-4 4q-5 0-4 4l7 2-3 6-7-7-9-5q3 6-4 11-6 4-8-3 9 3 8-8-1-12 4-12l2 7q0 6 10 5-6-10 2-12l14-8 24-1q15-4 16 9 0-10 8-12l-1-18-3-15q-4 8-16 9l-32 8q-1-11 9-25l11-20 10 10q5 7 10-2l-11-11q-5-11-1-13l12 12-8 4q16 7 28 22l24 23-2-21-10-28 8-2 4-6 101 20 10-19 10-21q-11-7-8-11 7-7 4-13l17-11 7-13 8 6q3 4 4-2-6-1-8-12l8 4 1-14q0-5 7-10l-14 2-10 6 9-14 7-14-16-1q-11 0-12 5l2 4-6 4-4-3q-3-1-4 3l2 2-2 2-4-6-4-6-16 3-20-3-5 10-7 6-9-6-11 2-3-16q-7-14-10-8 4-1 2 11l-6 13q-5-19-16-8 3-9-3-12l-9-8 14 3q9 2 2-3l-14-13q-6-10-6-3 11 20-19 11l-33-7q13 0 16 8-20 0-34-9-16-10 2-19-22 3-24 16l-11 2-9-2 12-8-11-2q-4-3-5 2 7 5-6 6-14 0-18-6 7 3 10-5 2-3-2 1l-16-2-8-10-10 7q-9 4-10-3 15 2 16-8l-21 4q-12-1 1-8l-26 3-26-3q18-2 24-8H535q4-6-3-9-6-4-1-15l-25 2-15-6-8 12-13-1q-7 2-11-3l21-6q11-4 15-11-64 19-96 9l20-1 12-8-13 1q-8 1-7-4l11-3q6-3 5-10-16-3-37 10-18 13-31 6l14-7q9-5 10-13l-52 12 5-6 7-6-9-1q-5 3-7-3l20-6 16-10q-23 3-40 12 0-10-8-4l3-6-3-6-25 5q-14 3-23 11 6-6-3-10l-14-10 12-8q5-3-4-8 16 2 17-8l-42 19-43 13 4-6 4-6-18 1-18 3q16 7-12 14-35 9-36 14l15-4q10-2 13 4l-13 17-27 16h24l4 12-8-7q-6-5-8 3 8 3 1 6-9 4-9 6 14 0 12 8-9 1-14 11L90 861l8 8 4 12-12-8 2-2-2-2-4 4m1244 337-4 3-4-3 13-4q10-2 11 4v20l-7-11-9-9m479 54q-25-87-27-105l-3 31q-6 13-25 10l-1-6-4-4-5-17q-4 62 2 114 10 88 48 71 33-14 15-94m103-305-3 31q-6 13-25 10l-1-6-4-4-5-17q-4 62 2 114 10 88 48 71 33-14 15-94-25-87-27-105M1611 708l-28 3 28 9-8 4-21-5-19 1q33 16 40 16l-22 1-22-9q1 9-14 5-16-3-14 11 18 2 24 8l-34 1-34-1q14 0 12 12l-8 4q2-7-8-11-10-4-12 3 12 2 8 10-3 9 8 10l-35-7-21-1q12 2 16 8-11 0-14 6-3 7 6 11l-20-2q-11 1-8 6 14-3 16 8l-32-8q3 13-8 12l-17-4q-2 7 5 8 6 2 4 8l-20-1-9 9q-2-4-15-6l-13 2q7 3-1 3-13 0-11 5l12 3 8 5-18-3q-10-4-14 3 10 0 8 8h-24q-2 7 2 10l6 6-15 2-13-2 2 8-2 4-26 1q-14 3 10 3l6 4q6 1 6 4l-59 8q-32 5-33-16-3 4-14 8l-6 8-18-2q-10-6-14-6-1 6 4 10 6 4 4 10l-10-3q-5-3-6 3l-2 15-6 21q10 1 10 23l2 29q0-7 6-4l6 8-2 15-6 9 11-1 5 1-3 21q-2 13-13 20 14 4 16 0 4-7 12-9l6 20 10 13 3-9q1-7 5-7l4 9 4 11q-7-8-7 1 0 10 3 11l11-2q10 0 13-6l-6-4q-2-3 2-4l8 2 4 6 1-7q-6-3-5-9 11 0 22-13l22-20-8 16q-5 8 0 17 0-3 2-3l2 3q-26 0-24 52 11-2 11 6-1 11 5 14 2-13 8-16 8 14-4 28h9l11-4-8 20 15-1q8 6 17 5l3 14 5 14 18 2 10-6 4 9q0 7 4 7-1-7 4-9l8-3q-7 3 2 11l10 1v6q0 10 8 18 3-13 13-1 12 13 16 5l-13-18q-13-12-20-30 15 3 10-5-6-10-2-11-1 7 8 11 9 5 13-3-7 2-9-3l-3-9 10 2 10 2q3-7-4-7l-8-5q47-4 92 16-1-14-16-20-14-6-28 0 2-13-16-24-16-10-37-12 2-11-3-16 14 5 29-12l23-28q-9-5-17 0-7 4-11 0 9-7 1-13l-17-16q26 8 16 0l-21-8 5-12-5-12q7 2 10-4l7-8q64 38 52 57 66 22 112-18 47-41 36-111 11-11 32-8l24 19q26 17 33 29l-15 31-14 21q3-8 13-6l12-2q-5-1-4-8l12 1 12-9-4 12 15-7q7-7 17-5 5 10 24 16 23 8 28 12 18-13 32-16l-6-21q-1-8 6-19-12-1-14-17l2-23 4-4-15 6q-7 3-9-6 10 7 1-7-9-12-17-13l13-6q9-3 3-6l-25 2-23-6q23-1 50-20l38-24q-1 6-12 10-10 4-12 10l52-32h-10l-6-4q10 4 19 0 8-3 13 0l-18 13-6 7q19-4 36-19l28-25-22 1q-9 1-2-9l-12 3-8-7 11 1 9-9q-5-1-1-7l5-10q-4-1-13 5l-11-1 20-12-16-4 12-8q-10-2-18-18-6-11-14-2 4-7-4-5l-15-2 8-1q7-3-1-4l-23 2q-16-2-21-10l40 4q-3-9 6-8 10 1 10-4l-31-13q-20-9-29-7l16 7 12 9-46-17-46-7q8-7-12-11l-24 3 24 8q-19 9-50 11l-35 1q3 7 19 8l22 4h-13q-8-1-8 4 1 4 13 4 11-1 12 4l-30 2q-15 0-19-14m198-398q3 49-24 125-34 93-39 122 10-8 33-15l37-10 54-27 51-32 81-54V606q-24 50-27 85-3 42 24 71l3 2v501q-80 4-106 24l32 75q18 47 36 74l38 61v43l-81-66q-49-41-87-57l-79-21-81-13q-1 66 16 162l27 156q-32-1-85-55l-77-81q-75-67-164-89l-14 62q-9 40-22 54l-16-22-26 80q-40-41-101-126l-98-131q-25 119-67 217-53 121-122 180-36-142-42-398-28 8-76 57l-74 72q-63 46-197 125 11-32 13-74l-1-75-30 18q-18 13-32 16 12-43 17-94-37 7-100 52l-99 67-118 64q-73 38-123 49 58-76 110-189 35-75 80-198-47-4-126 56-89 68-125 76v-19l10-30 6-33-16-2V431l13 7q27 12 67 21l68 15 115 38q72 26 113 30-2-51-51-141-51-94-56-139 39 21 96 81l91 91 87 91q61 60 103 52 16-57 17-140l-1-145q10 16 36 100 23 73 48 97l67 53q49 35 70 55l48 5 22-67q14-46 28-62 26 60 46 73 28 19 60-38l43-107q25-70 51-98l10 69 6 70-1 86q-1 63 17 79 21 19 88-5 72-30 90-33 27 45 116-16l107-90 90-91q55-52 103-62" fill="#fff"/></svg>