<?xml version="1.1" encoding="UTF-8"?><svg xmlns="http://www.w3.org/2000/svg" xmlns:xlink="http://www.w3.org/1999/xlink" version="2.0" width="100pt" height="100pt" viewBox="0 0 2000 2000" clip-rule="evenodd" fill-rule="evenodd" preserveAspectRatio="none"><path d="M649 257l128-18 369-35q201-14 362 18l120 34-159-3-291 9q-111 9-278 53-84 21-146 41L649 257" fill="#fff" fill-opacity=".8"/><path d="M907 387l128-18 369-35q201-14 361 18l120 34-159-3-291 9q-110 9-277 53l-146 41-105-99" fill="#fff" fill-opacity=".8"/><path d="M1331 1452q0-60-50-138l-31-61q-9-23-37-64l-28-48-30-46-3-7 18 47 27 62q28 53 35 85l23 98q11 53 11 99l8 171-2 76q-1 17-10 31l-22 24-43 47-20 20q-13 13-15 21h-4l-32 26-76 74 21-16 20-19 41-30q11-1 25-12l22-19 42-37 37-35 18-15 14-19q13-2 21-31l9-40 8-44 4-44 1-79-2-77M1047 990l-36 3-67 42-12 8 48-3q23-3 73-1l69-3 79-5q20 2 28-8l19-24 5-2h-24l-70 8-73-5-39-10M706 766l-20 3-17 11q-13 11-37 18l-6 2-5 9 16 7 16 7 25 22q48 36 75 47l38 13 37 14q47 25 65 28-50-24-74-40l-33-22-29-25-15-26-19-24q-4-13 9-22l23-16 10-4 9-6-22 5-46-1M686 514l-14 11q-10 5-14 10l-46 6-53-7 54 40 29 7 29 3-22-23h28l8-19 6-22v-5l-5-1M560 389h2q2-9 26-10h33l-1-31q0-22 7-26l-46 15-36 24q-14 8-44 16-25 9-32 32l-10 10-3 2-3 2q-2 2-5 11l39 11 41-1q21-7 32-55m26-126-10 5-8 12 39 5 41-1q-8 8-41 13l29 16q10 34 41 63l27 22q17 13 24 25 7 14-4 55l58 89 60 27q82-32 111-31 18 1 49 33l28 32 100 13 101 73 100-54 232-22 51-43q7-9 36-24l28-13 36-26 38-8q4-33 15-32 7 0 12 26l4 25 12-18q13-19 19-19 6 0-5 40l-11 39-48 48-21 19q-17 13-30 14l-80 13-201 93q-56 26-129 34-78 8-128-10l-88-34 34 52 121 126q14 14 46 71 32 57 43 68 15 15 63 111l76 156q30 64 72 218 42 155 37 187-4 23-125 113-89 66-197 136H674l124-111 182-199 6-27 1-34q-4-5 6-54l15-75q3-25-14-83-15-54-29-78-12-20-24-86-12-62-11-87 0-18-18-65l-19-43-31-45q-37-47-62-53-40-11-154-88l-8 35-27 81-50 124-2 24q-4 28-15 48-17 31-204 275l-46 71q-17 25-71 40-47 55-58 52-10-3 1-31-40 52-46 50-7-1 0-35-15 23-27 19-13-3 1-40-29 0-28-11 0-7 22-31l21-23 65-59q7-8 44-19 37-12 47-22 13-14 70-122l70-139q11-27 38-54l25-22 26-116 19-107-2-104q-1-16 11-34l11-16q90-30 95-49 5-19-24-44l-61-59-35 16-40-29-46-69q-24-41-21-76 5-45 26-61l1-4 31-27 37-21q57-23 90-20" fill="#fff"/><path d="M1876 984l126-4v57l-94 5q-111 9-278 53-84 21-146 41l-105-99 128-18 369-35" fill="#fff" fill-opacity=".8"/></svg>