<?xml version="1.1" encoding="UTF-8"?><svg xmlns="http://www.w3.org/2000/svg" xmlns:xlink="http://www.w3.org/1999/xlink" version="2.0" width="100pt" height="100pt" viewBox="0 0 2000 2000" clip-rule="evenodd" fill-rule="evenodd" preserveAspectRatio="none"><path d="M638 1152l24 2q45 3 91 19l81 20 73 26 77 18 47 10 35 9-43-8 64 16q61 15 98 33l104 48 52 21 59 15 35-6 35-7 42 2 42 2q37-1 68 18 29 18 48 51 14 25 12 60l-6 63 2 29q-1 15-10 24l-21 13-24 10-42 15-23 1-20 8-41-1-29-32q-30-32-76-50l-88-27-89-23-90-17-109-21-109-26-131-33-130-34q194 41 337 47l-47-13-48-17-66-17q-41-10-64-24l161 14 87 4 29 2 28-1-320-63-63-11q-42-8-56-19l245 33 244 36q-35-18-93-35l-98-27-83-27-84-23-71-15-70-18 98 5h97q61 5 176 43-9-10-40-20l-47-14-89-31-230-43 7-3h1q17-9 27-11h24" fill="#fff" fill-opacity=".8"/><path d="M1266 421l-46-2-45 4-44-1 6-1-47-2-48-4q26-16 80-28l85-19-86 2-54 7-55 1-3-7 97-20q52-4 201 4l138 10 34-15 34-18 34-10 34-9q59-22 112 26 18 16 25 45l12 51 9 23q4 12-2 22l-13 16-17 14-30 23-18 7q-6 3-14 12-15 15-33 9l-32-17q-33-19-74-21l-78 2-178 17-161 23-42 8-1-12q59-27 126-46l-41 2-40-8q22-8 69-17l69-18-61 3-63-1 48-16 47-20 56-11 55-10-45 2" fill="#fff" fill-opacity=".8"/><path d="M574 1044l-7 6-62 15-68 2-49 8H368l-18-10q-21-10-42-37l-37-48-38-30-41-26-22-19-25-17q-8-5-23-8l-24-7q30 16 55 45 28 31 37 62l4 1 22 31 27 28 20 38q13 26 24 34l16 69q11 41 5 71l4-1q11 1 63-68l50-60q21-27 29-30l25-5 24-4q41-14 64-34l7-2v-4M822 883q-20 7-30 27l-15 39-16 38q-12 21-23 25l22-4 41-32q25-20 34-42h3l5-12 29-3 26-8q14-9 24-44 1-39 10-53l21-15 15-21 6-2 5-20 2-12q-7 15-34 27l-38 22q-13 12-20 40-5 21-25 33l-42 17M702 793q9-22 24-21l1 15-10 10q12 1 6 16l6 4 14-14q8-6 20-6v-5q10-45-15-61l-34-2-24 27q-24 27-25 61-1 25 11 68l20 11q-12-40-5-69l11-34M393 584q38-85 90-133 73-67 115-90 60-33 131-25 78 8 160 71 84 64 106 136 19 63 19 105l-8 50-13 54q98-16 190 0l114 28 112 37q68 22 102 35l62 5q22-6 58-29 23-15 53-12l57 8 34 2 31 8 14 21 10 26 25 44q16 30 16 47l2 7q-22 15-27 44-4 21-3 68-15 1-36 14l-35 19-80 3q-18-3-31-13l-25-22q-28-25-74-40l-81-25q-35-13-80-15l-82 2-60 7-60 5q-57 0-121-23l-65-27q-33-10-69 8l-65 22-84 6q-47 7-75 32l-17 14-19 1-19-6-18-3-49 47q-52 52-68 74L359 1405l-92 108L9 1724l-5-61V709q52-28 79-20l82 17 51 8 149-54q9-33 28-76" fill="#fff"/></svg>