<?xml version="1.1" encoding="UTF-8"?><svg xmlns="http://www.w3.org/2000/svg" xmlns:xlink="http://www.w3.org/1999/xlink" version="2.0" width="100pt" height="100pt" viewBox="0 0 2000 2000" clip-rule="evenodd" fill-rule="evenodd" preserveAspectRatio="none"><path d="M1316 1687q-3 30 2 41l23 36 31 45 31 46 6 18q26-28 29-49 2-15-4-37l-10-36-15-45-14-45-2-55-1-55-8-56q-5-35-4-57l3-39q2-22-3-39l-4-38-5-40-10-18-27 1q-17 19-12 43 8 45 6 91l-11 89q-4 32-2 78l4 77-3 44M749 1265l-27-1-8 14-5-6 3 33 6 33q5 38-2 114l4 55 3 55-10 47q-9 31-11 46l-7 37q-4 22 0 37 4 19 37 49l33-50q7-14-2-39-11-33-11-41-1-15 4-41l5-41-5-129q-4-79 5-129 5-24-12-43M970 192q32-16 71-14 40-2 72 14 35 17 51 52 10 18 19 67 10 53 4 69 34-1 14 70l-26 84q1 11 8 17l14 13 18 33q13 30 43 36l58 5q78 10 133 58 16 14 25 42l12 48 13 53 11 52q6 55 26 162l14 46 18 45 34 96 6 24 8 41 7 94 1 94-1 97q1 29-13 107-12 72-4 104l5 23-15 18q-13 11-13 19l5 25 3 48 7 28 4 27-4 14H615l3-7-24-6-10-19-8-23-17-17q-10-10-12-22-2-10 2-27l4-28-2-48 3-26-14-17-17-16 2-24q7-34-13-103l-6-46-1-48-10-96q-5-36-2-89l2-89 34-143 18-56 26-162q2-20 11-52l13-53 12-48q9-28 25-42 54-48 133-58l58-5q30-6 43-36l18-33q2-3 14-13l8-17-26-84q-20-71 14-70-6-16 4-69 9-49 19-67 17-35 51-52" fill="#fff"/><path d="M1737 1130l47 320-3-497-44 177m-2-353 29 1V7q47 11 87 33V779h22v71h104v47H1873v42l64 206-129 565-131-556 67-214-3-43H1624V850h115l-4-73" fill="#fff"/><path d="M204 953l-43 177 46 320-3-497M155 777l29 1V20Q219 7 271 0V779h22v71H397v47H293v42l64 206-129 565L97 1154l67-214-3-43H44V850H159l-4-73" fill="#fff"/></svg>