<?xml version="1.1" encoding="UTF-8"?><svg xmlns="http://www.w3.org/2000/svg" xmlns:xlink="http://www.w3.org/1999/xlink" version="2.0" width="100pt" height="100pt" viewBox="0 0 2000 2000" clip-rule="evenodd" fill-rule="evenodd" preserveAspectRatio="none"><path d="M240 7l59-7L426 827q-20 5-34 20l-20 22L240 7" fill="#fff" fill-opacity=".8"/><path d="M508 0H709l76 649q-82-12-141 25-28 17-52 44L508 0" fill="#fff" fill-opacity=".8"/><path d="M962 0h108V218q-23-15-52-14-28 0-56 15V0" fill="#fff" fill-opacity=".8"/><path d="M1324 0h202l-98 693q-31-23-94-42l-99-28L1324 0" fill="#fff" fill-opacity=".8"/><path d="M1635 885q-17-30-47-55L1801 22q29 10 55 27L1635 885" fill="#fff" fill-opacity=".8"/><path d="M860 1057q-20 2-42 10l-41 16-36 7-33-12q-51-31-57-28l2 3-17-1q2 19 15 34l28 28 14 16q6 7 18 8h27l27-2 44-7 37-23 32-29 38-28-56 8m330 493 28-13 32-5-104 6-109 9H920l-61-5-59-2-8 5q-6 2-10 10 33 24 83 30l89-1 91-2 94-7 24-14 27-11m-163-432-39 11-23 1-22 3-1 5q-14 7-21 34-7 28 5 40-7 9-28 7l-32-5-8-7 3 7h5q27 21 62 28 21 3 29 12l4 17 1 18q-9 1-26 12l-25 16 61 13-1 19-2 19 10 37 15 79 6-67q4-45-6-64 48-18 67-32-6-3-31 0-21 2-25-9l1-27q2-16-6-27l47-15 29-5 28-6q-37 4-93-33l-16-16 6-22q14-29 26-43m265-30q11-27 35-51l-53 28q-24 10-72 16l-81-4-44-12-44-12v12q6 8 23 17l26 16 12 13 12 9 19 2h18l74 11q43 0 59-33l5-1 1-5 5-5 5-1M1103 690q12-18 23-66l-14 31q-10 3-23 15l-34 9-35 4-15-1-12-7q-18-13-36-38l-31-43 6 18q7 5 11 31l1 36q15 8 29 31l23 35 15 12 18 5 16 2 10-13 23-30 25-31M970 419l-15 14-16 16 7 5q9 5 6 14l-10 10 54-9v5l29-11 32-1 22 14q15 12 27 11l-14-21 46-7-1-25-54-2-58 5-26-13q-17-10-29-5m-66-64q7-44 70-58l62-5 46 15q50 18 72 37 23 18 21 60l-6 39 19 15-15 85-22 14-4 71 7 73 126 59 64-2q74 2 120 24 46 23 65 90l9 62 51 42q53 46 60 65l92 221q14 34-12 185l-29 143-74 125-48 23-44 29-40 92-30 4 4-63 55-107-7-55-48 33q-37 0-52-18-9-12 29-42l41-28q48-15 81-33 21-12 26-28v-13q0-107-15-159-9-32-9-82l2-43-30-21q-37-23-69-34-52-19-67-52l-19 41-32 55-35 35q-20 25-17 46 4 33-37 151v115l41 188 37 251H993l-8-48-7 48H611q7-59 29-139l105-289q15-63 0-96-9-21-19-86l-7-62-9-38q-14-43-42-69l-45-51-11-22-21 19q-24 24-38 47-14 23-58 36l-41 8-52 111-122 236 45 33 36 52-14 44-33-19v21l-4 24v10l4-17-4 49 1 18 6 31 5 32-20 3-6-20q-6 26 6 35l4 17q3 10-2 16l-13 2-9-10-13-50-11-50-70-188q-11-27-3-97l36-205 63-118q59-137 85-181 16-27 63-57l44-24 33-60q43-69 89-110 46-41 104-34l50 16 144-56 4-70-33-166h22q4-51 15-121" fill="#fff"/></svg>