<?xml version="1.1" encoding="UTF-8"?><svg xmlns="http://www.w3.org/2000/svg" xmlns:xlink="http://www.w3.org/1999/xlink" version="2.0" width="100pt" height="100pt" viewBox="0 0 2000 2000" clip-rule="evenodd" fill-rule="evenodd" preserveAspectRatio="none"><path d="M1802 739q14-79-33-167-50-88-170-141-83-37-218-62-282-53-682-59-387-6-699 33Q3 193 88 102 178 9 333 9h722q52 15 100 35l217 84q136 55 224 104 251 140 301 343l-1-2 1 3 3 13q44 219-125 358 89 190-207 377-215 135-436 184 226-111 358-198 246-163 207-309-114 66-296 112 42-24 104-86 56-56 113-83l20-10q-87-46-291-71L942 845q-219 3-362 33-157 33-162 87-6 68 152 113l197 40q-173 9-242-2-168-25-168-140 0-122 183-191 161-60 420-66 242-5 459 37 226 44 305 117 64-60 78-134" fill="#fff" fill-opacity=".7"/><path d="M1531 1751l-12-19-81-58q-53-36-70-71l-29 3q-1 30 18 80 20 52 20 80l-4 45q-2 25 3 44l35 88 15 7h-1l6 3-5-3 68-3 67-9 133-13 48 2 46-4-52-29-35-35-30-38-40-18-50-11-26-4q-9-3-16-16l-8-21m-261-361-14-27q-6-36-19-48l-27-8q-18-2-22-11l-6-1q-7-15-22-22l-29 2q-5 3-12 16l-13 19-22 24v151l21 11q28 16 61 49 31 29 51 16l21-24 21-26 19-21 18-23 2-27-10-24-18-26m153-57 2-29q0-17-7-25-23-26-40-26-5 17-37 33-31 16-35 32-4 21 21 52 25 32 46 34l-5 7 5 28q34 4 44 27l27-6 25-11v-1l13-4q-23-12-26-24-7-5-6-24l1-27q-3-28-28-36m-157-63 57-5 1-4q11-1 16-23l3-32-89-21-38-10-39 1q-6 25 5 51 12 27 34 36l5 7h-6l25 5 26-5M1022 424q-9-9-22-9-13 0-22 9-9 9-9 22 0 13 9 22 9 9 22 9 13 0 22-9 9-9 9-22 0-13-9-22M978 249q-9 9-9 22 0 13 9 22 9 9 22 9 13 0 22-9 9-9 9-22 0-13-9-22-9-9-22-9-13 0-22 9M794 1623l-9-37q-9-24-21-26-7-1-38 15l-18 5q-11 3-15 10-10 16 1 37l17 33 20 3 43-7q21-3 20-33M368 1951l55 5 64 8 62 6-7-19q-3-8 2-20l16-19 19-16q20-16 20-26l-12-33q-15-37-17-101l-2-106-17 15-14 18-32 72q-10 21-43 37-35 16-44 30-22-1-38 24l-20 45q-13 29-56 82l12 2 52-4m426-681-5-7q-11-1-23 10l-20 17-45 20q-69 35-72 50-3 14 14 27l28 18 33 33q20 27 84 67 15-41 50-93l23-32 15-12q7-7-4-13l-1-7q-16-7-37-43-18-32-40-35M595 541V223l145-17 132-11 22-23h16V156q0-9 45-13l45-2 45 2q45 4 45 13v16h15l23 23 132 11 145 17V541l-270 19-22 29-17 143-12 134v195l73 9q100 20 104 52l-44 21q24 19 76 34l83 21 96 26q58 20 86 46-25 0-71 18 9 27-8 49l1 7-3 39-1 12 3 6 38 32 99 50q21 44 83 90l46 35 49 33-3 6q-20 4-20 20l-10 8q-25 5-38 18-10 10-10 16l8 19q10 26 26 38l44 19 50 13 50 13 44 22 11 14-41 49q-94 96-250 96H1353l-4-9q-12-22-53-65l-36-49q-22-33-39-47-5 7-6 25l-4 26-16 20q-9 10-8 25l14 31 18 31 3 12H346q-157 0-253-96l-12-12 24-16 14-20q23-9 31-57 11-66 13-69 10-21 27-28l41-11 42-9q31-7 36-16l7-1q7-19 21-28 11-7 37-14l36-6q22-6 21-24l-6-16-9-16q-2-25-8-35l-22-26q-11-16-9-36 22-3 52-19 34-17 45-34-55-35 15-57l96-41q29-14 83-29l83-26 1-7q23-6 13-25l-23-25q20-12 60-28l59-28 56-32V866L904 732 887 589l-23-28-269-20" fill="#fff"/></svg>