<?xml version="1.1" encoding="UTF-8"?><svg xmlns="http://www.w3.org/2000/svg" xmlns:xlink="http://www.w3.org/1999/xlink" version="2.0" width="100pt" height="100pt" viewBox="0 0 2000 2000" clip-rule="evenodd" fill-rule="evenodd" preserveAspectRatio="none"><path d="M961 1333q0 16 11 27 12 12 28 12 16 0 28-12 11-11 11-27 0-17-11-28-12-12-28-12-16 0-28 12-11 11-11 28m0-219q0 16 11 27 12 12 28 12 16 0 28-12 11-11 11-27 0-16-11-28-11-11-28-11-16 0-28 11-11 12-11 28m-468-60 182-22 164-13 29-29h19V970q0-11 57-16l56-3 56 3q56 5 56 16v20h20l28 29 165 13 182 22v398l-338 24-27 36-21 179q-16 129-16 167l1 136H897V1858q0-38-16-167l-23-179-28-36-337-24V1054" fill="#fff"/><path d="M1438 403q39-90 122-110-57 42-86 108-30 65-24 135 6 63 59 143 65 99 78 134 19 50 20 103 0 49-15 92l-5 11q-19 50-60 77 50-78 0-193-69-124-87-184 37 134-50 208-20 18-68 53-37 35-38 74l-16-27-20-30q-13-33-13-77-1-85 34-244-43 132-158 215-57 41-105 58-3-17-38-37l-78-42Q772 796 740 653q-19 65 25 191 39 111 3 156l-30 27q-23 21-23 27-1-41-42-78l-72-57q-75-71-42-198-18 60-86 182-50 115 0 193-50-34-70-102-17-60-6-126 9-52 45-111l65-101q56-90 37-195-19-105-104-168 85 21 125 115 26 63 35 176 12 144 28 203 30 112 106 169-46-85-63-152-23-89-3-163 13-46 63-127 50-81 63-127l-20 99q-9 57 1 99 11 48 49 62 40 15 79-16 22-16 10-51l-27-55q-30-63-36-103-9-56 15-117 16-44 57-106-38 105-12 179 13 37 49 38 34 1 54-31 39-61 39-187l-2-79q-6-46-26-74 92-8 123 150 14 73 1 142-10 51-43 136-33 84-7 137 14 30 44 39 31 10 56-12 41-35 33-120l-25-130q13 47 68 136 52 84 62 137 23 124-70 296 78-58 107-175 12-48 28-210 10-107 37-168" fill="#fff" fill-opacity=".8"/></svg>