<?xml version="1.1" encoding="UTF-8"?><svg xmlns="http://www.w3.org/2000/svg" xmlns:xlink="http://www.w3.org/1999/xlink" version="2.0" width="100pt" height="100pt" viewBox="0 0 2000 2000" clip-rule="evenodd" fill-rule="evenodd" preserveAspectRatio="none"><path d="M1993 681l-193 51-17 3-37-5-37 7-104 26q-60 16-101 34l-116 51-38 15q-24 10-32 21l33-378q1-7 58-23l69-18 27-7q20-6 20-13l-1-9 4-5 465-124V681M1223 229l32 9 17 278q-5 1-1 160l5 179q2 104-9 363l1 26-7 21-279 101 20-59V337l172-78-200 44-183-28 151 62v968l40 61-32-7-32-13-121-39-49-13q-25-9-28-31-10-76-24-309-11-169-3-367l12-239 1-50q2-40 9-42l281-75q16-4 67 14l125 27 35 7" fill="#fff"/><path d="M1689 1163l84 21-208 64 82 77-8 24 137 77-490-70 366 185-385 26 40 162-78 30 178 140-451-140 206-70-146-186-234 121 97-175-183 74-508 151 127-100 264-112-121-89 146-48-427-47 249-34v-57l158 27-70-57 127 7 32 165 310 114 320-120 34-221 164-45-131 99 11 20 308-13" fill="#fff" fill-opacity=".8"/></svg>