<?xml version="1.1" encoding="UTF-8"?><svg xmlns="http://www.w3.org/2000/svg" xmlns:xlink="http://www.w3.org/1999/xlink" version="2.0" width="100pt" height="100pt" viewBox="0 0 2000 2000" clip-rule="evenodd" fill-rule="evenodd" preserveAspectRatio="none"><path d="M883 1153q16 12 38 6 22-5 36-25 14-20 12-43-1-23-18-35-16-12-37-6-22 6-36 26-14 20-13 43 2 23 18 34m244-49q22-5 36-25 14-20 12-43-1-23-18-35-16-12-37-6-22 6-36 26-14 20-13 43 2 23 18 34 16 12 38 6M862 650l292-106-320 60-121-54 90 91 19 155 40-146m196-212q35 13 73 36 53 33 53 56v7q1 28 12 79l16 77 7 84q6 62 22 73l39 30 18 25q11 15 14 190l-15 7-17 4 1 15-1 14-9 14-10 13q-6 7-5 23l1 25-4 276v15l-3 9-122 36-81 20-100 32q-60 16-98-2-103-47-126-143-9-36-13-86l-5-87-210 40q-129 24-210 46L0 1445V1233l199-59q83-26 262-99 184-76 175-82-3-2-89 19l-116 31-269 80-81 20-81 20v-46l159-49q184-53 347-113l80-26q48-18 68-45l13-16 4-20-3-30-4-30q-3-37 1-111l7-84q-3-55 2-64 0-7 118-36l127-31 69-22 70-2" fill="#fff"/><path d="M1887 835l-491 715 266-658 225-57m-61 501-387 258 275-310 112 52M1450 373l-46 464-65-410 111-54M1599 74l185 229-428 1194L1599 74" fill="#fff" fill-opacity=".8"/></svg>