<?xml version="1.1" encoding="UTF-8"?><svg xmlns="http://www.w3.org/2000/svg" xmlns:xlink="http://www.w3.org/1999/xlink" version="2.0" width="100pt" height="100pt" viewBox="0 0 2000 2000" clip-rule="evenodd" fill-rule="evenodd" preserveAspectRatio="none"><path d="M1427 385q39-90 122-110-57 42-86 108-30 66-23 136 6 62 58 142 65 99 78 134 19 50 20 103 0 49-15 92l-5 11q-19 50-60 77 50-78 0-193-69-123-87-183 37 133-50 207l-68 54q-37 35-38 73 0-5-16-27l-20-29q-13-34-13-78-1-85 34-244-43 132-158 215-57 41-105 58-3-17-38-36l-78-42Q761 779 729 636q-19 65 25 191 39 110 3 155l-30 27q-23 21-23 27-1-41-42-78l-72-57q-76-72-42-198-17 59-86 182-50 115 0 193-50-33-70-102-17-60-5-126 8-52 44-111l65-100q56-91 37-195-19-106-104-169 85 21 125 116 26 63 35 175 12 144 28 203 30 112 106 169-100-185-66-315 13-46 63-126 50-81 63-127l-20 98q-9 57 1 99 11 48 49 62 39 15 79-16 22-16 10-51l-27-54q-30-63-36-104-8-56 15-117 17-45 57-106-38 105-12 180 13 36 49 37 34 1 54-31 39-60 39-187l-2-79q-6-46-26-74 93-7 123 151 14 72 1 142-10 50-43 135-33 84-7 137 14 30 44 39 31 10 56-12 41-34 33-120l-25-129q13 46 68 135 52 84 62 137 23 124-70 296 78-58 107-175 12-48 28-210 10-107 37-168" fill="#fff"/><path d="M485 1139l358-29-13 497-317-17q-12-11-24-50l-10-36 6-365" fill="#fff"/><path d="M1034 1415q-18-18-43-18-25 0-42 18-18 17-18 42 0 26 18 43 18 18 43 17 25 0 42-18 18-17 18-42 0-25-18-42m-73-223q-18 17-18 42 0 25 18 42 17 18 42 18 25 0 42-18 18-17 18-42 0-25-18-42-17-18-42-18-25 0-42 18m147-113 6 25 9 507-255-1 16-503 3-24 28-28 158-3 35 27" fill="#fff"/><path d="M1104 1871l-7 12-211-2-17-240 250 2-15 228" fill="#fff"/><path d="M1532 1477q0 29-35 111l-339 20-8-500 377 25 5 344" fill="#fff"/><path d="M1939 1686l-519 259 310 35-71 6H349l-58-4 306-31-483-182 545 157L35 1312l694 615-93-238 153 215-29-213 89 223 259 2 169-235-60 223 184-210-96 222 673-572-592 567 553-225" fill="#fff" fill-opacity=".8"/></svg>