<?xml version="1.1" encoding="UTF-8"?><svg xmlns="http://www.w3.org/2000/svg" xmlns:xlink="http://www.w3.org/1999/xlink" version="2.0" width="100pt" height="100pt" viewBox="0 0 2000 2000" clip-rule="evenodd" fill-rule="evenodd" preserveAspectRatio="none"><path d="M1691 416q-3-48-15-64-12-17-331-120l-319-99q-42-7-357 95Q356 331 341 357q-10 21-18 219l-4 243q-6 424 330 817 114 130 238 230 102 82 122 83 17 1 116-80 115-93 225-215 320-354 344-682 12-168 0-474l-3-82M1127-2h33l35 109L1318-2h16l12 159L1521 49l10 178 175-101q-4 166-1 168l150 21-112 138 119 95-115 80q0 8 137 123l-140 81q0 10 148 124l-177 131q-1 8 27 94l29 85-131 40q-2 4 35 86l37 81-181 24q-2 3 23 87l25 83-170-12q-4 6 0 107l5 101-170-38q-6 4 3 173h-29q-123-45-133-38l-14 38H960l-23-45-144 45H773l-21-193-21-20-177 37 9-223-21-28-197 73 68-279-126-9-124-6 152-246-273-67L280 889 48 781 274 666 85 529l193-63q1-8-49-87l-61-90q22 6 164-4l6-148 145 91L537 59 659 164 719 19l144 88L909-2h57l60 73L1127-2" fill="#fff" fill-opacity=".8"/><path d="M1025 629q23 0 39 16 16 16 16 39 0 23-16 39-16 16-39 16-22 0-39-16-16-16-16-39 0-23 16-39 16-16 39-16" fill="#fff"/><path d="M1014 833q23 0 39 16 16 16 16 39 0 23-16 39-16 16-39 16-22 0-39-16-16-16-16-39 0-22 16-39 17-16 39-16" fill="#fff"/><path d="M1508 906l-4-314-345-23 7 456 310-18q32-75 32-101M903 1056l27 367 2 321 91 56 79-56 4-337 25-350-228-1M555 964q11 35 23 45l289 16 12-454-327 26-6 333 9 34m534-447-145 4-25 25-3 22-15 459 233 2-8-463-6-23-31-26M719 369q267-91 304-85l269 85q272 88 280 104 12 20 10 178l-3 143q-9 290-23 307-10 45-65 153-64 126-108 179l-1 4q-61 104-203 240-135 129-166 129-362-245-479-543l-49-105q-30-119-45-368-14-254-7-277 6-22 26-35 37-31 260-109" fill="#fff"/></svg>