<?xml version="1.1" encoding="UTF-8"?><svg xmlns="http://www.w3.org/2000/svg" xmlns:xlink="http://www.w3.org/1999/xlink" version="2.0" width="100pt" height="100pt" viewBox="0 0 2000 2000" clip-rule="evenodd" fill-rule="evenodd" preserveAspectRatio="none"><path d="M358 945l8-436 426-34-16 593-376-21q-25-20-42-102" fill="#fff"/><path d="M918 839q-21 21-21 51 0 29 21 50 22 21 51 21 30 0 51-21 21-21 21-51 0-29-21-50-21-21-51-21-30 0-51 21m137-216q0-30-21-51-22-21-51-21-30 0-51 21-21 21-21 51 0 30 21 51 21 21 51 21 30 0 51-21 21-22 21-51M878 410l189-5 41 33 7 30 11 605-304-1 19-601 4-28 33-33" fill="#fff"/><path d="M823 1109l298 2-31 456-7 422H861l-1-401-37-479" fill="#fff"/><path d="M1168 1069l-10-596 451 30 5 410q0 34-41 132l-405 24" fill="#fff"/><path d="M183 402q59-108 125-160-43 79-71 182-25 90-37 187-24 178-16 381 9 187 53 377 46 199 115 373-52-53-119-162-53-92-86-184-73-193-82-399-10-217 43-405 29-106 75-190" fill="#fff"/><path d="M1710 424q-30-108-71-182 66 52 125 160 45 81 76 190 51 187 43 405-10 206-82 399-35 95-87 184-62 104-119 162 73-184 115-373 44-190 53-377 8-209-15-381-14-101-38-187" fill="#fff"/></svg>