<?xml version="1.0" encoding="UTF-8" standalone="no"?>
<svg xmlns:ffdec="https://www.free-decompiler.com/flash" xmlns:xlink="http://www.w3.org/1999/xlink" ffdec:objectType="shape" height="100.0px" width="100.0px" xmlns="http://www.w3.org/2000/svg">
  <g transform="matrix(1.0, 0.0, 0.0, 1.0, 0.0, 0.0)">
    <path d="M100.0 0.0 L100.0 100.0 0.0 100.0 0.0 0.0 100.0 0.0" fill="#000000" fill-opacity="0.003921569" fill-rule="evenodd" stroke="none"/>
    <path d="M64.65 27.15 Q65.2 25.4 65.75 25.1 L66.7 24.95 67.7 24.95 Q67.6 23.5 68.65 22.95 L70.4 22.8 69.9 18.3 Q69.7 15.35 71.05 14.5 72.25 13.7 73.5 14.95 L75.25 17.2 78.05 20.85 84.35 15.9 84.3 15.6 Q83.95 15.35 84.3 15.3 L89.45 11.3 89.65 11.3 89.65 11.45 91.2 13.45 92.8 15.45 92.8 15.6 92.75 15.6 90.2 17.7 87.55 19.65 Q87.3 19.75 87.05 19.45 86.9 19.1 86.7 19.35 84.6 21.25 80.55 24.0 80.35 24.45 80.95 24.95 81.35 25.4 81.25 25.75 L80.55 26.3 Q79.8 26.6 79.55 26.95 79.35 26.15 78.7 26.3 77.2 27.25 76.6 27.95 78.55 30.3 79.75 32.2 L77.65 33.65 75.6 30.9 Q70.55 35.05 68.9 37.4 67.2 39.6 62.15 43.7 L61.55 43.2 60.9 42.8 59.55 43.9 Q58.9 44.55 59.0 45.45 59.05 46.45 60.6 48.4 62.0 50.15 61.85 51.0 L68.15 59.5 65.15 63.3 61.8 67.0 55.4 58.3 50.7 61.45 Q46.7 64.0 46.6 65.2 46.55 66.2 47.35 66.9 L48.7 68.25 Q47.95 69.15 48.35 70.95 L49.1 74.1 50.05 74.85 Q50.6 75.25 50.7 75.9 49.25 77.45 47.0 78.05 L43.1 79.0 Q42.4 78.55 42.2 77.45 L42.0 75.45 41.1 68.95 Q40.45 65.2 39.45 63.25 L37.05 61.7 Q35.5 61.7 33.6 64.6 L30.9 69.2 Q28.75 72.9 26.6 78.7 24.35 84.45 22.45 87.9 21.55 88.25 21.3 88.75 L20.85 88.75 19.65 88.45 13.0 80.95 Q8.95 76.3 7.25 72.95 L7.2 72.0 7.9 70.25 30.95 54.55 31.7 53.15 Q32.25 52.4 32.15 51.8 31.85 51.4 31.45 51.8 30.95 52.2 30.65 52.0 L29.6 49.5 Q28.95 48.15 29.6 47.45 27.7 47.25 27.4 44.5 27.8 43.45 29.35 42.65 L32.0 41.35 38.7 37.45 Q42.85 35.0 44.85 34.1 46.95 33.3 48.35 34.45 L50.6 37.4 Q52.45 36.6 52.35 34.9 53.5 34.35 55.3 32.9 L56.35 33.25 Q56.45 31.9 57.25 31.3 L59.15 31.15 Q59.15 30.05 59.95 29.4 60.8 28.75 62.0 29.15 62.1 27.15 63.35 27.0 L64.65 27.15 M46.55 37.15 Q45.1 36.9 43.4 37.7 L40.3 39.75 Q35.85 43.1 35.7 43.3 33.7 45.5 37.2 47.2 40.85 44.9 45.8 41.15 L47.35 40.0 48.35 38.8 Q48.55 38.35 47.9 37.8 47.35 37.3 46.55 37.15 M48.05 61.7 L47.35 61.55 Q46.85 61.15 46.3 60.1 L45.4 58.7 Q44.85 59.8 45.4 60.85 L46.7 62.25 48.45 62.05 48.05 61.7 M49.1 61.55 Q52.3 59.15 52.35 56.55 52.45 53.9 50.05 55.15 46.75 56.55 47.4 58.75 47.75 59.95 49.1 61.55 M74.6 22.05 L75.5 21.25 74.45 20.0 Q73.9 19.2 73.35 18.95 73.2 21.75 73.65 22.85 L74.6 22.05" fill="#ffffff" fill-rule="evenodd" stroke="none"/>
  </g>
</svg>
