<?xml version="1.1" encoding="UTF-8"?><svg xmlns="http://www.w3.org/2000/svg" xmlns:xlink="http://www.w3.org/1999/xlink" version="2.0" width="100pt" height="100pt" viewBox="0 0 2000 2000" clip-rule="evenodd" fill-rule="evenodd" preserveAspectRatio="none"><path d="M1583 463l22-66 4-2 56-160-1-3v-3l-5-5 9-12 11-1 6-16 11 4 3 1 13 6-5 16 15 6 11 1 9 7-11 30 5 3-18 47-14 38-3 8 1 22 3 8 10 10 5 3 1-1 1 2 6 2 12 6q0 36-12 58l10 13-14 33 7 6 1 1 23-26q7 17-2 43l11 7q11 8 32 16 4-1 12 5l-36 71-8-2-7 16q-18-4-43-24l-7-6-1 1-15 25-26 31-10 7-60 178-25 74-16 49-75 201 27 51-49 72-22 28-32-26-51-46 34 88-49 25q-21 97-34 184-12 76-17 145l14 72 11 75 8 32 14 40 27 69H628l12-22 8-8q-2-9 7-21l14-21 17-43q9-25 11-80l5-62-28-338-20-17-23-20q7-32 25-85l4-13-4 4-48 53q-16-34-36-54l-13-6-4-1-38-8-3-2q-12-7-21-31-16-41-11-52l14-13 19-13v-1l6-7-5-30q-17-86-50-204L413 720l-13-47-8-23-12-29q-16-11-39-47l-39 21-8-16-4 1-3 1-19-36-17-35q8-6 11-5l6-2 19-8 5-4-1-2-5-10q-10-24-4-44l3 3 23 29 5 9 12-9q-2-29 7-52-13-23-13-61l12-6 13-6 13-18 1-22-17-46-18-47 5-3-11-30 9-7 11-1 15-6-5-16 27-11 6 16 12 1 8 12-5 5v3l-1 3 9 24 47 136 4 2 32 93 8 5 5 7-7 6 5 18-4 8v7q9 11-1 14l-12 1q-2 53-24 117-3 10 47 86l18 38 9 21 13 30q49 116 84 175l35 53 5 6 9-11 22 15 3 6 17 28 28 24 33 18 5 16 2 4h20 11q32-3 41-13 7-8 15-55-28-59-33-97-3-34 6-67-3-23-14-47 17-1 23-37 4-41 7-51 4 22 86 5l102-28-9 8q28 13 62 36l10 7 35 25 13 9-13 1-16-3q0 20 16 86l3 14 2 65-2 7q6 39 0 57l-19 38q-15 34-1 38l27 5q13 1 19-6 15-19 34-22 15-3 39 0h4l15 2 4-5 6-3q11-6 32-10l38-14q29-25 58-73l36-72 26-67q44-124 92-190l27-33 5-6-6-13q-11-28-10-57l-10-1-4-2v-8l3-4v-7l-2-5-2-3 2-4 3-14-3-2-4-4 4-6 1-1 8-5 10-27m107-253 1 2-2 2 2 2 2-11-3 5m3 201-5 6-5 13-5 13 6 5 9-16 13-16 7-6-7-3q-7-1-13 4m-15 51h1l-5-3v13l4-10m54-26q0-10-7-17l-2 23v1l2-2-2 8 2 16 1-2 6-27M366 145q-2 4 2 11l2-2-4-9M343 351q-16 10-16 25 0 12 6 27l2 5 7-13-1-1q-9-9-7-13l12 8 15-17 9 19 11-8-5-13-5-13q-11-17-28-6m32 54 6 14q7-8 4-20l-10 6" fill="#fff"/><path d="M1696 199V137l3 63-3-1m8 155 1 38-3-8-1-22 3-8m10 277 47 1344-83 14 13-1338 15-25 1-1 7 6M1595 867l34 1123h-97l22-1000 16-49 25-74m-138 447 24 681-86 1 8-680 32 26 22-28m-154 253 16 324-8-32-11-75-14-72q5-69 17-145M640 1978l14-590 20 17 28 338-5 62q-2 55-11 80l-17 43-14 21q-9 12-7 21l-8 8m16-695v-9l4-4-4 13m-101-17 36 724H503l11-734 3 2 38 8m-40-120 1-37 5 30-6 7M413 720l23 1270H360L392 650l8 23 13 47M290 580l49 1410-85-10L268 545l19 36 3-1m-22-77 4-426 13 361-3-3q-6 20 4 44l1 16-19 8M521 737l1-125 8 146-9-21m141 279 20-822 16 832-22-15-9 11-5-6m122 102 7-516 26 520H806 786l-2-4m329-335 14-651 21 676-35-25m35 35 3 97-3-14q-16-66-16-86l16 3m5 162 5 145-27-5q-14-4 1-38l19-38q6-18 0-57l2-7m97 117 6-465 23 459-6 3-4 5-15-2h-4m157-103 9-817 27 745-36 72m154-329 2-112 4 2 10 1q-1 29 10 57l1 19-27 33m2-120 1-16 2 5v7l-3 4m1-23V506l3 2-3 14m0-26 8-369 11 336-10 27-8 5-1 1m129-64V411q6-5 13-4v9l-13 16m199 1466q-34 35-79 57l18-1343 64 1284-3 2M203 1966q-43-17-77-41L163 493l40 1473" fill="#fff" fill-opacity=".8"/></svg>