<?xml version="1.1" encoding="UTF-8"?><svg xmlns="http://www.w3.org/2000/svg" xmlns:xlink="http://www.w3.org/1999/xlink" version="2.0" width="100pt" height="100pt" viewBox="0 0 2000 2000" clip-rule="evenodd" fill-rule="evenodd" preserveAspectRatio="none"><path d="M1689 919l2 66-116 12-23 45-69 4-11 48-52-1 1 51-61 103 24 44-11 54 64 86-13 34-33 17-68-90-65-11-14-15-23 31-131 24-3-51-66 2-1 51-132-20-24-30-13 15-65 13-65 93-33-16-15-34 61-88-12-54 22-44-64-101-1-51-53 2-12-47-69-2-25-44-116-8V941l115-1 33-44 59-3 8-44 52-5 4-54 42-76-14-38 12-29-80-91 14-39 29-16 90 90 42-21 18 22 35-38 143-28 2 71 66-1-1-71 144 23 36 37 18-23 43 20 86-93 30 15 15 38-77 93 13 29-13 39 45 74 5 55 53 2 9 44 59 1 35 43 115-3m-728-5-11 56-196-5 5 60 191 5 34 55 43 27v124l50-1-5-124 42-28 32-57 191-11 3-60-195 12-14-56-57-24-1-121-59 1 3 121-56 26" fill="#fff"/><path d="M2010 694l-170 98v334l170 98v76l-236-136V754l236-136v76M1337 239V8h66V277L1049 482 694 277V8h66V239l289 167 288-167M1049 1470l354 204v318h-66V1712l-288-166-289 166v280H694V1674l355-204M10 614 310 788v409L10 1370v-76l234-135V826L10 690V614" fill="#fff" fill-opacity=".8"/></svg>