<?xml version="1.1" encoding="UTF-8"?><svg xmlns="http://www.w3.org/2000/svg" xmlns:xlink="http://www.w3.org/1999/xlink" version="2.0" width="100pt" height="100pt" viewBox="0 0 2000 2000" clip-rule="evenodd" fill-rule="evenodd" preserveAspectRatio="none"><path d="M952 1640q0 6 3 6l9-1-5-5h-7m-5-3-9 2q-4-59 0-88l-62 6-18 104 60-6 12-6v4l3-6 2-1 4 2-1 4 6-3 7 1-1-12-4 3 1-4m-113 31q-3-6-10-7 2 12 9 19l1-12m16-43 1-9q-4-1-5 5l4 4m-4 9h-5l-3-2 4-5 1-9-4 4-4 4-2-8-1-8q-5 3-3 9l4 10q-5 17 5 30l8-25m7-51q-7 1-7 4l14-1q0-4-7-3m258 146-8-1 2 7h4l2-6M857 1387l1-7h-4q-2 1-1 4l4 3m8 13-4 10-4 11 6 2 2 4q5-7 0-27m0-125-2 3 20-7h-7-10l-1 4m-1 79-5-9 3 28 6 23q9-2 5-17l-4 1-3 2 1-15-1-10-3 9 1-12m69-67-8 1q-16 0-28 12-12 12-12 28 0 12 7 22l7 39-2 4-2 3 5-1 10 24q12 7 66-20v2l10-2v-3l6-1v5l5-3 4-4-1-12-16 1 2 11-5-6v-21l10 2 9 4 1-16q-5-4-9 0l-9 2 3-1-1-5-4 2v-6q17-22 4-45l-23-18-29 2m239-275q1-6-5-5-7 0-6 4l11 1m288 280-4 3-1 5 5-8m88 26-2-5-9 2 4 4 7-1m-146-12q-6 2-6-3 1-5-3-4l-1 9 5 1 5-3M792 1844l3 3v-8l3-2q-2 9 6 6l-4-11 2-2 5-2-1 4 7-3q2-4 6-3 5-10 0-17l-9 1q9-28 1-58-6-23-28-28-59-11-84 27-8 14-10 35v37q0 17 12 28 12 12 28 12l12 2q30 1 51-21m-281 18 1-4-1-5-8 2q0 9 8 7m-54 7 2-5q-3-1-5 3l-3 1 6 1m34-7 7 6 1-12q-13 4-18 0l-3 2v11l12-1 1-6m-29-82q-5 13 2 11l1-7-3-4m117 73-1-3-2-3-12 3q-8 2-10 6l-28 1v7l2 5 1-1 3 1 4-6q0 6 7 5-2-7 2-7l3 1h3l-2 1 1 2h27 24l-3-17H586q-5 0-7 5m10-114q-14 6-22 19l-4 1q-16 5-24 19-8 15-4 31 5 16 19 24l30 3 5-1h1l1 1 10 3h4v17q19 5 26-11l15-3-3 12q-3 7 0 12l3-24q21-7 24-26 8-47-15-69-27-26-66-8m-2-53-4-4 1-1-4 5-8 1 7 5 6 5q-2-9 4-5v-3l-2-3m-65 4q0 7 3 10v-7l-3-3m16 6 6-6-6 2-6-4q-5 3-4 7l10 1m-73-5q-3 17 0 21l3-11-3-10m10 16 4 1v-9q-4 0-4 8m191-11h7q-2-10 5-44 7-31 0-46l-3 47-9 43m26-68q-1 6 3 5l3-5-2-5q-3-2-4 5m-22-51q-12-29-39-29l-57 2q-17 2-28 13-12 10-12 27 0 15 12 29-5 10-5 19 0 16 12 28 12 13 28 12l26-1 25-3v6l-4 1-3 1 5 10 2-8 8 1q5-3 9 0l4-4q1-4 6-3l3-19q28-27 8-82m88-1-49 14-5 39q-4 25 3 32 8 9 38 8l42-4-3 1-15 2-5 11q-3 7 3 9l2-4 4 4 1-7 3-4q0 5 4 6l2-11 5 3v7l12-2v-4l10 4 1-10 1-10q2 10 5 9l2-8-13-2 1 5-2 2-9 2q-3-5-9-3l5-6 11-42q7-35 2-41-10-12-47 0m-34-199q8 1 6-5l-6-5v10m-36 47 2 9 4-15-6 6m13-32q4-12-1-18-7 27-5 38l6-20m6-59-5 17 2 16 3-33m-36-10-2 5h-5l-2-6-3 101q11-1 14-13l4-18 1 4 3 2q-2-9 9-11l2-3-7-18q-3-8 7-12 6-23-3-32l-13 14-5-13m0-4 4 1 1-6q-10 0-10 4l5 1m22-34 9 9 7 12q-5-25-16-21m84 48-19-4q-8 2-9 7l-2 17-5 18-2-5q-6-1-8 5-2 5 3 7l2-2h3l-22 62 55 2 51-7 8-7 2 1q9-5 3-7 10-14 10-34l5-18-6 2-4-17-44-15-21-5M505 1445l-10 2-1-10-3-7-1 14 5 9 22-4 21-4v-5l-5-4q0 5-9 5l-12-2-7 6m-13-80 2 9 1-10-2-9q-2 2-1 10m35-62q-15 9-19 24-8 28 18 45l-9 28-3 20 11 13 20 5h3l9 2h1l62-2 3-3h19l3-4 5 6q0-3 3-7l2-7q-4-3-13 0l-13 1-1 4q6-17 3-70l3-15q0-16-12-28-12-12-28-12H572l-4-1-11-3-30 4M415 998l13-2-7-1q-6-1-6 3m267 66-1 14-7-17 8 3m2 22 2 26-8 19 6-45m26-75-1 2-6-7q-8 0-13 7l-8-7v29H629l-32-8-31-6q-5 11-7 33l-2 35q-7 57-4 76l27-2 26-3 65 4q14-29 15-52 8-21 5-33l3 2 5-4 7 1 4-23-6-1q0-11 3-18l1 6q-1 5 1 6 14-34 0-41l1 4m42 6q-11 12-11 28 0 14 10 26l-7 16q-7 20-7 53 11 5 16 21l4 29q20 0 17 27l-5 41q6 26 70 39 0-88-21-132l9-1 12-26-4-20q10-6 10-46 10-12 10-27 0-16-12-28-12-12-28-12H780q-16 0-28 12M662 711q9-32 6-57l-110 5q13 35 9 69-2 26-18 65l40 1q25 1 36-9l11-29q16-10 26-45m44-33-4-3-4-2-8 52 5-1 4-2-1 4v5l5-10-2-11-3 4q-2-14 7-15l3-16q2-10-4-9l2 4M550 375q-2 28-11 50l64 7 64-9-22-32q20 3 29-27l1 6q1-9 9-9 6-1 12 4 9-20-1-42l-12 5-4-7-2 9-1-16-63-3q-41 2-62 12l-1 52M933 984l-30 4q-14 8-19 25-5 18 4 30l6 7q-8 18 2 43l-2-42q15 19 9 29-19 34 16 54 34 21 53-13 32-57-15-118l-24-19m43-351q-16-11-34-6-7 1-13 6l-32 2q14 21 17 43l1 1q7 46-24 72h6q-9 27 17 45 27 18 49-5 28-26 31-66 5-18 3-48l-4-45-17 1M863 704q5-18-5-51-10-34-7-49l-59-8-60-2q24 37 21 80l-2 44q-4 19-21 31-2 2-1 7-17 7-11 37 4 20 16 42 12 20 15 46l5 49q16-7 42-7h44q0-38-8-78v7l-11-42-11-42q16-6 33-27l20-37m227-395-6-1-1 12 4-4 2-1-1-3 2-3m86 40q0 4 6 3l-5-10-1 7m-18-24v-5l-4 1-5 1v-6l-8 1-3 7-12-1 2-3 1-4q-5-3-11 8l-4 1-3-2 3-4-1-4-6 8-2-6v-5q-5 1-7 6l-6 6q-2-1-1-4l-2-2-1 1 1 3-7 2-2-9-5 1q-2-3-4-3-2 1 2 9l-8 1 3-6q-13 2-15-6l-4 9-4-8-3 3-6 1-3-6-5 6-4-3q-9 38-5 50-1-9 4-12-1 4 1 3h2l-1 10 32-1 8-4 11-2q0 8 3 8l9-8 18 3q21-7 23-7l3 5 2 4h6l3-4q-3 3-9-2-5-6 3-8l-2 6 9-2 3 7 1 4 3-2 1-3 3 4h3l-1 5 2 3q6-9 15-15-3-23-10-20 5 2-1 4-6 2-6-2l6-11-5-1M819 357q18-26 23-63 5-40-11-66-20-33-55-37l-71 10q56 71 54 169-9 5-5 17l5 19-6 17-10 16-13 39-15 38 52 7 51-4 1-25 7 4 11-73q2-45-18-68m148-20 3-29 2-27-54 10-53 6 5 61-1 4q-5 39 28 49 30 10 55-10 18-15 18-48l-3-16m706-64 29 12v2l-7 1-6 2-29-3-32-4-32 3-7-2q-6 0-7 4-14-6-19-5-7 26-7 34-5-4-7 0l-4-5-3-4-19 4-18 3q-1-7-9-7h-11l4-7q-4 0-6 4l-4 6-11 1-8 3-2-10q-4 4-5 0-4 3 1 10l-11-4-12 1-14-1-13-2-2 3-7-4-6 3q-4 1-6 4-3 0-3-6-5 2-3 6l-17-3-21 4-15-6q-13-3-20 4l-7-3-9 3-11-6-15-1-2 4-4 4v-6l-9 1q-6-1-9 3l-15-2-15 1q-5 0-5 7-3-6-9-4-8 1-10-4l-3 10q-3 5-3 9l6 2q-3 6-1 24l5-3 7-3 5 3 6 2 3-4 8 2 10 3 21-3 22-3 35 3 31 3 59-6 60-6 18 2q15-8 21-5v6l12-5q6 4 24 0l24 2-170 34-90 6-94 3-106 5-103 7 13 49q6 30 1 52L888 525l10 10 56-3 54-2 15 11 13 11 223 1 214 16 204 27 13 11 11 12h-57v-5l-13 5-14-3h-13l-9 13-8-13-11-1-4 6-5-3-4-4-3 19-7 16-17 2-14-1-19-2-5 4q-4-1-5 3l-22-4-20-2-3 7-9-3-10-2-28 6-2-2 1-4q-5-1-4 4-3 0-3-9-8 2-3 11l-10 1 1-12h-6q-4 1-3 5l5 4-27-2-25-5-1 5-3-4-2-5q-2 0-1 3v5l-3-2-2-4-14 3q-10-3-16 0l2-4 3-2-9 1-8 3q1-7-7-3l-10 5-4-4-4 4-28 3-26-3-4 5-4 4 5 10 2 13q-1-8-5-6-4 2-2 10l-4-15-1-14q-9-2-7 6-2 1-1-3l-2-4-2 3 1 6-5-6-3-6-11 2-8-5q-4 6-7 2l-1 6h-9l-3-8-1-8-3 4q-4-1-4 5l-3-2-3-2q-4 10-15 4-1 7 8 5-3 6-7 2l-7-9-11 2-10-3-4 6q-3 1-4-2l-4-2q-5 1-5 10-4-1-2-5l-2-5q-5 10-10 63l22-1q2-6 7-6 5 0 8 6l3-5 6 3 9 1v-2l13 1 9-5 12 1 11 2 9-2 2-7 3 8 4 8 3-11q-3 0-3 5-4-7 6-8l17-1 6-12 5 4 4 5 22-2q13-3 41 0l45-1 4-6 11 3 10 3 7-3 20 3 19-6 17 1q12-4 13 0l1-3v-3q4 0 3 2l1 5 2-7q20 8 39-5-2 6 6 5l9-6 18-1 18-1-2-1 19-1 23-6 12 1 4 16 50-11-56 15-204 31-158 9-159 8-11 28q-8 18-9 32l5 30q6 18 4 26l-10 14-11 11 18 9 11 15q71-5 172-4l168 2 149 10 140 20 52 26-3 12-7-9-11 5-6-2-5-4-37 1-31-1-16 1-20-4-8 4-5 4-2-5q-4 12-2 30h-22q-13 0-19 6l-4-2-5-2q-4 1-1 3l1 2-4-1 1-5-10-3-4 6 7-2 4 3-23 2 1-4 2-6-34 4-2 6-11-2-7-5-17 3q-10-1-12 5l-7-4q-6-2-7 3l-5-9q-5 2-2 6-3 1-4-2l-1-4-2 7q0 5-7 4-2-2 2-6l-9 2-6 1q-9-18-20 2l6 1-5 11h-7q-6-2-5 4-7-3-2-9 4-6 12-4 2-4-3-6-5-3-5 2l-24-12-17 2-7-4q-2 0-3 2l-3 3-7-2q-6-2-5 4l-4-4q-4-1-3 4l-3-2q1-3-2-3v4l-1 3h-8l-2-10q-2 2-1 6l-1 5-48-4 3 5 6 1-4 5q-4 1-5 3 0 11 8 5v15l-3-2-2-2q-5 2-4 9l-4-10-7 1q-3 0-3 4l-4-6-1-7q-2 1-1 6l-5 4 3-12 1-9-8-4-2 6-5-4-6-1q-5 1 0 7-6-1-6-10l-7 4-4-3-7 9q-5 0-3-7l-4 6-3-5-7-2-4 6-17-8-1 6-4 3-5-9 2 15-4-5-4-5q-3 0-3 5-2 1-4-2l-2-4-1 4-3 4-12-4-2 8q-1 4-4 0 6 11 1 43l8 3q-12 4-12 11l27 2q15 0 19-8 2 6 14 6l2-3 2-3v4l18-1v-6l3 4v-6l3-6 1 5q-2 5-1 9l3-3 2 3v-4l-1-4q6 11 19 9 13-2 12-16l4 2 3 3 6-15 4 6 7 2 1-10 14 1q0 12-4 13l-1-12-6 1 2 6-2 7 18 2 17-1 1-3-2-4 5 9 70-4v-4q-1-4 4-4l3 3v5l36-2 1-3v-5l14 3 15 3 31-6 34-3 26-3q15-3 23-10l8 4 33-6 41-6q1 7-9 10l-18 3-245 32-262 16-28 49 1 70 149-12 13 19 117-1q75-3 115 0l123 18 90 13q48 8 77 23l11 22q-30 16-66 20l-10 6q-28 2-43 10-15-3-15 5l17-2 26-4 1-5 10 1h10l-52 15-56 12 5-6h8l2-4 13-3q2-11 7-14l-2-5-2-5q-5 7-19 5-14-2-18 3l-13-1-11-5-3 2-1 4-20-3-19 3-1 5-60 3q1-3 8-3 6 0 6-5h-30l-1-6-44 3v-4l-5 5-49-5-46-1-3 5-6 3q5-5 0-5-5 0-7 5l-4-1-5-3q-9 12-25 8l-2 7 2 7 4-2q1-2 4-2l-1 5 3 2q-7 3-9 17-6-9-5-22-4 1-1 12l-5-4v-10l-2 4-1 3q-1-11-11-14-12-3-15-8l-2 4-1 4-3-3-3-4q-2 0-1 2l1 4q-3-1-3-6-4 2-6 11-2-6-12-8-11-2-12 6-2-2-1-6l1-7q-5 3-3 7l-9-7-2 5-1 6-6 1-4 2-4-11-21 8q-12 2-19-9-3 15-3 41l-2 43 54-2h7q6 2-1 2l-61 4q-4 1-1 11l-33 24v28l74-1 66 5 142-1q91-4 138 0l113 18 113 17 34 22q-1 14-15 17-4-5-2-13l-112 4q-4-4-12-5l-13-3-5 37-2-4-2 2q-3 0-3-6l-31 5 4 1 2 3-9 2-1-5q-1-3-6 0l2 1 2 3h-12v-9l-39 2-1 3 1 2-6-1-6-5-6 4-10 3-3-2-2-3q-2 0-1 3l-1 3-2-6-27 5-27 2-3-2-3-2-10 4-6-2h-5l-3-7-24 3-2 4q-1 3-4 2-6-12-34-9l-44-2-3 8q-3 1-4-2l-3-2-7 2q-10-3-12 4l-2-2-2-2v3l-1 3q-2 1-1-3l-2-3-2 10q1 7-5 4-1 6 4 10l3 9q-7 0-12 5v-7h-8l-4-3-7 8 1-6 1-7q5 3 15-5-1-4-5-1-3 1-3-5-3 0-4 3l-3 2q-3-13-8-15-5-1-8 3l-6 1-2 3v5l-10-9q-3 2 0 4l2 5-5 1q-3 1-3 5l-8-4 2-10-15 2q-12-1-16 5-8-7-17-7-10-1-14 7l-4-3-4-2-2 2-2-1-2 45-3 42 122-9 1-10 3 4-1 6q5 2 6-3 0-5 3-5 3 6-1 8 8-2 7-11 5 5 9-4 7 9 23 7l26-2-23 4-23 3 168 7 165 12 51 5 40 6q11 3 33 16l34 15 2 6-2 4-5 2q-2 4 2 5l3 5-15 2-3-14-28-1-33 2q-3 3 1 9l-15-1v-4l1-5q-19-8-17 21l-1-20-5 1-5 3-7-7-12 2-4 15-5 14-32 1-35 6-1-3-2-4-2 3 1 5-3-2-2-4-6 1-9 1 9 1-4 3q-5 0-4 4l-7-5q-3-4-5 1l-2-2 1-4-10-1-3 5-6 1q6-5-3 0l-1-1 1-5-29-3q-3 0-3 2l-3 3h-3l-4 2-3-4-9 3-30-4-33 2q-20 0-27-11l-12 4-14 2 7 2q-2 5-7 2l-9-4q-3 0-4 7l-5 4v-4l2-4-35-1q-17 4-24 13l4 6 3 6-9 8v-8l-14 3-12 3q0-4 7-7l8-1q5-12 10-5l-3-7-16 5-6-10-7-7-3 4-4 3q-3 1-4-2l-3-5-20 4 1 4-1 4-2-5-2-6q-6 3-5 5l-11-7q-8-1-7 8-5-7-18-7l-32 2q-4 13-4 55 0 38-8 54l-28 1 29-18-1-30q-2-16-12-24l-28-12-31-7q-18 0-25 10l-12 27-11 28q-6 17-5 29l78 1-46 13-51 8-14 16-124 9-22 1q-23-19-79-21H464l-1-9-3 4-1 4-10-1-8 2v-8q-3 1-3 8l-53 2-41 1-8-2-248 14-3-4 345-18q8-14 5-86-1-17-10-26l-46 4-43-4-40 4q-3-1-3 4-13-5-35 0l-1-4-65 2q7 2-2 4-8 2-7-4l-32 5-7-4-42 8-12-4q-8 0-10 3l-6-5q-10 1-15 5l-32-1-7-35 128-9 138-7 138-14-5-2 39-1 6-47-3-1h-3q8-8-1-18l5-20-7-24v4l-3 1q2-9-4-7 1 8-7 8l1-4-2-4-2 6-5-2-6-2-6 4h-9l1 4-2 4-4-4-1-5-27 1q-3 6 2 11l-12-1-1-5-4-3 2 5-1 4q-3 1-2-7l-27-5-2 5-4 2-22-2-23-2-19 3q-12-1-16 6l-5-6-5-4-29 6-29-1-27 2-30-1-14 3-17 6-9-5-4 9-3-8-63 2V1467l12-1q2-4 6-3l2 6v-3l1-3 221-13q-6 6 0 6l42-4 35-6 4 5 39-7 42-2-1 5 6-1q2-4 7-5l6-4v4l3 2 2-3q-1-3 1-4l25-4q19 5 21-16l-1-42-5-1 1-3v-3l2 3 2 3 1-22-3-20-2 4-3 1q6-6 0-8l-4 9-1-10q-4 0-2 3v5l-52 2-1-3q0-2-3-1l-2 3-22 1-28-1-53 2-5 4-6 1-3-6-5-1-7 6-19 3-8-4q-6-1-7 3l-3-5-1 6q-3-5-14-7l-3 3-3 3-47 3-47 2-1 6-11-9-1 5-32 3-2-2-2-2q-2 1-1 4l-2 3-6-2-3-5-12 7-2-7-18 3-19-2v6l-8 3v-5l2-3H15V1194l459-4q-5-10 8-27 12-17 7-36L15 1147v-18l176-7 106-9 56-3 11 4-1-4 1-2q3 5 9 3l9 2q-3-7 4-7v4l3 2q3-8 8-1l-1-10 6 3 2 5h22q13 0 17-6l3 6 30-3 4-11 8 9-1-8q-1-4 1-6l2 6 23-18-2-2-2-2-1-5-4-5q-1-5 4-23l1-24-5-2-6-2v-6l-6-4 1 7-1 5h-6l-2-5-9 2-11 3 1-6q-4 1-7 4l1 5q-2-1-7 4 1-3-2-3l-3-2 3-3 5 3q-1-7-11-5l-1 5-5-2v3l-1 3-2-3-1-3-4 1q-4 0-5 2-2-6-14-8l-7 1v6l-1 4-2-4-3-5-22 2-21 4-18-1-18 2v-4l-4 2-2-2-2 4-3 1q-2-6-11-4l-12 5-5-6-24 3-25 1 1-3-4 4-2 4-4-4q-6 2-8 5l-1-9q-1-5-7-4l-10 11-3-4-4-2-5 6-34 2q0-2-4-2l-4-4-13 3H117l-1 5q-4-4-8 0l-2-6-8 5v-4l-24 1-20 2-15 1q-3-1-3 3l-2 3-5-5-2 2-2 2q-3-6-10-6V854l231-5 125-3 70-16 66-16-4-28L15 803V765l41 1 10-8 10 4 10 1 3-4 4 4 2 3 3-2 1-3h28 31q-1-5 6-3l9 7 1-6 1-5 5 6 41-2 44-5 2 4 34-1 30-5q3 5 7-2l34 3q23-3 32 0l34-2 8-6 1 4 3 1 27-3 27-5 3 4 7-6 9-4V723l-4-8q4 2 4-2l-5-7q6-4 5-15l-2-20q-6 4-15-7l-4 7-4-3-5-1-7 9q-1-2 1-5l-2-4-3 1-4-2-5 4-10-5-4 6-7-1 2-3h1l-7 1-11 1-9 2-12-2-1 4-17-5-24 4-29-3-15 4q-13-2-13 4-8-9-36-4-31 4-39 0l-6 4q-4 0-6 3l-41-5-45 2-1 6-7-1-6 3-8-9q-6 8-23 10-5-4-14-5l-12-4-3 4-3 4-15-4-15 4-22-3V537l492-3q-8-26-6-83l-240 7-246 6V387h1l5 7q-2-6 3-6l3 2 3 4q0-5 4-1v-4l2-3 6 9q2-9 7-10 4 15 10 18l-4-12h4l4-2 6 10q3 1 4-2l2-3 5 8 2-13q3 10 10 10 1-7 5-9 3 8 22 10 6-5 32-11l5 5 4 4q-4-8 0-9l3 3 3 4q-1-7 5-4l7 4v-4l15-1 6 6 4-2 3-3 1 3 13 1 4-2 2-3 6 6 1-9 8 5q-1-6 7-4l9-1 2 4 1 3 1-2 1-2 5 3 5-2q-6 1 1-5l17 4 5 3q-1-7 7-7h15q-1-6 4-8l5 4-3 6 45 3q-9-5-8-13l7-4 4 10 13 4 2-4q0 5 3 4l2-2 2-3v5l18-4 1-6 27 7q14 2 24-7l2 5q4 1 4-2-6-6-2-7l5 11 5-3 4 3 1-5v-4l8 8q1-5 6-7 5-3 6 2l6-22-1-26q-3-1-3 3l-1 3-4-6v-7q-7-5-14 5 0-16-2-6 0 9-4 8l-2-2-3-2-3 2-6-2-3 5q1-4-4-3l-5 3-32-2-37-2-17 3-17 2-21 1-25-2-10 10-8-12-10 2q-7 2-8 5-4-5-17-3l-19-4-3 3-5-3-2 10-30-1q-18 0-24-7l-16-1-5 5-5-3-36 3H93l-9 5-2-6-9 3-9-2-2 2q-3-1-3 1l-3 6-2-7-39 2q3-95 29-158l349-1 71 1 20-9 19-6q8-16 2-33l-15-31 26-1L970 93l36 43-10 17q-4 12-12 16l-42 9q-30 4-42 12l53 3 56-1q2 17 6 19l552 42 41 2 37 5 28 13" fill="#fff"/></svg>