<?xml version="1.1" encoding="UTF-8"?><svg xmlns="http://www.w3.org/2000/svg" xmlns:xlink="http://www.w3.org/1999/xlink" version="2.0" width="100pt" height="100pt" viewBox="0 0 2000 2000" clip-rule="evenodd" fill-rule="evenodd" preserveAspectRatio="none"><path d="M575 958l22 20 37-36 103 32 53 103-22 25 16 28 62 11 12-199-105-79-143-28-37 18 2 105m819-123-143 28-105 79 12 199 62-11 16-28-22-25 53-103 103-32 37 36 22-20 2-105-37-18M1043 488H961l2 100-78 29-17 64-269-9 6 68 263 10 44 64 59 31-3 64h68l-3-64 59-31 45-64 263-10 5-68-268 9-18-64-78-29 2-100m-193-3 6-244-80 2q-22 16-45 31l37 45-6 86-89 72-57-35-35 27v93l25 38 158-34 86-81m538-43-57 35-89-72-6-86 37-45-45-31-80-2 6 244 86 81 158 34 25-38V469l-35-27m499 195 2 76-160 11-33 51-96 4-15 54-72-2v59l-86 117 31 50-16 63 86 99-19 39-45 20-92-106-89-13-20-18-31 35-181 26-3-59H956l-3 59-181-26-31-35-20 18-89 13-92 106-45-20-19-39 86-99-16-63 31-50-86-117V831l-72 2-15-54-96-4-33-51-160-11 2-76 158 1 47-50 82-2 11-51 73-4 5-62 61-86-20-45 18-33L445 200l19-45 41-17L626 243l58-23 26 25 48-43 197-29 2 82h90l2-82 197 29 48 43 26-25 58 23 121-105 41 17 19 45-107 105 18 33-20 45 61 86 6 62 72 4 11 51 82 2 47 50 158-1" fill="#fff"/><path d="M1169 1760v-63h101V1595h64v102h102v63H1334v102h-64V1760H1169M639 1617V1485H849V1275H981v210h210v132H981v210H849V1617H639" fill="#fff" fill-opacity=".8"/></svg>