<?xml version="1.1" encoding="UTF-8"?><svg xmlns="http://www.w3.org/2000/svg" xmlns:xlink="http://www.w3.org/1999/xlink" version="2.0" width="100pt" height="100pt" viewBox="0 0 2000 2000" clip-rule="evenodd" fill-rule="evenodd" preserveAspectRatio="none"><path d="M1632 222q19 1 45-17 24-16 36-14l-12 17-15 14 33-10 29-3-17 12q-11 6-14 14l26-6 23 2q-10 9-9 12l9 14q-54-5-94 17l-66 50-132 95-126 92q6 35 4 58l-58 48q-37 29-49 59-27 71-10 189 9 67 37 189h-50l21 325-2-1-38-6q-24-5-35-15-5-5-9-34l-6-39q-18-58-75-85-55-27-113-9-50 15-79 65-26 42-31 99l-2 42-41-20 7-322H774q56-300-53-410l-38-25-38-28-5-28q-5-17-4-30-139-99-387-258l-39 2q-21 0-32-11l26-5 27-4q0-11-26-26-21-12-9-22 9-1 13 8 12-3 0-11-17-10-13-20 15 2 32 15l30 16q4-13-9-29-10-15-4-24 13 3 28 30 13 23 38 19 10-1 6-21-4-20 12-19l14 35q7 22 4 45 30 32 90 59l97 43 31 27 31 22 105 48q66 28 117 32 20 14 43 22l46 14-21-54q-15-34-10-62 4-20 20-49 15-29 29-40 50-38 101 17 48 50 50 121l-22 33q-10 22 5 38l80-33q43-16 80-20 4-11 12-11l19-2q54-37 165-93 120-59 168-90l8-41q5-24 15-34 11-3 12 12 2 14 14 10" fill="#fff"/><path d="M363 1795l-1 8q11 23 3 38l24 38q12-92-21-124l-4 19-1 21M1748 925q27-30 68-33 58-3 100 78 3 11-2 28l5 11 5 13q1 12-12 40v5q-10 17-16 68-4 36 15 55 21 22 89 46v348l-7-6-3-2-4 27-6 24q-1 16 5 42l11 44q-15 113-87 187-96 96-254 96h-60l-1-4v4H874q-7-33-21-46l-4 19-1 21-1 6H747l2-44 1-82-5-11-11-71q-8-40-27-52l-4-1-4 26-6 24q-1 18 8 53l12 55 2 25 10 24q6 16 0 29l17 25H346q-155 0-250-96-50-50-73-112l4-20q7-44 4-80-4-45-23-63l-4 19-1 21-2 10-1-402 13-5 78-37 14-15 9-17q4-18-7-45-12-29-11-45l-14-27-8-25q-3-14 7-23-8-47 21-80 27-31 68-33 56-4 99 77v16l-1 13 5 10 5 13q0 12-12 41v5q-10 15-17 67-4 35 15 56 20 21 95 47 69 24 87 52l15 32 13-21q4-18-7-45-12-29-11-45l-14-27-8-25q-3-14 7-23-8-47 21-80 27-31 68-33 56-4 99 77v16l-1 13 5 10 5 13-12 41v5q-10 15-17 67-4 35 15 56 20 21 95 47 69 24 87 52 31 48 27 154l25-9q64-27 78-37l14-15 9-17q4-18-7-45-12-29-11-45l-14-27-8-25q-3-14 7-23-8-47 21-80 27-31 68-33 56-4 99 77v16l-1 13 5 10 5 13-12 41v5q-10 15-17 67-4 35 15 56l34 24q12-33 29-45 12-8 81-35 64-27 78-37l14-15 9-17q4-18-7-45-12-29-11-45l-14-27-8-25q-3-14 7-23-8-47 21-80 27-31 68-33 56-4 99 77v16l-1 13 5 10 5 13q0 12-12 41v5q-10 15-17 67-4 35 15 56 14 14 40 26-7-49-6-83 6-83 41-107 13-9 38-19l43-17 77-37q20-15 24-32 3-19-8-45-11-29-11-44l-13-27-8-25q-3-15 6-24-8-47 21-80" fill="#fff" fill-opacity=".8"/></svg>