<?xml version="1.1" encoding="UTF-8"?><svg xmlns="http://www.w3.org/2000/svg" xmlns:xlink="http://www.w3.org/1999/xlink" version="2.0" width="100pt" height="100pt" viewBox="0 0 2000 2000" clip-rule="evenodd" fill-rule="evenodd" preserveAspectRatio="none"><path d="M1682 638l-38 185 41 221-18 108-49 107-21 93-97 106-29 24-12 27q-22 42-58 84-33 42-92 87l-90 248-13 63H654l7-99-31-154 22-211q-6 2-9 5-11 9-21 41-9 32-22 40l-17 36-8 49q-7 61-4 109 1 17 9 41l12 40 1 52q-1 34 3 51-183 8-275 2l35-65 36-69 47-78 9-33 5-36q2-10 11-27l13-26 11-39q6-26 11-38 9-20 41-42l53-30 114-54q27-12 46-28l20-24q14-16 25-18l1 1 20-14 6 55 6 52-4 18 35 31 125-15 23-14q21-40 47-72l-5 1q4-14 21-37l25-37 32-80h5l-6-5 5-22 6-22 1-26q1-16 6-23l9 45 5 46q8 47 18 69l69-20 87-31 43-70 96-327 13-126-70-30-56-87-2-100-56-23V87l168-16 20 59 6 280 68 12v85l117 131M904 810l63 7 28 8 29 5 26-3 29 1 17 28 17 26q19 6 38 40l24 51-18-4-17-5q-6 20-2 68l-8 61-6 69q-6 46-27 57-2 15-16 25l-29 14-21 37q-5 46-28 55l-12 9q-8 5-11 10-16 9-18 22l-54 1-28 2q-15 0-23-9-9-12-19-40l-20-41-8-7-9-7-8-23-9-53q-21-76-46-110l-3 2-15 23q-2-41-15-78l-8 13q-5-33-2-45l6-54q0-21 27-62 15-24 48-49l56-40 6 4 66-8M778 1114l4 6q-14-11-22-10 5 14 24 33l17 13 14 16 59-5-11 24-17 17 42-23 19-17q9-9 22-6l25 12 26 14 28 6 28-7-21-8-1-2q-8 0-11-6 6-4 16-7l16-6 24-18 18-27 11-30-81 31q-48 17-86 18l-9-23-2 4-4 19-19-2-1-2-22-7-27 2-29-6-30-3m316 672q22-4 75-60l34-38 37-35 42-30q24-20 34-40l20-56q11-35 21-47-15 5-41 27l-39 27v4l-4 2 7-13q-40 27-59 44-31 28-48 59-15 26-40 79l-39 77M936 1277q20-20 17-29l-27 16-18 2q-10-9-19-7l-4 1 7 12 5 12 12 12 11 11q2-15 16-30" fill="#fff"/><path d="M1880 62 1685 258 1796 23q48 14 84 39m120 288V451l-217 79 217-180M871 8h181L960 532 871 8M2000 1059l-229-20 229-60v80m-96 837-44 36-244-349 342 243q-22 40-54 70m96-363-267-155 267 49v106M795 692 322 8H612L795 692M0 776V592L493 822 0 776M1 333Q6 192 87 104L547 653 1 333M43 1829Q0 1751 0 1648v-32l488-227L43 1829M0 1275V1127H416L0 1275m1583 717h-87l-39-221 126 221" fill="#fff" fill-opacity=".8"/></svg>