<?xml version="1.1" encoding="UTF-8"?><svg xmlns="http://www.w3.org/2000/svg" xmlns:xlink="http://www.w3.org/1999/xlink" version="2.0" width="100pt" height="100pt" viewBox="0 0 2000 2000" clip-rule="evenodd" fill-rule="evenodd" preserveAspectRatio="none"><path d="M1872 858l128 9v189l-112 6-295 2q-216-5-337-40l69 54q8 45 47 105l68 94q34 47 101 156l-102-91-74-89q-45-52-88-74-12 12-12 25-34-59-58-80-36-29-44 32l-49-91q-30-55-26-88l2-2-5-2 8-2 6-9h2q-6-42 35-113l78-120q47-12 109-60l96-82q27-23 79-61l82-61-48 63-42 55-90 88q-53 52-73 101 14 13 28 11-62 43-81 71-29 41 38 44l-43 26q203-52 603-66M498 138l29 71L356 370l27 53-32 69 91 136 7 97 113 9 17 79 127 6 72 81 247 2v119l-250 13-53 78-150 3-26 85-112-6-2 91-138 180 47 81-26 97 131 157-32 61-71 29-139-168-140-24-30-28-33 36-1-654 260-5 11-106L0 945V377Q0 277 36 202h1l75 69 40-39 90 38L435 110l63 28" fill="#fff"/><path d="M1020 613l1-29q7 34 40 106 32 70 35 108l5 5-9 23-11 23-47-42q-34-21-38 24-20-34-40-101L926 624 886 503q-22-76-14-124 22 62 59 130 50 88 89 104m32 525 24-23q7 45-30 132-37 91-34 135l23-32q-61 226-174 330 2-24 22-98 17-63 13-97l-24 34-26 20q12-19 13-54 0-45 3-57 6-23 29-59l34-58 69-119q45-78 52-124l5 5 1 65" fill="#fff" fill-opacity=".8"/></svg>