<?xml version="1.1" encoding="UTF-8"?><svg xmlns="http://www.w3.org/2000/svg" xmlns:xlink="http://www.w3.org/1999/xlink" version="2.0" width="100pt" height="100pt" viewBox="0 0 2000 2000" clip-rule="evenodd" fill-rule="evenodd" preserveAspectRatio="none"><path d="M149 1035q-43 4-149-43l260-64 21-40q80 23 275 42 89 8 120-26l12-35q36 30 57 58l21 21 215-17q69-5 60-30l-23-25 55 31q-39 35-37 85 2 70 13 121l-227 21q42-10 65-26 48-31-40-57-97-28-164 19-34 24-48 53l-53-40q-58-41-86-46-48-8-90 42-21 25-32 51 8-30-16-57-49-54-209-38" fill="#fff" fill-opacity=".8"/><path d="M949 1449q-18 44 24 53l95-11q-26 65-9 142-63-42-166-28-108 14-120 45-6 15 10 28l-100-23q-120-23-222-20-97 2-150 34l-29 15q-4-97-97-108l-92 8 85-33q52-19 88-70l31-43 73 50q76 44 133 25 58-19 83-47l14-23 85 51q95 49 141 41 41-8 100-76l26-29q7-5-3 19" fill="#fff" fill-opacity=".8"/><path d="M185 489l-92 8 85-33q52-19 88-70 26-45 31-44l73 51q75 44 133 25 58-19 83-47l14-23q38 26 85 50 95 49 141 41 41-7 100-75l26-29q7-5-3 19-18 43 23 52 34 7 94-10-9 106 45 180l-7 13q-9-25-41-48-62-45-170-31-108 14-120 45-6 15 10 28L683 567q-120-23-222-20-97 3-150 35l-29 15q-4-97-97-108" fill="#fff" fill-opacity=".8"/><path d="M1903 471q30 27-24 22l-166-22q-307-34-464 62-59 37-97-17-30-41-31-93-2-67 36-81h39q299-123 515-22 70 32 130 88l62 63" fill="#fff"/><path d="M1105 1014q-2-67 36-81l39-1q300-123 516-22 70 32 130 88l61 64q30 26-24 21l-166-22q-307-34-463 62-60 37-98-17-30-41-31-92" fill="#fff"/><path d="M1105 1553q1-52 31-93 38-54 98-17 156 97 463 62l166-22q54-5 24 22l-61 64q-60 56-130 88-216 101-516-22l-39-1q-38-14-36-81" fill="#fff"/></svg>