<?xml version="1.1" encoding="UTF-8"?><svg xmlns="http://www.w3.org/2000/svg" xmlns:xlink="http://www.w3.org/1999/xlink" version="2.0" width="100pt" height="100pt" viewBox="0 0 2000 2000" clip-rule="evenodd" fill-rule="evenodd" preserveAspectRatio="none"><path d="M767 509q4 4 27-13 12-8 34-19l20-9 1 13-1 23q-3 15-12 17V654q2 25 40 102-28-14-53-41-16-17-25-50l-9-48q-4-14-2-55l2-38-23-3q-23-2 1-12" fill="#fff"/><path d="M1169 512q16 4 16 11l-3 10-15 141q-4 33-39 61l-34 21q8-34 19-62l9-46 2-40 1-55-1-39-11-1q-14-3-19-37 52 28 75 36" fill="#fff"/><path d="M667 567l14-4q15 0 22 17 53 125 53 151 0 16 16 48l31 74 33 106q18 65 24 109 8 70 34 141 33 90 70 92l69 5q29-2 46-26 74-110 71-166-2-38 7-87 10-49 25-74l41-86q28-64 34-94l24-105 24-93q5-15 25-4 24 12 35 4 14-11 35-19l18-6 2 37q0 42-16 64l-49 64q-34 42-44 69l-49 103q-39 79-47 117l-20 109-25 109-35 94q-25 47-64 58-49 14-113-1-70-17-90-58-18-37-53-188L777 956q-7-32-61-185-57-160-73-186-15-23-7-24l31 6" fill="#fff"/><path d="M1032 1540q-54-1-112-23-57-23-96-59 132 41 209 42 51 2 100-15 52-17 97-47-28 46-84 76-52 28-114 26" fill="#fff"/><path d="M1041 1731q-58-1-112-23-57-23-96-59 132 41 209 42 51 2 100-15 52-17 96-47-27 47-84 76-52 28-113 26" fill="#fff"/><path d="M1032 1922q-54 0-112-23-56-22-96-58 135 40 209 41l100-14q47-16 97-47-30 48-84 75-52 28-114 26" fill="#fff"/><path d="M1634 540l-88-73q57 149 65 208 21 152-65 297-68 116-116 532-24 208-34 393 36-122 92-272 111-300 209-440 66-94 75-248 7-129-23-234-22-74-115-163M281 579q-38 101-44 225-7 156 44 275 34 81 204 307 156 210 179 294l44 159 8-176q4-194-14-283-20-100-75-276-50-157-98-282L444 598q-31-118 30-168l-81 33q-87 47-112 116M709 149q-29-1-50 29-21 28-21 61 0 101 71 107 42 3 62-36 18-32 11-62l-12-60q-16-36-61-39m601 88q-6-46-23-63-15-15-53-18l-23 14q-24 22-29 67-6 47 26 81 22 23 53 32 22 6 38-29 17-37 11-84M978 121l111-12 120-3q49 8 127 63l93 73 142 96 93 70 116 102q33 33 62 109 36 97 36 204 0 98-26 185l-44 146q-17 71-180 406-134 273-187 370l-27 63H1264v-1l17-112 7-36q19-88 37-362 17-269 10-346-16-187 55-348l47-109q20-59 12-116-6-42-20-52l-26 1-28 26q-15 11-33 12-26 1-70-23-50-28-71-31-31-5-101-34l-77-34-29-14-53 3q-27 8-131 55L681 530q-25 9-47-10-23-19-34-16-21 7-12 59l19 129q8 46 26 84l67 144q41 105 56 234 16 132 19 391 3 221-3 284l-1 9-1 2-1 13v2l-2 16v1l-16 121H643l-10-69q-4-57-27-126-22-65-49-105L408 1473q-36-52-101-179l-94-180q-66-111-77-358-5-144 161-359 55-71 215-152 26-14 89-81 51-55 97-60l146 5 134 12M952 289l28 9v68l20 1V299q59-19 80-19 11 0 43 11l29 11 1-17-1-18q-10-7-34-15l-38-7q-21 0-80 20V201l-2-2-8-2-10 3v64l-28-9-41-10-45 7q-30 8-39 15-3 2 0 35 61-22 82-22l43 9" fill="#fff"/></svg>