<?xml version="1.1" encoding="UTF-8"?><svg xmlns="http://www.w3.org/2000/svg" xmlns:xlink="http://www.w3.org/1999/xlink" version="2.0" width="100pt" height="100pt" viewBox="0 0 2000 2000" clip-rule="evenodd" fill-rule="evenodd" preserveAspectRatio="none"><path d="M679 1416l-93-45q-12-72-21-147-19-149-4-162 17-14 36-8 16 6 29 25 11 15 33 178l20 159" fill="#f1f2f2" fill-opacity=".8"/><path d="M1240 1613l-141-43q-142-46-147-65-6-22 8-36 11-13 35-17 18-3 173 46l152 50-80 65" fill="#f1f2f2" fill-opacity=".8"/><path d="M1131 1882l-144 30q-147 26-160 12-15-16-10-35 4-17 23-32 14-11 175-42l157-29-41 96" fill="#f1f2f2" fill-opacity=".8"/><path d="M462 1630l-116-91q-115-96-113-116 3-22 21-30l38-3q18 4 145 107l124 102-99 31" fill="#f1f2f2" fill-opacity=".8"/><path d="M1393 649l22 147q19 150 3 162-33 28-65-17-16-24-53-337l93 45" fill="#f1f2f2" fill-opacity=".8"/><path d="M739 407l141 43q142 46 147 65 6 22-8 36-11 13-35 17-28 5-325-96l80-65" fill="#f1f2f2" fill-opacity=".8"/><path d="M848 138l144-30q147-26 161-12 15 16 10 35-5 17-24 32-23 18-331 71l40-96" fill="#f1f2f2" fill-opacity=".8"/><path d="M1687 630q-28-6-268-209l98-31 116 92q116 95 113 115-2 22-20 30l-39 3" fill="#f1f2f2" fill-opacity=".8"/><path d="M241 1044l97-41 100 12 53 118 64 41-53 39 11 37q16 35 42 31 35-6 91 45 62 55 50 109-5 22 5 34 11 13 42 22l119 25 101 10 68-18 81-17 144 9q37 10 78 55 139-66 217-164 57-74 94-151l25-63q5-18 20-27 16-9 34-5 18 5 27 20 10 16 5 34l-29 76q-41 88-107 171-86 111-249 191l2 49-14 65q-14 40-33 56-24 22-94 56-78 37-108 33l-72-16q-39-12-54-22-12-9-63-15l-131-18q-69-11-184-90l-100-76-88-2q-27-16-74-78-46-62-53-91-5-24 6-62l11-33-52-123-81-33 48-49 4-144" fill="#f1f2f2"/><path d="M608 383l-2-49q3-31 15-65 14-40 32-56 24-22 94-56 78-37 108-33l72 16q40 12 55 22 12 9 62 15l131 18q70 11 185 90l100 76 31-6q35-4 57 8 26 16 73 78 46 63 53 91 9 38-17 95l52 123 81 33-48 49-3 144q-49 21-98 41l-100-12-52-118-65-41 53-39-11-36q-16-36-42-32-35 6-91-45-61-55-49-109 5-22-6-34-10-13-41-22l-119-25-101-10q-28 14-150 35l-144-9q-37-10-78-55-139 66-217 164-57 74-94 151-18 39-25 63-4 18-20 27l-34 5q-17-4-26-20-9-16-5-34 5-24 29-75 40-88 106-172 88-111 249-191" fill="#f1f2f2"/></svg>