<?xml version="1.1" encoding="UTF-8"?><svg xmlns="http://www.w3.org/2000/svg" xmlns:xlink="http://www.w3.org/1999/xlink" version="2.0" width="100pt" height="100pt" viewBox="0 0 2000 2000" clip-rule="evenodd" fill-rule="evenodd" preserveAspectRatio="none"><path d="M393 1328l-4 127 114-3-30-46q-39-52-80-78m276 190q-54-34-102-44l41 120 106-44-45-32m114 76 53 116 101-54-48-28q-57-28-106-34M189 1207v-45l60-132 38 82q46 89 84 127 124 124 384 266 129 70 234 116l45 133-71-5-143-22q-93-23-281-142-207-131-282-232-38-52-52-84-13-29-15-61l-1-1m68-58-32 102 94 23q-18-76-62-125" fill="#fff" fill-opacity=".8"/><path d="M525 1175l27 114 437 312-378-336-108-214q-4 9 22 124m42-964-43 52q-42 61-33 103 13 58-58 316L567 560q-14-56 3-70 13-10 50-16 31-5 44-28 22-38-21-131-41-88-76-104M1586 1292q-36-20-83-18l-44 31q-44 34-48 51-4 21 37 52 42 30 70 27 24-2 61-49 33-42 36-60 3-16-29-34m-471-261q3-8 27-22l26-17q3-6-15-10l-22-5-171-92-30-4-28 4-62-19-47-14q6 17 29 29l32 15 8 12q1 12 5 20 7 15 34 36 27 21 50 28l58 6 43 1q7 3-1 9l-10 6-68 52 19-10 82-35 40-7q-5 31 1 17m154-122q-10-7-9-74l-10 32q-12 33-21 37-13 5-129-73l42 40 55 57q16 21-6 29l53-17q12-4 23 6l8 11 105 94 15-2q-67-65-70-76-2-7 33-23l36-15q-8-21-7-45 1-15-8-35l-8-18q-91 78-102 72M1080 191l43-44q15-19 24-51 20-63 32-41l6 21-6 32-33 63-31 47q-6 18 12 59 9 23 18 69l14 65 18 76q13 54 31 73l55 70 59 70q71 65 85 102l-1 38q-5 25 1 38 6 13 4 34-4 29-2 42l-4 52q-4 34 7 53l114 108q102 93 105 128 4 40-6 124-9 77-17 98-6 15-38 20-27 4-38 0-4-1-7 15l-13 37q-44 67-129 76l-71 12-69-3q-72-12-218-67l-26-2q-10 4-10 16-105-46-234-116-260-142-384-266-38-38-84-127l-38-82-60 132q16-49 25-62l33-68q23-48 43-58 20-11 28-30l12-40 33-64 23-41-14-29q-13-37-10-73 3-30 40-135 36-100 36-119 0-29 5-50l24-78q11-30 51-95 31-49 31-83 0-38 31 5l48 73q54 71 82 158l40 128q44-17 82-26l65-7q39-3 52-19 11-14 19-44 10-43 19-64 36-96 93-150" fill="#fff"/><path d="M189 1207l1 1q2 32 15 61 14 32 52 84 75 101 282 232 188 119 281 142l143 22 71 5-29-87 33 100 27 117 24 108H345q-157 0-253-96-92-90-92-247V1451q14-11 27-16 16-6 44-59 29-58 49-72 18-13 38-59l31-83v45" fill="#fff"/></svg>