<?xml version="1.1" encoding="UTF-8"?><svg xmlns="http://www.w3.org/2000/svg" xmlns:xlink="http://www.w3.org/1999/xlink" version="2.0" width="100pt" height="100pt" viewBox="0 0 2000 2000" clip-rule="evenodd" fill-rule="evenodd" preserveAspectRatio="none"><path d="M370 543q-5 15-25 5-26-14-33-12 5 17 27 30 20 13 24 36-53-11-110-66L158 435l114 21 120 7q8 14 5 30l-5 25-44-3-41-9q-1 10 24 20l39 17" fill="#fff"/><path d="M1275 486l-79 64q-52 34-65 45-19-1-31-35l71-64q37-38 75-61 3 15 14 28l15 23" fill="#fff"/><path d="M936 773q6-35 35-95 29-62 36-94 18 5 7 21-13 20-1 32 8 7 24-13l26-1q6 16-16 33-23 17-20 31 10 6 26-8 20-17 34-18 14 25-25 51-37 25-18 54l-52 13q-37 7-56-6" fill="#fff"/><path d="M1297 501q19 67-46 107-36 22-101 50-12-45 43-86l104-71" fill="#fff"/><path d="M848 715q2-17 23-14 21 4 22 26-12 9-24-3-13-12-21-9" fill="#fff"/><path d="M1158 698q38-55 105-72-94 201-64 448-23-6-31 17l-9 40q-16 7-26-5-13 12-6 42l-32-2-19 32-25-22q-12 12-12 29-18 1-34-25-11 2-14 14-2 12-14 14l-22-14q-13-9-18-25-11 16-31 21l-44-53q-37-41-49-74 11-10 20-4l13 10q48 51 70 65l19 5q39 19 111-17 79-40 93-38l5-22q10-4 15-20l5-32 4-39 6-121q3-78 8-121 3-27-24-31" fill="#fff"/><path d="M1714 602q-12-7-32 0l-38 6q-51-88 10-127 60-37 119 17 17 182-2 278-24-33-36-81l-21-93" fill="#fff"/><path d="M347 1243q-39-16-89-9-11 14 3 46l23 54q-57-46-39-95 19-49 86-20-19-29-81-41-59-11-77-51-1-30 44-39l74-19q6 16 93 121 59 71 16 119-6-46-53-66" fill="#fff"/><path d="M219 1332q52 50 79 92l-97-24q-65-6-30 61-6 12-20-25-13-36-11-49l36-5h33q-10-17-59-23l-76-15q-51-56 48-92 48 33 97 80" fill="#fff"/><path d="M273 1252q64-19 108 60l63 137q-67-35-99-66-49-49-72-131" fill="#fff"/><path d="M1877 970q-29-76-37-125-15-94 49-110 69 100-12 235" fill="#fff"/><path d="M1531 1018q-18-68 44-87l12 89q5 55 16 90-54-30-72-92" fill="#fff"/><path d="M209 1629l88 112q-129-3-206-150 65-25 118 38" fill="#fff"/><path d="M87 1695q-13 20-36 25l-42-4q-3-25-3-53v-21l10-4 36 28 35 29" fill="#fff"/><path d="M671 1385q21 9 70 44 45 33 78 44 14 32 5 69l-13 62-119 5q-70-22-117-1l20-56q10-35 29-52 20 39 22 70 32-25 29-86l-4-99" fill="#fff"/><path d="M1639 1158q9-12-7-40-16-27-4-43 16 0 42 14 26 15 41 15l-43 83q-28 35-92 29-10 7 0 13l12 14q-9 10-20 12l-27 8q-5 12 4 16 14 5 16 15-9 3-17 18-7 13-24 16l-34-33-34-34q5-39 26-107l27-106 64 62q39 39 70 48" fill="#fff"/><path d="M181 1767q13 33 43 59l49 45q-58 5-108-20-54-28-69-80l85-4" fill="#fff"/><path d="M406 346q7 18 4 47-3 38-27 50-15-16-2-47l25-50" fill="#fff"/><path d="M1183 136l-37 27q-21 16-26 31-1-19 45-71 46-52 46-70 17 29 11 87-8 78-6 93-10 1-9-29 2-26-24-12l10-29q4-16-10-27" fill="#fff"/><path d="M894 711q7-26 53-62l-23 35q-16 21-8 41-5 1-11-8-5-9-11-6" fill="#fff"/><path d="M1203 842q25-18 57-135 30-111 58-120l44-4h2q20-3 47 11 23 5 52 23l48 30 12 13q24 20 31 65 7 39-1 80l-69 6q-55 46-45 132 13 116 4 147-39-78-37-108l-28 65q13 28 2 92-13 71-8 100-10 4-19-8l-16-17q-15 57-12 140-16 2-29-11l-17 54q-9 32-6 59-10 7-17 0l-12-12-8 53q-3 32-21 47-12-18-34-33l-38-24q-5 10-5 26-24-7-52-30l-49-39q-12 12-5 26-26-5-56-34l-50-48-6 18-3 18q-28-13-66-47l-100-49 23 37q-34-6-66-50-35-47-59-56l5-9 3-10-55-34q-32-19-42-44l100 22q56 15 93 39-18-35-92-78-78-46-104-85 49-5 113 17l107 33q-7-36-73-75L599 971q75-4 169 90l152 163q18 4 37-8-1 31-21 24l-40-27 8 12 22 27q32 13 87 15l88 8q25-27 61-55l53-49q9-11 11-41l-5-16v-10q-5 22-20 33 36-113 2-295" fill="#fff"/><path d="M1843 532q40-23 74-11 19 6 55 36 6 56 0 125l-15 119q-15-9-29-46l-24-59q-22 0-45 25-18 21-28 46-5-19 14-49 22-34 57-45l15 34q12-6 5-25l-15-35q-15-2-37 7l-29 6q-12-32-8-68l10-60" fill="#fff"/><path d="M1646 742q-23-18 12-76 34-57 59-18-32 1-53 34-18 28-18 60" fill="#fff"/><path d="M1663 774q-18-66 43-97 67 112 20 254l-21-46q-15-24-47-21-12 18-1 53l26 64q39 2 140 46 85 37 151 21-56 96-179 59l-97-36q-55-18-85-13-16-34-15-79l-2-73q-34 2-61 25-30 25-30 61-21-19-13-54 5-26 23-53l40-8q23-4 32 9 19-24 14-61l50 7q26 10 39 34 3-14-8-42l-19-50" fill="#fff"/><path d="M603 1469q-17-4-25 9-10-25-37-29l-40 5q-47-97-82-82-9-21 4-43l18-37q8 1 24 16 14 12 27 10 34-30 61-42 54 11 88 58 4 15-8 10-12-5-11-18-9 19 20 89 25 61-4 79-6-32-40-71-41-48-56-79l41-2q25-1 32-13l-53-3-46 13q4 23 39 60 38 41 48 70" fill="#fff"/><path d="M315 1520q6-14 19 13 19 39 30 46-62 4-119-46-51-45-72-104 30-12 59-7 17 3 49 17-2 19 11 40l23 41" fill="#fff"/><path d="M1059 1240l2-20q9 1 19 10l16 15 11-29q6-16 22-3-24 26-21 42-5 3-24-11-15-11-18 6-10 2-7-10" fill="#fff"/><path d="M1164 1200q-1-9-11-4-10 4-22 16 1-20 28-35 25-14 19-38 18-7 10 24-8 30-24 37" fill="#fff"/><path d="M179 1723q15 16 22 35-14-12-59-13l-48 3-10 1q-7 12-17 11-1 13 7 24 12 15 16 29-23-8-39-54 16-11 51-28l51-32 26 24" fill="#fff"/><path d="M465 1688l-2-4q55 3 71-1-20 16-31 19l-1 7q-8 3-25 13l34-1q20 0 29 8-27 6-77 30l2 3-49 6 31 8-73 4-4-4 24-22 22-24 15 8q10-35 34-50" fill="#fff"/><path d="M889 485l59-19q64-25 90-53 26-27 24-89l-7-57L947 391l-58 94M735 539l-110-4-164 20 43 38q51 36 88 30 38-6 94-46l49-38M629 235q29-7 41 25 11 29 0 53 47 11 84 105 39 100 63 111 13-4 12-17l-3-24-8-18q-27-27-69-138-46-120-73-156 10-14 43-27l55-23-71-3q-48 5-66-18L768 94 914 83l99 73 98 74 17-10q6-9 14-11l5 29q5 9 20-8 6 27 26 33l37 4 2 3 93-6q-14 1-29 16-14 13-20 28l31 3 30 6h36l35 5-42 3q-30-1-38 8l-21 4-20 8-5 7 38 13 38 15-45 6-45 3v4l-13-5q-45 38-128 124-76 61-156 24l-9-30q-18 8-35-4l-41 8q-3 15-17 29 12 8 27-7 20-18 33-19 3 17-13 40-17 24-18 37 18-4 31-21 14-17 31-21 24 68-69 115-92 46-151 2 29-37 64-35-4-18-27-15-25 4-30-9-7-18 17-20l36-2q-11-16-29-21-8 10-23 11l-38 9-14 16 3 38q-1 20-10 41 23 14 111 52 69 29 105 64l-35 31-45 28q-11 11-25 11l-122 8q-14 1-23-9-25 20-53 30-37 13-54-4l42-6 38-12q9-9 5-19-5-12 1-23l14 2 6-13-20-1q-12 0-20-8-22 13-74 19l-77 10q19-20 65-23l81-7v-3q-13-17-3-36-16-27-96-21-97 7-117 0 52-16 125-15 72 1 116 18h10l-22-15H609l-46-19-4 1-69-7-71 10-52 13-53 11q25-22 41-32l19-11 16-14-18 10q2-12 21-29l21-28 14-15 3-8h-7l8-2 14-44q10-24 34-36 4-9 13-13l23-11-69 7q-26-19-15-48 10-28 37-33 2 8-11 27-10 15 4 32 31-1 131-34 77-26 114-7-49-30-72-97-21-64-6-124m318 56q-32-2-76-31-52-34-74-40 34 56 44 85 16 50 1 95 36-51 105-109" fill="#fff"/><path d="M729 889l83-7-8 25 33 93q-40-13-68-35-17-14-30-47l-10-29" fill="#fff"/><path d="M1126 734l11 29q10 33 6 55-7 35-31 70l-33-93-22-14 69-47" fill="#fff"/><path d="M917 998l25 87 19 15-41 19-21-17q-20-22-14-41 5-20 19-43l13-20" fill="#fff"/><path d="M1145 1035l-44 7 7-23-30-85 22 9q24 11 40 24 16 13 12 42l-7 26" fill="#fff"/><path d="M1820 1241l80-3 80-8 22-7v422q0 155-92 247l-18 16-72-667" fill="#fff" fill-opacity=".8"/><path d="M1683 1339q13-36 40-61l80 684-88 22-159-550q82 23 127-95" fill="#fff" fill-opacity=".8"/><path d="M1401 1445q15-38 41-45l176 587H1514l-193-394 14-23 35-61 31-64" fill="#fff" fill-opacity=".8"/><path d="M1196 1651q22 12 47 7l166 329H1276L985 1589q16-5 45 8l82 25q54 14 84 29" fill="#fff" fill-opacity=".8"/><path d="M827 1712q54-7 93-43l237 318H969L730 1757q42-37 97-45" fill="#fff" fill-opacity=".8"/><path d="M407 1906q139-13 245-84l175 165H528l-121-81" fill="#fff" fill-opacity=".8"/><path d="M205 1542l23 54q-33-22-97-31-78-10-55 48-13-1-18-23l-5-31 46-6 37-5q-17-22-63-18l-67-7v-64q38-32 95 25 66 66 104 58" fill="#fff"/></svg>