<?xml version="1.1" encoding="UTF-8"?><svg xmlns="http://www.w3.org/2000/svg" xmlns:xlink="http://www.w3.org/1999/xlink" version="2.0" width="100pt" height="100pt" viewBox="0 0 2000 2000" clip-rule="evenodd" fill-rule="evenodd" preserveAspectRatio="none"><path d="M93 1127q13-170 113-294 62-77 194-168 115-79 299-113 169-32 321-14l235 30 92 13-86 19-162 28-99 12q19 169 14 219-18 177-154 329-103 114-245 179-134 61-266 61l-106-9q-24-6-29-14l-25 31q-25 53-31 170-16 328-43 191L91 1595l-6-139q-4-171 8-329m300 82q-58 16-78-120-16-104-6-187l7-65q0-2-14 7-17 11-82 116-57 94-43 273l16 91q136 48 287-14 74-31 215-129 86-60 145-148 62-92 69-175l10-137q-3-55-36-78-46-31-204 2-79 17-148 39 15-3 26 42 13 55 14 169 2 105-47 196-51 96-131 118" fill="#fff"/><path d="M1203 8q68 25 90 57 46 64 281 732l226 655-362-814q-53-121-187-334Q1111 82 1082 84q-24 2-139 53L744 223q-56 22-202 116-102 67-79 31L607 164 718 8h485" fill="#fff" fill-opacity=".8"/><path d="M473 8 282 119q-52 19-127 353-37 168-64 331-6-595 17-687Q131 26 304 8H473" fill="#fff" fill-opacity=".8"/><path d="M1347 912q0-21 17 39 18 61 20 138 8 242-138 472-54 86-183 195-106 91-234 173l-47 33q-30 21-56 31l-309-5q-4-53 52-95l148-93q128-82 264-184 181-136 259-224 79-90 139-218 68-146 68-262" fill="#fff" fill-opacity=".8"/><path d="M1283 1991l-144-2q-1-25 24-45l69-43 124-86q84-64 121-105 37-41 65-101 32-69 32-123l17 83q4 112-64 220-50 78-195 172l-22 15-27 15" fill="#fff" fill-opacity=".8"/><path d="M1385 8h216l99 59q109 88 158 237 49 149 13 309-17 81-45 131 9-72-6-169-30-192-148-310L1496 104 1385 8" fill="#fff" fill-opacity=".8"/></svg>