<?xml version="1.1" encoding="UTF-8"?><svg xmlns="http://www.w3.org/2000/svg" xmlns:xlink="http://www.w3.org/1999/xlink" version="2.0" width="100pt" height="100pt" viewBox="0 0 2000 2000" clip-rule="evenodd" fill-rule="evenodd" preserveAspectRatio="none"><path d="M1208 794q18-18 44-18 26 0 43 18 18 18 18 43 0 26-18 43-17 18-43 18-26 0-44-18-18-18-18-43 0-25 18-43" fill="#fff"/><path d="M859 500q26 59 73 126l144 200q109 142 183 216 31 30 96 81l97 81 73 70 70 73q36 43 45 72l11 38q7 21 17 35l-32-26 22 41 44 23q33 14 74 63l36 71q-20-21-51-30l-59-7-18-3 17 55-14-6q19 28 30 62l22 20 26 50q14 31 16 54l-38-18-39-19-67-30-61-28-2 1-2-2-4-2-2 1-9-4 8 15-24 1-4-5-9 1-5 7-4 8-16 1 27 40 19 43q9 24 10 45-24-45-85-89l-47-28-13 7-4-11-13 6-14-6-16-4-25-21-29 24-39-48-43-44-12 13-13 11-20-21q-11-10-26-7l-14-3-15-3q-10-3-30-26l-37 7-15-20q-16 4-29-7-11-10-15-27l-1-19-2-20-17-43-15-8-1 17q-16-13-32-44l-25-50-8 37q-8-10-14-33l-8-37-14-39q-9-25-9-41l-3 9-11 27-13 27-11-42-9-43-19-41q-14-27-14-42-6 2-8 10l-2 13q-6-10-6-33l1-37-10-76-17-64-2-7-8-11-11 8q-6-6-9-20l-7-23-12-17-11-12-23-43q-13-29-26-44-18-21-64-39l-37 3-36 21-2-33V794l-32 24v-2l2-2h-8l2-20q-22 8-29-19-8-37-14-41l-14 7q-6-8-10-26l-6-28q-7 6-16 30l-13 34q-13-53-47-96-6 34-20 50-9-7-14-27-5-20-15-28l1 9-1 8-20-37q-13-23-29-32-14 36-45 58l-4-35q-3-19-18-30l-15 25-24 20q-8-9-12-36-4-28-15-40-50 36-73 72V621l7-26 5-26-3-29-5-28-4 4V351Q0 196 87 103q47-48 109-72L374 155 597 297l109 55 47 30 48 29 22 12 13 21 23 56m51 228-43-37q-27-27-35-46l-49-30-31-27 41 84 18 53 15 53q17 11 17 49l-1 55q6 22 21 36 4 43 0 63 5-12 42-31l4 3q31 25 61 69l-1 8-14 35q-10 22-9 35l28-5 27-8 8-1 20 50q18-18 43-18 25 0 43 18 18 18 18 44 0 16-8 30l40-1 3 4q12 24 33 42l15 20 5 10-4-14q-4-17 1-27 2-6 15-13l13-14 11-9q21 6 57 27 35 21 54 26l-32-36-30-36-57-66q-17-4-34-22l-28-31q-22-33-35-40l-23-7-24-7q-31-20-55-91-23-68-57-83l-10-14-2-34q-3-13-14-29-11-17-26-23l-31-14" fill="#fff"/><path d="M1230 590q0 25-18 43-18 18-43 18-25 0-43-18-18-18-18-43 0-26 18-44 18-18 43-18 25 0 43 18 18 18 18 44" fill="#fff"/><path d="M1246 316q18-18 43-18 25 0 43 18 18 18 18 44 0 25-18 43-18 18-43 18-25 0-43-18-18-18-18-43 0-26 18-44" fill="#fff"/><path d="M1205 157q0 26-18 43-17 18-43 18-25 0-43-18-18-17-18-43 0-25 18-43 18-18 43-18 26 0 43 18 18 18 18 43" fill="#fff"/><path d="M1108 422q0 26-18 43-17 18-43 18-26 0-44-18-18-18-18-43 0-25 18-43 18-18 44-18 26 0 43 18 18 18 18 43" fill="#fff"/></svg>