<?xml version="1.0" encoding="UTF-8" standalone="no"?>
<svg xmlns:ffdec="https://www.free-decompiler.com/flash" xmlns:xlink="http://www.w3.org/1999/xlink" ffdec:objectType="shape" height="100.0px" width="100.0px" xmlns="http://www.w3.org/2000/svg">
  <g transform="matrix(1.0, 0.0, 0.0, 1.0, 0.0, 0.0)">
    <path d="M100.0 100.0 L0.0 100.0 0.0 0.0 100.0 0.0 100.0 100.0" fill="#000000" fill-opacity="0.003921569" fill-rule="evenodd" stroke="none"/>
    <path d="M29.25 61.35 L26.7 60.95 23.95 60.7 Q22.05 59.95 20.5 57.6 L17.3 53.05 17.65 48.45 39.85 32.6 Q42.5 32.8 46.6 29.95 50.8 27.1 51.25 24.5 L73.75 8.5 Q74.85 8.4 76.5 9.15 L79.25 10.05 80.7 15.8 Q81.6 19.3 82.7 21.65 80.45 23.85 74.3 28.05 68.2 32.15 65.95 34.4 66.65 37.05 68.55 41.65 69.85 45.55 68.2 48.3 66.4 51.4 61.2 53.65 L52.8 56.85 Q51.8 61.35 53.6 68.65 L56.55 80.6 Q46.15 88.6 38.35 91.55 36.35 90.05 33.8 85.15 35.1 82.7 34.45 78.2 L32.8 70.35 32.25 65.55 Q31.7 62.7 29.25 61.35 M64.2 39.25 Q63.45 38.25 62.9 38.05 60.7 37.25 57.35 39.8 54.05 42.15 53.8 44.25 54.45 45.65 56.45 46.45 58.35 47.3 58.65 48.4 L53.25 48.2 Q49.95 47.9 49.15 50.75 53.5 56.5 61.25 51.4 68.95 46.3 65.65 40.15 64.85 40.1 64.2 39.25" fill="#ffffff" fill-rule="evenodd" stroke="none"/>
  </g>
</svg>
