<?xml version="1.1" encoding="UTF-8"?><svg xmlns="http://www.w3.org/2000/svg" xmlns:xlink="http://www.w3.org/1999/xlink" version="2.0" width="100pt" height="100pt" viewBox="0 0 2000 2000" clip-rule="evenodd" fill-rule="evenodd" preserveAspectRatio="none"><path d="M1280 498q141 74 252 246 136 211 117 440-14 162-39 226-65 172-253 252-30 13-92 21l-125 8-7 305H971q-6 0-22-154-16-153-23-153l-171-11q-55-12-123-41-224-97-270-341-51-272 83-497 99-166 269-272 79-49 200-174l105-115 77 102q95 111 184 158m248 591q27-27 33-50l1-20q2-8-228 127l-229 127V1010l97-111 160-184q24-30 28-51l-1-16q-12 7-113 77-69 49-180 98l-34-276-20-192q-2-18-9-25l-6-4-7-1q-7 4-10 23L986 579 957 825q-1 9-147-86-147-95-148-87l-4 14q1 16 20 38L860 886q114 111 113 117l-2 245q0 9-215-91-214-100-214-89l1 15q5 18 30 42l238 218 150 138q16 112 39 224 1 18 43 9l41-12 3-67q5-68 18-143 1-5 164-156l259-247" fill="#fff"/></svg>