<?xml version="1.1" encoding="UTF-8"?><svg xmlns="http://www.w3.org/2000/svg" xmlns:xlink="http://www.w3.org/1999/xlink" version="2.0" width="100pt" height="100pt" viewBox="0 0 2000 2000" clip-rule="evenodd" fill-rule="evenodd" preserveAspectRatio="none"><path d="M512 1869q33-27 12-82-24-60-26-75l-7 4-18-1q-7 39 5 79 9 32 34 75m184-384q-52 39-78 110-16 42-32 137 8-1 12 10l6 22 57 15q38 8 62 27 21-22 52-32 35-12 59-33l-3 16q-1 8 9 9 16-22 40-20l54-4q5-4 3-20-3-15 6-18 5 22 21 11 25-17 32-16 15 45 59 18 45-27 24-48 37 7 71 0l64-7q1-37 44-36l67 7q14-94-2-214-16-115-54-217-43-8-99 15-77 32-97 36l-157-5q-95-4-140 53-4 44-33 97l-47 87M1457 200q11-11 36-75 20-53 50-62 15 16 20 61 6 60 13 84 12-1 55-38 34-29 49-9-38 105-53 235-17 145 6 241-24 56-55 177l-22 88-24 87-37 72q-28 45-35 74-36 155 35 418l62-6-4 19 97-22q67-18 102-19 21-1 99-46l151-91v262q0 155-96 248-94 96-249 96H347q-117 0-201-54l113-1 79-33q64-29 72-11 10-65-6-108-25-56-42-116l118-117q58-79 25-174-37-22-77 13l-66 69q-28 23-80 51l-85 46q-22 13-63 49l-70 3q-11-64 17-125 25-56 80-100l92-75q49-45 74-95l56-137q32-80 71-113 60-52 198-93l249-76q23-9 59-30l60-37q19-11 67-31 41-17 55-28 41-32 72-93l57-112q-2-20-38-37-35-16-35-42 75-5 116-61 36-66 62-87 12-10 42-19 28-9 39-20" fill="#fff"/></svg>