<?xml version="1.1" encoding="UTF-8"?><svg xmlns="http://www.w3.org/2000/svg" xmlns:xlink="http://www.w3.org/1999/xlink" version="2.0" width="100pt" height="100pt" viewBox="0 0 2000 2000" clip-rule="evenodd" fill-rule="evenodd" preserveAspectRatio="none"><path d="M1636 393l57 86v57q-135 160-190 395-67 283 61 451-64 116-53 294l44 314H397l-130-8-44-8q40-58 80-105 20-23 99-80 65-47 87-92 45-92 81-285 39-216 77-317-20-19-66-24l-73-4q-71-7-4-84Q626 873 733 809q60-36 131-133 57-78 98-82h101q33-37 163-217 98-135 180-199 123 83 101 287 33-39 53-49 17-10 76-23" fill="#fff"/></svg>