<?xml version="1.1" encoding="UTF-8"?><svg xmlns="http://www.w3.org/2000/svg" xmlns:xlink="http://www.w3.org/1999/xlink" version="2.0" width="100pt" height="100pt" viewBox="0 0 2000 2000" clip-rule="evenodd" fill-rule="evenodd" preserveAspectRatio="none"><path d="M1515 335q72-9 113 40l6 42-14 92-32 159q-18 94-67 154-35 43-52 43-7-1-9-9-2-11-1-46l-5-125-5-86q-72 89-91 93-10 2-35-10l-39-12q-10 0-37 24-27 25-42 26-14 1-52-16-37-18-48-17-10 1-41 26-29 24-41 24-13 0-58-25-45-25-52-25-9 0-43 18-33 17-38 16l-34-24-37-24q-8-1-38 11l-29 13-64-60-57 28-48-40-54 238q-23-22-60-118-42-106-46-176-4-63 7-121l10-43 19-25 22-15q27-11 51 7 24 18 42 69l14 47q-1-16 5-33 11-33 42-35 32-2 52 37l14 39q4-19 14-38 18-38 44-38 26 0 51 38l20 37q0-15 6-31 12-30 43-31 31-1 59 44l21 44q9-24 27-47 35-46 76-43 41 4 74 45l25 41 24-39q29-40 53-41 22-1 51 30l30 36 22-47q23-52 58-55 36-3 69 27 17 15 26 31-1-28 8-58 19-60 71-66" fill="#fff"/><path d="M1450 1085l6 73 6 104q-5 75-13 104-13 46-53 85l-24 6q-48 7-46-22l1-28q-13 47-33 51-26 6-46-19l-16-27-12 24q-22 24-66 25-45 1-59-17l-6-19-25 23q-32 23-64 20-32-3-49-27l-10-24-22 27q-28 28-58 33-29 4-49-31l-13-37-21 30q-26 30-54 30-29 0-40-33l-6-33q-24 60-53 61-18 0-50-34l-26-61q-16-50-12-122 2-30 27-115 27-86 30-62 5 34 92 220l18-20q21-21 35-22 14-2 45 30l28 33 30-24q33-24 46-25 20 0 68 57l26-25q29-26 43-29 14-2 46 30l30 32 24-22q25-22 36-23 17 0 70 38l22-34q25-34 38-37 11-2 24 24 11 23 14 18 60-83 97-153l24-53" fill="#fff"/><g transform="translate(148 229)"><path d="M1456 797q15-37 66-245 56-227 57-284 2-198-102-210-65-8-289 38-231 46-404 32L470 90 289 62q-29-2-82 39-50 38-53 56-13 15-22 90-8 62 5 156 11 81 33 158l65 240q50 190 63 262h1l91 245q10 30 30 45 20 15 55 18l121-8 141-15 168 7 147 21q56 11 106 2 50-10 73-35 29-34 84-163l60-189 81-194M1674 81q34 61 26 199-7 148-61 292L1481 994q-108 279-143 325l-78 114q-45 67-82 92-39 26-150 9l-194-39-185 6-184 15q-76-6-135-152-16-40-64-211Q97 708 54 528-26 191 16 79 50-12 197 3L558 50 984 69l421-47q227-17 269 59" fill="#fff" fill-opacity=".7"/></g></svg>