<?xml version="1.1" encoding="UTF-8"?><svg xmlns="http://www.w3.org/2000/svg" xmlns:xlink="http://www.w3.org/1999/xlink" version="2.0" width="100pt" height="100pt" viewBox="0 0 2000 2000" clip-rule="evenodd" fill-rule="evenodd" preserveAspectRatio="none"><path d="M1446 685q115 178 99 372-12 138-33 192-55 145-214 213l-78 18-105 6-7 258H972q-6 0-19-130-14-129-20-129l-145-10q-46-10-104-35-188-81-228-288-43-230 71-421 83-139 227-230 67-41 169-147l89-97 66 86q80 95 155 134 119 63 213 208m-4 292q23-23 29-42l1-18q1-7-193 108-195 115-194 107V910l82-95 135-155q21-25 24-43l-1-13q-9 5-95 65-59 41-153 82-15-96-29-232l-17-163-7-21-5-4h-6q-6 3-9 19L984 545 960 754q-1 7-125-73-124-81-125-74l-3 13q0 13 16 31L877 805q97 94 96 99l-1 207q0 9-183-76-181-85-181-76l1 13q4 15 25 35l202 185 127 116q14 95 33 190l71-2 3-57q3-57 14-121l139-132 219-209" fill="#fff"/><path d="M1643 572q35 15 51 6l-8 13q-9 15-9 27l21 34 1 2q36 22 52 15l-12 13q-12 15-13 27l17 42q1-1 18 12 19 15 33 12l-15 13q-15 15-16 28l10 49 19 17q15 12 27 11l-18 12q-17 14-18 27l3 47 12 14q15 22 29 24l-16 6q-18 7-25 17l-4 71 12 19q11 21 25 25l-19 5q-21 7-27 18l-13 67 8 24q7 18 19 23l-15 1q-18 2-28 9l-20 54 4 24q3 22 14 30l-16-2-29 4-22 37 1 24q0 23 9 32l-20-5q-22-4-33 5-52 57-107 77 50-57 80-136 22-59 39-149 22-132 17-307-5-170-52-296-57-158-167-261 59 17 115 57l57-2-6 14q-5 17-4 28l39 42" fill="#fff"/><path d="M443 490q55-40 115-57Q451 534 391 694q-45 125-52 296-5 170 18 307 17 91 39 149 29 79 79 136-55-20-107-77-10-9-32-5l-21 5q10-9 10-32v-24l-22-37-29-4-16 2q11-8 15-30l3-24-20-54q-9-7-27-9l-15-1q11-5 18-23l8-24q-10-42-13-67-6-11-27-18l-19-5q14-4 25-25l12-19-4-71-25-17-16-6q14-2 29-24l12-14 3-47q-1-13-18-27l-17-12q12 1 27-11l18-17 10-49q-1-13-16-28l-15-13q14 3 33-12l18-12 17-42q-1-12-13-27l-11-13 28-3 24-12v-2l22-34-9-27-9-13q15 8 52-6l38-42-4-28-6-14 57 2" fill="#fff"/></svg>