<?xml version="1.1" encoding="UTF-8"?><svg xmlns="http://www.w3.org/2000/svg" xmlns:xlink="http://www.w3.org/1999/xlink" version="2.0" width="100pt" height="100pt" viewBox="0 0 2000 2000" clip-rule="evenodd" fill-rule="evenodd" preserveAspectRatio="none"><path d="M1103 65q67 52 91 114 20 51 4 72-1-59-67-69-56-9-113 17l-7-15-8-16-11 8-11 2-14-15q-8-9-17-4-5 6-1 13l5 18q-70-3-105 12l-18 40q-13 24-9 33 10 19 35 8l41-17-5-15q-7-7-7-15 6-8 31-6 11 11 15 24 46-2 71 9 8-9 28-9l36 3q6-7-3-16-8-7 0-11 7-10 21-3 13 7 15 18 2 8-8 10-10 2-10 8 21 11 27 35 8 26-21 33 0 9-15 12-14 4-15 12l22 5 24-8 7 11 2 17-65-6-58 3-63 20q-29 14-35 44-3 13-4 59l-8 66 7 44q1 32 8 42l11-8q3-10 8-10 7 15 17 20l29 4 5-17q3-11 13-10 8 5 6 38-1 30 15 29 8-1 6-13-2-12 4-12l8 3 10 1q-4-24 9-40 6 12 25 3l5 22q3 13 13 15l10-99q3-58-7-101l-26 4q-18 7-23-7 3-8 28-16 22-7 18-20-22-14-58-13-38 1-52 19l-11-9-17-3q-3 13 5 23 9 9 8 19-21 28-43 19V425q36-35 109-35 76 0 99 45-7 62-8 200-9 114-63 146l-5-12 2-16-95-3q-2 9 7 18 8 7 0 13-39-4-63-54l-35-90 2-116q0-65 10-105l19-38q13-21 12-38l-9-6q-5-5-13-3l-22 48q-16 31-21 53l-3 32q-2 19-12 29l-12-12-10-13q-21 6-36-11-16-17-28-13-4 9 1 25 4 15 11 21l12-2q10-4 13 5 2 9-7 20-9 11-8 19 3 31 44 71 35 36 29 70-27-23-102-61-48-23-51-55 12-15 10-32l-10-35-3-24q-2-14-12-13-10-2-9 14l-3 20-20-6q-5-2-14 6l20 17q15 8 7 23l-17 2q-13 0-13 7-5 5 4 11 10 6 8 13-7 4-10 19l-8 21-61 8q-36 8-46 29l26 1 32-7q-3 11 2 22l4 20-46 13-46 12q-22 11-50 55-28 42-54 52 1-21 28-55 24-29 18-49-28 16-65 86-37 69-70 88-4-40 37-116 23-39 74-104 67-86 125-135 0-11 23-45 27-38 50-43 5-29 52-83 42-48 37-61-7-18 9-52l19-40Q732 42 895 30q109-8 208 35M944 319l37 5V309q-4 0-36-16-21-11-28 10l27 16m99-31q-37 14-37 40l47-6q25-7 26-22 2-27-36-12" fill="#fff"/><path d="M1220 288q21 18 26 84 6 71 20 90 95 32 126 50 81 46 113 128l67 176q68 172 107 200 12 32 15 85v99q7 64 34 131l49 107q-8 81 6 252-6 118-74 177-133 12-183-31 8-15 26-16l38 4q17-15 5-36-11-20-29-25-6-14 0-24l9-10q17 1 30 19 14 21 25 24 22-20 3-47l-37-38q26-118-30-166 15-20 35-4l35 26q12-22-12-61-14-23-31-40l-18-16-18-18-33-65q-19-40-44-57l-36-40q-16-20-13-43 17 1 32 13l26 21-47-88q-28-53-54-81l-3-67q16-17 8-49-11-40-8-52 28 8 46 60 19 52 43 62 2-27-21-66-26-43-28-68l-16-18q-8-11-2-25 14-2 21 10l12 20q12-2 16-8l3-16-14-21q-15-16-17-28-9-77-21-110-14-36-63-54l-72-29q-18-17-23-70-7-66-29-110-14-27-10-69l10-72m242 618q1 22 14 49 14 29 16 46 14 6 28 0l-17-60q-12-32-41-35" fill="#fff"/><path d="M1385 790q33-5 22 52l-19-22q-8-16-3-30" fill="#fff"/><path d="M1091 900l36 36q25 20 29 43l19 2 20 2q7 0 3-16-25 2-39-37-15-39 15-42-2 30 25 50l36 38-9 10h-18l3 37-7 33q-22 8-34-11l-18-38-39-41q-27-27-31-54l4-7 5-5" fill="#fff"/><path d="M1018 961q2 15-3 28l-9 21q20 26 27 69 8 44 0 90-9 0-9 3l-26-32q-15-22-29-29-34 28-71-34 6-19 22-38l27-32q18-2 22 6l19-29q9-25 15-32l8 4 7 5" fill="#fff"/><path d="M265 1028q-14 63-7 138 7 70 28 129 20 22 26 47l17 115q-18 28-25 74-6 44 1 85-12 18-23 17-9-2-14-14 3-47-4-84-8-36-5-66l11-63q7-38 4-56l-13-26-15-26-8-49-16-71q-8-27 1-81l14-90q25-25 28 21" fill="#fff"/><path d="M1137 1108q-11-4-18-28-6-25-15-30 15-32 32 4 16 36 1 54" fill="#fff"/><path d="M770 1566q44 71 79 99 53 21 78 55 31 41 27 107-34 19-55 92-18 58-58 52-10 0-23-18-15-21-14-40-17-3-19 11l-3 23q-7-4-13-20l-14-20q4-20 28-36l33-32q-4-2-22 8l-24-1q-1-12 13-20 14-7 11-20-44-20-61-43l-18 21-22 19-40-12-42-10q-2-18 21-18 23-1 28 12 29-6 49-26 20-21 21-47-15-19-49 12l6 11 9 7q-9 19-32 13-24-6-19-29l9-18q3-12-7-18-3-3-30 16-27 18-55-3 1-9 8-15l13-10q2-7-5-12-7-4-4-12l8-11 7-11q-8-7-16 2l-14 10q-6-18-37-35-31-16-37-35l23 3 29 9 21-7q11-7 4-17 1-9-6-14l-13-8q7-15 28-29l31-26q-1-26-15-53l-22-45 8-14 10-13q-8-40-40-64l6-14 10-11q-11-23-3-42 8-22 36-16l34 62q24 50 31 57 7-2 11-78 5-76 38-81 16 5 11 109l-6 166q13 54 59 128" fill="#fff"/></svg>