<?xml version="1.1" encoding="UTF-8"?><svg xmlns="http://www.w3.org/2000/svg" xmlns:xlink="http://www.w3.org/1999/xlink" version="2.0" width="100pt" height="100pt" viewBox="0 0 2000 2000" clip-rule="evenodd" fill-rule="evenodd" preserveAspectRatio="none"><path d="M528 1270q80-52 71-95l-8-30q-1-17 16-33l14 66q18 79 43 142 81 203 198 177 130-29 305-154 188-134 213-238 35-140 6-267-8-32-5-30l43 52q16 20 22 55 10 51-14 99-12 23 34 47l96 44q125 64 5 165-30 25-22 47l33 46q65 78 29 194-26 86-160 131-133 44-135-34-3-91-77-71-74 19-79 79-3 34 42 79 43 44 37 86-18 122-125 140-100 15-135-47-41-70 5-141 52-80 41-119-11-42-24-51l-33-3q-44 102-136 144-95 43-120-46-25-89-52-124-12-15-56-43-44-27-84-123-44-108 12-144" fill="#fff" fill-opacity=".8"/><path d="M943 91l172 57-18 190q56-12 102-54 52-48 66-98 10-40 23-14 12 22 13 47 3 73-43 194l-47 107-40-42L925 105 858 6H995q12 35-19 64-15 14-33 21" fill="#fff"/><path d="M120 178q-6-6-14-88l-8-2Q180 12 311 6 460 132 583 282 769 508 842 729q89 275 144 300 27 13 36-30 18-14 0-89-37-150-220-454-86-142-188-267Q521 76 440 6H770l20 22 85 105 3 4 75 109 176 266q87 129 124 195 54 95 70 165 27 116-27 216-51 93-163 161-165 100-206 115-105 38-144-45l-74-205q-43-125-96-178L503 860q-59-37-107-128 28-22 53-64 40-66 46-150 6-79-19-100l-26-6-23 20-57 42-21 9q-14 0-6-30 7-25-24-77l-33-48-52 48q-11-23-11-31V327l20-145-123-4" fill="#fff"/><path d="M4 274l112-3L93 423q-1 21 25 43l27 18 54-49 18 35q16 40 7 64-13 39 29 56-1-6 56-44l58-37 5-9-8 86q-9 67-43 119-21 32-46 52l-6 5L161 652q-31-29-33-62l4-27-28-10q-36-18-71-52Q9 477-1 440V349q0-45 5-75" fill="#fff"/></svg>