<?xml version="1.1" encoding="UTF-8"?><svg xmlns="http://www.w3.org/2000/svg" xmlns:xlink="http://www.w3.org/1999/xlink" version="2.0" width="100pt" height="100pt" viewBox="0 0 2000 2000" clip-rule="evenodd" fill-rule="evenodd" preserveAspectRatio="none"><path d="M1668 1047q-36-7-52-38l52 38q20 4 72 1l72 5-5-15q65 40 87 77 26 43 22 117-58-2-130-68l-118-117m-465 194 8 21q-18-22-22-37l14 16m-284-36 10 2q3-14-11-11 1-3 6-3l8-1v26l-10-8q-9-3-8-11l5 6m319 199 14 23q-11 68-41 88h-36l-30 4q-26-10-44-39l-26-57-25-3 28-26 16-33 30-1q14-3 14-17l48 14q29 9 44 19-1 15 8 28M716 1273q-46 50-81 70 23-34 81-70M458 1019q28-1 34 15l-85 4q0-18 4-22l47 3m188 180q4 22-15 30-17 8-36 0l-3-18-1-19q44-16 55 7m121-102-10 4-33 17 3 4h18l15-3 7-22m686-228v11h-11q-5 0-3-7l14-4m-91 7q0 12-11 22-6-2-2-12 5-11 13-10m213-488-8 18q-4 12-14 12l5-18 6-15 6 1 5 2m179 1233 28 28 40 24q24 15 31 30 28 57-28 33-59-26-53-58l-35-60-4-30 21 33m-22-954q-1-12 10-14l20 3q1 10-12 13l-18-2m47-414q-35 48-62 105-28 58-35 104l-8 70q-6 24-41 44l-13 8 7 3h10q2 10-6 14l-12 8q-9 49 25 53l81-2-76 15q-39 10-56 36 2 21 25 27l37 10q-6 13-23 5-25-11-35-9 1 10 12 17l17 13q-4 5-7 23-2 13-15 17-25-17-51-7 0 10 9 20 9 9 9 24l-19-23-10-14q-21-17-56-4-37 14-33 44-8 1-6-2l3-9-45 12q-31 6-47 14-1-6 3-9l8-6q-3-11-11-15l-18 1-6-11q-3-7 2-11-28 8-34 40l-3 59q8-6 33-7l33-8 31 29q17 20 24 41l-11-4q2 15 26 38 21 20 18 36 8 10 10 26 31 14 45 44l9 40q1 29 5 41 9 26 27 31l44 15q32 18 37 57 7 59 11 67l33 75q17 46 17 79-18-16-30-50l-24-54q-11-16-46-35-35-18-47-36l-27-61q-15-39-34-60-24-26-60-84l-17 4q-10 1-8 14l-25-14q-16-9-30-11l-23-42q-16-24-2-43l-11-7-11-7q-3-9 4-12l10-7q-2-10-17-6-13 3-12-16h-22q0 26-22 49-26 26-29 43-26 0-52 32-23 29-55 23-3 20-23 32l-36 19 9 7 2 12q-3 11-3-11-4 9-3 22l-1 26q-11-8-9-32 3-27-6-38-39 2-47 46-5 26-11 79 4 7 29 13 21 5 22 20l28-16q13-15 23-17-3 19-28 37-26 19-30 36l29 59q8 29 0 73l8 16 7 17q2 7-4 9l-7 6 28 7q14 5 16 18-22 52 3 63l-17 39-23 34q-52 2-103-14-2-7 4-9l7-6q-5-22-25-22-4-26 18-33 0-9-15-18l-13 18-16 18-33-10-33 3q-7-1-10-12l-8-14q-7 0-10 3l-88 239q24-82 15-233l-5-41-12-1-9-19-16-18q5-13-6-30l-20-25q8-18-1-39l-17-34 34-50q20-30 21-56l11-6 14-2q13-3 16-30 3-29 14-32-1-3-6-3l-9-1q8-13 1-26-9-16-8-29 10 3 22 26 6-1 2-10-4-7 5-5 0 8 6 3 9-7 16-3-8 5-2 6 8 3 6 12H789q1-3 11-3-12-7-17 4l-12 14q2 14 16 26l21 22q65 9 98-11 36-21 30-74-8-4-55-14-35-7-44-26-19 13-41 0v-22l-33 3-25 12 2 19 9 17q-25-21-40-52l-37 13-59 3q-34 0-56 12l-34 28-34 28-51 17q-33 9-51 21l-38 32-37 28-51 11-54 5-52 19-52 2 45-25q29-16 53-17 32-39 141-82l161-66 105-66 108-66-4-13q-75-4-161 18l-2-7-2-8q18 2 31-9l24-16 95 7q1-12-14-15l-26-3 12-18q9-9 6-23l-22-8-29-3q-26-18-96-19l-91-10q2-9 11-9 10 0 11-6 20 20 79 18l90 4 14-29-12-15q-10-8-10-18l17-4 13-7q6-39-16-81-18-36-50-62l35-28q19-17 42-20l57 6 49-6-34-24q-23-15-32-31l-13-1q-23-37-89-83L496 433 392 370 292 299q-47-40-39-82 9-41 69-64 62-24 97 28 26 39 33 108 3 32 19 47l41 32 38 40 43 33 51 12q34 5 47 16 17 13 25 46 10 41 17 52 24 37 50 35 22-1 39-29v-5h3q14-25 15-54-13-22-14-38l13 15v-4L800 379q-25-70-8-115l26 137q22 87 64 115l26 13 23 7 9-19q95 20 110-22l11 8q3 9 7 10l10-3 8-4-1-24q-3-12 1-20l9 1 2-5q12-2 16 17 3 20-12 20l6 27q2 15-6 24l30 27q18 16 40 17 10-6 12-47 1-36 21-37l-2-7-9-1 23-19q13-11 28-14-6-13 2-25l13-22q27 5 35-18l16-37 30 17q21 4 33-10l23 12 17 17 29-3 26-4q6 20 30 25l43 6 41-7 37-26 28-33q72-74 132-104" fill="#fff"/></svg>