<?xml version="1.1" encoding="UTF-8"?><svg xmlns="http://www.w3.org/2000/svg" xmlns:xlink="http://www.w3.org/1999/xlink" version="2.0" width="100pt" height="100pt" viewBox="0 0 2000 2000" clip-rule="evenodd" fill-rule="evenodd" preserveAspectRatio="none"><path d="M1731 686q-29-22-77-43l-85-30-88-29-45-16-7-4q-3 29 5 64l18 59 17 63-19 6-33-53-34-56q-37-72-22-145l22-66 20-56q9-31 6-43v-1l-1-2h-1l-7-4-39-14-56-9-67-10-39-12-32-13q-68-29-123-71l-10-7v59l1 145q4 55 26 135l21 74 10 42 8 35 21 14q17 9 30 6l-12 3 39 17q12 22 80 54l60 33q37 21 60 51l13 17 11 21q10 26 8 50l-7 37-3 22q0 14 11 51l6 21 47 47q29 22 120 57l69 30q38 20 64 46l13 14 13 19 14 36q13 43 29 57l-11 17q-18-9-31-27l-20-32-18-28-9-10-12-10q-24-18-57-31l-64-22q-95-29-140-61l-3-2-1 17-2 58q3 30 14 49 11 21 36 41l25 18 26 24 37 56 7 11 10 11 11 15 5 9 2 10-1 35v27l-19 7-4-35-1-28-1-4-1-1-3-5-21-21-11-14-37-46-50-34q-31-20-52-49-20-26-27-68-5-30-5-68l-2-60q-2-21-15-51-17-43-21-71l1-41 3-26-4-11-5-6-6-8q-23-23-92-48l-64-27-41-27-6 124-13 84-6 27 17 3q4 40 0 67-4 39-19 69l-23 32-27 23-8 4h-1l-3 7q-11 30-16 62-8 48 5 140l21 155q17 161 11 314l-3 61H996l-2-60q-9-147-40-302l-35-149-19-97-21 25-91 82 22 1q-10 101-4 138l11 74q3 47-9 83l-37 70-39 60q-20 36-21 62v13H686l-2-13q-1-33 18-77l34-67 27-62q7-25 0-62l-17-69q-10-41-11-79v-16l-9 13q-18 25-29 61-14 45-28 71-17 32-45 62l-15-13 33-61 17-69q7-43 24-76 12-24 42-66l48-58 47-55 39-61 33-35q7-4 13-9l6-27 19-73q17-69 25-144l3-70-2-73q-3-71-21-136L878 570l-10 5-57 39-66 45-39 21-99 33-11 13q-10 19-13 36-6 34 4 91l15 109q2 33-5 60-8 32-25 59-66 98-91 147l-2 9-8 23-17 21-10 22-12 46-8 54-15 28-12 11 2 3-7 3-57 13 40-29q19-13 21-35l1-51 4-37-29 9q-29 10-57 30l-52 44 42-55q24-28 54-46l53-34 7-8 3-11 2-3-2-18h9l34-77 53-93q20-34 15-82l-17-99q-14-67-7-114l-19 17q-10 8-8 44l-5 83q-3 21-16 46l-24 34-44 59q-58 81-109 111l-12-16q37-38 76-122l36-68 15-29 5-26-6-66-2-46q4-33 18-55 22-35 71-65 26-15 76-35l70-25q28-10 56-28l57-41q39-30 66-46l19-11 15-8-7-34-6-44-23-252-1 2-15 7-115 58-78 31q-27 21-43 41-17 22-32 68l-27 63q-21 35-77 77l-30 25q-35 31-86 111l-2 2-3 1-10 3q-5 0-8-4-5-6 0-13-2 4 4 8l4-4-1-3-1-1 1-2v-1h1q50-78 88-112l31-25q53-43 72-73l25-58q16-49 35-75l15-17-6 2q-99 21-121 29-61 21-91 73l-18-10q15-34 37-57 23-24 55-42 27-15 122-49 51-19 106-56l86-60 8-25L749 8h289l-2 42 28 12 24 7 38 27q34 26 95 56 36 17 47 19l57 12 68 17q47 14 75 37 23 17 36 42l6 14 2 3 1 4v1l4 21 1 14q-2 36-22 80l-31 59-10 18 52 19 88 37q40 18 71 40l75-7q86-11 136-1l-4 20q-47-10-129 1l-53 6q37 30 56 66l-16 12" fill="#fff"/></svg>