<?xml version="1.1" encoding="UTF-8"?><svg xmlns="http://www.w3.org/2000/svg" xmlns:xlink="http://www.w3.org/1999/xlink" version="2.0" width="100pt" height="100pt" viewBox="0 0 2000 2000" clip-rule="evenodd" fill-rule="evenodd" preserveAspectRatio="none"><path d="M1781 0 1497 783l-206 23L1531 0h250" fill="#fff"/><path d="M1331 1184l231-77 335 810q-38 37-103 63-42 17-95 20h-45l-323-816" fill="#fff"/><path d="M1842 579l90 46-275 143 185-189" fill="#fff"/><path d="M2001 1041v75l-310-75h310" fill="#fff"/><g transform="matrix(1.03 0 0 1.03 521 816)"><path d="M1413 30 22 312 0 240 1413 0V30" fill="#fff" fill-opacity=".4"/></g><path d="M609 853q20 100 82 153 113 97 518 104l-314 16q-140 19-203 81-62 62-82 204-12 88-15 284-3-196-15-284-19-142-81-204-62-62-204-81l-313-16q398-8 518-115 61-55 81-155 12-60 14-173 2 123 14 186" fill="#fff"/><g transform="matrix(1.03 0 0 1.03 210 710)"><path d="M633 109Q741 217 741 371q0 154-108 262Q524 742 371 742q-154 0-262-109Q0 525 0 371 0 217 109 109 217 0 371 0 524 0 633 109m40 262q0-125-88-214-89-89-214-89-126 0-214 89-89 89-89 214 0 125 89 214 88 89 214 89 125 0 214-89 88-89 88-214" fill="#fff" fill-opacity=".4"/></g></svg>