<?xml version="1.1" encoding="UTF-8"?><svg xmlns="http://www.w3.org/2000/svg" xmlns:xlink="http://www.w3.org/1999/xlink" version="2.0" width="100pt" height="100pt" viewBox="0 0 2000 2000" clip-rule="evenodd" fill-rule="evenodd" preserveAspectRatio="none"><path d="M1761 463q-4 17-32 51 19 24 60 40 63 330 140 580 5 15 12 13l8-11q-6 31-17 133-9 93-22 144-42 163-181 181 59-157 35-411l-24-208q-13-121-11-201l12-146q2-77-32-134-14 2-17 23l-3 37q-25 2-22-38 5-55 2-62 13-21 42-8 20 10 18-32 36 22 32 49m-72 111q47 25 40 120-36-30-40-120m-12 82q10 33 12 98l-42-47q-26-26-58-33 0-17 26-34 22-16 14-46 35 16 48 62m5 568q-3 83-73 110-83 7-232-25-114-12-148 85 10 37 139 23 144-16 181 17 27-6 70-31 41-24 70-29 43 57 31 133-10 69-60 126-51 57-116 71-72 16-135-30l-140 10-140 10q88-102 228-111 148-10 172 111 16-61 64-121 62-70 96-119-39 14-193 40-143 25-227 60-81-27-94-135-11-93 40-150-53 47-71 109-28 100 45 216l-86 74q-56 35-134 26-13-41-60-40-2-82 22-228 22-142 18-232-23-48-115-84-99-40-125-76-4 72 65 106l115 54q26 139 0 301l-60 259q-83-20-235-75-141-44-265-45l28 23q13 11-8 17-35 18-52-84-19-113-68-116 19 29 32 108 13 83 28 112-2 14-31 19-28 4-29 21-77-32-72-143 3-62-1-85-9-46-47-72 3-13 25-45 17-27 15-55-14-283 39-494 16-62 141-406 80 60 67 149-8 56-71 171-66 122-79 181-22 102 43 179 7 40-20 80-26 41-20 80-3 54 35 111 26 37-15 89 166-78 400-60-18-50-148-42-143 9-172-18 26-46 132-75 105-29 228-25 65 49 53 143-12 89-73 137h60v60q-64 6-60-60l-183-19q-112-9-177 19 36 39 112 43l140-3q84-2 124 22 55 31 64 118 16-20 20-169 4-147 40-191-23-23-50-92-17-44-110-88-21 15-40 7-23-10 20-7-19-43-19-100 0-56 19-100 106-33 225 21 77 36 175 119-20 74-21 259 0 188-19 261 55-13 50-114-15-127-10-186 4-39 24-109 17-60 16-91l264-26 276-14q55 51 53 130m47-50q-17-11-33-67-14-49-47-53-12-17 5-13l38 22q63 52 37 111m18 133q5 20 2 67-17 0-34-25-16-23-46-15 3-12 21-29 16-16 19-31 30 2 38 33M1584 329q14 36 5 85-68-1-115 66-78 110-105 134-59 6-161 40-81 27-139 20-93-11-222-138Q717 407 629 394V254q6 1 55 40 36 27 45 0-1 34 56 82l104 78q20-42 119 2 118 52 161 38 190-141 380-220 27 34 35 55M893 887q-47 29-116 19-65-10-110-47-47-40-38-85 17-16 78 18 68 39 122 22-26-71-149-121-138-55-171-99-17 15 5 81 26 77 15 119 22 23 78 53 44 32 42 87-132 7-200-20-30-104-28-180 1-93 48-160 116-26 220 23l96 49q63 31 124 48 5 63 40 80-2 79-56 113m227-124q125-11 269 71 44 8 97-49 45-49 63-31 16 100-41 132-44 23-146 11l-177-25q-98-9-136 22 44 93 250 91l270-11q-17 22-46 11-11-4 6 49-152 78-369 55-231-24-231-155 38-158 191-171m328-21q-128 53-299-8 36-30 118-42l142-18q38-9 81-59 43-51 79-61 8 134-121 188M541 296q28-5 28-22 48 9 38 56-9 37-38 64-29 5-35-34-6-43-25-46 2-14 32-18m-54 32q10 40-18 66l-43-48q-21-29 3-52 48-10 58 34M448 485q21 12 41 9 3 25-34 36-35 10-26 44-22-15-13-42 10-33-7-58 17-1 39 11M332 652q3 20 17 22-1-8 27-47 21-30-7-33-6 24-40 20l3 38M315 840q47-79 54-126 46 92 31 174-19 99-131 86 3-61 46-134m234 214q-78 26-121 32-106 16-159-32 107-48 173-62 111-24 167 22 32 130-73 193-98 58-167 7 14 20-35 41-49 22-65-1 29-41 149-91 109-44 131-109m862 190q83 8 178 50 20-2 23-37 4-38 17-43-67-47-174-40-106 6-192 59l-30 21 178-10" fill="#fff"/></svg>