<?xml version="1.1" encoding="UTF-8"?><svg xmlns="http://www.w3.org/2000/svg" xmlns:xlink="http://www.w3.org/1999/xlink" version="2.0" width="100pt" height="100pt" viewBox="0 0 2000 2000" clip-rule="evenodd" fill-rule="evenodd" preserveAspectRatio="none"><path d="M1043 1998H991l25-129 27 129" fill="#fff" fill-opacity=".6"/><path d="M738 396V326q1-12-8-21-9-9-21-9h-1q-12 0-21 9-8 8-9 21v70q0 46 46 241l44 250q5 26 21 51-9 53-11 105-3 82 14 127 50 134 48 183-1 43 87 280l-38-33-95-70q-71-45-94-79l-35-45q-24-27-38-50-21-37-45-103l-26-77q-45-133-70-183-42-86-93-105l-87-34-23-2q-12 4-17 15-6 11-2 23 4 12 15 17l93 37q33 12 68 91 23 49 59 160l26 78q26 73 52 115l43 58 30 38q19 28 49 53l61 43q49 32 90 66 79 65 122 122l-41 223-1 7H754l-10-55q-9-44-38-94l-51-77-50-93-54-109-79-118q-52-74-51-101 2-34-8-86l-25-89q-9-24-33-65-23-39-31-63-11-33-42-76-28-41-46-54l-32-26q-14-17-2-43 13-29 46-37l84-2q50 4 93 33 37 24 76 71 47 58 137 241 10-6 28-48 12-28 24-96l13-100q4-43-44-241L633 526q-18-114-23-177-6-65 21-106 22-36 62-46 34-9 65 36 29 42 27 85-2 30 16 102l23 106q3 31 24 91 21 64 26 94l10 69q6 23 36 41 29 18 33-9l-1-67q2-42-19-269-8-71 0-284 1-36 29-65 22-23 44-28l59 2q42 15 39 65-4 66 7 251 2 36 15 97l15 83 6 126 7 101q3 11 21 7 18-4 25-21 7-17 22-105l21-136q23-186 27-260 5-120 101-116 35 1 48 29l11 45-10 104-13 103-14 250q0 36-23 168-5 33 25 43l31 4q81-116 111-190l43-136q30-87 70-115 44-30 77 8 29 33 25 64-4 30-69 209-96 226-131 286-16 27-28 129l-20 196q-10 80-68 231l-85 221q-15 49-10 156H1214q3-86 15-162l11-109q3-74 23-163 20-91 52-170 85-216 116-233 24-10 51-49l57-98 24-42q21-36 85-203l64-169q5-11-1-22-5-11-17-16l-23 1q-11 5-15 17-119 317-146 362l-24 44q-58 111-77 119-29 12-59 66-62-48-85-90-31-56-7-121l4-12 42-156 24-110 36-356q1-12-7-22-8-9-20-11-12-1-22 7-9 8-11 20l-35 351-25 112-38 145-4 9q-11 24-62 89-74 93-95 145-11 28-19 61l-9-47q-14-47-14-119 43-100 54-168 8-51 9-121 1-78-8-135-11-69 1-387 1-12-8-21-8-9-20-10-13-1-22 8-9 8-10 21l-4 175q-3 175 4 224 8 53 7 125l-8 112q-6 37-39 126-77-52-113-99l-3-5q-13-17-16-34L783 625q-45-193-45-229" fill="#fff" fill-opacity=".6"/><path d="M1180 1724l-11 104q-12 81-15 170h-50q-17-100-40-181-10-33-29-63l11-66q31-66 60-105 54-67 125-132-46 149-51 273" fill="#fff" fill-opacity=".6"/><path d="M960 1203q8 26 10 142 3 108 10 132-4 47 9 134v15q-89-234-89-271 2-36-12-89l-40-117q-17-45-7-151 46 42 102 78 3 82 17 127" fill="#fff" fill-opacity=".6"/><path d="M1317 1222l4 2q-69 127-130 183-83 74-132 140l-10 13q0-54-8-89l4-17 20-100q14-105 36-161 16-41 85-129l6-7q12 54 57 104l68 61" fill="#fff" fill-opacity=".6"/><path d="M943 1076q-56-36-102-78-10 106 7 151l40 117q14 53 12 89 0 37 89 271v-15q-13-87-9-134-7-24-10-132-2-116-10-142-14-45-17-127m249-19-6 7q-69 88-85 129-22 56-36 161l-20 100-4 17q8 35 8 89l10-13q49-66 132-140 61-56 130-183l-4-2-68-61q-45-50-57-104M678 396V326q1-13 9-21 9-9 21-9h1q12 0 21 9 9 9 8 21v70q0 36 45 229l44 252q3 17 16 34l3 5q36 47 113 99 33-89 39-126l8-112q1-72-7-125-7-49-4-224l4-175q1-13 10-21 9-9 22-8 12 1 20 10 9 9 8 21-12 318-1 387 9 57 8 135-1 70-9 121-11 68-54 168 0 72 14 119l9 47q8-33 19-61 21-52 95-145 51-65 62-89l4-9 38-145 25-112 35-351q2-12 11-20 10-8 22-7 12 2 20 11 8 10 7 22l-36 356-24 110-42 156-4 12q-24 65 7 121 23 42 85 90 30-54 59-66 19-8 77-119l24-44q27-45 146-362 4-12 15-17l23-1q12 5 17 16 6 11 1 22l-64 169q-64 167-85 203l-24 42-57 98q-27 39-51 49-31 17-116 233-32 79-52 170-20 89-23 163l-11 109q-12 76-15 162h-60q3-89 15-170l11-104q5-124 51-273-71 65-125 132-29 39-60 105l-11 66q19 30 29 63 23 81 40 181h-61l-27-129-25 129H930l1-7 41-223q-43-57-122-122-41-34-90-66l-61-43q-30-25-49-53l-30-38-43-58q-26-42-52-115l-26-78q-36-111-59-160-35-79-68-91l-93-37q-11-5-15-17-4-12 2-23 5-11 17-15l23 2 87 34q51 19 93 105 25 50 70 183l26 77q24 66 45 103 14 23 38 50l35 45q23 34 94 79l95 70 38 33q-88-237-87-280 2-49-48-183-17-45-14-127 2-52 11-105-16-25-21-51L724 637q-46-195-46-241" fill="#fff"/></svg>