<?xml version="1.1" encoding="UTF-8"?><svg xmlns="http://www.w3.org/2000/svg" xmlns:xlink="http://www.w3.org/1999/xlink" version="2.0" width="100pt" height="100pt" viewBox="0 0 2000 2000" clip-rule="evenodd" fill-rule="evenodd" preserveAspectRatio="none"><path d="M1261 1408l-6 14 4 17-7 69-3 34 47-23-18-54q-12-34-15-56l-2-1M765 1548l-12-67-30 50 42 17M1245 483l-57-29-93 119q12-113 8-142L984 418q-94-6-213 43-11 4 27 91l39 85q-40-33-83-62-86-60-99-50-87 68-151 177-32 54-51 109-5 14 99 67l104 48-114-4-116 9-5 71q0 74 25 156 11 98 61 178 34 55 77 100l36 33q-14-78-14-122 0-72 28-116 40-61 101-87l86-32q61-26 65-52 5-31 3-69l-3-76q0-3-12-8-13-6-19-44V839l2-13 13-6 1-46q4-52 21-80 18-28 58-40l56-7q46 2 73 27 36 34 46 120l-1 32 8-1q8 3 7 25 0 19-11 42-11 22-12 14l-3 9q-6 27-7 69-2 52 9 67 35 47 113 65 53 12 84 28 54 28 67 77 13 47 11 110-2 66 7 106l3-4q70-66 106-153 47-92 48-195 15-70 14-138l-160 55-106 31 263-129q-13-111-71-201-34-53-77-96-7-8-127 72-59 39-118 81 177-213 162-224-27-19-89-53M-10 807V685q314 107 317 93 60-228 246-376L168 31Q238 0 326 0H500Q668 277 697 313q140-66 300-66l141 14q62-191 98-261h147q-49 117-138 292 104 37 193 108 181-210 354-388 83 21 137 81 27 32 45 73-178 160-423 345 116 144 148 322l308-181V814q-195 51-298 90l1 56q0 173-78 325-74 146-207 246 22 56 25 91l65 27q83 35 153 72 38-25 72-17l66 16q26 1 53 23l-49-3q-25 1 44 17 68 17 63 25l-19 5-94 2-198-19q-90-14-163-38-69-21-75-35l-14-35-22-43-3-2-11-19-75 32-6 165q28 43 35 109 11 37 16 96H742q-10-37 4-80 8-27 35-77 3-53 12-102l4-7q-5-40-7-91-45-13-83-30-15 42-38 68l-18 29q-15 22-43 17-43 22-112 34l-121 17-105 24q-75 8-157-1-26-5 3-24 31-19 91-20l-47-5q-19-9 33-19l75-11 38 2 47-2q45-11 113-48 87-45 110-55l1-6q11-39 21-61l-15-10q-139-100-217-250-83-155-83-332l4-71q0-6-297-82" fill="#fff"/></svg>