<?xml version="1.1" encoding="UTF-8"?><svg xmlns="http://www.w3.org/2000/svg" xmlns:xlink="http://www.w3.org/1999/xlink" version="2.0" width="100pt" height="100pt" viewBox="0 0 2000 2000" clip-rule="evenodd" fill-rule="evenodd" preserveAspectRatio="none"><path d="M1669 4q168-3 252 92 55 64 70 165-35 2-74 18-70 29-113 90-23 32-15 122l17 188q3 57 37 138 26 63 11 144-17 93-89 101-69 8-104-69-18-40 11-131 39-124 39-251l-4-107-6-120q-1-36-52-69-45-29-85-34l-92 10q-61 17-83 48-20 28-22 123l-1 152q-21 355-17 492l-2 150q4 82 42 155 44 85-5 217-49 131-115 116-63-14-77-121-13-100 22-197 26-75 43-273l12-184 3-311q-1-319-20-365-27-64-132-89-117-29-237 25-41 19-58 66-10 29-13 82l-3 53q-1 32 7 124 8 88 26 135l24 60q8 38-44 80-55 45-99 17-38-24-31-72l24-173 12-181q3-55-5-81-32-105-198-101-68 2-120 25-55 23-64 58-9 37-16 108-7 80-1 125l-3 164q-6 147-2 230 5 107 12 136l33 82q30 70 21 145-10 82-64 78-55-4-71-64-14-54 7-136 16-61 8-167L254 864q1-45-12-102-14-65-16-136-7-320-113-344Q60 269 9 321l8-64Q30 155 101 89q51-48 127-73L331 4H1669" fill="#fff"/></svg>