<?xml version="1.1" encoding="UTF-8"?><svg xmlns="http://www.w3.org/2000/svg" xmlns:xlink="http://www.w3.org/1999/xlink" version="2.0" width="100pt" height="100pt" viewBox="0 0 2000 2000" clip-rule="evenodd" fill-rule="evenodd" preserveAspectRatio="none"><path d="M545 1533q-34-34-82-34-49 0-83 34-34 34-34 82 0 49 34 83 34 34 83 34 48 0 82-34 34-34 34-83 0-48-34-82m289-75h737q109 2 146 102 19 50 16 99v103l21 23q20 25 21 37 1 12-49 7H215l-33-7-3-6 72-54 2-122q-4-45 16-91 41-91 165-91H834m82 75q-34-34-83-34-48 0-82 34-34 34-34 82 0 49 34 83 34 34 82 34 49 0 83-34 34-34 34-83 0-48-34-82m505 78q0 49 35 83 34 34 82 34 48 0 83-34 34-34 34-83 0-48-34-82-35-34-83-34-48 0-82 34-35 34-35 82m-130 0q0-48-34-82-35-34-83-34-48 0-82 34-35 34-35 82 0 49 35 83 34 34 82 34 48 0 83-34 34-34 34-83" fill="#fff"/><path d="M436 284l5-6v-1q4-10 17-9l16 10 16 45 10 38q13 34 21 91l11 93q25 156 22 281 17 15 30 42 14 29 27 42-10 102-10 236l5 236H455l-6-76-2-31-3-64q10-78 1-160 3-70 15-123 5-21-17-27-22-7-27 15l-1 7-3 3 1 12q-18 96-15 222l12 223h-6q-43 1-81 22l1-531 26-32 13-32q-1-221 64-516l6-4 3-6" fill="#fff"/><path d="M797 294l5-4 3-6 5-6v-1q5-10 17-9 11 1 16 10l27 83q13 34 21 91l11 93q24 151 21 281 17 15 30 42 14 29 27 42-10 103-10 236l6 237-152-1-11-171q12-78 1-160 3-61 15-123 5-21-17-27-22-7-26 15l-2 7-3 3 1 12q-18 96-15 222 1 47 13 222H693l2-254-2-254 26-32 13-32q-1-216 65-516" fill="#fff"/><path d="M1206 361q13 34 21 91l11 93q24 151 21 281 17 15 30 42 14 29 27 42-10 103-10 236l6 236-152 1-11-172q12-78 1-160 3-61 15-123 5-21-17-27-22-7-26 15l-2 7-2 3v12q-18 97-15 222 1 46 13 223h-87l2-255-2-254q16-13 26-32l13-32q-1-216 65-516l5-4 8-12v-1q5-10 17-9l16 10 27 83" fill="#fff"/><path d="M1596 452l11 93q24 148 22 281 17 15 30 42 14 29 26 42-11 110-9 258l6 258-60-33q-25-9-55-11h-37l-6-76-2-31-3-64q11-80 0-160 6-75 16-123 5-21-17-27-22-7-27 15l-1 7-3 3v12q-17 96-14 221l12 223h-87l2-254-2-254 26-32 14-32q-1-221 64-516l6-4 2-6 5-6v-1q5-10 17-9 11 1 16 10l27 83q13 34 21 91" fill="#fff"/></svg>