<?xml version="1.1" encoding="UTF-8"?><svg xmlns="http://www.w3.org/2000/svg" xmlns:xlink="http://www.w3.org/1999/xlink" version="2.0" width="100pt" height="100pt" viewBox="0 0 2000 2000" clip-rule="evenodd" fill-rule="evenodd" preserveAspectRatio="none"><path d="M390 78l19 14q10 10 9 25L390 78" fill="#fff"/><path d="M873 113q-6-2-8 4-1 7-8 4l4-43q9 1 10 14l2 21" fill="#fff"/><path d="M1043 93q7 14 0 34-7 20-4-22 4 0 4-12" fill="#fff"/><path d="M826 288l-16-4 3 12 1 15q-31-32-32-91l27 29q13 18 17 39" fill="#fff"/><path d="M113 509q12-4 30 8l26 20q-11 4-28-9l-28-19" fill="#fff"/><path d="M1376 561q-7-3-3-10l3-14q9 2 6 10l-6 14" fill="#fff"/><path d="M1182 620q3-15-6-22l-18-10 22-29q14-15 33-18 18 22 7 49-10 28-38 30" fill="#fff"/><path d="M1463 632q-6-4 1-14 7-10 15-10l-8 13-8 11" fill="#fff"/><path d="M1582 644q8-16 19-24 7 5-2 15l-17 9" fill="#fff"/><path d="M1316 632q-1 13-11 22l-20 13q-1-15 9-20 11-4 11-15h11" fill="#fff"/><path d="M307 774q31 7 36 28l-22-9q-12-7-14-19" fill="#fff"/><path d="M252 1012l-53-1-54-3q16-11 52-7l55 11" fill="#fff"/><path d="M236 1119l-24 4-24-4 65-6 62-2 35 3q25 1 24 5l-69 4-69-4" fill="#fff"/><path d="M141 1119q2-5 15-5l20 1-17 7-18-3" fill="#fff"/><path d="M176 1138l-14 8-17-4 16-5 15 1" fill="#fff"/><path d="M267 1138l24-4 24 4q-2 8-24 10-23 1-24-10" fill="#fff"/><path d="M73 1186l22-5 26 1q-1 12-17 15l-31 1v-12" fill="#fff"/><path d="M244 1237q-33 1-6-5l33-3q-1 5-13 5l-14 3" fill="#fff"/><path d="M952 1657q7 0 6 21 0 21-10 26-4-4 0-20l4-27" fill="#fff"/><path d="M1423 1431l18 17q11 11 18 7l-18-16q-11-12-18-8m0-79 4 4q-5 0-4 4l14 1-6 7q6-2 9 3 4 5 7 5 3-10-6-18-9-9-18-6m-13-503 9-11q-16 1-24 15l15-4m413 48q-51 2-71 24l71-24m16 20-14-1q-9 3-14 9 24 0 28-8m-345-81-7-10 23-24q-19 7-41 24l-30 23-7 2-1 16-6 10q16-3 25-11 11-11 5-24l10-2 10-2q3 6 14 9 12 4 17-5-7-1-12-6m-63-6q42-17 59-44-41 22-59 44m-67-32 13-16 11-20q-25 6-24 36m-36 8 4-8 4 4q-2-5 3-12 3-6-3-8l-10 10q-6 9 2 14m-29 27q5-11-2-15l-6 12-6 12q8 2 14-9M1146 347l-4 18q-5 10 0 13l11-15q4-13-7-16m12-32q8-15 0-16-6 8-3 28 3 23 3-12M826 1633l10-15 9-16q-9 2-17 13-7 12-2 18m59-103-21 48q-10 27-7 51 0-17 18-55 16-32 10-44m158-35q8 0 10-8l2-16-12 24m-36-4 4 4q1-7 8-2 8 5 8-2l-8-6-12-2v8m-32 20q6-16-7-20l-6 20q-4 13 2 19l11-19m-360 19 9-12-20 16q-13 9-8 16l19-20m36-80q11-8 4-15l-12 12-11 12q11-3 19-9M314 1230q-8 1 5 3l74-7 68-12q0-10-8-8l-64 14-62 9-13 1m160-227q-15-2-21 5 22 8 36 8 1-10-15-13m-3-135 26 5-7-6-5-10-24 2-19-2 29 11m30 109q5 0 0 7h12q2-9-3-12l-13-4q4 7-6 9-8 1-2 3l12-3M279 1364q-1 7 4 9l8 3 8-12q11-4 1-3l-21 3m767-720q-4 4-11-4-2 8 4 12-66 46-106 132-38 83-40 177-22-12-33-43l-15-61q-75 64-122 164-55 117-38 228 29 94 95 151 73 61 179 66-64-42-68-118-4-65 34-123 7 31 34 66 24 32 46 44 22-28 32-64 15-49 2-97 103 54 105 141 1 84-91 151 139 4 220-107 75-104 61-246-9-78-72-175-80-122-89-145-16 14-26 70-10 53-30 66-48-35-58-131-10-82 10-166l-16 11q6-10-2-15l-5 16M873 355q-9 22 12 23 3-18-12-23m-4 43-5-27q-3-15-11-20 0 37 16 47m226 95 8-12 7 63q4 44-23 40 3 10-7 20-8 8-1 16 11 2 19-16 5-12 12 4V596q-1-8 4-8 5 3 4 18-1 16 4 18 0-12 11-51 9-31 1-52l-4 15-12 9V517l6 3 6-3V489l-7 3-5 5V473q0-14 8-15 2 18 8 23l9-19 7-20-23 6q-12 1-17-10 21-41 8-36l-25 41q-12 26 2 50M916 402q0-8-11-12-14-4-16-8-4 5-2 18l2 18 7-3 1-9q6 4 4 18-2 12-8 14l-13-9-15-7q-6 2-3 7l3 13q-10 0-14-15-3-13 2-21l-15-15q-8-11-5-28-11 23-1 45l17 42q-20-5-16 16l-17-4-14-12q4 26 19 64l22 60-13 2-18-47-18-48q-4 7 7 41l13 46q2 9 12 8h4l19 20-6-22 14-2q11 15 24 8-10 2-12-10l36-5-11-12-9-12q-3 0-5 11-1 9-11 5v13l-12 2q-10-12-13-28-3-16 5-15l-15-15q-9-8-1-21 9 1 14 13 4 13 10 15 7-1 2-12-5-10 2-12 5-5 9 0l7 8 10-20q6-14-2-23l12-10q8-5 4-18 4 1 5 12 0 9 7 8 14-14-8-40l5-6 6-6m151-27-3 20q-3 11 3 15l4-19q3-12-4-16M481 747q10 17 36 31-5-16-36-31m-84 66q7 6 17 5-1-8-13-14l-15-2 11 11m91-207-19-2q9 4 40 47 22 32 51 16l-3 7q-2 4-1 9 20 5 42 27l37 29q0-8 11-16 8-6 1-16l12 4-6-13q-5-7 2-11l20 16q-13-8-16-27l-8-32q-5 5-1 8 6 5 5 11-27 1-12 32l-8-6-11-2 12 15q8 9-1 17l-66-48q-40-29-68-39l4-12-17-14M374 557q-10-33-57-63-51-33-61-52l-19-1q-10-7-13-3l73 61 77 58M327 450q9-18-9-42-18-23-39-26l8 9 4 11-8-1-4 1 23 25 25 23M584 568l-10-15q-6-10-14-12 0 11 10 21 10 9 14 6m-63-31-18-20q-11-11-22-16l18 25q13 13 22 11M679 418q-2 13 8 24 19 12 11-1l-19-23m-20-32 3 9-3 11q6-2 9 3l7 5-7-20-9-8m-24-99q2 21 14 42l22 34 17 31q9 16 19 20l-34-65-38-62m395 49q-3-12-11-17-11 29-7 79l11 79 4-10q0-8 4-9 14 11 21-28 6-38-5-52-6 7-9 27l-7 29q-4-10-2-32l2-31q-3 21-8-4-4-22 8-20 1 24 4 12l-5-23m-87-5q-9-21-22-20-10 10-8 32H889q-2 43 32 43l2-20-2-27q8 1 13 13l10 15-13 47q-3 26 25 32 7 1 9-5l3-11q18 11-1 32-25 25-11 51H940q-3 13 8 24 10 12 8 24h16q-2-14 8-20l20-8 11 39q6 1 4-9-1-11 4-10 12-1 14 18 2 19 10 21l5-23-1-28q-43-16-48-109-5-113-19-137-19 8-5 30 16 26 5 38-10 4-11-5l-5-11q-6 3-2 11 4 10-2 13l-17-40m20-70q13 2 5-13-3 8-12 8l-5-19q-2-14-7-17-5 23-4 32 12 8 23 9M873 121q20 23 28 80 8 64 20 86 14-13 4-55-11-42 7-59 18 11 40 8 3-13-2-41l-6-47q18 4 21 31l3 49q8 2 8-6V153q9 5 13 30 4 25 14 29l-3-31q-7-26-4-40 9 2 14 16l9 20 5-12-1-16q15 5 12 28l-4 39q27-8 20-65-8-64 4-77 8 3 8 33 0 36 4 46 8-32 14 16 6 47 2 71l9-3 6-5q-6-32-2-79l6-79q13 34 8 95l-12 95q3 10 9 5l11-1q4 20 1 39l-9 36q15-9 19-45l5-66 1-32q0-19 3-27 12 17 8 57l-4 65 5-23q0-16 7-20-7 232-40 372 8 13 31 25l33 3q5 14 19 15l13-15q6-11 15-12 4 7-7 18-13 12-13 21l6 1q5-8 10-5l-5 7q-5 3-3 9 2 7 10-4 8-10 10-4l-4 16-4 16 16-10 12-14 9 9 11-1 2 21q2 15-10 15l13 21 22 2q-9-10-2-23 6-12-2-20 9-4 14-21 4-15 18-19l7 3 5 5 41-44q24-36 38-47 1 19-22 46l-33 45 39-21q26-14 52-22l28-35 31-33q7 18-12 38-23 24-24 38l50-47q29-33 53-44-9 21-53 60-38 34-42 62 17-3 33-22 17-21 31-25l-23 33-25 30 86-64q53-44 88-63l-87 91q-58 56-83 95l24-4q9-21 41-38l50-29-8-4 17-16 15-19q5 1 0 9l-6 9q137-94 255-149l-30 25-29 27 24-14 23-14q-14 23-50 46l-65 37q-108 66-150 107-20 0-34 13l-17 22 3 8q124-86 270-178-4 12-28 29l-40 27q-26 25-76 55l-82 51-4 12-4 12q6-7 43-14l24-2 16-12q33-33 102-67 109-55 116-59-31 27-117 74-80 43-113 76l-8-2-8-2-14 12q-7 7-5 20 8 0 6-7-1-7 6-9 10 0 4 5-7 8-1 11l44-13q19-5 20 13 12-8 28-4 20 5 31 0l-17 11-22 5 37-4 38-12q-16 16-58 31-46 17-61 28 31 2 96-21 64-24 86-22-54 20-79 32 3 6 10 3 10-5 14-3l-2 6-2 5 35 4q14 6 28-4l15 7q8 5 9 13-15-1-44 12l17 1q13-7 19-5-34 25-75 28 14 8 59-8 2 12-24 20l-43 12q1 9-7 15l-25 4 10 6 10 2q-20 9-80 22-53 11-74 26l65-11 69-9q-27 17-72 29l-82 19 39-4q28-8 36 4-13-1-44 9l-43 10q-4 1 2 11l10 13q-6 8-13 0l-11-12q-6 0-18 6l-18-2 7 6q4 3 1 10l-14 4-13-4q7 12 24 6 22-8 31-6 0 13 17 24 17 10 31 8 8 1 3 6l-11 1q3 14 32 18 30 4 35 14l-17 2-23-2q2 8 7 6l13-2q2 6-4 8 4 0 12 6l16 2q3 13-31 10l-52-6 100 21q63 11 86 34l-72-4 21 7 23 5-59-5-64-11 83 27q52 16 80 29l-37-2-43-6q43 22 155 44v19q-195-61-301-83l122 39q83 21 119 40 52 9 20 4l-119-27-122-32q29 20 94 40l100 35-123-33q-87-30-127-38 7 10 7 21 1 12-10 15l27 15-26-4q-19-11-29-11l-5-15q-5-8-3-17l-12 2-12 2 28 20q0 5-8 4h-12l75 40 79 35q-29-1-73-22-60-30-73-34l-48 3q-40-21-47-22 63 50 87 63-8 5-21-6l-23-14 15 20 17 24-21-13-22-11q-2 9 5 17 9 10 10 18l5-5 7-2q9 31 59 64 62 41 76 58l-44-12 8-4-115-75q26 37 96 88 72 53 98 86-16-2-42-25-30-28-45-34-6 2-3 9l3 11q-24-17-62-53l-60-54 6 43q5 23 21 40l-6-2-6-2 44 59q-12-3-33-26l-34-33 64 88 55 78 10 12-3 15q5-6 3 4-3 12-10 13l9 11q7 5 6 13l-9 4q-7 1-10 4 4 45 27 83-6 3-17-20l-18-36-20-36-20-31q11 37 35 79l44 71q0 4-9 4-10 1-11 4-26-12-48-47l-35-60q-5 2 0 8l4 12-49-81-50-81q5 22 24 54l32 53 63 107q-5 8-9-3l-7-17q-11-4-24 0-19-43-67-119-15-2-16 8-7-2-13-16l-14-16q48 99 67 178-13 2-28-21-17-26-28-30l23 41q15 24 17 46l-44-63-39-68q-3 14 10 36l22 32-11 7-13 5q-1 9 6 19 7 11 6 20-36-24-60-86l-39-108-21 9q-12 6-3 15-19-6-44-51l-42-71q-29-50-38-87l5-13-10-18 5 31 1 29v34l-10 2 2 13-6-1-5-3q10 10 6 25l-6 31q-9-4-8-26 0-25-4-30l-12 8-5-7-3 28-8 39q-2 24-4-24l-4-67-12 173q-6 111-16 167-10-40-2-117l10-124-4 8q-6-23-3-62l3-65-28 138q-5 37-8 114-4 70-23 108 3-44 21-179 15-109 14-185-11 0-11-4-7 9-12 28-12-5-7-20l7-24q-10 7-13 31l-7 36q9 4 8-7 0-11 8-8 2 21-12 47-14-14-9-44l9-59-10 11q-7 4-6-11-9 15-20 67-10-10 4-43-9 1-13 18-4 17-14 18 3-19 16-50l15-49q-26 28-44 94l-31 107q-7-6-3-20l3-23q-15 20-33 64l-30 67q-4-17 7-43l20-41q-2-10-7-11-3 4-11 30-9 26-21 41-6-23 8-49 4-8 27-38l-8-20q-5-10 1-20-9 6-13 23l-7 29q-8 1-8-8l-36 73-47 81q-2-10 7-29l16-30q-5-4-23 0l58-106q35-63 72-92l7-40 9-35-15 1q-9 5-9-9-10 4-18 17l-13 22q-4-7 5-21l15-22q-8-1-29 13l-15-1q-11 1-10 10l-2 17q-8 1-6-2l2-10q-13 14-36 10-24-4-31-21-25 21-59 56l-56 58q12-22 51-60l60-62q-23 9-62 52-41 45-65 58 14-22 47-52l48-50q-67 44-138 138 12-1-2 14l-26 18q4-7 0-8l-35 32-36 31 74-81 80-85-109 98-113 104q-6-5 0-14 6-8 0-14-14 4-45 32l-53 35q50-45 188-154 121-96 184-158-21 5-43 28-24 25-40 31l13-13q9-9-2-11l26-25 26-26q-14-7-36 9l-39 22 75-63q-5 0-31 15-24 14-37 9l-18 19q-18 10-33 5l8 4q-16 5-42 19l-45 24 7-15-15-1q-2-8 8-8h16q-9-2-10-10l-10-9 32-24-10-13q-4-7 6-15l-10 8-10 8q-11 0-5-5l9-11-16 1-20 7v-12q-1 4-12 4-11-1-12 4-6 0-9-10-3-10-10-10 0-5 12-4 11 1 7-8l-18 2-21 10 18-21q7-13-2-18-5 0-10 10-5 11-14 13-10-15-35-6-30 11-40 6 0-7 9-11l11-8-4-2-8 2 15-13q9-8 16-3l-2-8-2-8 36-12q24-6 32-16l-40-4q12-13 52-19l20-24q12-14 31-12l-34-1-37 5q33-15 95-28l-2-8q-2-3 2-4l-142 18-151 18q1-5 13-9 10-3 7-15l69-7 69-9-12-4q24-15 105-24 75-9 93-27l-281 28q50-15 146-24l147-20-71-6-79 2q14-8 54-9l56-7-53-3q-42 2-53-13l55-2 51 2-22-10-29-5q-5-3 10-6l22-2q-2-5-16-4-14 0-16-4 1-6 8-8h16l-54-7-57-5q2-3 11-5l13-3q-14-7-39-11l-44-5q29-7 88-1l94 13 4-7q1-8 4-9l-31 2q-19 6-17-10l-151-8-142-11 79-7 76 7q1-12 22-12h45q-4-12-34-18-28-5-29-22l91 6 94 10-29-14-30-14 52 6 55 2-57-16-58-15 40-2 43 6-55-18-55-18q57 0 150 28l-50-22q-31-12-37-34 38 22 95 44-7-27-74-58-65-29-69-73l-51-32q0-9 8-11l-25-15-23-17q6-8 15-2l17 6q7-2 3-6-5-7-3-10 23 4 51 24l48 27-18-16q-13-7-14-19 17-1 30 12l22 19 2-4-2-7 18 3 17 5q-7 12-16 11l14 14 14 14q-11 4-31-7l-32-17q8 14 38 36l49 36-3 7-9 1q-2 8 7 11l13 4q-1-14 12-12l28 8q2-13-12-15H505q8-9-1-16-4-3-19-8l12-9-8-19 15 8q8 6 17 4-14-24-50-48l-57-39q-26 1-55-31-34-38-52-44l-3-9 3-7q-43-39-113-87L73 454q35 7 83 39l80 52q22 0 40 17l31 26 4-3 1-8q-55-55-92-48-23-32-61-66L89 406l11-1 13 5-18-13q-11-10-22-11V355q27 9 63 42 37 35 60 45-31-42-91-91 15-2 36 18l35 29q4-6-11-15-16-10-16-20 25 9 47 39 48 15 101 62 69 61 89 73-14-29-65-62-51-33-65-61-21-3-38-20l-26-31q-2-8 2-12l6-8-13-15q-10-8-11-17 31 2 56 25l43 39 2-5q-3-4 2-7 13 1 25 15 13 14 23 16 6-3 0-11-6-9 0-12 7 6 28 13l27 14q3-5-10-16-16-11-14-23 18 2 33 24 16 24 31 27l-40-59q16 2 32 21 15 19 20 42l28 21 27 23-10-39q-8-20-34-21-7-24-63-60-47-30-43-70l14 3 17 1q45 74 87 110-1-9 10-2l18 14-5-12q-10-10-3-15l17 10 15 13-2-24-2-27q6-6 19-5 12 0 16-7 7 0 13 7 6 7 15 5l-16-21q-16-16-15-31-4 0-9 3l-7-3q4-6-12-26-18-23-16-41 8 1 13 15 5 13 15 13 1-11-6-22-6-12-6-22l7 9 9-1q2-9-7-13-8-5-5-14-9-4-8 6 0 10-4 9-11 0-2-10 11-13 2-17 6-6 13 5 8 15 15 14 0-9-8-19-8-10-8-20 18 31 49 64l54 59q6-5-2-18-7-14-2-18l5 6q2 7 7 6l-22-57q-15-35-14-54 30 41 82 144 49 97 84 141 14-18-5-47-27-41-30-60-7-44-48-125-41-81-47-120 49 42 85 130l57 159q14-22 12-48 6 11 18 9l14 3 4-6V311l17 17q10 9 22 11l-16-47q-10-31 4-48-21-58-8-99 18 27 31 100 12 69 33 94 4-38-10-104-14-72-14-114" fill="#fff"/><path d="M1438 415l-7 11q9 2 17-11 7-12-5-13l-5 13m-19-135q0 8-10 16-10 9-10 19 34-19 20-35m105-150q9-12 6-17 25-1 44-35 2 20-18 55-21 38-22 60 16-16 36-60l-13 46-19 49 17-14 15-25q-5 42-42 98l-57 92q5 22-9 48l-27 39q-7-2-4-9l4-11q-9 6-19 28l-21 27q7-30 31-83l37-87q-14 7-31 41l-29 54q-3-13 15-52 16-35 1-59 2 6-13 12-17 6-11 0-18 15-33 55-16 44-30 60V386q29-29 49-101l34-116 10-3 10-1 14-29q7-21 22-23l-9 29q-10 17-11 27 17-5 33-30 17-28 30-34l-8 20q-5 10 0 20l18-15" fill="#fff"/><path d="M1498 371q-7-25 17-50 28-31 31-45-13 73-48 95" fill="#fff"/><path d="M394 303q13-4 25 16l19 32q-8 0-21-20l-23-28" fill="#fff"/><path d="M77 434q6-5 16 3l16 13q-4 4-15-4L77 434" fill="#fff"/><path d="M1502 580q11-28 43-68l56-66q-9 29-43 69l-56 65" fill="#fff"/><path d="M180 553q31 5 61 27 32 23 46 52l-52-41q-31-24-55-38" fill="#fff"/><path d="M307 687l22 4 22 12q-10 6-44-16" fill="#fff"/><path d="M1847 762l-11 10-13 6q-5-3 5-9 10-7 19-7" fill="#fff"/><path d="M1878 782l-10 10-13 6q-5-3 5-10 10-7 18-6" fill="#fff"/><path d="M1847 1356l37 5q32 9 42 19l-40-12-39-12" fill="#fff"/><path d="M1499 1519q52 24 59 51-16-4-32-24l-27-27" fill="#fff"/><path d="M1649 1566q5-5 15 3 10 8 12 17l-13-10-14-10" fill="#fff"/><path d="M1613 1590q11-4 35 18l36 37q-19 4-37-21-21-30-34-34" fill="#fff"/><path d="M1720 1661q10-3 26 13l25 23q-14 6-29-9l-22-27" fill="#fff"/><path d="M362 1792q-2-6 9-18l19-18q4 7-8 19l-20 17" fill="#fff"/><path d="M282 1809l41-37q-40 62-79 75 11-17 38-38" fill="#fff"/><path d="M180 1879q10-15 31-32l33-28q-4 16-23 34l-41 26" fill="#fff"/></svg>