<?xml version="1.1" encoding="UTF-8"?><svg xmlns="http://www.w3.org/2000/svg" xmlns:xlink="http://www.w3.org/1999/xlink" version="2.0" width="100pt" height="100pt" viewBox="0 0 2000 2000" clip-rule="evenodd" fill-rule="evenodd" preserveAspectRatio="none"><path d="M1042 970l-1-17-33 10q-35-8-174 15-112 18-115-15-13-31-17-70-5-43 4-76 7 3 11-8 6-15-1-6-22 16-80 38-56 22-79 39 2 31 23 106l19 51q11 30 7 45-5 24-36 34l-66 9-3 31-4 29q35 8 62 35l44 55 76-51q45-32 100-26l45-30q27-22 45-30-1-37 28-54 17-10 64-19 5-7 10-42 4-28 17-34h30l26-3-2-16M333 8H557Q660 86 715 167q99 145 100 345l-1 132q-6 30-52 33 9 86-39 123l146-7 145 7 80 12 70-5q6-18 3-61-2-39 3-49 11-12 47-10l56 4q16 18 15 54-2 49 2 65l35 8 41 5 28-11 28-12q51-9 92 1 45 10 58 39 22 52-17 113l-83 11-83-11q-4 32-33 49l272-23 117-14 122-16 39-6q25-3 40 0 10 22 6 47l-191 26q0 61-13 92-17 39-60 44 21 60 23 109l35 41q26 23 31 45-2 16-26 10l33 71 30 72-17-1-17-2-102-206-57-11-66-2q-17 27-39 78l-37 84-15 26q-12 13-28 7l79-222-13-50-66 12-63 15q4 48-47 83 10 18 11 58l-1 68-33 25-30 28q24 47 63 175 44 144 37 187l-32 73-39 67H345q-157 0-253-96-92-92-92-247v-45L3 297Q17 178 88 102 179 8 333 8" fill="#fff"/></svg>