<?xml version="1.1" encoding="UTF-8"?><svg xmlns="http://www.w3.org/2000/svg" xmlns:xlink="http://www.w3.org/1999/xlink" version="2.0" width="100pt" height="100pt" viewBox="0 0 2000 2000" clip-rule="evenodd" fill-rule="evenodd" preserveAspectRatio="none"><path d="M996 87l7 7q23 16 40 50l27 58q82 158 209 303 72 83 173 170l191 153v607l5 102q3 63-5 93-10 35-122 115-103 74-237 119-147 50-288 49-194-1-365-88-103-52-262-181-7-181-13-614l-4-103q-1-61 11-92 8-20 57-59l84-62Q664 590 777 446 893 297 976 107q5-14 20-20m263 1044q102 86 134 108l74 47 38 29q23 17 43 19 10-43 6-91l-6-85q-327-224-539-505H989Q887 794 737 933q-115 105-294 239l5 79 2 83q30-6 67-31l61-43q104-68 227-178l204-193q45 64 116 130l134 112m168-125q63 50 121 78-6-25 2-89 7-60-2-86-4-13-27-31l-47-36q-244-207-458-566-4 0-9-4l-11-3Q916 412 809 546 698 684 578 788l-37 35-37 32-40 34q-14 29-8 100 6 79 1 102 316-224 546-532 123 168 316 350 69 65 108 97m121 402q-139-84-291-204-105-84-268-228-258 277-539 425l-1 94q-1 53 1 88 140-66 292-180l261-211q226 211 397 317 97 60 155 74l-3-84-4-91m-306 219q6 0 23 10l7-23 7-24q-11-7-91-27-58-15-64-54l-42-3-46-4q16-20 81-34 61-13 74-40l-87 13q-15 4-54 23l-54 18q-41 3-107-22-69-25-102-25 14 29 61 39 56 11 74 28l-21 2-33-2q-18 36-68 57l-94 31q-1 13 4 25l10 22q67 4 143-30l133-65q104 66 229 102 7-18 17-17" fill="#fff"/></svg>