<?xml version="1.1" encoding="UTF-8"?><svg xmlns="http://www.w3.org/2000/svg" xmlns:xlink="http://www.w3.org/1999/xlink" version="2.0" width="100pt" height="100pt" viewBox="0 0 2000 2000" clip-rule="evenodd" fill-rule="evenodd" preserveAspectRatio="none"><path d="M1005 646l-38 66-47 49q-28 25-74 42l47 4q34 1 62-15l32-28 24-30q27-44 39-79l3-30-3-34q-5-24-29-48l1 27-2 27-15 49m521 272 31 26 59 60q19 20 17 45-4 47-84 110-35 27-71 21-17-2-32-12l-139-82Q849 828 815 790q-19-22-19-62 1-38-4-42-8-7-11-34l-5-28-23-40L304 255 785 549l35 7 30-19 40 1 39-17 53-5 23 7 521 395" fill="#fff"/><path d="M1696 1159l54-51 80 53 26-7q33-1 62 29 36 37 14 104-22 68-79 94-51 23-99-2-38-19-52-49-6-12 1-27l9-13q-23-22-45-23l-17 3-63-38q56-28 90-51l127 96 9 63 26-3-5-56 57-38-9-20-64 28-122-92" fill="#fff"/><path d="M1568 910q29-13 77-24l73-6q32 6 52 40 27 47-8 117l-38 43q-64 69-176 136-49 29-77 39-75 30-121 18-44-11-54-58-6-33 1-54l12-25 132 78 43 7q51 1 90-29 41-32 70-71 28-39 30-65 2-25-12-46l-10-16q-57-65-84-84" fill="#fff"/><path d="M1162 1423q4-24 26-63 18-35 53-66l-45 14q-32 11-52 37-13 16-20 37-9 23-11 37-9 54-6 88l8 29 15 30q9 15 26 25l18 9-19-50q-5-29-3-52l10-75M514 1178q21-4 34 0l426 61q272 41 301 55 26 13 40 51 13 36 19 38 10 3 23 27l15 24q8 3 36 28l539 139-555-94-35 6-21 30-37 13-31 30q-30 30-71 26L567 1439q-62-18-116-45-24-13-32-37-14-46 37-133 22-38 58-46" fill="#fff"/><path d="M92 1131q38-40 92-35 42 4 66 26 17 14 5 41l51 5 15-9 72 11-64 82-154-42-32-56q-11 7-23 13l26 50-39 56 16 15 48-49 148 40q-10 16-31 67l-94-19-22 16-68-4q-46-21-51-91-5-71 39-117" fill="#fff"/><path d="M435 1171q29-39 57-65 60-56 106-62 45-6 72 35 18 28 20 51l-2 26-152-23q-19 1-43 10-48 17-73 60-26 45-38 92-12 46-4 72 8 24 28 38l15 10q57 29 109 48-20 23-62 50-41 28-65 33-33 6-63-17-44-34-36-113l10-34 8-19q22-55 70-129l43-63" fill="#fff"/></svg>