<?xml version="1.1" encoding="UTF-8"?><svg xmlns="http://www.w3.org/2000/svg" xmlns:xlink="http://www.w3.org/1999/xlink" version="2.0" width="100pt" height="100pt" viewBox="0 0 2000 2000" clip-rule="evenodd" fill-rule="evenodd" preserveAspectRatio="none"><path d="M1019 305q271 0 462 191 192 191 192 462 0 170-82 318-79 142-217 231h433q77 11 195 106v33q0 156-96 247-93 96-249 96H348l-94-10-36-6q-20-6-18-11l-10-4q-53-22-96-65-92-92-92-247v-27q110-106 179-112H665q-138-89-217-231-82-148-82-318 0-271 192-462 191-191 461-191m379 275q-147-147-356-156V864q0 10-7 16-6 7-16 7-9 0-15-7-7-6-7-16V424q-208 9-356 156Q494 727 485 935H904q9 0 16 7l7 16-7 16q-7 7-16 7H485q9 208 156 355 148 148 356 156V1082q0-10 7-16 6-7 15-7 10 0 16 7 7 6 7 16v410q208-8 356-156 147-147 155-355H1130l-16-7q-7-6-7-16 0-9 7-16 6-7 16-7h423q-8-208-155-355" fill="#fff"/></svg>