<?xml version="1.1" encoding="UTF-8"?><svg xmlns="http://www.w3.org/2000/svg" xmlns:xlink="http://www.w3.org/1999/xlink" version="2.0" width="100pt" height="100pt" viewBox="0 0 2000 2000" clip-rule="evenodd" fill-rule="evenodd" preserveAspectRatio="none"><path d="M1156 1171l66-64q25-20 52-32l30-10 31-7-22-11q-21-9-42-8l-39 7-33 12q-39 24-81 68l-28 36q-13 19-22 46-11 37 0 76l19 52q5-54 26-97 26-52 43-68M489 750q-13-9-23-32-17-41 4-89 49-110 102-128 28-10 58 5 64 33 125 79l608 486 15 25q14 31 10 62l-8 50 13 46-13 40 19 39 479 468-511-421-53-15-34 2-42-3q-6-4-50 9l-77-4q-54-28-487-482L489 750" fill="#fff"/><path d="M386 305l84 77q-33 53-43 77L284 345l14-81-25-5-28 77-66 11 4 30 76-8L407 488q-13 36-23 75l-10 44-62-62-1-21q-7-24-40-45-18 30-44 24-39-9-71-45-43-49-31-115 13-74 85-119 71-44 124-14 43 25 52 63 4 18 0 32" fill="#fff"/><path d="M404 647q45-148 106-243 20-40 38-56 70-63 134-44 44 13 60 49 13 28 15 86 2 57-5 95-38-29-122-72l-21-7q-30-9-56 0-30 11-67 54-37 44-62 101-23 53-7 112 8 29 21 48L567 900l-25 22q-23 14-63 15-58 3-83-44-27-50-15-146 7-48 23-100" fill="#fff"/></svg>