<?xml version="1.1" encoding="UTF-8"?><svg xmlns="http://www.w3.org/2000/svg" xmlns:xlink="http://www.w3.org/1999/xlink" version="2.0" width="100pt" height="100pt" viewBox="0 0 2000 2000" clip-rule="evenodd" fill-rule="evenodd" preserveAspectRatio="none"><path d="M331 1786q-134 0-187-90-51-90 16-207L828 332q68-117 172-117 50 0 95 30 44 30 76 87l668 1157q68 118 16 207-25 43-73 67-49 23-114 23H331m-91-250q-40 70-15 114 25 44 106 44H1668q82 0 107-44 25-43-16-114L1091 378q-41-71-91-71-24 0-48 19-24 18-43 52L240 1536" fill="#fff"/><path d="M930 1059l294-173-214 535 169-30-267 172-92-289 109 126 113-341-266 151L899 627l216-4-185 436" fill="#fff"/></svg>