<?xml version="1.1" encoding="UTF-8"?><svg xmlns="http://www.w3.org/2000/svg" xmlns:xlink="http://www.w3.org/1999/xlink" version="2.0" width="100pt" height="100pt" viewBox="0 0 2000 2000" clip-rule="evenodd" fill-rule="evenodd" preserveAspectRatio="none"><path d="M564 1366l52-37q-22 60-54 109-40 62-85 84l-42 16q-24 10-37 22l-49 54-32 32 44-96q28-63 64-99 32-32 78-52l5-2q25-10 56-31" fill="#fff"/><path d="M1275 455q-75 9-110 33-56 39-90 113-35 76-14 122 3-17 48-61 44-43 66-53 7 56-58 153L1004 911l58-31q52-29 58-28 15 2 8 68l-4 47q0 28 16 40 19 14 51 7l51-17q79-28 155-11 71 15 106 33-24 34-70 45l-70 9q81 33 145 29 81-5 145-70 64-65 81-181 14-103-40-186 10 39 2 80-9 46-36 76-74 80-171 29 14-2-25-7l-70-10q-17-4-35-53-17-48-9-50l-16 1q24-30 29-68 4-37-6-29-9-25-1-51 9-25 31-44 37-31 88-36l83 10q-73-55-172-62l-111 4M333 870q137 4 252-57 93-49 207-163l98-138q51-77 150-126 122-60 265-49 136 11 255 83 121 72 190 185 73 122 67 262-8 195-121 340-120 153-287 146-291-12-412 153-45 60-58 134-10 60 3 103-94-281 39-391 69-57 218-67l-128 2q-75 2-131 27-156 69-331 376 17-33 30-164 13-121 55-158 50-42 68-75l44-98q-50 20-183 44-98 18-172 70 36-83 99-130 28-22 146-83-162 12-318 80-157 68-275 179 47-144 175-243 116-89 274-125l120-17 94-17q84-32 102-196Q750 872 644 892q-89 16-311-22" fill="#fff"/></svg>