<?xml version="1.1" encoding="UTF-8"?><svg xmlns="http://www.w3.org/2000/svg" xmlns:xlink="http://www.w3.org/1999/xlink" version="2.0" width="100pt" height="100pt" viewBox="0 0 2000 2000" clip-rule="evenodd" fill-rule="evenodd" preserveAspectRatio="none"><path d="M946 1034q-87 53-73 131l-269 12q12-292 223-377l59 118 60 116" fill="#fff"/><path d="M1112 1085q-21-31-58-47l119-238q211 84 223 377l-269-12q8-44-15-80" fill="#fff"/><path d="M925 1096q22-26 67-31 80-8 95 72 14 80-56 101-35 10-72-6-39-18-47-55-11-51 13-81" fill="#fff"/><path d="M1077 1257l73 113 69 114q-75 63-219 63-143 0-219-63 21-45 70-115l72-112q29 25 77 25 49 0 77-25" fill="#fff"/><path d="M1000 304q-51 0-91 70L237 1537q-41 70-15 115 25 44 107 44H1671q82 0 107-44 26-43-15-115L1092 374q-40-70-92-70m0-93q104 0 172 117l671 1162q69 118 16 208-52 91-188 91H329q-136 0-188-91-25-43-21-97 4-54 37-111L828 328q68-117 172-117" fill="#fff"/></svg>