<?xml version="1.1" encoding="UTF-8"?><svg xmlns="http://www.w3.org/2000/svg" xmlns:xlink="http://www.w3.org/1999/xlink" version="2.0" width="100pt" height="100pt" viewBox="0 0 2000 2000" clip-rule="evenodd" fill-rule="evenodd" preserveAspectRatio="none"><path d="M79 116l9-11 42-36L456 311q-46 15-111 46l84 52q-9 28-11 52 0 8-8 4L215 347q41-25 105-56-97-74-241-175" fill="#fff"/><path d="M1655 363l-51-29q-31-19-53-27L1879 64l44 39 6 8-125 88q-75 52-124 89l106 55-189 130-2-65 60-45" fill="#fff"/><path d="M0 366l2-47L208 420q149 71 202 94v49L220 471 0 366" fill="#fff"/><path d="M1606 580V526l393-213 1 57-394 210" fill="#fff"/><path d="M501 1482l-55-40q-94 47-224 119L2 1684l-2-56 185-100 180-106H240l366-206-70-5 152-85 15 17 34 44-167 87q-110 58-160 93H536l226-102-211 142 61 52q-40 33-133 90-94 57-134 89l111 50q-64 57-159 126L132 1932l-40-34-13-14 241-171-52-28-53-27q93-61 286-176" fill="#fff"/><path d="M1394 1467q27-33 56-55-234-151-237-160l124 58 123 57h125l-358-195v-81q35 23 238 120l-77 3q201 104 373 203l-121 5q64 45 171 104l189 102-1 56q-43-28-68-41l-371-201-60 35q151 98 292 178-71 31-112 53 89 72 239 175l-15 15-43 37-316-247q64-29 110-45l-131-89-130-87" fill="#fff"/><path d="M492 497l-1-70q-1-40 1-60L597 265q87-4 207 0l1-44q0-34 13-38h375q16 0 9 80l212 3 95 101 1 96-2 220-5 198-104 102H1112l1 69-19 23q-14 13-15 19-5 79-6 269-1 197 4 256 4 42 19 108 4 51-46 82-16 12-67 9-38-8-55-18-31-18-32-51-1-29 9-71l15-80V1464l-5-135-5-239-15-23q-11-11-11-17V983H748l-149-1L492 881V497" fill="#fff"/></svg>