<?xml version="1.1" encoding="UTF-8"?><svg xmlns="http://www.w3.org/2000/svg" xmlns:xlink="http://www.w3.org/1999/xlink" version="2.0" width="100pt" height="100pt" viewBox="0 0 2000 2000" clip-rule="evenodd" fill-rule="evenodd" preserveAspectRatio="none"><path d="M807 1652q-4 27 22 36 27 9 53-15l21-26q-49-8-87-20l1 1-10 24m319-115-8-24-31-14 19-65-68 70-61 30-12 55 72 3q75-1 90-22 6-7-1-33m-47-412-27-36-19-17-34 34-71 57-44 34q-8 16 5 72l20 89q2 32-29 54-36 27-60 63-26 36-17 53 9 16 55 32 46 16 49 6 7-20 61-57 54-37 58-55 6-23 25-36l28-18q11-11 15-126 3-120-15-149m148-29q-12-22-43-22-32-1-30 22l2 13-2 48q-4 23-17 42-10 13-5 22 6 9 6 77 0 67 5 72l13 19 7 74-2 74q-1 13 9 14 16 1 75-29 65-34 106-68 38-31 115-146l70-109-78 5-67-49q-4-18-42-25l-70-9q-43-8-52-25m-177-56 55 21 58-14-58-57-55 50M715 633l-56 2q-38-3-51-16l43 49 11 58 19 5 34 13 48 37q33 30 39 49 8 25 31 59 26 39 42 44 10 3 31 33 19 26 35 23 27-4 34-26 9-29-21-85-27-51-29-72l3-11q-36-49-71-63-18-7-22-24-4-17-21-25l-50-32q-31-20-49-18M673 786q0-9-24-21-27-13-31-33-7-34-31-70l-22-29-75 99q-28 40-52 122-29 103-17 183 12 84 43 154 24 52 76 132 47 70 174 158l1-17q4-19 20-30l49-33q28-24 24-54l-14-72-9-37 6-40q9-44 29-58l66-58 42-41q-65-42-80-75-15-31-90-101-88-35-85-79M517 522q-23 1-17 11 16 23-24 55-54 42-57 48-6 11 26 36 52-85 123-149l-51-1m1152 542-20-9-9 72q7 1 34 61 29 49 53 4 28-53 7-88-18-31-65-40M1521 763l-78-129-34-49q2 25-28 51-32 26-32 38l-18 55q-17 41-17 63 0 23-37 33-59 18-73 26l-53 25q-20 7-29 22-9 14 12 24 27 12 32 23 7 16 22 15l54-3q37 1 88 36 48 31 55 51 8 23 58 40l49-1q51 2 60 16 18 29 16-110-1-140-47-226M1374 439q-10-29-33-18l-22 17 72 47-17-46m-11 131q0-46-117-89-99-36-227-54-94-13-206 33-118 48-76 48l19-3 22 16q15 12 16 24 0 7 22 12 41 9 56 34l-6 20q1 24 30 42 28 17 36 43 6 22 10 22 11 0 33 13 23 12 27 21 3 6-6 39-2 30 33 33 35 3 45 35l2 32q5-17 15-35 18-35 38-36l54 5q31 1 32-17 1-18 26-28l37-13q11-6 19-36l12-63q3-19 30-41 24-20 24-57m595-315 30-26q10 47 10 110v89q-11 16-33 16l-87 11q-48 7-54-12-7-60-22-95-27-66-95-43-26 9-22 59 4 66-13 100-24 48-59 54-22 3-66-13-27-9-5 86 11 48 28 98l-2-3q76 136 83 289l70 6q58 18 55 80-1 37 20 119 9 66-44 73-19 3-76 49-37 29-89-13v-1q-38 78-96 145-86 186-47 180 46-8 67-1 34 11 49 62 11 37-5 101-11 49 12 61 64 35 102-25l38-90 55-3 84 26q30 4 38 48l18 92q-35 35-83 60l-12-15q-11-11 0-54 12-42 0-54-14-14-38-9l-39 9q-14 0-63 43l-45 42q-70-31-124-31-34 0-24-50l16-50 8-101-108 39q-17-6-32-15-29-20-14-39 18-25-28-86-145 81-314 81l-37-1 7 6q-21 76-97 93l-72-4q-23-10-46 4-37 21-69-24-32-44 1-74 29-24 35-45l1-16 4 1q-64-31-119-72-41 4-51 28-7 15-6 60 1 29-36 48-13 7-95 57-52 32-67 28-34-19-65-24-59-9-128 41-26 19-1 36 32 23 27 47-9 41-66 67l-32-27-1-1 24-6-30-45q-19-6-31-16-23-19 18-37 65-28 143-80 120-4 148-16l48-17q31-10 45-24 12-12-11-26-23-15-12-27l30-36q18-21 41-31 30-13 80-21-91-78-149-183-59-108-75-231-21-41-59-47-47-8-60-21-15-15-34-86-14-48-35-22-22 26-40 28L62 948q-34 10-48-59L0 755l29 50q39 48 87 43l71-22q19-7 37 30 10 20 21 68 7 27 33 40 38 19 91-101 14-68 46-134-29-17-35-80-5-63 26-71 37-9 42-29 1-28 10-50 11-26 89-31l76 1 11 2q168-115 368-115 136 0 260 55l-4-2 45-21q53-18 99-9 36 7 43 52 6 30-2 72 25-36 13-61-11-21 21-35l34-10 100 56 9-100q-7-27-8-52-1-52 33-46l127-9 37 50q41 50 55 52 12 2 37 15l39-2q14-10 9-53-4-44 9-53" fill="#fff"/></svg>