<?xml version="1.1" encoding="UTF-8"?><svg xmlns="http://www.w3.org/2000/svg" xmlns:xlink="http://www.w3.org/1999/xlink" version="2.0" width="100pt" height="100pt" viewBox="0 0 2000 2000" clip-rule="evenodd" fill-rule="evenodd" preserveAspectRatio="none"><path d="M834 88l37-1q145 0 285 44 229 72 352 243 39 55 73 129 41 89 49 153 8 73-2 119l-3 18q-2 23 6 44 16 39 68 95l55 46q36 27 49 45 21 32 5 69-22 49-79 78l-20 12q-6 6-7 15 24 17 28 52 3 41-47 72 30 21 35 51 8 50-44 65-9 3-10 5l-5 10 12 17q29 30 35 57 10 41-19 95-46 86-178 86l-62-3q-54-3-64 0-45 13-100 51-74 49-125 119-40 54-68 120h-75q36-93 87-162 59-79 143-136 63-42 118-59l41-5 48 3 57 2 75-11q28-12 41-38 16-30 14-44-2-10-18-26l-24-31q-13-24-6-51 11-45 48-60l-34-15-27-12q-13-9-16-24l-7-33 33-8q50-12 71-31-31-20-27-60 3-35 25-57l40-27 27-17q13-11 22-30l-33-28q-45-33-65-55-59-63-80-112-17-39-12-82l4-24q8-38 1-97-7-54-44-134-32-68-66-115-111-155-320-219-127-39-260-39H838q-136 8-234 43-182 65-279 225-208 349 34 687 129 179 163 278 38 111 3 238l-99 360-71-1 102-378q29-106-1-195-30-89-153-261Q170 968 161 773 151 579 266 389 375 209 577 135 685 96 834 88" fill="#fff"/><path d="M1136 314l34 24q19 14 35 17l31 45 32 44q12 21 26 74 10 36 6 80-4 47-21 77l-31 40q-22 23-43 29l-44 2-53-2-27 5-22-9q-14-8-28-7-2 2 3 10l2 10-18-3-17-4q-3 17 9 24l19 11 12 22 8 26q1 26-28 61l-35 26-34 24-47 11-60-5-42-16-41-5-12 16-10 18-21 19q-13 9-16 16v20 21q-2 17-21 50l-20 50q-12 9-36 9-24 0-33-11-11-35-3-85-45-18-125-83-91-74-92-112-44-44-48-94-4-58 29-145l47-131 25-33 25-36 35-28 26-31 28-17 31-22 32-11 18-11q11-8 17-10l44-7 39-11 28 2 22-4 29 1 29 1 55-6 89 6 26 2 32 13 70 22 35 11m-37 86q25-12-7-42l-38-28 18 24q9 29-38 51l-71 47-44-2q-22-17-12-42 17-46 17-73l-17-30q-19-27-25-11-3 7 0 72 1 60-16 80-38 44-105 44-21 0-12-39 12-47 0-61l-64-3-76 8q-22-8-23-30-1-11-12 0-16 16-7 44l12 26h95q59 0-30 100l-39 46q-11 9-31-11-9-9-72-13-39-1-1-40 16-16 13-45l-5-27-60 60-25 46q-24 48-15 57l72 8q57-1 59 15 5 50-17 85l-24 24-14 30q-13 34-12 53 2 40 59 115 54 71 65 66 12-6-26-81-42-84-40-109 2-17 28-58l25-37 16-15q23 2 54 91 13 35 45 40 54 8 70 17 38 21 81 7 39-13 47-38-88-31-128-26-48 6-90-110-14-39 19-79 31-38 63-32l-4 25q-10 32 7 61 19 32 45 31l85-11q20-1 16 8-13 35-16 67-3 39 34 3l61-63q23-19-8-46-31-27-67-16l-91 3q-6-36-19-61-15-30 31-39l94-16q53-18 78-13 35 7 62 58 31 58 58 82 30 26 77 33 44 7 35-11-8-15-40-29-19-8-25-29-11-40-25-66-22-41-73-77l-47-28 70-40" fill="#fff"/></svg>