<?xml version="1.1" encoding="UTF-8"?><svg xmlns="http://www.w3.org/2000/svg" xmlns:xlink="http://www.w3.org/1999/xlink" version="2.0" width="100pt" height="100pt" viewBox="0 0 2000 2000" clip-rule="evenodd" fill-rule="evenodd" preserveAspectRatio="none"><path d="M1335 1993l141-87-345-66 290-80-125-190 215 110-110-305 215 225-155-420 285 255 5-310 95 190q5 15 90-295l64 204v265l-1 43v13q-31 12-29 51l-8-10q-15-11-46-13-48-3-75 35-24 35-17 79l-17 7-11-1q-45 0-70 31-24 28-23 69l-12-2q-25-25-65-25-37 0-61 22-23 20-29 52-5 30 20 63-52 21-61 57-5 19 1 33H1335m486-558-5 31v20q0 29 30 29 30 0 30-29 0-21 3-35 2-12-3-23-6-11-18-14l-23 3q-11 6-14 18m-144 5q-32-6-55 22-13 17-6 33-9 17 6 32l34 40 38 33 13 21q6 11 19 14l22-3q24-14 11-41l-8-17q4-45-26-98-19-31-48-36m-264 346q-29 0-29 30 0 30 29 30h57q29 0 29-30 0-30-29-30h-57M676 950 556 983l100 93 20-126M967 695l-18-11-87-64-44-34-19 9 2 6-8 4q-27 12-47 25 34 12 61 51l49 69q19-19 111-55M855 373q18 18 23 43v59l-8 38 18 16q19 8 48 26l3 3h2l21 16 4-11 1-4 14-12 8-11 6-6 36 29-3 11q-18 8-16 30l-10 6 3 2 15 12 6 4 182 141 6-5q6-5 13-7l13 8 7 4 3 2 3 3 8 5-13 11-40 44-45 39-1 2-12-13-14-10q-2-14 7-24l-113-74q-22 9-116 69-54 35-84 17l-39-31-38-35q-19-14-42-49-23-34-42-48L550 752l22 60 19 6 89 15q90 18 96 37l2 36q2 39 14 89l-1 52q0 26 12 49v47q8 32 26 50l16 12 29 5q30 8 29 25-1 21-53 50-55 30-102 27-66-4-92-25l-6-111-320 50q1 19-8 42-9 23-18 26-14 5-35-24-21-28-36-73-14-43-15-78-1-34 12-41v-1h2l6-4 278 13-76-70-91-53 12-120 2-1 3-22q-22-22-23-30l24-1q-2-10-28-36l-19-20q-13-15-11-24l23 7-84-98 122 82-2-6 9-2-23-35q23 14 41 8l-11-16-11-17-16-15q-9-8-11-17 9 0 25 7l24 6L284 508l-6-1 3-1-79-75 167 96 48 13 25 8q16 2 11-13l14 5-9-16-15-15 22 7 21 8L235 245 597 471l25-5 39 3L436 303l62-65L720 397q18-17 43-29 51-23 92 5m784 1286-10-16q-9-7-19-7-27 0-41 14-21 19-7 45 8 16 27 23l37 4q20 10 35-5l9-21q0-13-9-21l-14-11-1-1h-1l-5-3-1-1" fill="#fff"/><path d="M2000 1224l-64-204q-85 310-90 295l-95-190-5 310-285-255 155 420-215-225 110 305-215-110 125 190-290 80 345 66-141 87H983l378-73-708-44 427-60-160-66 313-14-407-293 500 247-253-367 260 147-273-507 413 360-133-393 233 200-93-554 233 460 33-126 74 140 106-520 74 461v233m-1 308 1-43v43h-1" fill="#fff" fill-opacity=".8"/></svg>