<?xml version="1.1" encoding="UTF-8"?><svg xmlns="http://www.w3.org/2000/svg" xmlns:xlink="http://www.w3.org/1999/xlink" version="2.0" width="100pt" height="100pt" viewBox="0 0 2000 2000" clip-rule="evenodd" fill-rule="evenodd" preserveAspectRatio="none"><path d="M891 1357q-10-33 1-73 6-19 18-31h6q-11-6-15-16-4-12 2-24l16-37-13-12q-14-34 5-60l8-8 2-7 15 24 14 14 1 2 1 3q3 12 15 18l23 3h2l-3 5q21 4 14 23 14 21 33 22 10 0 16 8l8-18 6-4-10 2q-7 1-14-6l-6-14 1-5-32-28q-19-17-23-34-5-23-1-40l3-12q-41-21-27-61-3-14 10-21v-1h3l15-1h2l4-15-2-3v-1q-19-2-30-13-17-18-15-42-3-19 3-35 6-17 19-24 20 3 46 20 24 16 45 17 49 3 91-55 46-63 81-69l44 6-13 32-13 30q-15 24-42 46l-53 36-7 12 54 5 57-1 89 11q18 3 14 21l68-22 61-21q-2-29 17-51l34-36-3-13-43 9q-61 47-143 48-27 1-50-17-23-19-20-42 5-39 26-88-14-22-30-24-12-2-38 11l-46 17h-2l-91 59q-55 30-107 26l-42-10-42-5q-32 8-60-10-29-18-28-47 1-26-10-34l-41-19-37-19-12-3q-19 26-53 24-40 44-79 61l1 2q-8 12-27 14l-39 4-14 4-38 3-7-6-29-19q-17-11-56-9l1-3 16-29 31-60q11-34-29-43-41-10-52 24l-23 45-25 44q-6 17-3 39-22 27 6 56l65 47 69 44 81-3q1-6-9-16-10-11-9-19 2-13 26-21l40-13 85-65q54-45 97-43 33 25 8 56l-52 43 43-4q29-4 45 13-13 52-98 66-55 10-150 3 6 12 28 17l41 7 85 23q58 12 98-1l24-18q13-12 23-13 17-1 36 18 19 18 19 35v5l-5 3q-29 22-57 21h-9l-2-1q-22-14-65-20l-70-5H633l-52-18q-34-15-50-16l-24 4-24 5-34-7-32-5-73-59-50-31q-31-19-41-38-11-19-19-43-10-30-7-46 2-14 26-33l32-30 12-16q13-31 33-125 5-25 17-47l5-4 13-20q25-25 89-51 50-21 84-96 33-75 84-96l59 8 60-4q19-30 59-27l61 7q8-29 37-42l64 3 30 14q18-13 44-13 42 0 59 28l115-3q32 0 50 18 17 17 17 41 43 5 65 27l40 59 25 21 32 19 13 10q63-5 115 26 55 33 67 89 4 16-3 32l25 12 38 27 25 26q2 8-4 19l-7 18q-13 67-8 90 3 12 24 39 19 23 17 39-2 16-29 37l-48 34-40 37-41 28-17 2-19 1-46 18-49 19-58 16-52 9-63-10-65 5-23 13-1-1q-26 21-62-9l-21-13q-16-6-26-18-12-16-14-32h-4l-6-3-25 1 2 1q6 10-1 20 25 17 23 35l-2 7 7 8-1 4q-3 25 6 43l9 12 2 29q-15 8-15 26 2 46 36 70l-5 7-1 2q-6 13-5 35l2 38 17 13-6 9q-10 10-12 26-3 16 5 27l19 26 2 2-16 19 23 20 22 22-3 39-1 35 2 19-16 16 9 50 18 6 20 99h1q3 22 15 41l27 34 12 2 9-4h-2l16-6 5-15q-25-19-27-38-3-15 7-27 9-10 22-12-6-33 11-59 19-28 55-28 28 0 47 18 16 16 20 41l39 25q25-35 66-40 44-5 80 32 30 31 29 77 0 46-30 78l-18 18-4 12q24-4 48 7 25-19 54-16l5-16q8-28 33-43 25-15 53-8 65 19 105 62 50 53 24 113-90 69-219 69H345q-157 0-253-96-31-31-53-72 30-27 62-13 22-63 61-87 46-28 105 7l12 21q42 25 60 72l1 6 23 5q27-3 46 16 19 16 25 45 22-12 12-34l-9-31-15-28q-20-21-46-31l-13-6-14-3-1-6-15-36q26-44 69-66 44-22 93-15 19-29 55-29 54 0 66 54 11 53-28 80l-9 22 10 1q36-36 88-36l27 4 4-1q10-24 32-38 8 19 33 21l16-6 23 3 3-4-10-3q16-12 17-31l-4-52q31-23 15-60l-9-17 17 2q5-17 13-26l-8-15 12-40 6-43v-5q11-8 23-12l4-12 4-8-2-23-2-9m243-735-95 23q-50 4-95-16-29-13-34-38-4-22 12-43l-11-5q-25-11-41-32-40 11-90-7-28 6-56-6-26-11-41-32-13-19-8-42-29-39-34-77-10 10-10 24l-8 94q-1 61 31 88 28 25 78 21l84-12q16-1 22 13l12 25 40 21q2 31 15 42 29 25 81 25 49 1 79-20l189-5q31-6 31-31l-77-9q-46-10-74-1m548 104q-36-57-44-81l-5-32q-4-16-20-11-48 14-27 91 29 101 23 126l-19 22q-12 13-7 25 20 3 36-13l30-31 45-42q10-18-12-54M904 1483l-36-2q-21 11-15 35l15 34q10 30 51 65h1q25 0 29 27l3 3 32 43 18 3q39 22 76 61l1 1 6-9-26-42-18-20-23-14q-47-29-43-74h-9l-9-2 4-9q-50-23-57-100m58-174q-20-20-26-50-23-2-29 22-10 36 16 68 10 11 26 21-2 23 20 32l20 9 19 12 25 50q19 37 35 28l5-2q9-9 10-21 1-13-8-24l-73-72 14-20q4-13-3-24l-51-29M557 1913l-6 7 77-10 84 8 35 12 20 15 22 9 3 1 3-5q44-58 92-53l4-12 17-13q0-12 7-20 32-39 80-32 45 7 78 48l3 5 13-9 39-4q45 3 68 40l4 9 9 5 7 7q69 11 133 48l6 4 8-13-2-3q-11-19-34-28l-44-12q-35-10-61-31 10-11 4-28-21-58-74-53l-30 5-31 5-22-26q-40-57-115-34-71 21-97 82l-3 16q-44 12-71 52-145-61-226 8" fill="#fff"/><path d="M891 1357l2 9 2 23-4 8q-52 7-151-1-18 0-27-11-124 4-187-1-24-1-28-16l-98-4-15-3-8-7-3-2-2-3h-6q-27-13-86-23l-21 2q-5-8 1-14l27-12q-2-11 4-22 7-12 18-13l97-6 12 2 3-11 139-10q29 1 29 19 0 18-29 18l-112 7 1 7q7 5 6 12 0 7-8 12l46 2q21 1 28 13l119-1 22 6q7 5 7 13l97-2q27-1 29 16l86-3 10-4m230 32-23-20 16-19-2-2q12-1 22 5l86 3q2-17 28-16l98 2q-1-8 7-13 8-6 22-6l119 1q5-12 28-13l45-2q-7-5-8-12 0-7 7-12l1-8-112-7q-29 1-29-18 0-18 29-18 89-1 204 21 3 8 12 12l61 30 1 13-60 16q-12 5-17 14l-13 1q-6 14-28 15l-98 4q-4 15-29 16-62 5-187 1-6 10-26 11-104 9-154 1" fill="#fff" fill-opacity=".8"/></svg>