<?xml version="1.1" encoding="UTF-8"?><svg xmlns="http://www.w3.org/2000/svg" xmlns:xlink="http://www.w3.org/1999/xlink" version="2.0" width="100pt" height="100pt" viewBox="0 0 2000 2000" clip-rule="evenodd" fill-rule="evenodd" preserveAspectRatio="none"><path d="M1176 608 1064 864 782 1146l32 35 291-292 115-235 153-154 389-246-433 199-153 155m576-400 27-26 27 6q27 14 29 54l-26 25-214 444-173 173-237 100-287 287-25 126-262-262 122-24 290-290 111-253 155-156 463-204" fill="#fff"/><path d="M1045 351 855 811 770 646q-79 39-159 117-159 156-159 349 0 200 116 329 124 138 337 138 214 0 351-146 129-138 129-334l80 133q-6 127-83 254-152 253-500 253-247 0-433-163-204-178-204-457 0-289 218-493Q571 525 680 481L540 348l505 3" fill="#fff" fill-opacity=".8"/></svg>