<?xml version="1.1" encoding="UTF-8"?><svg xmlns="http://www.w3.org/2000/svg" xmlns:xlink="http://www.w3.org/1999/xlink" version="2.0" width="100pt" height="100pt" viewBox="0 0 2000 2000" clip-rule="evenodd" fill-rule="evenodd" preserveAspectRatio="none"><path d="M647 673q66-18 159-30-185 477-212 875-104-27-186-62 27-192 96-410 60-189 143-373" fill="#fff"/><path d="M713 1544q4-148 40-339 50-262 155-571 224-11 445 44 193 428 242 791-238 87-489 101-199 10-393-26" fill="#fff"/><path d="M1054 237q29 10 55 30l20 18q32 31 86 124 58 97 119 227-214-48-413-40 47-133 83-224l-16-18-54-3-33 68q-40 87-79 184-91 12-158 33 60-131 119-229 56-92 89-122 89-81 182-48" fill="#fff"/><path d="M392 1649q1-73 11-159 103 43 189 67l-2 90 127 19q-4-26-5-81 278 53 578 3 177-29 309-81l10 142q-383 175-838 105-228-35-379-105" fill="#fff"/></svg>