<?xml version="1.1" encoding="UTF-8"?><svg xmlns="http://www.w3.org/2000/svg" xmlns:xlink="http://www.w3.org/1999/xlink" version="2.0" width="100pt" height="100pt" viewBox="0 0 2000 2000" clip-rule="evenodd" fill-rule="evenodd" preserveAspectRatio="none"><path d="M1141 908l217-2 450 102-447-166-218 2L883 945H571l-95 45 418 2 247-84m692 60h38l15 23q9 30-18 59h-36l-466 163H1121l-237-97H564l-106 72v-72l-364-5 338-30-440-41 429-53-293-31 304-35L62 892l396-4V816l103 70H884l257-101h220l472 183" fill="#fff"/><path d="M100 1894l-3-2q-36-38-56-80l1343 18-1284 64M5 1628v-96l1864 40L5 1628m16 132q-11-33-14-82l1852 17L21 1760M5 1484v-90l1191 38L5 1484M5 589V502l1379 18L5 589M6 338q0-45 9-86l1904 18L6 338M30 202q15-42 41-77l1431 37L30 202M5 435V359l1797 43L5 435" fill="#fff" fill-opacity=".8"/></svg>