<?xml version="1.1" encoding="UTF-8"?><svg xmlns="http://www.w3.org/2000/svg" xmlns:xlink="http://www.w3.org/1999/xlink" version="2.0" width="100pt" height="100pt" viewBox="0 0 2000 2000" clip-rule="evenodd" fill-rule="evenodd" preserveAspectRatio="none"><path d="M1637 1538v35H1148v-35h489m19-987 79 226-22 61-74 22-53-32-80-233-78-22-30-89 145-7 123-85 32 95-42 64M1133 777l-42 63 78 227-21 61-74 21-53-31-80-233-78-22-31-89 146-7 122-85 33 95m-83 1008H953V1618h97v167m-97-452h97v174H953V1333M366 1573v-35H835v35H366m38 195q-248-88-248-213 0-125 248-213 248-88 598-88 350 0 597 88 248 89 248 213 0 125-248 213-247 88-597 88-350 0-598-88M253 1555q0 110 220 189 219 78 529 78 309 0 529-78 219-79 219-189 0-110-219-188-220-78-529-78-310 0-529 78-220 78-220 188M382 975 302 742l-78-22-31-89 146-7 122-85 33 95-42 63 78 227-21 61-74 21-53-31" fill="#fff"/><path d="M1257 301l-33 50 62 181-17 47-59 18-42-25-64-185-62-18-24-70 116-6 97-67 26 75M653 312l103-71 28 80-35 54 66 192-18 51-63 19-45-27-68-197-66-19-26-75 124-7" fill="#fff" fill-opacity=".8"/><path d="M1462 40l21 61-27 41 51 148-14 39-48 14-34-20-53-152-50-14-20-58 94-5 80-54M879 229l-34-20L793 57 742 43 730 8H902L890 28l51 148-14 39-48 14M374 204l-27 41 51 148-14 39-48 14-35-20-52-152-51-15-19-57 94-5 80-55 21 62" fill="#fff" fill-opacity=".6"/></svg>