<?xml version="1.1" encoding="UTF-8"?><svg xmlns="http://www.w3.org/2000/svg" xmlns:xlink="http://www.w3.org/1999/xlink" version="2.0" width="100pt" height="100pt" viewBox="0 0 2000 2000" clip-rule="evenodd" fill-rule="evenodd" preserveAspectRatio="none"><path d="M933 1945v-65h137v65H933m137-535H933v-65h137v65m0-140H933v-65h137v65M65 940h65v137H65V940m675 0h65v137H740V940m-140 0h65v137H600V940m598 0h65v137h-65V940m140 0h65v137h-65V940M1071 521H936V412Q730 436 582 583 434 731 411 937H519v136H411q23 206 171 353 148 148 354 171V1489h135v108q206-23 354-171 147-147 171-353H1488V937h108q-24-206-171-354-148-147-354-171V521M933 812V747h137v65H933m137-205v65H933V607h137M933 120V55h137v65H933m937 820h65v137h-65V940m-167-3h97v136h-97q-25 250-203 428-179 179-429 203v98H936v-98q-250-24-429-203-179-178-203-428H207V937h97q24-250 203-428Q686 330 936 306V208h135v98q250 24 429 203 178 178 203 428" fill="#fff"/></svg>