<?xml version="1.0" encoding="UTF-8" standalone="no"?>
<svg xmlns:ffdec="https://www.free-decompiler.com/flash" xmlns:xlink="http://www.w3.org/1999/xlink" ffdec:objectType="shape" height="100.0px" width="100.0px" xmlns="http://www.w3.org/2000/svg">
  <g transform="matrix(1.0, 0.0, 0.0, 1.0, 0.0, 0.0)">
    <path d="M0.0 0.0 L100.0 0.0 100.0 100.0 0.0 100.0 0.0 0.0" fill="#000000" fill-opacity="0.003921569" fill-rule="evenodd" stroke="none"/>
    <path d="M68.25 39.95 Q25.35 80.15 20.45 86.1 L17.9 89.5 Q16.2 91.45 14.45 91.45 13.55 91.45 11.6 90.5 9.65 89.6 8.65 88.55 L6.9 86.1 Q6.7 85.15 6.8 84.25 L7.15 82.45 11.7 79.7 Q63.2 30.05 62.9 28.55 62.8 28.0 60.8 26.25 L57.65 23.55 Q54.3 20.5 54.1 20.05 53.4 18.4 57.55 13.5 61.7 8.6 63.35 8.6 66.35 8.3 80.0 21.25 93.5 34.1 93.25 36.35 93.15 36.9 90.35 39.65 L86.4 43.75 84.55 45.55 Q83.25 46.5 81.75 45.95 L77.9 42.05 73.65 37.8 Q72.05 36.8 70.75 37.6 L68.25 39.95" fill="#ffffff" fill-rule="evenodd" stroke="none"/>
  </g>
</svg>
