<?xml version="1.1" encoding="UTF-8"?><svg xmlns="http://www.w3.org/2000/svg" xmlns:xlink="http://www.w3.org/1999/xlink" version="2.0" width="100pt" height="100pt" viewBox="0 0 2000 2000" clip-rule="evenodd" fill-rule="evenodd" preserveAspectRatio="none"><path d="M1158 678l-5-75q31 26 38 76 9 63 19 81h-1l4 15-1 31q10 54-13 114l-7 16-4 2-3 1q-5 13-20 19l3-1-14 5-17 14-3 2-11 5-18 4h-11l-11-3-11-5 10-7 1-1q11-9 18-26-14-11-15-28l-3-18-10 12q-33-13-35-50l-8-61q4-4 10-3l9-1q14-22-7-64-23-46-17-65 4 35 29 64 29 33 60 19 39-30 44-72" fill="#fff"/><path d="M1021 653l-2-20-8-20-22 53q-10 32-4 55-28 12-21-39 6-40 20-71l-6-9-7-10q32-30 47 4 13 31 3 57" fill="#fff"/><path d="M715 377q-4 34 18 139 19 94 3 144-14-20-17-54l-3-57q-27-171-40-323 66 140 86 195 43 115 43 198-10 8-14 22l-8 21-3 2q-10-9-11-30V598q-6-106-54-221" fill="#fff"/><path d="M686 559q9 23 4 65-6 43 1 64l-9 4q-4 9 1 21l11 22-8 12q-5 8-1 13-2 3-4 2v-2q-18-61-19-102-2-55 24-99" fill="#fff"/><path d="M1340 282l31 118q13 67-10 111l-12 5-4 7q-15 23-45 28h-54q-18-1-27-17l-18-14-4-5-11-13q13-4 7-16l14 11 8-19v-2h2q7-7 14-8l27-6-3-21q-11-17-16-46l-6-52-1-7v-6l-3-14-1-2-5-15q11-9 27-3l24 1q24-15 13-60l-23-69q18-5 40 16 18 17 27 39l9 59" fill="#fff"/><path d="M1152 197q11 21 12 62v68q-16-16-20-51l-10-56q8 0 15-9l3-14" fill="#fff"/><path d="M1032 420q-1 29 14 105 13 66 6 104l-35-180q-24-109-51-186 199 265 158 465l-16 9-17 3q7-183-59-320" fill="#fff"/><path d="M995 561q3-6 9-6l8-1q4 8-4 11l-13-4" fill="#fff"/><path d="M838 571q27 24 42 80l17 89q12 80-21 143l-3-3-8 21q-7 10-17 13l-7 14-18 7-23-5-27-1q-16-6-21-21l-7 6-9-6-9-9q13-21 11-47l-13-48 19 2 20 2-14-29q-10-17-2-28l26 1 25-3q27-15 32-48 4-30-11-56-9 2-4 18 6 19 2 24-50 35-97-5 78 40 117-111" fill="#fff"/><path d="M640 943l10-17q4-1 7-3l-2 55-2-1q-15-4-39 8 4-15 22-31l-5 1 9-12" fill="#fff"/><path d="M655 978l15 13-12 4q-3-7-3-17" fill="#fff"/><path d="M713 1047l-17-13-17-19-9-24 19-8 11 12 12 25 11 23q8 15 17 16l4-22 15 12 33 2 1 5 24-9 33-11 13-8 10-3 7-7 4-1q12-32 46-61-22 39-26 73l1 34q1 27-4 29-16-35-27-43 10 37 6 107-1 18 11 52 12 31 9 51l-12-2-28 42q-8 40-14 110l-11 111-17 128q-14 81-36 122l9-78 6-78-24 80-24 79q-17 42-53 104l-57 101-8 15H599q28-72 45-143l33-121q21-77 23-123v49l20-136 24-133 4 36q24-73 19-201-7-19-7-33l-3 1-10-43-15-33-8-31-11-35" fill="#fff"/><path d="M948 986q-1-18 4-25 8 5 16 27l12 29 11 6 4 5 8 12 1-2 2 7 7 17 7 12 12 1 12-8 13-2 9 10 11 10 33 6 14 1 13-4 30-8q14-6 18-24l2-1q1-6 6-6l9-1 5-7 3-9q4-5 30-20l-12 42q-8 27-5 42 6 4 5 22l-3 25v48l-8-16-6-17-6 2 4 162q-6-51-25-90-10 31-9 83l1 84q-14 27-16 81l-8 84-69 327 7-63q1-43-19-53l-27 109-29 109H906l5-10q13-28 28-98l-17 104 31-111 29-113q11-56 13-128l2-127q-18 22-37 89-19 64-41 88l38-177q22-105 30-179l10-106-5-14q-16-3-14-31l-1-27-3-26-11-39q-12-26-1-40-11-2-13-12v-22l-1-28" fill="#fff"/><path d="M1471 549q7-4 16-5 39-3 68 28-17-12-55-10l-1 3 44 37q22 26 23 51l-27-14-27-16q-34-17-44-6 10 15 8 53l9 27 8 27-17-13 3 13-15-21 32 94 16 70 13 70q-14-46-40-91-27-48-56-74-1 39 19 106 23 77 26 106-5-34-19-59-3 34 7 92l14 92q5 86-14 273 3-73-31-167v65l-4-33q2 144-36 336l-79 333 4-250q2-149-11-249l-13-93q-8-55-9-93l17 58 20 58 12-234 14 26q16-39 3-114-20-85-25-122 6-16 4-39l-5-15-23-49q-19-27-22-45l-2-27q-3-15-17-21l-5-38 21 6-11-37 37 4 35-6h4v-7q38-5 68-24 7-22 24-21l3-15 9-9 14-3 13-8" fill="#fff"/><path d="M519 1127l2 26-5 24-8 20-5 21 6 30 5 27-9 58v33l-4 32-18 21-21 18-55 43-59 39q28-24 46-57l15-44 10-45q4-12 23-36 18-23 21-38l2-50q1-35 10-44l3 3q3-18 13-43l18-41 10 3" fill="#fff"/><path d="M1722 946q-4-119-2-140 2 33 14 78l19 75 8 75q1 53 5 80 61 28 63 89-95 29-150 130-32 58-93 181 7-33 7-103 0-71 5-94l22-23q-9-90 11-134 8-16 40-37 31-21 39-41 16-41 12-136" fill="#fff"/><path d="M1134 7h15l34 58 35 57 2 8-5 8q51 56 40 132l-11 4-10-2-28-97q-16-59-42-98-4 13 7 46l14 51q-14-29-28-80L1134 7" fill="#fff"/></svg>