<?xml version="1.1" encoding="UTF-8"?><svg xmlns="http://www.w3.org/2000/svg" xmlns:xlink="http://www.w3.org/1999/xlink" version="2.0" width="100pt" height="100pt" viewBox="0 0 2000 2000" clip-rule="evenodd" fill-rule="evenodd" preserveAspectRatio="none"><path d="M849 1507l-5 9q-3 10 7 19 16 15 118 70l-39-52-22-19-59-27m953-206q-13-9-32-9l-17 1q-12 37 6 47 18 10 46 12l6-20q4-22-9-31m-189-40-25 26q-25 31-24 53 1 23 31 48l29 20-34-51q-9-14 6-56l17-40m-529-138q14 51 3 77l-67 139 2-1-94 75-30 31 140 95 37 15q37-100 33-143l-7-47q-6-16-22-22-16-8-38-13 19-12 42-46 24-37 27-70l-7-63q-5-29-21-54l-15-19 17 46M495 1269q36-33 77-47l42-10 12 1q8-100 22-153 11-42 56-97 47-57 94-80 83-40 255-14 58 9 167 63l97 52 93 89 110 111q30 37 74 33 14-1 34-13l18-12 21-17 20-21q0-34 13-86 7-27 45-75l37-42 14-1 24-51 7 1 21 9q13 6 10 48-4 39-15 59l-94 168 47 46 66 72q25 35 22 109 13 60 3 76l-24 21-40 9q-22 0-66-19-41-18-56-32-11-10-37-13l-24-1-20 18-34 21-111 46-80 17-72 10-31-8-47-6q-22 1-34 20l-7 19q-55 189-55 202 0 12 25 50 6 14-17 31-41 2-51-11-12-17-17-69-2-22 7-88l10-61-39 69v20l-13 7-28 3-101-40-57-55-71-57q-59-51-67-70-8-20 20-54l30-30-16-23 73-71-110-18-177-36-55-19" fill="#fff"/><path d="M4 1002V959l700-60-82 90-25 73L4 1002" fill="#fff" fill-opacity=".8"/><path d="M592 1359l139 26-94 102L4 1431v-33l588-39" fill="#fff" fill-opacity=".8"/><path d="M4 1653v-13l707-53 120 118L4 1653" fill="#fff" fill-opacity=".8"/><path d="M102 308 43 263l228 50q-33-9-42-26l101 2 97-10 34-13 35-14q20-5 39 0l28 11q-7-5-11-14l34 2 32 14q1-13-6-28l21 20q13-10 58-26l36-9 21 2 20 3 20 9 22 7 37 27q40 37 60 80-4-6-20-12l-24-6q-11-13-55-13-23 1-58 16-23 11-40 21l14 9 15 5 36 13q23 1 63 20l33 16 27 31 9 20 12 19 11 45q5 55-8 100l-7-22-14-21-13-25-21-20q-17-15-54-26l-66-15h-2l9 6 27 31q1 7 9 19l12 20 10 45q6 53-7 100l-8-22-13-21q0-15-34-46-17-14-54-25l-66-15 10 31 1 21 4 23-7 46q-13 49-44 89l1-23-5-24q6-15-14-55-11-19-41-44l-56-38-32-17-12-2 21 8-68 10-34 6-18 1-16 3 16 10 16 9-66-5H249q-23-2-35-8l3-1H188v1l-4 29q-35 11-70 40l-7-3-63 2L4 716V435q0-65 14-123l43 1 41-5" fill="#fff"/></svg>