<?xml version="1.1" encoding="UTF-8"?><svg xmlns="http://www.w3.org/2000/svg" xmlns:xlink="http://www.w3.org/1999/xlink" version="2.0" width="100pt" height="100pt" viewBox="0 0 2000 2000" clip-rule="evenodd" fill-rule="evenodd" preserveAspectRatio="none"><path d="M1400 1186l-38 35-96 79q-60 46-90 85-32 41-36 84-5 52 7 71 16 26 65 8 119-45 226-164l76-83q20-26 9-59-31-95-123-56m211-279q14-51-54-69-65-17-103 8-111 72-199 170-47 52-69 114-23 65 4 83 58 40 217-88l137-116q54-53 67-102m-552 14q12 36 41 61 34 29 71 15 43-18 168-129 128-115 158-169 30-52 21-95-7-36-36-46-34-12-89 12-49 22-99 65-62 53-191 188l-27 34q-26 39-17 64m-53 34Q949 820 905 798q-69-34-190-34-142-1-273 51-118 47-176 164-29 59-34 108-39 100 28 160 53 48 145 55 87 8 161 49 91 50 125 133 26 61 48 177 31 80 133 56 105-24 155-114l73-187q38-94 26-201-10-97-46-116-16-8-74-144m160-535-47 35-89 81L915 637q-41 43-34 72 10 36 50 68 45 34 80 17 45-21 148-115 110-99 118-136 12-57-12-103-29-58-99-20m-249-7q-29-21-86-7L728 469Q618 546 582 619q-40 81 16 105 51 21 123-16 68-35 141-107 77-77 80-121 3-47-25-67m835-139 23-51 13-16q11-8 3 33-18 84-73 166-40 61-93 111 6 37-12 89-22 70-17 106l3 17 41 1q43-47 104-92 50-36 83-86l22-42 13-11q11-4 2 27-12 44-51 117-45 83-90 134l-22 23v40q-2 48-78 148l-76 90 10 2 23 11 57-49 60-49q33-31 51-62l11-25q14-29 18 5 4 35-23 97-50 112-136 176l-5 60q-12 71-39 133-22 52-46 79-84 96-168 155-75 51-124 58-37 4-79-21l-34-26-15 43q-28 52-96 102-89 65-180 78-102 14-159-47-19-20-68-156-42-117-120-159-151-64-216-98-111-59-146-162-28-84 23-207 52-122 170-254 36-41 113-59l71-11q-16-41-11-95 10-108 115-173 157-98 248-124 80-24 118 6 16-19 55-42 20-13 95-52 72-37 129-45h43q-49 15-127 82L1047 352l-31 23 27 56q58-59 142-85 76-23 141-11 18-27 64-55 36-23 107-56 62-28 114-29l40 4-121 70q-76 44-128 143-15 86-47 112 48-29 94-48 78-33 116-23l88-72q63-47 99-107" fill="#fff"/></svg>