<?xml version="1.1" encoding="UTF-8"?><svg xmlns="http://www.w3.org/2000/svg" xmlns:xlink="http://www.w3.org/1999/xlink" version="2.0" width="100pt" height="100pt" viewBox="0 0 2000 2000" clip-rule="evenodd" fill-rule="evenodd" preserveAspectRatio="none"><path d="M476 1189q178 171 284 205l16 10q23 15 24 21 1 10-26 36-24 24-69 14l-41-14-184-174q-31-35-31-58 0-10 10-23 8-12 17-17" fill="#fff"/><path d="M1193 1486l-12 67q-8 24-55 29-44 4-68-9-18-10-13-24l14-33q5-25 1-58l69-1q20-1 73-37l-9 66" fill="#fff"/><path d="M176 793 338 681q90-60 270-127 57-21 160-23l141 3 81 12 62 28 195 102 34 6 33-5q41-7 70 24 13 14 22 15l21-1q153 0 193-4l109 3 23 4q-12 35 10 73V764l3-31 4-4 23-18 17-10v48l63 65 32 36 14 28 11 39q8 24 20 33 20 16 14 47l5 11q3 12-4 17l-20 9q-14 6-20 11l-8 15-8 16-24 20-25 13q-27 0-46-25-8-10-19-13l-19-17-17-21-17-4q-12-4-26 15l-18 30-5-20q-7-31-27-33l-33 4-40 20q-9 4-15 16l-11 9q-36-6-75 42-22 28-48 45l-51 26-129 58q-28 9-34 91-1 25-14 44-60 46-81 46h-26l-74 9-11 2q-6 1-50 17l-40 8q-10-4-14-23-5-19 2-33 9-19 31-36 28-22 63-30 34-8 38-18l-3-26q-11-59-23-75l-17-42 5-18q11-23 52-73l31-33q53-53 61-81 6-26 4-49l-5-19q-3-10-13-6-10 4-5 13l3 15q2 19-4 40-6 24-55 73l-22 23-10 11q-45 55-55 79l-2 5q-31-18-62-23l-23-8-26-4-34-5-32-9q-15-2-28-16l-11-13q-3-19 0-25 27-62 21-118-3-18-20-35l-38-29q-50-31-67-59l-30-47-13-2-3 4q-3 5 0 11l3 4 26 40q17 29 72 66 47 31 50 50 6 48-19 107-9 22-11 50l-5 8q-19 31-46 34-13 1-23 23-9 22-3 28l58 43 73 49q19 10 20 23l-8 36q-7 23-50 21-106-43-276-208l-15-21q-6-10 2-23 7-12 24-21 29-17 0-61-23-35-112-106l-26-29-17-46q-11-29-46-9-19 11-51 37l-93 51L50 979-5 1000V894l7-2q49-15 174-99" fill="#fff"/><path d="M714 246l-84 86H-4L6 246H714" fill="#fff"/><path d="M249 1337l-84 85H-5v-85H249" fill="#fff"/><path d="M326 582l-84 86H-5V582H326" fill="#fff"/></svg>