<?xml version="1.1" encoding="UTF-8"?><svg xmlns="http://www.w3.org/2000/svg" xmlns:xlink="http://www.w3.org/1999/xlink" version="2.0" width="100pt" height="100pt" viewBox="0 0 2000 2000" clip-rule="evenodd" fill-rule="evenodd" preserveAspectRatio="none"><path d="M546 1035q-26-49 110-4 76 25 189 74l87 34 89 13q44 0 88-22l68-39q25-13 77-23l75-16 84-18 98-17q42-8 22 48-16 43-60 107-28 41-75 150l-58 135q-90 197-106 241-15 44-43 63-32 23-119 42-85 20-170 3-77-16-117-52-30-28-39-78l-16-110-47-246-26-81q-19-48-36-70-14-19-46-79l-29-55" fill="#fff" fill-opacity=".32"/><path d="M995 259q-6 0-12-6-5-6-3-13 16-60 20-173l1-35 31-4-1 37q-6 124-21 182-3 12-15 12" fill="#fff"/><path d="M747 1256q-25-14-36-37-9-18-22-84-14-68-6-67l102 12-4 44q-2 49 4 73 6 24-15 44l-23 15" fill="#fff"/><path d="M811 1138q0-9 27 14l27 24 2 8-2 13q-6 8-40 17H811v-76" fill="#fff"/><path d="M879 1214v-25l31-1 8 13v13H879" fill="#fff"/><path d="M981 1198v16H940v-16q10-20 27-12l14 12" fill="#fff"/><path d="M1040 1184q7 13 0 44l-38-14v-16l17-12 21-2" fill="#fff"/><path d="M1091 1184v44h-25v-30q0-18 13-18l12 4" fill="#fff"/><path d="M1091 1175q0-21 38-36l38-12v101l-13 1-23-1q-14-3-40-53" fill="#fff"/><path d="M1256 1228q-24 57-36 28-5-14-12-82l-7-64 58-6 34 6-13 47-24 71" fill="#fff"/><path d="M825 1620q11-2 14-15v-13q22 16 30 56 8 38-2 61-8 19-37 11-27-8-45-28-24-26-24-72 0-14 25-8l39 8" fill="#fff"/><path d="M1177 1722q-40 11-48-19-4-16-2-65l4-46q1-20 41 15l48 50q8 11-11 36-17 25-32 29" fill="#fff"/><path d="M898 1706v45H872q-20-30-5-26 9 2 21-8l10-11" fill="#fff"/><path d="M960 1695q9 0 6 28l-6 28H918l11-45q17-11 31-11" fill="#fff"/><path d="M1023 1695q-10 56-21 56H981v-45q0-9 21-11h21" fill="#fff"/><path d="M1040 1751q-14 3 0-56h26l8 27q8 27 5 29h-15-24" fill="#fff"/><path d="M1091 1751q-16 6 0-56 13-9 28 23l12 33-14-2-26 2" fill="#fff"/><path d="M680 46q-3-10 8-13 10-3 13 7 9 32 37 76l45 73q25 48 54 75 33 31 80 42 36 8 2 126l-13 7q-11-2-8-12 16-54 16-89-1-8-22-15l-27-9-38-28q-23-23-46-62l-39-67-35-54q-19-31-27-57" fill="#fff"/><path d="M708 284q-7-7 1-15 7-8 13 0l55 85q38 53 77 51 10-1 10 10 0 10-10 11-46 3-86-52l-60-90" fill="#fff"/><path d="M771 425q67 27 80 65 12 35 17 80 6 50-2 82-2 10-13 7-10-3-8-13 4-17 1-43l-5-44-6-50q-6-28-27-39l-78-34q-47-20-73-43-8-7-1-14l16-1q15 14 99 47" fill="#fff"/><path d="M1245 225q72-99 109-137 8-7 15 0 7 8 0 15l-84 101q-50 64-90 95-43 33-79 37l-45 2q-22 2-27 29-4 19-1 42 2 10-8 13-10 3-12-7-11-60 9-82 12-13 33-15l39-1q72-9 141-92" fill="#fff"/><path d="M1332 282q9-5 14 4 6 10-4 14l-85 49q-52 30-88 43-46 16-51 19-29 15-35 39-16 59-11 63 8 8 0 15-7 8-15 0-17-15-2-62 13-40 31-59 15-15 50-27l54-20q94-54 142-78" fill="#fff"/><path d="M1377 384q9-4 12 7 3 10-7 14l-103 33q-64 20-97 45-37 27-47 71-8 34 0 87 2 10-9 13-10 3-12-7-17-118 37-165 37-33 108-58l118-40" fill="#fff"/><path d="M986 872l5 108q2 69 7 107 1 8 9 6 9-2 7-10l-6-105-4-106q-1-8-10-8-9 0-8 8m183-70q0-10-11-8-25 3-49 31l-35 48q-4 7 3 11 3 5 10 5 28-4 55-31 28-28 27-56m-368-8q-7 5-4 12 14 31 39 56 29 28 58 30l9-9q-1-13-13-30l-20-25q-36-43-59-53h-8q-5 2-5 7l3 12M737 666q-10-4-7-14 3-10 12-6 35 14 51 77 52-35 124 21 5-7 13-6l73 1q41-2 70-15l6-3q31-17 55-10 34 2 51 23 8-47 39-78 8-7 15 0 8 8 0 15-17 17-27 43-9 26-7 51l-3 8q9 62-54 127l-46 49q-24 29-32 58l-23 99q-3 12-16 12-47 4-69-21-19-20-28-73-7-45-20-67-17-26-56-41-48-17-69-44-18-23-23-63-6-43 10-70l-12-44q-10-22-27-29" fill="#fff"/><path d="M1503 511q10-1 13 9 3 10-7 11-24 4-54 44l-42 61-54 51q-36 33-38 59l-11 10q-11 0-10-10 3-33 41-69l60-59 44-62q31-41 58-45" fill="#fff"/><path d="M1581 577l14-1q8 8 1 16l-74 85-81 79-91 66q-56 44-71 83-4 10-14 7-10-3-7-13 14-34 54-70l71-56q52-38 105-92l93-104" fill="#fff"/><path d="M515 501q-2-10 8-13 10-3 12 7 11 44 60 108 56 75 70 105v11l-9 4h-4q-12-1-10-14L573 608q-47-62-58-107" fill="#fff"/><path d="M443 580q10-3 13 7 23 75 118 158 106 93 134 145 5 9-4 15-9 5-14-4-22-40-73-85l-85-75q-73-75-96-149-3-10 7-12" fill="#fff"/><path d="M435 729q7 33 41 67 16 17 61 52l55 48q35 31 61 38 10 3 7 14-3 10-13 7l-32-18-30-24-79-63-55-51q-29-33-36-64-2-10 8-13 10-3 12 7" fill="#fff"/><path d="M1569 792q11-1 11 10 0 10-11 11-24 1-62 34l-55 50q-73 55-134 61-10 2-10-9 0-10 10-12 46-5 94-37l81-64 35-28q22-15 41-16" fill="#fff"/><path d="M602 368q-3 10-13 8-104-20-176 77-65 87-58 193 13 196 127 364 76 113 155 338l26 82q13 48 14 84l-2 46q0 27 6 46l22 67 3 9v3l-1 7q-3 35 19 64l51 48 63 50q36 22 77 19l148-3q90-5 139-37l69-55q38-39 46-75l5-31h-1l10-48 4-11 7-55 9-53q14-56 68-142 71-106 100-163 34-68 63-182l22-89q14-50 33-86 25-48 36-90 10-44 8-97-4-102-75-180-71-76-119-69-10 1-10-10 0-10 10-11 56-8 121 59 52 52 80 115 25 59 12 182-4 36-31 89l-39 86-30 114q-17 71-33 112-17 43-46 93l-54 89-12 19h3q-11 13-17 27l1-4-1-1-44 76q-22 44-29 83l-6 41v-1l-8 58-3 9v2l-10 62q-17 72-85 125-62 48-140 62l-83 6-84 3-75-2q-36-6-67-29-61-45-86-74-40-48-36-101l-16-51-14-52q-2-15-1-47l-1-48q-20-101-76-234l-47-111q-28-65-56-106-74-110-96-173-77-224-18-366 28-69 94-111 69-45 141-31 10 2 7 12" fill="#fff"/><path d="M454 254q-22-12-45-52l-37-59L285 32q-7-11 41 13l54 30q26 32 96 26l105 7q35 19 68 55l56 68q6 7 4 15-2 9-11 12l-67 6q-48 26-125 18h-1q-41-2-49-27l-2-1" fill="#fff"/><path d="M1459 258l-134-5q-11 4-18-7-7-12 2-20l52-53q32-30 62-41 47-18 69-22l69 2q42 12 136-2l70-8q-24 16-53 68-31 55-51 71-21 16-72 26l-132-9" fill="#fff"/></svg>