<?xml version="1.1" encoding="UTF-8"?><svg xmlns="http://www.w3.org/2000/svg" xmlns:xlink="http://www.w3.org/1999/xlink" version="2.0" width="100pt" height="100pt" viewBox="0 0 2000 2000" clip-rule="evenodd" fill-rule="evenodd" preserveAspectRatio="none"><path d="M703 7Q827 72 917 176q80 93 201 298 33 58 43 115-10-41-62-93-18-18-20 17l2 39q-39-141-79-176-25-22-23 20 0 21 6 47L925 282q-26-67-72-88-14-6-7 46l9 52q-14-51-37-94l-50-82q-22-34-36-13-7 11-10 29L653 7h50" fill="#fff" fill-opacity=".8"/><path d="M1023 7l107 56q35 45 66 102 41 79 84 213l-20 44-6 11q-17-99-36-71-10 14-16 48l-1-75q-9-82-48-113-12-10-18 31l-4 43-20-80q-25-84-52-106-39-32-43 8-1 20 5 46L973 7h50" fill="#fff" fill-opacity=".8"/><path d="M1253 147 1210 7h78l74 39q36 45 65 102 35 66 85 212l-26 56q-17-99-37-71-9 14-16 47l-1-75q-8-82-47-113-12-9-18 32l-4 43-20-80q-25-84-52-106-39-32-43 8-1 20 5 46" fill="#fff" fill-opacity=".8"/><path d="M722 442q-39-32-43 8-2 20 4 46L626 307l166 87q39 51 66 102 37 72 85 213l-27 56q-16-99-36-72-9 14-16 48l-1-75q-8-82-47-113-12-9-18 32l-4 43-20-80q-25-84-52-106" fill="#fff" fill-opacity=".8"/><path d="M529 592q-14 23-24 60 9-43 3-109-12-132-86-247L566 466Q722 664 779 803q35 87 51 194l-46 59q-5-43-20-45-19-3-50 67l11-74q10-98-20-162-31-65-65-33-18 16-29 45l1-75q-4-90-29-161-24-71-54-26" fill="#fff" fill-opacity=".8"/><path d="M329 1213l60-112 29-52-16-2q-103 48-177 128v10l16 12q28 12 88 16m483 441q3-14 31-74 28-58 33-92-134 56-112 193 27-9 48-27M522 1505q13 10 40 6l11-3q20-6 43-23l40-42 112-106q-114 5-160 38-42 30-86 130m29-288 56-63-148 44q-73 35-78 118l10 9 33 1-7 6 17-6 54-54 63-55M327 950q-6 24-32 54-27 31-33 53 43 5 96-17 53-22 98-15l-34 52-29 63-23 47q54 1 143-27 89-27 115-27-7 29-40 57-37 32-46 50-5 20 4 40 9 20 7 36l120 12 128-12q-6 30-35 51l-52 35q9 77 87 86l54-13q28-10 53-12-7 30-11 210-3 121-64 181l-133 96q-47 33-73 44H345q-157 0-253-96-92-92-92-248V1087Q107 961 327 950m-43 21q-30 19-94 36-52 23-67 92l34 2h2q52-7 88-55 24-33 37-75" fill="#fff"/><path d="M1068 1186l1-1q-47-70-112-113-62-41-103-36 42 62 86 96 56 43 128 54m475-764 79 86q49 55 105 81h39q-18-68-94-116-58-37-129-51m-58 115q-66-54-146-61 116 183 226 215-6-91-80-154M1162 680q-35-94-38-118 25 11 49 70 28 70 44 88 17 18 63 41 44 22 59 41l10 3 1-16q-6-69-85-139-65-58-141-88 23-11 89 32 76 51 94 54 46-5 75-54-4-33-44-69-39-35-42-71 76-4 164 47 90 51 159 50-11-33-59-75-48-41-60-75 51-3 94 13l68 40q98-12 177 35h1v1q81 49 160 186l-2 922-16 174q-25 74-78 126-57 57-133 79-17-46-41-89-37-66-63-63l-44-6q-20 17-76 1l-90-31-64-96q-40-110-199-205-185-109-232-172-18-24-29-68l-25-83-47-78q-33-51-39-94 26 6 75 27 46 21 76 27 31-36 43-87l-42-87q-26-52-34-96 27 13 49 67 27 66 45 87 48 54 161 93v-21l-2-6q-36-133-253-220 24-7 117 42 81 43 120 1 11-71-15-140" fill="#fff"/></svg>