<?xml version="1.1" encoding="UTF-8"?><svg xmlns="http://www.w3.org/2000/svg" xmlns:xlink="http://www.w3.org/1999/xlink" version="2.0" width="100pt" height="100pt" viewBox="0 0 2000 2000" clip-rule="evenodd" fill-rule="evenodd" preserveAspectRatio="none"><path d="M1512 1480q94-131 152-102 65 34 61 64-5 27-59 42-60 17-135 56-85 44-101 76 35-70 82-136" fill="#fff"/><path d="M1702 1657q158-123 201-70 49 60 29 94-18 30-80 30-68 1-161 22-105 24-137 55 70-71 148-131" fill="#fff"/><path d="M303 1620q72 75 132 161-28-38-134-81-93-37-163-49-64-11-77-44-15-39 45-93 54-47 197 106" fill="#fff"/><path d="M296 1363q36 82 57 167-11-38-92-106-73-61-134-93-56-30-54-60 2-35 81-55 71-19 142 147" fill="#fff"/><path d="M1381 1789q42 21 16 57-14 19-82 64-40 33 54 25l49 9q31-3 165-81 80-46 114 6 14 19 10 42-4 24-25 33-78 34-154 39l-208 6H486l-73-6q-78-11-101-39-35-44 0-86 36-41 76 5 49 56 176 64l117-3q-20-6-41-19-42-26-48-59-7-41 31-37 38 4 78 54 38 47 136 71 78 19 162 19 72 0 146-31 81-34 138-96 55-58 98-37" fill="#fff"/><path d="M809 1655l39 64q50 65 103 64 54-1 112-57l47-56-122 15q-132 8-179-30M688 1375q19 25 41 9 20-15 25-47 6-31-6-50-10-15-34 10l-22 27q-22 25-4 51m535 15q26 4 37-31 12-35-5-63-16-28-57-32-42-5-52 22l26 51q30 51 51 53m-147-123 36-61-46 45q-60 44-125 40-32-2-77-27l-44-24q-32 3 26 54 58 50 105 44 74-8 125-71m202-384q17-10 75-18 42-6 38-23l-1-82q-1-65-18-83l-60 92q-62 96-70 118l-33 101 19-44q24-47 50-61m-135 77-26 50q-24 58-13 97 11 39 52 84l40 37q-28-67-41-167l-12-101m-339 46-38-40 21 52q16 61-3 106l-58 127q27-8 54-28 54-40 58-102 3-62-34-115M625 749l-21-50q-36 96-3 141 25 36 132 62l-50-58q-31-37-58-95M790 473q-14-18-22-15-8 4-3 24l28 120q25 130 7 181-18 50-4 87 7 19 18 27 14-19 24-60 22-83 6-197-17-119-54-167m412 35q25-31 26-53 2-22-31 15l-27 26q-30 38-48 99-33 120-13 220l15 66q8 24 16 17 5-4 7-67 1-79 12-129l18-118q7-54 25-76m-744 9-191-71q-48-24-99-149-37-90-66-206 64-60 158-76l34 71 68 129q35 46 113 64 76 19 93 11 35-24 96-52 75-34 166-52l132-24 105-8 142 29q61 17 144 73 83 56 110 63 47 13 102-10 48-21 91-64 35-34 52-94l31-139q110 13 177 80v19q-4 156-56 256-24 46-79 80l-83 46q-25 15-132 49-111 34-123 41-21 11-24 27l-3 36q-5 31 4 35l14 122q3 29-11 73-18 55-22 90-5 48-5 108v98q-1 39-38 104l-44 78q-4 11-8 93-5 79-16 107-12 31-55 58l-59 33q-12 8-50 106-58 94-171 96-116 3-175-111-18-36-29-78l-7-36-23-14q-25-19-36-47-8-21-30-43-20-20-28-49-7-26-6-84 1-50-8-69l-26-49q-14-29-18-60 12-55 17-114 11-116-41-293-6-21 12-78 20-65 20-85-1-29 9-49l10-13q-9-13-138-58" fill="#fff"/><path d="M538 595 353 670l-99 81q-96 61-83-33 16-117 131-165 36-15 77-21l34-3 125 66" fill="#fff"/><path d="M1478 622l125-66q54 1 111 24 115 48 131 165 13 94-83 33l-99-80-185-76" fill="#fff"/></svg>