<?xml version="1.1" encoding="UTF-8"?><svg xmlns="http://www.w3.org/2000/svg" xmlns:xlink="http://www.w3.org/1999/xlink" version="2.0" width="100pt" height="100pt" viewBox="0 0 2000 2000" clip-rule="evenodd" fill-rule="evenodd" preserveAspectRatio="none"><path d="M1589 203l188-37-284 133q-223 108-279 156 75-20 213 4l239 42q-263 85-316 106-172 69-245 149 47-14 178-3 137 11 285 44-256 140-371 221-135 95-262 235l87-27q59-17 124-16-178 92-391 279L555 1666q-115 108-170 197 39-98 75-159 31-50 69-100l75-98 62-74 86-92-181 109q-93 65-161 155 134-225 249-358 144-169 336-296-211 54-388 151-192 106-313 248 246-412 784-795-68-6-145 13-70 17-132 51 95-83 249-185 153-102 251-148 83-38 288-82" fill="#fff"/></svg>