<?xml version="1.1" encoding="UTF-8"?><svg xmlns="http://www.w3.org/2000/svg" xmlns:xlink="http://www.w3.org/1999/xlink" version="2.0" width="100pt" height="100pt" viewBox="0 0 2000 2000" clip-rule="evenodd" fill-rule="evenodd" preserveAspectRatio="none"><path d="M798 1137q-19 10 8-7v-1q11-3-8 8" fill="#fff"/><path d="M1066 696q-30-37 9-46 38-9 50 38 4 16-25 16-27 0-34-8" fill="#fff"/><path d="M1054 483l-20 3 17-9q5-3 3 6h-2 2" fill="#fff"/><path d="M865 1692l13-3-5 2q-20 10-8 19l-11 3q9-8 3-14-4-4 8-7" fill="#fff"/><path d="M1027 785q-19 6-8 1l8-1" fill="#fff"/><path d="M1012 477h-1l-5-5 11-2v8l-5-1" fill="#fff"/><path d="M1192 720l-1-16q11-1 1 16" fill="#fff"/><path d="M834 580q-3-18 10-24 3 18-9 24v-3l-1 3" fill="#fff"/><path d="M1175 609l-11-6q-6-1-7-11l29-2q1 14-10 20l-1-1" fill="#fff"/><path d="M800 748q7 26-3 8-10-18 3-8" fill="#fff"/><path d="M1274 1447l2 2q8 11 1 24-5-2-4-11l1-15" fill="#fff"/><path d="M1090 919q-23 77-82 41l-3-2q-25-16-22-50l8-57q-15-38 66-23 25 4 34 33 8 27-1 58" fill="#fff"/><path d="M982 674q12 35-29 37-42 3-35-26 9-31 34-40 27-10 30 29" fill="#fff"/><path d="M1126 1595l-1 2h1q-6 20-28 23l28-25" fill="#fff"/><path d="M1033 1551q-4-11-1-12l21 1-10 6-10 5" fill="#fff"/><path d="M259 562q-123-9-114-134 36-148 42-199 10 32 81 177 58 136 17 162l-26-6" fill="#fff"/><path d="M1500 861q-3 7 7 18 10 10 14-4-1-30-21-14m-8-59q-4 3-1 17 2 13 7 15 14 4 15-19 1-23-21-13m187 159-2-20q-5-18-18-14-10 3-7 11v13q-11 9 8 17 19 7 19-7M945 223q-16 0-8 13 8 12 16 12 14 0 9-12-6-13-17-13M917 326l13-15q9-16 6-20l-12-2-13-2q-21-6-20 16 1 22 26 23m221 58q18 0 12-19-6-18-28-6-29 14-10 21l26 4M758 505q-10 17 14 14 24-4 24-14 0-14-17-11-16 2-21 11M649 541l-10-9q-21 10 0 19 15-6 10-10m-6 85q-10-9-21-7-13 3 0 25 12 20 21 0 10-8 0-18M871 382l38 33q-80 30-49 40-10 8 3 15l18 9-32 28q-12-56-35-1l-27 76q11-41-30-22-40 19-14 49 13 15 27 5l15-25-3 24q0 14 20 8 0 18-15 22-15 3-17 40l41-1q-1 21-37 29-22-2-13-22-7-11-18-6-12 6-7 18l30 62q10 25 16 61 6 44 41 106 15 26 72 94 34 58-48 66 24-9 18-30l-11 2q29-16 20-32-6-10-32 7l-36 24q2-43-68 22-73 68-41 70-27 16-56 43-44 42-11 54 6 2 24-23l21-28q-6 16-5 45-4 22-45 26-11 1-20 38-9 33-7 46l-25 91-13-22q-12-17-20-16l-7 6-6-22-4-19q11 36 28 31 20-6-15-118l-38-111q23-119 82-158 27-17-2-29l-38-12q72-6 92-31 20-25-62-12l-38 11q-21 5-24-11l63-14q30-9 9-41 37-4 40-17 4-13-26-23-11-10-98 18-49 14-60 114l-18 138q-43 90-37 229 5 136 52 228 17 33 52 44 38 13 54 34 19 25 35-14l13-45q-5 37 18 43 22 5 29-34l54-94 53-96 12 76 75-7 84 8q-4 11-124 44l85-5q108-3 136 2-5 11-40 13l-44 2q-36 3-37 10-2 12-17 19l65-3 71-16q-9 8-72 36l-54 22 70-4 80-12q-31 14-16 29-158 15-115 19l-50 2q-30 2-50 12l128-17 133-20q-39 3-1-9 26-8-10 20-12 9-14 20l-21 12 15-3 14 1q-29 3 11 7-37 9-80 34l-78 49q90-24 126-29 20-3 4 13-16 15-32 19l46 1q-2 10-56 13-50 2-47 26 2 15 37 15l42-5-16 9q-13 7-2 20l44 3 22-2q-21 3-22 8 0 7 28 12 84 15 64-18l44-4q20-8-17-20 54-3 53-18-1-16-56-12l-50 6-48 5 91-25q71-18 71-25-9-15-25-10 26-8 40-20l17-23q0 12 19 15 11-51 3-103l-56 15q2-52 56-47 3-15-25-15l-23 3 16-12q9-8-2-19l25-4 12-23-1 7 23-73q17 25 54 164 28 107 84 124l43-1q29 0 31-11 9-62 18-41 12 28 19 11l24-97q-2 12 10 16 22-2 31-159l7-185 19-135q18-110 30-109-24-11-27 19-4 37-28 39 9-48-13-102-21-52-20 31 1 63-19 53-22-10 4-43l-23-25q-23-28-33-23 10-11 10-34 0-25-18-23-24 3-39 17-14 15 20 12-27 12-13 32l35 1q-7 15-6 37 2 27 21 22-8 16 0 28l15 26-41-49-35-45q-29-3-8 61 20 63 41 74l17 85q8 51 4 83l-18 52-21 40q-3 7-3 50l-3 61q-75-195-63-202 0 7 10 14l16 2q15-11-18-43l-43-34h4l-64-39-26-14 5 1q15-4 10-18-4-13-16-16 26-5-36-14l-66-8 48-3q35-1 36-8 2-30-44-28-61 1-28 11-27 3-61-18-36-22 2-35 81-30 89-198 8-146-3-184-20-74-115-97 33-14 30-21-2-4-25-9-53-10-26-31-13 38 33 18 54-22 6-24l-32-2q20-29-31-39l-47-13q17 2 52-13 25-11 27-20 2-10-33-6-11-13-36-10-27 4-28 23l1 8q-7-24-62-7l66-30 36-19q32-19 5-20-9 0-16-11-6-9-21-3-17-2-71 23-52 24-65 37M836 148q18-66 3-139h209q29 0 43 12l29 40 51-33q30-23 53-19-42 76-51 155-11 88 23 160l33 66q19 39 23 70 6 34 35 52l61 35q15 12 75 103 53 81 68 78 14-3 4-59l-11-80q7-61 43-132v89q6 39 42 71 80 75 84 128 64-6 105-75 38-62 35-129 19 52 22 119 3 66-9 122l-28 93q-14 60 13 89 18 19 82 40 55 18 72 52 15 31 13 81l-3 53 4 5q5 19-5 25l41-33 9 124q6 84-9 120-25 33-112 68-80 32-98 68-23 46 11 94 40 55 34 91-10 61-37 106-34 55-85 68l-38 4q-18 1-34 15l-29 28q-23 20-34 20H517q-43 0-48-41-7-57-23-73-22-21-93-18-65 4-85-31-8-14 1-53 9-36-7-50-14-14-45-5l-49 6q-78-27-116-150-36-111-14-196 70 61 131 77 88 23 107-73 10-52-27-126-36-71-24-112 16-55 77-110l-34-46-35-46q-26-49 15-147 30-71 77-136-12 80 100 83 110 2 135-50 29-63-9-138-50-100-53-131-5-54 29-125 35-74 81-97-4 75 55 90 55 14 105-32 50-45 68-115m490 836q-27-16-27 7 0 10 12 10h17 2q24 0-4-17M482 759q-27 17 23 19 44 2 39-29-4-25-62 10m363 307-7 4q-12 7-27 17 0-5 34-21m-149 14q-6 6-5 11 3 15 27-3 24-19 18-30-7-10-21 3l-19 19m-47 59q43-3 35-21-3-11 2-24-10-16-34 9-24 23-3 36m41-156q-13 11 0 22-2-3 31-11 32-9 30 0 6-21-21-23-27-1-40 12m3 75q2-13-9-13h-1q-10 0-11 13-2 12 9 12 10 0 12-12M509 831q56-21 16-37-40-16-61 17-10 15 14 20h31m145 3-19 5q-13 6-7 16l21 12q20 12 14 14 17-4 12-31-6-29-21-16m-36-38q9-15 4-20-6-6-30 7l-11 12q-8 11-6 14 17 28 43-13m92 131 9 11q4 5 10-11-9-21-19 0m586 39q0 11 13 11 12 0 12-11 0-10-12-10-13 0-13 10m-51 59q-11 20 22 38l42 3q7-13-20-41-28-29-44 0m29-67q-11-18-28-4-13 12 8 14 20 3 20-10m25-67q-13-1-15 9-4 12 9 15 14 2 14-10l-8-14m406 190q20-2-7-13-16-7-28 24l-12 29q-8 24-1 29 13 9 24-27 12-41 24-42m-361 42-3-1q-38-13 3 44 39 54 48 7 1-5-20-27l-28-23M533 1413q9 40 25 78l-18-41q-11-27-7-37m396 454 47 1 2-1q30-14-4-20l-37-2q-17 0-8 22M779 1688l4 1q-17 29-16 32 3 11 34 15h39q22-4 50-20l45-31-76 4-80-1" fill="#fff"/></svg>