<?xml version="1.1" encoding="UTF-8"?><svg xmlns="http://www.w3.org/2000/svg" xmlns:xlink="http://www.w3.org/1999/xlink" version="2.0" width="100pt" height="100pt" viewBox="0 0 2000 2000" clip-rule="evenodd" fill-rule="evenodd" preserveAspectRatio="none"><path d="M347 639q48 34 103 38 9-84 43-156 2 59 53 96 45 33 105 35 60 3 88-27 31-33 0-91-46-67-60-97-22-50 9-112 38-75 39-114 1-61-79-68l94 5q44 16 81 51 27 26 22 78-5 60 6 83 49 100 136 15 81-80 79-159 54 41 29 141-13 55-46 152-13 83-2 153 14 87 64 136 67 66 123 61 47-5 72-54 23-47 10-94-14-51-62-60 112 13 177 118 22 36 24 100 1 70 13 96l49 104q17 51-5 119-54 167 56 232l-2-10q25 16 46 58 26 54 35 65-29-37-185-156-123-94-147-173 19 70 89 167 85 119 104 161-36-21-93-48 55 82 93 124l59 76q35 48 62 70-74-51-161-93-93-44-175-65-79-20-123-71l-84-118q-56-75-157-58l-88 19-91 9q-110-8-171-76-56-65-64-176 45 80 140 105 92 25 175-16 37-18 36-41l-20-50q-7-16-11-72-3-38-38-66-59-47-160-45-123 2-167-15-88-33-143-154-27-60-66-209 45 50 86 77" fill="#fff"/><path d="M1531 1482l65 56 56 68 92 105q59 64 82 110-20-35-112-98l-67-62q-38-39-63-56l-5-3q13-21-10-63l-38-57" fill="#fff"/><path d="M274 420q8-1 0 5 58-37 22-60-64-41-69-57-12-36-6-86 7-57 36-74-19 47 13 99 29 49 78 68l85-17q39 2 49 61 37 28-29 80-55 43-91 52l-32-3-35 6q-36-1-42-34l-13-59 17 23 13 1q-5-3 4-5" fill="#fff"/></svg>