<?xml version="1.1" encoding="UTF-8"?><svg xmlns="http://www.w3.org/2000/svg" xmlns:xlink="http://www.w3.org/1999/xlink" version="2.0" width="100pt" height="100pt" viewBox="0 0 2000 2000" clip-rule="evenodd" fill-rule="evenodd" preserveAspectRatio="none"><path d="M1591 952q56-19 97-24l-42 16-55 8" fill="#fff"/><path d="M1487 1591l-39-30 10 6 29 24" fill="#fff"/><path d="M1018 1424l-43 16 15 11 21 4-21 28 63-3 63-4q3-43-5-60-11-26-47-13-14 5-46 21m-10-80-47 10 6 6-17 6q-3 14 17 26 20 13 27-8l93-2 33 1 22-23-25-24q1-27-26-27-21 0-42 13l-41 22m135-45 9-32q3-18-2-33-63-5-96 9-48 20-100 13v10l11 27 9 30q20 3 39-9 25-16 34-18l48-1 48 4M884 1608q-35 30-43 56l51 9 53 9q-7-59-36-72 2 19-4 32l-21-34M711 792l1 31q1 16 9 22-3-8-3-29 0-17-7-24m87-39q-15-15-38-12-23 3-32 19l3 12 2 12 10 1 9-5 3 14 15-12q5-10 2-22l26-7m226 22-2-5-5-2-5 7 3 7-15-2 20 2-3-12 7 5m5-3-1 6 1 6q-9 10-34 0 2 12 21 11l28-8q-10-3-15-15m301 63q-8 1-10 13l-7 16q-2-6 1-10l4-7q-7-1-7 8v16l-12 39 2-27q1-15-5-21-4 8-5 20l-4 23-3-5-1 105q-2 62 16 92 1-8 8-18l9-18-10-19q-5-124 24-207m-2 24q-6 18-5 27l12-26q7-16 2-30l-9 29m-79 69q6-23 4-38-11 14-28 47 10 18-6 28l-7 5q12 12 14 29 2 20-14 26 7-12 7-29 0-18-11-24l-4 3 6 8 2 11-7-7-6-9-16 9q0 8 3 9-2 9-12 9l2 6 24 19 5-3 5-4 3 4 2 5-17 5-9-8-10-8q7 15-7 25 14 13 16 40 1 28-12 38l11 4 8 6q-3-13 3-12l7 4-5 10-7 7q-6-5-16-7l-15-5 5-13 2-16 6-1 6-1q-2-39-15-46l-7 11-7 11-5-12-9-10 17-5-10-9-1-1q-16-14-9-32l-2-6-30-2 2 35 1 2q7 12-7 22l-4 2-3 1h-8l-5-1-3-1-6-6-3-4q-6-13-4-56-40-4-62 9h-1l3 22q3 16-11 23l-16 1-4-2-8-11-1-8-8-26-23-6 3 28q2 16-14 19-16 2-23-11l1 28-9-8-10-9 9 2 8-2q-6-21-17-24-2-8 2-17l4-15-15-3-5 1 2-2-35-11-7-6-1 5q2 8 12 5l2 10-2 9-10-2q1-9-5-15l-7-12 5-15 1-4q-7-2-7 6l-4 11-10-54q-5-34-14-50-1 23 8 73 9 47 7 72l-12 37-10 35q-1 24 14 43l36 34-5-4q-3-3-4 1l14 3 27 21 31 17 19 2 22 1 21 9q13 7 20 8l55 2 63 7 42-7 42-2 73-49q41-25 40-62 0-15-12-50-12-35-12-58l8-72 7-75q-9-1-10 6v13q-9 31-15 87l-7 8-9 6 10-37m-56-127v12q16-3 19-9l-8-1 3-6-14 4m70-185 1-32q2-20-4-26l-2 31q-2 20 5 27m-196 9q2-9-4-11-4 5-2 14l7 12q-3-4-1-15M976 486l-5-2-4 4q-5 1-5 3l2 7 6-4q0-4 6-3v-5m344-59 10 18-2-20-5-18q-7 6-3 20M752 618q-5 7 3 20l4-12q1-8-7-8m44-41 2-6-2-3-4 3-4 4 3 3 2 4q-7 0-9 10l6 4 6-4 7 24q-2-9 7-7l2 4 1 5q-9-1-10 4v16q-17 8-27-24h10l2 12 5 9 3-13V606l-5-2-14 5-13 2 2-9q3-6-2-8l-3 17q2 9 11 5 0 10 9 19l-9-2q2 11-3 19l-3-6 1-8q-13-1-9 17 4 19 11 14l2-3 5-7 4 5-4 5 9 1 6 6 7-16 7-15 8 5q-4-4-3-12l-2-12 5-2 4-3q-5-10-2-28V573l-10 24q0-7 3-15l5-12-6-3-4 1q4 2 0 5l-7 4m-24-16q-6 2-7 11-2 9 4 13l3-7q1-5 7-3 0-15-7-14m-6-14-4-3q-4 3-5 13v18l7-11 5-13-3-4m-88 38q0 12-5 7l2 12q0 7 5 7l-1-6-1-6 5 4 4-4-4-8-5-6m42-14q-3-2-6 2l-9 72q-6 39-22 60-5 13 9 34 3-5 14 4 12 10 25 5 0-6 6-9l6-10-22-26 51 3 53-18q-29 25-61 24l-1 10-1 10 19 4 20 3q1-16 7-20 12 2 39-13 20-12 33 4l-10-2-9 2 30 23q21 12 23 30l-22 4-24 3q8-11 2-7l-17 12 6 9 7 8 2-8 5 13-10-3-4 13 2 14q-5-1-8 4-5 2-6-3-2-5-6-4 2 59 20 84l-2-28q-1-14 4-25l3 28q-2 21 2 23 7-20 6-49-1-32-11-40l10-2 9-3q-2 9 10 7l-3-12-9-7q-2-14 7-17l5 3-2 9 11-1 10-4q0 38-9 63l1-15-1-11q-20-1-25 33l-4 60q-5-6-8 0l-9 8q4-10-5-12l-6 23 12 4 4-1 1 3 26 8-1-22q0-19 20-19 20 0 20 19l1 32 33 2 3-41q0-19 20-19 20 0 20 19l-3 38 16-4 46 1q0-22 3-45 3-19 22-14 19 5 16 24l-1 42 29-2 12-84q3-17 21-13l1-31q-6-1-3-14 3-13-1-17-8 7-10 34-6-13-1-35l8-35q9 13 10 26l7 3 9-10q6-6 13-7 0 8 11 8l13 1-3 11 5 11-37 22q-20 15-14 36l9 12 4-10-10-7 10 3q3-12 34-33 26-17 16-40l-12 12 1-14-3-12q7 4 8-3l-1-12 5 4 7 1-2-6-5-3q24-10 43-8l6 8 9 7-20 2-2 19q9 3 11 12l-1 15 14-8 14-9q17 3 30-10 15-14 21-14l18-27q9-17 1-33-13-1-19-15l-10-24q-6-30-2-74l7-68q-7 7-8 24l-1 10q-6 0-5-5-23-1-24 29l-3 46q-10-8-9-48 1-36-20-39l1 8-8-1q0 57-12 94h-12l12 22V652q4 0 8-4l9-3 7 7-5 27q2-20-7-25l1 15-3 12q-46-7-95-25l-83-38-8-13-9-11q1 11 5 17l-8-2q-2 13 10 37 10 20 2 33l-14-34q16 43 19 113-7 5-9 17-10 2-34 14l-36 12q2 10-3 12l-15-10q-8-6-9-14-27 4-36-26-9-28 5-51l7 5 3-2q5-4-3-5l-9-3q0-2 5-2l2-5q-7 2-6-2l-1-5-5 10 18-44q11-27 3-48 7-4 7-28 1-21 13-22l26 7-2-5-3-5q24 0 27 7l-2 17q-2 9 7 10V575q7 4 9-5 3-10 7-9 0 14 10 24 0-7 3-8-3 13 2 12l6-27 1-21-7 22V549q-1-9 5-8 0-13-13-29-13-14-11-26l-16-9q-9-7-16-8l-20 9-18 6 2 21v17l-5-13q-3-10-9-11-4 3-1 7l1 5q-2-6-7-3l-10 5 5 9 5 8q11 63-56 108-54 37-120 44-38 4-48-35-9-31 2-71l-8-11-11-8-1 9 1 10-6-4M687 337l-4 19q-2 12 2 12l3-17q3-10-1-14m540-159q-84-56-179-65h-43q-111 9-201 69-96 63-114 150l5-1 4 1q-3 38 24 106 19-21 10-75 20 26 6 68l-30 60-5-17q-4-9-12-7l5 7q-6-2-6-10l-1-12-3 7q-4-6-3-34l-1-45q-3-9-3 15l-8 83q-4 49 1 85l5-12 9 3 5 9q1-5 3-2l4-3q1 8 8 15 0-11-17-35-14-20-7-33-2 11 7 15l2-8q0-6 3-7-1 16 4 33l10 27q8-1 10-13V529l54-52q35-26 80-25l3-11V431l20-4q12-3 16 4-18 4-14 21l27-2q17-2 23 7l-1 9-4 6 17 5 17 4-5-8q-8-1-7-6l20 2q12 1 11 10 23-12 52-12l57 5 12-6 12 3 14-10 17-12q1 9 11 7l15 1-5-11-7-11 12-10h20l4 10 3 10q28-1 77 19l48 58 6 16q3 10 11 13l6-27q2-21 6-31l-34-61q-18-40 3-64-5 18 2 24 19-26 17-73l5 13 9 7-2-19-7-10q-26-73-113-130M501 105l42 4q22 0 28-21 30-2 41-15 10-12 12-46L623 0h49q23 17 52 23 34 7 52-9l5-14h526q-6 69 14 64l7-27 15 59q12 29 45 34l73-8q49-13 74-32-18 23-30 60-11 35-7 42 9 12 20 5-11 17-26 68l-21 43q-16 33-7 46 11 16 86 13l95-5q-15 3-39 15l-38 20-46 23q-28 15-39 32-22 31 8 42l56-3q-26 13-46 39-24 32 11 40l78 7h79l125-5q-20 10-75 19-58 10-82 21l-55 26q-33 20-23 46l41 10q-26 0-17 21 3 8 23 15l28 8 57 14 57 13-2 7-157 16q-85 16-148 52-1 17 35 25-1 26 24 44l45 26-14 3q20 14 60 14-58 19-121 53-32 19-45 30-27 22-29 42-2 15 11 26 12 10 22-3l22 29q14 13 34 11l-36 13q-13 13-7 22 6 9 24 8-46 24-60 61-11 30-5 45l43-36 63-38 65-36q-34 32-53 91-18 51-3 70 13 18 55 23l-2 59 7 1q-27 12-47 36-21 26-21 51l3 26 8 28q9 12 25 9l28-1 17 16 17 15 34-4 29-23q23-19 40-46l27-52-44 114q-31 69-28 120l8-4 6-8v57q-30-5-31 26-1 26 14 46 27 34 55 31l22-8q14-7 22-7-9 9-15 23-9 19-1 29 5 6 26 12 20 5 26 16l12 25q5 11 18 15-64 30-139 34l-390-569q-8-10-20-17-24-15-43-3-19 13-23 51v35l278 504h-95q-6-32-67-30l27-30q15-19 14-35l-46-9-49 1-77 5-73 5q53-10 102-37 52-28 81-65l-22-14-23-9 9-9-13-11q-11-10-18-28l-10-30-20-2 4-5-4 1-6 24-21-12-21-16-64-42q-34-18-53-17-25 1-43 29-30 48-42 78-11 26-15 51l2-100q-16 7-63 37-39 24-64 30-15 17 14 25l43 5-38 30q-14 19 21 32 38 14 109 25l-60 12-63 5q-85 19-129 56 2 11 23 17l32 3-5 30H596l278-504-1-35q-4-38-23-51l-43 3q-12 7-20 17L397 2000H349q-81 0-148-28 6-27 2-46-6-24-29-46 56-2 140-26 110-32 70-69 45-13 56-35 9-21-4-65 17-6 24-30 7-22 1-40l27-11-29-57-35-58-47-62q-30-42-33-67 26-2 67 16l65 28q54 19 92 18l-2-77q12-1 30 10l29 16q1-21 25-13l36 16 3-37v-40q-12-67-23-99 22-4 40 28l30 58q8-45-2-82-11-34-44-57-34-23-69-21l13-57q2-34-35-37-18-2-55 10-37 12-58 9-8-30-50-37l-70-4-80-6q57-24 82-30l51-16 49-14-4-3q20-30 19-56-2-33-41-38 27-12 15-23-11-10-35-10 28-3 24-18-4-15-27-22l38-31q14-21-17-37-13-7-36-10l-37-7-62-14q-41-11-56-26l4-5-20-8-21-5q34-14 89-28l92-24 53-11q35-8 48-18 38-28 14-72-23-40-62-49 3-4 20-11 14-5 15-14 2-12-15-23-13-9-27-12l62-5q2-24-13-55l-28-51-56-98q21-4 6-46L386 61l60 39 27 20q18 12 30 9l-2-24" fill="#fff"/></svg>