<?xml version="1.1" encoding="UTF-8"?><svg xmlns="http://www.w3.org/2000/svg" xmlns:xlink="http://www.w3.org/1999/xlink" version="2.0" width="100pt" height="100pt" viewBox="0 0 2000 2000" clip-rule="evenodd" fill-rule="evenodd" preserveAspectRatio="none"><path d="M1047 337q-14-32-18-94l-8-77 2 73-6 91q0 52-11 90-6 22-2 41l10 41 15 9q10 3 21 20l17 27-3-46 9 11q10-102-26-186M640 776q-2-9-19-21l-44-36q-18-20-28-52-11 13 2 55l16 58-8 1-2 6 21 16q12 11 13 22l3 10 16 21 19 17 7 13 17-14-3-33-9-33-1-30m81-647Q734 85 736 8h418q5 73 30 123 33 65 88 56 19-26 24-83l4-96h175l-8 80q-5 93 56 127 61 34 89-64-4 15-3 80 0 56-21 72l-6 45q-4 27-1 46 34 10 80 49 43 35 64 67 27 39 13 83l-32 81q-22 9-36 30-14 20-15 43 167-57 158-243 22 52 9 154-17 131-16 156-24 19-67 73-119 51-181 135-70 95-63 225 44 9 78-20l53-58q-10 13-23 72-12 50-35 62l-54 92q-31 53 1 105 39 62 101 38 45-16 90-70 54-62 73-215 23-174 55-236 12 40 4 119l-11 126 4 130 3 130q-1 99-6 117-14 58-76 81-40 14-124 16l-127 7q-15 45-46 90-35 50-68 70 104 58 221-39-36 65-112 128H1206q7-86-8-229 8-21 29-24l9-25v-19-19l7-15 7-14q10-29-2-66l-15-35q-7-20 0-38 5-14 20-22l27-17q23-21 30-58l6-71 11-70 13-32 8-61v-57l-7 77-14 73q-17 20-61 15l-1-13q-7 47-40 43l3 42q-3 26-22 33l-23 1-1-17-20-89q-15-57-17-90-4-59 2-114 0-53-13-101-8-26 16-37 24-10 37 11l25-36 26-32-4 37 5 10 6 13v38q22 17 16 67l-6 48 10-43 15-31q8-18 6-37l-6-35V917 854l15-5q-2-50-17-91-10-28 18-37 29-8 39 20l8 24 29-18q12-14 32-61 22-51 36-72 16-23 39-44l11-5q7-1 39 15 24 12 35-9 8-16-7-39-17-26-14-41l16-40q3-14-30-23l-6-42q-2-28-11-40 11 89-33 96l-7 36 1-7q-18 28-39 31-6 44-26 78l-6-3 2-38V502l-11-1 2-26 4-24 4-11-2-12q-2-4-11-3l-12-3-3-7-3-85-1 38 4 47q2 71-13 108l-14 37q-2 15 13 36l16 26-13 12 2 23-1 8-2 2 2 1q-5 16-22 19-16 4-27-8l-42 48-10-1 2 17-9 22q-9 10-21 10l-3-1q-5-6-9-24-12-4-12-14l1-21q6-19 2-26l-9-7-9-2-6-18-2-55-3-51q-3 76 5 106-2 34-12 51l-14 11-11 10q-3 10 1 13l8 8 5 20-42 18q-12-13-35-21l-45-12q-2-26 12-44l25-29q14-83-27-131-44-51-114-8-24 47-20 108 3 53 26 104l-35 21-33 25-19-12-3-19-15-19q-7-9-9-26-6-54-3-92 2-24-11-45-15-24-16-41-3-63-18-116l5 60 1 60q-6 56-9 113-20 2-23 25l-2 41-13-1v9q0 19-15 27-13 7-28 0l-10-40-2-29-5-30-14-23-12-26q-2-24 21-53-14-5-20-44l-9-57q-3 14 5 57 2 36-26 37l-11 65-9-10-1-17-9-24-9-24 1-27 2-29q-23-4-28-13-3-6-1-32 4-55-1-76l-11-1q-8-12-10-51-1-37-10-47-7 24-7 52v52l-23 17-1 39q-2 24-10 35l-25 15-29 13q-3 16 8 45 10 29 23 41 9 8 24 10l24 6 18 18-3 5 8 8h-2l3 1 97 95q50 59 70 124l23 13 5 14 2 30q0 20 3 28l19 28 4 51q21-22-4-51V934q21-16 5-76l-10-55q5-22 28-24 24-3 29 22 23 110 26 157l22 37 4-29q5-30 34-21 28 8 23 38l-13 99q-7 59-20 97-3 84-26 273-12-5-11-23-27-9-35 31-48 12-28-81 30-102 28-115-33-13-42-56-9-43 14-75-65 30-41 214 7 46-17 104l-12 21-11 20q-3 10 4 22l11 22 15 16 17 14 33 8q21 3 31 11 24 17 33 48l6 59 3-8q7 59 33 165 25 101 29 143H751q2-43-12-62-17-24-69-33l-77-15q-55-22-120-74-77-60-90-107l82 55q53 37 94 4-7-32-56-94-49-61-57-103-40-18-117-41-66-24-102-65-43-50-58-111-12-51-8-130l39-42q-9 72 25 123l76 90q84 21 159-22 84-48 35-130-14-23-56-60-41-36-54-60-19-36-56-167 41 2 73 80 31 73 91 66 6-48-10-119-17-73-44-107l-78-79q-46-44-66-88-64-145-41-246 9-42 58-102l76-87q-13 18-10 60 4 51 35 56 31 4 46-43l13-72q12-63 3-132-7-52-30-127h44q23 22 47 67l36 68q35 61 80 59 46-1 69-73" fill="#fff"/><path d="M993 1695q-7-175 35-282 18 96 41 295 23 204 37 284h-95q-14-198-18-297" fill="#fff"/></svg>