<?xml version="1.1" encoding="UTF-8"?><svg xmlns="http://www.w3.org/2000/svg" xmlns:xlink="http://www.w3.org/1999/xlink" version="2.0" width="100pt" height="100pt" viewBox="0 0 2000 2000" clip-rule="evenodd" fill-rule="evenodd" preserveAspectRatio="none"><path d="M546 580q89-78 233-175 143-95 237-139 78-36 270-78l177-34-267 125Q986 381 934 426q70-19 200 4l226 39q-257 84-298 101-162 64-231 140 45-13 168-4 130 11 268 41-243 133-349 209-127 89-246 221l82-26q55-16 116-15-170 88-367 263L315 1565q-109 102-161 186 37-94 71-150l65-94 70-92 58-70 82-87-170 103q-88 61-152 146 126-211 233-337 136-159 317-278-199 51-365 142-181 100-294 233Q297 882 806 519q-64-6-136 13-67 16-124 48" fill="#fff"/><path d="M1326 844q-49 12-91 36 66-57 172-129 107-71 175-103 58-26 200-57l130-25-197 92q-155 75-194 108 52-14 148 3l167 29-220 74q-119 48-170 104 32-10 123-2l198 30q-177 97-257 153-94 66-182 164l60-19q41-12 86-11-124 63-271 194l-139 122q-80 75-118 138 22-60 52-111l48-70 52-68q18-23 103-115l-126 76q-65 45-112 107 94-156 173-248 100-118 233-206-146 37-269 105-133 74-217 172 169-285 544-552l-101 9" fill="#fff"/></svg>