<?xml version="1.1" encoding="UTF-8"?><svg xmlns="http://www.w3.org/2000/svg" xmlns:xlink="http://www.w3.org/1999/xlink" version="2.0" width="100pt" height="100pt" viewBox="0 0 2000 2000" clip-rule="evenodd" fill-rule="evenodd" preserveAspectRatio="none"><path d="M658 650q81-124 130-178 86-95 192-72-50 15-68 48-14 25-20 88 18-4 45-28l42-35q42-23 101-28 72-7 143 22 44 19 128 73 123 81 180 182 73 127 5 238l-10 25q20-128-42-216-64-91-192-102 52 15 70 64 18 50-16 94l-68 83q-33 44-45 104-13 64 8 113 22 54 82 85 86 46 188-56l36-43q-13 79-35 117-30 52-93 66-163 37-269-6-60-24-77-84-11-38-6-117l19-116q12-82-10-108-22-25-56-22-35 3-46 31h-9l-41 65q-22 44-5 67 28 39 71 19 43-20 41-65l5 85q-4 33-38 67H984l-34 20q-27 5-37 12-16 10-24 40l-10 48-9 41q-2 20 12 38 8 11 43 21 31 9 36 25 5 15-13 45l-26 44q-10 46 19 77 31 33 75 37 44 3 76-24l-22 28-29 24q-17 8-47 8l-49-2-107-51q-35-7-91-59-52-49-71-85 29 20 70-9-34-8-69-51l-52-72-52-62q-33-43-33-71-63-54-84-103-24-59 2-133l16 64q11 37 31 55 20 18 59 29l70 12q-36-9-52-68-10-39-10-91-1-138 86-247" fill="#fff"/><path d="M1135 367q-83 10-146-12l33-18 14 2 16-8q29-2 140-44 86-33 148-12 70 24 114 82 40 53 53 129-15-51-98-95-76-40-131-40l-143 16" fill="#fff"/><path d="M629 405q12-31 8-74-8-71-45-135-26-47-84-114 97 8 182 64 102 65 95 152-3 39-35 85l-51 78-36 73q-22 29-75 46-21 34-30 106l-4-50q-1-30-16-45l7 1q-1-47 9-73 8-20 37-55 28-34 38-59" fill="#fff"/><path d="M1501 1641q13 6 28 27-17 1-50-13-37-16-52-18-23-3-51 0l-49 8q22 26 67 56h-55l-55-3-55 5-55-2q-11-2-32-11l-35-12q-13-3-37-17-23-14-36-17l-9-9 51 1 51-1v3q22 4 51-14l45-26q46-17 94-20 78-4 109 2 61 12 75 61" fill="#fff"/><path d="M1307 1873l73-16q40-11 103-49 2-35-13-68-15-37-43-49l10-6q22 4 52 22l47 28 10 40q3 15-10 39-7 15-11 47l-12 47-37 25-42 22q-10 18-10 33H1152l36-55q23-29 49-41 23-10 70-19" fill="#fff"/></svg>