<?xml version="1.1" encoding="UTF-8"?><svg xmlns="http://www.w3.org/2000/svg" xmlns:xlink="http://www.w3.org/1999/xlink" version="2.0" width="100pt" height="100pt" viewBox="0 0 2000 2000" clip-rule="evenodd" fill-rule="evenodd" preserveAspectRatio="none"><path d="M1849 1306l-14 23-198-21-71 207 12 67-18 13q-22 11-41 7-30-8-50-33l38-66-16-215-170-39-3-23 156 19 248-860-51 893 178 28M546 1245l156-19-3 23-170 39-16 215 38 66-14 14q-18 14-36 19-30 7-59-20l12-67-71-207-198 21-14-23 178-28-51-893 248 860m83 207-15-37 269-4L997 77l184 1328 236 4-9 34-261 21-69 315 43 106-24 18q-29 18-58 20-29 3-58-19l-24-23 32-96-62-323-298-10" fill="#fff"/></svg>