<?xml version="1.1" encoding="UTF-8"?><svg xmlns="http://www.w3.org/2000/svg" xmlns:xlink="http://www.w3.org/1999/xlink" version="2.0" width="100pt" height="100pt" viewBox="0 0 2000 2000" clip-rule="evenodd" fill-rule="evenodd" preserveAspectRatio="none"><path d="M918 824q83 33 180 77l-31 73q-6 11-3 21l-46 5-31 2-330-23-273-36Q273 916 12 867V582Q519 701 700 750q95 26 218 74" fill="#fff"/><path d="M918 824q-60-188-60-237 0-56 29-140 38-111 104-186 63-71 224-93l149-7L1638 7l9-7h32q155 0 245 94 88 97 88 252v713h-5q-78-36-109-45l-106-26q-55-17-93-57L1544 754q-12-13-43-81-26-57-55-72-4 24 5 46l7 14q-9 99 20 246 11 57 42 84 23 22 80 42-12 27-10 58 2 34 20 44 16 278 156 358-19-39-8-96 10-53 38-90 28-37 74-52l94-20 48-9v427q0 157-92 250-63 63-152 85l50-154-114-187-206-166-40-334-9-2q-10 8-18 62-8 54-151 280l-142 214 61 299H420l151-246 73-153q4-68 16-155 25-174 71-265 16-33 47-86l193-40-17 60q-15 28-53 36l-1 6-10 1q-1 36 6 84l-15 39q-6 15-4 33 21 42 17 95l-17 103-1 8 2 24-6 13-15 69q-13 36-40 57l-15 35q-5 11-7 26-8 29 7 53l18 20q24 19 51 15 30-3 51-34 21-33 20-59l-5-23-6-18q-19-13-22-33-3-21 13-43l28-41q12-20 9-44l-4-18-4-22-2-31 3-5 4-9q2-19-19-64-19-42-11-71 10-39 68-65 27-36 86-73l96-61q30-23 38-61 6-29 0-73l3-23q-29-42-40-107-9-59-2-122-15 2-25 11-11 11-12 28l-9 30-10 31q-4 17 2 53v6l-4 14q-3 12-4 60-1 33-17 45l-78-10 46-5q-3-10 3-21l31-73q-97-44-180-77" fill="#fff" fill-opacity=".8"/></svg>