<?xml version="1.1" encoding="UTF-8"?><svg xmlns="http://www.w3.org/2000/svg" xmlns:xlink="http://www.w3.org/1999/xlink" version="2.0" width="100pt" height="100pt" viewBox="0 0 2000 2000" clip-rule="evenodd" fill-rule="evenodd" preserveAspectRatio="none"><path d="M838 949l60-2q12-21 30-26l49-7q3-14 26-37l3-5 28-77q0-18 6-54l4-60q2-38 14-57 6-39 19-57l56-74q30-43 41-83l4-8 15-28q18-26 48-43l60-25 6-1q24-6 45 10l148 33 19-8 25-21 26-25q37-68 63-92 43-39 108-28 59 10 94 39 44 36 68 111-2 30-17 61-22 47-35 93-31-5-69 34-37 39-66 34 9 28 2 63l-12 58 19 39 7 9 13 43 11 12q9 25 8 70l-2 70q0 12-10 18l2 11v5q-1 11-10 17l-18 3-9 3-5 3q-29 15-72 23l-74 13-41 9 56 41q20 14 65 30 39 18 53 54 16 42-22 114l-65 106-104 155q-73 112-63 160 14 63 70 98l105 46q-13 61-128 37-82-19-244-91 10-90 76-135 25-55 63-195 35-127 70-192l-213-39q-14 23-39 124-18 78-69 113-30 97-103 205L890 1835l-56 65q-34 38-45 61l-15 39H595l73-34q42-49 70-140 36-116 52-147 14-27 56-64 46-39 60-61 23-37 31-113l12-124 18-71q10-40 7-63-2-23-18-64l-23-64-33 5q-19 0-21-19-274 2-394-11-134-15-247-41-98-22-130-41-23-13-43-32L49 900l146 14 108 10 30 2 231 19 131 7h15l128-3m501-27 39 16 63-16 60-17 54-27 55-27-16-71q-10-39-22-59-164 82-233 201M1165 287l-57 74-796-74h853m208 199 1-2-3 2h2l-9 18-13 12v5l-62 50q-12 11-16 31l-10 34q-12 22-52 64l-26 29q-17 19-22 32-7 18-10 54l-7 55-15 21-21 17-20 22-23 15-3 5 27-3 25-6 57-5q-12-5-1-82 8-52 19-75 10-22 38-62l18-32 16-33 11-15 5-1 14-18 7-24q4-13 10-19l18-14 33-38q25-33 12-37m209-352-70 100L245 134H1582m51 288q-2-11 4-25l12-19 9-20-20-15q-13-12-4-18l-2-9-6 22-10 58-11 26q-6 16-4 27 6 20 39 48l21 21 23 19-44-92q-7-15-7-23m-193 619q51-26 70-30l-125 9-70-2-85-3-4-3-5-11-37 2-37 4-37 5-37 6-7 10-5 11-4 5q-3 1-8 7l-10 6-26 1-29 1-27-3-4 2 11 14 12 14 34 12h38l38-3 54-4 54-5q33 0 59-16l13-8 80-2q42 0 94-19" fill="#fff"/><path d="M838 949l-128 3H695l-5-20q-9-35-20-53-60 30-106 66L333 926l32-51 16-28 14-29 10-14h4l13-17 6-21q3-11 9-17l15-12 31-34q22-29 10-32l-20 26v4l-55 45q-10 10-14 27l-9 31-21 29-25 27-23 26q-15 17-20 28l-3 10-108-10 2-17 4-53q3-33 13-51 3-32 16-50l50-66q26-39 36-74l4-7q5-14 13-25 16-23 43-38 18-10 53-22l5-1q23-5 40 9l131 30 17-8 22-19 24-22q33-61 56-81 38-35 95-25 52 8 84 34 39 32 60 98-2 27-14 55l-32 82q-27-4-61 31-33 35-59 30 8 25 2 56l-10 51 17 34 5 9 12 38q8 4 9 11l6 26M503 1145l-31-3-106-2-4-2-4-11-33 3-33 3-32 4-33 6-7 8-4 10-4 5-16 11-23 2-49-3-4 3 10 12 10 12q14 9 31 11l67-3 48-4 48-4q30 0 52-14l12-7 71-2q38 0 84-17l32-15 31-13-113 10m161-13-37 8 51 37q17 12 57 26 35 17 47 48 15 37-19 101l-58 94-92 137q-65 100-56 143 12 56 61 87l94 41q-13 56-113 32-73-16-217-80 8-79 67-121 22-48 56-172 31-113 63-171l-190-35q-12 20-34 111-17 69-62 100-26 85-89 180L68 1863q-54-73-61-174l38-34 33-37q21-33 27-100l12-110 16-63q8-35 6-56-2-20-16-56l-20-58-30 5q-17 0-19-17H6v-81l66-3q9-18 26-22l43-7q3-10 11-19l106 15-17 19q-11 12-20 13l-2 5 46-8 50-5q-5-2-5-13l113 28 115 22q122 15 243-1-23 10-58 16l-59 10m58-612-4 19-10 52-10 23q-5 14-3 23 6 18 35 43l19 19 20 16-40-81q-9-24-2-42l11-17 7-18-17-13q-11-11-3-16l-3-8" fill="#fff" fill-opacity=".8"/></svg>