<?xml version="1.1" encoding="UTF-8"?><svg xmlns="http://www.w3.org/2000/svg" xmlns:xlink="http://www.w3.org/1999/xlink" version="2.0" width="100pt" height="100pt" viewBox="0 0 2000 2000" clip-rule="evenodd" fill-rule="evenodd" preserveAspectRatio="none"><path d="M606 829q-15 5-20 21-6 16 0 31-23-12-69-63l-45-46-15-17-19-13q4 18 20 43l27 40 31 55 11 27 12 25q-9 2-44-14 45 22 58 40l-42-2-15 2q31 4 87 27l-1 3q25 19 32 84v-26q2-14 12-24l23-18q14-11 8-23l5-5 5 1 2-3 19-6-22-12q-10-6-3-23l15-26 11-14 7-13-49 2-21 9-21 5 5-34q2-23-4-33m212-30q68-25 170 32 104 59 83 121-152-36-273 24l1 39h-1l-26 18 3 3 52 57 48 51 43 56 26 4q-3 18-17 32 67-19 162-33l-58 41-26 26-18 14q68-19 241-51l-16 8q-10 5-14 9-22 3-53 18l-51 24-53 27q-34 18-53 20l-1 4q-19 2-58 26-35 23-61 21l-3-24-5-25-24-48-47-82q-21-30-58-67l-22-21-4 16-6 20q4 6 17 9 8 2-1 5l-10-6q-35 47-55 137-17 75-17 145-45 28-97-50-34-51-57-121-6-20-9-62l-5-56q-186-26-281 196-87-69-9-205 77-133 173-122-19-60-143-106-126-47-176-5-31-38 28-94 51-47 104-62l216 7q-38-104-53-157-26-94-3-178 6-6 27-13 18-5 25-19 52 38 113 122 66 89 107 124 65-108 138-144 94-47 189 35-47 68-85 158-41 99-45 169 24-21 28-67m1075 686 25 52q15 31 26 37 13 39 65 131l-16 82q-191-337-625-1051L971 90l69 23q82 34 153 83 96 67 296 320 231 293 457 661l66 111v249Q1707 974 1361 477l-65-93q-38-52-68-81-14-13-49-32l-50-34-24-28q-14-16-29-21 195 269 425 643l392 654M495 1804l34 2q-35 20-73 22l39-24m597-127q14-10 46-19l52-14 107-28q148-28 250-29-19 20-74 35l-83 23-80 28-53 14-47 14 81 4h83q-61 42-104 42l-40 21-44 19q-15 8-43 16-19 11-17 37 4 36 22 80l32 75H1034l1-53-16-72-23-76q-10-45-6-78l-8-7q-2-6 17-10l29-6 31-11 33-5" fill="#fff"/><path d="M495 1804q-27 2-65 15-80 27-107 27 72-18 186-109 126-101 177-122l-101 27q79-25 194-82 188-94 243-114l116-43q67-23 115-33l79-10 22-4q-34 18-46 43l204-8 70-9q-121 32-260 85L945 1617l-123 54-120 56-127 44q-47 16-80 33" fill="#fff" fill-opacity=".8"/></svg>