<?xml version="1.1" encoding="UTF-8"?><svg xmlns="http://www.w3.org/2000/svg" xmlns:xlink="http://www.w3.org/1999/xlink" version="2.0" width="100pt" height="100pt" viewBox="0 0 2000 2000" clip-rule="evenodd" fill-rule="evenodd" preserveAspectRatio="none"><path d="M1744 960v-1l-14-19q-43-55-131-96-89-42-185-64l-252-47-47-297 191 80 191 82q112 53 187 105 110 80 157 168l17 35 6 19 16 53q15 68 14 112 1 58-21 115-21 56-58 99-34 40-82 75 18 24 27 54 13 45-2 82-17 47-46 85-121 170-371 277-125 54-226 73 360-199 393-226 82-69 128-140 28-43 38-82 12-44-1-78l-3-7-29 14q-43 21-128 47l-130 37 57-44 43-79 61-19 50-23-50-20-154-15-157-7-45-150 146 27q117 26 240 67 56 24 94 55l2 1q43-29 73-64 57-67 48-150-5-47-21-81l-18-39-6-11-1-3h-1" fill="#fff" fill-opacity=".8"/><path d="M963 1903l-24-23 32-97-62-322-298-10-16-37 270-4L979 76l184 1327 236 5-9 33-261 22-69 315 43 106-24 18q-29 18-58 20-29 3-58-19" fill="#fff"/><path d="M820 1153l-28 153-112 5q-123 9-174 32-46 12-80 37-17 12-25 27-5 12 1 20 10 10 28 14l40 7 63 5 62 78 155 29-126-3-126-4-53-16q-30-14-52-30-31-23-45-50-9-22-8-39 0-16 9-36 10-24 37-49 34-30 90-61 69-41 202-80l142-39" fill="#fff" fill-opacity=".8"/><path d="M872 377 820 725 660 714l-179 6-192 13-188 21 3-504 407 69 181 28 180 30" fill="#fff" fill-opacity=".8"/></svg>