<?xml version="1.1" encoding="UTF-8"?><svg xmlns="http://www.w3.org/2000/svg" xmlns:xlink="http://www.w3.org/1999/xlink" version="2.0" width="100pt" height="100pt" viewBox="0 0 2000 2000" clip-rule="evenodd" fill-rule="evenodd" preserveAspectRatio="none"><path d="M1035 847l-91-49q49-23 160-41 70-11 153 27 87 49 121 66 42 21 128 93l77 68 173 122-69 17-120 20q-81 5-224-88-60-38-265-235h-43" fill="#fff"/><path d="M514 842l-91-49q49-23 160-41 70-11 153 27l121 66q42 21 128 93l77 68 174 122-69 17-121 20q-79 5-224-88-60-38-265-235H514" fill="#fff"/><path d="M1866 1170 1520 755 715 391 1756 591 1600 124l398 533v840l-492 400 307-520-815 174 868-381" fill="#fff" fill-opacity=".8"/><path d="M1933 1145 1533 631l320 124V631l145 240v426l-233 254 115-267H1756l177-139" fill="#fff"/><path d="M36 837H5V758l57-11q70-11 154 27l120 66q43 21 128 93l77 68 174 122-69 17-120 19q-78 6-224-87-61-39-266-235" fill="#fff"/><path d="M194 1118l-69 17L5 1154V981l16 15 173 122" fill="#fff"/></svg>