<?xml version="1.1" encoding="UTF-8"?><svg xmlns="http://www.w3.org/2000/svg" xmlns:xlink="http://www.w3.org/1999/xlink" version="2.0" width="100pt" height="100pt" viewBox="0 0 2000 2000" clip-rule="evenodd" fill-rule="evenodd" preserveAspectRatio="none"><path d="M893 542q-4 30-13 40-21 21-85 18-61-2-97 24l-24 26h65l17 2 22 7q38 43 12 70-13 13-33 18l-17-24-28-30-35-3-25 3-10 939H488L465 716l-9-20q-12-22-24-26l-60 5q-47 12-70 29l-46 26q-23 6-37-11-11-13-6-39 5-30 33-37l46-2 14 6 159-27-74-35q-71-10-76-33-5-22 7-47 13-28 36-21 21 8 29 28l4 19 120 50 1-185q1-190-5-209-6-18-21-26l-17-12q-4-11 19-50 25-41 48-46 25-5 57 8 31 14 49 37 14 19-19 64l-37 41 28 386q177-27 191-47 14-20 52-27 41-9 36 27M1999 1632v82l-14 61q-22 69-61 105l-91 80q-54 38-115 38H286l-66-18q-72-25-102-54-46-45-68-76-32-46-39-94L1 1667l-2-35H466l-48 82-155-41-79 110 91-54 93 27 38 59-96 51 58 70 12 47 64-73-64-29 86-73-25-52 91-48 44 107-47 51 155 23v53l49-82-108-32-20-93 128 48 47-27 53 27-62-81-58 27-94-58 38-39h767l-48 82-155-41-79 110 91-54 93 27 38 59-96 51 58 70 12 47 64-73-64-29 86-73-25-52 91-48 44 107-47 51 155 23v53l49-82-108-32-20-93 128 48 47-27 53 27-62-81-58 27-94-58 38-39h384M1842 542q-4 30-13 40-21 21-84 18-61-2-98 24l-24 26h66l17 2 21 7q38 43 12 70-13 13-33 18l-17-24-28-30-35-3-25 3-10 939H1437l-23-916-9-20q-12-22-24-26l-60 5q-47 12-70 29l-46 26q-22 6-36-11-12-13-7-39 5-30 33-37l46-2 15 6 158-27-74-35q-71-10-76-33-4-23 7-47 13-28 36-21 21 8 29 28l4 19 120 50 1-185q1-190-5-209-6-18-21-26l-16-12q-5-11 18-50 25-41 48-46 26-5 58 8 31 14 48 37 14 19-19 64l-37 41 28 386q177-27 191-47 14-20 52-27 41-9 36 27" fill="#fff"/></svg>