<?xml version="1.1" encoding="UTF-8"?><svg xmlns="http://www.w3.org/2000/svg" xmlns:xlink="http://www.w3.org/1999/xlink" version="2.0" width="100pt" height="100pt" viewBox="0 0 2000 2000" clip-rule="evenodd" fill-rule="evenodd" preserveAspectRatio="none"><path d="M664 1070h96V829H664v241m-179 0h96V829H485v241m523-338-3 37h257V537H1124L1008 732m222 135-3-32-191-3 1 35h193M-5 1195V747l894 7 41 19-1-19 214-320q13-13 33-25 40-23 73-13 34 10 44 41l3 28 13 402h324V845h282v182H1633V992H1322l31 104-100-7-10-97H1040l5 207H942l-5-164-1 39-107 100-834 21M128 829v241h96V829H128m179 0v241h95V829H307" fill="#fff"/><path d="M572 1605v23H703l-2-21-129-2m-19-68-2 26H724V1406H631l-78 131M25 1603H-5v-54l478 3 27 13v-13l144-215q9-9 22-17 27-15 49-9 23 7 30 28l2 19 8 270H973v-15h190v123H973v-24H764l21 70-68-4-6-66H575l3 140H508l-3-111-1 26-72 68-402 10q-19-37-26-80H25V1603m121 0H81v162h65V1603m120 0H201v162h65V1603m120 0H322v162h64V1603" fill="#fff"/><path d="M485 364v17h95l-1-15-94-2m43-145-57 96-1 18H596V219H528M262 481V362H215V481h47M175 362H128V481h47V362m175 0H303V481h47V362M-5 381l4-58 414 3 20 9v-9L537 169q26-26 53-19 16 5 21 20l2 14 6 197H778V370H916v89H778V442H625l15 51-49-3-5-48H487l3 102H439l-2-80-1 18-52 50L-5 542V381m45-19V481H87V362H40" fill="#fff"/></svg>