<?xml version="1.1" encoding="UTF-8"?><svg xmlns="http://www.w3.org/2000/svg" xmlns:xlink="http://www.w3.org/1999/xlink" version="2.0" width="100pt" height="100pt" viewBox="0 0 2000 2000" clip-rule="evenodd" fill-rule="evenodd" preserveAspectRatio="none"><path d="M168 1947l-45-32 340-351-295 383" fill="#fff"/><path d="M270 1984l-54-15 296-364-242 379" fill="#fff"/><path d="M381 1992l-73-2 327-482-254 484" fill="#fff"/><path d="M487 1992H442l178-319-133 319" fill="#fff"/><path d="M546 1992l97-216-69 216H546" fill="#fff"/><path d="M682 1992H633l140-405-91 405" fill="#fff"/><path d="M735 1992l64-255-34 255H735" fill="#fff"/><path d="M833 1992l50-314-14 314H833" fill="#fff"/><path d="M909 1992l17-239 10 239H909" fill="#fff"/><path d="M1073 1992h-49l-7-429 56 429" fill="#fff"/><path d="M1078 1992l-25-245 54 245h-29" fill="#fff"/><path d="M1165 1992l-49-256 80 256h-31" fill="#fff"/><path d="M1280 1992l-68-238 98 238h-30" fill="#fff"/><path d="M1410 1992h-62l-174-456 236 456" fill="#fff"/><path d="M1499 1992h-48l-157-322 205 322" fill="#fff"/><path d="M1595 1992l-182-305 233 305h-51" fill="#fff"/><path d="M1751 1984l-67 8-283-391 350 383" fill="#fff"/><path d="M1875 1930l-70 38-439-506 509 468" fill="#fff"/><path d="M1945 1861l-31 35-13 12-406-393 450 346" fill="#fff"/><path d="M1987 1787l-36 67-520-423 556 356" fill="#fff"/><path d="M2010 1643v6l-4 58-434-294 438 230" fill="#fff"/><path d="M2010 1622l-385-215 385 161v54" fill="#fff"/><path d="M2010 1470l-380-170 380 121v49" fill="#fff"/><path d="M2010 1378l-316-110 316 71v39" fill="#fff"/><path d="M2010 1265l-342-86 342 45v41" fill="#fff"/><path d="M2010 1185l-520-83 520 24v59" fill="#fff"/><path d="M2010 1076l-326-24 326-13v37" fill="#fff"/><path d="M2010 971l-235 4 235-31v27" fill="#fff"/><path d="M2010 891l-332 34 332-73v39" fill="#fff"/><path d="M2010 796l-343 67 343-108v41" fill="#fff"/><path d="M2010 699 1650 801l360-148v46" fill="#fff"/><path d="M2010 531v66L1523 783l487-252" fill="#fff"/><path d="M2010 485 1601 684l409-260v61" fill="#fff"/><path d="M2007 294l3 58v13L1569 629l438-335" fill="#fff"/><path d="M2006 283 1504 647l486-443q12 41 16 79" fill="#fff"/><path d="M1953 128 1491 528 1907 76l26 25 20 27" fill="#fff"/><path d="M1867 49 1446 483 1801 22l66 27" fill="#fff"/><path d="M1733 11 1320 519 1647 9h34l52 2" fill="#fff"/><path d="M1614 9 1345 406 1552 9h62" fill="#fff"/><path d="M1289 374 1442 9h51L1289 374" fill="#fff"/><path d="M1423 9 1224 453 1365 9h58" fill="#fff"/><path d="M1243 9h38L1171 326 1243 9" fill="#fff"/><path d="M1203 9 1103 408 1156 9h47" fill="#fff"/><path d="M1094 9l-47 290L1060 9h34" fill="#fff"/><path d="M984 294 972 9h32L984 294" fill="#fff"/><path d="M945 9l3 166L926 9h19" fill="#fff"/><path d="M826 9l30 291L792 9h34" fill="#fff"/><path d="M775 213 717 9h18l40 204" fill="#fff"/><path d="M775 213l77 269L657 9h42l95 302-19-98" fill="#fff"/><path d="M699 9h18l58 204 19 98L699 9" fill="#fff"/><path d="M542 9 672 350 496 9h46" fill="#fff"/><path d="M436 9 615 377 381 9h55" fill="#fff"/><path d="M260 17l61-7L560 409 260 17" fill="#fff"/><path d="M141 66q31-23 74-37L634 607 141 66" fill="#fff"/><path d="M74 132l24-29 16-15L459 487 74 132" fill="#fff"/><path d="M26 233q9-31 21-56L414 532 26 233" fill="#fff"/><path d="M14 289 373 581 10 349l4-60" fill="#fff"/><path d="M10 487V410L506 746 10 487" fill="#fff"/><path d="M10 566V524L305 689 10 566" fill="#fff"/><path d="M10 661V627L279 747 10 661" fill="#fff"/><path d="M10 712l191 67L10 736V712" fill="#fff"/><path d="M10 810l231 58L10 837V810" fill="#fff"/><path d="M10 896l220 35L10 921V896" fill="#fff"/><path d="M10 979l215 16-215 8V979" fill="#fff"/><path d="M10 1062l215-4-215 28v-24" fill="#fff"/><path d="M10 1144l221-22-221 48v-26" fill="#fff"/><path d="M238 1295 10 1389v-29l228-65" fill="#fff"/><path d="M10 1409l271-103L10 1446v-37" fill="#fff"/><path d="M10 1563v-80l537-260L10 1563" fill="#fff"/><path d="M11 1670l-1-54 330-198L11 1670" fill="#fff"/><path d="M32 1785q-10-28-14-54l359-261L32 1785" fill="#fff"/><path d="M79 1870q-22-28-40-68l505-437L79 1870" fill="#fff"/><path d="M997 773q-80 1-140 43-60 41-74 103 35-37 91-58 57-22 123-23 66 0 125 21 56 21 92 57-15-62-76-103-61-41-141-40M857 998q66-25 141-25 76-1 142 24 65 23 105 65-17-72-86-118-70-47-161-47-91 1-160 49-69 47-85 119 41-42 104-67M995 552q-63 0-111 34-48 33-59 82 28-29 72-46 46-17 99-18 53 0 98 17 45 16 74 45-12-50-60-82-49-33-113-32M796 666q-12-29-12-56 0-71 62-122 61-51 149-52 88-1 150 50 62 50 63 121 0 28-11 56l46 209-9 16 14 25 31 247q4 86-21 143-115 264-252 265-149 1-264-261-26-57-22-142l28-247 13-25-9-16 44-211" fill="#fff"/></svg>