<?xml version="1.1" encoding="UTF-8"?><svg xmlns="http://www.w3.org/2000/svg" xmlns:xlink="http://www.w3.org/1999/xlink" version="2.0" width="100pt" height="100pt" viewBox="0 0 2000 2000" clip-rule="evenodd" fill-rule="evenodd" preserveAspectRatio="none"><path d="M1004 1333q-47 0-88-16-40-15-65-41 11 45 53 74 44 30 100 30 57 0 100-29 43-29 54-74-56 56-154 56m126-187q54-37 68-93-32 33-82 52-52 19-111 19-59-1-111-20-50-19-81-52 13 56 66 93 55 37 126 37 71 1 125-36m22-589q43 54 86 150 22 51 18 127l-8 66-19 155-13 22 8 15-41 187q10 23 10 51 0 64-55 108-56 45-134 45-78 0-134-46-55-45-55-109 0-22 10-49l-39-187 8-15-12-22-18-155q-6-28-7-66-3-76 19-127 41-93 87-151 68-84 141-84 80 1 148 85m73 366q-36 37-93 59-59 22-127 22-67 0-126-23-57-21-94-59 15 64 77 106 62 43 143 43 81 0 143-42 62-42 77-106" fill="#fff"/><path d="M326 1002l349 592h676l351-599-347-591H675L326 1002m-115 4L616 311h791l404 687-409 696H616L211 1006" fill="#fff"/></svg>