<?xml version="1.1" encoding="UTF-8"?><svg xmlns="http://www.w3.org/2000/svg" xmlns:xlink="http://www.w3.org/1999/xlink" version="2.0" width="100pt" height="100pt" viewBox="0 0 2000 2000" clip-rule="evenodd" fill-rule="evenodd" preserveAspectRatio="none"><path d="M1337 1271q-55 63-53 136 28-50 84-90 58-41 131-60 73-19 143-12 68 8 118 38-34-65-112-93l-168-5q-88 22-143 86m112-207q-77 20-126 76-47 55-46 119 25-45 74-79 50-36 114-52 64-17 126-11 60 6 103 33-30-57-99-81l-146-5M1232 825q47-64 132-87 85-22 157 12 73 33 91 102 8 29 3 56l96 192-4 18 19 20 91 232q25 82 15 144-45 283-180 318-142 37-320-187-38-49-56-132l-33-247 7-28-13-13-9-215q-17-22-25-51-18-70 29-134m277 29-116-4q-61 16-100 61-38 43-37 94 21-35 59-62 40-29 91-42l100-8q48 5 82 26-24-45-79-65" fill="#fff"/><path d="M933 771q-57-31-116-25-59 6-93 45l87-6q50 7 97 33 47 25 80 63 31 36 42 76 14-50-13-102-28-54-84-84m-7-177q-47 5-74 35 70-20 146 22 37 20 64 50 25 29 34 61 11-40-11-82-21-42-66-66-45-24-93-20M582 940 699 776l20-12V749L833 617q2-25 13-45 28-51 91-63 64-12 126 22 63 34 87 94 25 60-3 111-9 19-29 35l-50 166-12 8v24l-74 187q-31 62-71 93-187 141-283 89-105-58-86-289 4-50 40-109m63-58 100-6q57 8 111 37 54 30 91 73 36 41 49 87 16-57-15-117-31-61-96-97-65-35-133-28-67 7-107 51" fill="#fff"/><path d="M550 306l-90-2q35 6 70 30 36 25 62 64 27 38 38 81 10 41 3 76 30-33 30-85 0-52-32-99-32-46-81-65M362 344q41 7 81 35 41 29 71 73 30 44 43 92 11 48 3 88 35-39 35-98-1-59-37-113-36-53-92-74l-104-3M624 229q62 10 105 75 45 64 32 125 24-26 24-68 0-42-25-78-25-37-64-52l-72-2m-10-18q10-17 28-29 41-28 96-13 54 16 89 67 35 51 31 108-5 56-46 85l-38 16L670 556l-13 1-9 18L515 692q-48 36-91 45-200 37-259-48-55-80 52-254 23-38 74-70l157-83 20-2 6-11 140-58" fill="#fff"/></svg>