<?xml version="1.1" encoding="UTF-8"?><svg xmlns="http://www.w3.org/2000/svg" xmlns:xlink="http://www.w3.org/1999/xlink" version="2.0" width="100pt" height="100pt" viewBox="0 0 2000 2000" clip-rule="evenodd" fill-rule="evenodd" preserveAspectRatio="none"><path d="M1737 949v182H1455v-35H1144l31 104-100-7-10-97H862l5 207H764l-5-164-1 39-107 100L7 1295V1174H46V933H7V853l704 5 41 19-1-19L965 538q13-13 33-25 40-23 73-13 34 10 44 41l3 28 13 402h324V949h282M582 933H486v241h96V933m-179 0H307v241h96V933m-179 0H129v241h95V933m606-97-3 37h257V641H946L830 836m28 100 1 35h193l-3-32-191-3" fill="#fff"/><path d="M1824 1207V865H1382v22H1216l-10-319q3-47-22-87-28-45-83-61l-43-6q-48 0-95 28-28 16-48 36l-5 5L716 774 7 769V679l661 5L840 426l11-12q94-90 207-90l68 9q86 25 132 98 41 63 38 138l6 206h612v522H1390l26 84-370-23 3 112H606l-1-24L7 1461v-90l684-17 1-2 1 28H957l-6-207h49l9 92 283 18-33-110h123v34h442" fill="#fff" fill-opacity=".8"/></svg>