<?xml version="1.1" encoding="UTF-8"?><svg xmlns="http://www.w3.org/2000/svg" xmlns:xlink="http://www.w3.org/1999/xlink" version="2.0" width="100pt" height="100pt" viewBox="0 0 2000 2000" clip-rule="evenodd" fill-rule="evenodd" preserveAspectRatio="none"><path d="M1064 1281l78 9q36-48 132-78 97-30 219-30 153 0 261 46 108 45 108 110 0 50-69 91-67 39-176 56 30 39 30 82 0 122-219 208-218 86-528 86-190 0-362-37l526-543" fill="#fff"/><path d="M153 1567q0-99 151-177 148-77 382-104L265 1721q-112-69-112-154" fill="#fff"/><path d="M921 1274l70 2-516 532-55-16 501-518" fill="#fff"/><path d="M871 642l81-155 85 158q84 169 84 225 0 248-159 248-84 0-129-69-39-60-41-157-2-79 79-250" fill="#fff"/><path d="M1166 518q-26-40-28-105-1-54 53-169l55-104 57 107q56 114 56 151 0 166-106 166-57 0-87-46" fill="#fff"/></svg>