<?xml version="1.1" encoding="UTF-8"?><svg xmlns="http://www.w3.org/2000/svg" xmlns:xlink="http://www.w3.org/1999/xlink" version="2.0" width="100pt" height="100pt" viewBox="0 0 2000 2000" clip-rule="evenodd" fill-rule="evenodd" preserveAspectRatio="none"><path d="M1069 331V453H916V331Q709 355 551 492l78 109-90-99q-89 82-145 188-57 111-70 233H446v153H324q11 110 62 216l156-76-147 93q27 55 72 111l72-62-65 71q82 99 195 161 116 63 247 78V1546h153v122q192-21 349-147l-57-66 65 60 51-49-52-42 58 37q153-164 178-385H1539V923h122q-19-171-120-313l-42 30 38-35q-82-113-202-185-124-73-266-89m569 208q123 173 144 384h110v153H1782q-25 258-197 450l397 254q-14 35-36 67l-375-305-57 54 356 327-70 39-304-350q-188 155-427 177v111H916V1789q-154-15-292-87-133-70-232-184L74 1864q-22-29-40-68l343-297-56-77L6 1663l-1-54 315-189-27-46L5 1557v-80l273-133q-62-127-75-268H92V923H203q13-135 70-258 56-120 148-215L69 126 93 96l15-15L425 446l33-32L135 60q36-25 75-38L480 395Q670 234 916 210V100h153V210q245 24 435 184L1796 16l66 26-349 360 44 42L1902 69l25 25 21 27-382 331 61 72 357-327 17 80-363 262" fill="#fff"/><path d="M1032 716H953V653Q832 667 746 753q-87 86-101 207h64v79H645q14 121 101 207 86 87 207 101v-64h79v64q121-14 207-101 87-86 100-207h-63V960h63q-13-121-100-207-86-86-207-100v63m0-183v57q146 14 251 119 105 105 119 251h57v79h-57q-14 147-119 251-105 105-251 119v58H953v-58q-147-14-251-119-105-104-119-251H526V960h57q14-146 119-251Q806 604 953 590V533h79" fill="#fff" fill-opacity=".8"/></svg>