<?xml version="1.1" encoding="UTF-8"?><svg xmlns="http://www.w3.org/2000/svg" xmlns:xlink="http://www.w3.org/1999/xlink" version="2.0" width="100pt" height="100pt" viewBox="0 0 2000 2000" clip-rule="evenodd" fill-rule="evenodd" preserveAspectRatio="none"><path d="M1726 1473l-7-15-5-18-17-32-29-20 23 73 8 6 15 15-20 46q32-11 35-24 4-14-3-31m-582 314q14-24 47-35 39-13 106-75l88-88q52-52 60-75l-68-32-8-10-30 35-70 83q-45 52-88 70-71 31-199 72 107 66 138 71 13 2 24-16m112-556-12-47-44 26q-46 33-52 72-8 56 35 84l69-22 34-18q-16-41-30-95M1153 178l26 40h69l-45 56 26 61 76 7-51 51 32 74 74 7-49 50 26 59 69 6-46 48 27 62 67 6-44 46 28 64 69 6-46 47 27 59 66 7-44 44 2 4 36-7q40-2 59 17 20 20 91 241l80 258q12 45-94 84l-12 14-5 3 3-8-4 2q-30 18-103 44-30 10-51 51l-86 158-40 69-47 63-23 25H370l-120-8q-61-12-95-47-28-185-24-230l6-68q3-31 14-54 6-13 30-35 25-22 36-26l62-16-62-71-14 11q-20 1-52-47-19-28-4-50l19-16q-57-80-61-117-5-56-2-74 9-52 63-105 22-20 67-32l69-9q30 0 90 38 65 41 90 85 16 27 39 103l23 91q5 23 0 62-5 44-19 51l-33 18q-13 13 20 23l93 7 66-8q8-3 44 0l63 5 97-5q70-7 97-21 51-30 97-51l47-16q-27-35-27-84-1-81 89-154l90-57 17-23-36-87-65-7 44-43-28-66-68-7 46-46-23-57-70-8 47-46-25-50-71-7 48-48-23-54-76-9 52-51-29-73-70-7 48-48-14-47-65-43 70-22q-3-27 15-51l-8-74 58 38 61-6 57-38-7 69" fill="#fff"/><path d="M464 304q311-57 680 22 286 61 512 188 220 122 344 283v315q-35-181-270-353-254-187-622-267-423-91-756 6Q41 589 0 776V529Q158 360 464 304" fill="url(#A)"/><path d="M1106 918Q763 811 492 828 238 844 205 951q-43 137 134 367-136-100-196-202-62-105-34-195 51-163 345-191 293-29 681 92 388 121 613 311 226 191 175 354-39 125-230 172 183-128 158-235-25-117-204-249-208-153-541-257" fill="url(#B)"/><path d="M88 94Q179 0 333 0H1558q257 92 431 235 11 52 11 109V473q-130-140-354-242-243-111-539-149-385-50-701 38Q115 202 0 362V344Q0 188 88 94" fill="url(#C)"/><defs><linearGradient id="A" x1="-16384" x2="16384" gradientUnits="userSpaceOnUse" gradientTransform="matrix(.06 0 0-.06 1000 696)"><stop offset="0" stop-color="#fff" stop-opacity="0"/><stop offset="0.2" stop-color="#fff" stop-opacity=".75"/><stop offset="0.51" stop-color="#fff" stop-opacity=".4"/><stop offset="1" stop-color="#fff"/></linearGradient><linearGradient id="B" x1="-16384" x2="16384" gradientUnits="userSpaceOnUse" gradientTransform="matrix(.06 0 0-.06 1016 1192)"><stop offset="0" stop-color="#fff" stop-opacity="0"/><stop offset="0.21" stop-color="#fff" stop-opacity=".59"/><stop offset="0.78" stop-color="#fff" stop-opacity=".4"/><stop offset="1" stop-color="#fff"/></linearGradient><linearGradient id="C" x1="-16384" x2="16384" gradientUnits="userSpaceOnUse" gradientTransform="matrix(.06 0 0-.06 1000 237)"><stop offset="0" stop-color="#fff"/><stop offset="0.51" stop-color="#fff" stop-opacity=".4"/><stop offset="1" stop-color="#fff"/></linearGradient></defs></svg>