<?xml version="1.1" encoding="UTF-8"?><svg xmlns="http://www.w3.org/2000/svg" xmlns:xlink="http://www.w3.org/1999/xlink" version="2.0" width="100pt" height="100pt" viewBox="0 0 2000 2000" clip-rule="evenodd" fill-rule="evenodd" preserveAspectRatio="none"><path d="M88 94Q178 0 333 0h694L983 63l93 182-190-40L764 384l92 178-187-39-97 143 86 169-175-37L381 950l82 162-168-35-106 155 85 167-172-36q-60 86-98 146l81 159-85-18V343Q0 188 88 94" fill="#fff"/><path d="M754 978q40-144 130-229 83-78 188-89 103-10 191 46 93 60 139 175-32 56-215 249l141 384-190-7 49 57-42 144q-56-107-134-193L909 1407q-64-68-98-120-101-151-57-309" fill="#fff"/><path d="M1343 1803q-103 55-128 93 2-44-28-123l153-165-25-32 103 8-107-420 189-197 12 80q112-123 255-138 134-15 233 68v570q-71 69-206 108l-224 54q-118 35-227 94" fill="#fff"/><g transform="translate(1076)"><path d="M371 0 0 448 268 0H371" fill="#fff" fill-opacity=".6"/></g><g transform="translate(71 1299)"><path d="M0 566 447 0 62 623 0 566" fill="#fff" fill-opacity=".6"/></g><g transform="translate(1136 121)"><g transform="scale(1.03.99)"><path d="M0 419 127 205 302 0 168 227 0 419" fill="#fff" fill-opacity=".38"/></g></g><g transform="translate(232 1519)"><path d="M0 419 127 205 302 0 168 227 0 419" fill="#fff" fill-opacity=".38"/></g></svg>