<?xml version="1.1" encoding="UTF-8"?><svg xmlns="http://www.w3.org/2000/svg" xmlns:xlink="http://www.w3.org/1999/xlink" version="2.0" width="100pt" height="100pt" viewBox="0 0 2000 2000" clip-rule="evenodd" fill-rule="evenodd" preserveAspectRatio="none"><path d="M358 687q-12 18-31 12-17-5-27-24l10-15 11-15q44 16 37 42" fill="#fff"/><path d="M255 787q40-10 107 1-63 7-107-1" fill="#fff"/><path d="M5 313q-7-7-5-24 13-72 23-89 16-2 45 15 31 17 48 39 18 22 38 76l19 15q15 12 9 30 18 13 3 34 14 25 33 21l33-13q20-13 30-19l16-2 6-2 32 33q22 18 16 34l-44-34-1 2q-31 39-74 49-50 12-78-30l-19-36Q61 372 5 313" fill="#fff"/><path d="M431 846v3l32 31 24-8-12-31-26 1-18 4m32-56 6 4q-4-14-15-8l-19 3q-8 11-6 28l3 27 23-18 22-19-4-11-4 3-11-9h5m6-108 14 11 13 8-5-19-21-5-1 5m576-489-17-18q-57 98-42 155l12 26 12 20 19-8 9 12q17-2 21-10-6 7-14 7l-13-9-17-46-7-19q-3-12 1-18l-6-9q-4-16 14-18-6-6-6-13 0-9 7-14l23-21 5-8v-1l-1-8m219 152q-43-39-45-77-54-5-95-25l-49-25q-9 21-40 41l-7 3 2 16q10 8 15 33l16 42 1 12 18 13q13 6 15 16l75-9q17 5 29 15l65-55M96 1407l7-4q-2-17-15-24l-28-9q12 26 36 37M56 1307l-25-1q15 16 27 42 8-8 24-8-23-19-26-33m99-235 3-5q4-16-2-18-36 18-40 58l6 5 33-40m0-133 10-10 28-14q8-14 8-32-13-2-23 7-12 9-21 9l-2 18v22M491 105Q462 94 374 86q-9-1-16-9-6-9-5-19-51-20-81-50l-3-3 64-5H570l31 37 26 39q6 14 5 38l-4 39q17 4 23 16l54-14q18-5 30 12 12 16 1 31l-22 28q-6 11 3 30l4 10 19 9 39 43q23 27 41 27l-10-41q-7-25-4-43l-9-10q7-42-12-121L751 12 748 0h60q0 57 11 83l31 42q21 26 24 43 4 21-12 51-19 37-21 50-6 44 14 60l49 3 3-3 2 2q30-12 47-31 5-24 14-38l1 20 2-3 23-54 23-61q-22-30-33-66-10-5-13-16V81Q936 42 926 0h745q102-1 172 33l38 22-68 70 62 212-211-88-164 136 46 238-203-108-197 163 45 233L991 806 834 937l43 220-188-99-166 139 41 212-180-95-171 142 42 218-185-98-70 59V1274l89 2 37-7q5-31 38-52l8-30-45-23L0 1231v-2q43-29 96-88l-7-7v6q-4-11-21-10l-30 4-12-16-11-14q-6-20 7-47 14-27 10-39 77 27 113-34-41-106 97-150l5 19 48-12q27-9 43-25l12 3q7 2 12 8 11 7 32-12 20-20 31-15l-9-13q15-5 18-18 3-19 13-28l3 17-3 17q5 3 8-6 2-8 7 0-5 5 1 6 11 0 15 6l17-21 16-24-6-17-1-2-38-14-11 17-5 18q-5-34 5-66-21-5-36-14l-47-37q-26-22-50-28l-44-1-45-2-22-7-97 6q-50 10-90 42-10 9-24 5V527q11 3 14 15l6 25q58-37 128-43l-3-12 34 12 56 11q10 3 13 14l32 9q39 9 125 43l127 44 80 20q86 15 120-20 3-43-145-92L400 494l4-6 3-7q12 13 30 14l28 3q12 19 107 36l88 6 129 14 128 6q0-96-134-103l-148 4q-7-31-116-76-110-46-117-65 7-6 14 0 7 7 12 3l68-2q72-29 86-6 42-5 59-23l-37-39q-22-23-44-33-21-12-17-27 13-63-52-88" fill="#fff"/><path d="M1863 44 1714 171q-179 145-551 402Q840 796 668 948L340 1258Q141 1448 0 1552V343Q0 188 88 94 178 0 333 0H1671q116-1 192 44" fill="#fff" fill-opacity=".3"/><path d="M1259 864l-26-253 53-87 18 177q16 197 4 296l4 78q2 70-5 87l7 12q-15 40-13 120l8 123 12 121q7 69 3 123-4 62-42 80-38 17-93-17-56-35-35-95 15-45 66-91 24-22 26-43-1-28 1-52l10-54 1-55-21-48q-17-30-16-47 1-21 22-48l31-44q9-26-15-283" fill="#fff"/><path d="M1643 794q12-48 31-75 6 24-4 59-12 43-12 58 0 19 18 55 18 35 17 57l-13 65q-11 40-7 68 4 37 0 104 9 2 16 7 8 4 15-8l12 27q7 15 18 26-5 8-6 47-1 29-22 36-4 5 5 13 8 7 4 12-3 9-10 7h-12q-4 9 10 15 13 5 1 20l18 12q12-17 37-25l-27 46q-76 8-155-45-4-32 3-54l7 9q7-14 0-45-6-29 6-40-1-13 7-27-16-28-11-62 3-16 16-38l19-36q8-26-4-41l-26-38q-15-33 3-67l29-62 17-80" fill="#fff"/><path d="M1677 559l-19-42q-11-27-9-43 11-63 43-10 32 55 9 78l-6 69-14 26 3-38-7-40" fill="#fff"/></svg>