<?xml version="1.1" encoding="UTF-8"?><svg xmlns="http://www.w3.org/2000/svg" xmlns:xlink="http://www.w3.org/1999/xlink" version="2.0" width="100pt" height="100pt" viewBox="0 0 2000 2000" clip-rule="evenodd" fill-rule="evenodd" preserveAspectRatio="none"><path d="M1292 794q-69-18-115 11L0 1607V1460l58-40-18-182 145 95 114-92-19-187 149 98 128-89-20-201L698 968 869 853 850 668l150 98 57-35q28-16 56-27l75-191 95 167 74-6q36 4 66 18l185-61-64 171q47 90 49 152l128 127-180 20q-36 46-91 88l37 178-167-85-143 101 23 198-160-100-172 122 23 194-158-99-137 98 22 183-148-92-145 104 1 7q-91-3-159-40l1239-883q63-46 58-109-5-55-57-106-51-48-115-66" fill="#fff"/><path d="M1345 906q51 51 17 108-17 29-44 47L113 1922l-22-19Q9 1819 1 1683L1143 906q30-20 71-30 80-21 131 30" fill="#fff"/><g transform="translate(0 530)"><path d="M1518 253q9 88 23 104l180 18-128 129q1 44-75 103l38 178-168-86-143 102 23 198-160-101-172 122 23 195-157-99-138 98 22 183-148-93-85 65 12 100H353l-21-13-17 12q-138-9-224-95-91-91-91-247V855l53 35L206 778 188 595l145 95 134-92-19-186 149 97q56-38 168-109L745 200 906 305l79-53q36-25 70-42l4-185 137 115q14-7 2 10-13 18-7 16l61 1 59 4L1424 0l59 182q27-3 35 71" fill="#fff" fill-opacity=".51"/></g><g transform="translate(465)"><path d="M1264 3q135 54 227 138 44 82 44 202V1472q-79 149-261 291-90 71-165 112l97-115q82-107 9-65-116 67-408 211l143-136q144-138 155-144L535 1876q185-110 298-192 154-111 282-242 281-285 347-526 90-324-223-531-251-166-770 33Q210 517 0 649L460 295H140L387 135 213 122 506 0h700l58 3" fill="#fff" fill-opacity=".5"/></g><path d="M1600 1668l131-153-335 148 170-125q191-151 299-276 81-94 135-217v377l-60 85q-101 131-197 221l47-110-190 50" fill="#fff"/></svg>