<?xml version="1.1" encoding="UTF-8"?><svg xmlns="http://www.w3.org/2000/svg" xmlns:xlink="http://www.w3.org/1999/xlink" version="2.0" width="100pt" height="100pt" viewBox="0 0 2000 2000" clip-rule="evenodd" fill-rule="evenodd" preserveAspectRatio="none"><path d="M742 803v-4l-3 4h3m368 311-19-14q-178 26-291-27l-39-26q-29 24-52 29-15 2-28-8l-11-15-2-4-4-10-66 24-12 8-97 30q13 4 18 14l66 123 54 95 12 5 8 6 53 29q-27-35-2-121 6-24 31-72l24-43q69-28 86-29 49-3 103 59 6 6 10 42l4 42q3 25-4 59l-11 57-19 33q-20 27-41 33l5 16 65 50q135-73 189-99l13-4 32-16-49-233 1-15-1-4-26-14m87-131-15-4q-22 17-52 26l35 8 16 11 11-2 52-17-40-23-5 1h-2m-160 64q-9-8-6-18 2-10 12-15h-4-17l-14-4q-69-13-136-53l-14-16q-16 5-29-6l-23-20-13 20q10 10 10 22 10 27-2 12h-1q14 21 1 37 18 15 62 27 72 21 174 14m188-252q19 7 22 26l3 30q9 15 2 30l-11 24-8 26 37 18q22 13 51 40 8 8 7 22-2 13-12 20-32 23-71 38 11 6 9 19-2 13-12 18l-9 15-1 4q62 146 89 222l1 8 31 88q7 25-17 36v1l-4 7-13 18q-131 73-293 174l2 17-37 215 5 18-2 27 5 40H387l1-3q25-70 43-154 33-140 31-312l-4-6q-47-117-73-232l-2-8q-47-89-89-198-5-11 1-22-9-10-8-22 0-13 12-22 37-25 114-41h13l190-49q23-4 36 16h1l19 3 15-3h3q13-8 25-11 9-7 22-10l22-42-34-26q-10-8-9-20 0-11 8-20l4-13-3-1-33 29-2-47-41-21-35 30-2-49-44-22-34 29-2-48-43-22-35 31-2-49-41-21-38 33-1-53-51-25-39 33-2-54-42-21-41 30 2-49-27-20-49 2 29-39q-3-19 7-43l-25-42 52 8q18-12 37-9l19-48 27 48 16 5 17 7 36-33 3 50 50 24 38-35 3 54 38 19 36-32 2 50 35 20 34-31 3 49 39 19 35-31 2 49 46 22 32-29 2 46 59 29 23-48q8-14 26-14 20 0 27 15 98-37 207 28 105 62 147 171" fill="#fff"/><path d="M1495 423Q1292 231 960 174q-93-16-230-6-126 8-260 36Q695 78 960 78q384 1 656 247 272 247 272 594-1 219-119 409-114 184-311 298 113-74 198-235 120-226 83-486-42-291-244-482" fill="#fff"/></svg>