<?xml version="1.1" encoding="UTF-8"?><svg xmlns="http://www.w3.org/2000/svg" xmlns:xlink="http://www.w3.org/1999/xlink" version="2.0" width="100pt" height="100pt" viewBox="0 0 2000 2000" clip-rule="evenodd" fill-rule="evenodd" preserveAspectRatio="none"><path d="M698 1438l11-9 23-13-12-5-2 1q-38 17-62 16l-3 1 20 17q12 1 25-8m-25-224-23 68 39-10 18-3-34-55m26-253q-15 22-14 56l1 2q16 2 31 13l24 22q30-20 73-42l36-18-29-31q-35-31-68-29-36 2-54 27M327 1346q68 5 125 23l127-26 1-2 8-13 27-112-147 68-141 62M209 383q21 37 28 74 19 46 21 109 2 57-10 96-16 54-78 100-57 42-115 53 5 6 29 24l27 24q17 17 26 35l32 45q21 32 27 83l12 110 21 77 148-39q128-34 159-83l53-71 26-32 25-6q13-77 89-94 66-14 141 46l62 63 21 11 66-45-6-54 43 28 48-34-6-57 13 8q-43-103-61-177-31 0-43 34-14 41-27 48-25-1-54-14l-14-7-23-10-7-5-20 2-10-15-13-2-33-14q-20 22-36 12-11-7-16-41l-5-9-40-30-37-33-8-6-10-13q2 17-16 41-36-58-29-81l-6 26-7 26q-3-26 5-83l17-84-23 23 53-68 32-29q23-23 22-33l38-29-4-3 41-3q38-18 75-17 70 2 121 71 53 89 91 128l176-6q121 9 181 41 46 7 118 59l17 13-3-29 51 33 54-36-6-59 48 31 35-19 24-61 30 53 44 4 59-19-21 54q15 26 16 48l40 40-56 6-29 28 12 56-53-27-45 33 6 51 49 57 43 75q80 114 88 228 9 106 42 365 9 218-97 279l-11 169q-88 75-226 75H1263q67-156 68-168l-2-12-5-9v-5l-24-16-25-16q42-86 76-219l11-79 5-79v-25l-36 34q-9 2-22 23l-19 18q-11 6-41 34l-47 38-47 38-1-12-3-11 1-6-12-10q-17 14-21 30-8 35-30 56l-44 41-19 27q-13 19-23 18l-3-16-12 19-15 17q-23 9-7-28l23-42q14-27 11-43-35 15-57 60-7 14-15 42l-11 18-21 2-3-30q-16-13 23-65l27-36 11-11 7-13q-20 7-41 22-23 15-32 30l-16 39q-14 28-25 26-18-3 3-59 20-53 33-66l23-19 26-17 24-16 5-12 5-12q-50 36-99 25-5-16-4-22 23-1 51-21l27-20 14-16v-3l15-15q8-7 19-7l59 6h17l2-13 60-59 4-28q6-14 20-21l28-13 25-17q13-18 22-21 7-10 27-26l25-24 5-19 11-11 4-19 3-20-26-61-1-3 3 30-45-28-47 34 7 57-46-29-44 32 6 54-44-27-2 2 12 28q9 33-4 52-15 21-212 133l-7 11-14 1-2 1 8 13v15l-11 8-10 5-11-4-3-5 2 5q7 13-6 21-13 8-20-5l-12-17-80 43q-29 16-74-46-7 0-12-6-59 32-169 54-121 46-193 60l-17-2-13-4q-151-75-171-90l3 50 5 4 3 4 44 204q35 132 77 168 92 79 130 121-135-11-218-95-92-90-92-247V361q0-52 11-101 40-2 75 10 114 36 128 113" fill="#fff"/></svg>