<?xml version="1.1" encoding="UTF-8"?><svg xmlns="http://www.w3.org/2000/svg" xmlns:xlink="http://www.w3.org/1999/xlink" version="2.0" width="100pt" height="100pt" viewBox="0 0 2000 2000" clip-rule="evenodd" fill-rule="evenodd" preserveAspectRatio="none"><path d="M501 1548l3-24-124-205q-71 202-65 225 7 27 25 61 22 43 40 44 18 1 36-11l15-12q36-17 53-39l17-39M328 1041q0-156 132-185 93-21 200 65l89 90 30 15 93-64-8-76 61 39 69-48-9-81 65 42 60-41-8-82 65 43 51-42-8-84 67 44 58-40-9-90 72 47 77-51-9-83 68 44 26-16q11-7 25-12l33-86 43 75 63 5 84-27-30 77q22 38 23 68l57 57-81 9-41 40 17 80-75-38-64 45 10 89-72-45-78 55 11 87-71-44-62 44 10 83-67-42-65 47 10 79-64-40-68 48 10 81-65-41-63 45 9 78-62-39-4 3 16 40q13 46-5 73-18 27-257 165L408 1702q-40 21-100-58-54-71-59-117l71-293 34-44q-26-72-26-149m219 9 85-43-41-45q-50-44-97-42-81 5-95 86-11 65 18 133 38-39 130-89" fill="#fff"/><path d="M1362 2000q-5-14-4-31 17-20 50-30 41-12 58-24-2-45 30-82 16-19 69-58-2-32 25-70 30-42 32-66l95-46q61-28 99 12l-7-34q-8-30 1-43 63-31 76 44l60-54 54-59v198q0 156-96 247-94 96-250 96H1362" fill="#fff"/><path d="M1996 1438q-1-10 4-20v23l-4-3" fill="#fff"/><path d="M1172 2000q66-44 137 0H1172" fill="#fff"/><path d="M1871 999q20-14 37-62 16-46 41-62 21-14 51-19v504l-1-1-55-36q-33-19-67-13 3-11 20-11 18-1 26-13l22 26q14 16 27 17 14-6 15-32 0-28 9-35-28-21-50-83-23-67-47-91-25-1-44 12l-29 11q7-15 32-39l32-40-9-16-10-17" fill="#fff"/><path d="M1493 1683l26 2q23-8 28 0-3 21-26 27l-44 6q8-18-7-29-19-14-20-31 7-15 45-25-4 19 6 18 5 10-2 18-8 8-6 14" fill="#fff"/><path d="M1544 1588q-18 6-13 37 6 37 2 45l-33-60q-23-38-5-65 17-2 29 11l20 32" fill="#fff"/><path d="M1369 1714q-11-16 2-21l25-8q4 22-27 29" fill="#fff"/><path d="M1412 1651l4-16 4-17q16-1 11 17-5 18-19 16" fill="#fff"/><path d="M1590 1534q15-3 13-14 38-12 49 43-57 28-62-29" fill="#fff"/><path d="M1563 1592q-28-18-11-29 17-11 11 29" fill="#fff"/><path d="M1636 1451l-41 13q-6-27 26-45 33-19 44 12-5 12-29 20" fill="#fff"/><path d="M1778 1335q-20 4-27-30 21-4 27 30" fill="#fff"/><path d="M1819 1293q-6-22 2-26l25-3q3 23-27 29" fill="#fff"/><path d="M1783 1206q9-18 28-16 20 3 21 30l-31 7q-15-1-18-21" fill="#fff"/><path d="M1729 1175q-5 13-29 20l-35 1q-14-26 12-41 30-17 28-31 12 7 20 24 9 18 4 27" fill="#fff"/><path d="M1727 1107l27-18q16-8 29 0 7 14-2 28-10 15-8 24-25 4-46-34" fill="#fff"/><path d="M1584 1193q-10 4-14-14l-8-28 32-11q11 18 3 31l-13 22" fill="#fff"/><path d="M1232 1935q-12-7-18-29-7-22-1-34 46-18 62 0l39-76q23-43 49-71l19 20q11 11 14 28-63 6-91 72-31 75-73 90" fill="#fff"/><path d="M1527 1158l19 39q9 20 6 41 15 15 52 7 29-7 50-21 12 17 12 27l-14 23 36 18q23 10 31 29-14-8-51 7 4 29 30 32l43 3q2 9-12 19-14 8-12 18l-33-26-38-30q-6-10 8-32l-40-37q-21-11-62-8 1 39-34 122-31 73-20 111 6 16 0 16-6 0-8-13-10 58-8 91-15-2-15-26 1-24-9-25-54 44-46 113-41-20-35 60-10-16-37-8l-49 17q-7-16-25-24l-24-19q-17-32-3-80 13-48 3-67 64 7 109-15 47-25 66-81-60-95-15-173 32-55 125-108m-57 161q14-32 6-66-23 1-37 18-15 20-30 23l4 50q7 35 28 28l29-53" fill="#fff"/><path d="M123 1054l90-20q50-16 76-48l2-1h-1l59-62 40-9h9l34 10 22 2 64 13q11 2 9 15-2 12-13 11l-7-1-3 1q20 13 21 30 1 17-20 31l-4 8-2 8-26 39-23 31-2 3q-4 6-11 4l-9-7-7-2q-11-3-9-16l-6-1v1l-6 1-5 4q-10 6-17-4-7-10 1-17l3-2 23-23-11-5h-9q-24 42-50 66-30 49-61 39l-13-3q-50-5-123 29-19 8-108 58L1 1256V1069l122-15" fill="#fff"/><path d="M368 1515v5l2 38q0-7 7-10l6-4v-3l-4-25-7-7-5 4 1 2m-96 83-9-2q-9 0-10 14l3 6 12-4h1l3-7v-7M1 1619V1483l96-3 99-30 89-21 80 2q25 18 34 19 4 1 11 9l8 14 9 72-5 10-1 4-9 9-17 10-18 7h-9l-1 12 3 12-9 9-40 17q-10 3-15-7l-1 1-9 3-12 6-22 6-4 2q-9 2-14-5l-13 5-24-5-9 2q-11 2-15-8l-5-8-12-3q-9-4-7-13 2-9 11-11l-33-9-9-9-6 3L1 1619" fill="#fff"/><path d="M776 253l41 22 108 19-55-52 145 67 4 1 7-7 8 9 76 13-55-52 146 68 80 9-57-54 150 70 92 16-40-61 140 79 123 21-36-54 130 72 41 8-909 718-389-67-33-3 50 78-143-93-9-2 24 46-79-55-38-6 42 81-140-97-122-19 41 79L1 1025V340q0-91 32-164l15 3-12-11 9-17 93 43 91 13-51-49 123 57 97 14-51-48 127 60 107 14-32-49 100 56q51 3 37-9l46 8-53-48 101 46-4-6" fill="url(#A)"/><defs><linearGradient id="A" x1="-16384" x2="16384" gradientUnits="userSpaceOnUse" gradientTransform="matrix(.05-.03-.03-.05 734 481)"><stop offset="0" stop-color="#fff" stop-opacity="0"/><stop offset="1" stop-color="#fff" stop-opacity=".7"/></linearGradient></defs></svg>