<?xml version="1.1" encoding="UTF-8"?><svg xmlns="http://www.w3.org/2000/svg" xmlns:xlink="http://www.w3.org/1999/xlink" version="2.0" width="100pt" height="100pt" viewBox="0 0 2000 2000" clip-rule="evenodd" fill-rule="evenodd" preserveAspectRatio="none"><path d="M491 380H655V561H491V725H311V561H147V380H311V216H491V380m1165 965q-4 3-1 16 4 14 19 29l26 21 26 20q15 16-10 16l-16-3h-14l-15 5-16-3-13 5-15 5-13-6q-9-8-13-9-23 0-32-9l-9-15-9-16-20-25-7-15-16-3-15-2-8-14q-10-21-48-49l-21-22-19-25-42-46-78-96-27-48-19 1q-12 13-9 28 9 44-3 116l-2 50 3 50-2 29 2 26 16 23 44 59 10 34 19 30q21 31 35 69 13 32 38 68l21 30 17 33q5 23 2 37l-8 14q-6 9-5 16l11 16 14 15 10 35q4 21 14 32l20 36 13 41 12 47H1236l-2-7-18-26q-13-15-16-27l-2-37-3-36-17-35-19-35-25-68-41-64q-26-38-32-67l-7-34q-4-17-16-30l-15-15-15 15q-12 13-16 30l-7 34q-6 29-32 67-34 48-41 64-10 22-25 68l-19 35-16 35q-4 12-3 36l-3 37-15 27-19 26-2 7H543l12-47 14-41q8-24 19-36l15-32q5-27 9-35l14-15 12-16-5-16-9-14q-3-14 2-37 4-14 17-33l22-30 37-68q14-38 35-69l19-30q4-24 10-34l22-30 22-29 16-23q5-9-1-26l-8-26 3-26 4-27-4-83q-3-50 4-83 3-15-9-28l-19-1-27 48-37 49-40 47-43 46-19 25-21 22q-39 31-47 49l-8 14-16 2-15 3-8 15-20 25-8 16-10 15q-9 9-31 9l-13 9-14 6q-6 1-14-5l-14-5-15 3-16-5-30 3q-25 0-9-16 7-8 26-20l26-21 18-29q3-13-1-16l-16-4q-30-5-4-26 23-19 42-23 35-2 49-13l14-20 10-22 11-29 12-28 23-28 24-27q25-43 42-61l19-18 15-20 18-47 22-59 19-104q1-13 8-33l9-34q9-44 27-59 37-28 94-37l41-3q22-3 31-23l12-22 10-8 6-11-19-54q-13-46 11-45-4-10 3-44 6-32 13-44 12-22 36-33 23-11 51-9 63-3 88 42l13 44q7 34 2 44 24-1 11 45l-19 54 6 11 10 8 12 22q9 20 31 23l41 3q57 9 95 37 16 14 26 59l10 34 7 33 19 104q2 13 10 31l12 28 18 47 16 20 18 18 22 30 21 31 23 27 23 28 12 28 12 29 10 22 14 20q8 7 23 9l25 4q19 4 42 23 26 21-4 26l-16 4" fill="#fff"/></svg>