<?xml version="1.1" encoding="UTF-8"?><svg xmlns="http://www.w3.org/2000/svg" xmlns:xlink="http://www.w3.org/1999/xlink" version="2.0" width="100pt" height="100pt" viewBox="0 0 2000 2000" clip-rule="evenodd" fill-rule="evenodd" preserveAspectRatio="none"><path d="M760 901l240-236 849 258-849 214L760 901" fill="#fff"/><path d="M1217 493 906 180l506 268-137-211Q1142 27 1164 31q35 6 783 719L1217 493" fill="#fff" fill-opacity=".8"/><path d="M1217 1350l730-256q-748 713-783 718-22 4 111-206l137-210-506 267 311-313" fill="#fff" fill-opacity=".8"/><path d="M431 386q29-68 43-78 15-10 19 21 6 38 19 43 21 8 26 38 6 31-10 68L445 639q-12 25 37 0 48-25 85-60 80-73 95-20 7 26-12 62-16 28-40 49l-81 55q-68 45-86 69-25 33-47 89-24 58-3 44 19-13 107-37l124-31q38-9 58 28 20 36-20 42-54 8-260 113l-22 22q-25 28-41 63-16 38-11 61 3 14 21 36 17 19 61 27 47 9 76-9l110-77q86-60 111-67 31-9 70 12 37 20 42 46 5 25-34 65-38 40-89 65-42 21-120 81l-120 93q-39 30-68 68l-59 71q-55 57-169 104l-31 51-73 104Q0 1775 0 1654V1202L80 983q40-129 156-312 98-154 143-193 22-20 52-92" fill="#fff"/></svg>