<?xml version="1.1" encoding="UTF-8"?><svg xmlns="http://www.w3.org/2000/svg" xmlns:xlink="http://www.w3.org/1999/xlink" version="2.0" width="100pt" height="100pt" viewBox="0 0 2000 2000" clip-rule="evenodd" fill-rule="evenodd" preserveAspectRatio="none"><path d="M275 1608q0 105 209 180 210 74 505 74 295 0 504-74 209-75 209-180 0-105-209-179-209-75-504-75-295 0-505 75-209 74-209 179m144-203q236-84 570-84 333 0 569 84 236 84 236 203 0 119-236 203-236 84-569 84-333 0-570-84-236-84-236-203 0-119 236-203" fill="#fff"/><path d="M1034 1561H942V1395h92v166" fill="#fff"/><path d="M1034 1667v159H942V1667h92" fill="#fff"/><path d="M1594 1624H1128v-33h466v33" fill="#fff"/><path d="M383 1591H830v33H383v-33" fill="#fff"/><path d="M1145 756l-121 397L924 756l111-112 110 112" fill="#fff"/><path d="M803 323 682 720 582 323 693 211 803 323" fill="#fff"/><path d="M455 877 334 1274 234 877 345 765 455 877" fill="#fff"/><path d="M1785 898l-121 397-100-397 110-113 111 113" fill="#fff"/><path d="M1522 389 1401 785 1301 389l111-113 110 113" fill="#fff"/><path d="M234 744 336 25l82 700-90-82-94 101" fill="#fff" fill-opacity=".8"/><path d="M764 5l20 171-90-81-93 100L628 5H764" fill="#fff" fill-opacity=".8"/><path d="M1059 5l67 576-90-82-93 100L1027 5h32" fill="#fff" fill-opacity=".8"/><path d="M1478 5l26 217-90-82-94 100L1353 5h125" fill="#fff" fill-opacity=".8"/><path d="M1684 67l82 700-90-82-94 100L1684 67" fill="#fff" fill-opacity=".8"/></svg>