<?xml version="1.1" encoding="UTF-8"?><svg xmlns="http://www.w3.org/2000/svg" xmlns:xlink="http://www.w3.org/1999/xlink" version="2.0" width="100pt" height="100pt" viewBox="0 0 2000 2000" clip-rule="evenodd" fill-rule="evenodd" preserveAspectRatio="none"><path d="M1219 889l491 143-488 130-140-135 137-138" fill="#fff"/><path d="M412 1317l491 143-488 130-140-135 137-138" fill="#fff"/><path d="M1449 1600l491 144-488 129-140-135 137-138" fill="#fff"/><path d="M1309 371 1169 236 1306 98l491 143-488 130" fill="#fff"/><path d="M485 702 345 567 482 429 973 573 485 702" fill="#fff"/><path d="M1162 1761l125 114-887-115 862-111-100 112" fill="#fff" fill-opacity=".8"/><path d="M0 1369l211-27-100 112 126 115L2 1538 0 1369" fill="#fff" fill-opacity=".8"/><path d="M1029 1141 74 1026l929-112-100 113 126 114" fill="#fff" fill-opacity=".8"/><path d="M9 489l267-34L176 567 302 681 11 644 9 489" fill="#fff" fill-opacity=".8"/><path d="M1144 123l-99 112 125 114L283 234l861-111" fill="#fff" fill-opacity=".8"/></svg>