<?xml version="1.1" encoding="UTF-8"?><svg xmlns="http://www.w3.org/2000/svg" xmlns:xlink="http://www.w3.org/1999/xlink" version="2.0" width="100pt" height="100pt" viewBox="0 0 2000 2000" clip-rule="evenodd" fill-rule="evenodd" preserveAspectRatio="none"><path d="M3 605 547 807H3V605" fill="#fff"/><path d="M451 4H769V524L451 4" fill="#fff"/><path d="M1416 4h258L1416 448V4" fill="#fff"/><path d="M2003 706V996L1638 851l365-145" fill="#fff"/><path d="M1971 1802l-26 37-63 76q-32 32-109 54l-70 16-210-535 478 352" fill="#fff"/><path d="M3 1700q-8-33-5-110l5-71 569-105L50 1834q-34-82-47-134" fill="#fff"/><path d="M114 76 623 605 3 304q9-94 43-144L93 99l21-23" fill="#fff" fill-opacity=".8"/><path d="M951 4h289L1080 448 951 4" fill="#fff" fill-opacity=".8"/><path d="M1954 130q49 60 49 96V384L1568 589 1905 76l49 54" fill="#fff" fill-opacity=".8"/><path d="M2003 1519l-365-238 365-48v286" fill="#fff" fill-opacity=".8"/><path d="M3 1253V996l508 92L3 1253" fill="#fff" fill-opacity=".8"/><path d="M572 1988H348l256-441-32 441" fill="#fff" fill-opacity=".8"/><path d="M746 1338l8 24 8 68 6 32 6 31 4 78 7-9q1-7 5-11 1-34 27-64l51-47 10-4q-18 0-61-18l-13-11-15-8-24-29-29-54-2-9-5-1 7 10 10 22m237 140-10-69-7 32-13-3q2 21-7 35l-20 27-9 1q-7 24-45 56-37 31-61 36 19 1 52-13l49-23 2-6 28-5 4 5 13 63 7 34q4 24 7 29l4-33 2-34 10-30 4-33-10-69m303-455-20 28q-34 34-69 42l20 12-72 8-33-9q-17-4-26 15l-5 1-16 22-18 20-1 5-6 1v5h-6l-2-23-12 26q-37 99-13 183 10 39 45 77 43 49 68 44-70-45-65-125l39 22q26 16 38 16l-15-33q-6-18-6-37l-1-21q-1-15 3-18 5-5 12 0l14 6 2-21 22 15q13 9 22 10-8-51 8-101l7-22q5-9 19-10 9 0 23 8l21 9q14 14 27 15l-9-36q-5-22-3-38l28 1 29-1 20-6q-39 3-77-13 19-18 24-53l2-57q-7 4-18 33m226-43 2 4-4-81-17-6 2-9 4-1 6-18-21 4 11-29q6-18 4-31l-10 17-14-1q-6-8-1-44l-21-52q-2 112-57 132l17 16 12 20 38 34 36 39-1-3q8 8 14 9M1165 571l64 34q7-32 20-46 14-14 56-27l61-6q18 6 45 39l42 47q60 50 47 90 23 35 28 83l28 285 8 64q9 38-10 85-21 54-42 73l-59 54-122 106-1 5q-8 4-18 19l-12 23-10 12q-12 6-10 21l8 26 9 79 30 359h-64l-39-454 48-73-45 33q-47 34-61 37-21 5-84-45l4 21q7 24 26 44 30 31 68 48l19 389H932l7-57 7-52q2-29-3-54-15-86-19-123 2-30-7-46l-7 77-16 74-2 61q-2 35-11 59-13 35-14 61H692l29-340q11-58 7-102-7-82-40-191l-21-95-17-98q6-49-4-132-8-69-12-76-16-69-8-101l11-17-10-60q-3-38 9-52-2-6 2-11l8-11 5-1 6-6 1-6 17-10 20-18 20-11q12-7 23-5 10 1 26 9l26 11 28 3q13-1 23-13 17-19 26-40l35-21 40-4q15 2 41 17 25 15 39 16 4-18 14-27 5-6 30-22 24-16 29-18 32-9 70 7m98 137-29-61v52 55q-4-13-3-33l-10 36q-6 23-3 36l-12 29-9 13-6 14-4 1v5l-36 9q-2 0-31 15l-31 15-35 8q-27 2-37-7-9-8-13-35V815q0-32-8-41l3 35 3 35-9 68-12 24-24 5-24 7-25 6-55 4-17-44-1-16-9-53 1-7-1 6-1-10-2-61-3 22-4 32q2 37-9 60l-24 51q-8 21-23 29-25 1-54-15l-36-28q-20-21-18-39h-2q-2 24 24 74l22 27 34 18 35 13 34 12 33 14 25 22 51-4 51-14q-5 16-32 48l-31 47-51 79 33-40 32-41 18-18 27-24q16-18 31-21l46 2 46 4-37-17q-21-12-27-27-31-16-2-74 24-16 60-31l63-26 53-33 26-18 33-19q20-14 33-17 32-6 79 24l-39-44q-23-26-46-26 2-27-11-67" fill="#fff"/></svg>