<?xml version="1.0" encoding="UTF-8" standalone="no"?>
<svg xmlns:ffdec="https://www.free-decompiler.com/flash" xmlns:xlink="http://www.w3.org/1999/xlink" ffdec:objectType="frame" height="100.0px" width="100.0px" xmlns="http://www.w3.org/2000/svg">
  <g transform="matrix(1.0, 0.0, 0.0, 1.0, 0.0, 0.0)">
    <use ffdec:characterId="1" height="84.0" transform="matrix(1.0, 0.0, 0.0, 1.0, 18.55, 9.9)" width="62.3" xlink:href="#shape0"/>
  </g>
  <defs>
    <g id="shape0" transform="matrix(1.0, 0.0, 0.0, 1.0, -18.55, -9.9)">
      <path d="M34.25 34.65 L45.75 43.5 47.6 28.8 49.95 9.9 52.45 28.85 54.25 42.85 65.7 35.05 66.35 34.6 65.9 35.25 57.55 46.9 72.9 49.8 80.85 51.3 72.95 52.6 57.35 55.15 66.95 67.5 72.75 74.9 65.1 69.35 54.0 61.3 52.3 75.0 49.95 93.9 46.95 74.95 44.6 60.4 34.1 69.05 33.2 69.75 33.8 68.8 41.75 55.4 26.6 53.9 18.55 53.1 26.5 51.1 41.1 47.4 32.5 36.35 26.7 28.85 34.25 34.65" fill="#ffffff" fill-rule="evenodd" stroke="none"/>
      <path d="M47.6 28.8 L45.75 43.5 34.25 34.65 Q39.95 29.4 47.6 28.8 M32.5 36.35 L41.1 47.4 26.5 51.1 Q26.75 42.55 32.5 36.35 M26.6 53.9 L41.75 55.4 33.8 68.8 33.3 68.3 Q27.2 62.2 26.6 53.9 M34.1 69.05 L44.6 60.4 46.95 74.95 Q39.6 74.15 34.1 69.05 M52.3 75.0 L54.0 61.3 65.1 69.35 Q59.55 74.25 52.3 75.0 M66.95 67.5 L57.35 55.15 72.95 52.6 Q72.7 61.15 66.95 67.5 M72.9 49.8 L57.55 46.9 65.9 35.25 66.15 35.5 Q72.2 41.5 72.9 49.8 M65.7 35.05 L54.25 42.85 52.45 28.85 Q60.0 29.65 65.7 35.05" fill="url(#gradient0)" fill-rule="evenodd" stroke="none"/>
    </g>
    <radialGradient cx="0" cy="0" gradientTransform="matrix(0.0283, 0.0, 0.0, -0.0283, 49.7, 51.9)" gradientUnits="userSpaceOnUse" id="gradient0" r="819.2" spreadMethod="pad">
      <stop offset="0.0" stop-color="#ffffff" stop-opacity="0.9490196"/>
      <stop offset="0.6745098039215687" stop-color="#ffffff" stop-opacity="0.6509804"/>
      <stop offset="1.0" stop-color="#ffffff" stop-opacity="0.0"/>
    </radialGradient>
  </defs>
</svg>
