<?xml version="1.1" encoding="UTF-8"?><svg xmlns="http://www.w3.org/2000/svg" xmlns:xlink="http://www.w3.org/1999/xlink" version="2.0" width="100pt" height="100pt" viewBox="0 0 2000 2000" clip-rule="evenodd" fill-rule="evenodd" preserveAspectRatio="none"><path d="M672 965 955 720 1956 970 956 1203 672 965" fill="#fff"/><path d="M915 258l506 268-137-211q-133-210-111-206 22 4 405 362l378 357-730-257L915 258m0 1483 311-313 730-256-378 357q-383 358-405 361-22 4 111-206l137-210-506 267M647 786 547 985l125 202L42 1053V914L647 786" fill="#fff" fill-opacity=".8"/></svg>