<?xml version="1.0" encoding="UTF-8" standalone="no"?>
<svg xmlns:ffdec="https://www.free-decompiler.com/flash" xmlns:xlink="http://www.w3.org/1999/xlink" ffdec:objectType="shape" height="100.0px" width="100.0px" xmlns="http://www.w3.org/2000/svg">
  <g transform="matrix(1.0, 0.0, 0.0, 1.0, 0.0, 0.0)">
    <path d="M100.0 0.0 L100.0 100.0 0.0 100.0 0.0 0.0 100.0 0.0" fill="#000000" fill-opacity="0.003921569" fill-rule="evenodd" stroke="none"/>
    <path d="M33.95 58.6 Q31.7 61.7 32.5 62.85 L33.4 63.5 34.95 64.05 Q35.4 63.95 35.5 64.5 35.5 64.95 35.05 65.05 L33.25 64.5 31.95 63.75 31.5 63.15 Q30.8 62.2 30.8 61.4 L30.0 62.3 30.35 63.6 Q30.7 64.85 31.35 65.3 32.7 66.3 35.05 65.65 L40.2 62.05 Q40.65 61.7 40.75 60.4 L40.4 58.95 39.45 57.6 Q38.5 56.35 36.85 56.55 L33.95 58.6 M13.0 69.2 Q11.75 68.55 11.25 67.75 L10.9 67.2 Q10.55 66.0 10.65 65.55 L10.65 65.2 11.9 62.15 Q14.45 57.95 16.5 55.35 18.6 52.9 22.4 49.2 L27.8 44.3 47.95 30.3 Q48.8 29.75 49.15 30.65 L83.15 7.15 Q83.4 7.0 83.95 7.15 L84.65 7.5 86.4 10.05 Q86.85 10.5 86.85 11.15 L86.85 11.95 86.55 12.2 85.05 13.4 Q84.75 14.2 84.75 14.95 L86.0 14.05 Q86.75 13.6 87.1 14.3 L87.4 14.55 89.35 17.45 89.2 18.55 88.65 19.2 85.5 21.35 Q88.8 26.5 88.45 27.6 L87.75 28.5 68.5 41.8 Q67.95 42.05 67.05 41.5 L63.35 36.65 56.35 41.6 56.45 42.35 56.2 43.05 42.0 53.0 Q41.1 54.55 41.2 55.8 L41.75 60.6 41.65 60.85 Q41.35 62.6 40.1 63.3 L37.5 65.1 34.7 66.9 32.35 67.2 Q31.35 67.1 31.05 67.45 L30.9 68.2 30.7 69.0 Q29.15 70.8 29.15 73.05 29.1 75.4 30.8 77.05 31.35 77.6 30.9 78.25 L30.35 79.65 Q30.15 80.05 31.35 81.75 L31.95 82.3 31.8 83.1 Q31.15 83.9 30.8 85.3 L30.25 87.7 Q30.0 89.1 28.9 89.7 L21.5 92.95 Q20.65 92.85 19.4 90.9 18.25 88.9 18.3 86.35 L19.05 80.5 Q19.4 77.05 19.15 74.5 18.85 73.55 17.7 72.35 16.45 70.9 15.05 70.2 L13.0 69.2" fill="#ffffff" fill-rule="evenodd" stroke="none"/>
  </g>
</svg>
