<?xml version="1.1" encoding="UTF-8"?><svg xmlns="http://www.w3.org/2000/svg" xmlns:xlink="http://www.w3.org/1999/xlink" version="2.0" width="100pt" height="100pt" viewBox="0 0 2000 2000" clip-rule="evenodd" fill-rule="evenodd" preserveAspectRatio="none"><path d="M1690 300l76 73 103-22-45 95 53 91-105-13-70 78-20-103-96-43 93-51 11-105m-64 312q54 32 68 56 33 59 30 141l2 41q123-10 150-79 15-40-10-89-24-47-79-95 97 57 145 125 50 70 29 126-17 45-77 68-58 22-142 17l13 47-36-2-37-8q-6 14-6 45l-3 47q-22-2-30-17l-9 39-26-14-40 67q-33 45-42 69-16 39-39 121l147 150q56 49 78 79 35 46 43 101 4 25 0 40l-18 40-43 78q-25 49-31 83l-9 1q-24 61-50 75l-11 33H740l16-94q5-53-10-95l-24-63-4 8-14 1-6 23q-15 9-35 36-20 28-34 36l-1 13-100 72q-54 37-106 63H349q-152 0-248-91l13-12 58-36 60-36q40-26 105-65l43-40 43-40q5-40 65-82l90-58q19-53 74-108 63-63 121-70 23-16 50-25 55-17 136-29l138-18 52-13q28-11 36-25 8-12 19-80l9-66-34-19 26-34 82 19 84 9 56-20 21-12q-94 3-198-25-154-41-249-124-95-82-75-157 16-58 98-87 79-28 193-18-74 7-121 32-49 26-60 67-15 54 37 116 51 60 148 108l9-11q-34-5-54-25 18-26 40-36l-64-10 3-17q36-23 69-85 40-75 59-96 47-54 80-80 58-45 103-36l109 24 51 26m162 594q39-22 78-45l-11 90 67 60-89 16-36 82-43-79-90-9 62-65-19-88 81 38M1391 237l67 60-88 17-37 82-43-79-89-9 62-65-19-88 81 38 78-45-12 89M4 1474v-15l258-68L4 1437v-33l238-57L4 1376v-28l228-44 2-1 27-4 2 1q39 0 69 20 30 20 37 52 6 32-13 62-19 29-55 45h-1l-28 9-16 2L4 1551v-20l229-63L4 1519v-21l230-65L4 1474m405-419 2 1 28 4 1 1q38 11 60 39 23 28 20 61-3 32-30 55-27 22-66 27h-1-29L4 1218v-15l358 9L4 1185v-13l369 8L4 1135v-3l409 15L4 1099v-23l402 23L4 1029v-17l405 43M716 467l11 4 1 1q35 18 52 49 18 32 9 63-9 31-39 49-31 18-70 15h-1l-29-5-15-5-296-71L4 483v-4L625 607 44 457 641 577 255 458l431 94L4 344v-4L688 504 68 278 716 467M873 916q-7 42-45 69-37 27-88 28l-39-3-21-5L4 906V894l660 73L4 861v-6l677 71L168 819l568 69L4 739V722L733 825 4 635v-7L741 769h3l35 8 1 2q48 19 74 57 26 38 19 80m-8-610q-13 30-46 43l-71 6h-1l-28-9-14-7Q518 270 97 102l3-2L698 307 143 83 719 280 352 111 766 261 244 23l24-4L775 213 392 13h38L818 185v2q33 22 46 55 14 34 1 64" fill="#fff"/></svg>