<?xml version="1.0" encoding="UTF-8" standalone="no"?>
<svg xmlns:ffdec="https://www.free-decompiler.com/flash" xmlns:xlink="http://www.w3.org/1999/xlink" ffdec:objectType="frame" height="100.0px" width="100.0px" xmlns="http://www.w3.org/2000/svg">
  <g transform="matrix(1.0, 0.0, 0.0, 1.0, 0.0, 0.0)">
    <use ffdec:characterId="1" height="74.75" transform="matrix(1.0, 0.0, 0.0, 1.0, 0.0, 24.85)" width="66.5" xlink:href="#shape0"/>
    <use ffdec:characterId="3" height="100.0" transform="matrix(1.0, 0.0, 0.0, 1.0, 0.0, 0.0)" width="100.0" xlink:href="#sprite0"/>
    <use ffdec:characterId="5" height="41.0" transform="matrix(1.0, 0.0, 0.0, 1.0, 35.8, 17.7)" width="41.0" xlink:href="#sprite1"/>
  </g>
  <defs>
    <g id="shape0" transform="matrix(1.0, 0.0, 0.0, 1.0, 0.0, -24.85)">
      <path d="M53.7 31.5 L55.25 27.05 57.0 24.85 58.3 25.9 56.05 31.8 56.85 32.3 61.7 25.9 63.2 27.05 60.5 31.65 58.6 33.55 59.05 34.65 59.85 34.65 62.7 33.05 66.5 32.45 66.5 34.0 60.2 36.7 61.3 37.5 63.2 37.5 65.7 36.7 65.7 38.3 Q63.8 39.25 63.35 39.55 62.85 39.85 59.7 39.55 L58.9 41.75 56.85 43.5 56.2 45.9 58.45 49.2 53.55 68.35 35.95 78.95 31.75 83.55 33.0 99.6 17.25 99.6 Q9.45 99.6 4.8 94.8 0.0 90.15 0.0 82.4 L0.0 72.3 4.8 70.9 9.55 68.35 9.7 64.85 8.3 63.6 8.3 50.95 13.5 47.15 20.45 49.35 22.7 54.9 21.75 60.6 18.55 63.6 18.55 65.65 23.85 65.65 31.05 63.6 33.75 65.0 43.55 61.25 45.45 57.75 46.75 56.65 50.05 44.95 50.85 43.5 50.55 40.5 49.4 37.0 46.75 35.75 46.75 34.15 49.4 34.15 51.3 36.05 52.1 34.15 53.7 31.5" fill="#ffffff" fill-rule="evenodd" stroke="none"/>
    </g>
    <g id="sprite0" transform="matrix(1.0, 0.0, 0.0, 1.0, 0.0, 0.0)">
      <use ffdec:characterId="2" height="100.0" transform="matrix(1.0, 0.0, 0.0, 1.0, 0.0, 0.0)" width="100.0" xlink:href="#shape1"/>
    </g>
    <g id="shape1" transform="matrix(1.0, 0.0, 0.0, 1.0, 0.0, 0.0)">
      <path d="M100.0 26.35 L96.55 20.9 Q89.05 10.55 77.6 4.3 73.0 1.8 67.15 0.0 L83.55 0.0 Q86.8 -0.05 89.75 0.75 94.6 4.2 98.2 7.9 100.0 11.75 100.0 17.3 L100.0 26.35" fill="#ffffff" fill-rule="evenodd" stroke="none"/>
      <path d="M34.35 0.05 Q31.0 1.15 28.45 2.35 16.7 7.7 8.9 18.2 2.3 27.25 0.0 38.2 L0.0 16.7 2.25 13.35 Q7.75 5.7 15.5 0.05 L34.65 0.0 34.35 0.05" fill="#ffffff" fill-rule="evenodd" stroke="none"/>
      <path d="M82.3 34.15 Q79.05 28.55 74.1 24.3 69.2 20.1 63.0 17.8 56.85 15.5 50.35 15.4 43.55 15.3 37.6 17.45 31.5 19.55 26.5 23.95 21.6 28.25 18.65 34.15 15.65 40.1 15.1 46.6 14.55 53.3 16.5 59.5 18.5 65.85 22.9 70.7 27.25 75.6 33.4 78.35 39.4 81.0 46.1 81.0 52.95 80.9 58.8 78.1 L59.45 77.7 Q63.6 77.05 66.8 75.25 68.6 74.25 70.8 71.35 L71.3 71.0 71.0 71.45 Q66.65 77.45 60.1 80.7 53.7 83.95 46.15 84.1 38.9 84.35 32.05 81.4 25.25 78.5 20.3 73.1 15.35 67.8 12.95 60.65 10.65 53.65 11.2 46.3 11.7 39.05 14.95 32.35 18.2 25.6 23.65 20.75 29.15 15.7 36.05 13.2 42.8 10.7 50.35 10.7 57.65 10.65 64.7 13.2 71.7 15.7 77.35 20.4 83.15 25.1 86.9 31.45 88.6 34.3 90.1 38.05 L91.25 41.6 92.1 45.1 Q93.6 52.3 92.75 59.7 91.95 67.1 88.9 73.8 85.9 80.55 80.95 86.1 75.95 91.7 69.55 95.4 64.5 98.35 58.85 100.0 L29.6 100.0 Q20.95 97.5 13.8 92.4 5.6 86.6 0.0 78.1 L0.0 58.6 0.45 60.75 Q1.25 63.95 2.4 66.75 4.75 72.65 8.75 77.75 12.7 82.85 17.9 86.65 23.1 90.45 29.2 92.65 35.35 94.9 41.7 95.3 48.1 95.75 54.5 94.45 60.95 93.05 66.4 89.95 72.0 86.8 76.4 82.0 80.85 77.2 83.55 71.35 86.3 65.5 87.1 59.05 87.95 52.5 86.7 46.15 L86.0 43.0 85.0 39.95 Q83.95 36.9 82.3 34.15" fill="#ffffff" fill-rule="evenodd" stroke="none"/>
    </g>
    <g id="sprite1" transform="matrix(1.0, 0.0, 0.0, 1.0, 0.0, 0.0)">
      <use ffdec:characterId="4" height="41.0" transform="matrix(1.0, 0.0, 0.0, 1.0, 0.0, 0.0)" width="41.0" xlink:href="#shape2"/>
    </g>
    <g id="shape2" transform="matrix(1.0, 0.0, 0.0, 1.0, 0.0, 0.0)">
      <path d="M0.0 20.5 Q0.0 12.05 6.0 6.0 12.05 0.0 20.5 0.0 29.0 0.0 35.0 6.0 41.0 12.0 41.0 20.5 41.0 29.0 35.0 35.0 29.0 41.0 20.5 41.0 12.0 41.0 6.0 35.0 0.0 29.0 0.0 20.5" fill="url(#gradient0)" fill-rule="evenodd" stroke="none"/>
    </g>
    <radialGradient cx="0" cy="0" gradientTransform="matrix(-0.025, 0.0, 0.0, -0.025, 20.5, 20.5)" gradientUnits="userSpaceOnUse" id="gradient0" r="819.2" spreadMethod="pad">
      <stop offset="0.5764705882352941" stop-color="#ffffff"/>
      <stop offset="1.0" stop-color="#ffffff" stop-opacity="0.0"/>
    </radialGradient>
  </defs>
</svg>
