<?xml version="1.1" encoding="UTF-8"?><svg xmlns="http://www.w3.org/2000/svg" xmlns:xlink="http://www.w3.org/1999/xlink" version="2.0" width="100pt" height="100pt" viewBox="0 0 2000 2000" clip-rule="evenodd" fill-rule="evenodd" preserveAspectRatio="none"><path d="M1930 1000q0 381-269 651-270 269-651 269-381 0-650-269Q90 1381 90 1000q0-381 270-650Q629 80 1010 80q381 0 651 270 269 269 269 650m-874 578v39l1 110q296-16 510-230 230-231 230-557 0-326-230-557-231-230-557-230-326 0-557 230Q222 614 222 940q0 326 231 557 221 221 529 231l-6-113-1-18-11-207-115 54 38-173-161-110-27 154-119-192-91 15L780 467 718 946l69 56-23 73 204 134-12-323-105 71 157-611 139 613-96-71 5 308 202-133-17-50 54-67-44-475 261 681-94-31-108 196-34-169q0-4-89 58l-90 63 46 27-2 142-86-58 1 198" fill="#fff"/><path d="M1056 1578q66-20 131-52 145-70 263-189 103-104 170-227 65-119 89-242 15 150-35 291-51 146-162 257-121 121-284 171-85 26-172 30v-39m-80 37-68-9 67-9 1 18M834 275q161-48 326-15-135 16-268 83-138 70-252 184Q511 656 439 815q-69 153-71 303-50-176-5-354 46-182 180-317Q667 324 834 275" fill="#fff" fill-opacity=".8"/></svg>