<?xml version="1.1" encoding="UTF-8"?><svg xmlns="http://www.w3.org/2000/svg" xmlns:xlink="http://www.w3.org/1999/xlink" version="2.0" width="100pt" height="100pt" viewBox="0 0 2000 2000" clip-rule="evenodd" fill-rule="evenodd" preserveAspectRatio="none"><path d="M1682 704q22 84 22 178 0 115-33 216-30 92-88 173-34 48-78 92-54 54-114 94-56 36-117 60-116 45-250 45-172 0-314-74-59-32-112-75l-55-50q-56-56-96-119-61-94-86-203-17-76-17-159 0-67 11-129 11-60 32-115 33-86 91-162 29-39 65-75l17-16q195-183 464-183 275 0 471 189l10 10q39 40 71 83 44 59 74 126l32 94M1388 480q-151-151-364-151-212 0-363 151Q511 630 511 843q0 213 150 364 151 150 363 150 213 0 364-150 150-151 150-364 0-213-150-363" fill="#fff"/><path d="M1650 610q53-100 142-207 84-103 160-170-69 91-140 209-91 151-130 262l-32-94m21 488q15 73 42 147 39 110 82 179l79 27 42 309-249-193 22-88q-55-60-96-178l-10-30q58-81 88-173m-280 359 35 80 36 67 78 27 42 309-249-193 23-88-41-59-41-83q61-24 117-60m-681 31-49 104-42 61 23 88-249 192 41-308 79-28 39-74 46-110q53 43 112 75M447 1244l-18 57q-41 118-96 178l22 88-249 193 42-309 78-27q44-69 83-179 37-104 52-204 25 109 86 203M355 753Q323 629 210 442 138 324 69 233q76 67 161 170Q331 526 387 638q-21 55-32 115M478 476l-43-75-42-60-71-16L253 60 490 202l-10 79 43 49 37 55-17 16q-36 36-65 75m1017-85q18-32 40-61l43-49-10-79L1805 60l-69 265-71 16-42 60q-25 40-47 83-32-43-71-83l-10-10m-14 405q8 98-24 190-33 96-105 167-79 80-185 112-103 31-209 12 91-8 182-52 94-46 171-123 136-136 170-306M1122 399q-88 11-175 55-90 46-164 120-84 84-131 187-45 100-46 198-32-116-3-231 29-119 117-206 80-81 189-113 105-31 213-10" fill="#fff" fill-opacity=".8"/></svg>