<?xml version="1.1" encoding="UTF-8"?><svg xmlns="http://www.w3.org/2000/svg" xmlns:xlink="http://www.w3.org/1999/xlink" version="2.0" width="100pt" height="100pt" viewBox="0 0 2000 2000" clip-rule="evenodd" fill-rule="evenodd" preserveAspectRatio="none"><path d="M1032 1042q354 0 570 100 236 109 236 310 0 170-236 290-236 120-570 120-333 0-569-120-236-120-236-290 0-170 236-290 236-120 569-120m0 773q295 0 505-106 209-107 209-257 0-151-209-257-209-107-505-107-295 0-504 107-209 106-209 257 0 150 209 257 209 106 504 106" fill="#fff"/><path d="M1078 1385H986V1148h92v237" fill="#fff"/><path d="M1078 1765H986V1537h92v228" fill="#fff"/><path d="M1638 1475H1172v-47h466v47" fill="#fff"/><path d="M874 1475H427v-47H874v47" fill="#fff"/><path d="M1589 1015l4-18q16 6 34 24l-38-6" fill="#fff"/><path d="M650 854l23 12 13-3 2-11-38 2m554-468-22-17q-34-32-25-75l-19 10-59 42-2 17q-11 50-10 70 1 37 28 61l33 29q99-38 167 8 34 23 34 61-1 37-34 60l-28 16 15 3q61 11 116 2-39-51-12-104 43-88 221-120 167-31 201 66 21 59-13 118-31 53-90 82l-46 6q-24-4-42-20l-44-31q-36-28-41-55-4-27 76-64 41-19 82-32l-70 19-59-12q-59-7-60 21-2 28 34 19l35-13-34 21q-36 26-35 43 3 40 61 75l57 30-13 41-10 42 1 11q23 18 21 51l48 12 49 12q57 15 49 78-8 62-68 59l-51-4 2-1q5-17-24-27-31-10-32-16 10-16 12-46 1-16 25-17l-51-11-51-14 17 25 19 1 19 1q-10 2-10 7 1 5 11 10l-99-10q-61-7-92-27 3-11 17-17 15-7 15 9 25-13 14-33-11-20-40-25-79-14-82 107l1 1-65-15 16-50-39 48 43-70q15-22 18-73-9 31-33 66l-44 48-26 21 38-62-65 58-36-76q-35 24-102 11l-8-30q-7-16-25-10 18-8 6-21-9-9 13-10-30-22-90 6-61 27-20 63l-15 18q-7 11-3 27l21-21 38-34-18-1q-12-1-25-11 9-13 34-22l42-14q9 23 20 35l15 20-28 26q-22 24-3 28-22 15-78 20-52 4-71 23-13-26-67-16 2 14 9 12 12-5 21 0-11 17-29 5-18-11-17-30l28 3q14 3 22-7-4-18-28-11l-31 2q1-24-10-33-3-3 12-15l-37 3q-6 12 10 11l-76 42q-48 25-78 23-3-11 5-24 8-13 15 1l-7-37q0 9-25 24-20 12-38 37l-14 22q59-4 134 3-32 21-65 10l-184 45 59-42q44-55-33-119l-79-61-9 26-26 25-35 11-31 13q-63 15-117-9-40-18-44-63-5-43 25-74 30-32 74-38l87 4q55 16 66 27L513 848l13 9 8-8q40-35 106-42l116-2 34 8 25-8 17-10q42-30 67-93 23-59 18-108-3-36-28-54-21-15-61-22l-109 4q-13 2-30 10 12 25 3 52-3 31-34 48l-3 2-26 8q-47 10-84-28-37-38-22-94 13-49 55-83 59-47 148-60 88-13 167 11 32-130 197-214 163-82 298-40 126 39 103 169-23 128-143 153-48 10-88-12-37-20-56-58m179-174 3-1q-18-25-60-29l-79 4-56 7q-25 4-21 31 4 28 29 27 8 13 23 14h21q-1 11 5 20 6 10 16 12l58 3q11 21 30 18-1-14-25-27l-35-13q-24-2-20-27 4-25 27-34l36-2 41 5q2-7 7-8" fill="#fff"/><path d="M364 442l-14-15q-17-19-102-2l-40-3q-16-11 5-40 23-32 67-27 40 4 83 36 34 24 29 36l-13 7 8 12q12 13 31 22 14 7 31-10 18-18 40-13 28 6 8 24l-40 27-81 5q-49-1-25 4l-14-1q-10-7 7-32l20-30" fill="#fff"/></svg>