<?xml version="1.1" encoding="UTF-8"?><svg xmlns="http://www.w3.org/2000/svg" xmlns:xlink="http://www.w3.org/1999/xlink" version="2.0" width="100pt" height="100pt" viewBox="0 0 2000 2000" clip-rule="evenodd" fill-rule="evenodd" preserveAspectRatio="none"><g transform="translate(65 154)"><path d="M1712 1471l-110-43-150-13-59-21q-63-28-83-64l-8-84-85-242-40 321 51 146 90 379H558l64-347 65-160-5-95-54-244-43 267v59l-23 40q-32 44-75 63-40 17-189 48l-153 39H75L0 1425l35-105 27-17 23 12 5 23 95 28 40 29 110-60 30-34q33-36 50-45l28-15 42-275q-6-59-5-123 1-128 32-155l52-48q25-19 94-35 131-31 163-107 17-39 7-71l-20-40V337l-20-12q-21-36-21-68l4-25h28l-7-97 16-67Q844 0 949 0q105 0 140 58 18 29 14 58V230l19 1q6 49-12 84-11 22-26 24l-12-2-5 54-30 52v70l48 47q66 48 153 55 48 4 87 38l30 33 20 45q17 73 7 217l61 265 114 93 101 32 55-30 51-5 54-37 34 14 8 28 30 40v48l-85 75h-93" fill="#fff" fill-opacity=".5"/></g><path d="M1024 1001q20 103 84 158 116 99 532 107l-322 16q-145 20-209 83-63 64-83 209-14 97-16 322-2-225-16-322-20-145-83-209-64-63-209-83l-322-16q409-9 532-119 63-56 84-158 12-62 14-179 1 127 14 191" fill="#fff"/></svg>