<?xml version="1.1" encoding="UTF-8"?><svg xmlns="http://www.w3.org/2000/svg" xmlns:xlink="http://www.w3.org/1999/xlink" version="2.0" width="100pt" height="100pt" viewBox="0 0 2000 2000" clip-rule="evenodd" fill-rule="evenodd" preserveAspectRatio="none"><path d="M1421 1255l-20 45q-3 13 5 35 18 44 46 20 20-17-13-172l-4 44-14 28M0 667q112 40 136 71 371 500 516 577 91 49 98 45l-11-14 42-275 74-50q6-64 35-129 59-130 178-136-2 13-20 30l-37 37q-51 59-47 152 7 156 4 212-11-1-20 8-18 19-9 72 9 53 38 75 15 11 27 11l164-43 25-71 153-116-46-133q-15-13-34-17-39-8-59 38 10-72 85-100 71-28 101 7 23 26 40 110l12 79 54 8 50 194q53-134 59-166 4-20-3-35l-8-12-61-21-15-37 64-23-20-115 14-40q-5-13-20-19-31-13-83 22-47-17-40-29l105-60q93-36 116 40 38 121 48 204l36 167-14 40 6 127-40 68q-45 76-68 121-23 45-48 69l-21 15q-75 8-173 39-195 62-305 176-61 28-145 17l-72-17Q287 1604 0 1491V667" fill="#fff"/><path d="M1307 230q44 105 66 192 70 280-116 280-186 0-107-280 24-87 73-192l43-88 41 88m20 393-1 2 10-14 4-17q-12 1-22-7l-18-13q-16-9-43-14l-45-12q-22-11-25-37-22-3-19 57l4 33 5 13 3 12q19 19 31 25l40 7q48-2 76-35" fill="#fff"/><g transform="translate(14)"><path d="M1745 7q14 105 20 246 9 182-39 262l-43 67q-24 45-36 110-21 115 36 256 62 155 60 205-2 72-38 165-42 110-53 183-16 99 25 230 20 65 44 110-21-34-45-88-49-108-65-207-16-100 0-192l32-140q10-51-27-137-59-137-78-207-34-123-7-299 19-127 58-234 13-36-1-190L1571 0h69l105 7" fill="#fff" fill-opacity=".2"/><path d="M1227 485l-42 67q-24 45-36 110-21 115 36 256 62 155 60 205-2 73-38 165-42 111-54 183-16 99 26 229 20 66 44 111-21-34-45-88-49-108-65-207-16-100 0-192l32-141q10-50-27-136-59-137-78-208-34-122-7-299 19-126 58-234 20-52-14-306h173l17 223q8 182-40 262" fill="#fff" fill-opacity=".2"/><path d="M1490 0l12 194q6 151-27 218-47 92-55 147-15 96 25 213 43 130 42 171-2 60-26 138-30 92-38 152-11 83 18 191 15 54 31 92l-32-73q-34-90-45-173-11-82 1-159l21-118q7-42-18-113-41-115-54-173-24-101-5-249 13-106 40-195 14-44-11-263h121" fill="#fff" fill-opacity=".2"/><path d="M1970 227q6 183-26 264-44 112-52 179-14 116 23 258 42 157 41 207-2 73-25 167-28 112-36 185-11 100 17 232 13 65 29 111-14-34-30-88-32-109-43-209-11-101 0-194l21-143q6-51-18-137-38-141-51-210-22-124-5-302 13-132 39-236 12-53-4-255 46 28 74 69 28 39 46 102" fill="#fff" fill-opacity=".2"/><path d="M721 0q17 137 23 268 9 183-39 262l-42 67q-25 45-37 110-21 115 36 256 62 155 60 205-2 72-38 165-42 110-53 183-16 99 25 230 20 65 44 110-21-34-45-88-49-108-65-207-16-99 0-191l32-141q10-51-27-137-59-137-78-207-34-123-7-299 19-127 58-234 14-37-2-198L547 0H721" fill="#fff" fill-opacity=".2"/><path d="M67 89q28-33 73-53 28-12 88-29 11 80 18 231 9 182-39 262l-43 67q-24 45-36 110-21 115 36 256 62 155 60 205-2 72-38 165-42 110-53 183-16 99 25 230 20 65 44 110-21-34-45-88-49-108-65-207-16-100 0-192l32-141q10-50-27-136Q38 925 19 854-15 732 12 555 31 429 70 321q20-51-3-232" fill="#fff" fill-opacity=".2"/><path d="M481 209q6 151-27 218-47 92-55 147-15 96 25 213 43 130 42 171-2 61-26 138-30 92-38 152-11 83 18 191 15 54 31 92l-32-73q-34-89-45-172-11-83 1-160l21-117q7-43-18-114-41-116-54-173-24-101-5-249 13-106 40-195 15-47-12-278H467l14 209" fill="#fff" fill-opacity=".2"/><path d="M937 0l12 242q6 184-26 265-44 112-52 178-14 116 23 258 42 157 41 207-2 73-25 167-28 112-36 185-11 100 17 232 13 65 29 111-14-34-30-88-32-109-43-209-11-101 0-194l21-142q7-52-17-138-40-142-52-210-22-124-5-302 13-132 39-236 13-55-11-326H937" fill="#fff" fill-opacity=".2"/></g></svg>