<?xml version="1.0" encoding="UTF-8" standalone="no"?>
<svg xmlns:ffdec="https://www.free-decompiler.com/flash" xmlns:xlink="http://www.w3.org/1999/xlink" ffdec:objectType="shape" height="100.0px" width="100.0px" xmlns="http://www.w3.org/2000/svg">
  <g transform="matrix(1.0, 0.0, 0.0, 1.0, 0.0, 0.0)">
    <path d="M0.0 100.0 L0.0 0.0 100.0 0.0 100.0 100.0 0.0 100.0" fill="#000000" fill-opacity="0.003921569" fill-rule="evenodd" stroke="none"/>
    <path d="M42.5 34.0 Q39.65 40.25 44.25 45.15 47.6 48.6 51.6 47.25 55.15 46.0 57.35 41.95 59.55 37.85 58.5 34.2 57.35 30.1 52.2 29.05 45.5 27.6 42.5 34.0 M39.75 22.5 Q37.85 20.2 35.75 19.75 32.1 18.85 29.05 20.3 26.35 21.55 24.55 24.35 24.05 27.8 24.25 29.6 24.55 32.0 26.15 34.5 27.9 37.1 33.35 37.1 41.35 35.05 41.65 27.0 41.55 24.8 39.75 22.5 M55.75 25.0 Q60.25 26.25 62.8 31.25 63.95 33.35 64.05 35.0 L64.05 37.75 Q64.8 39.85 67.9 40.65 71.9 41.7 72.75 42.35 75.15 44.25 76.1 46.0 77.05 47.7 77.25 50.7 77.35 51.45 76.4 55.0 75.65 57.9 76.5 58.95 L79.65 62.4 Q81.55 64.3 82.35 66.05 84.55 70.8 82.35 76.1 80.15 81.15 75.25 83.2 71.5 84.7 68.15 84.45 65.2 84.25 61.3 82.5 57.15 79.75 56.6 77.55 L55.15 75.6 Q54.6 75.15 52.75 74.95 50.65 76.0 50.75 77.8 L52.4 80.6 Q53.6 83.0 53.7 84.15 53.7 85.6 51.7 85.6 48.95 85.5 40.15 77.7 32.0 70.45 29.8 67.1 24.15 59.9 20.7 54.6 14.2 44.35 18.0 42.05 19.0 42.05 20.8 43.7 L23.65 46.0 Q24.45 46.2 25.2 46.0 L26.35 45.5 Q27.4 44.0 26.25 41.8 L23.95 38.5 Q19.65 31.05 20.6 24.8 21.65 18.6 28.05 15.5 29.8 14.1 33.35 14.45 36.2 14.85 38.6 16.1 40.9 17.35 43.6 19.75 46.65 22.5 47.3 24.55 L55.75 25.0 M30.1 56.15 Q31.7 61.8 35.9 65.95 39.95 69.85 44.9 70.8 50.0 71.8 54.95 69.5 56.8 67.1 56.3 64.7 L47.5 54.15 Q47.1 53.2 43.1 49.05 L37.75 43.7 Q34.85 42.05 33.15 43.2 31.8 44.95 31.25 45.15 28.25 49.75 30.1 56.15 M79.1 69.6 Q77.25 66.2 75.9 65.05 72.95 62.7 68.35 64.3 L64.55 66.3 Q61.95 68.5 61.65 72.25 61.4 75.7 62.8 77.65 L64.15 79.35 66.15 79.95 Q67.8 80.3 67.9 80.5 73.35 81.45 76.5 78.2 79.55 75.15 79.1 69.6 M64.8 61.6 Q68.65 60.75 70.65 58.0 72.55 55.4 72.4 51.45 71.5 48.3 69.3 46.5 66.75 44.35 63.3 44.75 59.85 44.2 56.7 47.15 53.6 50.0 53.45 53.45 54.1 57.9 56.95 60.4 60.25 63.15 64.8 61.6" fill="#ffffff" fill-rule="evenodd" stroke="none"/>
  </g>
</svg>
