<?xml version="1.1" encoding="UTF-8"?><svg xmlns="http://www.w3.org/2000/svg" xmlns:xlink="http://www.w3.org/1999/xlink" version="2.0" width="100pt" height="100pt" viewBox="0 0 2000 2000" clip-rule="evenodd" fill-rule="evenodd" preserveAspectRatio="none"><path d="M1799 404q119 100 109 204-8 84-100 151-90 65-240 101 10 110 6 150-3 36-25 94l-28 84 1 32q4 19 0 29l-20 31-24 31q-24 42-60 142l-66 55q-39 33-44 70-9 60 61 111 46 34 120 60 111 39 170 72 82 46 139 118l21 28q-68 28-150 28H359q-155 0-249-97l-40-48 28-47q115-97 312-159 38-12 162-24 99-9 156-44l16-13 37-17q17-9 18-30 0-20-14-33l-36-35-39-71-4-80q3-18-15-22-22-6-25-11 4-19-3-39l-19-62 184 12 187-25 84-22q56-18 84-23 83-39 149-64l27-27 26-28q-54 22-109 32l-15 2q-145 39-301 54-340 32-591-50-250-83-264-231Q95 689 213 589q115-97 316-161-131 63-200 140-71 80-64 161 8 88 108 156 96 67 257 102 0-87 54-123l2-49q-85-27-157-62l159 42q9-84 38-158 33-88 82-130 63-53 157-77 90-24 192-16l71 1 68 3q32 6 103 42 76 39 92 62 14 19 22 66l13 78 24 84q185-81 197-206 8-81-64-161-69-77-200-140 201 64 316 161m68 973-54 114 63 109-125-17-84 94-23-124-115-51 110-60 13-125 92 86 123-26M894 391 754 373 660 477 634 339 505 281l124-67L643 74l103 97 138-30-61 128 71 122M178 1364l88-48 10-99 73 68 98-20-43 90 50 87-100-13-67 74-18-98-91-41m979 353q19-4 40-38 21-38 29-47l67-82q-21 16-54 30l-59 23-64 26q-37 14-67 16-61 6-127-36-52-34-96-90l4 10q4 23 20 50l26 47 25 52q16 27 40 45 51 40 118 29l53-11q34-9 45-24" fill="#fff"/></svg>