<?xml version="1.1" encoding="UTF-8"?><svg xmlns="http://www.w3.org/2000/svg" xmlns:xlink="http://www.w3.org/1999/xlink" version="2.0" width="100pt" height="100pt" viewBox="0 0 2000 2000" clip-rule="evenodd" fill-rule="evenodd" preserveAspectRatio="none"><path d="M1747 874q158-25 255-19v302q-131-15-207-53-84-41-118-108-39-76 37-115 41-124 124-344l132-358 14 41-120 327q-75 202-117 327M1669 0q79 0 140 24L1586 50q-127 22-233 70l-27 5-10 30q-16 77-6 274l20 330-2 132q-1 66 22 100-15 26-11 75l4 87-12 67q-10 43-8 66 1 16 14 47 13 29 13 45 0 19-16 47-17 30-18 44-2 25 24 78 22 47 10 84 84-3 179 28 97 32 160 84 157 128-14 246l-16 11H841l-6-4q-42-28-64-65-31-52-17-111 18-78 156-128 106-40 250-54-4-44 9-86l25-69q-30-32-23-91 14-70 16-106 2-26-8-73-11-54-12-74l6-81q3-45-13-67 20-31 23-139l4-177 2-162q-4-123-2-168l6-137-3-45q-36 18-61 44-124 54-265 163L627 555l-1 5-55 17q8 23 3 56-13 13-12 53l2 21 129-2 3 280 280-3 3 310-280 3 3 280-311 4-3-280-280 3-3-311 280-3-3-280 121-1v-3q1-27-17-88l-4-18q-19-4-32-16-27-25-16-77 24-22 61-20l63 2L789 242Q928 105 1069 18l33-18h567" fill="#fff"/></svg>