<?xml version="1.1" encoding="UTF-8"?><svg xmlns="http://www.w3.org/2000/svg" xmlns:xlink="http://www.w3.org/1999/xlink" version="2.0" width="100pt" height="100pt" viewBox="0 0 2000 2000" clip-rule="evenodd" fill-rule="evenodd" preserveAspectRatio="none"><path d="M791 1605l-3-6-1 5 4 1 6 33 3 33q3 15 14 30l18 28q7 14 7 33l-3 32-2 38-5 38 56 41q36 25 49 50 13-9 71-31l49-15q34-11 39-21 6-6 4-21l-3-24 10-43 5-47 4-47-12 18-12 17q-4 14 8 55-10 6-72 63-42 40-87 39l-26-34q-13-19-17-41l-9-91q-5-53-35-85l-25-31q-15-16-35-17M403 848l-26-23v12l26 11 50 44 36 38 35 39 70 73q43 43 76 63l33 17q-1-21 11-58l13-59q0-26 6-68 0-53 7-61V860q-9 3-22 24l-18 29q-23 25-43 36-43 26-60 23-14-2-55-28 3-14-12-26-13-11-28-12-8-6-45-22-32-13-42-30l-8-5-4-1M119 983l-2 3q13 20 47 40l6 11q12 6 33 37 24 25 56 83 19 28 80 75 66 66 167 105l53 15q32 9 51 21 52 30 89 38l55 5 55 4 55 19 54 17-22-8q-20-21-71-40l-78-29-37-16q-22-10-37-20-62-48-75-43l-76-35q-46-20-73-39-92-63-156-123-39-34-79-52l-50-25-22-21-23-22M449 372q4 12 1 32l-3 31q0 27 15 70l21 63q14 54 24 64 0-30 6-60l6-2v-4l30-16q18-10 30-13-16-7-38-35l-31-41q-15-22-25-50l-10-30q-8-20-19-22l-7 13M590 237l-4 5-9 28 9-30q-15 0-27 7l18 23 17 16 15 20 15 22q17 25 43 22l54-5 36 38 4-6 6-24q4-13 12-19l2-17 6-1-31 3-31 1q-16-40-54-67-43-31-81-16m1406-19q14 54 14 114v30L1710 887q-71 113-352 508l37 31-18 15-40-23-34 37 41 14 1 43-94 48-80 53-28 55 578 314-56 4H931l-210-91-95 91H355q-119 0-204-59l94-159-22-469L10 891V675l55-67 95-25 2-31 68-15 32-73 81 14 52-115-38 14 17-76-74 40 59-80-97 18 101-48-71-22 75-7 24-59L496 64l174-7q40 6 90 70 25 32 42 62l5 116-41 98L663 553l-71-1-9 30 40 21 16 76 161 84 122 474 76 59 48 17 8 30q58 46 73 45l82-29 46 31 17-14-55-52 15-5 53 28 338-510 11-32-298 22 298-118-337-249 414 161 23-165 42 111 29-9 191-340" fill="#fff"/></svg>