<?xml version="1.1" encoding="UTF-8"?><svg xmlns="http://www.w3.org/2000/svg" xmlns:xlink="http://www.w3.org/1999/xlink" version="2.0" width="100pt" height="100pt" viewBox="0 0 2000 2000" clip-rule="evenodd" fill-rule="evenodd" preserveAspectRatio="none"><path d="M1041 352q-107-8-197 40-92 48-145 140-26 47-37 93l-9 49-1 50q2 100 53 186 49 85 134 135 84 50 177 50-90-18-162-73-70-54-107-134-37-81-33-164l4-42q3-21 9-40 13-42 34-73 44-69 119-107 74-37 155-31 82 6 144 59 63 52 83 131 20 84-10 154-33 77-106 112-76 37-155 17-80-22-121-96-20-35-25-76-5-41 7-80 13-39 42-69 30-31 69-46 40-15 83-11 44 5 79 29 37 25 57 66 21 42 18 87 8-46-9-91-18-46-55-76-36-32-87-41l-97 6q-48 14-86 48-38 36-56 83-18 47-15 99 3 52 26 98 22 46 63 80 40 34 90 50 104 31 201-15 99-44 144-144 44-95 18-202-27-105-107-173-83-70-189-78m178-49q126 48 191 152 60 96 54 243-3 73-18 127v25q34-40 51-42 10-2 12 19l5 36q6 13-17 75l-30 80-15 58q-12 36-25 40-22 7-24-32l-15 79q-18 87-36 124-22 49-120 196-101 153-125 168-27 16-105 16-80 0-110-20-27-19-128-179-91-145-123-209-21-42-31-100l-5-49H594l-23-4q-9-4-13-23l-4-39-17-52-26-52q-14-23-14-65 0-45 18-61 16-14 42 17l22 34q-23-142-17-249 8-116 97-215 122-135 344-135 119 0 216 37M908 1457l-19-3 39 50 8 15 5 16-46-24-32-15-22-9 16 34q20 36 36 52 36 35 104 35 28 0 52-12l40-24q18-10 40-47l18-36-96 50 17-33q1-6 17-26l15-19-40 18-43 14-35-2q-21-6-39-19-14-10-35-15m402-264-48 17-76 21-122 7 32 41q43 38 98 28 55-9 91-63l25-51M385 1762q25-59 160-190l129-118q48 81 123 181 72 96 95 112 30 20 110 20 78 0 105-16 19-11 83-92 69-85 115-158 57 45 207 189 62 57 147 310H328q30-176 57-238m415-532q-39-4-125-37l25 52q36 53 91 63 56 9 99-29l32-41-46-2-76-6" fill="#fff"/><path d="M1757 755q0 205-106 380-102 170-276 266 35-63 70-172 100-90 155-210 57-126 57-264 0-264-187-451-187-187-450-187-264 0-451 187Q382 491 382 755q0 125 47 239 45 111 127 198l-1 13q0 25 24 79l38 88q-154-100-243-261-92-166-92-356 0-305 216-522Q715 17 1020 17q305 0 521 216 216 217 216 522m165 0q0-232-112-435Q1701 124 1514 0h155l10 1q124 108 206 249 84 144 117 307V953q-43 213-171 390-127 174-313 281l-78-71q218-115 348-326 134-217 134-472M110 334Q200 141 361 0H525Q338 124 229 320 117 523 117 755q0 233 112 436 109 196 298 320l-12 9q-29 23-59 63-202-138-319-352Q17 1009 17 755q0-222 93-421" fill="#fff" fill-opacity=".8"/></svg>