<?xml version="1.1" encoding="UTF-8"?><svg xmlns="http://www.w3.org/2000/svg" xmlns:xlink="http://www.w3.org/1999/xlink" version="2.0" width="100pt" height="100pt" viewBox="0 0 2000 2000" clip-rule="evenodd" fill-rule="evenodd" preserveAspectRatio="none"><path d="M441 997l80 56L1605 741l177-31 78-27 44-20-13 47q-17 52-35 73-19 24-153 73-129 47-187 55l-460 126-433 123 23 57-54 16-56-56-40 18q-55 22-126 40l-143 34-51 20-31 5-42-38-41-49q-10-14 10-20l64-8 52-12q48-21 108-40 82-26 131-37l32-6-68-72 50-15" fill="#fff"/><path d="M1192 1486q-234 79-449 61-200-17-461-126l518-130q38 56 126 94 178 77 434-14 26-9 80-39l49-29-58 61q-88 71-239 122" fill="#fff" fill-opacity=".8"/><path d="M849 535q234-79 449-60 199 16 461 125L1241 730q-9-14-30-33-41-37-96-61-178-77-434 14-41 15-129 69 14-26 58-62 88-71 239-122" fill="#fff" fill-opacity=".8"/></svg>