<?xml version="1.1" encoding="UTF-8"?><svg xmlns="http://www.w3.org/2000/svg" xmlns:xlink="http://www.w3.org/1999/xlink" version="2.0" width="100pt" height="100pt" viewBox="0 0 2000 2000" clip-rule="evenodd" fill-rule="evenodd" preserveAspectRatio="none"><path d="M790 1388q-5 7-65 15-58 8-61 20 55 57 112 192l18-82 9-57 2-53q1-33-15-35M967 213l35-10q20-2 40 10 34 10 77 61 51 60 45 115-2 17-33 54-27 33-25 103-43-27-67-7l-38 41q-16 3-35-18-16-16-33-3-8 9-2 35 5 25 15 33l-11 25 1 1q-8 14 6 23l51 40 50 42q0 7 63 42l101-17 50-8 49-8 93 15q5-12 17-4 13 0 12 11l-6 61-12 11v5l-1 3q-1 12-14 8l-11 11-35 2-52 20-76 31-120 39-54 8-11 1h-1L898 888l-68-63-71-59q-15-9-24 7-9 15 6 24 31 19 75 67l72 72 17 12-62 230q62-17 125-25 125-15 128 35 6 119-16 223-27 133-89 153l-57 18q-13 19 29 108l61 14q57 18 45 64-4 13-21 14l-150 9q-107-2-126-40-7 1-2 19 5 18 0 19H539q-39 0-155-75l-108-76q-49 92-62 106-20 22-50 20l-56-9q-7-16 20-83l39-92q4-17-12-26-14-8-8-18 13-10 28-47 14-34 32-44 26-7 45 24 26 40 42 48l95 12q79 6 135 40-4-14-75-81-71-68-80-93-63-22-79-32-36-21-43-57-13-62 7-129 16-54 61-136 44-134 104-261Q537 532 674 459q35-19 67-20l49 4q13 1 38-24 24-24 37-23 23-153 102-183" fill="#fff"/><path d="M1417 949q18-4 18-56l-4-90V776q15-25 35-24 19 1 29 24l1 27-4 90q0 52 17 56 16 2 43-13 3 13 15 20l20 13-1 17q-4 19-24 40l-42-3-3 35q0 26 3 34-7 28-8 237l1 253-2 181h-40V1016h-16v747h-40l-1-181 1-253q-1-209-8-237l2-34-2-35-21 2-22 1-13-18q-8-11-10-22-2 0-2-17l20-13q12-7 16-20 25 15 42 13" fill="#fff"/><path d="M1529 1682l34-234 16 220 201-102-177 144 258 23-264 12 179 91-255-64 136 145-183-111-106 101 36-113-449 123 294-135-117-37h187l-203-112 195 46-78-239 171 271 51-145 74 116" fill="#fff" fill-opacity=".8"/></svg>