<?xml version="1.1" encoding="UTF-8"?><svg xmlns="http://www.w3.org/2000/svg" xmlns:xlink="http://www.w3.org/1999/xlink" version="2.0" width="100pt" height="100pt" viewBox="0 0 2000 2000" clip-rule="evenodd" fill-rule="evenodd" preserveAspectRatio="none"><path d="M992 84l88 98 20 1211 143-15 82-17q35-6 35 5l-1 36q-10 25-64 45-52 19-129 23l-66 1v363l-17 29q-29 28-86 28-57 0-82-18l-14-18V1477l-56-3q-68-7-123-24-66-20-81-54-15-34 44-27l202 21L901 182l91-98" fill="#fff"/><path d="M1353 308l-1-1 83-17q68-16 24-60-51-51-99-40-43 10-70 61l-18 19 81 38m278 1133 24 19q29 15 50-12 21-27 2-66l-23-34-53 93m38-268q26-87 8-112-6-9-38-11h-31l-10 16q-11 15-18 16-20 3-68-47l56 105 13 81 59 34 29-82m100-428q15 45 0 70l-19 29q39 198-21 392l-15 42q7-8 9-6 80 51 72 146-5 52-30 82-20 23-13 55 11 50-52 71-64 21-85-29-18-42-40-57l-19-6 4-5q-62 67-127 112-1 6 8 21 8 12-4 35l-4 2-41 30q-29-20-16-37l22-28q-96 62-218 95V1648q61-19 159-83l85-60-19-7q-20-11-28-34l-3-9q25-25 32-58l2-5q10-15 10-34 0-18-12-35l-5-7-1-1-7-6q-17-14-35-11l-22 4q-28 7-53 22-27 7-103 2V1217l63 10 110 9q37 9 52 53 19 52 50 93 33 42 55 38 22-4 57-52 35-48 25-55-21-15-44-91-23-75-42-87-24-14-32-42l-11-38q-7-14-111-53-110-41-172-48V868l29 12q26 12 43 35 11 15 23 13 13-3 91 22 77 24 85 20l27-8q22 1 88 19l86 30q14 5 18-6 8-18-6-98-14-86-39-147-23-54-127-186L1398 454l-23 91-81 60-14 4q-17 10-30 36l-31 66q-20 42-39 55V567l34-29 16-19q7-28 17-57 21-58 41-63 11-3-21-20-34-18-87-35V240h1q9-47 32-80 42-59 112-34l144 21q80 13 69 77-5 28 7 58l21 48q21 53-47 98h-1q75 70 133 163l77 66 10 20q23 43 31 68M224 1345l-20 59q-7 28 7 23 32-10 54 48l36 84q7 7 22 0l29-18q-76-85-128-196M482 381h-1l-61 3q-38 1-33 32 3 16 13 32l82-67m38-54q-5-6 39-37l72-47 100 6h50l-4 2 31-6v95q-124 27-205 57 29 7 48 51 18 46 32 51 14 5 57 41 41 34 66 42l2 1V871q-44-37-36-65l25-61q12-35-8-42-20-8-23-41l-1-48q-3-15-35-35l-68-36q-21-11-37-50-14-35-57-48-53-17-145 102-79 102-145 243-49 104-37 250 4 51 14 85 10 32 14 19l3-22 26-20q20-14 34-9 8 2 22-21 16-27 39-43l20-10 21 14q28 9 60-19 30-26 63-25l29-4q4-12 26-34 23-23 35-24l42 21q34 14 50-25 18-45 67-38l-18 142-13 2-95 7q-12-2-11-8l-38 17q-42 21-60 43-15 18-36 16-21-1-36 15l-56 47q-34 28-38 49-5 33-18 67-17 41-37 52l72-31 71 8q19-37 40-55l60-41q47-28 71-28l57-8 63-21v36l-1 8q-39 16-80 38-42 22-15 10 32-13-35 40-55 43-87 30-10-4-33 20-25 26-49 24-42-4-92 10l-42 15 88 122q34 47 121 105 107 71 205 87l44 5v86l-9-1q-49 8-69 38l-28 52q-39-9-83-34l9-8q36-38-83-142-75-43-139-102-30 28-104 12-75-17-73-57 3-46-18-59-33-11-54-29-27-23-4-115l29-87 6-12q-72-234 2-467 50-158 157-280l-4 4q-6-24-7-59-2-69 26-118 35-64 158-3" fill="#fff" fill-opacity=".8"/></svg>