<?xml version="1.0" encoding="UTF-8" standalone="no"?>
<svg xmlns:ffdec="https://www.free-decompiler.com/flash" xmlns:xlink="http://www.w3.org/1999/xlink" ffdec:objectType="shape" height="100.0px" width="100.0px" xmlns="http://www.w3.org/2000/svg">
  <g transform="matrix(1.0, 0.0, 0.0, 1.0, 0.0, 0.0)">
    <path d="M100.0 100.0 L0.0 100.0 0.0 0.0 100.0 0.0 100.0 100.0" fill="#000000" fill-opacity="0.003921569" fill-rule="evenodd" stroke="none"/>
    <path d="M16.6 67.45 L15.45 73.0 Q14.3 78.75 14.55 79.5 15.0 80.8 16.15 82.45 17.55 84.55 18.45 84.5 19.85 84.4 20.9 83.0 22.75 81.95 23.45 80.7 23.95 79.95 24.05 78.6 L24.1 77.35 16.6 67.45 M25.45 47.9 Q22.65 45.85 20.25 46.25 16.1 47.0 15.85 51.25 15.6 54.65 17.5 58.0 19.2 55.8 23.7 52.65 L27.8 49.95 25.45 47.9 M81.05 16.2 L85.2 14.3 84.15 18.4 Q85.35 20.35 85.7 21.85 L89.0 24.45 84.8 25.35 Q84.0 26.75 82.9 27.55 L84.25 31.65 80.2 30.1 77.1 32.8 78.15 37.35 74.15 35.35 70.55 38.65 71.5 43.05 67.65 41.2 64.7 43.8 65.7 48.0 62.0 46.25 58.9 49.05 59.8 53.1 56.25 51.35 53.15 54.2 54.05 58.3 50.45 56.6 47.5 59.3 48.4 63.25 44.95 61.6 44.8 61.75 45.85 63.75 Q46.75 66.05 46.0 67.5 45.2 69.0 33.7 77.45 L20.2 87.0 Q18.2 88.35 14.7 84.55 11.5 81.2 11.0 78.9 L12.95 63.5 14.55 60.95 Q12.8 57.4 12.3 53.4 11.4 45.45 18.05 43.15 22.8 41.6 28.8 45.35 31.85 47.35 33.9 49.55 L35.5 50.1 39.95 46.25 39.15 42.4 42.4 44.15 45.7 41.25 44.85 37.15 48.4 38.95 51.25 36.5 50.35 32.35 53.95 34.15 56.45 31.65 55.55 27.4 59.2 29.3 61.9 26.9 60.95 22.35 64.95 24.4 68.65 21.25 67.75 17.1 71.45 18.95 72.65 18.0 73.9 17.25 75.1 12.65 77.85 16.25 Q79.3 15.5 81.05 16.2" fill="#ffffff" fill-rule="evenodd" stroke="none"/>
  </g>
</svg>
