<?xml version="1.0" encoding="UTF-8" standalone="no"?>
<svg xmlns:ffdec="https://www.free-decompiler.com/flash" xmlns:xlink="http://www.w3.org/1999/xlink" ffdec:objectType="shape" height="100.0px" width="100.0px" xmlns="http://www.w3.org/2000/svg">
  <g transform="matrix(1.0, 0.0, 0.0, 1.0, 0.0, 0.0)">
    <path d="M0.0 0.0 L100.0 0.0 100.0 100.0 0.0 100.0 0.0 0.0" fill="#444444" fill-opacity="0.0" fill-rule="evenodd" stroke="none"/>
    <path d="M35.0 65.45 L33.6 63.5 31.55 63.65 30.7 64.7 33.3 65.7 33.05 66.5 28.7 66.5 27.45 66.1 26.9 66.8 30.7 68.55 33.35 67.45 35.0 65.45 M90.4 12.7 Q91.8 14.75 90.8 15.45 L86.3 19.05 85.5 21.35 77.25 26.4 73.6 26.15 66.05 31.45 67.5 33.55 67.55 33.5 80.15 42.05 80.4 45.7 77.0 47.75 72.9 46.5 63.15 38.7 44.45 51.7 47.0 52.55 Q49.1 50.4 51.9 50.5 L54.15 50.5 Q64.4 53.5 85.05 60.65 L86.55 62.85 Q87.9 65.6 87.15 68.15 86.15 72.25 85.1 74.75 L83.4 76.1 Q81.35 77.35 79.45 76.75 53.15 68.85 49.9 67.5 46.35 66.1 44.85 63.25 43.85 61.2 44.15 59.95 L37.3 57.8 34.95 62.15 34.85 62.85 36.2 64.1 36.3 66.1 34.15 68.4 30.75 70.2 25.7 68.45 23.85 71.05 19.35 82.95 16.65 85.85 13.75 87.85 8.3 86.35 7.0 84.45 17.85 65.0 20.7 63.5 23.75 58.45 21.4 55.15 42.6 40.4 43.7 41.85 72.9 21.5 71.9 19.0 73.95 17.5 75.9 18.65 81.4 14.9 83.0 14.4 87.5 11.25 88.45 11.2 Q89.55 11.35 90.4 12.7" fill="#ffffff" fill-rule="evenodd" stroke="none"/>
  </g>
</svg>
