<?xml version="1.0" encoding="UTF-8" standalone="no"?>
<svg xmlns:ffdec="https://www.free-decompiler.com/flash" xmlns:xlink="http://www.w3.org/1999/xlink" ffdec:objectType="shape" height="100.0px" width="100.0px" xmlns="http://www.w3.org/2000/svg">
  <g transform="matrix(1.0, 0.0, 0.0, 1.0, 0.0, 0.0)">
    <path d="M0.0 100.0 L0.0 0.0 100.0 0.0 100.0 100.0 0.0 100.0" fill="#000000" fill-opacity="0.003921569" fill-rule="evenodd" stroke="none"/>
    <path d="M55.6 39.6 L50.05 36.15 37.7 44.45 37.6 48.8 Q37.6 52.55 38.0 56.1 L41.75 58.75 50.05 63.6 58.35 58.75 61.9 56.2 62.2 48.4 62.1 44.35 55.6 39.6 M50.05 32.2 Q55.7 29.15 59.9 27.25 56.55 13.15 50.05 13.15 43.95 13.15 40.3 27.25 44.55 29.15 50.05 32.2 M60.6 30.7 Q56.25 32.7 53.5 34.25 L61.8 39.8 Q61.5 35.15 60.6 30.7 M82.1 70.8 Q83.1 69.5 82.8 67.55 81.7 61.9 71.85 52.55 68.4 55.7 65.15 58.05 64.65 64.15 63.55 69.8 71.65 72.75 76.6 72.75 80.75 72.75 82.1 70.8 M84.8 26.75 Q86.75 29.35 86.15 33.2 84.9 40.2 74.4 50.25 85.0 60.15 86.15 66.95 86.75 70.4 85.0 72.75 82.4 76.2 76.6 76.2 71.05 76.2 62.9 73.15 58.95 90.3 50.45 90.3 41.75 90.3 37.35 73.15 28.65 76.2 23.4 76.2 17.7 76.2 15.15 72.75 13.25 70.3 13.85 66.95 15.05 60.3 25.6 50.25 15.15 40.1 13.95 33.2 13.25 29.55 15.25 26.75 18.1 23.0 24.1 23.0 29.65 23.0 37.05 26.0 41.25 9.7 50.05 9.7 59.05 9.7 63.2 25.9 70.75 23.0 76.0 23.0 81.9 23.0 84.8 26.75 M82.7 32.6 Q83.2 30.3 82.0 28.85 80.25 26.5 76.0 26.5 71.05 26.5 63.85 29.35 65.05 35.05 65.45 42.55 L71.85 47.9 Q81.6 38.6 82.7 32.6 M47.2 47.3 Q48.4 46.2 50.05 46.2 51.75 46.2 52.8 47.3 54.0 48.5 54.0 50.05 54.0 51.65 52.8 52.75 51.75 53.8 50.05 53.8 48.4 53.8 47.2 52.75 46.0 51.65 46.0 50.05 46.0 48.5 47.2 47.3 M53.7 65.45 L60.3 68.5 Q61.1 64.55 61.5 60.7 L60.2 61.6 Q58.35 62.9 53.7 65.45 M50.05 67.55 Q43.25 70.8 40.6 71.85 44.35 86.85 50.45 86.85 56.15 86.85 59.6 71.95 53.5 69.4 50.05 67.55 M65.45 53.4 L69.3 50.25 65.65 47.1 65.45 53.4 M38.5 60.6 Q39.0 64.95 39.8 68.4 L46.3 65.45 39.8 61.6 38.5 60.6 M34.75 57.95 Q31.8 55.7 28.15 52.55 18.2 62.1 17.3 67.55 17.0 69.6 17.9 70.8 19.35 72.75 23.4 72.75 28.65 72.75 36.55 69.7 35.25 63.9 34.75 57.95 M39.5 30.7 Q38.5 35.45 38.1 39.9 L46.6 34.25 39.5 30.7 M34.15 48.8 L34.25 47.3 30.7 50.25 34.35 53.2 34.15 48.8 M18.0 28.85 Q16.9 30.4 17.3 32.6 18.4 38.6 28.15 47.9 L34.45 42.65 Q34.75 36.15 36.25 29.35 29.15 26.5 24.1 26.5 19.75 26.5 18.0 28.85" fill="#ffffff" fill-rule="evenodd" stroke="none"/>
  </g>
</svg>
