<?xml version="1.0" encoding="UTF-8" standalone="no"?>
<svg xmlns:ffdec="https://www.free-decompiler.com/flash" xmlns:xlink="http://www.w3.org/1999/xlink" ffdec:objectType="shape" height="100.0px" width="100.0px" xmlns="http://www.w3.org/2000/svg">
  <g transform="matrix(1.0, 0.0, 0.0, 1.0, 0.0, 0.0)">
    <path d="M0.0 100.0 L0.0 0.0 100.0 0.0 100.0 100.0 0.0 100.0" fill="#000000" fill-opacity="0.003921569" fill-rule="evenodd" stroke="none"/>
    <path d="M76.55 40.55 Q77.15 39.9 76.3 38.25 75.4 36.7 74.0 35.4 L71.7 38.0 Q71.25 38.75 71.5 39.2 L72.75 40.25 73.85 40.5 Q74.35 40.55 74.5 40.9 L73.65 41.05 Q73.05 41.05 72.7 41.55 72.9 42.35 74.35 43.2 75.5 41.55 76.55 40.55 M84.5 12.5 L90.05 19.8 89.95 20.95 86.45 23.3 75.35 34.1 Q79.2 39.25 78.6 40.35 76.95 41.8 75.15 44.0 75.2 45.2 77.95 48.45 80.75 51.75 80.8 52.8 80.6 53.55 79.5 54.55 78.45 55.55 77.65 55.7 76.7 55.1 74.55 51.65 73.0 49.1 71.35 49.6 L71.05 48.75 70.4 47.85 Q70.0 47.3 68.35 47.3 L66.7 47.45 63.55 45.0 53.8 54.8 Q47.25 61.25 43.6 64.05 L41.6 65.35 Q40.1 66.2 39.55 66.55 37.65 67.95 33.85 71.75 29.0 75.8 27.05 77.95 L26.25 78.95 Q25.7 79.6 25.2 79.3 L20.9 84.6 21.1 86.05 Q21.25 86.85 20.9 87.35 19.1 89.65 14.0 84.25 8.85 78.8 10.35 76.9 10.95 76.15 11.8 76.0 12.75 75.95 13.6 76.55 14.25 75.9 16.45 74.6 18.6 73.45 19.2 72.65 19.9 71.8 19.25 71.0 L19.7 70.5 Q19.9 70.35 20.2 70.7 L20.7 71.0 31.35 61.1 31.05 60.55 Q30.85 60.2 31.35 60.0 31.5 59.7 31.8 60.0 L32.15 60.4 34.3 57.95 36.3 55.25 Q37.75 53.75 49.7 43.55 L62.75 32.3 62.3 31.7 61.9 31.05 Q62.15 30.05 65.2 27.8 65.45 27.8 66.55 28.75 67.55 28.0 67.55 27.1 L69.6 26.5 75.05 21.05 74.0 19.7 77.55 16.35 75.3 13.4 76.15 12.55 79.5 16.85 80.6 15.85 83.3 12.0 84.5 12.5" fill="#ffffff" fill-rule="evenodd" stroke="none"/>
  </g>
</svg>
