<?xml version="1.0" encoding="UTF-8" standalone="no"?>
<svg xmlns:ffdec="https://www.free-decompiler.com/flash" xmlns:xlink="http://www.w3.org/1999/xlink" ffdec:objectType="shape" height="100.0px" width="100.0px" xmlns="http://www.w3.org/2000/svg">
  <g transform="matrix(1.0, 0.0, 0.0, 1.0, 0.0, 0.0)">
    <path d="M0.0 100.0 L0.0 0.0 100.0 0.0 100.0 100.0 0.0 100.0" fill="#444444" fill-opacity="0.0" fill-rule="evenodd" stroke="none"/>
    <path d="M81.6 73.35 Q71.0 83.05 54.45 82.15 45.45 81.6 40.2 76.35 34.3 70.65 33.95 60.15 33.7 53.7 38.6 46.15 43.5 38.4 51.1 33.8 59.7 28.6 67.45 31.3 73.25 33.35 77.8 39.35 85.4 49.2 81.6 57.65 79.15 63.0 72.55 67.05 66.5 70.95 59.9 69.75 53.75 68.6 49.3 63.6 44.5 58.15 45.0 52.5 45.45 47.6 50.1 43.7 L48.1 46.2 Q43.5 53.25 50.35 62.25 53.75 66.8 59.7 68.0 66.25 69.3 71.75 65.45 78.35 60.75 79.95 54.8 81.95 47.8 76.15 40.95 71.5 35.5 67.8 34.0 60.95 31.1 52.15 36.1 47.1 39.15 42.95 44.05 37.05 51.05 36.6 58.55 36.15 66.55 41.85 72.9 47.4 79.0 54.3 79.25 65.55 79.5 74.25 75.25 88.05 68.45 88.9 51.6 89.7 37.55 80.15 28.7 71.55 20.8 59.45 20.5 45.65 20.25 34.85 33.75 26.6 44.05 24.4 54.9 L25.2 55.35 25.4 56.15 Q25.65 57.25 25.2 58.6 24.65 60.45 22.95 61.05 L21.85 60.95 16.3 78.05 17.7 79.65 16.5 82.95 Q13.2 84.65 10.25 82.7 L8.15 80.4 9.35 76.9 10.4 76.35 16.0 59.0 15.2 58.5 Q14.4 56.95 15.25 55.2 15.75 54.0 16.5 53.4 L17.1 53.2 18.4 53.45 Q20.7 43.95 26.8 34.65 39.1 15.75 58.45 16.3 74.7 16.7 84.05 28.05 92.25 38.0 91.9 51.5 91.65 64.35 81.6 73.35" fill="#ffffff" fill-rule="evenodd" stroke="none"/>
  </g>
</svg>
