<?xml version="1.1" encoding="UTF-8"?><svg xmlns="http://www.w3.org/2000/svg" xmlns:xlink="http://www.w3.org/1999/xlink" version="2.0" width="100pt" height="100pt" viewBox="0 0 2000 2000" clip-rule="evenodd" fill-rule="evenodd" preserveAspectRatio="none"><path d="M1307 89l-115 66-52 34q-23 23-25 56l-3 6-54 74V271q0-116 11-154 21-72 99-103l18-7h213q-34 46-92 82" fill="#fff"/><path d="M1157 1799l42 51q23 30 29 58l7 43q3 26 9 40H1125l-9-62q-7-24-30-39l-49-22q-31-9-44-22l-26-42-29-40-29-39q18 15 57 27l64 13q75 5 127 34" fill="#fff"/><path d="M1453 244q-79 5-92 42-10 27 11 44l39 26 81-4q36-13 61-51l38-66q23-40 43-63 47-52 140-61 69-5 105-61l37 29q27 25 49 62l-5 1q-15 6-32 25l-29 32q-24 21-77 31-61 10-80 21-65 36-70 111-3 44 16 80 21 40 61 51 42 12 86-12 44-25 54-67 5 26-45 77-46 45-77 58-45 18-87-5-61-32-80-35l-2-6-35-6-38 1q-16 4-32 17l-29 21q-25 74-68 93-26 11-72 1-5 24 10 55l6 1 1 9 8 8 5 12q5 2 10 6 85 15 137-59 5 25-16 61l-38 55-9 1-1 6-9 1q-8 13-39 18-31 5-40 18-9 13-7 34 17 14 43 22l76-5 67-35q44-26 91-23 36 2 90 24l30 43 11 53q4 33 25 113l22 17 20 17q19 11 58 20l62-5q25-11 56-38l17-17v326l-58 7-46-7-1-9-13-1-58-75-32-44q-24-30-42-33-26-5-40 30-13 29-10 59 3 31 21 46 16 14 49 18l-77 6q-43 0-63-34l-32-66q-24-39-59-40-11-13-44-16l-44-10h-25q-35 15-42 49-9 45 7 81 20 44 67 27-26 31-74 52l-46 3-44-5-4 6 1 2 17 62q15 37 39 43 9 28 58 27l71-13 68-5 65 18 1 9 9 1 11 27q9 17 7 29l-8-16q-35-20-72-9-33 10-52 38-19 28-10 55 10 30 54 42 68 18 138-26 59-37 127-63 44-17 95-12 51 5 91 30v11q3 167-92 251-81 72-233 77-19-43-56-75-47-42-127-46l-79 12-76 7q-80-16-90-93 2-100-4-153-6-59-85-103-36-19-67-1-33 18-26 61 2 13 12 24 10 11 23 15-33 15-69 10-40-6-58-35-11-17-13-44l-15-23-12-25q-22-38-67-51l-34-13h-8l-29-6-32-1-14 17q3 17 19 28 14 9 33 10-22 18-68 13-45-5-62-26-20-5-38-38l-28-53q-36-50-85-69-44-17-233 33-172 47-174 27-9-98-73-63-27 16-40 68V664q12 41 89 105 103 87 209 68 90-16 125-108 15-2 39-19 23-16 41-18l51 4q32 2 44-14 24-4 50-39l40-52 17-76 2-39q1-26 8-37 25-41 113-41-27 5-41 38-13 28-11 59 17 22 56 29 20-1 54-14 35-12 54-14l7-2 2-1 2 1 20 3q62 6 89 1 47-9 74-48l36-55q22-33 41-50 36-65 94-92 63-31 138-9" fill="#fff"/></svg>