<?xml version="1.0" encoding="UTF-8" standalone="no"?>
<svg xmlns:ffdec="https://www.free-decompiler.com/flash" xmlns:xlink="http://www.w3.org/1999/xlink" ffdec:objectType="frame" height="100.0px" width="100.0px" xmlns="http://www.w3.org/2000/svg">
  <g transform="matrix(1.0, 0.0, 0.0, 1.0, 0.0, 0.0)">
    <use ffdec:characterId="1" height="89.95" transform="matrix(1.0, 0.0, 0.0, 1.0, 7.1, 5.0)" width="86.8" xlink:href="#shape0"/>
  </g>
  <defs>
    <g id="shape0" transform="matrix(1.0, 0.0, 0.0, 1.0, -7.1, -5.0)">
      <path d="M7.65 28.3 Q8.25 25.45 10.75 20.8 13.55 15.65 14.25 13.4 13.7 15.85 14.25 21.3 L15.05 25.4 Q15.65 27.85 15.55 29.55 15.45 31.55 12.7 36.45 10.3 40.7 11.05 43.3 L10.3 44.05 Q10.45 42.45 9.55 40.45 L7.9 37.1 Q6.45 33.65 7.65 28.3" fill="#ffffff" fill-rule="evenodd" stroke="none"/>
      <path d="M78.15 13.3 Q79.3 13.45 80.75 14.4 82.2 15.3 82.85 16.25 83.95 16.6 85.4 18.05 86.95 19.6 87.3 20.75 89.1 21.75 89.65 24.7 90.0 26.8 89.7 29.55 L88.6 34.1 Q87.85 36.9 88.05 38.5 86.75 36.9 86.75 34.8 L87.55 33.8 Q87.05 32.8 86.95 30.95 L86.75 28.05 Q85.95 24.8 84.4 23.0 84.0 20.4 82.0 17.8 L78.15 13.3" fill="#ffffff" fill-rule="evenodd" stroke="none"/>
      <path d="M35.25 27.35 Q38.3 22.2 38.1 16.0 37.85 9.2 33.55 5.0 39.1 7.5 40.9 12.65 41.7 15.05 42.2 22.45 52.1 16.4 49.25 9.15 51.95 12.15 52.2 15.75 52.4 18.1 51.35 22.15 50.15 26.85 50.0 28.6 49.8 32.25 51.6 35.2 L51.7 35.9 52.45 36.75 53.2 37.55 53.25 38.1 54.0 38.15 Q52.6 33.05 52.35 30.5 51.85 26.05 54.85 22.65 52.45 29.0 61.1 34.35 61.5 27.9 62.25 25.75 63.8 21.2 68.65 19.05 64.9 22.7 64.7 28.7 64.5 34.15 67.2 38.65 69.05 41.75 72.85 46.2 75.6 50.15 75.2 54.55 76.55 51.35 77.15 48.6 78.3 43.65 78.0 35.45 L80.6 41.7 Q83.25 49.9 83.2 59.7 83.9 58.85 85.4 58.7 86.65 58.6 86.7 57.85 L87.05 54.25 Q87.3 52.35 88.0 50.8 88.6 49.5 90.6 47.75 L93.9 45.3 Q92.65 46.45 91.55 54.15 90.45 61.55 90.95 63.55 91.55 65.95 90.4 69.75 L88.0 76.2 39.35 94.95 Q36.2 94.7 33.75 93.7 L28.55 91.5 Q24.1 90.05 20.75 87.25 17.25 84.35 15.65 80.55 15.85 79.55 15.4 77.65 L14.75 74.55 Q14.5 72.0 14.5 68.15 L16.0 72.5 Q16.85 74.9 18.65 76.4 20.15 77.6 22.45 78.8 16.25 65.3 19.05 47.1 19.9 41.4 21.55 35.95 L23.05 31.6 Q23.65 38.85 24.5 41.5 L26.15 45.45 Q25.7 40.45 28.85 35.95 L35.25 27.35" fill="url(#gradient0)" fill-rule="evenodd" stroke="none"/>
      <path d="M24.0 89.6 L72.65 71.2 88.0 76.2 39.35 94.95 24.0 89.6" fill="url(#gradient1)" fill-rule="evenodd" stroke="none"/>
    </g>
    <linearGradient gradientTransform="matrix(0.0029, 0.0549, 0.0549, -0.0029, 53.75, 49.1)" gradientUnits="userSpaceOnUse" id="gradient0" spreadMethod="pad" x1="-819.2" x2="819.2">
      <stop offset="0.2" stop-color="#ffffff"/>
      <stop offset="0.43529411764705883" stop-color="#ffffff" stop-opacity="0.8862745"/>
      <stop offset="0.9333333333333333" stop-color="#ffffff" stop-opacity="0.25490198"/>
      <stop offset="1.0" stop-color="#ffffff" stop-opacity="0.0"/>
    </linearGradient>
    <linearGradient gradientTransform="matrix(-0.0391, 0.0, 0.0, -0.0391, 56.0, 83.05)" gradientUnits="userSpaceOnUse" id="gradient1" spreadMethod="pad" x1="-819.2" x2="819.2">
      <stop offset="0.2" stop-color="#ffffff"/>
      <stop offset="0.43529411764705883" stop-color="#ffffff" stop-opacity="0.8862745"/>
      <stop offset="0.9333333333333333" stop-color="#ffffff" stop-opacity="0.25490198"/>
      <stop offset="1.0" stop-color="#ffffff" stop-opacity="0.0"/>
    </linearGradient>
  </defs>
</svg>
