<?xml version="1.1" encoding="UTF-8"?><svg xmlns="http://www.w3.org/2000/svg" xmlns:xlink="http://www.w3.org/1999/xlink" version="2.0" width="100pt" height="100pt" viewBox="0 0 2000 2000" clip-rule="evenodd" fill-rule="evenodd" preserveAspectRatio="none"><path d="M192 1028q43 28 57 32l-41 1-120-6q-56-12-81-59L2 985 0 856q37 21 64 55l52 69 27 31q18 14 44 15l5 2" fill="#fff"/><path d="M1807 253l70-46q41-25 81-32l12-2q16 43 30 119l-12 3q-35 9-55 33-14 17-29 54-13 32-31 47l-57 29q-22 9-56 31l-53 31q20-18 36-61 16-39 18-69 5-80 46-137" fill="#fff"/><path d="M1698 4q12 17 10 62-1 46-50 84l-77 45q-51 28-61 35-40 26-45 45-6 28 42 43l83 10q43-4 64-23 19-18 23-53 0 28 10 83 1 46-46 68-56 20-84 34-50 25-64 65-21 63-19 90 3 46 54 77l112 3q63-29 38-84 40 27 73 80 13 22 3 50-11 31-6 47l9 4 3-1 55-15q27-13 40-40 4 76-47 135-56 49-65 62-26 39-2 73 26 35 85 27 18-2 34-13 16-12 21-26 21 36 14 75-8 43-48 63-24 11-31 56-9 60 37 130 63 96 10 279-59 204-222 246-451 118-915 91-508-30-531-231-5-38 17-167 19-110 4-116-55-26-57-122 7 29 53 44 38 13 82 11 31-18 41-61-13-110-25-161-30-135-82-163-42-23-93-125Q88 708 87 613q15 47 54 82 39 35 69 28 43-11 83-103 40-92 21-135-20-44-43-120-33-113-31-185 30 52 49 57 27 6 68-49 40-54 42-97 1-24-17-88h53l-6 171q-8 189-21 280-7 48 22 92-10 39 10 77l51 115q3 78 71 205l40 122 41 122 34 138 30 140q-81 56-153 96l-135 31q-117 22-105 89 13 66 126 61l138 7q85 6 137-3l144-19 144-23q56-12 75-59 18-42-1-89 7-33-5-59-8-24-28-44-52-89-68-259-18-199-42-267-1-160-124-343l-27-36q-24-118-29-178l-1-6 4-10 43-114v11l1-1 3 31q6 43 36 65 3 97 14 161 16 86 53 154 14 43 51 66l7 4q25 15 54 17l84 69 86 67q104 107 192 222l25 33 28 51-7 22-24 175-1 1q-27 23-41 59-6 17-10 53l-5 8-14 29-20 24q-11 18-24 51-19 52 20 100 38 46 92 46l41-7q115-12 198-153l73-157 20-47q30-54 17-37 23-32 30-65 8-41-14-73-31-45-83-84l-6-12-61-84q-63-116-135-221-66-113-118-185-89-126-164-174l4-18 52-181q48-80 125-257l319 1" fill="#fff"/></svg>