<?xml version="1.1" encoding="UTF-8"?><svg xmlns="http://www.w3.org/2000/svg" xmlns:xlink="http://www.w3.org/1999/xlink" version="2.0" width="100pt" height="100pt" viewBox="0 0 2000 2000" clip-rule="evenodd" fill-rule="evenodd" preserveAspectRatio="none"><path d="M1600 574q-2-34 10-83l16-82q12-103 0-159 14 45 70 148 50 93 62 151 25 107-5 175l-32 68q-18 40-15 72l-51-109q-52-122-55-181" fill="#fff"/><path d="M465 574q-2 34-45 102l-42 61q3-18-12-40l-28-38q-23-37-4-99 10-32 52-84l58-84q-10 32 0 89l14 46q9 28 7 47" fill="#fff"/><path d="M1329 1681q140-141 140-339 0-198-140-338-140-140-338-140-198 0-338 140-140 140-140 338 0 198 140 339 140 140 338 140 198 0 338-140M867 298q5-72 59-132-55 146 141 266 10-148 27-196 35-103 146-153-85 83-90 219-5 125 56 228 42 70 128 172 63 90 54 190l33-80q18-53 29-197l51 55q59 72 98 154 125 263 1 533l85-45q63-57 52-178 50 189-11 296l-82 113q-68 87-113 162-49 81-198 142-156 63-336 68-157 5-348-92-84-42-208-129-89-61-131-122-50-73-56-171-4-52 9-88l28-79q10-40-2-113-12-79-37-102l51 31 48 34q34 30 35 112 0 86 9 98 59-131-6-304-28-74-27-106 2-52 59-93 0 118 28 149 16 18 59 39-10-108 4-167 13-59 69-151 51-87 43-153-9-69-86-145 97 44 128 135 15 43 23 171Q863 564 814 436q60 68 51 157-6 51-34 153l15-2 1-10 15-17 15-17 2-14q37-59 32-132L884 426q-21-81-17-128" fill="#fff"/><path d="M1065 955v343h249v135l-383 4V955h134" fill="#fff"/></svg>