<?xml version="1.0" encoding="UTF-8" standalone="no"?>
<svg xmlns:ffdec="https://www.free-decompiler.com/flash" xmlns:xlink="http://www.w3.org/1999/xlink" ffdec:objectType="frame" height="100.0px" width="100.0px" xmlns="http://www.w3.org/2000/svg">
  <g transform="matrix(1.0, 0.0, 0.0, 1.0, 0.0, 0.0)">
    <use ffdec:characterId="1" height="89.75" transform="matrix(1.0, 0.0, 0.0, 1.0, 0.0, 10.25)" width="97.35" xlink:href="#shape0"/>
  </g>
  <defs>
    <g id="shape0" transform="matrix(1.0, 0.0, 0.0, 1.0, 0.0, -10.25)">
      <path d="M34.0 64.4 Q32.35 64.4 31.2 65.3 30.05 66.2 30.05 67.5 30.05 68.8 31.2 69.65 32.35 70.55 34.0 70.55 35.6 70.55 36.75 69.65 37.9 68.75 37.9 67.5 37.9 66.2 36.75 65.3 35.6 64.4 34.0 64.4 M44.0 37.55 Q44.0 36.25 42.85 35.35 41.7 34.45 40.1 34.45 38.45 34.45 37.3 35.35 36.15 36.25 36.15 37.55 36.15 38.85 37.3 39.7 38.45 40.6 40.1 40.6 41.7 40.6 42.85 39.7 44.0 38.8 44.0 37.55 M43.7 45.2 L43.8 45.05 Q43.95 44.9 44.35 44.9 L44.75 45.15 45.25 49.7 48.25 49.7 47.75 44.25 Q47.75 42.3 44.75 42.05 L42.35 41.7 42.2 41.15 40.1 41.6 38.0 41.15 37.85 41.75 35.8 42.05 Q32.4 42.2 32.4 44.25 L31.9 49.7 35.0 49.7 35.4 45.15 35.5 45.05 Q35.65 44.9 35.85 44.9 36.45 44.9 36.45 45.2 L36.3 50.55 34.25 60.3 38.5 60.3 39.5 54.65 40.6 54.65 41.6 60.3 45.85 60.3 43.8 50.55 43.7 45.2 M59.15 53.05 Q58.05 53.05 57.05 52.55 L56.9 53.15 54.85 53.45 Q51.45 53.6 51.45 55.65 L50.95 61.1 54.05 61.1 54.45 56.55 54.55 56.45 Q54.7 56.3 54.9 56.3 55.5 56.3 55.5 56.6 L55.35 61.95 53.3 71.7 57.55 71.7 58.55 66.1 59.65 66.1 60.65 71.7 64.9 71.7 62.85 61.95 62.75 56.6 62.85 56.45 Q63.0 56.3 63.4 56.3 L63.85 56.55 64.3 61.1 67.3 61.1 66.8 55.65 Q66.8 53.75 63.8 53.5 L63.8 53.45 61.4 53.15 61.25 52.55 59.15 53.05 M59.15 45.9 Q57.5 45.9 56.35 46.8 55.2 47.7 55.2 48.95 55.2 50.25 56.35 51.1 57.5 52.0 59.15 52.0 60.75 52.0 61.9 51.1 63.05 50.2 63.05 48.95 63.05 47.7 61.9 46.8 60.75 45.9 59.15 45.9 M30.35 75.15 L30.2 80.5 28.15 90.25 32.4 90.25 33.4 84.65 34.5 84.65 35.5 90.25 39.75 90.25 37.7 80.5 37.6 75.15 37.7 75.0 38.25 74.85 Q38.6 74.85 38.7 75.1 L39.15 79.65 42.15 79.65 41.65 74.2 Q41.65 72.35 38.65 72.0 L36.25 71.65 36.1 71.1 34.0 71.6 Q32.9 71.6 31.9 71.1 L31.75 71.7 29.7 72.0 Q26.3 72.15 26.3 74.2 L25.8 79.65 28.9 79.65 29.3 75.1 29.4 75.0 Q29.55 74.85 29.75 74.85 30.35 74.85 30.35 75.15 M24.35 33.1 Q25.45 28.2 26.2 28.25 26.6 28.3 27.3 30.85 27.85 32.85 29.45 32.1 31.0 31.4 31.85 29.3 32.8 26.9 34.5 25.4 L38.0 21.8 Q40.15 21.65 43.7 21.85 46.45 21.7 47.9 19.65 49.35 17.55 49.0 15.6 48.7 14.15 47.05 11.9 48.3 12.9 49.6 15.5 L51.25 19.65 Q52.0 22.15 50.7 23.95 L49.05 25.35 Q48.0 26.15 47.85 26.9 45.6 28.55 46.05 30.75 46.5 33.1 50.1 31.7 51.9 31.0 53.4 28.25 54.65 25.85 57.25 25.55 61.0 25.05 63.0 23.95 65.4 22.55 66.0 19.9 67.1 15.25 63.95 10.25 65.35 10.65 67.75 13.65 70.05 16.55 70.3 17.95 L70.8 18.05 71.85 20.2 Q72.45 21.45 72.35 22.45 72.25 23.7 71.25 24.5 L69.1 26.05 Q66.45 28.3 66.55 30.1 66.7 32.15 70.85 32.15 77.6 32.1 79.9 26.55 81.45 19.5 82.65 16.6 L85.4 14.9 87.8 12.85 Q91.5 12.3 92.7 11.6 91.95 12.35 91.45 13.6 90.95 14.8 91.0 15.6 89.5 16.45 90.05 19.5 L90.75 23.9 Q90.55 25.5 88.25 27.7 85.7 30.05 85.3 31.15 84.15 31.6 83.65 33.3 83.05 35.05 81.95 35.6 81.2 36.0 78.8 36.5 77.55 39.25 78.7 40.45 80.3 42.2 86.65 40.05 87.6 40.1 90.65 39.0 L94.7 38.8 96.1 39.45 97.35 40.3 Q94.95 39.9 93.55 41.3 L90.45 45.7 Q89.4 47.25 89.95 50.25 90.5 53.1 89.05 54.75 L86.75 56.4 Q85.4 57.3 85.45 58.55 85.6 60.7 88.2 61.0 91.15 61.35 94.85 56.4 95.0 59.3 91.3 61.9 88.2 64.1 84.95 64.7 L81.75 64.6 78.75 64.15 Q76.8 65.5 74.8 66.8 75.5 68.05 73.15 70.2 71.5 71.75 69.6 72.8 67.5 74.0 65.6 76.2 L62.0 80.1 47.85 90.45 Q38.45 97.05 34.6 100.0 L17.2 100.0 Q9.3 100.0 4.55 95.2 0.55 91.2 0.0 84.65 7.4 73.05 12.65 63.95 19.8 51.45 20.5 47.65 21.3 43.0 22.45 39.85 23.4 37.15 24.2 36.6 23.85 35.4 24.35 33.1" fill="url(#gradient0)" fill-rule="evenodd" stroke="none"/>
    </g>
    <linearGradient gradientTransform="matrix(-0.0394, 0.0606, 0.0606, 0.0394, 52.1, 55.9)" gradientUnits="userSpaceOnUse" id="gradient0" spreadMethod="pad" x1="-819.2" x2="819.2">
      <stop offset="0.611764705882353" stop-color="#ffffff"/>
      <stop offset="0.9568627450980393" stop-color="#ffffff" stop-opacity="0.27058825"/>
      <stop offset="1.0" stop-color="#ffffff" stop-opacity="0.0"/>
    </linearGradient>
  </defs>
</svg>
