<?xml version="1.1" encoding="UTF-8"?><svg xmlns="http://www.w3.org/2000/svg" xmlns:xlink="http://www.w3.org/1999/xlink" version="2.0" width="100pt" height="100pt" viewBox="0 0 2000 2000" clip-rule="evenodd" fill-rule="evenodd" preserveAspectRatio="none"><path d="M1518 1637l14-15-5 12-9 3" fill="#fff"/><path d="M1496 1604l-2-4 8-3-6 7" fill="#fff"/><path d="M1446 1218l3 5-5-1 2-4" fill="#fff"/><path d="M1041 1478H949v160h92V1478m0-271H949v165h92V1207M390 1402v33H837v-33H390m1277-10 4-8q-5-7-14 8 16-5 2 7 13 5 17-11l-9 4m-220-151 2-18q121 36 189 86 70 52 70 110 0 51-55 98-54 45-151 80l1-11-14-7q-1 6 3 8l4 6-2 7q-208 73-499 73-295 0-504-74-209-75-209-180 0-90 158-160 156-68 396-88l11 26q8 14 13-28l67-3q-1 9 1 9l2-9 65-1 144 5h1q170 12 304 52l-2 5 6 2-4 12h3m-312 161v33h465v-33H1135" fill="#fff"/><path d="M1125 1105q10 3 14 18v14l-85-4 4-3q20-35 67-25" fill="#fff"/><path d="M479 236l13 3 18 26 1 10q9 21 2 52l-1 9-12 27-16 27-13 6q1 12 10 25 3 14-10 35l-3 11-4-4-4 31-7 25q-1-34-12-82 6-6 1-9l-2 3-1-5 6-8q4-4 0-8l-2 3-3-3 4-2-2-5-5 15-9-36v-1l-2-5 2-5-3 1-2-7v-1l-2-11q-25-41-20-78 6-42 51-46 17-1 27 7" fill="#fff"/><path d="M1280 957l15 20q7 13 4 32l-22 13q-17 3-25 8-3 32-30 57l-24-8-20-3q-15-5-15-19l1-16-10 5h-26l-19 5q-18 0-32-22l-4-2-7-6V997l-2 8 1 13 1 3-1 109-2-1h-24l-21 3H995l-132 4v-5l-2-6-14-5-12 18q-278 20-461 98-185 80-185 183 0 119 237 203 236 84 569 84 297 0 523-69l-8 17h8l2-4q-3-4 7-16 206-65 258-159l1-13-4-26 2 1 5-1 1-4 3-11q0-33-8-58-42-77-192-136l-2-5q-3-1-4 3-43-17-122-39l-3-5-4 3q-121-30-258-43l9-16q0-8 3-14l13-23h-1q21-10 46-7l1 1 12-13 3-5v-1l1-2 4-3 21-2 1-1 1 4 2 14h13q10-3 17 6l7-9-8-6-5-5-13-26q6-8 15-10l5 16h3l10 5 7 11 9 8q9 20 29 18l11-1-10-21q-20-14-30-48-25 17-48-6-19-18-31-57l-17 9m-17-69q1 22 11 30l21 9q-10-31-32-39m283-28 5-11-6 7-6 7q6 2 5 8l-9-1q-4 1-3 8 14-4 19-15h-3l-2-3m-27-46-1 3h7q-3 6 0 12l5 13q-3 1-5-2l-3-5q0 11 8 11l2-13-2-16-8-4-3 1M249 331q8 11 9 32l-4 28v60l5 21 4 25-5 19-7 17 1 21-1 21 11 35-3-6-8-13-3-11-2-2 26 89-56-59-6-18-25-58-30-56-20-46q-8-24-8-64-15-19-13-36 1-10 13-28l1-10q2-7 12-13l1-2q29-17 62-12l5 9 24 36 17 21M1716 477l-7 15q-6 8-5 10l11-5q7-6 4-13-8 17-10 11l8-11q4-13-1-7m-57 3q-2-19 2-34l30 6 35-3q2-8 10-15l12-13-3-1-5 1q-4-56 12-78l21 6q11 4 15 15l23 1 16 17v7l-6 14-11 7q6 14-2 41l-15 44-13 5-16 2-5-13-2-15q-6 6-7 0l-5 13-2 15-10 3q-7 0-9 4l-3-5v-9l-9 10-12 4-4-6-4-4q-4 0-6 7l-1 14q-25 7-21 61 4 64-7 81l-19-1q-9-3-10-14-12 3-13 17l3 31q-7 11-2 24v3h1l5 14q-8 7-11 17l-3 12-2 3V750q-11 12-15 34l-6 33-20 45-6 3q-20 17-39 50l-2-20q10 13 12 0l-4-2 1 2q-6 6-12-10l-10-19v5q12 12 8 56-22 41-23 78l-2-3-1 4 3 5v7l-6 13-5 20-9 13v13l21-53 3 11q-8 37 12 59l-2 4h1l1-3 11 8 15 6 1 2 13 7-2-7h14v7l12-8q23-5 41-25 34-20 46-59l7-13 5-19-8 12 2-40 6-21 7-32-1-24 20-31-5 20 10-9q4-2 9 5 4-6-7-23 19-16 23 10 1 12 11 22 9 8 21 9 16 0 23-16 24-47 78-44-5 35-15 49l-10 51q26-25 76-57l18-1q9 5 12 17 18 82-52 148-4 13-12 17l-41 23-4 3h-11l-6 11-3 25-5 8-2 54q-14 21-29-12l-7-16v14q7 82 82 150 29 89 46 169l-23 62-7 7q-11 36-26 60l30 45q-82 72-200 72l-667 39-390-19-253-20q-67 0-121-22l-54-39 16-26q-37-19-63-46-29-30-34-62-47-81-8-134l6-25-1-11 13-33q9-1 18-9l113-101q42-53 30-141 9-9 9-21 0-69-40-116-37-46-106-66h-1q-36-42-4-116 8-17 23-12l14 9 15 27q13 17 34 13 21-5 22-29l-1-9 16-19 18-73v1-2 1l-1-3-8-46-2-11 3 9 7 32 5 44q3 24 15 34l3-8 15 8 17 6 1 8q24-8 31 32 8 45 19 49 14-5 4-28-14-33-14-46l5-21 6-15 1-1q-29-36-3-82l4-4 11-26q5-7 13-9l15 2 15 13h4q14-34 14-77l6 1q2 34 26 93 2-11 12-12 7 8 8 26-6 9-12 5v1q-3 12 3 29 6 18 2 31 12 7 9 25-4 22 0 28l-10 35q-7 18-7 35-34 33-44 82l-6 8 4 3v5l-4 6 3 2q0 19 3 35l-1 2-13-13-6-16 8 11q7 6 8-4l-21-10-1 8 8 13-5 11 16 18-3 11-1-5-5-7q-4-7-4 4-4-3-5-17l-4-8-2 6 6 8q-5 6 3 16 7 10 11 8l-4 18q-5-2 0-10-6 3-8-4l-4-10v7l-2 2 2 2q2-5 4 4l3 13h5l-1 9 24-26 15-2q8 2 13 9 17 27 29 3l5-10-1 18-1 3 21 4q34 2 51 38l1 2q-7-26-33-47l-11-9 10-59 6-35 4 4q5 5 13 7l3 5 10 23 29 28 27 31V999l15 2h6v-2l13-25 10-29-2-12q-9-12-15-35l-9-12-29-32q-17-20-19-38l-1-3 35-40 36-34 1-1q-22-73 21-110 43-37 66 24 16 42 1 80-16 38-51 43l3 22 9 20q4 15 10 16l-4 7-8 3-7-16-6 87 2 6 29 3q17 4 26 0 6 2 5 15-1 14 4 16l8-19q3-15 7-20 25-12 49 16l-1 24 8-11q3-27 18-34-14-75 30-103 44-26 71 26l13-10 3-8 23-18q13-17 22-19 29-8 51 21 21 29 28 80-17 64-48 76 2 10 10 17l13 12 8-8 8-6-3-13-3-14q10 9 20-7l22-35 34-55q19-28 49-17l9-14 10-12 10 29-1 36 14-20 18-14-2-20q0-13-5-12l36-69q29 5 44 14 22 14 31 44l17-4-6 45q-5 27 4 45 9 1 16-10 7-12 13-13l27 41q17 25 23 48l-5-61q-10-11-7-35l2-4-4-47-6-16 15-41 10-6 6-9 3-5q0-5 7-16 4-7-2-10l11-11q7-5 11-3 9-14 17-21 7-6 24-14l-2-42 2-40q5-5 21-10l3-7q3-1 2 7h8l9 3 6 11 8 7q23-25 46-67-7-9-10-26m-346 575q-4-11-15-13l19-32 10 23-14 22m-497-18 11-7 2-36q-13 11-28 11l8 19 7 13m119-20-34 1 13 33q2-26 21-34M426 888l-2 6-1 16 8 7-5-29m-22-99-4 7q-2 4-1 11 7-3 12 10 5 11 10 4l-9-14-8-14v-4m-17-28-2 14q7-3 8 5l-1 16 5-3q1-6 5-4-1-14-15-28m51-18q-6-16-5-22l-5 2q0 22 5 24 0-6 5-4m0-11q5 8 9 0l-8-19-2 3q-4 8 1 16m12-31 1-8-7 13 1 5 9-3 5-7q-3-3-6 2l-3-2m-56 32q-8-4-11 3-3 9 11 13 14 4 8-13l-8-3m94 10-2-7q-5 8 3 19 8 10 11 6-4-1-1-11 1-7-1-3-5 6-6-2-1-8-4-2" fill="#fff"/><path d="M1188 681l-14 2q-3-12 2-18 2-3 10-6l2 22" fill="#fff"/><path d="M1153 749q-8-14 1-28 9-14 20-4l3 27-12 9-12-4" fill="#fff"/><path d="M1192 797q1 27-6 32-5 3-11-8-20-37 17-24" fill="#fff"/><path d="M677 960q2 20-7 11-9-8 7-11" fill="#fff"/><path d="M970 801q-26-10-29-75-2-67 30-79 19-7 34 18l24 57q-6 42-16 60-15 29-43 19" fill="#fff"/><path d="M1104 507q44 8 54 87 11 79-31 103l-42-2q-21-13-36-43l-11 12-15 3-12-28q-7-17-19-11l1-53q1-33 11-49 2-4 14-8 9-4 11-18 2 8 13 12l12 13 50-18" fill="#fff"/><path d="M786 703q3-49-1-61 15-2 32-37 14-28 31-15 1 16-6 37-7 24-7 36 69-26 74 86-16 31-38 35-25 4-39-29-15 18-33 13-16-23-13-65m26-71q-13 7-14 22l12-7 2-15" fill="#fff"/><path d="M770 812q-11 2-6-11 5-13 6 11" fill="#fff"/><path d="M669 645l-7 2-1-10 6-3 2 11" fill="#fff"/><path d="M999 426q-16 8-19-5-3-11 2-16l13-6 4 27" fill="#fff"/></svg>