<?xml version="1.1" encoding="UTF-8"?><svg xmlns="http://www.w3.org/2000/svg" xmlns:xlink="http://www.w3.org/1999/xlink" version="2.0" width="100pt" height="100pt" viewBox="0 0 2000 2000" clip-rule="evenodd" fill-rule="evenodd" preserveAspectRatio="none"><path d="M1251 165q-29-32-66-50l66 26q58 18 96 58-2 16 13 39 16 25 33 22 28-3 20-28-6-19-22-35 24-1 45 58 8 22 0 38l-26 31q-20 20-23 36v17l-3 19q-22 58-56 10l-6-16q-33-29-30-73 4-66 0-81-10-37-41-71" fill="#fff"/><path d="M827 119q4-28-40-68 10 3 29 23l28 32 33 30 30 33q-8 32 2 54 7 18 35 45 14-4 30 0l27 14q12 11 17 30l7 33 18 28q11 17 6 32-5 15-22 23l-32 2-1-14q-6-7-75-56-44-31-33-75 12-50-16-83l-37-40q-23-29-6-43" fill="#fff"/><path d="M705 1998l14-21 171-155 42 43q46 57 67 133H705" fill="#fff"/><path d="M188 646q13-32 4-51l51 75q30 39 68 58l53 15q32 8 48 24 14 14 29 47 15 33 28 46 17 18 34 21l19-20q13-11 33-12l57 23q40 15 11-28 24-35 46-41l37 6 31 3q33-30-47-58-56-20-102-24l-94-11q-35-14-52-65l-21-65q-13-31-40-59l-46-42q-28-25-40-47 56 4 157 71l40 36q29 28 40 29l20-1 15-6 37-11q29-10 50-8 26 2 60 17l58 22 39 7q23-1 24-34 0-18-24-34l-35-27q-11-16-23-59-12-38-30-59-24-28-65-56l-73-44 108-4q42 15 91 60 16 16 51 79 29 53 56 66l58 1q32-14 62 0l55 34q34 21 60 20l-16-79q-10-47 1-80 8-23 31-55l36-52q-4 82 5 128 16 78 70 107 33 18 91 0 56-16 92 9l37 42q21 25 46 21 43-9 43-60 0-34-39-72l-67-50q58-9 118 59 49 56 69 119 7 26 3 70-5 47 0 67 5 22 21 37l36 27q21-24 74 18 47 38 60 69 13 32-6 81-25 65-26 81l-7 32q4 33-52 80-48 40-18 79-13 18-40 8-30-15-44-17l31 39 37 38q21 27 25 46l-1 45q-5 65-37 96 15 31 13 43-7 23-31 40l-48 22q-41 16-63 71-25 62-49 79-30 22-23 46l13 46q0 30-73 66-22 13-52 112H1274l-13-165-2-7-8-68q0-13 14-34 11-112 39-265l50-265q8-41 75 50 69 93 74 193 4 4-52 185-36-4-72 15l-29 20 16 9 40-8-29 29-29 35 55 4q59-2 80-33l68-103 38-81q37-90 30-134l-21-212q-18-164-36-185-20-25-115-51-86-24-129-24l-44-130 4-72q-1-65-26-95-25-30-83-38l-53-2q-54 16-88 72-27 45-26 81 1 36 47 161-105 27-143 55-68 50-134 180l-55 106-186 163-115 222 28 98 40 29 6-93 54 12 8-106 341-265-74 252-49 67q-148 178-242 261l3 2-2 1-13 4q-26 24-45 49l-1 1-3 4-2 4-8 9-4 8q-18 24-33 55l-171-2 78-141q40-76 38-85l-24-66-25-63q-4-9 4-16 8-7 16-4 11 3 2-27-8-29-2-24-7-50-40-113-23-44-17-41 36 16 78 22l84-3-14-22-8-32-9-31q-13-32-46-52-23-14-65-24l-10-8q-10-8-5-21 6-13 19-8 118 43 237 57l-48-143q16-21 9-50-6-22-37-53l-46-48q29-6 37-19l-15-22-9-26q-7-12-25-15l-28 1q-12 2-26-9L250 828q-55-52-68-106-10-37 6-76" fill="#fff"/></svg>