<?xml version="1.1" encoding="UTF-8"?><svg xmlns="http://www.w3.org/2000/svg" xmlns:xlink="http://www.w3.org/1999/xlink" version="2.0" width="100pt" height="100pt" viewBox="0 0 2000 2000" clip-rule="evenodd" fill-rule="evenodd" preserveAspectRatio="none"><path d="M635 959Q526 783 526 575q0-172 76-325Q676 103 807 0H999Q832 75 730 228 626 386 626 575q0 182 97 336 94 149 252 228l-54 84q-179-92-286-264M1732 575q0 144-79 264-78 116-206 172l-6-109q87-49 138-135 53-88 53-192 0-155-110-266-111-110-266-110-156 0-266 110Q879 420 879 575q0 103 53 192 51 85 138 135-19 39-36 94-115-61-184-172-71-114-71-249 0-197 140-337Q1059 99 1256 99q197 0 336 139 140 140 140 337m154 0q0-189-104-347Q1680 75 1512 0l194 1q130 103 204 250 76 153 76 324 0 246-149 442-147 191-377 259l-8-102q191-63 311-226 123-166 123-373" fill="#f1f2f2" fill-opacity=".8"/><path d="M1435 410q21-27 39-24 31 6-29 108-15 25-20 87-5 90-16 124l-31 66 11 92-10 180q-7 191 5 247 23 107-115 448-37 90-76 262H349q-155 0-249-97-87-83-95-222 53-38 124-57l61-12q20-28 34-87 9-36 37-66l27-23-28-106q-5-87 14-149 17-53 75-98 66-52 138-47 64 5 93 16l71 41q42 26 76 104l25 73 31 107-8 33-19 54q-14 26 2 44l113-11 78-71v-78l32-92 56-51 157-458-37-21-32-50-35-38-53-17q-41-29-28-47 9-12 46-8 35 5 52 16l45 29 21-23-2-91 6-66-4-55q0-55 21-55 21 0 27 37l3 37 17 82V437l10-73q1-22 5-43 9-43 27-41 18 3 21 58v55l-3 86 13-17 19-76q4-22 11-43 14-43 27-40 13 3 14 22l-1 18-16 133 17 22q7 4 33-61l17-27" fill="#f1f2f2"/></svg>