<?xml version="1.1" encoding="UTF-8"?><svg xmlns="http://www.w3.org/2000/svg" xmlns:xlink="http://www.w3.org/1999/xlink" version="2.0" width="100pt" height="100pt" viewBox="0 0 2000 2000" clip-rule="evenodd" fill-rule="evenodd" preserveAspectRatio="none"><path d="M1640 545l2 53-111 10-23 36-66 4-11 38h-50l1 41-59 82 23 35-10 44 61 68-14 27-31 15-65-73-62-8-14-12-21 25-127 20-2-41-64 1-2 41-126-16-22-24-14 13-62 10-63 75-31-13-14-27 58-71-11-43 21-36-61-80-1-41-50 2-12-38-66-1-24-35-112-6 1-53 110-1 32-36 57-2 7-36 51-3 3-44 41-60-14-31 12-24-76-72 13-31 28-13 86 72 40-17 18 17 34-30 137-23 2 57 63-1V232l137 18 35 29 17-18 41 16 83-75 29 12 14 31-73 75 12 23-13 31 43 59 5 43 51 2 8 36h57l34 35 110-4M1049 425l-57 1 3 97-54 21-12 45-187-4 5 48 183 3 32 45 42 21-1 99 48-1-4-99 40-22 31-46 183-10 3-47-187 10-13-45-55-19V425" fill="#fff"/><path d="M1691 1219q97 51 150 111 54 64 54 132 0 156-254 267-254 110-613 110-360 0-614-110-254-111-254-267 0-118 152-213-30 44-30 90 0 132 214 225 214 93 518 93 303 0 517-93 214-93 214-225 0-63-54-120M617 1383q-170-74-170-178 0-78 102-143-20 29-20 61 0 88 143 150 144 62 346 62 203 0 347-62 143-62 143-150 0-42-37-81 137 70 137 163 0 104-170 178-170 74-410 74-241 0-411-74" fill="#fff" fill-opacity=".8"/></svg>