<?xml version="1.1" encoding="UTF-8"?><svg xmlns="http://www.w3.org/2000/svg" xmlns:xlink="http://www.w3.org/1999/xlink" version="2.0" width="100pt" height="100pt" viewBox="0 0 2000 2000" clip-rule="evenodd" fill-rule="evenodd" preserveAspectRatio="none"><path d="M792 432l-7-1 4-10-3-4 3-7v-7q9 9 3 29m246 498q51 12 65 52 9 26 9 64 0 38-9 67h-15l-13-56 8-12q18-29 9-43l-23 30-11-45-71-42-18 85q-4-39 1-58 14-54 68-42m511-762q30-52 57-61l-57 61q-26 43-42 95-17 53-13 79 38-3 94-39 60-38 85-44l-16 33-53 37-2 13q-43 25-69 89-25 61-17 111 83 18 212-15 140-42 203-53-128 58-300 209-29 26-120 92-73 65-61 117 101 33 222 44l231 7q-33 9-84 33l-83 37-77 30q-48 23-56 49 25 6 70 36 45 30 62 35-33 2-87 17l-83 19q-4 20 0 33l96 78 98 83 110 66q72 41 101 73l-273-26q-183-6-177 112 6 102 147 170l222 95q-42 16-188 25-129 18-146 84h-68l14-386-63-21-85-39 20-1 5-50h11l10-3 20-111 12-112-19-4-17 3-43-5-129-162-55 12h-48l2-5q14-50 7-101-4-36-23-90l-38-5-39-4q-31-10-52-38-20-26-24-55-3-25-1-68l9-213-7-2-10-2 2-90-30-11q-18-5-29 7l-47-2V411l-1-24-80-4q-4 17-2 48-18-4-31 13-13 17-11 39l8 5 10 4 2 9q0 6 7 6l-5 480-3 5-4 4 1 278-19 18q-10 12-7 24l25 10 2 26 2 27 16 17q9 9 8 19-15 37 15 37 24-1 51-18l-4-4 36 11q20 8 31 21l10 22q5 17 9 19l15 1q9-3 14-10l22 24 17 126-8 234 24 114H580q9-51-4-83l-75 7-75 21-85 17q54-30 90-97 31-55 42-119 8-50-30-56-24-4-92 1l-98-4-97-7q129-60 211-150l75-85q48-62 51-99 3-42-61-99-44-38-108-75-33-19-110-53-72-31-108-54-39-26-55-48 24-5 57 14 18 10 52 31 59 28 126 39 189 27 290-11l-4-18q-4-6-16-12-60-145-160-230L272 732q-78-57-101-103 47-3 129 37 87 41 129 42 106 4 98-130-2-53-30-125L446 334 365 137q81 87 154 137 114 80 194 58 32-40 41-122l4-136q14 24 44 117 32 81 76 81l39-131Q936 68 944 9h75q13 55 37 96l1 6q2 21 16 32 14 11 35 7l7-2q34 8 58-6 28-16 33-56l9-10 5 47q4 39 27 85l44 79q68 19 112 10 48-11 86-59l60-70" fill="#fff"/></svg>