<?xml version="1.1" encoding="UTF-8"?><svg xmlns="http://www.w3.org/2000/svg" xmlns:xlink="http://www.w3.org/1999/xlink" version="2.0" width="100pt" height="100pt" viewBox="0 0 2000 2000" clip-rule="evenodd" fill-rule="evenodd" preserveAspectRatio="none"><path d="M996 501l-2-2-11 59q-15 64-38 92-28 33-76 107-47 73-52 91-3 11 13 43 13 27 1 33-17 9-44 39-29 32-36 53-36 113-52 132-10 12-34 14-24 3-30-5-7-9-26-139l19-90 55-111 47-127q35-142 38-180 1-26 20-119l27-126q27-102 132-102l42 11q45 15 64 34l147 98q136 90 179 143 63 77 117 175 64 114 84 203 14 65-7 160-31-31-50-33 26 26 33 90-15 46-34 84l-32 48-79 98q-63 77-98 91l-68 21q7-26 2-76l-6-74q-3 16-18 45-13 26-15 45l-2 26q-1 15 3 26l12 20 5 20 5-5q98 328 96 353-2 21-25 45-24 26-48 26l-335-52-88-2-134 21 12-14-55-2-63-17 73-17-55-18 137-19 64-26 109-24 229 19-26-90q-71-101-102-158-19-36-21-77l2-34-37 5-71 16q-25 8-35 33-12 28-24 36-19 12-27 5l-4-10-28 3-10-17-21 14-12-19-34 29-34-76-31 21q-13-1-69-78l-30-11-32-9 16-14-43 10-41 17 17-18 15-21 18-14 19-13-22-7 18-23 14-24-18-9-18-7 36-22 2-2h-8l-31-6 22-19 15-28-40-1 50-36q32-26 50-36-8 11-13 72l-2 19 1-1 15 61q13 33 35 46l102 3q44-19 69-103 27-89 63-110l5-4q46 15 66 30 18 13 27 56l6 40 28-71 109-40 130-77 24 4 33 10 34 5-33-13-33-12q96-4 134 0l63 5 27 10 28 7q-17-3-38-24l-54-15-54-13-16-2-19 4-48-44-61-64q-18-22-57-95l-36-68-85-84-27-27M706 1625l40-3 50-28 224-78 44 76 4 43-194-19-86 19-86 31-128 18 44-25 88-34" fill="#f1f2f2"/><path d="M996 501l27 27v5h-22l-5-2V501" fill="#373535"/></svg>