<?xml version="1.1" encoding="UTF-8"?><svg xmlns="http://www.w3.org/2000/svg" xmlns:xlink="http://www.w3.org/1999/xlink" version="2.0" width="100pt" height="100pt" viewBox="0 0 2000 2000" clip-rule="evenodd" fill-rule="evenodd" preserveAspectRatio="none"><path d="M1203 1021l-6 1 1 3 11-5-6 1M226 1305l5 5q13 34 27 55l21 25q11 14 12 29l72-14q21-3 28-14l8-33-13 14-8 5-47-7q-10-4-16-12l-13-14q-11-9-36-21l-40-18m451 67 43-13 43-6q50 6 78-16 28-23 30-35l-2-22-3-21-1-9q11-6 30-13l32-10q-21-21 14-76l-4-6q-6-3-14 0l-2-13q9 0 11-11l-3-18 24-8 15-7 4 2 189-73q-1-3 1-4l4-1v-9l17-2 10 10 19-6 11 32-18 7 6 19q7 2 7 11l1 13-36 13 1 7-71 25-37 14-1 1 7 34-28 15 10 12 7 14-8 17-8 17 3 7 3 8-7 12-5 15 2 17-30 16q-21 9-31 15-46 29-52 42 12 9 15 44 3 33-4 50-22 8-57 35l-55 38q-2 15-24 30-18 12-36 18l-70 18-31 6-32 2q1 31 38 75l15 18 14 20 12 44 12 21 16 18q29 38 49 79l11 27 13 25 29 24 19 20H401q-1-22 10-80 37-18 127-34 88-15 126-34l-53 9-53-1-33 8-34 9q-31 2-58-30-31-38-52-45l-25-30-13-31-14-31-36-50q-28-55-42-110l-10-13q-34 26 20 165l17 33 15 35q9 30 33 84 16 7 28 30l16 36 12 37 13 43-84-1-8-11q-11-3-22-37l-17-45q-13-17-31-22-19-5-39 5l1 46 7 1 6 22q3 11-2 19-59-21-105-65l3-37 8-29-2-34q1-22 26-51l37-46q-8-8-12-32l-6-35-21-65-40-135q14-2 26-26l19-35q10-9 35-13l39-1 6-2q-19-53-42-73l-28-25q-13-22-19-44H112l8-15q-20-47-20-74l24-37 28-37 36-42q22-21 50-27l-7 14q-5 12 1 16h16l18-3 33 9 34 1-11 11q5 12 29 24l34 20q-4 15 12 37 15 20 7 35l-23-8v20l3 20 5 44 9 46-1 22q-2 14 2 21 41-17 60-17 40 49 87 58l13 16 15 15 103-26m786-707 41 26 41 35q30 22 48 20l-8-30-11-30q-3-13 0-33l2-33-15 12v7l-30 15q-14 4-38 0l-72-23 5 5q9 13 37 29m-437 60q-10-31-10-46-7 14-7 37v40l-5 38q-2 23 2 40l2-10 43 8 39 10-14-17-16-13-13-19-11-19-10-49m730 633 65-14 20-26 13-29q43-38 64-40l2-5h-9q-24-14-56-10l-56 13q-23 6-36 28l-24 42-32 37-35 36-10 9q-38 17-54 30l-55 17q59-1 109-47l32-17q24-14 62-24m35-911 18 21 15 25 22 23 17 25-2 5 23-39 5-3q-15-15-47-35-36-23-51-22m47-406q51 60 85 141 55 125 56 184 0 20-41 95l-57 93-21 20-20 18-25 50-13-1q-6 12-16 5-7 55 17 163l41 187 18 113q11 60 25 87 8 14 30 30l44 29 34 31v368l-36-36q-23-22-38-26-3 21 8 60l-1 33-2 31 11 145-34 42q-94 94-247 97l-140-531-60-131-79-224-156-194q-38-43-172-67l-13-3-23-3-36-33q-106-22-173-77-22-115-11-345L783 196q-7-98 28-151l72 12q8 12-3 40-11 27-4 39 9-5 17-38 7-29 23-30 14 20-3 77-18 57-6 77l27-36q14-24 35-23-5 42-28 90-23 49-51 74 1 57 31 153 25 82 16 158l27-1 30-6q72 22 182 21l197-11q-20-5-12-12 8-6-13-10-2-9 8-7 10 1 10 7 3-18-15-34-22-19-26-35-7-12-3-24l7-19-8-40q-10-29-9-44 3-36 30-65 23-24 56-35 87-29 138 58 43 74 46 196 17-31 65-61l80-47q21-14 45-53 23-37 41-48-14-175-58-278-27-10-48-37L1672 0q97 3 166 41" fill="#fff"/></svg>