<?xml version="1.1" encoding="UTF-8"?><svg xmlns="http://www.w3.org/2000/svg" xmlns:xlink="http://www.w3.org/1999/xlink" version="2.0" width="100pt" height="100pt" viewBox="0 0 2000 2000" clip-rule="evenodd" fill-rule="evenodd" preserveAspectRatio="none"><path d="M683 1603l-24 13-25 7q-5 0-15-7-10-7-17-8l7 10 30 7q17 14 25 16l67-6 43-7 45 5 43 11q22 2 37-12l60-55 25-31q15-21 24-28l-10 4-1 3-38 17q-21 8-42 20l-23 17-25 14-55-4-53-9q-32 4-78 23m542-992h-1l43 30 39 38 32 34q14 15 21 42l17 50 11 42 5-20 12-15 10-19q4-14-7-44l-12-22-11-25-23-13-16-12-16-13q-34-23-104-53M1058 404l-3 1-4-5-2 4q9 7 16 6l-7-6m-53 76-46-24-3 4-3 3-89-50q-29-13-48-26h-1q-2 10-12 21l-18 16-39-14-3 20q-1 13-9 20l-25 7q-17 1-24 7l-4 10-6 10-19 3-19 10-8 8-8 8-43-17-43-18q-73-20-90-15 1 20-31 55-31 32-54 41-29-15-87-27l-88-22-53 2q-27-7-50-20-32-17-78-54V344Q4 180 81 91l31-29-3 38 120 82 51 32q31 21 45 40 41 56 86 64l62-1 20-22q11-16 20-21l9-9q16 5 39 19l39 23q2-39 91-53l2-10-12-14 10-13q10 9 21 0l12-12 4-7 30 17 20 10 1 3 2 3 243 127 5-1 5 1 9-7 17 16q6 11-1 19l24 13-24 40-24-11-13 23q4 9-4 16l-13 13m820 223 6 26 5 23q1 15-13 54l-13 54-6 11 1 1q-10 7-18 20l2 1 2 39-73 80-43 11-235 214-43 18-155-50q-9-7-31-16l-32-14-32-9-29-18-14-29-16-28q-17-30-47-47l21 35 15 38 32 72 5 39q2 13 8 14l20 3q7 2 20 14l22 18-116 230 74 77 1 67 203 278 9 69H618l44-10-62-169-16-212-25-51 15-20-29-44 44-80 16-59 2-91 63-54-13-101 40-47 66-208 93-137 64-47 66-36 99-36 38-47 60 23q30-56 65-89 21-21 70-38l44-13 43 12 36-5 103 36 16 54 37 29 23 110-36 42-38-18-46 88-46 13-40 70-29-5-4-1-3 28 59 30h113l89-101 26-4q-2-21 17-53 18-30 11-54l16-1q8 3 9 13 18-36 64-67h8l8-9q4-7 10-6 8 1 11 17 3 16-2 21 7 3 8 13v19" fill="#fff"/></svg>