<?xml version="1.1" encoding="UTF-8"?><svg xmlns="http://www.w3.org/2000/svg" xmlns:xlink="http://www.w3.org/1999/xlink" version="2.0" width="100pt" height="100pt" viewBox="0 0 2000 2000" clip-rule="evenodd" fill-rule="evenodd" preserveAspectRatio="none"><path d="M1838 1268l-247-143-247 143v286l247 143 247-143V1268m57 318-304 176-304-176V1236l304-176 304 176v350" fill="#fff" fill-opacity=".8"/><path d="M898 127l754 436v871L898 1869 144 1434V563L898 127m614 517L898 289 284 644v709l614 354 614-354V644" fill="#fff"/><path d="M828 936l-9 45-157-4 4 48 154 4 27 45 34 21v100l40-1-3-100 33-22 26-46 153-9 3-48-157 10-11-45-46-20-1-97-47 1 3 97-46 21M598 836l34-61-12-31 10-23-64-73 11-32 23-12 72 72 34-17 15 18 28-31 115-22 2 57 53-1V623l115 18 29 30 14-18 35 16 69-75 25 11 11 32-61 75 11 23-11 31 36 60 4 43 42 3 8 35h48l28 36 92-3 2 53-93 10-19 36-56 3-8 39-42-1v41l-48 83 18 35-8 44 51 69-11 27-25 15-55-73-53-9-11-12-18 25-106 19-2-41-54 1-1 41-106-16-19-24-11 13-52 10-52 75-27-13-12-28 49-70-10-44 18-36-51-81-1-41-42 2-10-38-56-2-20-35-93-6V957h92l27-36 48-2 6-36 42-3 3-44" fill="#fff"/></svg>