<?xml version="1.1" encoding="UTF-8"?><svg xmlns="http://www.w3.org/2000/svg" xmlns:xlink="http://www.w3.org/1999/xlink" version="2.0" width="100pt" height="100pt" viewBox="0 0 2000 2000" clip-rule="evenodd" fill-rule="evenodd" preserveAspectRatio="none"><path d="M345 594q2-216 19-246 14-22 312-120 301-98 338-92 52 8 323 96 281 93 296 112 23 30 24 253l-4 269q-13 368-318 708-104 116-218 203-95 73-116 71-21 0-114-67-114-85-212-193-298-330-327-722-6-111-3-272M695 277Q417 368 403 391q-10 17-16 196l-3 216q-6 380 294 729 98 114 212 206 93 73 109 73 15 2 104-71 105-85 200-192 286-316 307-608 11-150 0-423l-2-73q-3-41-14-57-11-15-296-107l-284-89q-41-6-319 86" fill="#fff"/><path d="M900 1194q16 68 51 102l-70-28q-11-12-20-39-19-54-9-125 10-71 39-122 14-25 26-36l45-58q-94 169-62 306" fill="#fff"/><path d="M1027 664l-20-83q-6-11-13 0l-20 83Q937 772 854 896q-140 209-61 372 31 64 90 103 55 37 111 37h13q56 0 111-37 59-39 90-103 79-163-61-372-83-124-120-232M492 778q-13-223-7-248 4-18 23-31 32-28 232-97 236-81 271-76l240 76q241 76 250 93 11 18 9 158l-3 128q-7 258-20 274-7 33-58 136-53 107-96 160l-1 4q-55 93-182 214-121 115-147 115-322-216-428-485l-44-93q-27-113-39-328" fill="#fff"/></svg>