<?xml version="1.1" encoding="UTF-8"?><svg xmlns="http://www.w3.org/2000/svg" xmlns:xlink="http://www.w3.org/1999/xlink" version="2.0" width="100pt" height="100pt" viewBox="0 0 2000 2000" clip-rule="evenodd" fill-rule="evenodd" preserveAspectRatio="none"><path d="M1418 923l-4-50H1204l-18 147H835L817 879H597l4 149q26 164 132 241l2 1q119 72 265 72 86 0 172-23l87-31q128-66 154-247 8-57 5-118M454 518q47 74 114 112l63 29 62 26q44 21 112 40 113 30 224 30 145 0 291-56 47-30 126-69 132-75 181-271l44-191 22-105 26 61q23 70 14 120l-35 167q-16 53-54 100l65-48q62-46 111-259l17 62q13 79-13 166l-57 175q-16 58 38-1l23-24 31-38 27-54q14-34 11-48 26 92-4 155-37 81-88 129-42 54-71 74-24 18 17 3l61-34 89-88q-31 78-57 114l-51 64-24 26q-97 104-112 109l65-21q76-29 125-68 13-10 3 15-10 28-40 64-89 111-259 193l79-15q83-20 108-44-40 100-183 125l140-12q-29 18-66 33-73 30-138 27l121 10-100 57q-115 59-191 66l-45 8q-68 85-74 137-4 39 2 62l13 53q5 41-21 45-27 4-31-43-2-38 2-59l8-54q6-62-32-91-21-16-43-12-21 3-27 20-6 18-14 69-8 57-8 101l4 58 16 64q10 50-16 101-26 50-41 25-12-22-13-73 0-49 10-83 8-28 5-85l-9-85 2-45q2-26-7-52-9-30-46-29-31 1-56 17l-22 13-9 50q-6 43 1 91l18 88q9 46-11 82-19 35-33 12-12-20-15-48-3-25 3-46 6-20 4-102-2-84-11-139l-9-33q-109-16-203-52-64-14-144-53l-67-35 122-10q-66 3-139-27l-65-32 73 7 67 4q-91-16-161-85-23-23-31-39-8-16 8-1 25 24 109 44l78 15q-170-82-259-193-30-36-40-64-9-25 3-15 49 39 125 68l65 21-62-56-50-53q-39-40-75-90-16-22-38-70l-19-44 89 88q22 20 62 34 40 15 16-3-18-12-46-44l-25-30q-51-48-88-129-30-63-4-155-3 14 11 48 13 34 27 54l54 62q55 59 39 1L190 432q-26-87-13-166l17-60q-3 16 31 113 40 115 80 144l66 48q-38-48-54-100L281 244q-9-50 14-120l26-61 22 105 44 191q23 91 67 159" fill="#fff"/></svg>