<?xml version="1.1" encoding="UTF-8"?><svg xmlns="http://www.w3.org/2000/svg" xmlns:xlink="http://www.w3.org/1999/xlink" version="2.0" width="100pt" height="100pt" viewBox="0 0 2000 2000" clip-rule="evenodd" fill-rule="evenodd" preserveAspectRatio="none"><path d="M796 1289l11 11q14 7 26-11l-5-571 6-29q14-31 53-36 39-4 45 27 4 16-1 32l7 335 3 20q8 15 37-12l-2-398q0-19 8-38 15-38 54-40 39-2 50 28 6 16 4 31l-2 415 2 16q8 10 39-14l1-399 6-28q13-28 50-31 38-4 49 20 6 12 4 24l-8 396 9 19q13 15 29-3l3-337q0-12 6-25 12-27 41-35 29-7 43 29l7 37 7 688q-6 37-27 81-42 88-115 124-41 28-96 51-108 46-171 18-58-17-123-62-128-90-159-230l-21-206q2-28-28-108l58-16q65 4 96 106l4 121" fill="#fff"/><path d="M109 391l22-68q-4 19 38 130 48 131 97 165l80 54q-47-55-66-115-12-38-43-191-12-57 17-138l31-69 28 121 54 219q28 104 81 181 58 85 140 129 79 41 140 85l1 97-106-3q-101 17-74 121 18 71 41 255 29 170 88 257-85 21-197-9l-96-34 149-11q-80 3-170-31l-81-38 91 10 81 4q-110-18-196-98-29-26-39-44-10-18 10-1 31 27 134 50l96 17q-208-94-317-221-36-42-49-73-12-29 3-18 61 46 153 78l80 24-75-65-62-60q-48-45-92-103-19-25-46-80L32 868 140 968q27 23 75 39 50 17 20-3-22-14-56-51l-30-34-37-39Q69 829 41 771 17 723 23 660q3-38 14-69-5 16 13 59 16 38 33 61l66 71q67 68 47 0-45-120-71-200-31-101-16-191" fill="#fff"/><path d="M1456 860q56-62 107-175 39-89 66-186l55-219 27-121 31 69q29 81 17 138-30 153-43 191-20 60-67 115l81-54q76-53 135-297l22 70q15 90-17 191l-70 200q-20 67 47 0l28-28 38-43 33-61q18-42 13-58 33 103-4 179-28 58-71 109l-37 39q-51 62-87 85-29 20 21 3 48-16 75-39l108-100q-38 90-69 130l-62 73-30 30q-119 119-137 125l80-24q92-32 153-78 15-11 3 18-13 31-49 73-109 127-317 221l96-17q102-23 133-50-49 114-224 143l171-14-80 38q-89 34-170 31l149 11-71 27q-86 27-159 25 46-68 58-125 18-79 15-263-3-232 2-382" fill="#fff"/></svg>