<?xml version="1.1" encoding="UTF-8"?><svg xmlns="http://www.w3.org/2000/svg" xmlns:xlink="http://www.w3.org/1999/xlink" version="2.0" width="100pt" height="100pt" viewBox="0 0 2000 2000" clip-rule="evenodd" fill-rule="evenodd" preserveAspectRatio="none"><path d="M1800 247q26-30 17 258-10 299-62 449-90 263-192 409-184 263-514 409-109 48-135 37-8-4-7-13l3-8q81-78 160-228 158-300 149-658-4-155-132-460l-69-171q-21-65 8-59l34 24q62 31 204 67 265 69 416 38 50-11 80-42l40-52m-40 447q21-131 23-224 2-90-16-74-51 47-191 39-106-6-248-42l38 14q98 38 273 124 41 20 43 84 3 74-38 283-29 147-121 309-132 231-157 290-8 18 71-76 85-101 148-196 118-177 175-531" fill="#fff"/><path d="M854 1330l-33 123-607-1V1328l640 2" fill="#fff"/><path d="M895 1043H251V920H927l-32 123" fill="#fff"/><path d="M817 511l42 122-718 1V511H817" fill="#fff"/></svg>