<?xml version="1.1" encoding="UTF-8"?><svg xmlns="http://www.w3.org/2000/svg" xmlns:xlink="http://www.w3.org/1999/xlink" version="2.0" width="100pt" height="100pt" viewBox="0 0 2000 2000" clip-rule="evenodd" fill-rule="evenodd" preserveAspectRatio="none"><path d="M1220 180q-43-33 16-38l-13 31 6 1-9 6" fill="#fff"/><path d="M805 478l-49 54q-36 29-70 19-3-32 41-48l78-25" fill="#fff"/><path d="M593 723q5 9-31 13-36 4 31-13" fill="#fff"/><path d="M717 597q119 82 14 124-38 15-84 16-46 0-54-14-19 5-28-32-8-36 3-73 30-102 149-21" fill="#fff"/><path d="M437 686q12 16-5 26l-29 4q1-18 8-22l26-8" fill="#fff"/><path d="M198 864q-55-46-39-62l57-1q44 12 50 30 7 22-62 32l-6 1" fill="#fff"/><path d="M1789 193q-32-24-9-52 22-29 53-13 21 29 3 49-16 18-47 16" fill="#fff"/><path d="M334 877l-7-4q0-44-4-57l-33-53q72-30 88 59 6 33-5 52-13 20-39 3" fill="#fff"/><path d="M919 564q34 45-33 40l-6-1q-7-13 0-8-1-35 39-31" fill="#fff"/><path d="M560 761l-35 22q-13-22-4-46 25-6 37 15 0-17 4 7l-2 2" fill="#fff"/><path d="M1995 295q-52 18-69-44-17-62 32-91 29 56 37 135" fill="#fff"/><path d="M1922 380q-32 10-47-7-13-14-7-37 6-24 24-31 21-8 44 14 6 17 0 34l-14 27" fill="#fff"/><path d="M377 993q14 51-33 73-46 23-68-15-23-41 20-66 42-25 81 8" fill="#fff"/><path d="M626 858q26-14 31 6 5 20-26 23l-5-16V858" fill="#fff"/><path d="M98 1148l-23 3q-12-2-15-18 8-21 28-13 20 8 10 28" fill="#fff"/><path d="M869 858l47 1q8 20-20 35l-3 1q-24-10-24-37" fill="#fff"/><path d="M1295 734q-6-28 38-47 27-11 61-16l11 27 11 26q-35 10-34-25-12 3-16 52-3 33-65-2-19-30-6-15" fill="#fff"/><path d="M1007 832q5-9 10-8l17-3q12 17-5 25-17 7-22-14" fill="#fff"/><path d="M773 951q21 43-30 54l-21-49-3 3 1-7 5-3 27-3q18 0 21 5" fill="#fff"/><path d="M954 893q-25-3-16-24 9-21 32-14 9 26-16 38" fill="#fff"/><path d="M1136 832q30 15 28 38-3 28-59 47-2-14-14-14-14-1-17-5-14-50 10-66 21-14 52 0" fill="#fff"/><path d="M870 975q3 24-27 27-31-40 25-34l2 7" fill="#fff"/><path d="M786 1069q25-27 59-5v17l-20 17-25-2q-14-6-20-21 6-11 6-6" fill="#fff"/><path d="M1096 1233l13 17q5 8-15 16l-12-17q-6-8 14-16" fill="#fff"/><path d="M790 1439q1 15-17 22-19 6-25-12 29-15 42-10" fill="#fff"/><path d="M349 1694q31 40 6 67-21 22-64 23-43 1-56-20-16-26 29-67 17-14 38-19 30-7 47 16" fill="#fff"/><path d="M420 1695q47-27 35 15-32 32-35-15" fill="#fff"/><path d="M1133 1412q15-35 47-12 31 22-4 43l-39-26q0 15-5-3l1-2" fill="#fff"/><path d="M627 1742l40-28q25-12 40-5-7 16-35 22l-45 11" fill="#fff"/><path d="M735 1345q15 30-18 39l-4 1q24 54 8 116-14 57-55 95-42 39-90 38-54-2-96-58-124 48-186 76-110 51-155 121 67 39 125 41 49 3 133-22 23-7 49-29l40-36q48-37 106 6-34 51-106 74-58 19-130 17-38 13-96 63l-94 69q-43-23-75-55-92-90-92-247V1336l42 32q12-34 8-56l-6-15 116-2q-26-53-30-84-9-59 74-57 64 1 64 61 1 59-53 81 61 40 95-38l33-125 140-29q103-24 78 19-62 106 28 112l179-21q-18 29-66 53-57 29-73 44 43 46 107 34" fill="#fff"/><path d="M717 1384q10 3 15 29 4 24-19-28l4-1" fill="#fff"/><path d="M1682 386q1-16 15 5 15 21-15-5" fill="#fff"/><path d="M1617 362q73-130 65 24l103 96q43 62-35 116-46 33-112 25-68-7-102 12-66 38-109-5-36-37-34-101 1-65 38-77 44-14 112 70l74-160" fill="#fff"/><path d="M951 1058q58 9 96 50 41 44 31 100-10 64-88 125-64 49-114 14-25-17-76-92 62-36 38-49l-54-7q4-37 7-34 10-40 34-67l20-17q45-33 106-23" fill="#fff"/><path d="M881 461q-51-52 36-118 84-64 149-44 23 58-56 140l-56 46q-27 17-27 5l-52-25q-9-7 6-4" fill="#fff"/><path d="M9 1029l-10-8V964q39-44 115-46 81-3 86 63-43 43-99 32-59-11-92 16" fill="#fff"/><path d="M1245 482q-5 3-7-3-2-7 3-2l4 5" fill="#fff"/><path d="M1190 371q20-32 59-45 40-14 74 1 58 28 41 88-12 43-56 88l-60-2q-38-3-3-19l-4-5-53-36q-28-24 2-70" fill="#fff"/><path d="M1187 1230q8-37 46-62 129-82 160 53 12 54 4 208-49 53-129 44-80-10-39-65-12-15-35-98-13-49-7-80m62 134-7 29 22-19q-10-20-15-10" fill="#fff"/><path d="M1578 1004q41-10 83 31 42 41 37 83-5 50-77 61l-55 58q-42 32-63-6-24-42 7-45 43-3 47-12-14-33-37-56-2 5-4-5l2-15q12-83 60-94" fill="#fff"/><path d="M976 1620q28-14 6 57-21 71-76 90l-102-3q-46-43-78-48 5-99 139-135l86-4q36 11 25 43" fill="#fff"/></svg>