<?xml version="1.1" encoding="UTF-8"?><svg xmlns="http://www.w3.org/2000/svg" xmlns:xlink="http://www.w3.org/1999/xlink" version="2.0" width="100pt" height="100pt" viewBox="0 0 2000 2000" clip-rule="evenodd" fill-rule="evenodd" preserveAspectRatio="none"><path d="M1095 1710l-23 31-8 12q-47-24-78-22-19 1-35 14l-11 13-20-40q-6-17-25-34-37-33-97-32-55 1-138 34l-112 41-145 18 251-11q252-9 257 7 10 29 41 35l64 3q41 2 63-19l19-26q4-4 70-1l65 3 332 5-206-42-175-36q-33-1-55 14-12 8-34 33M81 1776l-6-16q-3-17 6-21 16-5 41 0l102-147 59-3 99-8 135-20 113-24 106-55q75-43 115-43 86 0 124 73 20 37 22 73 5-37 19-75 28-76 75-78 91-5 208 45l139 60 235 20 108-4 126 191 31 5 4 26-836-20-22 31-166 7-21-55-816 38" fill="#fff"/><path d="M1037 841l-53-73q-10 0-42 48-37 55-36 100 17 11 46 18l94-8q23-41-9-85m36-160q-54 21-51 38 7 42 47 81 33 31 55 35 36 7 74-11 0-1 55-35l2-52-2-53-89-21q-37-4-91 18m-385-5q-3 26 10 70 12 43 9 65 13 5 30 0l29-6 28 10 26 9q44 4 70-29l40-62q-3-66-99-81-89-13-143 24M616 348q100-80 134-96 91-44 245-44 147 22 206 49 131 60 157 201l14 102q7 76-1 108l-44 96q-29 59-20 119l9 31q5 25-9 45-15 22-59 24l-73 8q-9 3-18 17l-20 23-20 9q-13 4-20 10-3 8-4 27l-4 27q-15 0-21-17-6-17-17-18-16-1-18 16v35l-25 3q-6 0-5-15 2-15-8-12-13 2-17 15-4 11-15 9-11-2-15-11l-12-21q-11-2-21 8-10 10-25 5-7-8-4-40 3-30-9-35-8 5-10 30-2 21-17 24-16 2-23-15l-15-31q-7-1-6 11 1 11-8 8l-29-56q-27-46-54-36-31 12-57 0-24-12-18-24 24-56-43-196-47-96-41-200 5-101 60-193" fill="#fff"/><path d="M1163 1070q12-33 34-41l-7 62q-8 42-7 64l6 37q3 19-9 33-18 24-81 63-72 45-112 45-59-2-147-50-95-53-106-104 16-28 10-76l-13-80q27 8 34 68 8 63 28 75 7-7 4-23-5-22-4-31h11l8 3-1 21-2 27 12 3h15v-35l14-3q9 2 14 19 5 18 15 19l8-9 6-10q17-3 25 19 7 22 26 19 7-4 6-13l2-17q17-1 27 12l16 23q14 1 20-15 7-20 12-23 11-2 19 6 9 8 16 8l9-14q3-10 15-10 5 26 14 40l12-8 9-11-5-21q-3-12 0-19l15-2q8-1 12 4l20-55" fill="#fff"/><path d="M130 1199q-18-51-47-218L57 825l39 86q49 104 101 192 168 280 307 293L320 1012l329 329-44-119q-42-120-36-120l28 39q35 49 72 87 128 128 295 137 169 9 290-119 61-64 88-130l-4 200 384-405-204 405 48-27 66-45q59-56 166-252l94-185-38 333q-30 100-82 195-104 189-212 161l-231-71-157-50q-47-11-118 18l-62 31-146-32q-45-8-153 39l-165 72q-59 19-174 31l-103 7-121-342" fill="#fff" fill-opacity=".8"/></svg>