<?xml version="1.1" encoding="UTF-8"?><svg xmlns="http://www.w3.org/2000/svg" xmlns:xlink="http://www.w3.org/1999/xlink" version="2.0" width="100pt" height="100pt" viewBox="0 0 2000 2000" clip-rule="evenodd" fill-rule="evenodd" preserveAspectRatio="none"><path d="M884 526q-13 12-29 40-31 55-42 132-11 78 10 136 10 29 22 42l76 31q-38-37-55-111-35-149 67-333l-49 63m87-282 22-90q8-12 15 0l21 90q40 117 131 253 152 227 67 405-34 70-98 113-60 40-121 40H993q-61 0-121-40-64-42-98-113-85-178 67-405 91-136 130-253" fill="#fff"/><path d="M1661 1644q40-2 67 14 26 15 26 38 0 14 34 32 27 16 12 26-14 10-88 13-78 2-104 16-52 28-231 65-213 45-347 37-100-6-345 0-221 5-283-3-35-4-217 79-55-26-92-63-86-86-91-231l185-63q90-29 198-47l51-49q60-54 106-74 25-11 87-29 45-14 87-40l130-80 117-83q41-39 93-61 51-22 73-9 22 14 28 56 6 43-14 69l-101 81-111 76q-26 20-35 68-9 44 3 66 14 25 26 32 20 13 61 11 61-2 102-29 172-155 198-202 20-36 47-4 27 31 5 64-110 166-145 192-21 14 42 13l100-13q29-9 95-57l80-56q28-14 60-19 41-6 62 10 45 33-53 81-46 23-85 59-40 36-13 34l83-10 97-10" fill="#fff"/></svg>