<?xml version="1.1" encoding="UTF-8"?><svg xmlns="http://www.w3.org/2000/svg" xmlns:xlink="http://www.w3.org/1999/xlink" version="2.0" width="100pt" height="100pt" viewBox="0 0 2000 2000" clip-rule="evenodd" fill-rule="evenodd" preserveAspectRatio="none"><path d="M904 2000H838l78-35-12 35m-297-60-7 7 3 3 4-10M256 1676q49-10 58-46l159-26q88-14 134-44-5 30-65 105-46 75-5 132-13 31-14 70-30 22-44 42-20 28-24 63 17 17 27 17l11-5 27-20 15 2 34-28 31-30 31-23q19-39 51-62l6-3 7-9 19-1q10 8 3 18l-20 31-56 141H566l4-5-6 5H345q-155 0-249-97-30-29-54-70V1728l23-20q11-14 26-15 17-2 24 18 7 22 18 24 12-3 17-21l11-28q31-3 28 21 12-19 67-31M66 639 720 859 631 621 853 970 409 849l195 241-502-33 548 286-426 95 248-107L0 1123V951l513 93L66 639M1523 267q7 44 45 47 12-28 3-65-8-38-31-47-23 25-17 65m152 369 7-1 4-1h-1q10-6 10-20-1-13-15-17-21-5-38-32l-23-47q-32-60-74-73l-16 2-8 14-2-1 2 2q-2 17 14 21l10 5 56 99q35 54 74 49m79-324 2 2-1-5q5-9-1-18l-5-33-70-39q-37-17-77-10v23q-9 10-5 22 4 14 18 13 53-4 108 49l17 5 14-9m-54-173-44-36q-26-24-47-32-7-7-17-5l-17-3 5 8q-8 7-4 19 15 41 62 66 31 17 89 32l7 1q37 36 54 95 17 57 9 120 45 53 44 176l-15 194-9 77q-4 3-5 19 0 14-8 15l6 3-14 37-26 44-34 45-77 110q-17 22-28 53-66 33-82 131-10 59-2 190 51 44 153 67l153 37q11 3 15-6l6-15q18 17 35 25l35 17q7-11 56-8v39q0 156-92 249l-69 52-67-81-65-84h-4l14 26q23 46 0 88l-3 32q-10 4-26 14l-9 20-19 30H1458l-5-61 2-28 3-28-5-27-12-25-21-47-15-25q-10-16-10-26 11 2 26 11l25 14 65 14 65 7 29 11 30 5q-38-7-83-29l-88-40q-13-8-29-28l-22-35-5-21-4-21-8-17-8-17-4-1q-21-42-24-65l-5-69q-8-92-9-138 14-41 16-64 1-42 7-59l-44 82q-8 20-11 59l-7 61-29 97q-19 58-24 96l-12 47q-8 30-9 49l1 58 3 57q19-87 32-127 5-16 25-59 16-36 20-62 14 36 23 100l7 50q5 30 16 46 18 28 38 88 18 40 27 99-19 20-7 68H959l10-39q6-31 1-75l-12-74-7-72-13-70-4 30-4 31-3 7q-8 20-8 72 0 53-9 75-26 62-87 77l-1 9q-25 5-52 29H732l10-15 18-33q5-16 12-29l14-42h-5q35-73 67-210l-3-39q-9 3-9 19-6-11 8-28l-1-9q-7-55-6-109h-1l1-1 1-42 5-55q-31 9-63 67l-48 93q19-118 76-245 36-78 119-221 51 33 56 115 4 84-49 122 11 18 29 92 15 62 41 82-29 150 20 297-4-12-1-33l4-35 3-70 7-141 8-123 3-45q4-29 19-39l14-23 12-25-2-34-3-34q5-53 9-63l11-26 8-28-44 30q-19 15-20 16l-25-2-21-20-16-24-18-26q-7-12-8-30 0-26-4-34l-19-25 11-10q8-5 3-17 10-1 23 8l26 5q6-32 19-50l36-40-3 14-4 14q6-25 27-43 10-9 43-27 18 15 63-5 50-22 69-16-17-22-8-46l22-44 80-42q60-36 87-49-19-12-56-5l-55 12-28-83q11-10 27-16l84-8q20 2 20-18 0-20-20-22l-82 6q6-38 47-54l77-7q-62-46-157-7-86 37-114 98l-18 4q-13 4-17 17 21 31 47 46l64 23q3 14-11 20-16 6-17 15-14-5-14-21l-10 11-17-4 9 8q6 5 5 13-89-18-135-94-46-75-33-178-2-7-8-3-7 5-13-4 40-162 195-167l57 63q34 35 69 49l-81 45q-46 25-45 66 34-8 84-38 50-29 91-38l4-26q0-8-18-9 6-23 69-64 51-34 35-82-46 9-76 43-29 33-28 75-60-28-11-80 41-42 94-59l12-48q13-26 44-29-19-2-144 36-96 29-142-22l-48 1-70 6 32-23q17-15 24-33 83 8 122 2 53-8 74-44h250q81 66 109 143l-12-4" fill="#fff"/></svg>