<?xml version="1.1" encoding="UTF-8"?><svg xmlns="http://www.w3.org/2000/svg" xmlns:xlink="http://www.w3.org/1999/xlink" version="2.0" width="100pt" height="100pt" viewBox="0 0 2000 2000" clip-rule="evenodd" fill-rule="evenodd" preserveAspectRatio="none"><path d="M1039 1106l-17-5-10-14-26 11q13 29 34 42l49 2-3-5q4-20 20-23l2-3-49-5m71-143q29 1 71-15l69-24 1-4q16-2 26-13-31-33-81-37l-96-2q55-34 82-40l53 5 50 14q-20-23-71-36l-83-4q-27 7-63 29l-57 35h29q14 2 20 16-41 24 9 67 43 38 80 43l-39-34M841 868l31 26-26 2-27-6-10-45 32 23m633-667-52 20 85 4 17 39-23 36h19l13 66-42 23 34 94-74 25 40 222 62 10v65l-62 4 49 350q50 368 56 460l32 381H1519q-49-528-68-640-20-127-44-358l-21-206-122 9V757h-19l-13 51 116 28 11 187-36 131-133 98-7-4-34-4q-45-23-109-39l-115-25-30-40-58-168-14-62q20 18 35 19l32 1q20 0 28 7l14 22 9 24 5 11 4 30 2 9q7-10-6-39l-3-42-10-30-9-12-12-10-7-12-10-9-26-17q-35-28-64-34l-1-6-14-40q84-60 182-102 105-45 200-57 29 38 99 38l51 94 24 5-34-199-12 54-11 5-31 5q-19 0-40-26l-31-38q-12-9-18-7l-21 11-68 19q-61 19-184 80-45 21-90 51l-38 28q-25 21-28 36-14 8-32 35-19 28-32 36l-1 6-6 1-19 22-6 1-19 21-25 18-30 28-11 5-10 5q-7 13 4 22l23 13 37 30 72 63 68 68q40 35 83 46 146 30 218 56 39 14 93 47 26 16 44 8 9-4 34-31l69-47 59-39 23 49q73 594 73 643l-16 115H769q0-103-12-165-17-89-17-234l12 36q6 28 13 39 10 15 33 24 51 73 45 163l26-53q17-36 17-57-26-22-42-71-18-58-32-77-23-32-72-67l1-3-45-25-167-94q-44-15-63-30l-32-35-30-37q-52-56-65-78l-51-81-28-40-29-43q-27-51-43-93l-21-51q-11-34-6-56 6-30 57-76l33-35q23-23 39-27 10-20 49-44l58-35 83-60q24-20 200-103L989 346l167-95 89-20L1196 0h155l39 171 29-13 55 43m236 1202q55 101 55 111l49 203 48 191-113 83-57 8-74-758 92 162" fill="#fff"/></svg>