<?xml version="1.1" encoding="UTF-8"?><svg xmlns="http://www.w3.org/2000/svg" xmlns:xlink="http://www.w3.org/1999/xlink" version="2.0" width="100pt" height="100pt" viewBox="0 0 2000 2000" clip-rule="evenodd" fill-rule="evenodd" preserveAspectRatio="none"><path d="M1726 115l74 20-81 36q-104 52-219 133-368 257-702 703L459 1460l52 51q48 57 27 84-16 21-90-14l-71-39-186 275-107-92 186-269-58-57q-55-61-42-79l94-2 64 40Q614 977 801 755q253-299 538-492 125-85 264-148 41-17 123 0" fill="#fff"/><path d="M1788 131q74 46 68 125-3 40-21 70l-2-65q-3-23-29-31l-56 5-44 1q-14 0-15 42-1 98 93 147 47 24 94 29l-18 15q-23 15-48 20-79 14-142-87-26-42-45-25l-31 49q-15 25-6 54 13 37 69 42 56 4 91 44 30 34 24 65-16 79 3 102l53 56-54-5q-56-12-60-53-6-52-13-60-10-13-73-35l-83-3q-17 14-20 65-4 88 81 119l57 25q26 17 23 51-5 65 62 124 34 30 68 46l-80-3q-84-15-103-71-17-51-76-44l-96-4q-32-20-49-63-20-51-31-64-27-30-63-4-38 28-32 92 5 56 69 121l63 53q39 30 51 115 16 102-7 42-12-32-61-46l-107-22q-52-12-82-50l-45-74q-24-40-80-69-56-30-63-5-5 20 17 51l37 57q31 68-13 106-22 19-50 24 7-33-4-70-21-75-109-99-32-9-92 10l-54 20-111 21 579-656 466-299 37-9q41-6 63 8" fill="#fff" fill-opacity=".8"/></svg>