<?xml version="1.1" encoding="UTF-8"?><svg xmlns="http://www.w3.org/2000/svg" xmlns:xlink="http://www.w3.org/1999/xlink" version="2.0" width="100pt" height="100pt" viewBox="0 0 2000 2000" clip-rule="evenodd" fill-rule="evenodd" preserveAspectRatio="none"><path d="M1591 1490q76-74 76-101 0-107-19-126-11-11-43 35l-70 91q-28 29-86 102-56 65-110 88-88 37-246 88 132 82 170 88 17 3 30-19 18-30 59-44 48-16 131-94l108-108M251 765q38 0 112 46 81 51 112 105 19 34 46 128l29 112q6 28 1 77-7 54-24 63-36 18-41 23-16 15 25 27l115 9 82-10 55 1 78 5 120-6q86-9 119-25l58-31 62-32 114-35q84-22 113-35 42-18 129-81l-24-24-4-6-93 92-50-51 97-95q-140-166-326-365Q982 469 747 283L547 134l67 5q74 8 110 27 122 65 192 121 110 90 319 318 127 139 326 338l76-75 50 51-76 74 65 64 8-17q6-11 21-17 20-7 72 9l48 17 44 82 69 101 32 100 29 26v194l-59-58 6-3q13-8 22-28 8-20-2-19l-4 20-17 20-6 3q-48 27-127 54-24 8-46 36-11 14-17 27l-107 195-49 87q-30 49-58 78-14 12-29 31H336q-156 0-253-97l-6-7q-16-52-28-128-14-82-10-121 3-31 20-95 12-47 5-57-8-13 30-42 33-27 52-33l76-19-76-89-17 14q-26 1-65-58-23-35-4-62l23-20q-71-99-75-145-7-69-3-91 12-65 78-130 26-26 82-39l86-11" fill="#fff"/><path d="M586 260l77 40q102 65 231 188 112 108 385 426l-93 214V880L960 1173l71-414-224 305L907 606 579 894 721 482 302 555 606 380 245 276l341-16" fill="#fff" fill-opacity=".8"/><path d="M810 130 834 0 953 134 1139 26l-44 155 315-47-147 224 264-98-171 277 271-60-133 178 133 61-193 45-199-229Q1027 296 987 260L874 173l-64-43" fill="#fff" fill-opacity=".8"/></svg>