<?xml version="1.1" encoding="UTF-8"?><svg xmlns="http://www.w3.org/2000/svg" xmlns:xlink="http://www.w3.org/1999/xlink" version="2.0" width="100pt" height="100pt" viewBox="0 0 2000 2000" clip-rule="evenodd" fill-rule="evenodd" preserveAspectRatio="none"><path d="M1591 1490q76-76 76-101 0-107-19-126-11-11-43 35l-71 91q-28 29-85 102-56 64-110 87-89 38-246 89 132 82 170 88 17 3 30-20 18-29 58-43 48-16 132-94l108-108M915 287q112 91 319 318l317 328 86-85 50 50-86 85 75 74 8-17q6-11 21-17 19-8 72 8l48 17 44 82 69 101 32 100 28 27v193l-58-57 6-4q13-8 22-28 8-19-2-18l-5 19-16 21-6 3-60 28-67 25q-38 13-63 63l-107 196-49 87q-30 49-59 77l-29 31H336q-158 0-254-97l-6-6q-16-54-27-128-13-83-10-122 3-31 20-94 12-47 5-57-8-13 29-43 34-27 53-33l76-19-76-88-17 14q-26 1-65-58-23-35-4-62l23-20Q12 1081 7 1036q-6-74-2-92 11-65 78-129 26-26 82-40l86-11q37 0 111 47 81 51 112 105 20 34 47 127l29 112q6 30 0 78-6 54-24 63l-40 22q-16 16 25 28l115 9 82-10q11-4 54 0l78 6 120-6q87-9 120-25 63-38 120-64 29-12 114-34 85-22 113-35 39-17 129-82l-24-23-14-17-83 82-50-50 87-87q-123-146-316-354Q981 469 747 283L547 134l67 4q74 9 110 28 123 65 191 121" fill="#fff"/><path d="M943 1031q-122-29-229-112Q547 790 524 629q-22-149 73-385L903 550l-40 36q-45 47-66 97-69 162 120 301 30 22 127 59l-101-12" fill="#fff" fill-opacity=".8"/></svg>