<?xml version="1.1" encoding="UTF-8"?><svg xmlns="http://www.w3.org/2000/svg" xmlns:xlink="http://www.w3.org/1999/xlink" version="2.0" width="100pt" height="100pt" viewBox="0 0 2000 2000" clip-rule="evenodd" fill-rule="evenodd" preserveAspectRatio="none"><path d="M1996 1138v58q-151 173-450 378-150 102-270 170l265-329-589 89 393-211-720-145 362 2v1h9l466 97-198 141 444-69-187 230 176-128q197-153 299-284" fill="#fff" fill-opacity=".8"/><path d="M1516 359l172 93q195 116 308 227v78q-61-68-154-147l-81-65 70 155-510-155 165 196-207 20H1011L719 733l617-58-305-250 710 186-225-252" fill="#fff" fill-opacity=".8"/><path d="M1761 545l81 65q93 79 154 147v381q-102 131-299 284l-176 128 187-230-444 69 198-141-466-97h711l216-195-208-195H1279l207-20-165-196 510 155-70-155" fill="#fff"/><path d="M1637 812l195 132-170 135-1457 3 4 61q6 71 15 121l21 105q8 45-6 45l-45-1q-31-13-55-82-24-67-29-165l-1-84H-4V828H101q0-116 34-228 25-84 67-103 41-19 33 56L221 667q-14 119-12 144l1428 1M1417 964l95-9 94-11-94-11-95-9H210v40H1417" fill="#fff"/></svg>