<?xml version="1.1" encoding="UTF-8"?><svg xmlns="http://www.w3.org/2000/svg" xmlns:xlink="http://www.w3.org/1999/xlink" version="2.0" width="100pt" height="100pt" viewBox="0 0 2000 2000" clip-rule="evenodd" fill-rule="evenodd" preserveAspectRatio="none"><path d="M693 496q16-47 68-76 11-7 150-43 91-24 95-84 1-14-14-40-13-25-11-37l20-85q18-49 56-59h85q59 20 56 130-3 107-36 111-34 3-41 21-3 6-3 31 127 23 193 55 32 59 23 169-11 124 2 169 12 39 94 135 76 89 84 153l44-2 41-6q16 14 10 25-10 20-10 34 24 29 85 51-9 19-56 21-51 2-63 13-58-26-107-73l-96-105-85-99q-41-56-59-121l-27 181q-16 107-15 192 72 43 125 117 39 54 95 170l56 115q31 68 37 114 8 58-7 152-21 130-23 158l-110 3-53-188q-30-107-2-193l-103-114-109-114q-62-72-127-110-36 26-67 88l-51 115-56 105q-35 65-46 107-3 11-1 33l1 34q-4 32-32 83-31 54-36 78-3 14-3 37l1 39H568l6-25q3-27-19-92-24-68-23-103 1-15 13-37l21-39q21-57 52-198 30-142 49-192 14-35 54-100l56-103 45-115q26-81 23-122-1-22-30-77-25-50-21-75-32 16-81 73l-80 96q-46 5-106 2l-69 5-42 10q-23 3-48 16-55 26-137-22-30-18-34-31-4-15 31-11 85 14 83-11-18-26-8-23l127-3q63-30 101-41l27-7 21-17 4-11 3-7 2-8 4-10q11-25 46-67 34-41 46-69 7-15 7-41l2-35" fill="#fff"/><path d="M1502 667l-180 703 577-253-351 537 452-104-425 436H335L19 1590l316 27L75 1080l524 267L475 710l500 510 527-553" fill="#fff" fill-opacity=".8"/></svg>