<?xml version="1.1" encoding="UTF-8"?><svg xmlns="http://www.w3.org/2000/svg" xmlns:xlink="http://www.w3.org/1999/xlink" version="2.0" width="100pt" height="100pt" viewBox="0 0 2000 2000" clip-rule="evenodd" fill-rule="evenodd" preserveAspectRatio="none"><path d="M1132 87q42 9 174 54 35 13 66 36 35 26 35 45l5 1278-6 27q-8 29-19 43-17 22-73 45-70 29-143 29l-224 2-157-11q-56-16-82-34-35-25-46-70-10-41-11-71L638 240q7-33 21-48 11-12 39-32 29-20 49-28l73-24 82-21 111-7 119 7m138 530V499l-247-10-163 5-87 5V617l74-6 163-6 260 12" fill="#fff"/><path d="M291 368l39 38q16 25 16 100V1564q-42 29-84 48-85 39-88-7-7-116-13-733l-5-594 2-7q4-7 15-5 34 7 118 102m24 367V632L190 593l2 110 123 32" fill="#fff"/><path d="M1878 266q17-3 17 12l-5 594q-6 617-13 733-2 46-87 7l-84-48V506q0-75 16-100l38-38q84-95 118-102m-18 437 1-110-125 39V735l124-32" fill="#fff"/><path d="M930 1966l-182-93 106 125H765l-220-94 34 65-220-34 124 63H384L101 1854l375 55L74 1671l629 240-189-206 385 182 141-182 130 168 354-165-216 233 618-292-378 290 322-73-244 132H1524l102-39-178 13 100-89-288 115h-69l110-128-179 92-82-123-110 127" fill="#fff"/></svg>