<?xml version="1.1" encoding="UTF-8"?><svg xmlns="http://www.w3.org/2000/svg" xmlns:xlink="http://www.w3.org/1999/xlink" version="2.0" width="100pt" height="100pt" viewBox="0 0 2000 2000" clip-rule="evenodd" fill-rule="evenodd" preserveAspectRatio="none"><path d="M1225 1447q-127 74-244 79-118 5-158-62-23-37-11-91l18 30q42 71 153 64 101-7 213-72 113-65 168-149 62-93 18-167l-17-28q49 15 71 52 40 68-22 169-61 100-189 175" fill="#fff"/><path d="M380 518q-22-37 28-101 50-65 143-119 92-55 173-67 80-12 102 25l320 544 1 2 5 8q16 38-34 101-50 63-140 115-40 24-87 42L580 539l-90 10 319 543q-80 13-104-21l-5-7v-1L380 518m42-30 72 2q60-18 134-61 74-43 118-88 44-44 33-63l-71-2q-61 17-135 60-74 44-118 88-44 45-33 64" fill="#fff"/><path d="M1305 1231q-46 64-138 117-91 53-170 61-88 10-118-41L727 1110q25 33 104 20l126 215 91-10-134-229q42-16 87-42 89-52 139-115 51-63 34-101l152 258q31 53-21 125" fill="#fff"/><path d="M0 1654V1320l733-5-18 53H553v167H263l-94 229 148-142 351 74 56-172 438 186-191 161 352 129H345q-158 0-254-97-91-92-91-249" fill="#fff"/><path d="M1526 1260l5-5h469l-5 457q-15 117-92 191-92 97-249 97H1502l23-11-247-171 207-90-237-166 110-119 215 69 250-91 148 133-108-216-263 83-74-161" fill="#fff"/><path d="M329 342q-13 30-8 82 2 25 7 45L26 195Q47 138 87 95l2-2L329 342" fill="#fff"/><path d="M451 291 189 26Q253 0 333 0h27L505 235l-54 56" fill="#fff"/><path d="M724 182 602 158 509 0H643l81 182" fill="#fff"/><path d="M0 363 329 620 0 436V363" fill="#fff"/><path d="M860 0l85 285L810 0h50" fill="#fff"/></svg>