<?xml version="1.1" encoding="UTF-8"?><svg xmlns="http://www.w3.org/2000/svg" xmlns:xlink="http://www.w3.org/1999/xlink" version="2.0" width="100pt" height="100pt" viewBox="0 0 2000 2000" clip-rule="evenodd" fill-rule="evenodd" preserveAspectRatio="none"><path d="M729 1268q100 94 236 106V1152q-45-9-80-40-35-30-49-73H611q19 134 118 229m432-229q-14 40-44 69-31 30-72 41v224q132-16 228-109 95-94 113-225H1161m-842 0q20 255 205 434 184 179 441 192V1495q-186-13-321-142-134-130-154-314H319M965 473V303Q701 316 514 505 327 694 317 959H487q10-195 147-334Q771 486 965 473m80 122V818q48 14 82 52 34 38 41 89h221q-9-141-107-245-97-102-237-119M874 865q38-39 91-50V594Q821 606 719 710 617 814 608 959H829q8-54 45-94m1126 94v80H1799q-21 301-237 515-216 214-517 231v210H965V1785q-306-13-526-227-220-215-240-519H9V959H197q10-315 232-539Q651 196 965 183V3h80V183q310 18 527 241 218 224 228 535h200m-490 0h170q-10-261-193-450-182-188-442-206V474q190 17 322 155 133 139 143 330m168 80H1508q-19 181-150 310-132 129-313 145v170q252-16 432-195 181-178 201-430" fill="#fff"/></svg>