<?xml version="1.1" encoding="UTF-8"?><svg xmlns="http://www.w3.org/2000/svg" xmlns:xlink="http://www.w3.org/1999/xlink" version="2.0" width="100pt" height="100pt" viewBox="0 0 2000 2000" clip-rule="evenodd" fill-rule="evenodd" preserveAspectRatio="none"><path d="M1370 1187l-94-158 315 54 39 25q40 27 41 36l-1 207-212-16-54-91 150 24v-51l-184-30" fill="#fff"/><path d="M750 1033l-87 158-157 26v51l127-21-47 89-196 15-1-207q1-9 41-36l39-25 281-50" fill="#fff"/><path d="M1002 393q-63 0-107-44-45-45-45-108 0-63 45-107 44-45 107-45 63 0 108 45 44 44 44 107 0 63-44 108-45 44-108 44" fill="#fff"/><path d="M832 457l356 3 263 434 5 30q0 31-19 40-24 11-48-5l-19-18-196-344V969l139 354-170 110-137-335-153 360-174-86L846 989V616L639 947q-10 9-24 15-27 12-48-4-20-15-17-39l6-22L832 457" fill="#fff"/><path d="M649 1428l67 30q68 33 70 44l1 440-600-106V1481q50-62 76-65l203 5 183 7m-43 282v-62l-308-34v62l308 34" fill="#fff"/><path d="M1183 1738l2-236q2-11 70-44 34-16 67-30l386-12q27 3 77 65v355l-601 126-1-224m183-80v62l308-44v-62l-308 44" fill="#fff"/></svg>