<?xml version="1.1" encoding="UTF-8"?><svg xmlns="http://www.w3.org/2000/svg" xmlns:xlink="http://www.w3.org/1999/xlink" version="2.0" width="100pt" height="100pt" viewBox="0 0 2000 2000" clip-rule="evenodd" fill-rule="evenodd" preserveAspectRatio="none"><path d="M205 1972q-42-15-77-41L165 500l40 1472" fill="#fff" fill-opacity=".8"/><path d="M1631 1996h-96l40-1863 56 1863" fill="#fff" fill-opacity=".8"/><path d="M1419 1293l37-2 31 705h-90l22-703" fill="#fff" fill-opacity=".8"/><path d="M592 1996H505L523 618l69 1378" fill="#fff" fill-opacity=".8"/><path d="M650 1610q14 10 32 9 18 0 31-11l19 388H645l5-386" fill="#fff" fill-opacity=".8"/><path d="M790 1584l31 8q18-1 30-11l21 415H785l5-412" fill="#fff" fill-opacity=".8"/><path d="M1014 1524l14-8 24 480H965l6-471 43-1" fill="#fff" fill-opacity=".8"/><path d="M1150 1592q15 11 33 6 17-4 28-19l21 417h-87l5-404" fill="#fff" fill-opacity=".8"/><path d="M1291 1556q11 11 28 13l31-6 22 433h-87l6-440" fill="#fff" fill-opacity=".8"/><path d="M1897 1902l-2 2q-37 37-80 57l18-1343 64 1284" fill="#fff" fill-opacity=".8"/><path d="M255 1987 273 83l68 1913-86-9" fill="#fff" fill-opacity=".8"/><path d="M1763 1981l-82 14 17-1852 65 1838" fill="#fff" fill-opacity=".8"/><path d="M437 1996H362L405 200l32 1796" fill="#fff" fill-opacity=".8"/><path d="M1276 1025l173 28 142 26 39 25q40 26 42 35l-1 208-212-17-54-91 150 25v-51l-184-30-95-158" fill="#fff"/><path d="M430 1104l39-25 281-50-86 158-158 26v51l128-21-49 89-195 15-1-208q1-9 41-35" fill="#fff"/><path d="M1111 130q44 44 44 107 0 63-44 108-45 44-108 44-63 0-107-44-45-45-45-108 0-63 45-107 44-45 107-45 63 0 108 45" fill="#fff"/><path d="M1189 455l263 434 5 30q0 31-19 40-24 11-48-4l-19-18-196-345V965l139 354-171 110-136-335-153 360-174-86L847 985V612L640 943l-24 15q-28 12-49-4-20-15-17-40l6-22L833 452l356 3" fill="#fff"/><path d="M607 1706v-62l-309-35v62l309 35M187 1831V1477q50-62 76-65l387 12 67 30q68 32 70 43l1 441-601-107" fill="#fff"/><path d="M1367 1653v62l308-44v-62l-308 44m391-207 28 31v354l-601 127-1-224 2-237q2-11 70-43l67-30 183-7 203-5q17 2 49 34" fill="#fff"/></svg>