<?xml version="1.1" encoding="UTF-8"?><svg xmlns="http://www.w3.org/2000/svg" xmlns:xlink="http://www.w3.org/1999/xlink" version="2.0" width="100pt" height="100pt" viewBox="0 0 2000 2000" clip-rule="evenodd" fill-rule="evenodd" preserveAspectRatio="none"><path d="M2 1683l-1-99 936-102L2 1683M1 449 2 312 1297 591 1 449M1956 149l6 11-298 519 336-139v75L1749 783l251-30v61l-189 55 189 19v69l-157 28 157 73v77l-248-33 248 194v61l-367-135 256 502-377-515q134-278 53-414-25-43-69-66l-39-15 499-565" fill="#fff" fill-opacity=".8"/><path d="M967 1264q3-48-5-65-17-33-38-41 7 38 2 104-3 19-21 31-21 14-47 7l23-31q10-15 8-40-18-71-81-87l-62-2-36 1q-30 21-36 67-6 44 13 66 27 32 89 62 26 13 74 17l74-3 32-33q9-18 11-53M825 683l91 2 105 10q100 11 135 24l37 12 41-4 8-17 53 1 50 16q20 1 28 16l7 37q21 0 43 18 26 22 60 70 8 187-21 230-16 23-48 25l-5 3q-3 0-3 6 0 9-31 28-31 18-30 33l2 22 7 22 86 115q58 75 103 149 3 90-17 132-79 21-172 27l-34-1q-17-3-26-10l-17-16-47-53q-42-46-57-52 3-88-60-106 4-28-3-54l-14-43q-16-14-59-16l-44-1q-7 0-7 10l-2 16-27 44-17 9-22 6q-52 3-133-18-57-17-92-41-47-36-58-72l-11-61q-7-53 1-63 10-14-105-20l-256-12q-13 5-16 27l-2 43-29-1-31 1v17H158 126l-53 2-59-2H1V683l508-2 316 2" fill="#fff"/><path d="M89 102q50-53 125-76L1442 529 21 217q23-67 68-115" fill="#fff"/><path d="M93 1896q-48-46-73-119l1062-233-946 387-43-35" fill="#fff"/></svg>