<?xml version="1.1" encoding="UTF-8"?><svg xmlns="http://www.w3.org/2000/svg" xmlns:xlink="http://www.w3.org/1999/xlink" version="2.0" width="100pt" height="100pt" viewBox="0 0 2000 2000" clip-rule="evenodd" fill-rule="evenodd" preserveAspectRatio="none"><path d="M623 976l-37-27-36-27 11 18-7 4q10 9 13 20l3 22-4 4q8 14 6 46-3 32-13 46l18-31 13-33-2-3 10-16 5 1 35 22 35 23-13-16-15-17q-9-24-22-36m-107 8 2-6-36 20-11 1-12 3-23-3-39-11 30 13 35 27 34 24 38 34-1-7-3-8q-15-16-16-42l2-45m-7-409 7 23 4 23q0 32-13 51l15-4-29 37-20 11q-10 6-5 19l-2 3 3 17 1 18 2 3-2 3 2 3-3 2-12-10 7 18q26 61 78 91 22 12 57 14 42 3 51-11-51 11-88-27l29-8 25-11q-28-8-43-22-17-14-16-19l5-6 9-3-8-11q24-1 32-9-29-20-43-50l-7-13q-3-7 4-14 4-4 14-6l14-7 19-5-20-12-19-16 26-27 7-12q-17 18-42 30 0-18-14-36l-25-27M386 332q29 10 55 32 77 110 54 111l14-1 15 4 33-2 35 1q31 0 58 12 58 25 81 77 15 32 14 53l-3 52-7 105 2 3q-3 12 6 33v11q-2 8 6 14l15 8q19 13 40 32L947 997l-31 30L727 867l-11-56-5 36-12 45q-8 12-60 19l12 8 32 8 54-10 151 138-230 230-111-133q-21-32-44-51-41-34-106-69l-54-34-53-38q-28-18-11-83 8-31 18-43 8-9 21-12l19-6 22-26 17-30 6 19 2 18 7 37q7 44 13 60l-4-34-4-34q4-6 0-16l1-24q0-16 5-24 6-8 23-20l22-20-24 10q-15 4-25 0-23 7-35-34 3-18 13-42l17-41 10-40 3-20 7-24 7-23q11-17 47-26l-37-2q-23-1-34 9-11-13-36-26l-41-15 24 25 25 25-17-14 13 21 15 18 7 19 6 20-2 2 3 3-13 20-7 22-7 21-13 19q-12 13-20 14-9 1-23-10l-21-21q-14-14-22-15l18 15 17 15 27 35 6 17-9 13-17 29-24 27-27-12-8-7-29-21-6-4-29-28 22 28q17 17 23 33l13 34q7 15 3 24-11 13-32 18-33 9-80-12-51-22-54-57-4-2-6-15l2-3v-5l-2-3 3-13 1-17q3-21 12-28l17-8 17-7q20-12 19-28l-7-30q5-32 23-46 8-6 27-11l26-11q-6-9-6-19l3-24 6-22q10-19 36-29l45-13q-12-19-12-31-1-13 13-38 14-26 26-31 27-13 62 0" fill="#fff"/><path d="M1413 1387l539 448-48 61q-94 96-250 96H1253l-204-241 364-364" fill="#fff"/><path d="M1507 978l3 6 2 45q-2 26-17 42l-3 8-1 7 38-34 34-24 35-27 30-13-39 11-23 3-23-4-36-20m-141 51-14 16 35-23 36-22 4-1 10 16-2 3 13 33 18 31q-10-13-12-46-2-32 5-46l-4-4 4-22q2-11 13-20l-8-4 12-18-37 27q-26 17-37 27-13 12-22 36l-14 17m150-454-25 27q-14 18-14 36l-42-30 7 12 26 27-19 16-20 12 19 5 14 7 14 6 5 14-8 13q-14 29-42 50 7 8 32 9l-9 11 9 3 5 6-16 19q-15 14-43 22 6 6 26 11l28 8q-35 39-88 27 9 14 52 11 34-2 56-14 52-30 78-91l7-18-12 10-3-2 3-3-2-3 2-3V755l3-17-2-3q5-13-5-19-13-5-19-11l-30-37 15 4q-13-19-13-51l4-23 7-23M872 1228l-53 39q-38 29-44 47l-2 5q111-7 159-71 31-42 87-91l95-81 175-159 16 5 37 5q28-1 44-16-52-7-60-19-5-7-11-45l-6-36-11 56-426 361M353 1992q-156 0-252-96l-41-52 712-592 449-375q21-19 40-32l15-8q9-6 6-14l1-11q9-22 5-33l2-3-7-105-3-52q-1-21 14-53 23-52 81-77 28-12 58-12l35-1 33 2 15-4 13 1q-12-4 15-52 28-49 40-59 27-23 55-32 36-13 62 0 12 5 26 31 14 25 13 38l-11 31 45 13q25 10 35 29l6 22 3 24-6 19q7 6 26 11l27 11q18 14 23 46l-7 30q-1 16 19 28l34 15q9 7 12 28l1 17 3 13-2 3v5l2 3-6 15q-3 35-53 57-48 21-81 12-19-5-32-18-3-9 3-24l13-34q6-16 23-33l21-27-28 27-35 25-8 7-27 12-24-27-17-29-8-13 5-17 27-35 35-30q-8 1-22 15l-21 21q-14 11-23 10-8-1-20-14l-13-19-7-21-7-22-13-20 3-3-2-2 6-20 8-19 15-18 12-21-17 14 25-25 25-25q-20 4-42 15-25 13-36 26-11-10-34-9l-37 2q36 9 47 26l7 23 7 24 3 20 10 40 17 41 14 42q-14 40-36 34-10 4-24 0l-25-10 23 20q17 12 22 20l5 24 1 24q-4 10 0 16l-4 34-4 34 14-60 6-37 8-37 17 30q12 19 22 26l20 6q12 3 20 12 10 12 18 43 17 65-11 83l-53 38-54 34q-65 35-106 69-22 19-44 51L772 1992H353" fill="#fff"/></svg>