<?xml version="1.1" encoding="UTF-8"?><svg xmlns="http://www.w3.org/2000/svg" xmlns:xlink="http://www.w3.org/1999/xlink" version="2.0" width="100pt" height="100pt" viewBox="0 0 2000 2000" clip-rule="evenodd" fill-rule="evenodd" preserveAspectRatio="none"><path d="M1167 202q-83 93-92 112-19 41-2 52l22 3L930 576l21-53q9-46-57-8-72 42-82 109-4 33 5 58l-54 9q-58 11-76 25-32 24-27 78 3 26 12 48-13-22-43-23-59-1-142 103-22 28-110 65L487 795l-12-36q59-34 181-140 56-49 53-86l-14-28q69-8 92-1L899 366q37-44 16-53H887l63-21q63-26 69-54 1-6-9-15l-9-8 59 9q78-7 167-89l-60 67" fill="#fff"/><path d="M1472 657q-19 31-30 116l-183 56-45 37q-58 53-126 138-68 85-111 165l-29 63q3-13-11-15-26-4-104 54-77 58-149 146l-56 77q8-17-5-17-25-1-128 82-165 133-271 238l58-95q64-117 91-224v-15l85-8q105-31 207-143 104-113 126-188l2-63h19q40-6 127-68 89-64 141-184l33-107 118-42 34-137 64 14q78 2 154-64 76-66 81-112l-10-33 328-173-132 247-39-1q-53 18-127 112L1472 657" fill="#fff"/><path d="M1439 1185q58-23 120-69l50-41q-109 106-128 208-9 52 3 82l-52-3q-62 11-115 84-54 72-42 97 6 12 23 10l-71 46q-83 59-139 122-53 60-64 109l-8 26q-60-53-120-4-30 25-48 60l29-70q18-42 9-92-12-41-9-44l71-14q70-20 92-66 21-46 19-76l-6-22 79-22q83-28 105-60 19-29 12-103l-3-32q0-7 9 13 18 40 52 10 28-25 52-81 17-39 6-44l-14 3 88-27" fill="#fff"/></svg>