<?xml version="1.1" encoding="UTF-8"?><svg xmlns="http://www.w3.org/2000/svg" xmlns:xlink="http://www.w3.org/1999/xlink" version="2.0" width="100pt" height="100pt" viewBox="0 0 2000 2000" clip-rule="evenodd" fill-rule="evenodd" preserveAspectRatio="none"><path d="M958 194q-64-46-75 1-5 24 2 57L626 32 825 51q238 41 438 148 129 69 358 238l203 155q62 51 115 118l41 57-39-40q-55-48-134-83-46-20-24 44 10 31 30 67l-95-116q-107-120-167-143-59-22-28 52 16 37 43 79L1351 383q-40-44-87-73-54-33-102-35-29-1 17 85l52 87q-60-82-128-142L958 194" fill="#fff"/><path d="M638 904q28-3 250-4l-77 18-152 34q-60 20-140 117-40 49-68 93 15-30 16-58 2-55-64-41-73 15-125 114-26 49-38 95l9-56q4-55-15-49-34 12-106 112-36 50-65 98 4-24-1-38-11-28-60 25v-86q177-206 363-291 155-70 273-83" fill="#fff"/><path d="M1289 1133l-93 41q-99 45-127 69L897 1391q23-36 35-69 24-66-29-50-124 39-234 151L525 1569q68-89 84-122 27-58-2-64-30-6-111 46-70 45-183 170-56 62-99 115 33-51 52-97 39-92-32-69-80 26-215 220-17-56-17-118v-26q245-200 337-241 202-91 596-180 197-44 354-70" fill="#fff"/><path d="M373 1993q37-42 59-61 171-152 416-212 124-31 232-39 83-34-82 68-92 30-220 244h-5q62-151-36-84-61 42-104 84H373" fill="#fff"/><path d="M1571 109q-66-13-45 36 10 25 34 52L1374 9h251q77 35 141 80 94 65 232 198l4 65v17q-81-106-87-61-2 22 11 66-17-43-48-88-61-91-126-104-21-4-2 49l22 53-73-82q-82-84-128-93" fill="#fff"/><path d="M1789 937q108 62 213 163v100q-42-41-58-31-22 12 2 111l-49-87q-70-111-154-154-85-44-95 18-5 31 7 71l-61-80q-78-91-162-146-84-54-78 17 4 36 24 83-26-52-86-117-121-129-294-189l292 61q326 81 499 180" fill="#fff"/></svg>