<?xml version="1.1" encoding="UTF-8"?><svg xmlns="http://www.w3.org/2000/svg" xmlns:xlink="http://www.w3.org/1999/xlink" version="2.0" width="100pt" height="100pt" viewBox="0 0 2000 2000" clip-rule="evenodd" fill-rule="evenodd" preserveAspectRatio="none"><path d="M874 521q-51 30-58 61-8 35 54 43 59 7 100-14 39-20 23-66-15-47-70-47l-49 23m209 1117q219 115 268 118 79 5 137-22 63-30 28-71l-302-230q-274-201-299-249-38-72-24-174l7-52q0-16-15-7-12 7-70 72-68 76-116 117l-108 74q-58 35-64 48-17 37 80 102 54 37 179 107 128 78 299 167M1424 296q66 36 92 63 34 36 34 84l-7 43q-4 49 14 81 22 41 21 105-1 65-27 110-22 38-70 75l-43 30q70-93 75-137 5-37-9-72-16-41-55-61-34-18-73-12l-31 9 14 47q14 57 12 110l-6 123q-13 68-70 118l-32 21q-2-4 13-38 45-99 43-143-4-62-24-87-18-21-40-12l-131 64q-116 59-148 82-28 20-37 43-11 29-7 96 4 58 68 133 49 57 101 94l104 97q81 77 128 101 38 19 117 79 68 51 95 57 45 10 57 27 15 22-1 75-21 66-40 94-27 39-77 57l-164-8-144-35q-47-13-257-90-237-87-324-128-67-32-139-102-63-62-111-76l-172-44L4 1327 3 485l40 6q74 11 197 46l305 13q159-14 343-126 168-118 216-135l86-46q41-25 85-25 45 0 75 23l74 55" fill="#fff"/></svg>