<?xml version="1.1" encoding="UTF-8"?><svg xmlns="http://www.w3.org/2000/svg" xmlns:xlink="http://www.w3.org/1999/xlink" version="2.0" width="100pt" height="100pt" viewBox="0 0 2000 2000" clip-rule="evenodd" fill-rule="evenodd" preserveAspectRatio="none"><path d="M1403 76q9-31 37-27l-11 43q-6 25 4 45 11-5 18-26 8-22 16-28 15 22 41 6 32-19 47-13 3 15-7 24-12 11-13 16 10-1 27-13 15-10 34-7l6 25q2 15-6 23 36 16 67 13 7 7 7 17l-7 17q65 23 95 60 32 39 34 103-11 0-22 15-10 14-25 12 14 31 10 85-5 77-3 104 10 61-3 130-10 48 14 93 32 59-55 152l-160 141-104 63q-70 34-99 59-40 133-176 223-14-21 2-34l32-20q5-17 37-56 29-36 30-59 1-12-11-28-10-14-9-26-24 9-43 48-21 42-38 53-13-32-9-90 4-58-5-79-15 10-23 34l-11 47q-33-4-36-50-3-57-11-65-16-5-14 17 2 22-13 17-33-15-57-94-23-94-38-130l7-23 6-24q-7-9-21-5-13 4-12 18-16-22-2-95 11-53-38-47 1-14 28-92 21-60 5-84-17-2-36 20-18 19-25 14 2-59 47-105l75-78q-8-24-48-27l-74-1q5-48 50-69l92 2 1-17-14-17-61-7q33-37 79-54 53-20 110-7 0-9-19-11-17-3-15-16 14-31 71-39l99 5q8-8-10-19l-24-22-113 25q-63 13-97 36l-39 42q-23 25-49 26-5 8-4 21l-3 13q-29-6-23-25 4-14 23-29-126 73-203 176l-22 42q-12 28-26 39-19 17-86 44-54 31-41 88 4-18 26-13 20 4 20-3 6 7-5 53-10 43 12 55-2-35 5-45 6-9 29-9 11 18 2 51-11 40-9 57l43-31q25-21 52-23l-27 73q-16 45-7 76 13-4 28-40 11-28 39-14l2 141q5 77 39 103 4-14-3-96-6-65 24-87-1 17 9 38 11 22 11 36-25 47 0 136 13 49 47 136 18-17 9-60-11-49-2-69 21 45 44 122l37 129q30-4 48 39 24 60 34 69 14-12 0-51-18-49-14-71 17 20 54 97 31 66 68 93 13-1 12-12-2-10-12-15l18 3q14 4 9-24 8 6 12 35l9 53q8 28 47 86 32 49 34 91l64 75q35 44 51 87l-28-17q-19-8-33 4 5 10 28 19 22 9 26 21 1 14-10 21l-24 7q-16-2-28-29-12-26-32-26-12 11 1 28l19 27q-8 14-27 10l-41-4q-5-5-7-29-2-22-13-25-15 4-12 18l5 30-54 6q-23-23-40-92-18-74-35-97l-15 22-19 18-113-11q-51-13-76-63 2-36 55-164 37-87-8-155-80 13-129-23-28-20-68-85-25 25-45 90-24 78-36 99 7 39 19 70l35 86q55-2 77 20 19 19 5 43-14 25-49 31-41 7-87-19-1-52-60-129-59-79-62-135-1-19 12-53l15-56q5-69-15-132-21-66-66-105l-17-13q-7-3-17 6-24 40-25 58l-2 145q3 43-6 183-9 134-1 204 0 12 16 50 12 29-2 51l-82 16q-47 5-74-16 1-20 21-65 19-43 19-70l-9-56q-8-36-4-59 14-69 7-109-3-17-34-95-22-54-14-101l14-27q1-41-18-110-21-76-23-107l-6-123q-1-73 6-121 4-25 24-51l37-51 10-32q4-21 10-29 29-37 110-69 67-26 141-39l101-20q42-19 42-89Q841 230 924 182q142-82 306-79l40 27 23-8q12-8 25-6l-25-29q-17-17-23-32 32-13 56 21 29 40 53 40 13-4 24-40m343 228 17 8q8 2 12-13l-36-19q-26-13-21-35-100-36-190-101l-141-1q-77-1-110 41l-23 2q-13 10-31 5 10-22-39-21-49 1-56 21 11 1 20 7l14 13-24 21q-8 6-3 20h-85q-59-1-78 20 31 6 61 28 30 22 34 40l-89-8q-60-2-74 22l75 27q47 15 61 40l-69 51q-36 31-46 71l57-19 58-1-37 27q-26 17-38 27 8 23-18 70-29 53-29 75 12 5 35-26 20-27 26-17l-22 83q-14 52 2 73l16-52q7-34 24-43-24 116-20 190 20-10 30-51 12-46 24-58l-17 154q-8 107 38 138l16-90q13-53 38-53-10 41-6 100 4 59 19 90l28-65q20-39 40-37l2 97q3 53 18 80 8-48 34-80 30-37 68-29-31 9-25 47 4 22 18 62 23-54 107-91 105-46 158-105-38-1-77-23l-58-43-24-66-31-52q-14-27-82-52-61-23-74-70-37-141 44-298 85-164 193-95 45-54 107-23 52 26 102 105 15 8 26 27 10 17 23 20 18-54-14-122 69 23 57 4-24-37-15-47M1563 478q17-15 37-6l46 33 30 34q7 11 8 45-5 18-36 17-32 0-35 8l36 111q30 24-4 49l-83-2q-4-24 6-35l11-10q21-25-16-98-36-74-76-81l46 119q17 63 9 143 114 16 144 1 4-2 0-63-3-61 0-64l21-6q18-5 21-13 30-77-42-192-67-107-126-121-67-16-60 45 7 61 63 86m-97-14q9-16 8-29-56-85-120-50-55 31-90 129-34 98-18 175 20 87 99 85-24-130-17-178 15-107 132-100-3-16 6-32m200 383q-23 12-30 49 15 36 47 10 32-25 28-58l-45-1m-179-39-23 19q-17 20-17 35-2 42 49 55 53 12 79-35l-36-44q-28-32-52-30m-2-116q-1-65-15-81-30 8-71-20-29-19-47 13 0 34 30 57l49 36 9 55q9 30 36 27 10-24 9-87m-5 256q5 51 81 54 75 3 88-51-20-19-75-17l-94 14M667 896q-36-13-54-27-27-90-45-118-35-56-104-59-28 24-16 102 12 81 2 95l-35-26-46-1q-9-12-23-62-11-41-31-53-18 72 38 154 31 46 97 117l116 144q90 101 135 100 10-1 23-13l24-21q48-30 38-67l-38-69q-45-82-33-169-15-16-48-27m-88 454-24 62q-17 36-3 60 48 2 89-57 41-61 26-119-7-28-46-50l-62-38q-5 24 9 69 13 47 11 73M304 1581q-7 65 4 135l53-7 35-20q-23-23-37-98l-17-119q-31 30-38 109m317 10q43 65 46 105 48 6 54-28-43-10-71-84-29-78-64-92-5 40 35 99M355 1411q26-243 24-291-4-159-91-217 3 78-17 289-3 181 84 219m807 129q-41-60-203-109v21l103 164q60 97 93 174-4 22 6 36l21 19q14-24 63-24 52 0 66-17-48-51-102-149l-24-61-23-54M918 1702q59-27 129 0-18-101-82-135l-36 63q-20 41-11 72" fill="#fff"/></svg>