<?xml version="1.1" encoding="UTF-8"?><svg xmlns="http://www.w3.org/2000/svg" xmlns:xlink="http://www.w3.org/1999/xlink" version="2.0" width="100pt" height="100pt" viewBox="0 0 2000 2000" clip-rule="evenodd" fill-rule="evenodd" preserveAspectRatio="none"><path d="M1109 1353q14 16 27 17 33-27 26-91-7-58-34-91-58-1-107 47l-71 89-35 40q-17 24-11 49 49 29 101-8l77-70q13 2 27 18m-93-315q-23 3-64 58l-52 77-54 74-34 35q-19 23-13 42 4 10 26 20l40 7q11-3 25-29l21-41q77-120 194-147l-30-69q-20-33-59-27m-223 84-21 1q-25 8-39 37l-19 56q24 46 58 27 15-8 66-62l44-49q19-24 26-52-15 2-45 21l-48 22-22-1m22-208q25-27 8-54-17-26-55-24-39 3-77 62 42 18 124 16m69-12 17 16 22 11q26 25 23 93 50-24 22-77-29-52-84-43M1894 509 1580 974l-375 337q0 72-27 117 11 9-15 69-29 64-80 137-25 35-74 61l-86 51q-33 27-61 74l-47 88-36 58q-24 22-61 4 6-32 29-70l37-62 9-25 10-25 21-19q14-11 14-23l-46-16q-28-10-28-35l64 4h64q36-3 101-57 56-46 84-84 54-72 62-104 12-50-70-41-9 1-22 17l-28 26q-84 46-133-9l-33-64-51-11q-49-20-45-64-71-28-78-49-9-32 7-73 17-43 13-63-2-9-20-21-14-10-11-37l59 12 68 3q31-3 65-19 35-18 40-35 18-67-87-74l-176 4-81 83q-50 56-66 107-14 42-2 112l21 109 9 67q7 31 26 52l42 31 45 21q28 11 41 26-20 37-71 22-57-26-80-30-50 154-147 333-48 4-58-16 9-32 63-148l60-130q28-61 31-105 3-44-11-103-18-72-20-98-8-115 20-189l51-74L621 894q42-62 101-90 73-34 135 9l10 9 248-313 387-341-286 427L936 857q98 37 103 123l19 11 336-413 395-357-299 453-373 364q36 41 31 96 33 34 49 104l299-366 398-363" fill="#fff"/></svg>