<?xml version="1.1" encoding="UTF-8"?><svg xmlns="http://www.w3.org/2000/svg" xmlns:xlink="http://www.w3.org/1999/xlink" version="2.0" width="100pt" height="100pt" viewBox="0 0 2000 2000" clip-rule="evenodd" fill-rule="evenodd" preserveAspectRatio="none"><path d="M1004 1690q-72 9-248-35l-161-42q-3 12 32 37 48 36 137 55 253 54 377-2 48-22 103-92 72-92 19-38-35 34-99 66-80 41-160 51M881 1051l-152 10-120 33-75 23q-9 0-65 21-65 25-83 42l7 18 17 67q8 40 64 53 42 10 82 1l-73 35q-51 22-58 27-50 42-51 53l47-4 55-14q47-14 65-30l22-69 2-1 16-11 108-52q95-46 119-63l100-67 76-59q4-12-103-13M757 338q-4-24-16-33-9-6-48-17l-67 4q-31 19-31 72 0 31 30 192 28 129 155 352 9 14 14-142l7-210q4-40-19-127l-25-91m338-190-37 5q-36 52-51 91l-23 67q-21 48-27 155l-6 116q2 86 12 177 8 77 14 99 120-204 160-318 20-59 45-172 22-105 29-122 12-28-12-54-20-21-58-34-31-10-46-10m570 709q4-34-8-59-9-20-32-26l-20-2-61 36q-70 43-115 82-48 41-125 161-78 121-54 100l195-126q178-112 197-121 19-9 23-45M1471 269q29-3 49 11 24 17 42 44 22 32 22 63l-2 66q-4 36-20 54-21 25-77 132-60 114-60 138 0 22 24 26l47 1q17 0 47-26 37-32 49-38 121-59 150-25 23 26 38 54 16 31 11 46-4 15-67 65l-87 59-41 18q-18 10-23 34-18 106-56 188l-103 179q-83 141-91 170-9 29-66 113l-78 120q-38 73-49 137l-605-7q31-96 33-143l8-158q-58-25-121-59-126-66-153-104l-58-77q-26-37-26-65 0-38 20-72 24-39 67-58 39-16 97-20l66-30q175-90 192-120 10-18 12-41l2-48q2-24-32-163L597 598q-19-79-35-116-10-41-6-102l7-79q0-78 55-105l47-15q51-13 67 1 13 11 35 96 23 90 38 111 6 9 53 232 13 67 24 64 14-3 28-112l14-114q5-58 14-84l44-136q22-64 37-84l9-28q4-15 25-23 30-10 112 16 85 26 90 52l2 64-9 55q-36 92-61 167-52 158-41 198 11 40 62-75l49-124 17-29q20-31 32-39-1-4 7-13l21-24q18-22 50-41l44-27q17-13 43-15m41 143q-19-54-44-66-26-12-35-13-13-2-33 7l-24 19-46 49-69 108q-34 69-67 229-17 79-27 145 137-127 199-199 120-141 151-195 15-28-5-84" fill="#fff"/></svg>