<?xml version="1.1" encoding="UTF-8"?><svg xmlns="http://www.w3.org/2000/svg" xmlns:xlink="http://www.w3.org/1999/xlink" version="2.0" width="100pt" height="100pt" viewBox="0 0 2000 2000" clip-rule="evenodd" fill-rule="evenodd" preserveAspectRatio="none"><path d="M0 1196V990l1147 267 853 284v11l-972-144L0 1196" fill="#fff"/><path d="M1236 38l37-10q26-9 27-20h371q168-1 251 92 78 87 78 251v751q-87 37-164 49-15 2-18 33-4 34 3 139l-664-223 5-97q-2-24-11-49-19-59-86-113-56-45-131-78-57-25-74-69-9-23-8-66 1-19 49-68l58-59q6-9 6-29 1-18 11-29 13-12 25-13l10 2 14-41q18 6 34 25l46 13q58-4 119-86 34-46 27-98-6-41-32-68-30-34-45-38-6-2-7-14V113q40-25 43-41 5-26 26-34" fill="#fff"/><path d="M1842 1656q9 130 31 267-89 69-218 69H951q48-80 98-206 41-106 67-201l726 71" fill="#fff"/></svg>