<?xml version="1.1" encoding="UTF-8"?><svg xmlns="http://www.w3.org/2000/svg" xmlns:xlink="http://www.w3.org/1999/xlink" version="2.0" width="100pt" height="100pt" viewBox="0 0 2000 2000" clip-rule="evenodd" fill-rule="evenodd" preserveAspectRatio="none"><path d="M1137 1103l145 128-578 704-18 17-51 40H341q-157 0-253-96-92-92-92-250V1286q123-118 470-354L789 720 907 878 226 1363Q72 1492 77 1606q6 166 102 238 84 64 206 35 119-28 248-173l105-140 399-463" fill="#fff"/><path d="M932 34 921 20h65l5 13q-8 6-8 18 0 32 24 36h5l11 26q-3 9 0 17l11 12 7 16q1 52 11 158l3 10q-3 19 7 40l4 5q-2 13 6 19l17 7q11 0 17-7 12-14 14-34l3 9-10 36-130 75-8-1q-37 1-69 23l-2 1q-16 5-24 17-10 14-7 32 3 22 30 63-4 9 1 21l9 32q0 15 15 21l-2 11v24l-26 9-19-84q-12-48-40-74l-12-6-25-78 25-14h7q12 0 18-8l21-6q8 8 18 8 21 0 23-21l8-2q7 10 20 10 32 0 36-24v-1l13-4q21-5 27-24 6-18-4-35l17-11-23-59q9-13 9-30V234q0-33-31-50 11-18 4-41l-13-32q4-18-13-26L948 55q0-16-16-21" fill="#fff"/><path d="M1176 549l10-1q-18 9-25 27-4 9 1 18l13 13 20-3 6 2q26-2 39-12l11-1 148-57 44-2q9 13 26 9l66 3v1q-14 16-56 25l-46 2-13 4-2-1h-25q-12 0-18 8l-36 3-28 14q-15 6-24 21l-64 4-1 20q-18-2-32 9-14 12-13 31-17 3-17 22v13l3 13q-3 5-3 12v6q0 14 11 21l21 2 2 11q-11-1-19 5-9 6-9 18v26q0 15 13 21l24-1-2 34-81 10q-4-6-10-7l-97-3-36 4q-6-13-21-13l-17 5-3-26h8q14 0 21-13l35 2q6 11 20 11 11 0 17-8l80 2q18-5 26-20l5-30 1-2q5-40-10-72l-4-7 13-149 28-24" fill="#fff"/><path d="M1612 72q-35 15-59 72l-27 82-10 33q-10-1-17 7-8 7-9 18l-48-11q-43-28-113-38-13-1-19 8l-28-6-42 111v-7q0-33 5-50 8-22-16-29-23-7-30 16-7 22-7 50-7 42-13 127-1 10 3 16l-72 94-6 12-7-3q35-61 62-157l42-164q3-12-3-19l5-15 11-6q30-30 46-63l8 1q-2 20 17 24 18 4 38 18l35 24q31 20 76 13l13 13 21-1q55-27 72-97 11-85 24-125h67l-19 52" fill="#fff"/><path d="M2000 697l8 1-9 54q-22 6-28 32-11 4-14 16-3 12 3 21l-4 2-4-3-24 2q-15 9-8 28-33 36-55 108l-11 4q-17 12-6 32v4q-1 10 4 17l-4 21 1 12q-35 10-43 15l-2 3-6-8q-24-21-60-23l-64 2-94-26-5 28q-10-10-25-7-15 3-18 19-10 73 9 130l-17 34-19-3q0-16-10-24-13-11-35 0l-2 3q-4-4-12-6l-36-11q-11-5-19 0-4-10-18-13l-6-1q-11-1-19 6-7 6-8 16l-23-4-15-9-14-2v-1q6-32-18-39l-3-1 3-21q32 21 76 29l81 8q21 0 27-21l22 5 17-86q15-4 16-19 11-65 10-107l-1-4 80 22q32 61 148 54 9 0 16-7l36 11 68-127 12-8 27-50q16-3 18-20l18-2 11-17 2-8q3-19-16-25l19-30 12 5 6 1q18 3 25-12" fill="#fff"/><path d="M1925 522q12 41-23 91l-66 73-41 45q-21 30-14 56 4 16 19 16l-26 39-39-4q4-23-20-28l-63-3-63-4q-21-3-27 19l-22-2-33 47q-7-1-17 5-111 85-159 158l-17-11q17 0 23-13l51-91q75-32 94-129l-4-18 22-32h9q3 12 17 17l67 17 31 10 32 5q20-1 36-19l23-3 7-7 12 2 21-30 107-95 18-14q8-8 7-20-4-63 38-80v3" fill="#fff"/></svg>