<?xml version="1.1" encoding="UTF-8"?><svg xmlns="http://www.w3.org/2000/svg" xmlns:xlink="http://www.w3.org/1999/xlink" version="2.0" width="100pt" height="100pt" viewBox="0 0 2000 2000" clip-rule="evenodd" fill-rule="evenodd" preserveAspectRatio="none"><path d="M996 27q4-6 10-2l7 9q4 40-4 91l-19 91q-20 84-39 223L939 565q-1 69 12 125 20 91 72 120 51 28 113 8 55-18 96-65 44-48 54-107 11-60-15-117l-12-23q-4-8 12 2 17 10 20 17l82 140q46 82 61 150 16 69 3 157l-28 156q127 2 213-106 81-103 75-233 0-10 10-10 9 0 10 10v30q0 270-25 419-38 234-152 384-50 67-120 121-71 54-149 85 29-111 24-264-5-147-34-188-41-57-203-63-170-6-213 73-64 119-13 477-77-5-162-60-64-42-106-92-86-104-121-194-46-117-13-224 2-7 10-7 8 0 9 7 14 54 47 112l36 59q26 34 54 38 76 12 54-179-24-190-66-302-60-162-179-246-7-6-2-15l-3-7q1-5 5-7l56-2 55 20q90 39 140 89l2 3q42 30 84 93l64 111-17-151q-14-94-12-151 4-123 42-286 33-143 68-234Q926 110 996 27" fill="#fff"/><path d="M897 1805l50 30q58 29 100 27 42-1 107-25l56-24v179H894l3-187" fill="#fff"/><path d="M946 1497q-36 41-32 159 2 59 11 110-27-72-38-141-23-136 41-180 45-31 108-31 48-1 89 13 28 10 55 39l22 26-107-22q-113-14-149 27" fill="#fff" fill-opacity=".8"/></svg>