<?xml version="1.1" encoding="UTF-8"?><svg xmlns="http://www.w3.org/2000/svg" xmlns:xlink="http://www.w3.org/1999/xlink" version="2.0" width="100pt" height="100pt" viewBox="0 0 2000 2000" clip-rule="evenodd" fill-rule="evenodd" preserveAspectRatio="none"><path d="M1132 406l-47 152 163-109-180 266 932-84V967l-963-74 77 174L947 933l13 242L725 836 535 808l203-66L905 478 891 705l241-299" fill="#fff"/><path d="M1019 202 954 583l233-291-38 187 372-313-358 489 837-138v604l-836-121 186 307-355-265 182 491-285-320-74-171L655 867 519 849l-96-40 112-52 129-24 355-531" fill="#fff" fill-opacity=".8"/><path d="M577 404l33 53 69 145-51 77-112 21L276 811l227 97 123 15 141 152 10 22-95 1-56 102-178-4-31 194 106 70-14 107 6 61-94 69-232-52L89 1893q-79-82-88-213V320q5-59 21-107l197-9q160 12 255 90 58 47 103 110" fill="#fff"/><path d="M1487 1633l-145-24-251-413 396 437" fill="#fff"/><path d="M1736 193l-28 144-419 241 447-385" fill="#fff"/><path d="M1598 1269l-109 40-175-208 284 168" fill="#fff"/><path d="M1128 84l65 97-162 218 97-315" fill="#fff"/></svg>