<?xml version="1.1" encoding="UTF-8"?><svg xmlns="http://www.w3.org/2000/svg" xmlns:xlink="http://www.w3.org/1999/xlink" version="2.0" width="100pt" height="100pt" viewBox="0 0 2000 2000" clip-rule="evenodd" fill-rule="evenodd" preserveAspectRatio="none"><path d="M743 1435q-20-47-23-95-3-49 55-103l58-45-17 50q-15 57-6 88 9 31 85 45l73 7-205 90-20-37" fill="#fff"/><path d="M334 704q33-31 46-67 14-40 1-77 39 100 6 213-20 67-11 119 12 70 77 71 51 1 63-72l21-114q52-99 46-209-1-31-26-131-21-85-14-134 2-20 30-78 28-56 30-85l30 66q16 39 20 72 5 41-4 128-8 84-1 127 5 32 24 54 24 26 55 15 23-8 28-37 3-36 8-52 6-17 26-42l28-39 15-55 6-59q5-52-4-101l-26-94Q794 79 801 0h409q-7 89-7 113l-10 110-8 61q-5 39-1 59 4 22 31 46 25 25 48 30 37 9 52-15l17-57 14-53q6-31 2-56-2-16-19-50-16-33-17-45 17 50 93 169 59 111 22 180l-8 2-31 124q-10 41-9 55l9 29 10 31-6 69q-5 44 11 61 25 27 66 14 37-12 50-38l6-1 7-1q19-39 19-106l-3-119q52 96 60 206l1 120q8 67 64 75l55 3q21 4 30 37 8 30-5 51l-29 40q-101 171-21 199 54 19 92-20 34-35 33-88 7 20 5 65l-5 69q-4 43-16 59-12 15-49 25l-138 3q-89 1-103 46l-15 15-74-4q56-51 83-94 35-57 35-119 16-40 4-85-13-45-52-86-32-33-80-66l-89-55q-16-24-48-30l-8-4 7-58q2-29-26-49-10-8-52-16-36-8-48-24-14-19-7-63l6-66-14-37-17-35q-1 41-25 81-59 30-67-35l3-109-9-64-17-59q13 130-48 139-23 31-19 110 4 76-26 110-28 33-85 50l-27 9-26-5q-9-9-5-23l-50 53q-26 31-32 66-10 57 18 103l57 90 10 25-35 34q-59 57-84 132-26 78-1 138-28-16-46-43l-30-20q-9-10-29-22l-26-17-40-10-39-12q-55-46-89-81-65-66-23-89-3-31-47-70l-62-64q-27-49-9-90 30-47 39-80 4-15 1-52-4-35 2-49 7-17 33-37l40-31" fill="#fff" fill-opacity=".8"/><path d="M1448 1157q53 95-1 205-46 95-164 190-126 101-184 171-75 90-61 152 17 76 84 125H432q20-118 81-224 96-169 272-249 306-124 396-170 139-71 99-150-35-69-174-122-145-55-161-78-28-39 0-88l33-42 1 16q4 21 21 49 7 11 206 74 198 62 242 141" fill="#fff"/><path d="M1340 1585l89 60q92 80 106 180 18 121-1 175H1184q73-56 69-108-3-39-47-84l-43-38 177-185" fill="#fff"/></svg>