<?xml version="1.1" encoding="UTF-8"?><svg xmlns="http://www.w3.org/2000/svg" xmlns:xlink="http://www.w3.org/1999/xlink" version="2.0" width="100pt" height="100pt" viewBox="0 0 2000 2000" clip-rule="evenodd" fill-rule="evenodd" preserveAspectRatio="none"><path d="M655 1118q32 33 78 33 47 0 79-33 33-32 33-79 0-46-33-78-33-33-79-33-46 0-78 33-33 32-33 78 0 46 33 79m7-304q162-162 391-162 229 0 391 162 162 162 162 391 0 230-162 391-161 162-391 162-229 0-391-162-162-162-162-391 0-229 162-391" fill="#fff"/><path d="M1048 383q-208 0-369 84-121 64-208 170 99 87 136 105-128 43-239 119-130 89-209 199-25-141 4-320 28-167 102-328 11 32 91 116Q465 408 605 332q205-113 443-113 313 0 551 188 120 93 176 187l62 98-140 93q-47-100-151-201-209-201-498-201" fill="url(#A)"/><defs><linearGradient id="A" x1="-16384" x2="16384" gradientUnits="userSpaceOnUse" gradientTransform="matrix(.05 0 0-.05 992 640)"><stop offset="0" stop-color="#fff"/><stop offset="0.5" stop-color="#fff" stop-opacity=".7"/><stop offset="1" stop-color="#fff" stop-opacity="0"/></linearGradient></defs></svg>