<?xml version="1.1" encoding="UTF-8"?><svg xmlns="http://www.w3.org/2000/svg" xmlns:xlink="http://www.w3.org/1999/xlink" version="2.0" width="100pt" height="100pt" viewBox="0 0 2000 2000" clip-rule="evenodd" fill-rule="evenodd" preserveAspectRatio="none"><path d="M1235 1433l-85-13 55-96q74-11 95-86 11-40 3-87l54-94q65 150 37 256-31 120-159 120" fill="#fff"/><path d="M1283 639l-109-98 19-72q97 79 182 172l-92-2" fill="#fff"/><path d="M645 226q143 0 303 80l-42 67q-109-45-211-45-215 0-266 203-54 198 85 483l-36 57 65-1q114 214 296 378l-16 74q-241-214-385-505Q278 689 338 458q62-232 307-232" fill="#fff"/><path d="M902 1164l-18 82q-77-78-136-181l80-2q36 59 74 101" fill="#fff"/><path d="M1466 865l36-64q74 104 128 216 101 206 114 373 8 100-15 186-58 233-306 233-192 0-413-143l36-63q172 103 326 103 216 0 268-201 52-200-86-487-42-83-88-153" fill="#fff"/><path d="M1222 20 1073 694h421L781 1900l260-908H606L1222 20" fill="#fff"/></svg>