<?xml version="1.1" encoding="UTF-8"?><svg xmlns="http://www.w3.org/2000/svg" xmlns:xlink="http://www.w3.org/1999/xlink" version="2.0" width="100pt" height="100pt" viewBox="0 0 2000 2000" clip-rule="evenodd" fill-rule="evenodd" preserveAspectRatio="none"><path d="M81 884l13-27q18-31 48-52 34-24 68-23 49 3 88 44 44 46 29 103 12 12 9 32l-11 32-5 16-6 13-5 2-2 4q-6 22-10 60l-11 26q-5 16-3 31 5 20 32 39l48 27 105 46 28 11 25 13q66 46 51 224l-13 77q-7 51 5 182l4 59 11 32 7 36-6 46q-8 34-9 47l-2 16H445l9-102 5-50-16-46-13-47-2-29-7-26-2 3q-32 71-29 125l9 57 9 48q6 21 18 33-6 16-4 34H346q-158 0-254-96-92-93-92-250V1222q50-18 75-37 25-20 30-38 6-19 3-45l-9-40-11-49-7-24-7-19-4-18 5-16 6-19V884" fill="#fff"/><path d="M744 1253l82-29q51-18 80-39 25-20 30-38 6-19 3-45l-9-40q-6-39-12-49l-6-24-7-19q-5-11-4-18l5-16 6-19q-3-23 0-33 1-5 13-27 18-31 48-52 34-24 68-23 48 3 87 44 44 46 30 103 12 12 9 32l-11 32-5 16-6 13-5 2-2 4-5 31-6 29-10 26q-6 16-3 31 4 20 32 39l48 27 105 46 28 11 25 13q66 46 51 224l-13 77q-6 37-3 93l8 89 4 59 11 32 7 36-6 46q-8 34-9 47l-2 16H1276l9-102 5-50-16-46-13-47-2-29-7-26-2 3q-32 71-29 125l9 57 9 48q6 21 18 33-6 16-4 34H777l12-17-3-19q-1-12 1-21l7-14 8-14 1-17 1-18 16-72q12-44 10-67l-7-33-9-33q-25 13-35 67l-17 96-11 26q-4 24-2 65l4 71H646q-14-61-16-98-3-52 9-108 19-97 10-244l-4-49-2-50q0-37 12-82 12-43 27-67 19-29 62-49" fill="#fff"/><path d="M1742 884l14-27q18-32 48-52 33-24 68-23 48 3 87 44 44 46 30 103 12 12 8 32l-10 32-5 16-6 13-5 2-2 4-5 31-6 29-10 26q-6 16-3 31 6 26 55 53v456q0 157-96 250-93 96-249 96h-47l12-17q-5-30-3-40l8-14 8-14 1-17 1-18 16-72q11-44 10-67l-8-33-8-33q-26 13-36 67l-16 96-11 26q-4 24-2 65l4 71H1476q-13-69-15-98-3-52 9-108 19-97 10-244-7-66-7-99 1-38 13-82 11-44 27-67 19-29 62-49l82-29q52-18 79-39 25-18 31-38 6-19 2-45l-9-40-4-26-7-23-6-24-7-19q-5-11-4-18l5-16 5-19V884" fill="#fff"/><path d="M320 1l55-1-38 168H524L208 703 323 301H130L320 1" fill="#fff"/><path d="M1461 168h187L1610 0h54l191 301H1662l115 402-316-535" fill="#fff"/><path d="M909 0h142L997 103l242 29L986 442l91 243L863 445l195-229-221-31L909 0" fill="#fff"/></svg>