<?xml version="1.1" encoding="UTF-8"?><svg xmlns="http://www.w3.org/2000/svg" xmlns:xlink="http://www.w3.org/1999/xlink" version="2.0" width="100pt" height="100pt" viewBox="0 0 2000 2000" clip-rule="evenodd" fill-rule="evenodd" preserveAspectRatio="none"><path d="M152 776v-5q0 14 13 40 15 30 27 31l7 21 9 19 16 9 17 5q10 15 39 39l19 22 23 16v-1q2-5-21-31l-27-32-49-71-14-34-26-33q-15-23-29-72l-5 39q-4 25 1 38m929-242 305 29 31 68-47 70-59-12-35-47-81-3-77 22-105 26q-35 4-117-26l-32 9-84 8q-44-1-82-17l-30-16 38 296q6 71 16 107 15 57 125 293l129 252q18 36 147 407H903l-20-21q-15-11-60-112l-52-112q-15-19-136-218l-43-11-39 40q-42 44-55 68-7 12-155 366-120-1-203-62l14-106 54-187 56-211 42-184 7 28 8 13q4 7 1 13l26 9 28 5 46 12q34 10 113 1l55-5 18-7 19-9 105-28q16-52 36-62l-86 25-68 22-71 14-86 1-68-10-31-9-32-6 3-8-22-2 2-10-13-136q-3-21-35-82l-31-57-17 18q-20 19-34 26-14 7-32-8l-31-35q-12-16-24-84l-9-65-10-78q-7-85 13-120 20-35 77-56l53-15-39-45q-58-88-65-128-9-49 57-114 18-17 73-22 40-4 75-1 19 1 47 42l23 40 5 32q7 35 19 54 20 31 21 71l75 22 123-13q35-3 106 24 77 29 95 30l84-3 62-9 104 9" fill="#fff"/><path d="M1453 482l-197-79L863 145l457 167 133 170" fill="#fff" fill-opacity=".8"/><path d="M1525 440 1407 323 1201 14l280 262 44 164" fill="#fff" fill-opacity=".8"/><path d="M1607 418l-36-117-26-272 91 268-29 121" fill="#fff" fill-opacity=".8"/><path d="M1576 1369l-23 7-45 12-46 3-19-5-20-8-31-9q-19-5-28-13l-2 2 9 14 4 1-21-2v-3l-20-11q-13-8-21-8 29 21 33 38 41 8 57 22l35 25q26 13 69 11l73-4-29-5-27-5 9-5q14 0 57-18l-47 2-47-1 26-8 26-11 44-15q31-12 36-24l5-4-34 13-23 9m130-343q13-43 1-78-17-54-35-66l10 34 11 33q3 25-14 62h-5q-14 12-60 30l-16 4-16 7-23 22q-75 53-143 82h-2l-8 15 35-7 36-7 65-36q33-24 52-32l30-7q16-12 26-12 0 10 7 26l9 25 3 59 5-12 13-70 4-39 7-16 8-17m-63-505 11-34q25-31 63-44l76-5q49 5 81 25l9 3 26 29q27 32 30 49 4 25 0 57-4 39-18 58l-34 50-21 17q-24 17-34 17-15 0-22 15l42 138q8 25-6 62-12 33-32 56-13 16-22 51l-22 87q-22 75-104 251l-23 168q-2 27-42 56l-40 24v78q1 81 7 98 5 16-5 52l-17 64q-6 32 52 57H1367q-42-155-57-169-8-7-29 37l-22 52q-4 14 6 80H1036q1-19 8-48l11-45 7-55q3-34 11-54l35-73 89-120 34-67 48-124q4-85 31-131 17-29 44-67l23-31q-102-53-140-89L1123 981l-84-34-40-22 2-24-11-14-4-20q4-31 17-35 9-3 24 7l14 10q-31-40-20-48 7-6 26 6l36 27q25 18 47 11l-13-27q-3-9 5-19l8-7 36 53q13 18 2 67 47 44 87 66 40 23 142 60l29-49 100-106q46-78 62-89l27-25 15-17-7-56q-35-4-49-22-8-11 1-22l11-9-5-16 16-9V594l15-18V549l31-28" fill="#fff"/></svg>