<?xml version="1.1" encoding="UTF-8"?><svg xmlns="http://www.w3.org/2000/svg" xmlns:xlink="http://www.w3.org/1999/xlink" version="2.0" width="100pt" height="100pt" viewBox="0 0 2000 2000" clip-rule="evenodd" fill-rule="evenodd" preserveAspectRatio="none"><path d="M748 296 1055 43l353 253H1255l-114 934L488 980l453 53-30-737H748" fill="#fff"/><path d="M2 346Q2 236 36 162q224 17 407 100l6 30q4 17 17 38-6 16-26 28l-32 19q9 31 44 86 29 47 31 80l-7 39q-8 24-5 39 5 30 44 85 39 55 45 99-6 15-31 24l-46 6q-14 9-19 33l-11 38q-17 0-23 10l-9 30q-15-12-36-12H344q-19 35-7 75 11 34 42 65 1 16-17 28l-29 21q-4 91-63 106-32 8-83-32-57-43-95-44l-48 6q-13 4-42 18V346" fill="#fff"/><path d="M1902 672q61 32 74 51 11 15 17 50l9 60v402l-8 27 1 27-1 23-16 25-20 24q-12 20-32 74l-35 75-25 28q-16 15-20 30l156 69v17q0 156-92 249-95 97-253 97H750q31-297 290-408 29-12 188-62 94-30 114-65-7-36-6-73l-3-49q3-14-11-18-18-5-20-9l-22-164q-19-121 40-159-3-66 23-149 30-97 80-139 51-42 127-61l156-11 58 1 55 3q25 5 83 35" fill="#fff"/></svg>