<?xml version="1.1" encoding="UTF-8"?><svg xmlns="http://www.w3.org/2000/svg" xmlns:xlink="http://www.w3.org/1999/xlink" version="2.0" width="100pt" height="100pt" viewBox="0 0 2000 2000" clip-rule="evenodd" fill-rule="evenodd" preserveAspectRatio="none"><path d="M424 1025q0-169 173-289 174-119 419-119 245 0 418 119 173 120 173 289 0 169-173 288-173 120-418 120-245 0-419-120-173-119-173-288M838 758l19-1q54 0 92 38 38 38 38 92 0 53-38 92-38 38-92 38-53 0-91-38-37-38-38-91-31 64-31 135 0 133 94 226 94 94 226 94 133 0 226-94 94-93 94-226 0-132-94-226-93-94-226-94-96 0-179 55" fill="#fff"/><path d="M206 15Q262 0 331 0H659Q548 33 450 87 222 209 71 419 32 473 2 528V346Q2 235 38 158 118 78 206 15" fill="#fff"/><path d="M1309 0l383 1q156 113 265 267l45 67V765q-46-221-179-400-156-212-390-318-71-31-119-45l-5-2" fill="#fff"/><path d="M200 762q28-71 64-132 75-127 191-222 112-94 253-144 140-51 286-50 152 0 287 50 141 53 248 151 109 98 174 232 65 135 75 280 11 146-35 286-48 143-147 249-99 108-235 166-136 58-282 55-152-5-279-68-133-68-218-186l-6-8 10 6q42 57 80 78 60 35 146 50l14 7q116 56 254 58 129 2 254-53 120-52 210-152 89-99 128-225 39-129 27-257-10-130-70-249-59-119-157-205-97-85-222-130-123-43-255-41-129 2-253 48-123 46-222 130-101 85-164 197-32 53-55 117-11 31-19 60l-15 64q-24 127-7 257 16 130 71 246 54 117 143 213 88 96 199 159 112 63 239 90 126 27 256 18 264-19 475-174 104-75 184-177 80-102 127-220 25-65 39-121l9-43v390q-110 169-276 286-142 101-316 152H825q-113-33-214-92-127-74-228-186-99-111-159-246-61-133-77-282-17-148 12-291l18-71 23-70" fill="#fff"/></svg>