<?xml version="1.1" encoding="UTF-8"?><svg xmlns="http://www.w3.org/2000/svg" xmlns:xlink="http://www.w3.org/1999/xlink" version="2.0" width="100pt" height="100pt" viewBox="0 0 2000 2000" clip-rule="evenodd" fill-rule="evenodd" preserveAspectRatio="none"><path d="M1793 75q35-26 65-26h21q17 10 47 44l21 27q37 51 28 107-9 56-58 56-18 0-46-22-24-18-41-10l14 23 18 23q16 44-17 90l-52 67-74 4q-33-9-59-32-20 13-37 37l29 48q18 29 17 53-1 27-23 54l-42 47-27 42-28 32q-73 55-189-27-64 57-101 105 25 35 39 74 16 46 12 83-5 39-44 88l-71 78q-84 91-134 152-50 34-135 30-86-5-127-44-70 47-169 144L467 1572q69 77 59 209-9 115-70 216l-63 1-108-5q-62-8-100-28l20-20 82-88q40-58 33-133-17 4-58 49-40 44-71 48-49 7-84-23-32-27-45-78 10-45 41-86l60-66q-48-14-91 0-33 10-71 40L0 1372q79-24 167-13 92 12 139 57l176-139q96-80 165-151-56-107 3-211 49-87 149-134l9-17q3-13 9-16 24-7 93-52 60-39 105-40 78-1 143 60l115-101-33-62q-13-36 1-72 7-19 87-78 78-57 106-60 38-4 72 14l52 28 11-15q7-7 17-8l-18-45q-14-30-10-52 6-30 57-66 52-37 91-35 20 1 40 15l33 17q1-14-12-36-13-21-11-38 3-22 37-47M1650 283q17 12 38-9 21-21 4-32l-20 21-22 20M1353 523l3 18q11-4 43-35 25-23 58-20-2-10 9-15 11-5 10-13l-60 2-60 44-3 19m399-148 18-23 14-27-14-14-20 26-21 25 12 6 11 7M1536 591q32-36 4-59l-48 49q-33 28-44 52 9 13 41 19 2-11 47-61M1070 808q-35-25-65-10-18 9-54 42l-92 69-83 65 1 22 3 19q20-2 59-35 37-31 70-29 38 2 63 32 24 29 20 65-3 29-43 61-39 32-40 49l23 7 28 2 81-74 80-82 43-43q16-25 3-59-15 0-35 24l-39 32q-20 6-64 0-46-37-16-87l57-70" fill="#fff"/><path d="M1472 0l186 9L0 973V759L745 377 252 233l492-69L521 0h951" fill="#fff" fill-opacity=".8"/><path d="M1678 1729l-109-502-469 773H871L2000 344l-27 1202-191-303-104 486" fill="#fff" fill-opacity=".8"/><path d="M901 307 601 247l387-89L746 14l622 25L901 307" fill="#fff"/><path d="M1768 1022l-98 357-47-301 289-453v635l-144-238" fill="#fff"/></svg>