<?xml version="1.1" encoding="UTF-8"?><svg xmlns="http://www.w3.org/2000/svg" xmlns:xlink="http://www.w3.org/1999/xlink" version="2.0" width="100pt" height="100pt" viewBox="0 0 2000 2000" clip-rule="evenodd" fill-rule="evenodd" preserveAspectRatio="none"><path d="M1598 1204l-3-172-121-281 124 453m168 57-105 27 22 66-27 7 162 607q-38 17-79 24l-163-611-20 5-17-65-96 26-11-43 95-26-10-38-109-173-19-548 255 477-9 211 13 39 107-28 11 43" fill="#fff"/><path d="M499 1254l62-161-6-306-56 467m141 72-6 43-108-13-5 69-27-4-73 579H349l-11-1 75-589-21-3 8-67-98-13 6-43 98 12 5-39-36-201L563 540l57 538-88 192-3 42 111 14" fill="#fff"/><path d="M1164 1296l-37 4 78 700H1093l-77-689-28 2-10-90-133 15-7-60 133-15-5-53L854 857l85-737 245 689-54 281 9 55 149-17 7 60-146 16 15 92m-83-218 30-231-105-400 75 631" fill="#fff"/></svg>