<?xml version="1.0" encoding="UTF-8" standalone="no"?>
<svg xmlns:ffdec="https://www.free-decompiler.com/flash" xmlns:xlink="http://www.w3.org/1999/xlink" ffdec:objectType="shape" height="100.0px" width="100.0px" xmlns="http://www.w3.org/2000/svg">
  <g transform="matrix(1.0, 0.0, 0.0, 1.0, 0.0, 0.0)">
    <path d="M100.0 0.0 L100.0 100.0 0.0 100.0 0.0 0.0 100.0 0.0" fill="#000000" fill-opacity="0.003921569" fill-rule="evenodd" stroke="none"/>
    <path d="M45.15 14.25 L44.85 13.55 Q45.15 13.4 45.15 13.75 48.05 13.85 52.25 16.3 57.6 19.4 61.2 24.95 65.55 31.4 64.3 37.5 62.65 46.25 56.25 61.95 52.25 75.85 58.65 86.55 47.65 86.25 40.45 79.25 32.6 71.75 30.95 61.55 29.75 65.65 30.35 70.5 30.85 74.95 32.7 78.4 33.35 79.55 36.0 82.35 L38.05 84.9 Q31.6 83.25 26.85 78.4 22.2 73.6 20.55 67.0 18.6 59.4 21.4 50.35 23.65 42.75 28.4 36.25 L32.3 30.5 Q34.05 26.8 33.25 22.35 38.15 26.05 40.1 31.75 41.95 37.3 41.35 45.9 41.15 49.65 39.0 57.45 38.35 64.55 44.35 69.15 42.8 60.95 46.2 43.75 49.4 28.15 45.15 14.25" fill="#ffffff" fill-rule="evenodd" stroke="none"/>
    <path d="M72.1 38.6 L72.1 37.9 72.75 37.9 Q78.4 42.2 79.85 52.1 81.25 62.3 76.55 68.95 L69.65 76.45 Q65.65 80.9 64.9 85.5 59.25 75.95 60.1 67.6 60.7 62.4 66.65 53.65 72.2 45.4 72.1 38.6" fill="#ffffff" fill-rule="evenodd" stroke="none"/>
  </g>
</svg>
