<?xml version="1.1" encoding="UTF-8"?><svg xmlns="http://www.w3.org/2000/svg" xmlns:xlink="http://www.w3.org/1999/xlink" version="2.0" width="100pt" height="100pt" viewBox="0 0 2000 2000" clip-rule="evenodd" fill-rule="evenodd" preserveAspectRatio="none"><path d="M1300 1453l35-18 375-15-124 51q-287 138-343 138-38 0-110-84-63-75-84-124l251 52" fill="#fff"/><path d="M1012 1418l-7 43-8 72q0 54 10 151 12 111 26 152 14 78 40 158l-760-1q3-86 20-131 6-17 38-68 6-9 8-61l3-71 58-5 45-16q31-10 54-53l16-42q138-11 163-36 31-30 45-64l9-28h240" fill="#fff"/><path d="M965 67q40 29 57 117l13 100 32 80q9 19-22 33l-32 10 1 62q0 65-8 79-7 14-77 15l-86 1q-23 6-8 25l141 18q41 4 114 35 68 28 92 47 24 20 42 94 19 83 11 165-2 24 2 114l-180 3q-16-36-13-128l-8 37-9 55v22l-92-9-513 25-131 91-1 21q-37-89-24-173l-66 113q-77 116-128 134-68 24 214 38v23l30 50-53 138q-177 4-265-5V931l57-37q26-17 28-34 10-58 21-88 24-67 73-100 194-88 247-94 33-4 117-44l77-39q18-111 0-164-21-63-19-144 3-109 60-144Q721 6 821 17q91 11 144 50" fill="#fff"/><path d="M588 1346q-7 2-17 18-4 7-2 29 1 26 19 38l33 1 33-7 40-28q9-10 6-29-2-21-16-30l-16-1-28 1q-28 8-36 39-1 11 4 18l10 14-21-3-10-14q-2-27 1-46m1102-141 5 12 6 11h119l31-4-2-10-6-5-57-4h-96m-390 156v-8h-14-13q0-27-8-31l-133-1q-91-3-134 1l-65 4H860l-72 2-66 9v28l-5 27q-5 16-25 32-17 11-42 18l-59 8q-11 0-18-7l-12-19v-7l-3-5-20 1q-19 1-26 7l-7 19q-3 11-1 24-28 8-27 47l-46 47-19 12H397l-77-12q-9-19-7-59l46-66 38-51 4-20-13-15-14-12-1-3-3-1-21-11q-13-19-9-102l26-32q9-6 19-8 2-23 16-23l22-7 24-1 4 8 34-4 60-11 47-4 40-1 119-3 254-1 459 4 215 1 202-1 32-2q17 0 29 10l5 25-1 26-8 6-15 2h-16q-8 0-7 8v14q0 7 8 5h31q-3 6 2 12l5 8 4 4 4 8q5 31-12 35l1 12q-1 6-8 3l-11 5-12-1q-41 4-203 4-11 3-11 16l-6 7q-6 1-6 5l-11 4-52 5-59-2H1457l-4 4-4 4q-22 6-73 0h-49-27" fill="#fff"/></svg>