<?xml version="1.1" encoding="UTF-8"?><svg xmlns="http://www.w3.org/2000/svg" xmlns:xlink="http://www.w3.org/1999/xlink" version="2.0" width="100pt" height="100pt" viewBox="0 0 2000 2000" clip-rule="evenodd" fill-rule="evenodd" preserveAspectRatio="none"><path d="M489 1394q-53-27-1-64 52-38 84-10 42 37-2 54l-75 14-6 6" fill="#fff"/><path d="M351 1101l38 11q25 12 22 26-2 13-21 17-52 12-39-54" fill="#fff"/><path d="M1142 1765l5-22q60 0 105 42 49 45 8 92-81 90-125 2-16-32-15-69 2-38 22-45" fill="#fff"/><path d="M794 1395l74 4q52 20 89 65 36 44 45 96 7 48-13 70L788 1818q44 2 66 28 22 24 19 67-3 37-17 52l-36 35H349q-132 0-223-70l668-535" fill="#fff"/><path d="M4 777 346 534q19-10 54 11 35 21 62 58 27 37 33 71 6 34-10 49L310 868q44 4 63 27 21 25 18 68-3 37-17 52L4 1375V777" fill="#fff"/><path d="M1906 305l88-64q10 53 10 105v4l-78 159q-46 89-90 140 69-18 168-65V731l-20 23q-50 60-147 134-122 92-156 124 9-8 24-17l-10 9q139-44 309-119v89q-115 91-278 200l278-16v68q-96 41-155 57l-188 39q-117 25-180 62l105-8-64 25q-42 15-63 29 42 1 110 35 73 35 107 40-45 14-139-9-96-23-138-11 7 3 35 21l-36-19 9 33 9 33-36-19 65 181q32 104 38 184l-92-155-93-153-5 46-33-98-34-103q40-23 92-23l-82-87q66-18 123-48 75-40 100-84l-28 17q24-32 69-64l78-55-138 30 27-29 24-31-25 2q110-213 206-352-77 56-203 163l-200 166q1-67 35-184-49 27-93 92-40 57-61 119-17-87 21-245-98 127-127 338l3-36q-28 64-72 75l-13-43-8-5h4l-14-5-1 7-15-13-12-2 10-3-105-18q-59-12-101-29 32-19 71-32 44-14 77-13-35-9-45-17h10L753 908q-50-73-92-110L893 970l-22-24 4 1q16-34-4-93l-38-90q81 86 119 149 12-25 13-80 0-66 4-84l7-47 5-47q10 30 13 82l6 88 75-181q42-104 65-179l-39 145-38 145 25-76q14-45 27-74l-5 69q-4 39-14 66 36-49 86-145 56-109 82-149l77-112q44-67 62-119l-3 1 60-58-81 249q-43 146-52 256 8-44 40-102l57-93q-31 56-39 83 53-65 164-160l169-155-18 22 61-52q-51 54-102 161l-77 165q57-56 156-121l168-106" fill="#fff"/><path d="M1269 1042l-3 3-1-1 4-3v1" fill="#fff"/><path d="M1259 0 1154 121q-33 40-96 89L955 292l16-11-6 6q180-59 345-152-114 122-324 264l322-23q-39 11-119 48-79 35-122 47L943 497q-76 16-118 41l69-6-42 17q-28 11-41 20 27 0 72 22 49 23 71 26l-92-6-91-6q9 4 23 14l-24-13 6 22 7 22-24-13 43 119q21 69 26 121L767 776 705 675l-3 30-22-64-23-68q25-15 60-15l-54-57 81-32q50-27 65-56l-18 11q16-21 46-42l51-37-91 21 33-40-16 1Q884 191 948 94q-51 37-133 109L684 313q0-48 23-121-32 18-62 60-26 38-39 79-12-55 13-161-65 84-83 223l2-24q-19 42-47 49l-9-28-5-3h2l-9-3v4l-10-8-8-2 6-1-136-31q49-30 98-30l-30-11h7l-54-78q-33-47-61-72L436 267l-15-15h3q10-22-3-62l-25-59q57 63 78 99 9-17 9-54l2-55 8-62 9 54 4 58L575 0h5q-26 90-33 125l34-99-4 45-8 44L635 0h95l-9 64q6-30 24-64h348l-37 53q56-16 129-53h74" fill="#fff"/></svg>