<?xml version="1.1" encoding="UTF-8"?><svg xmlns="http://www.w3.org/2000/svg" xmlns:xlink="http://www.w3.org/1999/xlink" version="2.0" width="100pt" height="100pt" viewBox="0 0 2000 2000" clip-rule="evenodd" fill-rule="evenodd" preserveAspectRatio="none"><path d="M577 1286l-71-123q-25-42 34-116 59-73 166-135 107-62 200-76 93-14 117 28l72 124q-26-42-118-28-93 14-200 76-107 61-166 135-57 73-34 115" fill="#fff"/><path d="M911 1866 603 1331q-23-40 36-112 60-72 167-134 107-62 199-77 93-16 115 24l309 535q33 58-28 138-56 71-162 132-105 60-195 71-101 14-133-42" fill="#fff"/><path d="M1529 803q-1 45 26 82 27 38 71 51 55 17 105-9 51-27 68-82 17-54-10-105-27-51-82-67l-87 2q-43 16-68 53 31 21 23 48-9 27-46 27m-27-41 4-15-14 4 10 11m41 4-6-8-2 6-1 6 9-4M1095 646l10-32 365 113q17-17 51-11 30-49 85-70l111-5q68 21 101 84 33 63 12 130-21 67-83 100-62 33-130 13-57-18-91-66-33-48-30-106-31-13-36-38L1095 646" fill="#fff"/><path d="M1095 646l365 112q5 25 36 38-3 58 30 106 34 48 91 66 68 20 130-13 62-33 83-100 21-67-12-130-33-63-101-84l-111 5q-55 21-85 70-34-6-51 11L1105 614l-10 32m448 120-9 4 1-6 2-6 6 8m-41-4-10-11 14-4-4 15m27 41q37 0 46-27 8-27-23-48 25-37 68-53l87-2q55 16 82 67 27 51 10 105-17 55-68 82-50 26-105 9-44-13-71-51-27-37-26-82" fill="none" stroke="#fff" stroke-width="20" stroke-linejoin="bevel"/><path d="M773 3 963 588 597 3H773" fill="#fff" fill-opacity=".8"/><path d="M1052 395 883 3h212l-43 392" fill="#fff" fill-opacity=".8"/><path d="M1223 3h293L1143 507 1223 3" fill="#fff" fill-opacity=".8"/><path d="M1036 1701l131 168 353-165-216 233 618-292-377 290 322-73-245 132H1521l101-39-178 13 100-88-288 114h-69l110-128-178 92-83-123-110 127-182-93 107 125H761l-220-94 35 65-220-34 124 63H380L97 1850l376 55L70 1667l629 240-189-206 385 182 141-182" fill="#fff"/></svg>