<?xml version="1.1" encoding="UTF-8"?><svg xmlns="http://www.w3.org/2000/svg" xmlns:xlink="http://www.w3.org/1999/xlink" version="2.0" width="100pt" height="100pt" viewBox="0 0 2000 2000" clip-rule="evenodd" fill-rule="evenodd" preserveAspectRatio="none"><path d="M971 792q0 38-27 64-26 27-64 27-38 0-65-27-27-26-27-64 0-38 27-65 27-27 65-27 38 0 64 27 27 27 27 65" fill="#fff"/><path d="M722 441q0 38-27 65-27 27-65 27-38 0-64-27-27-27-27-65 0-37 27-64 27-27 64-27 38 0 65 27 27 26 27 64" fill="#fff"/><path d="M1537 441q0 38-27 65-27 27-65 27-38 0-64-27-27-27-27-65 0-37 27-64 27-27 64-27 38 0 65 27 27 26 27 64" fill="#fff"/><path d="M1340 126q0 38-27 65-27 27-65 27-38 0-64-27-27-27-27-65 0-38 27-65 26-26 64-26 38 0 65 26 27 27 27 65" fill="#fff"/><path d="M1706 126q0 38-27 65-27 27-65 27-38 0-64-27-27-27-27-65 0-38 27-65 26-26 64-26 38 0 65 26 27 27 27 65" fill="#fff"/><path d="M1154 441q0 38-27 65-26 27-64 27-38 0-65-27-27-27-27-65 0-38 27-64 27-27 65-27 38 0 64 27 27 27 27 64" fill="#fff"/><path d="M739 49q26-27 64-27 38 0 65 27 27 27 27 65 0 38-27 64-27 27-65 27-37 0-64-27-27-26-27-64 0-38 27-65" fill="#fff"/><path d="M529 114q0 38-27 64-27 27-65 27-37 0-64-27-27-26-27-64 0-38 27-65 26-27 64-27 38 0 65 27 27 27 27 65" fill="#fff"/><path d="M1333 813q0 38-27 65-27 27-65 27-38 0-64-27-27-27-27-65 0-37 27-64 27-27 64-27 38 0 65 27 27 26 27 64" fill="#fff"/><path d="M132 114 650 883q155 59 206 59l385 10 113 33 503-716-243 716 356-228-447 621q2-63-19-137-41-149-150-207-111-60-227-69-479-30-562 26-43 29-59 105l-30 185L27 557 476 860 132 114" fill="#fff" fill-opacity=".8"/><path d="M1343 1325q8-90-72-162-81-71-202-82-121-10-213 46-92 56-100 146-7 91 73 162 81 72 202 82 121 11 213-46 91-56 99-146m-641-56q1-27 12-61 21-70 69-110 13-8-50-15l-96-6-58 929H539l35-971 43-30 170 4q323-61 489 34 83 48 101 108 26 30 27 85l-7 94-33 676-444-1 10-36q46-121 91-174 13-15 90-60l92-58q52-43 63-105l-57 36q-122 74-281 37-81-18-143-54 3 57-25 415H667l35-737" fill="#fff"/></svg>