<?xml version="1.1" encoding="UTF-8"?><svg xmlns="http://www.w3.org/2000/svg" xmlns:xlink="http://www.w3.org/1999/xlink" version="2.0" width="100pt" height="100pt" viewBox="0 0 2000 2000" clip-rule="evenodd" fill-rule="evenodd" preserveAspectRatio="none"><path d="M1012 1093l-37-32q-5-5 45 131 56 155 59 199 2 31-32 66-43 46-47 54L900 1674l-95 106q69-41 176-176 100-133 117-150 22-22 28-60l2-34q-2 23-91-223-8-27-25-44M167 613l-33-37q-16-21-19-48-2-25 6-43 9-20 31-41 24-25 41-26l56 11 37 13q-8-10-1-10l18 12 12 11 13 8 15 13 4 19 6 27 27 33 29 30q9 12 32 20l37 1 36-30q26-20 39-16l77 19 69 13 55 12 70 2 141-65 63-38 51-34 6-21q5-14 24-30l60-48 5 5q3 10-5 31-9 23-1 25 8 2 16-15 17-31 0-54-9-15 10-4 18 10 20 28l5 26v17q9-17 1-48-7-26-18-38l-9-6 11-4q13-3 19 4 9 9 15 39 7 32-3 38l-22 29q-15 24-27 26l-40 13q-24 11-35 20l-43 41-51 44-67 40-59 39-26 23-41 5-56-8-53-3-28-2q46 43 77 58 97 48 104 53 33 21 79 76 9 11 44 35l46 40 126 180q137 173 134 212l-4 54q-6 29-28 53l-70 98q-54 79-83 104-23 21-86 48-42 18-30 30 14 14 64 33l63 23q16 8 26 21 10 13 5 19l-74-3-92-12-79-17-76-8-42 2q-21 1-16 19 5 18 36 53l36 42 7 18q-3 6-32 8l-78-3q-46-6-57-14l-14-19-21-22-34-18q-16-11-10-27 6-17 15-32l8-11q-11-31 5-47l28-36 23-31q88-116 86-123-2-8 2-33 6-28 16-34l27-18q14-12 11-18v-60q0-56-10-67l-42-72-30-58q-51-53-70-116-12-37-27-57l-19-26-7-31q-3-17-20-25l-73-24-76-18q-13-2-50-16-27-11-29-5-3 9-7 63-6 58-5 79v109q-2 21-24 89l-43 105q-15 25-29 74l-20 59-40 57-34 50q-5 13-19 13-14-1-6-14 8-12-6 3l-17 21q-3 7-35 19-2 3-11-13l-8-23q0-24 9-43l18-28 19-25q6-12 36-36l36-30 21-44 14-46 44-198q1-8 11-20 8-9 5-24-3-13-3-68l-3-69-17-59q-13-44-11-70 3-27 15-43l24-20 37-24V674l-31-18q-33-18-41-20-13-4-23 0l6 11q5 11-6 13l-35-4q-22-7-25-22l-5-21" fill="#fff"/><path d="M1608 1076l-338-74 279-254-449-67 367-215L1100 6l648 354-53-284 303 284V1514l-409 329 108-293-454 166 365-640" fill="#fff" fill-opacity=".8"/><path d="M1818 1040 1531 914l217-209-356-85 254-46-87-161 310 129-30-225 159 225v851l-205 163 25-215-284 97 284-398" fill="#fff"/></svg>