<?xml version="1.1" encoding="UTF-8"?><svg xmlns="http://www.w3.org/2000/svg" xmlns:xlink="http://www.w3.org/1999/xlink" version="2.0" width="100pt" height="100pt" viewBox="0 0 2000 2000" clip-rule="evenodd" fill-rule="evenodd" preserveAspectRatio="none"><path d="M810 726q-46-31-109-55l-54-17 52-5q61-2 100 15l106 65 68 49-93 109q-2-30-12-65-19-70-58-96" fill="#fff" fill-opacity=".8"/><path d="M1000 748q-58-115-94-145-32-26-111-48l-72-17 59-9 109 9 74 41q63 44 124 79l-89 90" fill="#fff" fill-opacity=".8"/><path d="M1112 641Q1000 531 916 482q-38-22-129-46l-83-20 82-7q102 1 204 38 66 24 151 67l72 38-101 89" fill="#fff" fill-opacity=".8"/><path d="M958 795l-87-89q31 30 68 25 23-2 15-42l-12-40 82 75-66 71" fill="#fff"/><path d="M1058 690 979 589q42 43 63 37 12-4-16-46l-31-42 142 81-79 71" fill="#fff"/><path d="M1879 1279q-8-42-53-100l-43-50-45 50 27 22q31 32 57 81 26 49 28 93l-4 35 21-38q20-47 12-93m-77-217 33 43q38 53 59 106 68 171-54 275-107 93-266 32-79-31-137-80 7-15 32-47 50-65 139-152 89-87 151-141l43-36" fill="#fff"/><path d="M1329 776l299 295 45-58-287-291-57 54m-94-173q63-54 56-40-30 62 28 73l64-2 389 372-52 39q-70 56-159 143-143 139-185 205L999 1010l2-20-4-55-52-1q-16 14-21-3l-2-20 174-182q72-70 139-126" fill="#fff"/><path d="M432 485Q311 543 108 614L0 650V522l84-11 348-26" fill="#fff" fill-opacity=".8"/><path d="M225 752 9 896l-9 5V774q91-52 181-96 145-68 245-97-79 81-201 171" fill="#fff" fill-opacity=".8"/><path d="M0 1069Q95 966 190 877 343 735 459 658 398 779 274 951 170 1092 58 1217L0 1281V1069" fill="#fff" fill-opacity=".8"/></svg>