<?xml version="1.1" encoding="UTF-8"?><svg xmlns="http://www.w3.org/2000/svg" xmlns:xlink="http://www.w3.org/1999/xlink" version="2.0" width="100pt" height="100pt" viewBox="0 0 2000 2000" clip-rule="evenodd" fill-rule="evenodd" preserveAspectRatio="none"><path d="M1383 1518q0 86-114 147-114 60-275 60-161 0-275-61-114-61-114-147 0-47 41-91v38q0 90 109 145 98 49 240 51 143 1 241-47 109-54 109-148v-35q38 43 38 88" fill="#fff"/><path d="M1156 335q-66-17-160-18-94 0-160 17-67 17-67 42 0 24 67 42l160 17 160-17q66-17 66-42 0-24-66-41m40-33q83 33 83 80l-1 702q-6 45-88 76-82 31-195 31l-106-8 1-671-91-40v687q-82-31-87-76l1-702q0-47 83-80 83-33 200-33 118 1 200 34" fill="#fff"/><path d="M1278 1133l-1 327q0 68-88 106-80 35-195 34-115-1-195-36-88-40-88-105l1-328q4 44 86 77v272l91 42V1231l106 9q113 0 195-31 82-31 88-76" fill="#fff"/><path d="M383 119h10q23 50 34 123l6 61-3 62-14 61-12 61q-4 55 11 123 18 72 20 123 8 80 6 122-1 55-13 123-18 82-35 123H383q-19-46-34-123-13-64-14-123-2-42 6-122 3-51 20-123 15-68 11-123l-11-61-15-61q-5-33-2-62l5-61q11-73 34-123" fill="#fff"/><path d="M546 778h10q24 53 33 123l6 61q2 37-3 62l-14 61q-9 39-11 61-5 50 11 123 15 65 19 118-40 29-60 69-28 58-9 129 11 45 54 88-10 48-26 87H546q-20-45-35-123-11-66-14-123-1-48 6-122 4-59 20-123 16-67 11-123l-11-61-14-61-3-62 6-61q11-73 34-123" fill="#fff"/><path d="M644 1841q23 50 34 123l3 36H596l4-36q11-73 34-123h10" fill="#fff"/><path d="M907 79h10q23 49 33 116l-77 8v-1q11-73 34-123" fill="#fff"/><path d="M616 769l-6-62q-2-31 3-61 3-19 13-57V824l-10-55" fill="#fff"/><path d="M615 32l7-32h65l7 32q11 55 14 123l-3 92q-79 35-79 91v55q-15-63-19-115l-6-123q3-57 14-123" fill="#fff"/><path d="M1062 1822l-5-33 91-13-7 46q-15 77-34 123h-10q-17-41-35-123" fill="#fff"/><path d="M1376 119h10q21 50 35 123 11 66 14 123l-6 122q-4 59-20 123-16 66-12 123l12 61 14 61 3 62-6 61q-11 73-34 123h-10q-23-50-34-123l-5-61q-2-37 3-62l14-61 11-61q5-50-11-123-16-64-20-123l-5-134q3-59 13-111 15-77 34-123" fill="#fff"/><path d="M1102 105 1113 0h85l11 105q2 41-6 123l-97-22q-5-59-4-101" fill="#fff"/><path d="M845 1886q-15 62-12 114H801q4-51-11-114-16-63-20-119l93 17-18 102" fill="#fff"/><path d="M1355 1192q17 41 35 123 10 53 13 114-25-33-52-50l-22-11V1239l16-47h10" fill="#fff"/><path d="M1334 1805q4-46-7-101l56-45-6 24q-15 68-11 122l12 62 14 61q5 31 3 61l-1 11h-88v-11q-3-28 2-61l15-61 11-62" fill="#fff"/><path d="M1527 67l6-67h95l6 67-6 123q-4 59-20 123-16 72-11 122 2 23 11 62l14 61q5 25 3 61l-5 62q-11 73-34 122h-10q-23-49-34-122l-6-62q-1-30 3-61l14-61 12-62q4-56-12-122-16-64-20-123l-6-123" fill="#fff"/><path d="M428 1392q12 68 13 122 2 41-6 123-2 51-20 123-15 68-11 123 2 22 11 59l14 58H347l14-58 11-59q4-55-11-123-17-72-20-123-8-82-6-123 1-58 14-122 15-77 34-123h10q17 41 35 123" fill="#fff"/><path d="M1505 1088l5-61q11-73 34-123h10q23 50 34 123l6 61-3 62-14 61q-10 38-11 61-5 56 11 123 16 64 20 123l6 122q-3 57-14 123-15 78-35 123h-10q-19-46-34-123-11-55-14-123-2-40 6-122 4-59 20-123 16-73 11-123l-11-61-14-61q-5-25-3-62" fill="#fff"/><path d="M1328 1465v-35q38 43 38 88-1 86-115 147-114 60-275 60-161 0-274-61-114-61-114-147 0-46 40-91v38q0 90 109 145 99 49 241 51 142 1 240-47 110-54 110-148" fill="#fff"/><path d="M1138 335 978 317q-94 0-160 17-66 17-66 42 0 24 66 42l160 17 160-17q67-17 67-42 0-24-67-41m40-33q83 33 83 80l-1 702q-6 45-87 76-82 31-196 31l-105-8 1-671-91-40-1 687q-81-30-87-76l1-702q0-47 83-80 83-33 200-33 118 1 200 34" fill="#fff"/><path d="M1260 1133v327q0 68-88 106-80 35-195 34-115-1-195-36-88-40-88-105V1131q6 45 87 77v272l90 42 1-291 105 9q114 0 196-31 81-31 87-76" fill="#fff"/></svg>