<?xml version="1.1" encoding="UTF-8"?><svg xmlns="http://www.w3.org/2000/svg" xmlns:xlink="http://www.w3.org/1999/xlink" version="2.0" width="100pt" height="100pt" viewBox="0 0 2000 2000" clip-rule="evenodd" fill-rule="evenodd" preserveAspectRatio="none"><path d="M282 1119q14-34 1-112l-16-71 165 333-30 60q-35-45-35-53l-85-157" fill="#fff"/><path d="M499 1374l43-52 371 12-71 15q-76 20-102 47l-178-12-63-10" fill="#fff"/><path d="M362 1592l20-30 97 180q91 176 64 160-26-17-50-7l-19 13-112-316" fill="#fff"/><path d="M29 1582q-31-1 105-32l142-30v41l-131 56q-65-34-116-35" fill="#fff"/><path d="M1978 195l10 59q-239 40-533 216l43 45 23 30q19 35-4 57l-57-1-31-29-41-61-34 23 41 62 18 38q3 18-12 30-13 12-33-7l-75-82Q984 791 710 1083q-125 133-235 296l63 28 33 19q30 24 18 54-12 30-53 21l-39-15-64-42-22 35 64 42 31 28q9 15 0 33-7 16-33 6l-100-46q-118 201-200 412l-51-34q75-195 196-403l-34-15-33-18q-30-25-18-55 12-29 53-21l39 15 36 23 22-35-36-23-31-28q-9-15-1-33 8-16 34-6l24 13 47 21q114-172 246-313 271-290 586-511l-25-27-22-30q-18-34 4-57l57 2q17 12 30 28l25 37 34-23-25-38q-16-23-18-37-3-18 12-31 14-11 34 8l17 21 39 41q302-184 559-229l5-1" fill="#fff"/><path d="M1375 151q34-34 52-141l1-1h6v1l21 337-51 44-7-28q-7-30-5-34 3-7-17-178" fill="#fff"/><path d="M1872 594l-71-14-112 4-77-40q-78-41-83-41-7 1-53-33l59-32 337 156" fill="#fff"/><path d="M1265 617l29-19q46 416 17 375-18-26-44-26l-22 5 20-335" fill="#fff"/><path d="M962 478q-29-13 108 12l143 27-16 38H1054q-46-56-92-77" fill="#fff"/></svg>