<?xml version="1.1" encoding="UTF-8"?><svg xmlns="http://www.w3.org/2000/svg" xmlns:xlink="http://www.w3.org/1999/xlink" version="2.0" width="100pt" height="100pt" viewBox="0 0 2000 2000" clip-rule="evenodd" fill-rule="evenodd" preserveAspectRatio="none"><path d="M324 761q9 10-5 15-17 3-76 24-46 17-77 15 82-46 158-54" fill="#fff"/><path d="M358 887q-24 20-60 26l-63 4-95 29-98 14q22-22 64-38l75-24q31-9 77-16l75-12 7-1 7-1 11 19" fill="#fff"/><path d="M876 766l-19 21-20 18-206 37-206 43q-6-1-8 9-2 11-10 9-20-22-28-74l-12-87h1v-4l-1-5v-2q0-9 10-9 10-1 10 8l2 7q80-21 218-47l218-44 20 11 19 4q120-24 286-21l2 2h2l6 3 7 8q1 7-4 10l-17 10-20 12-5 2-47 21-49 16q-75 28-149 42m-64-65h-4l-2-1-6 1q-70 2-182 32L438 776h-2l-12 6q-10 8-1 17 8 10 17 2h2l38-8 125-32 51-13 86-17 68-5q12 0 13-12 1-13-11-13" fill="#fff"/><path d="M1062 939q6 12-8 14l-79 6-80-2q92-26 167-18" fill="#fff"/><path d="M1067 1070q-28 14-64 11l-63-10-99 8-98-9q26-16 71-22l78-7 79 1 76 6 7 1 7-1 6 22" fill="#fff"/><path d="M1131 923l-1 7q81-2 223 3l223 6 17 15 17 8q117 2 284 43l2 3 1 1 5 4q6 3 5 9l-5 9-20 6-22 7h-5l-50 10-51 5-155 8-23 16-24 14-209-10-210-4q-6-2-10 7-4 10-12 6-15-25-10-79l7-87h1l1-4v-7q2-8 12-7 11 2 9 11m205 79 17-1 35-1 88 3 68 10q11 3 15-9 4-12-8-14l-4-1-1-2h-7l-184-10q-142 5-185 2h-2q-8 0-13 3-11 5-5 17 5 11 16 5l-1 1h41 1l129-3" fill="#fff"/><path d="M818 284q9 10-4 15-19 4-76 26-46 19-77 18 83-49 157-59" fill="#fff"/><path d="M856 409q-24 20-59 27l-64 7-94 32-97 16q22-22 63-39l74-26 152-33 7-1 6-2 12 19" fill="#fff"/><path d="M1335 164l19 3q118-28 285-30l3 2h1l7 3 7 8-3 10-37 23-5 2-46 22-48 18q-87 34-148 46l-19 22-19 19q-76 10-205 44L923 405q-6-1-7 9-2 11-10 9-21-21-31-73l-15-86 2-1-2-8v-3q-1-9 9-10 10 0 11 8l2 7q79-22 216-53l217-50q9 7 20 10M1099 275l50-15 86-19 68-7q12-1 13-13 0-13-12-12h-4l-2-1-6 1q-71 4-181 37L933 295l-3 1q-8 2-12 6-9 8 0 17l17 1-1 1 3-1 37-9h1l124-36" fill="#fff"/><path d="M818 1712q-73-9-157-58 31-1 77 17l76 25q14 5 4 16" fill="#fff"/><path d="M604 1546q-41-18-63-40 67 2 191 48l64 6q35 6 59 26l-12 20-6-2-7-1-75-13-77-19-74-25" fill="#fff"/><path d="M874 1646q9-53 30-74 8-2 10 9 2 10 8 9 60 10 204 47 130 33 205 42l20 19 19 21q76 16 148 46l49 17q29 11 46 22l5 1 19 13q9 2 18 10l3 10-7 8-6 3h-1l-3 2q-166 0-286-27l-19 4-20 9-217-48-217-52-1 7-11 8q-10-1-10-9l1-3h-1l2-8-2-1 14-85m100 37-38-9h-1l-17 1q-9 10 0 18l12 6 3 1q43 7 178 47 111 32 181 35l7 1 1-1 4 1q13 0 12-12-1-13-13-13l-68-7q-38-14-86-19l-50-14-124-35h-1" fill="#fff"/><path d="M359 1170q-2 33-85 0 17-13 43-6l42 6" fill="#fff"/><path d="M362 1222l-139-9-139-36 139 14 139 31" fill="#fff"/><path d="M1019 1318l-34-1 67 10-33-9M462 1203q-12 0-12 13 0 13 12 13l70 5 273 49 35 10q11 4 15-8 3-12-9-16l-91-22-94-14-99-19-100-11m-47 100-12 3-12 8q5-83 28-162h1l2-13q2-7 10-7 9 0 10 7l1 15q87 8 217 34l216 44 11 8 10 6 7 11 141 34q79 25 141 64l-25 15-21 4-53 5-49-2-77-6-74-12-19 8-20 10-433-74" fill="#fff"/></svg>