<?xml version="1.1" encoding="UTF-8"?><svg xmlns="http://www.w3.org/2000/svg" xmlns:xlink="http://www.w3.org/1999/xlink" version="2.0" width="100pt" height="100pt" viewBox="0 0 2000 2000" clip-rule="evenodd" fill-rule="evenodd" preserveAspectRatio="none"><path d="M508 982l64-4q78 12 160 1l123 15q21 5 27-17 7-22-15-26l-8-2-2-2H845L511 937 175 950l-4 1-24 5q-19 11-8 31 11 20 30 9l-2 2 5-1h72l233-13 31-2m997 26-83 27-91 21-93 11-281 21q-15 17-42 30-29 15-42 27-140-14-380-7-276 8-380 3-11-4-17 14-7 17-21 11-28-46-24-142 11-110 9-158l3-1V850h1v-5q3-16 21-13 18 2 16 18v13q148-7 404-5H909l32 26 32 13q216-1 516 65l4 5 12 8q10 5 9 17l-9 16" fill="#fff"/><path d="M1504 165V42q0-10 7-16 7-7 16-7 10 0 17 7 7 6 7 16V165q167 18 282 257 116 240 116 571 0 332-116 572-116 239-283 257v135q0 10-7 17l-16 7q-10 0-17-7-7-7-7-17V1822q-142-16-250-199-108-182-137-453l76-18q27 215 112 359 86 145 200 160V1150q0-9 7-16 7-7 16-7 10 0 17 7 7 7 7 17l-1 520q132-17 225-205 93-188 97-450H1599q-10 0-17-7-7-6-7-16 0-10 7-16 7-7 17-7h273q-4-262-97-450-92-188-224-205V874q0 10-7 16-7 7-17 7-9 0-16-7-7-6-7-16V315q-115 15-202 164-87 147-112 366l-76-18q29-275 137-460 109-187 253-202" fill="#fff"/></svg>