<?xml version="1.1" encoding="UTF-8"?><svg xmlns="http://www.w3.org/2000/svg" xmlns:xlink="http://www.w3.org/1999/xlink" version="2.0" width="100pt" height="100pt" viewBox="0 0 2000 2000" clip-rule="evenodd" fill-rule="evenodd" preserveAspectRatio="none"><g transform="translate(683 662)"><path d="M2 345Q-13 218 86 106 185-6 320 0q67 3 115 28L400 152l-81-4q-91 4-136 44-46 41-52 130-3 45 3 82L37 450Q10 409 2 345" fill="#fff" fill-opacity=".52"/></g><path d="M866 854l41-25q-40 24-64 65-25 43-25 92 0 76 54 129 53 54 129 54 76 0 129-54 54-53 54-129 0-62-37-110-36-48-93-65l29 3 35-124q-48-25-115-28-135-6-234 106-99 112-84 239 8 64 35 105l97-46q-6-37-3-82 6-89 52-130m707 352-62-20q-76-26-98-20l-36 11q26 62 17 67l-39 9-43 12-83 68 30 72q29 75 22 91l-17 41-126-167-62 6q-5-2-10 50l-4 52-51 5-32 86-24-126-65-65-80 57-19-119q-89-69-97-88-5-12-120 1l-114 15 186-132q-8-59-37-75l-34-15-13-4-5-48-129-49 181-37q26-70 21-100l-13-39-8-17h64l64-73-99-177 73 47q74 50 77 68 5 30 32-21l25 16 29 4q37-2 78-31 41-29 67-17l19 17 67-129v85l49 25v41l46 20 13 12q30-9 65-29 69-39 91-89 22-51 2 38l-24 99h47l-55 72 1 18q4 19 18 25 16 8 44 52 29 43 29 61v59l24 22-61 48q-7 94 0 100l88 55q84 53 91 60" fill="#fff"/></svg>