<?xml version="1.1" encoding="UTF-8"?><svg xmlns="http://www.w3.org/2000/svg" xmlns:xlink="http://www.w3.org/1999/xlink" version="2.0" width="100pt" height="100pt" viewBox="0 0 2000 2000" clip-rule="evenodd" fill-rule="evenodd" preserveAspectRatio="none"><path d="M148 998l6-1h71l234-13 95-6q78 12 159 1l123 15q22 5 28-17 6-21-16-26l-7-2-2-2H827L493 937 157 950l-4 1-24 6q-20 11-8 30 11 20 30 9l-3 2M83 851l-1 13q150-8 405-6H891l32 26 31 13q218-1 516 65l5 6 12 7q10 5 9 17-1 11-10 16l-83 27q-34 13-90 21l-93 11-281 22-42 30-42 26q-140-14-380-7-276 8-380 3-11-4-17 14-7 17-21 11-28-46-24-142 10-110 8-158h4V850h1v-5q3-16 21-13 18 3 16 19" fill="#fff"/><path d="M403 558 282 437H1407l562 563-562 563H282l121-121 917 1 471-451-466-434H403" fill="url(#A)"/><defs><linearGradient id="A" x1="-16384" x2="16384" gradientUnits="userSpaceOnUse" gradientTransform="matrix(.05 0 0-.05 1126 1000)"><stop offset="0" stop-color="#fff" stop-opacity="0"/><stop offset="1" stop-color="#fff"/></linearGradient></defs></svg>