<?xml version="1.1" encoding="UTF-8"?><svg xmlns="http://www.w3.org/2000/svg" xmlns:xlink="http://www.w3.org/1999/xlink" version="2.0" width="100pt" height="100pt" viewBox="0 0 2000 2000" clip-rule="evenodd" fill-rule="evenodd" preserveAspectRatio="none"><path d="M1458 756q-13 32-51 62l-60 51q42 13 82-14 41-28 46-79 2-29-3-27-9 9-14 7m449 193q46 131 39 315-7 181-60 324l-32 80q-23 44-53 53-36-27-23-90l20-106q-3-75-40-124-25-33-98-88-98-35-208-88l-165-80q-176-82-346-75l-171 23-184 5q28-34 80-31l99 8q55-5 142-43 87-38 115-40l166 13q85 5 106-57 12-35-5-86-20-61-19-83 2-48 28-95 28-51 68-65 66-24 158 16 109 47 162 46l121 115q63 69 100 153" fill="#fff"/><path d="M833 553q76 27 84 86l-29 12q-12 2-31-7 23 103-50 173-64 62-147 61-95-1-174-78-86-84-46-178 14-32 60-59l88-50-89-2-86 69-83 20q-49 12-62 49-56-72 129-120 32-9 125-67 59-37 121-14 13 5 33 31l32 34q34 19 125 40m-87 32q-44-29-103-26-61 3-97 40-42 43-31 115 7 36 51 62 88 35 157 3 68-33 69-108 1-53-46-86" fill="#fff"/><path d="M643 603q49-13 74 37 8 64-43 78-49 14-73-30-9-72 42-85" fill="#fff"/><path d="M1673 1437q-66 8-150-32l-136-63q-102-30-226-34l-238 8q30-29 121-37 100-9 130-27-60-107-271-88l-175 17q-99 4-160-21 21-21 55-17l56 7 195-19q123-12 209 5 32 6 79 28 27 12 80 39l310 143 77 31q43 22 44 60" fill="#fff"/><path d="M1433 552l-98-5q-62 12-109 95-46 83-39 169l8 37 12 51q2 27-9 42-14 19-45 13l-153-17-59 7q-15 4-48 18-51 23-109 37l-155 14-131 13q-50 15-61 62-8 36 25 81 26 36 68 63 42 27 77 30l76-4 58-18q59-21 95-21l61 8 52 12-50 21q-42 17-97 23-38 5-49 12-16 10-22 41l4 60 168-15q159 0 330 41 171 41 274 104l8 5 1 9q12 126 52 235 34 94 106 217h-40q-61-105-95-197-43-115-57-243-101-59-264-98-164-38-315-38-99 0-181 19l-21 5v-22l-5-79-1-3 1-3q4-27 16-46l-108 10q-43-4-91-34-48-30-79-73-42-57-31-110 15-65 82-87 41-13 143-15l148-13q55-14 104-36 33-14 52-19l68-8 159 18h11q5-7-8-62l-10-44q-8-95 43-188 54-99 134-113l43-4q64 0 172 45l42 16Q1433 273 876 273l-60 1q-162 4-419 79Q192 413 5 493q-3 2-5-32 187-82 391-142 256-76 424-80l61-1q309 0 497 88 188 88 262 267l14 33-35-10-83-30q-59-24-98-34" fill="#fff"/></svg>