<?xml version="1.1" encoding="UTF-8"?><svg xmlns="http://www.w3.org/2000/svg" xmlns:xlink="http://www.w3.org/1999/xlink" version="2.0" width="100pt" height="100pt" viewBox="0 0 2000 2000" clip-rule="evenodd" fill-rule="evenodd" preserveAspectRatio="none"><g transform="translate(258 253)"><g transform="matrix(.61 0 0 .61 1 1)"><path d="M289 133q-83 4-124 41-41 36-46 118-3 41 2 74L34 408Q9 371 2 313-11 197 78 96 167-5 290 0q61 2 104 25L363 137l-74-4" fill="#fff" fill-opacity=".52"/></g></g><path d="M465 336l16 2 20-69q-27-14-64-15-76-3-131 59-55 62-46 133 4 35 19 58l54-25-2-46q3-50 29-72l23-15q-23 14-36 37-14 24-14 51 0 42 30 72 30 30 72 30 43 0 72-30 30-30 30-72 0-34-20-61-20-27-52-37M348 212l17 2q21-1 43-17 23-16 38-9 7 3 10 9l38-72v48l27 14v22l25 11 7 7 36-16q39-22 51-50 13-28 2 22l-14 55h27l-31 40 1 10q2 10 9 14 9 5 25 29 16 24 16 34v33l13 12-33 27q-4 52 0 55l99 65-34-11q-43-16-55-12l-20 6q15 35 10 38l-23 5-23 7-47 37 17 40q16 43 12 52l-9 22-70-93-35 3q-2-1-5 28l-2 29-29 3-18 48-13-70-36-36-45 31-11-66q-49-39-54-49-2-7-66 0l-64 9 103-74q-4-33-20-42l-19-8-7-2-3-27-72-27 101-21q14-39 11-55l-7-22-4-10h35l36-40-55-99 41 26q41 28 43 38 3 17 18-12l13 9" fill="#fff"/><g transform="translate(545 1287)"><g transform="matrix(.79 0 0 .79 0 1)"><path d="M289 133q-83 4-124 41-41 36-46 118-3 41 2 74L34 408Q9 371 2 313-11 197 78 96 167-5 290 0q61 2 104 25L363 137l-74-4" fill="#fff" fill-opacity=".52"/></g></g><path d="M606 1363q-71 80-59 171 5 46 25 75l69-33q-4-26-2-58 4-64 36-93 12-11 30-19-29 18-46 47-18 31-18 66 0 54 39 92 38 38 92 38 54 0 93-38 38-38 38-92 0-43-27-79-25-34-66-47l21 3 25-88q-34-18-83-20-96-4-167 75m-41-174q53 36 55 49 4 22 23-15l17 12q31 13 77-20 29-20 48-12l14 12 47-92v61l35 18v29l33 14 9 9 47-21q49-28 65-64 15-36 1 28l-17 70h34l-40 52 1 13q3 13 13 18 11 5 32 36 20 31 20 44v43l17 15-43 34q-5 68 0 71l63 40 64 43-44-14q-55-20-70-15l-26 8q19 44 13 48l-28 6q-25 5-31 9l-59 48 22 51q20 54 15 66l-12 29-91-119-44 4q-3-1-6 36l-3 37-37 4-23 61-17-90-46-46-58 40-13-84q-63-50-69-64-4-8-86 1l-81 11 132-94q-5-42-26-54-12-7-24-11l-9-2-4-35-92-34 129-27q19-50 15-71l-9-28-6-13h46l46-51-71-127 52 33" fill="#fff"/><g transform="translate(1177 377)"><path d="M289 133q-83 4-124 41-41 36-46 118-3 41 2 74L34 408Q9 371 2 313-11 197 78 96 167-5 290 0q61 2 104 25L363 137l-74-4" fill="#fff" fill-opacity=".52"/></g><path d="M1598 570q-33-43-85-59l27 3 31-112q-43-23-104-25-123-5-212 96-89 101-76 217 7 58 32 95l87-42q-5-33-2-74 5-82 46-118 16-15 38-23-37 21-58 59-23 38-23 83 0 69 49 118 48 48 117 48 69 0 118-48 48-49 48-118 0-55-33-100M1482 270l17 15 61-117v78l44 22v37l41 18 12 11 59-26q63-35 82-81 20-46 3 35l-22 89h42l-49 66 1 16q4 17 16 23 15 8 40 47 25 39 25 55v54l22 19-55 44q-6 85 0 90l80 51 83 54-57-19q-68-24-88-18l-33 10q24 56 15 61l-35 8q-32 6-39 11l-75 61 27 65q26 68 20 84l-16 36-114-151-56 5q-4-1-9 46l-3 47-47 5-29 78-22-115-58-58-73 51-17-107q-81-64-88-81-4-11-109 1L975 904l168-119q-7-54-33-69l-30-14-12-3-5-44-117-43 164-34q24-64 19-91l-11-35-8-16h58l58-66-90-160 66 42q67 46 70 62 5 27 30-19l21 15 27 3q34-2 71-28 36-26 61-15" fill="#fff"/></svg>