<?xml version="1.1" encoding="UTF-8"?><svg xmlns="http://www.w3.org/2000/svg" xmlns:xlink="http://www.w3.org/1999/xlink" version="2.0" width="100pt" height="100pt" viewBox="0 0 2000 2000" clip-rule="evenodd" fill-rule="evenodd" preserveAspectRatio="none"><path d="M473 1374q4 14 14 15l22 2 14 16 14 19 49 23q32 19 65 27l-67-14-68-8-2 10q-13-1-36-18l-35-24-37-4H369q1-12-9-17l-15-10-85-32-43-10-42-13 42 5 44 16 80 12 35 6 35 6 32-3 30-4" fill="#fff"/><path d="M1702 1362q-36 26-51 54l-57-3-55 19q-20 7-43 21-30 20-52 15l-3-7-5-7q-22-1-61 19-40 21-61 20l15-7 12-12 52-30q34-25 52-32l39-7 39-2q-3-32 48-65l78-47 80-53 34-24 1-1q18-21 39-34l-40 35q-19 24-21 44l47-4 48-12 129-27-27 14-28 17q-109 52-145 75l-64 41" fill="#fff"/><path d="M1212 1162q24-4 30 16 5 17-6 35l-4 1-3-3q-8-4-12-22l-5-27" fill="#373535"/><path d="M759 1304l-27-30q22-1 41 8 24 10 2 28l-16-6" fill="#373535"/><path d="M1438 804q-17 13-26 44l-13 50q-8 33-58 85l-24 16q-18 9-21 15-2 5 3 24 4 19 0 29l-13 19q-8 9-11 24-5 48 17 50l7 30q12 31 46 16 0-17-15-29 54-28 71-50 15-19 10-38l-9-42q1-22 9-55l14-55q17-81 13-133m-307 862q3-15-4-29-9-16-22-10l-6 13q-12 8-6 26 20 10 38 0m-92-48q-48-34-67-8l-27 24H926q6 27 50 45 45 19 69 1 42-29-6-62m143-55q0-27-23-29l3 9-3-3q-33 5-27 39 6 35 43 27l7-43M642 1123l-26 8q-15 15-6 36 10 22 32 20l12 17h-5l16 16-11-16q17 1 29-12l19-28-23-21-7-32q-14-3-26-32-10-27-27-25 8 43 23 69m536 100 10-72q5-49-4-68l-12 75-16 71q-5 38-19 73-17 43-40 60l-1 146-4 44q-4 33-2 49l-8 3 2 12 10 3-4-18q16-7 19-25 1-24 5-40l21-65 14-67q2-33 13-90l16-91m-113 114 4-66 1-76q-2-46-16-71-8 30-7 82l2 85-6 135-2-15-5 99q-5 64-2 99l10-18q-2-9 2-14l7-9 3-49 4-57 8-57q-5-23-3-68M885 1181q13-29 11-45-1-11-10-18l-14-14-4-22 1-23 2-25-2-25q-4-17-10-17l-20 2q-27 1-43-20l-34-38 1 12q-14-14-30-44l-24-48 22 115 11 62 1 63q-14 5-12 27l-6 1 15 30q6 13 28 18l10 14-12 1 20 12 23 3q28 32 47 82l10 12-2-38q-1-26 7-32 0-15 14-45m80-88q-1-48-9-74-7 52 0 138l10 141-2-2 8 42q6 25 4 43-1 20 3 36-3-4-10-7l-6-67q-2-43-12-65l-5-2q-8-19-11-54l-7-54-5-3-7 48q-5 30-4 51 3 41-13 83l-20 37q-1 9 7 21l10 18 1 24-3 28-3 4q-11 13-12 29v33q-1 34-38 83l33-5q-4-9 11-21 14-10 26-12-1-18 11-77l7 1q-5-7-3-12l7-10q14-4 31-20 18-17 21-32l6 18h-4q-11 36-13 60l-3 31q-13 8-10 24v12l10-36q16-5 20-11 6-9 8-31l2-34 3-126q-12-24-18-63l-4-64q-2-43-11-58l-2 11-4-76m96-141q-27 0-41 32-14 32 19 30l20-15-18-12q17 2 22-10 4-11-2-25m157 24q-10-16-31-16-18-1-35 11l-15 13q-10 11-11 17l8 15 7 15q-1 15-22 27l-35 14 20 32 20 15q13 2 28-8 19-12 26-13-3-22 33-34 39-13 40-26-12 15-21-19l-12-43M1003 832q-30-17-76-1-48 16-49 52-12 6 4 32l24 34 23 5q15-19 27-27 5-3 21-7l19-7q10-9 10-38l-3-43m269-379q-3 2-3 14l-50-17 41 44q34 28 49-6 20-2 53 17 36 21 50 23l-23 38q-17 24-23 38l-20 69q17-6 47-46 28-37 45-40-1 39-32 95l-50 88q24-8 67-48 41-40 69-48-6 5-18 32l-21 35 31-18q20-10 34-9l-21 23-21 26 47-14q23-9 38 9 14 16 22 38 10 27 3 44 12-8 18-47 6-39-8-47-2-24-26-40-27-18-32-32l4-47 9-51q17-64-22-106-22-24-49-23l-51 13q-22-23-76-11l-81 4M1162 559l-13 39-7 49-5 55-9 54q-34 11-29 77 6 66-17 74l29 32 7 1q3-27 20-33l40-4q13-38 11-68-2-42-33-45-13-45-4-115 11-90 10-116M629 351q-11 9-20 27l-14 32-40 55-43 55-51 52q-35 34-42 62-8 29 2 78 11 52 34 62-7 48 17 113l7 10-4-1-3 1q3 20-9 56l27 19-4-1 8 3-4-2q20 4 19-14l-3-34 30 12 32 7-18-39-20-37q10 2 32 15 20 12 32 12-20-3-33-34-11-25-13-52l-22-27q-5-13 5-35l21-27q13-18 3-28 20-28 40-40 9-6 34-12l30-12-15-29-13-30-19-19q-14-13-17-22-7-28 20-59 21-23 51-39 20-9 59-14l60-11q41-14 126-14l-105-6q-23 0-50-15-36-19-50-23-52-14-77 5m307-72q80-72 108-78l14 15 13 11 29-52 87-6q45 10 66 43 13 20 16 81 2 55 22 69 0 38 23 71 45-67 153-84 111-17 177 40 30 25 28 53-1 18-18 51l-42 77q-15 35-12 89 51-4 83 70 32 72 5 112 62 14 88 81 26 69-21 105-26 20-74 28l-81 17-76 40-70 47q59 10 59 34 1 16-35 60-111 7-181 79-69 70-84 186l11-5 9-31q-14 71 9 117 30 55 108 41-2 28 40 49l69 24 77-8q48-15 75-10l14 39q9 18 26 25 27-49 97-26l108 34q-37 16-116 13-92-4-120 2l-106 22-113 10q43 12 90 65-33 5-111-30-52-24-104-55l-38-4q-6 26-9 65l-5 65-24-46-1 43-7 38q-13-21-43-49l-44-46q-10-14-27-62-16-42-31-57-7 57-72 95-37 21-115 50-2-30 26-86 29-57 27-90-132 75-276 123-158 52-296 61 23-3 62-26l59-35q82-45 76-104-35-3-97 15l-91 31q-29 10-82 38l-65 20q-38 11-63 24 10-15 42-44 36-31 50-31l-47 10-44-3q10-12 17-7l14 12-7-34 94 3 92-17q4-20 29-40 27-21 33-38l91-2 1-19 1-19 36-9 35-7 14-6 15-6q6 0 16 14l17 14 67-11 65-24q6-26 0-45l-18-2v-18q49-6 73-35 25-29 18-78H831l-13-1 2-9 4-17q-9-4-118-49l5-6 5-6q-33-1-75 14l15-14q-61-21-96-65l12-7q-27-3-87-27-53-22-90-21l3-5q-49-21-42-74 5-47 44-81-16-12-33-14-23-15-49-54-26-40-33-72-13-63 8-87 14-16 73-33-48-16-72-47-24-31-29-86-4-47 24-97 33-63 38-89 24-2 37-17 14-17 9-43 44 7 54-40l71-2q5-97 13-115 18-42 93-45 5-11 15-19l20-14q26 21 58 33 31-53 78 14l57 89q40 27 104-30" fill="#fff"/></svg>