<?xml version="1.1" encoding="UTF-8"?><svg xmlns="http://www.w3.org/2000/svg" xmlns:xlink="http://www.w3.org/1999/xlink" version="2.0" width="100pt" height="100pt" viewBox="0 0 2000 2000" clip-rule="evenodd" fill-rule="evenodd" preserveAspectRatio="none"><path d="M1060 599q2-55-11-75-8 11-12 35l-7 37h-9l-5-28 4 66 6 7q-14 36-3 106l15 108 15-175 7-81M949 681q-10 69-5 103l18 83q9 47-5 87-27 15-21 84l9 96q-7 46 1 98 5 36 21 95l-5 13q8 7 9 23l1 25q8-27 9-69l1-71 7-83 3-82q-3-38 7-81l23-78q14-52-6-91-21-37-29-96l-10-80q-7-49-24-78 6 32-4 102m-91-78 9 21 17 66q8 43 5 65l12 5q-7-18-3-48l5-54q0-44-20-88l-5-2q-3-30-15-55-5 21-6 65-2 17 1 25M989 124l4-10 49-4 51 10 7 3 9 11q11 17 18 78 6 50 37 66l36 13q18 6 27 21 17 29 19 70l4 164h-9V484q-5-44-28-45l-6 6q-3 26 1 66l3 66 3 66q2 39-8 63l-10-27q-27 4-23 96l3 58q-2 31-13 56l-9-4 1-39 1-39q-4-27-38-75-8 18-10 60l-1 63-17 58q-16 37-18 55-3 24 5 62l10 62q2 26-6 63l-13 62-17 78q-10 46-8 80l-3 85-12 82-21 167-9 82-2 49q-1 32-11 45l-4-49-8-99-14-99q-29-126-32-175l-6-84q-5-48-21-76-17-31-25-69l-8-73q-2-21 8-68 9-40 2-68l-10-41-6-42 2-39q1-23-5-37l-14-30q-6-15-7-34l4-44q1-32-10-39-26-16-39 41l-10 75q-26-2-24-45l3-61q-5-17-29-41-24-23-42-30l9-50q6-32 0-47l-22-31q-10-13-4-37l11-43 12-17 12-17q8-16 4-41-5-26-18-36 2-34 28-52l47-32 20-20 29-6h34q21-2 27-16l8-1 6-31h8q-1-14 7-24 9-11 23-9 2 25 22 20v5l6 3 3 4-6-13-3 1q1-12 15-23l21-21" fill="#fff"/><path d="M382 969h-3l-18-27 8 36 5 13 9 10q30 43 35 69h7l-10-26-7-30q-6-21-26-45m112 30-10-45q-9-31-20-39-4 12 3 43l-5 1-8-15 14 36 4 3q-1 22 18 58l27 57-23-99m68 370-1 8 9 11 5 13-7-39-12-39q-11-62-24-92-8-20-10-45l-1-47q-2-32-20-49-17-16-33-48l-20-42-26-38 15 56q7 40 16 58l25 42q13 24 12 48-12 13 4 50l21 51q8 42 47 102m16-478-4 2-12-34q-10-23-23-20l-2 4q6 27 26 72l13 36 7 35-11-12q-14 7 5 56 17 41 15 64h-6l-7-22-6-21q-8-16-34-35-1 12 5 35l11 35 1 35v33l13 33 17 32q9 24 11 72l5 46q2 27 10 45 10 26 21 94l28 142 8 27 1 26-11-26-22-52-25-52-48-90-18-45-25-38-26-34-18-38q-5-12-7-39l-11-37-23-43-6-22-10-19-13-14-9-17-6-25q-5-18-12-20-28-6-7 72-14 4-21-20l-9-34q-6-9-23-18l-28-9-5-28q-2-19-8-26l-17-13q-8-5-9-20l-2-26 8-22q1-11-6-24l-16-16q-4-19 6-33l20-26 8-14q3-5 15-9l18-6q11-5 12-14l5-2-3-17 5-2-1-14q3-8 11-9 5 12 16 7l1 2 3 1 3 2-6-6-1 1q-2-7 4-16l8-15v-6q20-12 56-14h4l7 4q9 7 24 40 12 26 32 29l22 1q11 0 18 7 13 10 23 35 23 57 31 89" fill="#fff"/><path d="M1538 915q-18 49-20 75v63q-1 35-18 62-22 7-29 58l-9 72q-19 50-15 144l-5 9q5 6 2 17l-3 19 18-49 12-51 19-59 15-60q4-28 18-57l29-53q19-37 10-68-8-33-5-75l6-60q3-36-5-60-1 24-20 73m94-41q10-41 4-57l-14 24-11 26-6-2 1-21-9 49 4 6q-16 23-19 76l-7 82 39-126 18-57m-147-30 3 16 2 51q-2 33-8 49l8 5q-2-14 6-36l13-38q7-30-1-67l-3-2-2-43q-7 15-15 47l-3 18m143-291-2-11h-2q2-8 15-14l18-12 5-7q32 0 72 21l5 3 5 10q5 14 0 60-4 37 16 53l24 16q12 8 16 20 9 23 3 54l-24 120-6-2 9-45q4-33-12-37l-6 3-9 49-9 48-9 48-15 45-3-21q-22-2-33 66l-7 42-18 39-6-4 7-28 7-28q1-24-16-61-9 12-16 42l-11 46-22 39q-18 23-22 37-6 18-7 47l-2 46q-6 33-35 88l-24 54q-15 32-19 57l-16 61-22 58-62 177-9 35q-7 23-16 31l5-36q16-99 16-148 0-96 5-132l9-62q4-37-3-59-8-25-7-55l6-54q2-17 17-48 12-29 13-49l-1-32 2-31 8-28 2-29-5-24V986l10-32q6-23-1-30-25-24-54 76-19-5-10-36l12-44-15-34-25-29 14-35q10-22 8-35l-11-26q-6-10 3-27l15-30 23-20q8-11 9-30 1-20-7-29 7-24 28-33 27-7 40-16l17-11q7-3 23 0l24 6q16 2 23-8l6 1 9-22 6 1q2-10 9-16 8-7 18-3-2 18 13 18l-1 4 4 3 1 4" fill="#fff"/><path d="M565 1817q-2 25-24 32l-7-26-24-5-22-13 3-31-6-31q19-3 40 8l36 22 4 44" fill="#fff"/><path d="M851 1829q12 44-12 57l-51 17h3l-15 3 12-3H768l-22-1-24-29q-13-33 6-70 13-8 18-24l6-32 17-35q9-19 33-23 16 10 22 30l7 37 20 73" fill="#fff"/><path d="M814 1599q-10-6-15-26 16-17 29-6 13 10 16 31 3 22-7 31-11 11-36-6l2-3 5-1 6-20" fill="#fff"/><path d="M1252 1566q5 45-6 62-13 20-60 25-48 4-42-24l-23-26q-32-9-22-56 10-43 35-59 29-19 58-18 34 0 45 30 11 30 15 66" fill="#fff"/><path d="M1114 1769q2-15 21-22l32-4q11 30 4 42l-43 1-14-17" fill="#fff"/><path d="M1551 1862q-16 28-37 21l-6-17q-25-26 0-57 25-31 47 4 13 20-4 49" fill="#fff"/></svg>