<?xml version="1.1" encoding="UTF-8"?><svg xmlns="http://www.w3.org/2000/svg" xmlns:xlink="http://www.w3.org/1999/xlink" version="2.0" width="100pt" height="100pt" viewBox="0 0 2000 2000" clip-rule="evenodd" fill-rule="evenodd" preserveAspectRatio="none"><path d="M413 834l-20-3q-9-3-15-13 16-11 27-13l32-2-24 31" fill="#fff"/><path d="M570 1498q-33-31-8-43l63 1q42 11 46 30 5 24-59 45l-42-33" fill="#fff"/><path d="M707 1344q41-43 106-25 8 23-1 33l-24 19-81-27" fill="#fff"/><path d="M280 602q13-66 54-35 41 31 28 83l-57-7-25-41" fill="#fff"/><path d="M1674 105q44 25 51 25-4 38-11 52-12 27-42 33-33 7-48-25-16-33-28-31 2-16 16-26l10-30 52 2" fill="#fff"/><path d="M1582 216l17 10q9 21 10 40-27 4-33-12-6-15 6-38" fill="#fff"/><path d="M1882 276h7q34-1 40 34 5 33-14 59-16 22-53 14-26-6-53-24 4-26 25-52 23-28 48-31" fill="#fff"/><path d="M1676 409h23v-9q33 0 18 21-16 22-44 18-4-18 3-30" fill="#fff"/><path d="M1661 760l5 12v27q44-3 55 46 10 48-34 60-56 15-83-26-28-41 5-86l52-33" fill="#fff"/><path d="M1712 516l34 10q-3-15 6-20 9 0 16 7 8 46-26 48-34 2-30-45" fill="#fff"/><path d="M1809 663l27 16q1-16 13-13 12 2 0 22-11 16-32 20l-38 1 10-27q9-16 20-19" fill="#fff"/><path d="M1789 859q13-5 24 5 13 9 9 25-5 20-29 23-23 2-11-23l7-30" fill="#fff"/><path d="M1756 1029l-10 7 12 1q1 15-12 21l-27 1q-1-16 10-25 11-9 27-5" fill="#fff"/><path d="M1839 1349l17-6q13-3 28 9 17 13 14 30-4 27-49 44l-69 6q-42-15-5-55 37-40 64-28" fill="#fff"/><path d="M1736 1239l36-23q2-15 18 2 15 17 5 31-11 16-34 11-22-5-25-21" fill="#fff"/><path d="M1901 1073v-1-1q18 4 21 44 2 31-4 60-14 15-41 13-29-2-35-22-5-19 17-56 23-36 42-37" fill="#fff"/><path d="M1819 1716l57-27v-12q40-5 35 36-5 41-37 50-25 7-54-15-30-23-1-32" fill="#fff"/><path d="M1606 1349l13-10q32 2 11 31-21 29-47 22 10-36 23-43" fill="#fff"/><path d="M899 1636l-13-53q49-8 73 37 25 46-23 73-56 33-71-15-5-18 4-31 10-15 30-11" fill="#fff"/><path d="M727 802q-86 51-146 66 19-25 58-58l64-52q108-92 163-135 68-55 129-97l129-76q79-45 115-87l-88 40q-56 26-90 19 17-21 64-51l73-48 35-35q22-24 37-33l41-15q25-8 39-18 46-35 89-50l26-8 2-5q1-3 6-3 3 13-5 27l-13 26q-4 13-6 41-4 21-23 43l-36 37 2 9 46-17q29-11 49-13l17 23q-22 26-22 41l71-14q-22 15-51 26l-56 18q-33 12-75 44l-28 22-41 32 10-15-21 10-34 6q-20 3-32 10l-77 54q-47 34-81 48L964 658q-55 25-98 54L727 802" fill="#fff"/><path d="M842 1206q33-10 92-13l94-6 160-18q43-2 116 2l117 5q-36-14-1-27l55-14 138-22q-30 12-67 41l-63 52q17-4 30 7l24 19-22 10q-14 7-19 17l46 8-91 10-95 3-72 11-69-5q-142-42-242-16 4-8-52-17l-73-11-97-6 22-7 66-20 3-3" fill="#fff"/><path d="M975 1404l163 9 163 11 58 6 58 5v-12q12 29 103 43l131 13 42 12 42 12 55 7 54 9-110 4q-80-4-111 0 13 21-14 24l-40 2 60 15q42 7 54 14-69 3-91 13l27 15-32-6-32-12-125-29-70-25q-44-19-70-20-18-30-107-34l-124-11-102-32-98-33 68 9 64-8-16-1" fill="#fff"/><path d="M843 937q-62 21-103 23 53-27 135-62l137-59 84-37q92-33 117-53l-45 1-45 3q28-35 86-68l97-48 47-34q27-21 53-26l45-5 44-13 1-9h12q1 8 5 11l9 5 7 21 3 17 7 29q0 14-12 28l-25 22 26 19-22 15q-21 39 12 76l-104 19-105 17 22-30q-52 3-128 35-96 39-123 46l-69 12-69 13-99 32" fill="#fff"/><path d="M696 1093l57-13 59-17 74-16q53-14 57-34l9-1q19-40 117-43l55-12 55-14 73-12 76-16 68-16 35-1q19-1 29-10-21 21-28 61-20-2-42 16l-34 28-45 13q-29 7-42 19l85-5 84-11-51 19-51 18q-49 22-71 24l-89-5-90-2-88 17-89 19-47 4-48 2-67 13-66 4-13 1q20-19 14-20l14-10" fill="#fff"/><path d="M0 1464V1232l41-12 62-23 35-11q11 5 33-10l14-5v1l17-3 16-3-6-3 221-70-16 4 12-21-25-8L0 1184V1064l85-25 44-36q29-25 50-26 16-5 24-48 8-44 22-49 29-11 51 32l33 1 33 14 55-5q33-4 45 19 63-40 110 22 35 47 55 139 29 139-8 191-143 47-599 171" fill="#f1f2f2"/></svg>