<?xml version="1.1" encoding="UTF-8"?><svg xmlns="http://www.w3.org/2000/svg" xmlns:xlink="http://www.w3.org/1999/xlink" version="2.0" width="100pt" height="100pt" viewBox="0 0 2000 2000" clip-rule="evenodd" fill-rule="evenodd" preserveAspectRatio="none"><path d="M276 746q-31-9-46 4 56 56 60 71l8 6 30-26q15-18-1-30-23-18-51-25m732 92-14 32 58-25q2-13 15-21l29-4v4l18-10-22 20-13 14q-70 71-84 122l6 7q97-16 143-32l68-32q43-22 68-25-78 61-181 181l75-17q51-14 76-17-43 10-80 38-44 34-44 71l159-9 131-18q78-11 128-29l222-79q-21 18-86 48-48 21-112 58l-109 64-30 17-32 10q-3-14-15-25l-107 54-109 48 26 95 27 94q19 74 11 128l-32 126q-8 29-10 79l-3 75-8 83q-10 22-57 33H794q8-31 37-111 25-69 33-114 17-110 17-166 0-40-14-69l-40-61-51-62q-10 101-38 170-14 33-72 77l-90 68-86 73q-54 43-83 75L301 1993q-115-11-192-79 36-42 99-90l109-81q47-38 99-111l90-121 46-53q20-28 26-65 14-91 11-164l-1-2q-72 52-95 64L40 1522q349-225 439-276 43-24 107-51l-1-16q-46-81-47-166l17 22 1-37-42-24q-14 31-36 50-26 22-51 14l-8-11-36-30q18-3 29-16 12-14 12-32 0-20-14-34-14-14-34-14-19 0-33 13-13 13-15 32-10-14-9-19l-6-2q-3 1-4-2l-18-20-20 7-21-2q-6-5-5-21l3-24q3-31-10-45l-15-4-15-6-12-23-10-27-17-18-9-21-8-22q-58-8-62-45H85l-6 1q-6-6 2-21L59 616q-13-12-12-22l14 7 13-1 2-27q-1-21 10-28l4 14 12 8q-6-26 0-41l11 17q7 15 17 16l36-34 12-26q5-17 15-25 73-61 154-71l2-10q-1-7 1-11 11-18 26-13-8 7-6 16 3 10 13 7 5-18 16-20l-1 10q-1 6 3 9l8 2 10-4 46 3q27 8 46 24l27 29 37 38q20 22 28 42 29 9 29 48 11 7 13 22l2 22 7 13 1 17v17q16 12 12 34l-5 15 6 17-6 31 6 8q31-7 79 0 45 8 68 21l47 36q48-69 81-99l-4 86q-2 51 3 84 49-49 66-59" fill="#fff"/><path d="M1684 977l17-3q-40 19-65 19l48-16" fill="#fff"/><path d="M1751 951q29-11 54-9-17 14-47 22l-57 10 50-23" fill="#fff"/><path d="M760 747l-16-15 8 1 8 14" fill="#fff"/><path d="M1375 373q40-29 50-86 16-99-35-204 24 8 64 73 38 61 41 90l9 2 18 46q9 27 8 48-2 26-19 43l-35 33q-44 48-42 86 2 43 71 43 112-1 149-119 26-148 46-210l46-37 39-43q61-11 82-26-12 15-21 41-9 26-7 43-25 19-16 83l12 93q-4 34-42 80-42 51-49 74-19 10-28 46-9 37-28 49-14 9-48 18-37 10-52 17-42 22-87 77-55 67 8 75 48 45 143 17 96-28 98-96 11 48 2 91-10 49-42 72-16 12-79 32-53 22-46 57 25 14 51 12l-42 21-43 19-143 24q-90 9-134 38l5-15 10-9q28-72 154-139-32-1-82 18l-77 22q23-25 49-121l26-62 21-60q-31 53-105 95-59 34-131 53 37-22 80-99 45-87 65-120-169 89-303 114 7-29 23-64 18-39 35-55-24 2-68 22-44 20-71 22H862l-41 6-32 20q-16 11-37 10l-7-16 54-41q-3-16 2-28l17-22q16-16 21-14 9 8 24 11l57 10q23-3 35-41 12-41-5-135-15-84 10-129l95 1q45-3 69-47 25-45 18-86-5-30-32-78 38 39 70 164 13 52-9 91l-27 31q-18 17-20 32-38 34-31 82 8 49 68 20 30-15 54-73 22-51 65-58 62-10 95-34" fill="#fff"/><path d="M1400 1402q-27-17-17-42 8-22 40-39 81-45 121 2 6 31-23 61l-52 42-64-3 15-1-20-20" fill="#fff"/><path d="M1695 1227q-8-18 15-29 42-19 51 26 8 45-46 38l15-20q-28 3-35-15" fill="#fff"/><path d="M785 367q-35 19-71-25-35-43 16-60l20-30q39 1 55 49 16 48-20 66" fill="#fff"/><path d="M1875 602l15-25q111 57 45 106-45 34-78 1-34-32 12-68-2-6 6-14" fill="#fff"/><path d="M532 1149l-88 67-131 89L0 1469v-29q228-151 296-189 68-37 159-73l77-29" fill="#fff"/><path d="M478 1380l-73 63-110 82L1 1672l-1-25q216-144 281-181 56-32 132-62l65-24" fill="#fff"/></svg>