<?xml version="1.1" encoding="UTF-8"?><svg xmlns="http://www.w3.org/2000/svg" xmlns:xlink="http://www.w3.org/1999/xlink" version="2.0" width="100pt" height="100pt" viewBox="0 0 2000 2000" clip-rule="evenodd" fill-rule="evenodd" preserveAspectRatio="none"><path d="M2002 1403v92l-526 92q-34 21-33 34 4 33 137 52l133 12-629 104q68-26 134-58 132-63 124-89-4-15-37-25L625 1736l-4 10q3 31 136 48l133 10-629 103 134-56q133-60 125-84l-9-11-469 82q-20-38-31-85l464-82q27-17 26-27-3-32-136-48l-133-10 629-104-134 56q-133 61-125 85 4 13 30 21l683-120 7-14q-4-34-137-53l-133-12 629-103-134 58q-133 63-125 89l13 14 567-100m-33-487-143 30q-142 35-139 62 1 15 28 30l287 9v90l-310-9q-12 7-12 13-3 34 124 79l127 39-637-26 143-30q143-35 140-62 0-9-11-17l-606-19q-10 7-10 12-4 31 123 74l128 37-637-26 143-27q143-33 140-58l-10-16-626-20-1 3q-4 31 123 74l128 37L2 1176v-43q108-28 105-50l-2-5-103-3V985l61 2q49-14 50-28 2-30-111-70V854l496 20-143 28q-142 32-139 57 1 17 39 34l575 18 23-19q3-31-124-74-63-22-127-37l636 27-143 27q-142 32-139 57 2 12 19 23l573 18q35-11 36-25 3-34-124-79-63-23-127-39l636 26m21-669q10 43 11 89l-548 70q-24 14-24 25 2 31 134 53l132 16-633 75 137-50q135-55 128-79-3-11-26-21L628 512q-24 13-24 24 2 31 134 52l131 15-633 74 137-49q136-53 129-77-3-12-25-20L2 592V501l483-62 4-9q-1-31-133-52L224 362l633-74-137 49q-136 53-129 77l8 11 709-91 6-11q-2-32-134-54l-132-16 633-74-137 49q-135 55-129 79l10 12 565-72" fill="#fff"/></svg>