<?xml version="1.1" encoding="UTF-8"?><svg xmlns="http://www.w3.org/2000/svg" xmlns:xlink="http://www.w3.org/1999/xlink" version="2.0" width="100pt" height="100pt" viewBox="0 0 2000 2000" clip-rule="evenodd" fill-rule="evenodd" preserveAspectRatio="none"><path d="M1621 909q-24-24-24-49l58-5q15 28 10 73l-14 1-30-20M844 875q89-54 197-54 110 0 200 56 88 55 128 143v1l15 71q12 85 0 157-39 227-308 227-269 0-347-180-25-56-27-124l15-158q40-86 127-139m1-648q62-98 179-98 117 0 188 117 36 58 48 116l97 588q-31-58-88-101l-12-131q64 66 73 151l1-22q0-102-79-178l-31-320-55-95 3 360q-60-27-128-27-120 0-204 76-85 76-85 184l1 22q9-100 92-168 83-69 196-69 71 0 129 27l1 137q-63-22-130-22-103 0-189 49-84 48-127 128l81-627q8-49 39-97M547 477q9 13 19 76-19 13-50 21-35 8-50 0l-15-20q-12-4-23-23-12-19-11-33 3-27 20-31l45-3q50-8 65 13M376 964q60 8 29 114-19 13-64 16l-35-15q-16-7-29-28l-22-37q22-19 58-35 40-18 63-15m905 922q8 65 35 68v12l-8-2 8 5v-3q63 10 72-7 62-58 22-132-40-75-128-32-6 41-1 91m-170 23q-29 10-25 40 4 25 25 45l40-20q27-10 7-42-21-32-47-23m-240 10 20 10 34-6 20-30-5-18q-92-9-88 38l19 6m216-732q-19 15-46 15-26 0-45-15-19-15-19-36 0-22 19-37 19-15 45-15 27 0 46 15 19 15 19 37 0 21-19 36m57-129q-43-39-103-39-59 0-102 39-42 38-42 93 0 54 42 93 43 38 102 38 60 0 103-38 42-39 42-93 0-55-42-93M76 1094l490 480-35-355 355 575 30-115 100 200 190-265-20 245 375-595-95 550 405-810-205 996H527L76 1094m690 748q10-36-1-77-37-20-74-20-45 0-66 33-20 31 2 69 23 39 64 37l20 5q42-1 55-47" fill="#fff"/></svg>