<?xml version="1.1" encoding="UTF-8"?><svg xmlns="http://www.w3.org/2000/svg" xmlns:xlink="http://www.w3.org/1999/xlink" version="2.0" width="100pt" height="100pt" viewBox="0 0 2000 2000" clip-rule="evenodd" fill-rule="evenodd" preserveAspectRatio="none"><path d="M1111 1186l-203 5-75 168 103-103 157 3 93 62-75-135m75 28 72 187 3-557-75 370M758 1381l55-155L708 871l50 510m100 140-90 48-20 80 108-43 335-30 107 33-42-85-398-3m227-860-33 20q-16 9-36 10l-48-2-21-6-21-4h-8l15 28 18 24 20 3h22l13 6 13 7q51 13 66-86M978 549l-5 2 5 1q1 23 8 35 9 14 25 2l17-22 16-21-34 4-32 2v-3m111-181-46 1-88-1-86 9-2 36 1 38-5 8 4 14 7-16 17 44h77l28-20 37 15h88l17-47-264 7 11-16 8-19q7-12 12-13l21-2h92l44-5q29-4 44 0 18 6 32 32l-15-47q-10-16-34-18m-65-129 52 12q56 16 82 32 26 16 25 132l-6 113-8 7 6 39-1 41-4 38-31-22q8-11 5-35l-6-36-26 22-16 69 34 7-2 54 142 6-5 70 139 79 68 321 55-30 12-11-25-41-12-88 238-830q6-5 15-9 17-7 29 0l39 20-7 32 58 60-16 61 21 64-76 279-65 21-61 172 1 26-25 71h27l7 41 6 14 4 15-10 12-8 13 1 17 3 18q8 7 14 40l-21 16q-13 11-23 13l-20 63-16 65-16 59-8 16 4-1 1 51q2 38 9 45l-45 33q-32 20-51 23-16 3-49-14l-52-33h-11q-28 0-42-39l-8-21-14-16q-11-36-13-80l-18-60 7 190 35 49-35 62 61 190-14 234H1082l-5-58-23-27-12 85H684l13-120-9-195 44-116-30-28 16-71-16-119-27 58q-32 58-54 62l-12 14 6 17-45 33q-32 20-51 23-18 3-56-18l-53-37 13-35 6-44-12-11q-23-22-31-42l-16-59-16-65-20-63-23-13-21-16q6-33 14-40l4-18v-17l-8-13-10-12 4-15 6-14 3-20 4-21h35l-24-71 1-26-62-172-64-21-76-279 21-64-16-61 58-60-7-32 39-20q12-7 29 0l15 9 238 830-12 88-29 46 7 6 60 33-11-111q-1-39 18-108l19-61 142-93-17-39 156-44-2-44 64-44 7-49-51-58q-16-49-20-151-3-71 59-111 52-33 140-39" fill="#fff"/></svg>