<?xml version="1.1" encoding="UTF-8"?><svg xmlns="http://www.w3.org/2000/svg" xmlns:xlink="http://www.w3.org/1999/xlink" version="2.0" width="100pt" height="100pt" viewBox="0 0 2000 2000" clip-rule="evenodd" fill-rule="evenodd" preserveAspectRatio="none"><path d="M1051 994q-9 9-17 41l-33-26q-16-16-43-15v-3l-26 42q-15 26-18 43l-18 13-7 43q-7 27-6 42l3 89-2 44q1 28 12 40 10 11 38 11 27-1 40-11-4-19 7-47l18-44 9-49q5-30 23-42 18 99 69 179l22-3 19-16q14-12 22-16l1-8 15-4-7-38q-3-22-12-33l-23-32q-6-13-5-42v-39l-15-34q-18-31-20-85l-6-6q-28-7-40 6M483 955q-53-53-53-129 0-56 32-102 29 36 89 63-12 21-12 39 0 30 22 52 21 21 51 21 30 0 51-21 21-21 21-51l84-4h9l15 4q0 75-52 128-53 53-128 53-76 0-129-53M877 272l-24 15q-13 8-19 20l-3 15-10 11-26 11-31 12-33 4-53-2q-28 4-40 29l-17 44-23 43q-18 24-22 57-4 34 7 63 29 74-12 56l-12-12-10-11-20-1-19 10-31 13-35 4q-54 3-64 24l-8 1-1 9-5 1q-11 18-11 48l-2 52q-14 74-10 111 3 29 15 52l26 43 21 46q17 30 39 27v15q41 22 15 43l-53 43q14 11 9 36-4 23-19 38l58-13q47-9 48-19l6-25q11-5 11-23l7-7q23-1 44-13l39-28q24-18 52-27l58-12 34-6q17-5 25-18l9-33 6-31q8-14 51-28 38-12 39-40l5-1 1-9 6-1q-1-6 1-8l8-1 18-16 18-15 12-20 8-22q-5 2-33 19-16 10-38 6l-10-18-10-19-5-1q-3-18-28-43l-43-35q-6-5-27-12l-25-16q-31-34-21-86l2-25 6-24 15-17q8-10 6-21l-12-19q-9-10-7-23l8-21 12-19 17-14 17-11 62-60q29-34 45-74l8-25 9-25-31 29m796 424q-4-15-15-24-28-27-61-28l-70 8-74 5-74 2-70 5q-41 5-64 22l-43 42q-24 28-32 50-24 19-22 51l-35 4-14-8-13-8-36-4-38 1 10 12q26 19 62 17 21 40 39 49l34 9q13 4 23 27l27 60q19 34 45 48 5 16 33 46l30 9 32-2 76-13q73-6 126-32l61-31q35-20 50-44 35-55 44-139 5-40 0-74-7-49-31-60m-27-209 32-22 28-22q13-10 49-20l51-15 78-37-16 98-9 71-12 68q-6 22-11 70l-11 70q-11 42-12 64-1 29 12 65l19 65q15 41 40 49l-1 46q-5 31-4 45l56-2q-4 24-38 60-34 36-38 59-23 12-59 48l-20 21-24 21q-16 10-31 12l-34 2-80-3-80-3q-48 0-68 11-24 14-30 56-23 124 17 139-12 9-16 23-6 16 4 24l-16 8-3 17q-3 7-3 16l-2 35-2 35 3 94q1 78-9 86-47 63-57 64l-15-167q-14-124-28-165l-20 6q-11 3-14 12-2 6 3 25l6 26 11 48q6 29 4 47l-16 47-17 45q-12 7-35-8-23-15-24-28-18 3-28-18-12 5-17 24-5 19 1 32l-97 6-1-8q-24-8-24-51-1-50-9-60l-22 68-30 58-36-2-36-2 2-25 1-25 13-50v-50l-1-51-27 5-29-2q-9 32-19 95l-3 90q-1 73-10 84-18-17-43-74l-33-80-19 33-5 4-5 6-40-40q-22-26-25-50l-3 20H633l-24 3q-6-35 13-79l37-72-32-2q-21-3-29-11-7-8-4-19l8-22h3q13-20-4-34l-28-25-2-19v-20l-14-37-11-34q-7-13-29-23l-30-19-28-19q-37-23-57-17l-27 14-29 15q-13 5-32 13-16 3-33-7l-26-20-26-21q-55-34-103-99l-24-27q-15-17-17-31-2-11 5-33l10-34q31-1 41-13l19-41 20-41 20-39 24-49q15-34 9-52l-22-39-28-37q-75-96-55-303l11-76 2-3q84-126 182-209-6 84 2 126 5 25 32 29 9 36 20 54 16 26 43 27 36 1 75-29l63-56 79-66q54-37 94-24 60 20 106-2l120-65q46-28 115-53l-26 99q-17 62-18 102-1 26 17 64 20 42 23 63 11 85 4 140-2 19 16 32 17 12 35 7 25-8 124-75 101-70 91-78 43 39 103 54l118 13q41 1 87-24" fill="#fff"/></svg>