<?xml version="1.1" encoding="UTF-8"?><svg xmlns="http://www.w3.org/2000/svg" xmlns:xlink="http://www.w3.org/1999/xlink" version="2.0" width="100pt" height="100pt" viewBox="0 0 2000 2000" clip-rule="evenodd" fill-rule="evenodd" preserveAspectRatio="none"><path d="M1688 940q56-2 68 36 12 42-41 99l-81 84q-45 66-86 174l-64 186-148 117-82 53q-53 35-67 64-10 23-14 101l-6 125-71-1q-2-62 3-104 5-53 1-143-6-108-5-144-10 30-16 76l-9 78-20 76q-13 48-11 78-21 13-11 83l-125 1 14-113 15-114 39-81 23-24 20-27q3-42 35-65l16-39 31-26 28-30 17-49 48-36 2-19q8-6 13-23l10-28q-1-17 9-53l17-54-14 8-6 13-9 7q-3 3-1 12l-4 2-5 1-9 9-17 42-12 19-12 17-29 28q-24 18-33 9l-2-15 1-15 2-49q20-203-10-299-3 24 3 83 5 44-10 79l-17 38q-10-16-30-22l-1-65q-2-39-14-59 5 19-1 95-4 57 29 89-16 42-14 76l9 40q7 24 2 41l-19 30-21 25-50 51q-33 35-42 57h-9l-41-59q-21-34-25-65-7-50 8-113l24-107 7-10 10-12q4-11 0-34l-11-33-11-33q-6-30-5-80l-1-81q-3-36-20-89l-25-88q-11 147-8 207l10 98 7 108q-2 79-32 94l-34-52-26-27q-15-17-18-33l-4-1-18-39q-12-26-11-38-5 32 12 74-1 21 3 42 5 25 32 72 25 44 29 72l4 56 6 56 20 58 24 56q34 81-1 212l-38 92q-29 59-37 92l-9 47-63 6 4-55 14-134q5-81-7-145l-73-257q-50-170-51-301l4-51 3-55q-2-43-16-140L512 693q-12-143-10-160 6-93 74-82 34 5 50 96l17 140q14 82 26 130l15 61q12 34 36 40 19-27 17-80l-11-94q-22-171-18-420 1-80 13-111 20-53 75-33 27 10 37 61l7 83 9 183q4 105 14 173l14 82q12 44 35 61 26-38 20-129-12-106-12-156l8-109q6-73 4-128l-5-131q0-84 23-102 52-40 87-4 30 30 36 94 14 124 20 291l11 275 2 56q3 34 22 47l49-159 45-170q14-119 28-185 25-122 83-129 58-7 75 62 12 48 5 142l-13 76-16 89-7 87-10 88-38 243q-12 147 30 237 29-23 61-75 37-60 58-82 56-58 124-89 43-20 86-22" fill="#fff"/></svg>