<?xml version="1.1" encoding="UTF-8"?><svg xmlns="http://www.w3.org/2000/svg" xmlns:xlink="http://www.w3.org/1999/xlink" version="2.0" width="100pt" height="100pt" viewBox="0 0 2000 2000" clip-rule="evenodd" fill-rule="evenodd" preserveAspectRatio="none"><path d="M1628 387l32-90 34-44 26 20-45 120 16 9 98-129 30 24-54 93-39 38 10 22h16l57-32 77-13v32l-127 55 22 16h38l50-16v32l-47 25q-10 6-73 0l-17 44-41 36-12 47 44 68-98 386-354 213-86 92 32 411-34 77 19 78H542l17-106q-6-64-16-71-6-4 10-109l16-104-32-29-310-35-32-80 19-79 27-211 44-26 6-48-47-88 3-55-48-6-65-29 27-28 92 31-92-92 19-29 61 44 34 46 23-22-45-43-45-72 30-16 56 63 32 51 22-13-54-104 29-17 48 83 19 74v230l26 19-26 60v173l83-30 51-118 118-35 95-50 4-71-29-25V779l105-77 141 45 45 111-20 115-63 61v41h106l146-41 53 28 198-76 38-70 26-22 67-237 16-28-6-61-22-70-55-26V440h55l38 38 15-38 33-53" fill="#fff"/><path d="M1461 1h223q65 0 121 14-340 40-636 167-54 20-111 51-66 37-115 75l157-3 216 7q230 29-179 180 67-36 61-62-6-20-45-27L868 377q-108-2-130 2-93 2-225 29h-5q20-14 99-45l91-37q65-37 59-58-5-20-67-18-145 2-355 88-85 36-183 100Q70 492 0 553V390q58-40 204-113Q435 163 615 116q238-64 434-28l5 1q182-54 407-88" fill="#fff"/><g transform="matrix(1.01 0 0 1.01 0 615)"><path d="M2000 0V35q-460 191-918 270Q410 420 0 228V92l90 41q378 137 1025 54 400-52 885-187" fill="#fff" fill-opacity=".25"/></g></svg>