<?xml version="1.1" encoding="UTF-8"?><svg xmlns="http://www.w3.org/2000/svg" xmlns:xlink="http://www.w3.org/1999/xlink" version="2.0" width="100pt" height="100pt" viewBox="0 0 2000 2000" clip-rule="evenodd" fill-rule="evenodd" preserveAspectRatio="none"><path d="M924 668 797 834q-50 89-68 215-17 126 16 219 16 47 36 69l123 50q-61-60-90-181-56-240 110-538M774 723Q921 504 985 314l35-145q9-13 17-8l7 8 35 145q64 190 211 409 110 164 142 319 29 137-5 258l-21 163q0 59 16 81 14 18 0 99l-46 13-40-126q-9-27-16-14l-13 28q-6 8-10 29l-5 33 3 62q5 52 11 65 10 20-34 70-40-30-43-43-3-14-1-38 2-29 10-36 7-6 4-29l-6-32 2-37-2-24h-1q-24 16-52 28l-60 33-2 18q-1 21 5 40 6 19-16 40l-37 27q-12 9-9 37 1 21 8 39 5 12-7 18l-19-1-27-29-24-32q-6-9-6-36 0-29 6-43l7-26-2-24-3-17-78-28 2 32-2 30-48-14-14-14q-12-14-8-17 6-3 1-27-5-25-16-31-9-5-41 0l-31 6-22 40-6 28q-4 31 2 45 10 24 0 74-24 36-32 16l-35-66-17-74q-3-8 15-25l19-25-7-48-20-62q-16-32-36-251l-3-22v-7Q607 973 774 723" fill="#fff"/></svg>