<?xml version="1.1" encoding="UTF-8"?><svg xmlns="http://www.w3.org/2000/svg" xmlns:xlink="http://www.w3.org/1999/xlink" version="2.0" width="100pt" height="100pt" viewBox="0 0 2000 2000" clip-rule="evenodd" fill-rule="evenodd" preserveAspectRatio="none"><path d="M1225 1329l9-1q15-2-262-137l-307-41 5 3 1 46-6 88q-19 106-53 192l-1 4-4 9h1l-1 11q0 24 17 41 17 17 41 17 24 0 41-17 17-17 17-41l-3-18-22-94q-13-48-8-98 6-57 33-68 15-7 43 26 27 33 30 59 27 220 27 393 1 109-9 174l-2 14q0 22 15 37 15 16 37 16 22 0 37-16 16-15 16-37l-5-21q-56-265-48-332l10-121q6-67 20-88 20-29 111 35 91 65 66 115-22 44-26 88-2 21 1 34 0 18 13 31 12 12 30 12 17 0 30-12 12-13 12-31-1-44-14-98-16-64 13-101 36-29 42-45 10-25 53-28m581-523q12 26-1 43l-32 25q-18 13-46 54-31 44-42 77l-30 63q-24 41-34 65-15 38-25 89-10 51-9 85 1 27-51 102l-78 117-54 110-50 93-51 76q-30 50-39 94l-13 79H667q7-128-10-179l-84-221q-58-151-68-231l-21-197q-12-101-28-128-35-60-131-286-64-180-68-209-4-32 24-64 34-38 78-8 40 28 70 115l43 135q30 74 110 190l31-3q30-10 25-43-22-132-22-168l-7-130-8-121-13-103q-12-90-10-103 6-34 11-45 14-28 48-29 97-5 102 116 4 98 27 259l20 136 22 105q7 17 25 21 18 4 21-7l7-100 7-126q2-19 15-84l14-97q11-186 8-250-3-50 39-65l59-3q22 5 44 28 27 29 28 65 8 222 1 285-22 197-19 269v67q3 27 32 9 30-19 37-42l9-69q5-30 26-93l23-91q2-25 23-107 18-72 17-102-2-43 27-85 31-44 65-35 40 10 62 46 26 41 20 106l-23 176-26 145q-47 198-43 240l13 101q11 68 23 96 18 42 28 48 90-183 138-241 40-48 76-72 43-29 92-33l85 3q32 9 45 37" fill="#fff"/></svg>