<?xml version="1.1" encoding="UTF-8"?><svg xmlns="http://www.w3.org/2000/svg" xmlns:xlink="http://www.w3.org/1999/xlink" version="2.0" width="100pt" height="100pt" viewBox="0 0 2000 2000" clip-rule="evenodd" fill-rule="evenodd" preserveAspectRatio="none"><path d="M1392 737q-7 32-34 74-29 45-72 87-54 51-187 104-143 56-173 79-82 60-90 208l-69-8q10-59 35-123 49-128 124-154 166-58 257-114 115-71 152-158l57 5M83 1423l105-14q116 2 170 79 52 72 183 23 70-26 165-78 88-30 118-90 15-30 12-54l89 6 89-8 198-89 176-27 80-62 166-90 19-2q22 1 35 18 13 18 3 43-9 22-22 28l-109 58-70 68 18 38 104-25 197-92 25 8q26 10 32 21 8 15-1 38-10 25-37 31-24 6-71 31l-43 24-147 36 9 36 340-84q21 3 24 39 1 13-8 27-16 30-62 41-41 10-117 42l-72 28-110-5-6 34 88 5 190-47 21 3q21 8 23 27 2 26-20 51-25 28-60 33l-114 28-79 21-89-11-137 25 67 66 24 39q25 45 32 75 9 34-4 67-12 31-28 27-12-2-34-45l-19-42-109-87-95-17-171-136L0 1658V1225l762 56q4 21-9 45-24 49-102 68-13-13-29-21-32-17-67 7-36 25-93 6l-50-25 44 34q51 31 83 14 31-16 53-6 19 10 14 15-102 69-128 78-82 26-117-69-25-64-154-41L83 1423M623 197l108 87 96 17L998 437l997-159 5 77V757l-604-19 21-81q37-76 115-49 124 44 269-32 73-38 121-85-56 37-128 66-143 59-219 21-6-3 4-26 11-26 30-44 10-9 39-10l63-11q51-21 85-84-37 37-90 58l-66 7-48 6q-21 21-40 59l-18 31q-72-26-114-9-21 9-38 34-20 27-38 87l-14 55-206-8-90 9-197 88-176 28-49 40L415 999q-34 11-54-15-13-18-2-43 9-22 21-28l109-58 70-69-19-38-103 26-197 91q-48-11-57-28-8-15 1-38 10-25 36-32 39-9 115-54l146-36-9-36-319 79-20 4q-21-3-24-39l8-27q16-29 62-40l116-42q66-28 72-28l111 5 5-34-88-5-189 47-21-3q-21-8-23-28-2-25 20-51 25-28 59-33l194-48 88 11 137-25-66-66q-44-67-56-114-9-33 4-67 12-31 27-28 20 5 54 88" fill="#fff"/></svg>