<?xml version="1.1" encoding="UTF-8"?><svg xmlns="http://www.w3.org/2000/svg" xmlns:xlink="http://www.w3.org/1999/xlink" version="2.0" width="100pt" height="100pt" viewBox="0 0 2000 2000" clip-rule="evenodd" fill-rule="evenodd" preserveAspectRatio="none"><path d="M1736 741l48 5q30 4 43 0-256 89-381 136-220 81-347 166 100 24 125 42 56 40 40 140-59 51-178 3l-83-34-63 4-6 132q-6 83-20 103 190-23 377 73 61 32 153 93l72 50q51 38 57 54l3 21q1 8 14 14l49 9q24 6 56 25 39 22 44 41l-107 4-108-8q-14-2-13-19 1-19-11-24l-39-4-39 10q-61 12-156-41l-57-34q-33-19-59-28-90-32-169-43-108-16-287 50-62 22-50 126-127 32-191 40-111 13-188-37-19-12-18-49 0-32 12-53l29-42 29-41 110-74q68-51 83-86-8-56-7-151-5-65-47-57-55 47-141 0-80-44-102-108Q350 966 671 961l-5-88q-3-55 14-83 34-52 115-62 78-10 114 27 30 32 43 101 12 68-2 117 33 21 88 6l87-34 190-82q127-55 206-80 117-38 215-42" fill="#fff"/><path d="M1407 446V356H1234v-1h-34V149h-91V355h-34v1H902v90h173v1h34V654h91V447h34v-1h173M1269 287h207V515H1269V722H1041V515H833V287h208V80h228V287" fill="#fff" fill-opacity=".8"/></svg>