<?xml version="1.1" encoding="UTF-8"?><svg xmlns="http://www.w3.org/2000/svg" xmlns:xlink="http://www.w3.org/1999/xlink" version="2.0" width="100pt" height="100pt" viewBox="0 0 2000 2000" clip-rule="evenodd" fill-rule="evenodd" preserveAspectRatio="none"><path d="M1845 204q34 5 48 0-115 44-312 135-202 93-437 184 104 24 128 45 46 38 28 144-62 53-186 3l-87-35-65 4q6 45-63 342 15 19 181 164l202 181 94 102q46 60 67 133l-87 17q32 105 227 156v25q-59 7-167 3-126-5-167-3 16-47-8-98l-50-75q-18 18-66 17l-45-5q-35-56-62-78-256-222-280-227-44 14-81 50l-63 74-59 79-65 78q-37 49-53 57l-38 6q-24 0-36 11 9 24 53 51 43 27 50 56-16 18-59 19l-77-3H237l-59-8 19-67q13-41 14-73l-23-2H161q-16-42 21-115 19-37 41-72 21-40 111-162l108-147 39-63q23-41 29-73l-1 1-8-152q-15-149-47-143-57 49-148-1-83-45-106-112Q343 435 680 430l-6-92q-4-58 15-87 35-54 116-66 79-12 116 27 33 34 49 107 16 74 2 124 34 22 91 6l92-36 199-86q136-58 216-84 123-39 225-44l50 5" fill="#fff"/></svg>