<?xml version="1.1" encoding="UTF-8"?><svg xmlns="http://www.w3.org/2000/svg" xmlns:xlink="http://www.w3.org/1999/xlink" version="2.0" width="100pt" height="100pt" viewBox="0 0 2000 2000" clip-rule="evenodd" fill-rule="evenodd" preserveAspectRatio="none"><path d="M300 637 200 652q-43 9-97 26-38 11-91 33 39-47 84-86 47-40 102-72 57-32 120-50 65-19 138-21h14l119 12q51 9 105 33 51 25 83 54 37 34 56 73v1l1 1v1l2 2 1 2 2 2 87-33 27 31-112 44 41 48h10l24 3q10 1 20 8 9 5 13 12l5 14-1 8-4 7-6 7-7 5v1l-4 1-3 2-3 1-3 2-4 1-62 25-93-115-116 46-27-34 89-34q-35-23-68-37l-75-26-82-14-85-5-100 6" fill="#fff"/><path d="M985 972l6-2 63-26 106 125 118-51 33 37-90 39 79 46 88 31 95 18 97 6 111-7 105-20 96-31 84-40q-19 56-51 106-37 55-84 96-56 46-121 70-75 29-159 30h-9l-4 1h-4l-148-18q-71-17-131-48-59-29-105-74-45-42-70-94v-1-1l-2-2-1-2-2-3-1-2q-48 22-97 43l-31-40 122-54-46-55h-10l-26-3-21-9-15-14-5-16 1-9 4-7 6-7 8-6v-1l4-2 3-1 4-2" fill="#fff"/><path d="M1407 387q52 31 85 68 36 41 46 88 9 43-3 84-10 42-41 77-28 36-78 65-51 29-112 43v1l-13 4 59 63-48 21-75-81-70 30 2 7-4 17-11 15-17 10-22 3h-12l-11-3-9-4-8-5h-1l-7-7-2-3-1-2-38-43 162-69-71-76 46-19 55 57q61-44 87-107 22-55 11-117-9-55-45-112-33-51-85-94 68 17 121 37 64 24 110 52" fill="#fff"/><path d="M791 896h1l21 3 10 4 8 6v-1l3 4 6 6 1 3 37 45-174 74 69 89-53 23-52-68q-75 52-115 131-36 73-38 160 0 87 32 172 32 88 93 163-84-28-154-65-78-42-128-88-57-52-84-109-28-61-24-127 4-59 32-113 26-52 69-96 42-43 100-74 60-33 126-49l15-4-50-66 51-22 66 84 75-32-1-7 5-18 13-15 18-10 22-3" fill="#fff"/></svg>