<?xml version="1.1" encoding="UTF-8"?><svg xmlns="http://www.w3.org/2000/svg" xmlns:xlink="http://www.w3.org/1999/xlink" version="2.0" width="100pt" height="100pt" viewBox="0 0 2000 2000" clip-rule="evenodd" fill-rule="evenodd" preserveAspectRatio="none"><path d="M200 206 555 516l85 182L510 586 192 218V206h8" fill="#fff"/><path d="M210 550 494 834l12 36L1 583V321L210 550" fill="#fff" fill-opacity=".8"/><path d="M55 1352l3-6 236 99 93 73-100-32L55 1352" fill="#fff"/><path d="M1 1140V983l106 78 294 243L1 1140" fill="#fff" fill-opacity=".8"/><path d="M1801 206h8v12L1491 586 1361 698l85-182 355-310" fill="#fff"/><path d="M1945 784l-1 10-299 256-118 75 90-136 322-206 6 1" fill="#fff"/><path d="M72 789l6-1L400 994l90 136-118-75L73 799l-1-10" fill="#fff"/><path d="M2000 321V583q-252 144-505 287l12-36 493-513" fill="#fff" fill-opacity=".8"/><path d="M1946 1352l-232 134-93 16 86-57 236-99 3 6" fill="#fff"/><path d="M2000 983v157l-400 164 294-243 106-78" fill="#fff" fill-opacity=".8"/><path d="M1084 271q38 24 61 60 47 73 9 241l-23 49q-15 24-13 51 155 2 221 119 18 34 88 276 16 55 29 157 15 109 26 153 6 27 23 74l22 67 5 43 4 37 41 82q27 57 9 100-12 27-59 37-46 10-77-6-14-23-15-61l-3-66q-10-58-68-240l-63-204-21-81q-15-47-39-78-14 201 40 580l56 339H670l56-339q54-379 40-580-25 31-40 78-10 28-21 81l-63 204q-57 181-67 240l-3 66q-1 39-15 61l-78 6q-47-10-59-37-18-43 9-100l41-82 4-37q1-24 5-43l22-67 24-74 25-153q13-101 29-157 71-244 89-276 65-117 221-119 2-27-14-51-19-31-23-49-15-68-15-127-1-74 24-114 23-36 61-60 41-25 81-24 40-1 81 24" fill="#fff"/></svg>