<?xml version="1.1" encoding="UTF-8"?><svg xmlns="http://www.w3.org/2000/svg" xmlns:xlink="http://www.w3.org/1999/xlink" version="2.0" width="100pt" height="100pt" viewBox="0 0 2000 2000" clip-rule="evenodd" fill-rule="evenodd" preserveAspectRatio="none"><path d="M1830 756 1620 919l57-147 153-16" fill="#fff" fill-opacity=".8"/><path d="M44 660l302 43q37 105 98 218L44 660" fill="#fff" fill-opacity=".8"/><path d="M465 1104 85 1046l375-57q61 110 140 221l5 7-87 88-488 68 435-269" fill="#fff" fill-opacity=".8"/><path d="M1267 269l-68 343-187 186L777 564 743 353 883 519 977 43l119 476 171-250" fill="#fff" fill-opacity=".8"/><path d="M1484 1280l-47-47q107-161 146-236l329 49-381 58 412 262-459-86" fill="#fff" fill-opacity=".8"/><path d="M1380 1241l591 596q-24 41-51 67-58 59-143 82l-556-546 159-199" fill="#fff"/><path d="M739 1094l-85 85v1Q479 934 411 716q-76-243-27-469L986 846 817 1016Q590 758 504 585q21 220 235 509" fill="#fff"/><path d="M1042 1638l91-99 472 461H1406q-237-229-364-362" fill="#fff"/><path d="M58 1837l961-967 626-623q51 233-31 483-74 224-259 477-127 175-336 397-155 164-396 396H424q570-553 734-743 341-397 367-672-117 233-505 639L251 1986q-84-23-143-82-26-26-50-67" fill="#fff"/></svg>