<?xml version="1.1" encoding="UTF-8"?><svg xmlns="http://www.w3.org/2000/svg" xmlns:xlink="http://www.w3.org/1999/xlink" version="2.0" width="100pt" height="100pt" viewBox="0 0 2000 2000" clip-rule="evenodd" fill-rule="evenodd" preserveAspectRatio="none"><path d="M1716 823l-4-8-585-175H21l1-138H1108L369 8h47l792 347L1017 8h11l922 894-234-79" fill="#fff" fill-opacity=".8"/><path d="M1712 1188l4-8 234-79-920 891h-12l190-344-787 344H372l736-491H22l-1-139H1127l585-174" fill="#fff" fill-opacity=".8"/><path d="M1818 1037l-106 49-585 174H6V1037H1818" fill="#fff"/><path d="M1712 928l106 49H6V753H1127l585 175" fill="#fff"/></svg>