<?xml version="1.1" encoding="UTF-8"?><svg xmlns="http://www.w3.org/2000/svg" xmlns:xlink="http://www.w3.org/1999/xlink" version="2.0" width="100pt" height="100pt" viewBox="0 0 2000 2000" clip-rule="evenodd" fill-rule="evenodd" preserveAspectRatio="none"><path d="M778 574l-64-10-66-4-79 4-80 12q-43 8-79 19l-77 25q34-33 78-64 43-30 88-52 48-22 96-35l106-14h11l90 8 79 24q33 14 63 37 30 26 43 53v1h1l1 3 3 3 68-25 22 23-88 33 32 37h2l2-1h4l20 3 16 6 11 9 4 12v6l-3 5-11 10-3 1-2 2-6 2-2 1-51 20-76-90-94 35-20-26 72-26-53-28-58-19" fill="#fff"/><path d="M901 298l94 8 44 11 41 17q31 14 55 35l35 44q11 21 11 49-1 24-17 52l-62-25-65-17q-12-30-47-60-33-27-76-46l-93-31-99-16 44-9 135-12" fill="#fff" fill-opacity=".8"/><path d="M1040 1090l102 96q-10 75 14 158 23 83 81 174 59 90 144 174 85 83 191 152-106 0-203-20-106-20-193-62-91-43-159-108-69-67-103-150-28-70-33-138-6-62 10-124 15-56 47-105 30-47 77-83l25 36" fill="#fff" fill-opacity=".8"/><path d="M1816 549q30 37 46 71 19 39 16 74-2 40-31 72l-42 36q-28 17-55 26l-66 17-72 6-71-5-72-15 21-26 16-26 19-52q62-12 112-38 45-26 74-61 28-35 38-71 9-35 4-71l63 63" fill="#fff" fill-opacity=".8"/><path d="M76 875q37-52 81-90 44-41 98-71 57-30 118-47l38-9 111-11 62 4 58 12 53 20 46 29-76 31-69 40-15-2-43-1-131 14q-65 13-134 40-69 27-135 63-74 42-126 82 29-57 64-104" fill="#fff" fill-opacity=".8"/><path d="M1113 830l3-1 2-1 3-1 52-22 98 108 97-45 32 33-74 35q34 23 74 42l82 29 87 17 88 6 98-7 90-19 78-28 64-37q-3 52-19 98-19 55-53 94-40 46-96 73-66 30-144 31h-15q-72 0-143-18-67-16-129-50-60-32-103-74-43-42-69-90v-1h-1v-1l-1-1-1-3-2-3-2-2-84 40-29-37 106-50-43-50h-2l-2 1h-5l-22-3-19-8-13-12-5-14 1-7 3-7 5-6 7-5v-1l3-1 3-2" fill="#fff"/><path d="M1238 335l91 23 85 34q42 20 71 45 31 28 44 60 13 31 8 60-3 30-23 58-18 25-55 49-39 23-87 34h-2v1h-2l-2 1h-2l-3 1 55 51-38 17-68-65-56 24 1 1v3l1 1-2 15-8 11-14 8-18 4h-1l-18-3-16-8-8-8-1-2-33-35 129-53-61-58 35-15 47 44q45-33 62-80 12-42-1-83-12-39-42-75-31-36-68-60" fill="#fff"/><path d="M770 843l6-2h3l3-2-38-55 44-18 51 71 65-27-1-2v-5l5-15 10-12 16-8 18-3h1l18 3 7 3 7 5 1-1 2 3 1 2 4 4 1 2 31 37-149 65 58 80-47 21-44-62q-70 51-108 122-38 70-46 160-9 90 16 189 26 104 83 195-86-35-152-81-73-49-118-104-48-58-66-121-19-65-4-134 12-59 44-111 29-50 72-90 39-36 94-67 51-27 111-42h1" fill="#fff"/></svg>