<?xml version="1.1" encoding="UTF-8"?><svg xmlns="http://www.w3.org/2000/svg" xmlns:xlink="http://www.w3.org/1999/xlink" version="2.0" width="100pt" height="100pt" viewBox="0 0 2000 2000" clip-rule="evenodd" fill-rule="evenodd" preserveAspectRatio="none"><path d="M1224 705l70 122q-25-41-116-27-92 14-200 76-108 62-166 136-58 72-35 115l-71-124q-25-42 34-115 59-74 166-136 107-62 200-76 93-14 118 29" fill="#fff"/><path d="M1112 1706 803 1172q-23-40 36-112 60-72 167-134 107-62 200-77 92-16 115 24l308 535q33 58-28 137-56 72-161 132-106 59-196 71-100 13-132-42" fill="#fff"/><path d="M987 295q-18 27-33 62-31 72-17 118 12 41 71 77l89 52q-12-4-66 16-63 24-132 64Q707 792 658 910q-27 64 0 360 27 300 74 422-28 13-82 19-31-199-63-478-35-309-25-338 10-25 65-85 43-47 36-87L621 456 966 258l21 37" fill="#fff"/><path d="M438 292q55-41 125-41l57 8q57 15 100 59l-18 29-20 28q-32-40-79-52l-40-6q-48 0-85 27-37 27-49 70-14 53 17 102 30 48 88 63l40 6 18-2v66l-18 2-57-8q-84-22-128-94-45-73-23-152 17-64 72-105" fill="#fff"/></svg>