<?xml version="1.1" encoding="UTF-8"?><svg xmlns="http://www.w3.org/2000/svg" xmlns:xlink="http://www.w3.org/1999/xlink" version="2.0" width="100pt" height="100pt" viewBox="0 0 2000 2000" clip-rule="evenodd" fill-rule="evenodd" preserveAspectRatio="none"><path d="M603 1688q-21 137-68 265H374q-25-197-54-299 16-31 59-43l79-15q44-10 123-53 102-55 110-59l-50 94q-30 60-38 110" fill="#fff"/><path d="M1372 1779q4 23-27 87-35 73-37 87H992l21-47q13-28 14-52 54-53 85-103 39-62 53-135 18 22 98 69 67 39 83 83 22 5 26 11" fill="#fff"/><path d="M1210 318q80-163 138-251l-96 442q71-43 172-36 119 7 120 101 176-147 342-303L1707 554 1521 839l36 60q18 37 18 79 152-52 349-73 2 8-13 24l-29 26-388 345 27 37q11 24 7 56l40 29 37 32 142-33 154-13q-146 88-400 258-43-24-76-64l-62-86-67-85-26-41-30-38q-70-62-127-47-2-25 16-53l27-47q8-25-28-85 22-8 39-23 25-23 31-59 6-37-10-68l-10-28q-7-17-19-18l-25 3-27 5h-2q26-26 27-81l-4-50-90 56q-9 11-28 71-18 58-30 69 4 9 38-18 38-30 45-29 9 6 3 17-8 15-6 23 3 12-45 50-50 41-52 49-21-28-44-89-14-36-21-15v20 23q-3 19-21 57l-29 62-14 34q-9 25-5 50 2 13 15 32l16 30-43 2-38-10q-68-7-147 32l-126 60q-93 82-211 112-27-31-42-95-9-37-23-117-22-87-39-234 15 8 25 31l17 38q55 88 73 165l40-71q25-40 56-55L368 620q56 105 123 265l84-61q51-34 100-46 80-222 150-450 12 44 20 122l15 128q32-37 107-38 74 0 112 34l131-256" fill="#fff"/></svg>