<?xml version="1.1" encoding="UTF-8"?><svg xmlns="http://www.w3.org/2000/svg" xmlns:xlink="http://www.w3.org/1999/xlink" version="2.0" width="100pt" height="100pt" viewBox="0 0 2000 2000" clip-rule="evenodd" fill-rule="evenodd" preserveAspectRatio="none"><path d="M1706 685l-52 226-273 422 313-173-384 395 5-341 5-568q0-147-314-134-314-13-314 134l5 568 4 341-383-395 305 140L358 911 306 685 554 831 298 207 675 465l91-358 316 289 204-266 58 265 135-55 235-133-291 703 283-225" fill="#fff" fill-opacity=".8"/><path d="M804 1744q85 43 207 44 122 1 206-41 94-46 94-127v-31q33 38 33 77 0 74-98 126-98 52-237 52-138 0-236-52-98-52-98-126 0-41 35-79v33q0 78 94 124" fill="#fff"/><path d="M837 620q72-29 172-29 101 0 173 29 71 28 71 68v604q-5 39-75 66-71 27-169 27l-90-7V801l-78-35v592q-70-27-75-66V688q0-40 71-68m35 100 137 14 138-14q57-15 57-36 0-21-57-36l-138-15q-80 0-137 15-57 15-57 36 0 21 57 36" fill="#fff"/><path d="M1178 1400q70-27 75-66v281q0 58-76 92-68 30-167 29-99-1-168-31-76-34-76-90V1333q5 39 75 66v234l78 36V1419l90 7q98 0 169-26" fill="#fff"/></svg>