<?xml version="1.1" encoding="UTF-8"?><svg xmlns="http://www.w3.org/2000/svg" xmlns:xlink="http://www.w3.org/1999/xlink" version="2.0" width="100pt" height="100pt" viewBox="0 0 2000 2000" clip-rule="evenodd" fill-rule="evenodd" preserveAspectRatio="none"><path d="M1723 698q1-25-23-50-48-51-176-51-136 0-192 51-18 15-25 34l-4 16 2 525-60 74-1-524q-2-14-33-28-63-28-212-28-144 0-213 33l-40 32v526l-58-78-4-538q-5-20-35-41-60-41-183-41-83 0-145 38l-45 37-19 488-47-211-86-567L439 522 350 215 786 591 754 123l313 417 214-417-6 345 322-329-65 371 329-214-89 758-30 153-19-509" fill="#fff" fill-opacity=".8"/><path d="M818 1759q71 35 175 36 103 1 174-34 80-40 80-108v-26q28 31 28 65 0 62-83 107-83 44-200 44-117 0-200-44-83-45-83-107 0-33 29-67v28q0 66 80 106" fill="#fff"/><path d="M480 1514q-93 0-158-35-65-34-65-84 0-28 23-53v22q0 52 63 84 56 28 138 29 81 0 137-28 63-31 63-85v-20q22 24 22 51 0 49-65 84-66 35-158 35" fill="#fff"/><path d="M1348 1473q-67-36-67-86 0-28 24-54v22q0 53 64 85 59 29 142 30 84 0 142-28 64-32 64-87v-21q22 25 22 53 0 50-67 86-67 36-162 36-94 0-162-36" fill="#fff"/><path d="M992 783q85 0 146 24 60 24 60 58v511q-4 33-64 56-59 22-142 22l-69-5V995l-59-26v467q-73-23-78-60V865q0-34 60-58 61-24 146-24m165 78q0-17-48-30L992 818 875 831q-48 13-48 30 0 18 48 31l117 12 117-12q48-13 48-31" fill="#fff"/><path d="M864 1472v158l59 27V1485l69 5q82 0 142-23 60-23 64-56v238q0 49-64 77-58 26-142 25-83 0-142-26-64-28-64-76V1411q5 37 78 61" fill="#fff"/><path d="M317 743q0-27 48-46 47-19 115-19 67 0 114 19 48 19 48 46v403q-3 26-50 43-47 18-112 18l-61-4V818l-52-23v394q-47-18-50-44V743m71-27q-38 10-38 24 0 14 38 23l92 10 92-10q38-9 38-23 0-14-38-24l-92-10-92 10" fill="#fff"/><path d="M480 1235q65 0 112-18 47-17 50-43v187q0 82-162 81-66 0-112-21-51-22-51-60V1173q3 26 50 44v156l52 24V1231l61 4" fill="#fff"/><path d="M1510 651q69 0 118 20 49 19 49 47v413q-4 26-52 45-48 18-115 18l-62-4V795l-53-24v405q-48-19-51-45V718q0-28 49-47 48-20 117-20m0 98 94-10q39-10 39-24 0-14-39-25l-94-10-94 10q-39 11-39 25 0 14 39 24l94 10" fill="#fff"/><path d="M1344 1352V1159q3 27 51 45v160l53 25V1218l62 5q67 0 115-18 48-19 52-45v192q0 40-52 63-47 20-114 20-68-1-115-22-52-23-52-61" fill="#fff"/></svg>