<?xml version="1.1" encoding="UTF-8"?><svg xmlns="http://www.w3.org/2000/svg" xmlns:xlink="http://www.w3.org/1999/xlink" version="2.0" width="100pt" height="100pt" viewBox="0 0 2000 2000" clip-rule="evenodd" fill-rule="evenodd" preserveAspectRatio="none"><path d="M1246 679q-37 101-4 219 34 119 117 186 83 67 168 44 85-24 121-125 37-100 4-219-33-118-117-186-83-67-168-44-85 24-121 125M834 657l69-12q80-5 140 29 22 16-34-160L0 826V776L1072 415l80 55 61 155q9-72 107-118l31-11q102-29 203 52 100 81 140 224 40 143-4 265-44 122-146 150-45 13-98 1l-258 97q-53 96-145 121L9 1738q-9-42-9-89V1202q134-31 193-32 144 0 217 27 21 7 98 69 83 67 96 74 67 37 134 24l-59-44q-125-99-149-280-12-91 1-170-66 27-531 162V926L834 657m16 59q-97 27-140 139-43 112-6 242 37 131 131 205 95 73 192 46 97-28 140-139 43-112 6-243-37-131-131-204-95-73-192-46" fill="#fff"/></svg>