<?xml version="1.1" encoding="UTF-8"?><svg xmlns="http://www.w3.org/2000/svg" xmlns:xlink="http://www.w3.org/1999/xlink" version="2.0" width="100pt" height="100pt" viewBox="0 0 2000 2000" clip-rule="evenodd" fill-rule="evenodd" preserveAspectRatio="none"><path d="M1195 684l15-4h1q21 2 33 11 20 13 35 67l16 1 34 8q15 7 26 26 7 12 4 27l-8 26q-4 13-2 28l4 29v22q-5 65-44 166l-38 69q-10 16-10 30l4 30-2 74-6 48q-12 67-17 136-9 114-4 194l13 161 10 160H729q13-91 45-250l47-249q10-56 11-128 0-82-14-132-9-32-84-75-75-43-87-86l-16-79q-8-54-3-80l1-2q29-4 79-27 48-22 73-42 27-21 49-85l36-109q33-79 95-79l20 2q17 3 40 21l39 24 6 1 17-5q10-6 17-6 17 0 44 22l15 31q8 24 17 27l4 1 15-4" fill="#fff"/><path d="M0 525V352l4-68L213 407l38 24 31 15q15 2 36-12l33-18 72 3q43 6 67 14 27 9 80 50 59 44 88 58l20 5 19 4q25 12 57 34l52 37-28 80q-22 77-37 90-20 15-61 34-41 19-61 22l-45 6-5 25L0 525" fill="#fff"/><path d="M1717 948q-62-37-90-35-33 3-60 40-25 34-22 64 5 38 69 66 66 28 121 12 18-12 15-50-3-42 3-50 40 14 27 71-10 43-36 76 50 3 63-50 12-49-15-88-16-22-75-56m283 109v518q-193-3-375-78-115-48-300-164l5-82-1-45-2-11v-1l7-11q26-39 37-69 31-81 44-154l18 5q37 4 99-38 65-44 100-44 33 0 107 44 69 40 92 68l17 35 13 34 139-7" fill="#fff"/><path d="M827 262q-54-54 1-31 53 22 164 96 291 195 441 371L827 262" fill="#fff"/><path d="M364 102q-54-54 1-31 53 23 164 97Q820 363 970 539L364 102" fill="#fff"/></svg>