<?xml version="1.1" encoding="UTF-8"?><svg xmlns="http://www.w3.org/2000/svg" xmlns:xlink="http://www.w3.org/1999/xlink" version="2.0" width="100pt" height="100pt" viewBox="0 0 2000 2000" clip-rule="evenodd" fill-rule="evenodd" preserveAspectRatio="none"><path d="M998 1741q-1-3 3-3l2 3-2 3-3-3" fill="#fff"/><path d="M531 1254q-13 34 55 86 37 30 98 52 150 55 297 55h24q148 0 297-55 62-21 99-52 68-52 55-86l-27-44-15-30-29 53q-55 64-163 93-75 19-191 23H956q-116-4-191-23-108-29-163-93-13-15-29-53l-15 30-27 44M849 971l-36 209 188-99 187 99-36-209 152-148-210-30-93-190-94 190-210 30L849 971M722 502q-53 19-87 45-59 49-48 76l11 20 12 19 14 26q14-34 25-47 48-56 144-81 66-17 167-20h67q101 3 167 20 95 25 143 81 12 13 26 47l14-26 12-19 11-20q11-27-48-76-34-26-87-45-130-48-261-48H983q-131 0-261 48M700 298q60 34 124 38 69 4 127-26l28-18 22-23 21 23 28 18q58 30 127 26 64-4 124-38l63-39q27-11 65 16 78 56 177 146 48 44-25 102-104 84-113 102-68 147 21 378 17 44 67 122 52 80 66 114 53 128-103 208-51 26-121 48l-126 36q-70 20-167 105-76 67-102 105l-2-3q-4 0-3 3-26-38-101-105-98-86-168-105l-126-36q-71-22-121-48-156-80-103-208 14-34 66-114 50-78 67-122 89-231 21-378-8-18-112-102-74-58-26-102 100-90 177-146 38-27 65-16 18 7 63 39" fill="#fff"/><path d="M1000 962 829 1154 960 932 724 829l251 56 25-257 25 257 252-56-236 103 130 222-171-192" fill="#fff"/></svg>