<?xml version="1.1" encoding="UTF-8"?><svg xmlns="http://www.w3.org/2000/svg" xmlns:xlink="http://www.w3.org/1999/xlink" version="2.0" width="100pt" height="100pt" viewBox="0 0 2000 2000" clip-rule="evenodd" fill-rule="evenodd" preserveAspectRatio="none"><path d="M742 1601l45-96q28-67 84-161 112-188 250-324 199 161 317 343l-49 70-1 5q-62 106-210 248-139 132-171 132-154-103-265-217m849-839v12q-9 299-24 317-9 44-67 158l-33 63q-102-203-277-354 190-160 401-196M909 873l146 97q-242 231-331 586v26q-146-155-211-325l-52-107q-30-123-45-380l-7-123q228 75 421 180-98 142-144 333l-30 146q22-56 64-138 85-164 189-295m386-538q279 90 289 107 12 22 10 184l-1 66-90 20q-38 6-123 42-135 59-252 153-73-57-158-106 158-173 334-246l-50-10-120 34Q993 637 887 756 668 645 407 589q-3-91 1-105 6-22 27-37 39-33 269-112 275-94 313-88l278 88" fill="#fff"/></svg>