<?xml version="1.1" encoding="UTF-8"?><svg xmlns="http://www.w3.org/2000/svg" xmlns:xlink="http://www.w3.org/1999/xlink" version="2.0" width="100pt" height="100pt" viewBox="0 0 2000 2000" clip-rule="evenodd" fill-rule="evenodd" preserveAspectRatio="none"><path d="M1217 678l71 10q128 135 128 326 0 191-128 325l-71 10q98-103 98-335 0-232-98-336M933 860 897 573l110 193 3 4 150-627-73 737 110 6-41 79q-24 88 57 138l-30-4q-35 3-63 37l68 379-152-310-158 650 54-707q-38 12-105 62 30-46 35-93 11-94-109-97 49-11 83-42 67-62-8-161l37 24q42 23 68 19M785 678q-97 104-97 336 0 232 97 335l-71-10q-127-134-127-325 0-191 127-326l71-10" fill="#fff"/><path d="M1393 517l71 10q184 194 184 470 0 276-184 470l-71 10q155-163 155-480 0-316-155-480m-784 0Q455 681 455 997q0 317 154 480l-71-10Q355 1273 355 997q0-276 183-470l71-10" fill="#fff" fill-opacity=".85"/><path d="M1886 997q0 362-242 618l-71 10q98-104 158-291 55-173 55-337 0-164-55-336-60-188-158-292l71 10q242 256 242 618M429 369Q331 473 272 661q-55 172-55 336 0 164 55 337 59 187 157 291l-70-10Q118 1359 118 997q0-362 241-618l70-10" fill="#fff" fill-opacity=".7"/></svg>