<?xml version="1.1" encoding="UTF-8"?><svg xmlns="http://www.w3.org/2000/svg" xmlns:xlink="http://www.w3.org/1999/xlink" version="2.0" width="100pt" height="100pt" viewBox="0 0 2000 2000" clip-rule="evenodd" fill-rule="evenodd" preserveAspectRatio="none"><path d="M371 1548q-78-18-161 35l27-135q97 21 134 100m9 24 2 9-18 93 12 18-23 70q-69 38-140-3-35-21-57-49l23-75 23-13 3-11q31-25 67-37 56-20 108-2M280 1236l26-127q95 22 133 97-79-21-159 30m123 130q-73-20-155 28l25-125q94 23 130 97m10 24 4 12-28 140q-39-87-148-114l2-7q87-62 170-31m70-332-27 139q-41-83-146-107v-1q32-24 69-35l104 4m-34 172v3l-25 131q-37-83-134-111 80-52 159-23M1690 482q167 195 167 479 0 286-153 476-180 222-517 222-193 0-339-127-159-139-159-358 0-226 161-390 50-51 110-90l50-28L904 546l453 40-167 400-86-153-40 18q-47 26-87 59-127 108-127 259 0 157 91 258 97 107 264 107 130 7 260-61 260-135 259-508 0-291-180-437-149-121-385-121-254 0-435 169Q568 722 538 907l16 9 5 18q4 23-4 51-10 39-46 53l-22-1v1q-86-31-172 24l16-79-14-11-8-21q-6-25 4-49 11-26 27-37l13-6 27 5q31-151 144-303 225-303 633-303 341 0 533 224" fill="#fff"/></svg>