<?xml version="1.1" encoding="UTF-8"?><svg xmlns="http://www.w3.org/2000/svg" xmlns:xlink="http://www.w3.org/1999/xlink" version="2.0" width="100pt" height="100pt" viewBox="0 0 2000 2000" clip-rule="evenodd" fill-rule="evenodd" preserveAspectRatio="none"><path d="M1735 966q64-38 116-83l39-37-28 49q-40 60-99 109-188 158-496 158-231 0-473-95-129-51-181-65-105-30-216-30-171 0-402 77V842l402-25q123 0 239 42 66 24 193 92 124 66 199 92 121 42 254 42 248 0 453-119" fill="#fff"/><path d="M1626 751l90-98-57 146-92 140 59-188M221 1214l166-98 224-23-227 90-163 31m498-55q35 11 74 28-159 68-181 90l106-14q111-10 138 9 15 13 13 44-5 62-93 156l77-52q85-48 129-32 64 24 72 85 4 30-5 55l37-55q46-51 96-35l56 20q58 37 64 120l28-97q27-107 19-156 69-8 130-30-11 94-42 202-61 216-158 288 5-65-9-122-27-114-118-70-73 35-123 117-38 60-43 99 6-55-3-115-17-119-90-140-72-21-238 56-83 39-152 81 55-49 103-111 95-125 57-190-38-65-246-27-104 19-201 51 86-56 188-116 205-122 288-146l27 7M361 615 244 502 458 611 616 722 361 615m805-375q10 68 33 154 45 170 107 256 61 85 105-4 22-44 31-106 53 171 55 307 1 69-8 103-72 24-130 29 25-29 40-113l10-79q-19 31-73 42l-50 4q-79-21-111-132l-16-108q-4 50-46 77l-41 17q-50 0-110-83l-50-84q0 12 29 88 22 73-2 85-25 13-111-44l-82-59 50 80q51 89 61 136-105-70-105-60-36-92-227-270L341 317q93 49 192 85 197 70 226 1 25-60 5-181L739 113q44 90 101 182 114 183 176 192 105 14 138-115 17-65 12-132m457 1119 73 119-89-66-56-129 72 76" fill="#fff" fill-opacity=".85"/></svg>