<?xml version="1.1" encoding="UTF-8"?><svg xmlns="http://www.w3.org/2000/svg" xmlns:xlink="http://www.w3.org/1999/xlink" version="2.0" width="100pt" height="100pt" viewBox="0 0 2000 2000" clip-rule="evenodd" fill-rule="evenodd" preserveAspectRatio="none"><path d="M1853 540q2-11-6-32-6-15 9-21 9-3 27 11l24 25v3q-12 21-45 43l-50 37 6 12q5 5 0 9-82 54-205 142l-7 49q11 9 50 11 39 3 51 11l-4 38-11 32-64-6-56-13-41 31-65 7q-7 5-8 26l-6 29-17 3q-10 1-16 8-40-34-65 12-10 39-2 56l21 40 29 99 43 133q-19 60 1 210 18 138 40 179l26 28 27 25q27-3 46 12l33 24q-14 49-93 55l-145-1-26-42q-18-37-18-46l-24-195-26-156-16-72q-16-66-27-76-26-24-57 5l-36 47q-23 29-96 80-69 49-87 51-33 5-109 2l-122-1-161 16q-24 7-57 54-30 41-67 43-1-26 6-60l9-56 40-78q23-48 55-61l97-20 104 4 102 9q68-5 142-107 34-45 41-74 5-21 2-52-3-30 1-49 10-45 31-77 4-7 23-23l19-26 9-56q3-41-1-59-3-13-23-31-21-18-23-29-7-41 75-130 74-81 112-96l61-12q36-7 49-32-23-33 1-123 16-9 29-33l22-40q69-23 118-2 50 21 51 77l-3 45-7 46-23 35q-17 20-14 38-70 7-100 59 29 34 21 106-7 67-36 108 41-17 136-82 114-77 142-122l36-1 38 1q17-3 33-14l27-20M921 818l-15 33q-21 40-53 74-103 106-279 106-132 0-282-85-149-86-237-86L0 865V776l63-4q104 0 250 90 146 90 261 90 141 0 258-67l89-67" fill="#fff"/><path d="M962 514q-5 122-76 219L801 612 766 762 626 687l29 178q-50 3-97-13l-38-16q-36-17-80-46-88-59-127-122 48 29 103 52 111 45 145 12 9-1 1-31-17-60-101-204 35 37 84 72 98 70 165 59 16-7 26-51 19-86-10-265 43 130 92 208 99 155 135-108 12 42 9 102" fill="#fff" fill-opacity=".85"/></svg>