<?xml version="1.1" encoding="UTF-8"?><svg xmlns="http://www.w3.org/2000/svg" xmlns:xlink="http://www.w3.org/1999/xlink" version="2.0" width="100pt" height="100pt" viewBox="0 0 2000 2000" clip-rule="evenodd" fill-rule="evenodd" preserveAspectRatio="none"><path d="M1638 392q44-7 104 67l80 114 17 42q10 32 3 24L1740 509q-83-85-96-2-6 38 26 245 29 191 9 239-56 136-255-153-102-147-218-360-105-159-155-205-97-92-224-80-145 13-315 225-40 49-78 125l79 36-13 6q13 20-1 39l-33 31-49 39q-26 19-37 44-12 27-14 71l1 75q0 96 27 129 27 34 120 49l139 37q93 22 122-12 16-19 20-60 3-38-6-62l-36-53q-24-33-18-59l71-9q6-46 38-85 35-43 83-54 68-15 97 31 20 32 25 102 41 6 58 44-41 34-56 63-14 26-23 84-8 51 6 77 15 25 66 52l57 25q32 14 50 38 13 16 30 52l26 55 62 109q38 65 66 99 47 57 107 71 49 12 131-2l51-3q16 5 44 37 51 59 64 100-13-14-50-30 14 51-9 65-15 9-76 11 24-52-98-82l-172-32q-29-8-69-34l-66-36-63 1q-13 9-42 57-61 100 2 193 22 33 151 147H553q36-77 49-117 13-35 12-61l-10-61q-7-36 16-123 23-92 20-135l-15-62-23-60q-18-37-35-56-18-20-53-39-36-20-126-51-86-29-121-51-43-26-65-108-21-77-7-131 50-185 97-226-3-48 11-94 16-53 48-78l16-9q60-213 252-341 211-140 399-26 158 96 295 356l125 221q100 164 154 191 36 18 32-72-10-113-7-152-11-102-15-175-8-140 36-147" fill="#fff"/></svg>