<?xml version="1.1" encoding="UTF-8"?><svg xmlns="http://www.w3.org/2000/svg" xmlns:xlink="http://www.w3.org/1999/xlink" version="2.0" width="100pt" height="100pt" viewBox="0 0 2000 2000" clip-rule="evenodd" fill-rule="evenodd" preserveAspectRatio="none"><path d="M1743 420q17-13 40-16-44-20-20-39 23-19 52 13l-13-33q22 7 38 54 13 35 53 20-48 26-55 79-5 31-1 98-2 77-17 110-21 43-83 70l-90 35q-40 22-60 74-15 40-31 109l-26 112-24-9-24-10q4 68-44 81l-113-8-123-20q-61-1-74 43l-35 89q-25 62-21 94 4 36-75 41-76 4-99-20l60-35q45-27 47-42l28-174q12-74 54-104 26-19 117-45-94-55-139-69l-152 6q-51 21-77-55L804 742q37 1 67 43l31 37q-14-171-13-260 0-78-23-150-27-86-80-135-46-44-131 7-64 39-111 100-87 113-140 270-46 139-81 346l-56 352q-45 244-56 403-4 70-29 208-54-25-90-63-26-24-45-58l33-197q11-103 36-240l45-238q62-315 80-385 60-223 155-359 88-124 162-183 125-99 228-43 75 40 115 147 33 88 32 183 0 121 14 293l4-4q23-19 33-20l18 4 16 1 80-20q31-3 75 19 44 22 69 40 29 20 60 52l33-68q20-47 12-72-8-25-53-48-44-23-46-34-4-21-27-53-27-37-33-54-3-6 2-26 4-19-6-33-8-12-38-25l-43-18 21-5 20-5-22-15-23-15 19-2 21 1-40-21q20-3 20-13l2-19q40 17 96 94l83 116q20 25 90 33 75 8 98 28 4-9-8-60-9-40 20-52 17-6 24-32 6-23 33-27l29-5 33 5 36 88q9 49-37 84 28 37 77 33 50-3 62-48 24-71 31-118 12-88-45-86" fill="#fff"/><path d="M1166 1342l16-72 57 4 39 561-14 4-98-497m302-86 93-40-51 585-10 2-32-547m-159-7 97 13-15 561-14 3-68-577m364-266 54-28-95 665-9-1 10-561 40-75" fill="#fff" fill-opacity=".85"/></svg>