<?xml version="1.1" encoding="UTF-8"?><svg xmlns="http://www.w3.org/2000/svg" xmlns:xlink="http://www.w3.org/1999/xlink" version="2.0" width="100pt" height="100pt" viewBox="0 0 2000 2000" clip-rule="evenodd" fill-rule="evenodd" preserveAspectRatio="none"><path d="M2000 620v840l-491 400 306-520-815 174 869-381-347-415L718 354 1759 554 1602 87l398 533" fill="#fff" fill-opacity=".8"/><path d="M192 1100q9 9 22 9l23-9q9-9 9-22 0-13-9-22-10-9-23-9-13 0-22 9-9 9-9 22 0 13 9 22m228-22-9-22q-9-9-22-9-13 0-22 9-9 9-9 22 0 13 9 22 9 9 22 9 13 0 22-9l9-22M1855 594l145 240v426l-232 254 114-267H1759l110-87-1060 1-134 13-143 17-28 23-20 269H166q-9-18-27-277l-23-22v-16H100q-15 0-16-90 1-90 16-90h16V973l23-23q18-259 27-277H484l20 270 28 22 277 29H1847L1535 594l320 124V594" fill="#fff"/></svg>