<?xml version="1.1" encoding="UTF-8"?><svg xmlns="http://www.w3.org/2000/svg" xmlns:xlink="http://www.w3.org/1999/xlink" version="2.0" width="100pt" height="100pt" viewBox="0 0 2000 2000" clip-rule="evenodd" fill-rule="evenodd" preserveAspectRatio="none"><path d="M838 176l368 39-102 488-175-32q-137-27-146-39-11-13-16-54l-3-38 74-364m552 155q-15-22-41-26-25-4-47 11-21 15-26 40-4 26 11 47 15 22 40 26 26 5 47-10 22-15 26-41 5-26-10-47m52-133 29 34 2 28v1l-90 490-247-43 106-490h1l7-23 33-23 159 26m379 510q-5 29-54 104l-358-50 93-494 379 95-60 345m-688 32 245 47-51 205-46 183q-13 46-161 822H935l150-840 48-417m188-101q21-14 25-40 5-25-10-46-14-21-40-26-25-5-46 10-21 15-26 40-4 26 10 47 15 21 40 25 25 5 47-10" fill="#fff"/><path d="M948 727l14 24-42 422-123 689 35-693-12-424-16-22q-318-18-338-36-12-12-22-52l-8-38 27-369 194-5-58 333 3 39q5 41 16 54 17 21 330 78M119 344l128-14-23 316 8 38q11 40 23 51 20 19 338 35l16 22 13 424-14 781H592l-26-747-48-422-18-20q-318 10-339-7-22-17-38-87l-4-370" fill="#fff" fill-opacity=".8"/></svg>