<?xml version="1.1" encoding="UTF-8"?><svg xmlns="http://www.w3.org/2000/svg" xmlns:xlink="http://www.w3.org/1999/xlink" version="2.0" width="100pt" height="100pt" viewBox="0 0 2000 2000" clip-rule="evenodd" fill-rule="evenodd" preserveAspectRatio="none"><path d="M507 1404q3-48 11-58l33-49 16-29-38 34q-42 35-61 37-17 1-81-20 77 34 98 74 21 36 22 11M1556 456q19-14 54-22l54-2 31 3q16-1 23 11 8 12 19 16l32 14q16 9 17 23 1 13 10 18l32 5q18 2 22 18l7 40q3 22 10 28 10 10 3 27l-6 70-11 105q-5 31-30 71-20 34-34 44-10 7-33 94-21 84-24 115-10 94-41 129-13 15-52 38-35 20-42 32-57 97-88 112l-53 28-47 22-14-3-18-10q-30-50-97-105l-29-22q21 17 53 74l42 86q0 38 14 116 10 53 31 364l-763-3q-41-112-44-139-2-15-38-40l-101-78q-54-48-98-121l-33-64-71-71q-73-78-81-119-9-40 6-125l17-77-25-62q-24-68-15-100l9-60q3-31 21-65 48-88 51-105l20-229-51-53q-53-60-57-89l17-115q0-17 27-24l27-3 67-57q69-55 82-51l22 21q13 19 32 26l51 5q28-1 33 12l10 30q5 14 17 18l33 5q18 4 18 18 0 29 37 44 13 5 19 26 6 21-2 31-3 4-15 70-12 61-26 69-27 15-27 105 0 121 24 124l12 18 17 119 11 88q0 37 9 76 9 43 18 34 14-14 15-101 1-100-27-177-10-25-13-62l94-8q77 9 125 72 32 44 41 113 12 85-29 139-24 31-23 68l84-7q22-8 62-17l59-10 82 11q65 12 74 23l61 1 60-5q8 4 26-38l28-60 60-51 48-37 71-158-20-47-38-50q-33-36-36-55l-11-51q-4-27 7-40l26-27q14-13 25-10 11 2 27 11l14 9q-11-47 13-64" fill="#fff"/></svg>