<?xml version="1.1" encoding="UTF-8"?><svg xmlns="http://www.w3.org/2000/svg" xmlns:xlink="http://www.w3.org/1999/xlink" version="2.0" width="100pt" height="100pt" viewBox="0 0 2000 2000" clip-rule="evenodd" fill-rule="evenodd" preserveAspectRatio="none"><path d="M783 679q25 25 25 59 0 34-24 59-24 24-59 25-34 0-59-24-24-25-24-59 0-34 24-59 24-25 59-25 34 0 58 24" fill="#fff"/><path d="M458 451q25-24 59-24 34 0 59 24 24 24 24 59 1 34-24 58-24 25-58 25-34 0-59-24-25-24-25-59 0-34 24-59" fill="#fff"/><path d="M835 984 985 826V772l-20-27L488 240 239 488 744 973l31 18 60-7M1668 0q155-1 239 80L67 1878q-70-88-70-224V1044l316 306 392-346L208 526-3 765V346q0-61 16-119L212 454 456 211 224 13 330 0H742Q660 74 528 206l474 497 320-379L1007 0h661" fill="#fff"/><path d="M1151 2000H986l-14-9-346-366 326-374 466 504q-172 168-267 245" fill="#fff"/><path d="M1288 1161q-24-25-58-25-34 0-59 24-25 24-25 59 0 34 24 58 24 25 59 25 34 1 58-24 25-24 25-58 1-34-24-59m424 315-253 245-470-512-20-27 1-54 153-156 60-7 31 19 498 492m-219-83q-24-25-59-25-34-1-59 24-24 24-24 58-1 34 23 59 24 25 59 25 34 0 59-24 24-24 25-58 0-35-24-59" fill="#fff"/><path d="M1490 1750l248-239 237 278q-24 67-74 114-59 62-142 84l-269-237" fill="#fff"/><path d="M1650 614l336 335 11 15v194l-254 281-490-485 397-340" fill="#fff"/></svg>