<?xml version="1.1" encoding="UTF-8"?><svg xmlns="http://www.w3.org/2000/svg" xmlns:xlink="http://www.w3.org/1999/xlink" version="2.0" width="100pt" height="100pt" viewBox="0 0 2000 2000" clip-rule="evenodd" fill-rule="evenodd" preserveAspectRatio="none"><path d="M803 263q-11 10-11 26-1 15 10 26 11 11 27 11 16 0 28-11 11-10 11-26 1-15-10-26-11-11-27-11-16 0-28 11m807 1038-71 91-85 102q-56 64-110 87-89 38-246 89 132 82 170 88 17 3 30-20 18-29 58-43 48-16 132-94l108-108q76-76 76-101 0-107-19-126-11-11-43 35M966 398q1-15-10-26-11-11-27-11-16-1-27 10-12 10-12 26-1 16 10 27 11 11 27 11 16 0 28-11 11-10 11-26M1038 4l161 158q14 13 35 66L1064 407l177 208 412 417 28 28 8-17q6-11 21-17 19-7 72 8l48 17 44 82 69 101 32 101 28 26v194l-58-58 6-3q13-8 22-28 8-20-2-19l-5 20-17 20-5 3q-48 27-127 54-24 8-46 36-11 14-17 27l-107 195-49 87q-30 48-59 77l-29 31H341q-158 0-254-96l-6-7q-16-53-27-128-13-82-10-121 3-31 20-95 12-47 5-57-8-13 29-42 33-27 53-34l76-19-76-88-17 14q-26 1-65-58-23-35-4-62l23-20q-71-99-76-145-6-73-2-91 11-65 78-130 26-26 82-40l86-11q37 0 111 47 81 51 112 105 20 34 47 128l29 112q6 29 0 77-6 54-24 63l-40 22q-16 16 25 28l115 9 82-10 54 1 78 5 120-6q87-9 120-25l57-31 63-32q29-13 114-35l113-35q52-22 128-82L1156 710 945 534l-18-2Q776 674 758 676q-18 1-57-24L534 480 713 284l-9-12V246l75-73 30-3 16 9L1038 4" fill="#fff"/></svg>