<?xml version="1.1" encoding="UTF-8"?><svg xmlns="http://www.w3.org/2000/svg" xmlns:xlink="http://www.w3.org/1999/xlink" version="2.0" width="100pt" height="100pt" viewBox="0 0 2000 2000" clip-rule="evenodd" fill-rule="evenodd" preserveAspectRatio="none"><path d="M691 558q-13 10-16 27-3 17 7 31 9 14 25 18l31-7q14-10 16-28 3-17-7-31-9-14-25-17-17-3-31 7m551 101-148 180q-27 37-21 123 8 95 62 115 50 19 158 95l97 72-125-227q-31-55 35-204 67-150 126-136l280 80 34 30q37 40 56 90 19 50-40 183l-70 145q-7 20 71-71l100-124q25-34 38-136 14-108-15-129-29-21-116-62-85-39-117-47l-144-15-152-8-47 13q-49 17-62 33M864 531q3-17-6-31-10-14-26-17-16-3-30 7-14 10-17 27-3 17 7 31 9 14 25 18 17 3 31-7 13-10 16-28m475-371q71-34 87-54 27-33 73-37l87 7q41 7 101 43 52 30 79 57 21 21 63 90 39 66 47 90 21 62 38 138 28 130 22 213l-15 175q0 79 45 85l31 9v668q0 158-96 249-94 97-249 97H976l-11-101q-5-23-51 12l-118 89H331q-61-86-112-208-54-125-65-214l-50-400-36-43-71 52V1050l24-17q-5-36 2-66 12-49 31-80l30-50q13-26 41-41 12-7 49-19l66-4 44 4 47 29 91-66L600 586l4-15q-99-148-98-163 1-10 14-28l14-17L702 246 844 424l12-6 21 4 52 74-2 25-10 12 119 205L880 853q-13 10-61 20L691 704 428 868l-4 29q-12 75-42 135l-28 45-16 67q-13 73 6 104 14 24 45 124 29 95 45 116l80 120 50 10 90-110-9-31q-2-33 29-39l69-9 32-1q80-110 110-140 19-19 81-71l59-49 120-31q-30-22-60-56-60-68-60-124 0-75 4-99 5-33 26-61 11-15 39-115 27-100 61-145 32-43 49-151 18-113 41-150 28-45 94-76" fill="#fff"/></svg>