<?xml version="1.1" encoding="UTF-8"?><svg xmlns="http://www.w3.org/2000/svg" xmlns:xlink="http://www.w3.org/1999/xlink" version="2.0" width="100pt" height="100pt" viewBox="0 0 2000 2000" clip-rule="evenodd" fill-rule="evenodd" preserveAspectRatio="none"><path d="M620 1211q155-34 319-37 170-2 321 34 94 25 157 57 44 23 74 49 44 36 59 84l6 28-2 33q-6 31-24 54-26 34-74 62-60 34-159 56-163 34-324 13-88-11-160-40-45-19-76-45-22-18-33-39l-11-27-1-8v-3-4l1-18q5-26 29-50 20-16 39-27 30-16 80-29l161-15q91 3 160 30l38 19q22 15 33 32l10 26-1 14-6 13-35 31q-29 15-79 22l-79 3-78-14-36-17q-22-14-23-30 2 15 25 27l36 13 76 6 76-9q40-8 68-25l22-21 2-5v-5l-5-10q-15-19-57-34-63-20-146-17-86 3-147 22-37 11-65 27l-24 19-10 16v1l1 2v3l4 8 19 20q20 15 59 31 59 22 142 30 74 6 149 0l147-21q85-22 132-50 31-18 45-38l7-16v-5l-2-10q-6-18-31-40l-56-36q-56-28-136-48-140-32-297-29-159 2-299 33-75 16-141 42-72 27-123 67-28 23-39 45-12 24-8 46 7 48 68 99 48 38 124 74 65 29 141 51 125 37 299 58l307 12 308-25 152-28 150-41q-128 58-297 96-138 31-310 46-346 28-630-43-190-50-298-131-34-27-63-63-31-41-41-89-11-55 16-105 19-37 60-74 55-47 148-85 77-30 156-48" fill="#fff"/><path d="M530 529q-21-32-34-12-7 10-9 26L407 396l87 44q102 60 174 145 75 87 187 280 31 55 41 108-9-39-58-87-17-17-18 16l2 36q-37-132-74-166-24-21-22 20l6 44-56-151q-26-66-67-83-13-6-7 43l9 49q-14-48-34-88l-47-77" fill="#fff" fill-opacity=".8"/><path d="M329 1026l41 117-116-55 29 7q26 2 9-27-11-19-63-44l-49-20q58 6 50-8-17-28-69-41l-48-8 32-6q20-10-42-30l38-12q83 42 129 75l59 52" fill="#fff" fill-opacity=".8"/><path d="M22 413 197 525Q389 658 478 767q56 68 99 161l-24 66q-16-38-30-35-17 3-25 75l-11-70q-20-92-64-141-44-49-66-11-11 20-13 49l-20-68q-28-79-70-137-42-57-55-8-6 25-4 61-4-41-28-98Q120 496 22 413" fill="#fff" fill-opacity=".8"/><path d="M1509 514q-12-20-35 11-35 48-51 74-23 39-39 86l11-49q9-47-4-43-43 17-72 79l-64 148 9-44q3-39-21-20-39 31-84 161l4-36q1-33-17-17-52 45-63 84 13-53 47-106 124-186 203-269 78-81 183-135l89-39-89 142-7-27" fill="#fff" fill-opacity=".8"/><path d="M1842 916l30 11 7 4q-63 16-44 27l32 8-49 5q-52 11-70 38-9 13 49 10l-50 17q-53 22-66 41-19 28 7 28l30-6-119 48 47-114q36-32 63-49 47-31 133-68" fill="#fff" fill-opacity=".8"/><path d="M1989 438q-102 77-156 189-27 56-34 97 4-36-1-61-10-50-55 5-45 54-78 132l-24 67q0-29-10-49-19-40-67 7-47 47-71 137l-15 69q-4-72-21-76-13-3-33 33l-20-68q48-89 108-154 96-104 296-226l181-102" fill="#fff" fill-opacity=".8"/></svg>