<?xml version="1.1" encoding="UTF-8"?><svg xmlns="http://www.w3.org/2000/svg" xmlns:xlink="http://www.w3.org/1999/xlink" version="2.0" width="100pt" height="100pt" viewBox="0 0 2000 2000" clip-rule="evenodd" fill-rule="evenodd" preserveAspectRatio="none"><path d="M1571 645q-88-49-203-80l70-75q214 56 347 158 136 104 152 229H1772q-18-114-152-203l28-28-77-1" fill="#fff" fill-opacity=".8"/><path d="M1011 437q190 0 360 37l-70 75q-143-29-290-29-152 0-301 32l-72-75q175-40 373-40" fill="#fff" fill-opacity=".8"/><path d="M86 937H251q15 101 125 185 107 82 278 128l-69 75q-214-56-347-158Q102 1062 86 937" fill="#fff" fill-opacity=".8"/><path d="M652 1341l69-75q145 29 290 29 154 0 301-32l73 75q-177 40-374 40-189 0-359-37" fill="#fff" fill-opacity=".8"/><path d="M1772 937h165q-15 123-148 227-129 100-337 157l-72-75q167-46 271-127 106-83 121-182" fill="#fff" fill-opacity=".8"/><path d="M643 568Q476 615 372 696 266 779 251 877H86q16-123 148-226Q363 550 571 493l72 75" fill="#fff" fill-opacity=".8"/><path d="M654 1250q-171-46-278-128-110-84-125-185H943L654 1250" fill="#fff"/><path d="M251 877q15-98 121-181 104-81 271-128L941 877H251" fill="#fff"/><path d="M1312 1263q-147 32-301 32-145 0-290-29l291-315 300 312" fill="#fff"/><path d="M1126 877l346-142-1 89 149-150q134 89 152 203H1126" fill="#fff"/><path d="M1397 643l63 63-357 147 265-288q115 31 203 80l-174-2" fill="#fff"/><path d="M1011 520q147 0 290 29L1011 864 710 552q149-32 301-32" fill="#fff"/><path d="M1082 937h690q-15 99-121 182-104 81-271 127L1082 937" fill="#fff"/><path d="M79 1065l33 56q49 68 130 124 259 181 742 185 483 4 770-180 89-58 149-127l41-58-38 313-46 44q-63 52-150 96-279 140-696 142-417 3-718-162-94-51-165-113l-52-52V1065" fill="#fff" fill-opacity=".8"/></svg>