<?xml version="1.1" encoding="UTF-8"?><svg xmlns="http://www.w3.org/2000/svg" xmlns:xlink="http://www.w3.org/1999/xlink" version="2.0" width="100pt" height="100pt" viewBox="0 0 2000 2000" clip-rule="evenodd" fill-rule="evenodd" preserveAspectRatio="none"><path d="M274 1064l33 22-92 320 152-380-93 38M247 17V57L296 9l15-1V257l-64 59v733l163-69-195 463L19 980l164 69V317l-81-63V91q27-26 61-46l20 17V37l64-20" fill="#fff"/><path d="M1411 660l-43 17 15 10-42 148 70-175m3-651V58l-56 40V666l82-35-97 232-98-232 82 35V99l-66-43V9h153" fill="#fff" fill-opacity=".8"/><path d="M575 899l15 10-42 147 70-175-43 18M534 320l-67-43V87l67 56V107h31v33l56-55V280l-56 39V886l82-35-97 231-98-231 82 35V320" fill="#fff" fill-opacity=".8"/><path d="M1669 1369l101-253-61 26 22 14-62 213M1650 200V133h41v66l84-78V388l-84 55v694l106-45-127 301-127-301 107 45V443l-85-59V124l85 76" fill="#fff"/><path d="M1054 1179l50 1-107 379 175-438-118 58M957 289 842 209V9h310V214l-115 77v853l204-87-244 578-244-578 204 87V289" fill="#fff"/><path d="M1580 1427q-153-70-394-94l18-34q275 26 451 106 179 81 179 185 0 124-247 212-247 88-596 88-348 0-596-88-247-88-247-212 0-106 186-188 184-81 467-105l16 34q-249 21-409 93-164 73-164 166 0 110 219 188 219 78 528 78 309 0 528-78 218-78 218-188 0-91-157-163" fill="#fff"/><path d="M943 1652h31l25 50 25-50h15v167H943V1652" fill="#fff"/><path d="M1624 1573v34H1137v-34h487" fill="#fff"/><path d="M825 1573v34H358v-34H825" fill="#fff"/></svg>