<?xml version="1.1" encoding="UTF-8"?><svg xmlns="http://www.w3.org/2000/svg" xmlns:xlink="http://www.w3.org/1999/xlink" version="2.0" width="100pt" height="100pt" viewBox="0 0 2000 2000" clip-rule="evenodd" fill-rule="evenodd" preserveAspectRatio="none"><path d="M370 787H471v53H370v74H327V861H112L28 825l91-59H327V713h43v74m-43 0-166 27 166 26V787" fill="#fff"/><path d="M513 1231v75H471v-54H256l-85-36 91-58H471v-54h42v75H614v52H513m-42 0v-52l-166 26 166 26" fill="#fff"/><path d="M471 451V399L305 425l166 26M171 437l91-59H471V324h42v75H614v52H513v75H471V473H256l-85-36" fill="#fff"/><path d="M1843 761l-166-26v52l166-26m-309 26V735h101V660h42v54h215l85 36-92 59H1677v53h-42V787H1534" fill="#fff"/><path d="M1555 1146v52l166-26-166-26m215-21 85 36-91 58H1555v54h-42v-75H1412v-52h101v-75h42v54h215" fill="#fff"/><path d="M1526 336v52l167-26-167-26m-42-75h42v54h215l85 36-91 58H1526v54h-42V388H1383V336h101V261" fill="#fff"/><path d="M157 1641q0-87 131-160 127-72 339-109l-20 43q-162 36-256 95-97 61-97 131 0 110 219 188 218 78 527 78 309 0 528-78 219-78 219-188 0-68-94-128-90-58-247-95l-18-43q206 38 329 108 126 72 126 158 0 124-247 212-247 88-596 88-349 0-596-88-247-88-247-212" fill="#fff"/><path d="M927 1342h147l14 35H914l13-35" fill="#fff"/><path d="M952 1593V1419h96v174H952" fill="#fff"/><path d="M952 1704h96v166H952V1704" fill="#fff"/><path d="M1633 1624v34H1503l-14-34h144" fill="#fff"/><path d="M1146 1658v-34h36l13 34h-49" fill="#fff"/><path d="M367 1658v-34H512l-15 34H367" fill="#fff"/><path d="M835 1624v34H807l13-34h15" fill="#fff"/><path d="M1152 210q0 63-44 108-45 44-108 44-63 0-107-44-45-45-45-108 0-63 45-107 44-45 107-45 63 0 108 45 44 44 44 107" fill="#fff"/><path d="M830 425l356 3 263 434 5 30q0 31-19 40-24 11-48-4l-19-18-196-345V938l269 683-210 3-227-557-235 554-213-3L844 958V585L637 916l-24 15q-28 12-49-4-20-15-17-40l6-22L830 425" fill="#fff"/></svg>