<?xml version="1.1" encoding="UTF-8"?><svg xmlns="http://www.w3.org/2000/svg" xmlns:xlink="http://www.w3.org/1999/xlink" version="2.0" width="100pt" height="100pt" viewBox="0 0 2000 2000" clip-rule="evenodd" fill-rule="evenodd" preserveAspectRatio="none"><path d="M816 568q11 6 5 15l-13 14-4-4-4-4q4-4 13-7l3-14" fill="#fff"/><path d="M820 721q8 3 7 12 0 9-11 9-1-12 4-21" fill="#fff"/><path d="M783 812q-12 18-70 16l6 4 10 1-14 4H696q21-17 87-25" fill="#fff"/><path d="M1279 1468q7 16 4 38-4 22-9-13l5-25" fill="#373535"/><path d="M1010 1894l7 1 6 3-3 10q-4 4-2 10-6-6-8-24" fill="#373535"/><path d="M781 678l39 2 13 14 12 19-41 3q-23 8-29 30-6 2-9-3l-8-5q-6 2 0 3 8 3 4 9l-15-16-13-17 8-16 12-21 3 2v2l24-6" fill="#fff"/><path d="M655 977q1-4 5-2l8-2q-9-3-7-17l2-29 15-1 10-23q52-12 53 25 1 21-10 68l7-16 8-24q10 3 24-13 15-17 26-16 3 43-18 80l-36 61-7-10q-2-1-1 14-8-10-11-31-3-22 2-35h-8q-4 1-1 7 4 8 1 14-15 2-16-9 0 18-9 29l-8-6-8-6 2 8 2 8q-7 0-8-8v-16q-5 0-4 12 1 12-9 8l2-13-2-16q-3 1-3 7l-1 10q-7-11 0-32 6-19 0-26" fill="#fff"/><path d="M903 1117q8-10 9 4l3 25q-4 7-17 9-13 2-20-5-2-17 4-45l10 7-2-11 9-4q8 2 7 8l-3 12" fill="#fff"/><path d="M874 1196q-13 10-33 52-14 32-45 35-1-4 15-18 13-11-3-15l5-10 7 1v-25l-8 5q-1-5 8-8l21-5q-7-6-7-19 1-13 11-6-7-7-3-16l7-21q5 11 12 8l21 1q-16 31-8 41" fill="#fff"/><path d="M807 1303q-5 7-11 4l-3 67q-4 52 15 61-12 7-8 25 7-1 9 25l7 45q8-5 7 3l10 1-9 12q-5 4 0 13-6 3-8-4-1-6-8-4 4-17-3-32-6-12-1-18-28-55-29-117-2-63 25-97-5 9-3 14l7-6q7 2 3 8" fill="#fff"/><path d="M708 1259q3-16 9-18 29 41 29 161l10-2-10 6-12 93q-9 61-5 110-25-56-28-167V1254q6 13 7 5" fill="#fff"/><path d="M1006 1683q-6 14-25 12-18-3-24-16l-9 12q-41-9-71-42l-48-61 4-12q4-10 4 1l-4 11 10-3 10-1q0 10 12 21 11 10 9 24h25l3 11 1 14 9-5 3-11q83 26 178 4l4 16 12-9 9-11q15 5 1 19-14 14-22 5 4 18-17 26-20 8-28-5-2 0-5 12h-27q-10-1-14-12" fill="#fff"/><path d="M1023 1976l-7-6-10 2q-1-10 16-9l21 5-8 2q-9 0-12 6" fill="#fff"/><path d="M1156 1138q21 22 3 45l-23-12-14-21q-5 11-24 9-20-2-22-13-6 4-8 17l-149-8q-3-72 62-83l5 8q1 8 4 9 7-29 66-16 54 13 66 28l-4 8 38 29" fill="#fff"/><path d="M382 339q-5-52-14-76-20-55-84-93l51 19 21 18 20 17q19 10 63 9l63 6q17 8 43 41l38 51q55 68 138 119l-7 10 1-1 5-9q-6-1-6 3l1 6-12 16q-8 15-4 28-23 16-42 80l-12-3-8-9H597q-19-2-30-18l-12-36q-5-25-15-37l-26-24-29-23q-11-9-30-17l-33-15q-32-18-40-62" fill="#fff"/><path d="M312 686 212 730l79-88q52-62 91-75 44-14 93 29l53 39 56 35 10 7q13 27-4 86l-26 87-17 92q-11 54-13 94-18-2-20-21V980q-3-18-10-27l-23-17 13-35q-3-9-27-21 32-14 47-21 24-12 13-38-9 0-38-28l-34-37-12-41q-5-24-25-33l-106 4" fill="#fff"/><path d="M1527 1123l2-40q3 24-2 44v-4" fill="#fff"/><path d="M1290 0l-2 21q-1 19 5 41l11 38 3 62q0 41 10 59l103-55q25-71 44-87-1-9 4-31l10 24q3 13-10 19l2 43 4 43-9 39q-8 25-4 38l59-46q31-27 62-12 69 32 118-10l11-25 6-2 25-45q16-31 13-47l10 42-5 44q-3 13-1 41l-4 39 84-14q55-11 76-28l21-8-15 11q-2 19-26 42l-41 34-109 81q-3 18-41 46-38 29-43 50-2 12 16 66 11 33-32 48l-31 56q-16 36 7 50l70 4 67-27 68 3 64 24 56 3 56-6v12l-33 15-34 12q-15 33-71 47l-90 13q-35 3-43 13-5 6-5 19l-2 24-19 45q-17 27-34 29-6 24-48 54l-62 47q-23 26-32 85l-7-50-1-53 15-155q2-85-28-149l-19-71q-11-49-25-68l-29-28-24-29q-4-9 0-35 3-24-7-38l-45-12-45-9-44 4-48-6-48-17-47-16-42-10q-28-9-17-21l-107 1q-51 6-97 40l-30 22q-9 3-31-13-18-14-25-23-8-9-17-30l-38-57q-22-30-26-63-5-59-15-81L663 86 645 56Q635 34 628 0H776l18 20q13 19 49 136 26 88 75 106-14-11-15-39l1-46-9-45-8-45 7-87h396" fill="#fff"/><path d="M1551 1373q28-32 40-90 13-66-28-75 27 44-12 165m-58-99q-19 23-8 66 14-11 16-31 1-18-8-35m-214 194-5 25q5 35 9 13 3-22-4-38m-261 450q-2-6 2-10l3-10-6-3-7-1q2 18 8 24M1175 912q15 35 17 61 41 46 60 129 14 62 18 156l4-13v58q-1 36 5 41-3-39 8-45 2-10-3-7l-5-1q30-270-124-438 3 19 20 59m-86-67h-33q-17 2-21 12 40 67 83 66 2-26-8-46l-21-32m192-278 14 1-62-24-8 12-15-12q-7-3-6-13l-25 5q-10 2 0-9l-39 1q-22 1-39 11l7-5 5-7q-4-1-12 5l-8-1 13-6q9-4 3-6l-8 4v-8q-9 1-19 8l-18 8 5-5 3-7q-17 2-16 13l4 16-13-9q3 12 16 28l17 30q11-4 11 0-1 4 10 0l2 9 2 8q-6-1-12-9 2 13 9 13h11q-13 19-17 48l-7 47 18 15q16 7 19 14l-5 4-3 4q-5-6-2-7l6-5-22 1-15-14 27 37 43 21-15-16q-12-9-10-17l62 21 23-1q14-1-3-4l-12-2q-8 0-12-6l45-4q2-7-11-9-13-3-5 5l2-2 2 6q-10 0-13-8l7-7q3-7-3-6l-10 8-14 1q12-17-3-37-13-19-34-25 22-43 67-33 25 6 65 33 3 14 15 22l22-2q-6 2-12-5-7-6-1-7l14 11 15 10q-5-17-32-41-24-21-25-38-1 11-12 8-11-3-1-12-18 5-21-4l-4-17-38 1q-30-19-48-17 6-7 1-8l-10 4-2-8-2-9q11-7 32-12l30-4q-5-1-7 3-2 3 3 5l28-2q15 2 13-5 2 5 15 7 11 2 6 6l19 1m-23-114 58 33q-4 5 0 11l4 9q19 9 28 23l21 39q-1-11 7-5 8 7 6 14l-6-2-3 2q27 13 25 32 1-3 4-3l5 4 31 92q10 37 10 85l12 3 4 10-12-9 3 17q-2 5-11-4l14 33q7 20-2 29 17 41 25 106l12 108h-12l-1 55q-3 20 5 44-10 0-11 25 0 24 7 33 6-8 25-7 18 1 16 11 15-2 21-26 7-27 16-32 34 9 43 38 8 23 3 74-6 54-58 122-52 67-91 72l-33-4-29-4-34 115q-26 82-32 132-17 156 35 272H1054l-29-5q-17-2-31-11h44q20-2 30-16 3 8 12 8l13-8q-21-3-46-18-23-14-36-15l2 4-3 4-16-13q-12-8-17-20 3-32-8-70 2 11-7 5-10-7-10-13l27-3 23-14 16-4 5 2 4-2 58-34q33-22 37-40 11 0 2-9-12-11-2-16-2 13 5 11l11 1q-4-13 1-13 9 0 12-12l-21 3q-9-3-12-19l11 12q5 8 9-4-9-2 2-12l19-11-4-10q16 2 30-25 17-32 27-37l-9 1-7 12 2-19 2-14q-25-6-25 12l-5-5-7-3-5 10q-4 3-2 7-6-6-18 0l-16 3q-5-14 22-29h6q27-8 32-33l6-8 1-9 19 13q7-13 4-31-1-14 9-22-9-4-9-13 7-4 7-15-1-10 6-14l-2-116q-1-75-11-102 12-97-103-178-1 8-11 5-11-3-5-13l5 5q2 4 7 3-12-17-38-17l-36-4-10 5-7 12q1-10-8-12v7l-4 5q-18-23-54-12l1-10-9 5q-5-10 6-17 9-6 2-11l-6 5q-5-7-10-5 2-7 8-7l8-2q-7-8 11-26 18-17 10-27l11 7 14 5-4-33q5 6 13 6 8 1 11 6-4-8-6-50-2-34-18-45v13q-1 7-9 4 2-36-12-74l6 4 6 4 5-26-5-24 7 3q4 2 6-3-10-12-10-29 0-19 14-33-16-9-11-36l7-46q-17-5-13-29l13 4q-7-8-6-26l-3-23-14 27-23 30q-7 1-11-5l-9-7 2 19-15 10-35-18q-17-14-23-40 0 12-4 12-7-4 2-11 8-7 2-9-7 8-13-2-6-11 1-19-7-5-16-5l-17-3 3-19-7-2q10-31 60-40l84-13-8-5q43 0 50-16l75 18 98 3q-10 12 29 8 23 6 62 29" fill="#fff"/></svg>