<?xml version="1.1" encoding="UTF-8"?><svg xmlns="http://www.w3.org/2000/svg" xmlns:xlink="http://www.w3.org/1999/xlink" version="2.0" width="100pt" height="100pt" viewBox="0 0 2000 2000" clip-rule="evenodd" fill-rule="evenodd" preserveAspectRatio="none"><path d="M495 14l32-6h91L599 147l24 55-2 89-41 74-31-35-16 33L305 1757l-83-15 53-369L461 333l-39-37-3-41 65-107L495 14" fill="#fff"/><path d="M720 167q-10-38 1-102L733 8h728l-17 88-22 574-139 23-17 151q-5 27-3 100l4 115q1 40-37 196l-47 181-47 180q-4 24 36 72l42 42-83 16-88-37-18-56 2-100q-1-28 21-66l22-32-27-299q-5-36 18-102l23-59-20-163q-3-29 11-112l15-77-23-24-44 115-4 187 36 44-26 105-30 136-22 134-21 139 9 120q8 87-4 104-13 20-63 36l-82 16-51-6q-20-8-43-33-19-21-32-45l-8-21 57-147q-2-127 1-182 2-33-10-78l-20-82q-7-37-13-136l-4-92 59-33q16-14 19-37l4-55q8-48 42-131l32-74-6-22-8-2-133-14q18-78 19-196V170l-1-3" fill="#fff"/><path d="M1681 123l55 42 43 68-23 68-75 57 76 1426-85 5-69-1418-17-30-2-63-19-28-29-62 4-180h131l10 115" fill="#fff"/></svg>