<?xml version="1.1" encoding="UTF-8"?><svg xmlns="http://www.w3.org/2000/svg" xmlns:xlink="http://www.w3.org/1999/xlink" version="2.0" width="100pt" height="100pt" viewBox="0 0 2000 2000" clip-rule="evenodd" fill-rule="evenodd" preserveAspectRatio="none"><path d="M1423 1623l-1-5-13-22q-38-41-156-66l21 23 17 40 1 5q37 16 54 33 30 30 4 61 12-5 23-11 39-19 48-41l2-11v-6m-375-397q-17-20-33-56l-26-62-25 62-33 56-19 50-16 66-16 66q-15 56-36 96 8 1 4 10-5 8-14 7l-5 10v1l300 23 24 5-3-29-6-10q-9 1-13-7l-1-5-267-12q140-10 267-2-19-42-32-87l-16-66-16-66-18-50M797 1654q-35 15-21 33 7 8 24 15l12 4 34 8 116 11 113-10q109-22 103-57-4-32-117-54-68-7-141-1-72 6-129 22l15-2 175 7 63 16q26 9 30 21 10 24-56 39 54-17 35-38-7-10-33-17l-58-12-64-5-57 7-44 13M678 196q11 5 15 11 31 37-47 128-51 60-131 116-65 43-127 76l-96 45q-58 21-104 24-53 2-70-21-17-20 1-59 20-37 62-76 49-44 113-81 35-21 76-38 43-17 76-22l52 4q19 9 17 26-2 34-55 81l-59 43q-40 25-77 39-46 18-71 11-24-6-16-28 4-17 31-42 37-33 59-41l37-6-32 18q-51 31-56 59 0 6 11 9l39-8 49-27 42-32q35-32 35-51 0-19-36-14-41 5-101 39-113 65-157 133-18 30-9 45 11 18 53 15 47-3 113-33l37-18q32-20 59-33l29-19q97-63 164-135 60-66 67-117l-2-25 9 4m978 1396q44 39 27 79-19 42-96 78-74 36-207 61-131 27-305 31l-325-14q-150-18-251-55-99-37-94-84 5-46 111-82l37-10-13 1q-107 27-154 63-48 36-24 75 24 39 113 70 93 31 229 51l292 23 309-10q152-14 273-43-104 33-259 52l-326 19-330-20q-161-20-273-54-114-35-148-82-34-46 18-91 53-45 184-78 123-29 277-37l15-15-2-22-12-8 68-189q13-61 30-87l6-26q-3-1 9-48 12-50 24-75l3-8 17-45q1-16 5-26l6-76v-3l3-5-10-84-7 26-9 25q-13 20-37 18l-80 50-23 14v1h-1l-3 17-1 13-1 3 1 1q2 9-7 12-9 2-13-7l-2-12-1-2H688l-17 14-12 1-10 7-9 1-11-3q-5-5-1-10l12-12-2-1-3-4-9 8q-8 4-13-4-5-8 3-12l28-25q16-17 30-21v-1l21-6-2-8q36-22 91-50l10-9q16-22 16-73 1-53 13-75-3-2 7-19l14-18 65-17 20-8 6-20-3-27-23-120 42-32 20-3 26-1 28 18q26 20 24 41l2 28q1 29-4 36l-16 34q0 32 9 45l70 6 24 19q25 35 22 38 43 79 82 135l10 8 91 51-2 8 13 3 8 3h1q36 13 66 31 8 5 4 12-5 8-14 4-23-12-38-15v6 2l27 31-1 10-11 3h-9l-10-8-12-1-17-13h-11l-1 2-2 12q-4 8-13 6-8-2-7-11l1-2-1-2-1-14-3-16-1-1-23-15-94-59-3-5-7-7q-5 2-9-4l-19-26-7-6-2-8-11-23-18-23-9 17-6 26-13 108 4 64 7 10 5 25 16 45 3 8 25 75 9 48q-1 4 5 26 18 26 31 87l68 189-13 8v8l7 1q86 11 161 33 65 20 101 48l25 26 3 7 2 7v14q-6 28-51 54-97 54-303 77l-217 11-215-20-54-12-29-9-1-1-6-2q-27-10-45-23-41-28-14-57l7-6q-2-14 16-29l-5 2q-79 28-82 62-5 35 67 63 74 28 196 45l257 13 251-22q115-20 194-52 79-31 107-67 29-37 2-75-27-38-107-71 99 29 145 69m212-585 8 6 11 15q19 44-80 110-61 42-158 77l-143 38-104 17-107-5q-51-11-62-38-11-27 18-57 27-30 80-56 64-31 131-48l83-16q45-5 80 0 34 5 49 18 14 12 9 30-13 32-76 62-35 17-68 26l-85 16q-48 5-71-8-20-12-8-32 10-15 42-32 40-21 67-23l38 4-36 9q-58 15-70 42-2 6 8 11l40 2q24-2 54-12l49-19q43-22 48-40 5-18-31-23l-107 10q-124 32-188 85-26 25-20 41 5 21 47 29 42 9 117-1l40-7h1l65-16 33-10q115-37 195-85 73-46 96-95l5-25m-23-541 4 14v26q-7 33-59 48l-127 10q-109-4-248-46-106-36-197-78l-135-70q-81-52-119-97-49-56-38-97 9-39 68-50l141 4q85 14 192 56 59 23 109 53 56 33 92 67 35 35 41 63 6 27-15 42-39 27-141 8l-100-29q-62-21-112-53-61-38-74-70-14-33 18-45 24-9 75-1 67 13 97 31 23 15 40 38l-48-21q-81-32-117-11-8 5 0 19 9 16 43 37 32 18 74 33l72 18 89-4q22-17-15-53-39-42-133-80-80-33-158-50l-131-12q-50 5-58 29-11 27 29 74 47 51 136 98l53 27h1q54 20 89 38l46 17q163 55 297 67 125 11 192-27l27-23" fill="#fff"/></svg>