<?xml version="1.1" encoding="UTF-8"?><svg xmlns="http://www.w3.org/2000/svg" xmlns:xlink="http://www.w3.org/1999/xlink" version="2.0" width="100pt" height="100pt" viewBox="0 0 2000 2000" clip-rule="evenodd" fill-rule="evenodd" preserveAspectRatio="none"><path d="M1045 516q-55-84-101-121-30-25-54-29l-42 2q-22 8-45 28-19 15-47 47l-66 93-18 31q-35 65-58 136-43 137-40 298 3 156 48 301 27 84 57 138l36 60 43 47q23 23 47 36 23 13 42 16 24 2 43-9 25-12 52-39 45-47 93-130l79-154q3 94-11 178-20 106-59 178-29 53-66 85-50 46-113 56-61 11-127-10l-68-31 15 15-20-17-71-49-39-38-6-8q-38-30-85-125l-84-182q-110-236-208-233-76 3-175-2L0 952l158 4q81-7 130-53 41-38 108-221 71-194 99-229l69-91-16 24 6-8 70-69 86-60q59-32 115-36 69-6 125 28 44 25 81 75 49 72 75 174 22 91 22 176-36-76-83-150" fill="#fff" fill-opacity=".8"/><path d="M652 894h3v-7l1-7v-4q3-14 19-12 16 2 14 16l-1 12q132-7 357-5h357q11 15 28 23l28 12q195-1 455 57l4 5 10 6h1q8 4 8 15l-9 15-73 23q-30 11-80 18l-82 10-248 19-37 27q-26 12-37 23-123-12-335-6-244 7-335 3-10-4-16 12-6 15-18 10-25-41-21-126 9-96 7-139m693 72-295-9-296 12h-4l-20 5q-17 9-8 27 10 18 27 8l-2 2 4-1 22-1h42l206-11 26-2 57-3q69 10 141 1l109 13q19 5 24-15 5-19-14-23l-6-1-2-3-11 1" fill="#fff"/></svg>