<?xml version="1.1" encoding="UTF-8"?><svg xmlns="http://www.w3.org/2000/svg" xmlns:xlink="http://www.w3.org/1999/xlink" version="2.0" width="100pt" height="100pt" viewBox="0 0 2000 2000" clip-rule="evenodd" fill-rule="evenodd" preserveAspectRatio="none"><path d="M534 551h-3l-12 3q-10 5-5 16 6 10 16 5h40l123-7 16-1 34-2q40 6 84 1l64 8q11 2 15-9 3-12-8-14l-4-1-1-2-7 1-176-5-176 7m-39-53-1 7q77-4 213-3H920l17 14 16 7q118-1 272 33l9 8 5 9-5 8-44 14-48 11-49 6-148 11-22 16-22 14q-74-8-200-4l-200 2q-6-2-9 7-4 9-11 6-15-24-13-75l5-83h1l1-4v-7q2-8 11-7 10 2 9 10" fill="#fff"/><path d="M663 344l-63-64h592l296 296-296 297H600l63-64 483 1 248-238-245-228H663" fill="url(#A)"/><path d="M1422 954l17 14 16 7q121-1 272 34l3 3 6 4 5 9-5 8-44 14-48 11-49 6-148 11-22 16-22 14q-73-7-200-4l-200 2q-6-2-9 7-4 9-11 6-15-24-13-75l5-83h2V947q2-8 11-7 10 2 9 10l-1 7q77-4 213-3h213m-27 47h-7l-176-5-176 7h-3l-12 3q-10 5-4 16 5 10 15 5h40l123-7 16-1 34-2q40 6 84 1l64 8q11 2 15-9 3-12-8-14l-4-1-1-1" fill="#fff"/><path d="M1651 796H1165l-63-64h592l296 296-296 297H1102l63-64 483 1 248-238-245-228" fill="url(#B)"/><path d="M56 1233v-10q2-8 11-7 10 1 9 9l-1 7q78-4 213-3H501l34 21q112-1 271 34l3 3 6 4 5 9-5 8-24 9-20 5-48 11-49 6-148 12-22 15-22 14q-72-7-200-3l-200 1q-6-2-9 8-4 9-11 5-14-24-12-74l4-84h2m218 63 16-2 34-1q42 6 84 0l65 8q11 2 14-9 3-12-8-14l-4-1-1-1h-7l-175-5-177 7h-2l-13 3q-10 6-4 17 5 9 14 5h3l38-1 123-6" fill="#fff"/><path d="M730 1071H245l-64-64H773l296 297-296 296H181l64-63H727l248-237-245-229" fill="url(#C)"/><defs><linearGradient id="A" x1="-16384" x2="16384" gradientUnits="userSpaceOnUse" gradientTransform="matrix(.03 0 0-.03 1044 576)"><stop offset="0" stop-color="#fff" stop-opacity="0"/><stop offset="1" stop-color="#fff"/></linearGradient><linearGradient id="B" x1="-16384" x2="16384" gradientUnits="userSpaceOnUse" gradientTransform="matrix(.03 0 0-.03 1546 1028)"><stop offset="0" stop-color="#fff" stop-opacity="0"/><stop offset="1" stop-color="#fff"/></linearGradient><linearGradient id="C" x1="-16384" x2="16384" gradientUnits="userSpaceOnUse" gradientTransform="matrix(.03 0 0-.03 625 1304)"><stop offset="0" stop-color="#fff" stop-opacity="0"/><stop offset="1" stop-color="#fff"/></linearGradient></defs></svg>