<?xml version="1.1" encoding="UTF-8"?><svg xmlns="http://www.w3.org/2000/svg" xmlns:xlink="http://www.w3.org/1999/xlink" version="2.0" width="100pt" height="100pt" viewBox="0 0 2000 2000" clip-rule="evenodd" fill-rule="evenodd" preserveAspectRatio="none"><path d="M1321 1407l43-35 367 21q-49 20-142 28-286 139-343 139-38 0-91-54-46-48-65-93l231-6M375 1728q12-22 19-67 58 17 81 10 32-9 70-99l31-87 136 15 32 50 59 106q15 32 109 100l115 81q-3 31 28 92l36 71-775-4v-10q8-179 59-258m267-403-12 11q-11 12-6 20l19 43 43-3q26-30 19-51-4-14-34-18l-29-2m-43 10-20-1-4 16q-2 18 7 30 9 13 26 17 21 6 4-3-14-8-13-59M1026 195l13 99q4 19 31 80 9 20-21 34l-33 9 1 62q0 65-8 80-7 14-77 14l-85 2q-15 4-13 15l5 10 141 18q42 4 114 34 67 28 91 48 25 19 42 94 19 82 11 164l-3 69-179 15q-11-2-9-94 1-15-8 37l-9 55-54-21-37 33-514 26-131 90-1 22q-37-89-24-173l-66 112q-77 116-128 135-67 24 215 38l-1 22 30 51-53 138q-195 2-265-6V942l57-37q26-18 29-35 10-59 20-87 25-67 74-101 194-88 247-94 33-4 116-43l77-39q18-112 0-165-21-64-19-143 3-110 61-144 62-37 161-26 90 10 144 49 40 29 58 118m616 955 72 76 143-12 32-100 58-1 1 93 16 16q15 17 11 28-8 17-55 50l-612-2-9 28-304 10-23-23-48-1 4 62q15 72 64 121l143 137-93 138-78-56q-87-71-135-147l-72-196-9 71-16-68q-34 53-47 54l-44 2-47-2q-19-3-38-31l-38 84q-42 85-62 96-32 17-69-4l-45-32q4-22 17-55 26-68 68-128 4-7 0-13l-5-4-56-2 4-119 95-75 513-3 9-34 14 11 444 8 8 29 189-6" fill="#fff"/></svg>