<?xml version="1.1" encoding="UTF-8"?><svg xmlns="http://www.w3.org/2000/svg" xmlns:xlink="http://www.w3.org/1999/xlink" version="2.0" width="100pt" height="100pt" viewBox="0 0 2000 2000" clip-rule="evenodd" fill-rule="evenodd" preserveAspectRatio="none"><path d="M419 1308q20 5 4-4-15-8-14-63l-22-2-4 17q-1 20 8 34l28 18m69-76-32-2-13 11q-12 14-7 23l21 47 47-4q28-32 21-55-4-15-37-20m1388-232 1 100 18 17q16 20 11 32-8 18-60 54l-666-3-9 31-331 11-25-25-52-1 5 68q15 78 69 131l155 149-101 151-84-61q-95-78-147-160l-79-214-10 77-17-74-20 29q-22 29-32 30l-47 2-52-2q-20-4-40-34l-41 91q-46 93-68 105l-51 5-24-10-49-34 19-60q27-74 73-139l1-13-6-5-61-3 4-129 103-82 559-3 9-37 16 12 483 9 8 31 207-6 77 83 156-13 35-110h63" fill="#fff"/><path d="M2000 468v97L1882 726l118 161V997l-45 61-25-35 61-81-140-192H1562L1422 942l-41-1 1-19 140-192-140-191H1094L954 730l127 175-59 2L909 750H620L494 923H444v-2L583 730 443 539H154L14 730 154 922h99v1l-47 40-72-1L0 778V682L134 499H463L617 710H919l154-211h308l156-214h329l134 183m-15 49-139-192H1557L1417 517l140 191h289l139-191" fill="#fff" fill-opacity=".8"/></svg>