<?xml version="1.1" encoding="UTF-8"?><svg xmlns="http://www.w3.org/2000/svg" xmlns:xlink="http://www.w3.org/1999/xlink" version="2.0" width="100pt" height="100pt" viewBox="0 0 2000 2000" clip-rule="evenodd" fill-rule="evenodd" preserveAspectRatio="none"><path d="M661 1311v15H631V1132h30v14h467l39 25 148 11 111 16q72 13 73 31-1 18-73 30l-111 16-148 11-39 25H661m20-123v32h410v-32H681m447-302 39 25 148 11 111 16q72 13 73 31-1 18-73 30l-111 16-148 11-39 25H661v15H631V872h30v14h467m-37 74V928H681v32h410m76-194-39 25H661v15H631V612h30v14h467l39 25 148 11 111 16q72 13 73 31-1 18-73 30l-111 16-148 11m-76-66V668H681v32h410" fill="#fff"/><path d="M937 422V300Q705 326 538 493 372 659 345 892H467v154H345q27 233 193 399 167 166 399 193V1516h154v122q233-27 399-193 167-167 193-399H1561V892h122q-26-232-193-399-166-167-399-193V422H937m867 470h110v154H1804q-28 282-229 484-202 201-484 228v111H937V1758q-282-27-483-228-202-202-229-484H114V892H225q27-282 229-484Q655 207 937 179V69h154V179q282 28 484 229 201 202 229 484" fill="#fff" fill-opacity=".8"/></svg>