<?xml version="1.1" encoding="UTF-8"?><svg xmlns="http://www.w3.org/2000/svg" xmlns:xlink="http://www.w3.org/1999/xlink" version="2.0" width="100pt" height="100pt" viewBox="0 0 2000 2000" clip-rule="evenodd" fill-rule="evenodd" preserveAspectRatio="none"><path d="M407 687l-10 2q-8 5-4 13 5 9 12 5l1-1h31l99-5 40-3q31 4 67 1l52 6q9 2 12-7 2-9-7-11l-3-1-1-1h-5l-141-4-141 5-2 1m-51 30 4-66h1v-7h1v-2q1-7 9-6 8 1 6 8v6l171-2H718l27 16q96 0 217 27l2 3 5 3 4 7-4 7-35 11-38 9-39 5-119 9-17 12-18 11q-59-5-160-2l-160 1-8 5q-3 8-9 5-12-19-10-60" fill="#fff"/><path d="M513 521l-52-51H936l237 237L936 945H461l52-51H899l198-190L901 521H513" fill="url(#A)"/><path d="M799 1006v6l171-2h170q6 7 27 16 96 0 217 27l2 3 5 3 4 7-4 7-35 11-38 9-39 5-119 9-17 12q-13 6-18 11-59-5-160-2l-160 1q-5-2-8 5l-9 5q-12-19-10-60l4-66h1v-7h1v-2q1-7 9-6 8 1 6 8m32 42-2 1-10 2q-8 5-4 13 5 9 12 5v-1h32l99-5 40-3q34 5 67 0l52 7q9 2 12-7 2-9-7-11l-3-1-1-1h-5l-141-4-141 5" fill="#fff"/><path d="M1519 1066 1323 883H935l-52-51h475l237 237-237 238H883l52-51h386l198-190" fill="url(#B)"/><path d="M61 1252q-8 5-3 13 5 7 13 3l-2 1h3l10-1 19 1h1l98-6 40-2q34 4 68 0l52 7q9 2 12-8 2-9-7-11h-3l-1-2-5 1-141-4-142 5H71l-10 3m-26-53q8 1 7 8v5l170-2H383l13 11 13 6q89-1 218 27l2 2 5 4 4 7-4 6-35 12-39 8-39 5-118 9-18 13q-13 6-18 11-59-6-160-3l-160 1-8 6q-2 8-8 5-12-19-10-60l3-67h2v-8q2-7 9-6" fill="#fff"/><path d="M177 1083l-51-51H600l237 238-237 237H126l51-51 386 1 199-190-196-184H177" fill="url(#C)"/><path d="M951 353V34h130V353H951" fill="#fff"/><path d="M1081 1636v318H951V1636h130" fill="#fff"/><path d="M1657 929h319v131H1657V929" fill="#fff"/><path d="M528 453q99-89 222-138 127-50 266-50 301 0 514 213 213 213 213 514 0 302-213 514-212 213-514 213-138 0-266-50-123-48-222-137H733q132 69 283 69 252 0 431-178 178-178 178-431 0-252-178-430-179-179-431-179-149 0-283 70H528" fill="#fff"/><defs><linearGradient id="A" x1="-16384" x2="16384" gradientUnits="userSpaceOnUse" gradientTransform="matrix(.02 0 0-.02 817 707)"><stop offset="0" stop-color="#fff" stop-opacity="0"/><stop offset="1" stop-color="#fff"/></linearGradient><linearGradient id="B" x1="-16384" x2="16384" gradientUnits="userSpaceOnUse" gradientTransform="matrix(.02 0 0-.02 1239 1069)"><stop offset="0" stop-color="#fff" stop-opacity="0"/><stop offset="1" stop-color="#fff"/></linearGradient><linearGradient id="C" x1="-16384" x2="16384" gradientUnits="userSpaceOnUse" gradientTransform="matrix(.02 0 0-.02 482 1270)"><stop offset="0" stop-color="#fff" stop-opacity="0"/><stop offset="1" stop-color="#fff"/></linearGradient></defs></svg>