<?xml version="1.1" encoding="UTF-8"?><svg xmlns="http://www.w3.org/2000/svg" xmlns:xlink="http://www.w3.org/1999/xlink" version="2.0" width="100pt" height="100pt" viewBox="0 0 2000 2000" clip-rule="evenodd" fill-rule="evenodd" preserveAspectRatio="none"><path d="M1751 936l261-26v80l-259 27-360-13-26-324q-4-57-54-103l-50-36-30-15 9-32q25-85 49-133l-19-36q-45-69-54-124-20-127-67-200h91q38 76 55 187 6 39 42 94l28 53q11 32-4 61-14 28-35 91 111 74 119 188l20 251 284 10m122 493 139-30v77q-60 10-127 30-93 27-132 55-32 23-98 45l-129 37q-143 39-163 55-95 76-97 112-1 44 87 191h-93q-76-134-74-194 2-43 42-91 28-34 85-81 36-29 192-69l116-33q61-20 85-37 51-36 167-67m120-223q15 17 11 28-8 17-55 50l-612-2-9 27-304 11-23-23-48-1 4 62q15 72 64 121l143 137-93 138q-34-20-78-56-87-71-135-147l-72-197-9 71-16-67-19 26-28 28-44 1-47-2q-19-3-38-30l-38 83q-42 85-62 96l-46 5q-14-3-23-9l-45-31q4-22 17-55 26-68 68-128 4-7 0-13l-5-4-56-3 4-118 95-75 513-3 9-34 14 10 444 9 8 29 189-6 72 76 143-12 32-100 58-1 1 93 16 16M482 100q-29 67-24 113 11 110 10 160-2 50-16 73-21 34-81 55L248 530Q104 561 98 579 75 659 12 761V583l9-26q13-45 76-70 40-17 136-35 138-28 151-49 10-22-6-182-8-93 64-220h94q-33 49-54 99m543 321 1 62q0 65-8 80-7 14-77 14l-85 2q-15 4-13 15l5 10 141 17q41 4 114 35 67 28 91 48 25 19 42 94 19 82 11 164l-3 69-179 15q-11-3-9-94 1-15-8 37l-9 54-54-20-37 33-514 25-131 91-1 22q-37-89-24-173l-66 112q-77 116-128 135-64 22 215 38l-1 22 30 50-53 139q-185 2-265-6V946l57-38q26-18 29-34 10-59 20-87 25-67 74-101 194-88 247-94 33-4 116-43l77-39q18-112 0-165-21-65-19-144 3-109 61-144 62-37 161-25 90 10 144 49 40 29 58 118l13 99q3 16 31 80 9 20-21 34l-33 9M13 1664l-1-10v-71l280 38-30 222-11 145q-45-13-78-32l10-121 17-146-187-25m371 67q12-20 19-66 58 17 81 10 32-9 70-99l31-87 136 15 32 50q37 59 59 106 15 32 109 99l115 81q-3 32 27 93l36 71-774-4v-10q8-180 59-259m244-412-20-2-4 16q-2 19 7 31 9 13 26 17 19 5 4-4-14-7-13-58m72-8-29-2-12 10q-11 12-6 21l19 43 43-3q26-30 19-51-4-14-34-18m630 100 43-35 367 21q-49 20-142 28-286 139-343 139-38 0-91-54-46-48-65-94l231-5" fill="#fff"/><path d="M1646 517l17 225 254 9 91-9v72l-89 9-322-12-23-288q-4-51-48-93l-44-32-27-13 8-29 14-44q15-47 29-75l-17-32q-40-58-48-111-9-57-22-94h75l18 83q5 35 37 84 20 30 25 47 9 29-4 55-13 28-31 81 99 64 107 167m362 1084-2 94-95 39-118 34q-141 38-162 54-97 78-97 112-1 17 19 66h-85q-15-40-14-69 2-72 127-171 23-18 77-36l115-34q161-42 200-69 16-11 35-20M280 35q11 110 10 160-2 50-16 73-21 34-81 55L70 352 8 365V346l4-64 43-8q137-27 151-49 10-22-6-182V25q37-15 80-21V35M102 1777l-6 41q-2 0-10 70-47-55-64-122l80 11" fill="#fff" fill-opacity=".8"/></svg>