<?xml version="1.1" encoding="UTF-8"?><svg xmlns="http://www.w3.org/2000/svg" xmlns:xlink="http://www.w3.org/1999/xlink" version="2.0" width="100pt" height="100pt" viewBox="0 0 2000 2000" clip-rule="evenodd" fill-rule="evenodd" preserveAspectRatio="none"><path d="M10 1505V1378q549 42 549 55 0 11-549 72m0-187V1212q434 36 434 46 0 8-434 60m207-293q137 21 137 28 0 9-344 75V996l207 29M942 356V156h219V356h199V575H1161V774H942V575H743V356H942" fill="#fff" fill-opacity=".8"/><path d="M744 1174l-175 3-105-2-4-1q-6 0-10 12l-11 12-7-2q-24-38-20-120 9-92 7-133-2-10 6-17 7-6 17-6 13 0 12 10l-1 11 230-5 452 1q11 14 27 21l26 12h9q178 0 427 54l3 5 10 7h1q8 4 7 14 0 9-8 13l-37 13-33 10-77 17-78 10-219 18h-17l-35 26q-25 12-36 22l-186-9-175 4" fill="#fff"/><path d="M889 1344l-175 3-105-2-4-1q-6 0-10 12l-11 12-7-2q-24-38-20-129l189-3 173-4 180 8 27 3 20-19 18-11 34-20 224-19 42-5 82-13 223 40 3 5q5 0 10 7h1q8 4 7 14 0 9-8 13l-37 13-33 10-77 17-77 10-220 18h-17q-13 14-35 26-25 12-36 22l-186-9-175 4" fill="#fff"/><path d="M859 1521l-105-3h-4q-6 0-10 12l-11 11-7-2q-25-41-20-132h12l177-3 173-4 180 8 27 3 20-19 18-11q19-8 34-20l224-19 42-5 72-11 233 41 3 5q5 0 10 7h1q8 4 7 14 0 9-8 14l-70 22-77 17-77 10-220 18h-17l-35 26-36 22-186-8-175 4-175 3" fill="#fff"/></svg>