<?xml version="1.1" encoding="UTF-8"?><svg xmlns="http://www.w3.org/2000/svg" xmlns:xlink="http://www.w3.org/1999/xlink" version="2.0" width="100pt" height="100pt" viewBox="0 0 2000 2000" clip-rule="evenodd" fill-rule="evenodd" preserveAspectRatio="none"><path d="M865 229h276V480h250V756H1141v251H865V756H614V480H865V229" fill="#fff" fill-opacity=".8"/><path d="M723 1506q-14-7 0 5l24 9q13 1 25-10l10-10-11-13q-36 25-48 19m-38-52 19 33 39-8q9-1 12-14l2-14-16-20q-18-20-29-16-19 6-27 39m288 35-7 105-83 61-29-39-6-2q-6 0-9 7-22 59-58 111l-31 39-45-16q-33-16-37-48-2-19 39-92l41-68q-29 1-41-11l-24-33-21-32q-3-7 6-34l10-26-56 21 46-41-176 45q-77 3-171-24-47-14-79-28l54-134 168 34q59 12 117-13l47-28-24-34-28-5L434 982l16-20L148 526q0-50 8-64 6-8 26-6l19 3 67-44 28 42-56 72 61 108 90 13 88 139 25-9 224 313 15 5-20 23 250 368" fill="#fff"/><path d="M1273 1520q14 0 25-9 13-11-1-5-12 6-48-19l-11 13q14 21 35 20m-10-69q0 27 14 28l40 8 18-33-6-17q-9-18-21-22-11-4-29 16l-16 20m601-989q8 14 8 64L1570 962l16 20-142 222-27 5-25 34q18 15 47 28 58 25 117 13l169-34 53 134-78 28q-94 27-172 24l-176-45 46 41-56-21 10 26q9 27 6 34l-45 65q-12 12-40 11l41 68q40 73 38 92-4 32-37 48l-45 16-31-39q-35-52-58-111-2-7-8-7l-6 2-29 39-83-61-7-105 249-368-20-23 15-5 224-313 25 9 88-139 90-13 62-108-57-72 29-42 66 44 19-3q20-2 26 6" fill="#fff"/></svg>