<?xml version="1.1" encoding="UTF-8"?><svg xmlns="http://www.w3.org/2000/svg" xmlns:xlink="http://www.w3.org/1999/xlink" version="2.0" width="100pt" height="100pt" viewBox="0 0 2000 2000" clip-rule="evenodd" fill-rule="evenodd" preserveAspectRatio="none"><path d="M1780 616V811H1602V989H1407V811H1229V616h178V438h195V616h178" fill="#fff" fill-opacity=".8"/><path d="M801 734l-50 2q-10 31-4 62l12 8 12 8q45-21 70-93l-36 1-4 12M361 660q-2-29 17-26-22-58 1-99 20-36 66-47 45-11 86 8 45 21 59 67l-14 19-17 16 2 34q1 19 7 28l97-2 4-14 6 4 186 1 3 11 21 1 60-3 30 32 60-6 13-43h25l1 39 7 6 4 12-23 22-175 1-2 3q15 6 18 32l1 50-15 13q-8 9-20 7 5 26-23 74-29 49-56 56-36 9-77-22-43-40-64-53-4 15 6 22l14 13q-6 52-4 118l-28 16q16 29 0 74 33 31 46 110l21 134-2 7-10-3 15 131q6 74-15 124 18 65 0 134 5 23 42 44 36 21 41 46-38 30-97 9l-88-44q9-20 8-52l-4-58 8-20-17-33q-14-22-15-46l4-17 4-18-3-37-5-42q8-43 4-58-2-12-15-25l-20-23v-9-10q-5-13-25-31-22-18-26-28-28 46-47 199-18 147-55 198 4 24-4 87-8 56 4 89-11 12-43 13l-47-9q-7-18 1-42l14-40q-17-19-14-67l3-83-6-19-6-20q-5-42 17-101 23-63 22-91l-9-41-11-46q-7-65 12-216l9-3q6 0 7-4-6-30-4-47-3-4-15-5l-16-3-38-96q-14-63 34-85l-8-16q-2-3-18 0l-22-4Q235 721 362 696l-1-36" fill="#fff"/><path d="M1920 88l13 13q78 89 78 252v13H1420q-173 0-304 64-126 61-154 126l-7 18q-33-36-37-106l-3-90q2-55 24-84l28-26 31-24q-8 9-12 42-3 33 2 45 8 20 26 21 16 1 27-13l18-27q60-67 153-125 67-41 141-74l30-15q20-10 31-10h506" fill="#fff"/><path d="M955 866l7 18q28 65 154 126 131 64 304 64h591v278H1414l-31-10-30-15q-74-32-141-74-93-58-153-125l-18-27q-11-14-27-13-18 1-26 21-5 12-2 45 4 34 12 42l-31-24-28-26q-22-29-24-84l3-90q4-70 37-106" fill="#fff"/></svg>