<?xml version="1.1" encoding="UTF-8"?><svg xmlns="http://www.w3.org/2000/svg" xmlns:xlink="http://www.w3.org/1999/xlink" version="2.0" width="100pt" height="100pt" viewBox="0 0 2000 2000" clip-rule="evenodd" fill-rule="evenodd" preserveAspectRatio="none"><path d="M1704 617h137V769H1704V906H1552V769H1414V617h138V479h152V617" fill="#fff" fill-opacity=".8"/><path d="M807 742q-14 38-5 84l16 11 15 10q59-27 95-124H879l-5 16-67 3M591 510l-19 26-24 21 4 46q1 25 8 37l131-3 5-19 8 6 251 2 4 14 28 1 80-4 41 43 81-8 17-57 33-1 1 53 10 9q9 10 6 16-4 9-31 28l-235 2-4 4q21 8 25 44l2 67-21 16q-11 12-27 10 6 35-30 99-38 66-75 75-49 12-104-30l-86-70q-5 19 7 29l19 19q-8 77-5 158l-37 21q20 38 0 100 43 41 62 147l28 180-3 9-13-3 20 176q8 99-20 167l9 52H594l-19-32q-10-22-11-47l5-23 6-24-5-50-6-56 5-43v-36q-3-16-21-34l-26-29v-13-14q-7-18-34-42-29-24-35-37-37 62-58 230-23 185-50 249-84-1-149-31l-12-36q-6-56 23-136 31-85 30-123 0-17-12-55l-14-61q-7-60-1-143l17-147q1-3 11-4l10-7q-8-38-6-63-4-5-20-6l-22-4-50-130q-19-83 45-113l-11-21-24-1q-22 4-28-5-19-183 153-216l-2-49q-3-40 23-35-30-78 1-133 27-48 89-63 60-14 115 12 60 27 80 89" fill="#fff"/><path d="M1110 522q0-150 178-230 55-25 122-40l55-10h534q11 52 11 109v26H1470q-162 0-277 73-58 36-83 72" fill="#fff"/><path d="M1110 867l20 23q27 27 63 50 115 72 277 72h540v135H1465l-55-10q-67-15-122-40-178-80-178-230" fill="#fff"/></svg>