<?xml version="1.1" encoding="UTF-8"?><svg xmlns="http://www.w3.org/2000/svg" xmlns:xlink="http://www.w3.org/1999/xlink" version="2.0" width="100pt" height="100pt" viewBox="0 0 2000 2000" clip-rule="evenodd" fill-rule="evenodd" preserveAspectRatio="none"><path d="M1091 349H887V534H702V738H887V923h204V738h185V534H1091V349m279-69q22 14 56 73 19-88-46-123-47-26-146-26H738q-99 0-146 26-65 35-46 123 19-50 73-74 40-18 91-18h576q65 8 84 19m51-75q49 48 49 117v687H488V322q0-69 49-117 48-49 117-49h650q68 0 117 49" fill="#fff"/><path d="M537 1749q-49-49-49-118V1082h982v549q0 69-49 118-49 48-117 48H654q-69 0-117-48m49-20q47 26 147 26h496q99 0 146-26 65-35 46-123-19 50-73 74-40 18-91 18H681q-66-8-84-19-23-14-56-73-20 88 45 123m116-416v204h574V1313H702" fill="#fff" fill-opacity=".8"/></svg>