<?xml version="1.1" encoding="UTF-8"?><svg xmlns="http://www.w3.org/2000/svg" xmlns:xlink="http://www.w3.org/1999/xlink" version="2.0" width="100pt" height="100pt" viewBox="0 0 2000 2000" clip-rule="evenodd" fill-rule="evenodd" preserveAspectRatio="none"><path d="M1739 587v510H1276v310q1 197 57 332 45 107 113 156-59-21-225-64-141-36-213-69-223-101-242-355V1097H302V587H766V123h510V587h463M1635 736l31-40q17-26 28-33-115 62-269 98-166 38-308 29-3-28 24-59 25-28 14-69-16-5-13-26-91-45-141 25-50 68 0 142-151-3-296-46-128-38-219-95 59 81 170 145 67 38 216 99-11-4-17 86-6 95 0 209 16 316 102 394 52 47 150 94l173 78q-120-77-153-396-14-133-11-192 4-114 51-180 54-76 193-134 131-46 193-77l82-52" fill="#fff"/></svg>