<?xml version="1.1" encoding="UTF-8"?><svg xmlns="http://www.w3.org/2000/svg" xmlns:xlink="http://www.w3.org/1999/xlink" version="2.0" width="100pt" height="100pt" viewBox="0 0 2000 2000" clip-rule="evenodd" fill-rule="evenodd" preserveAspectRatio="none"><path d="M959 1069q-22-6-27 16l-1 7-3 3v12q-23 126-9 334 17 257 13 335v5q2 17 6 23 11 19 30 9 20-11 9-30l2 2-1-6v-71l-13-234-6-94q12-79 1-160 6-75 16-123 5-22-17-28m381 164q4-18-14-23-18-5-22 13l-1 6-3 2 1 10q-19 105-8 277 14 215 11 279v4l5 20q8 16 25 7 16-8 9-23l-1-5v-59l-11-195-4-78q9-67 0-133 3-54 13-102m-702 0q4-18-15-23-18-5-22 13l-1 6-2 2v10q-19 105-8 277 14 215 11 279l1 4 4 20q9 16 26 7 16-9 7-25l2 2-1-5v-59l-11-195-5-78q9-65 1-133 4-62 13-102m11-541 22 69q11 29 17 76l10 77q20 127 18 233 14 13 25 35l22 35q-12 116-6 316 6 229 2 316-3 9 12 15 14 5 9 17-38 23-118 20l-131-8-1-2h-6l-6-1h-4q-13-2-11-17 2-15 15-14l11 1q-6-123-4-336l-1-337 21-26 12-26q-1-180 53-430l5-3q0-5 7-10 4-8 14-8 9 0 13 8m742 145 9 77q21 126 18 233 15 13 25 35 12 25 22 35-12 116-6 316 7 228 3 316-3 9 12 15 14 5 9 17-38 23-119 20l-131-8v-2h-6l-7-1h-4q-13-2-11-17 3-15 16-14l10 1q-6-123-4-336V1187l21-26 11-26q0-189 54-430l5-3 6-10q4-8 14-8 9 0 14 8l22 69q11 29 17 76M956 446q5-10 17-9l16 10 27 83q13 34 21 91l11 92q24 149 22 281l30 42q13 29 26 42-14 139-7 380 8 275 3 380-4 11 14 18 17 7 11 21-46 28-142 24l-158-9v-3l-8-1h-8l-4-1q-16-2-13-20 2-18 18-17l13 1q-8-150-6-404V1042l26-31 13-32q-1-216 65-516l6-5 7-11v-1" fill="#fff"/><path d="M265 694 999 75l679 692-676-442L265 694" fill="#fff" fill-opacity=".8"/></svg>