<?xml version="1.1" encoding="UTF-8"?><svg xmlns="http://www.w3.org/2000/svg" xmlns:xlink="http://www.w3.org/1999/xlink" version="2.0" width="100pt" height="100pt" viewBox="0 0 2000 2000" clip-rule="evenodd" fill-rule="evenodd" preserveAspectRatio="none"><path d="M1682 11q167-3 251 92 37 41 57 103 14 67 12 75-6 35-72 53-84 23-170-13l-68-41-42 68q-57 75-135 111-74 35-174 17l52 297 197-223 84 531 136-126 61 634-87-411-171 110-69-486-192 230-186-616-24-14q-10 31-34 55l116 654L943 988l166 473-205-22 109 413-236-605 181 54L785 779l282 114L954 517 774 506 586 1088 397 855l-89 567-169-112-93 409 69-633 134 128L355 603 549 828l76-370Q488 403 411 323l-50-69q-32 19-89 25-115 12-244-49 21-72 71-125 88-94 245-94H1682" fill="url(#A)"/><defs><linearGradient id="A" x1="-16384" x2="16384" gradientUnits="userSpaceOnUse" gradientTransform="matrix(.06 0 0-.06 939 931)"><stop offset="0" stop-color="#fff"/><stop offset="1" stop-color="#fff"/></linearGradient></defs></svg>