<?xml version="1.1" encoding="UTF-8"?><svg xmlns="http://www.w3.org/2000/svg" xmlns:xlink="http://www.w3.org/1999/xlink" version="2.0" width="100pt" height="100pt" viewBox="0 0 2000 2000" clip-rule="evenodd" fill-rule="evenodd" preserveAspectRatio="none"><path d="M753 1030q29-47 50-67-85 10-172 39-167 54-273 156-71 68-54 167 16 98 104 148l-10-25q-6-29 18-48 9-7 49-11 38-5 54-20 59-56 42-128l-29-61q39 26 64 78 24 49 25 92 2 58-51 120l-53 60q0 7 10 15 13 11 36 18l67 25 40 9q-16-24 6-88 19-53 47-95 24-35-4-102-35-82-20-156 12-60 54-126m949 337q22-48 11-108-16-92-112-160-65 83-16 143l43 50q22 31 19 66-7 68 17 58 19-8 38-49M1207 960l-207-11-91 5-89 8q-23-1-44 96-24 108 12 195l32 52q26 40 37 73 35 106-42 247l74 11 78 4q32-8 34-112 2-102-19-128-69-84-11-207l72-105q-1 44-20 131-5 76 59 130 38 31 46 132 9 111-49 154l78-4 88-11q-2-80 59-184 56-97 48-152-28-178 49-281-90-30-194-43m200 46q-25 36-21 94 4 77 59 180 38 71-6 185-43 109-36 117 113-37 139-59 25-20 31-73 6-58-23-100-42-60-39-114 4-72 85-140-35-25-84-50-57-28-105-40M347 617l47-77-6 95q11 103 95 147 36 19 82 76l38 54q-8-66-1-152 16-173 95-274 41-52 49-167V215l63 95q55 117 19 232-40 127 11 262 26 68 59 110l59-12q54-29 29-109-26-85 25-180l56-79-11 87q-3 96 42 140 84 81 132 153-5-21-7-54-4-64 14-120 15-47 71-146 41-74 44-136 4-85-30-159l-35-57 56 42q60 64 84 179 25 120 12 195l-30 106q-16 73 38 141 27 34 57 53l19-43q28-51 74-95 34-33 44-143l2-103 33 114q27 128-2 195-27 62-21 108 5 40 32 57 41 26 55-67l6-97q73 94 43 369-29 271-109 339-89 77-157 103-171 65-517 68-297 3-459-48-98-31-154-88-134-138-160-358-8-68-5-149l2-81q-4-31 4-79 5-32 9-45l12 36q16 49 26 68 11 20 21 17 9-2 12-14l24-101q10-57 2-86-33-117 7-218" fill="#fff"/></svg>