<?xml version="1.1" encoding="UTF-8"?><svg xmlns="http://www.w3.org/2000/svg" xmlns:xlink="http://www.w3.org/1999/xlink" version="2.0" width="100pt" height="100pt" viewBox="0 0 2000 2000" clip-rule="evenodd" fill-rule="evenodd" preserveAspectRatio="none"><path d="M601 72 508 5H802l222 194-378 91 470 308L920 732l363 350L579 653l225-85L228 173 601 72" fill="url(#A)"/><path d="M1037 998l62 29-32 67q-60 137-37 237 23 98 114 98 89 0 195-98 105-99 165-237 59-141 37-236-22-99-113-99-91 0-196 99-32 28-53 55l-44-57q38-46 78-83 143-133 266-133 123 0 153 133 30 133-50 321-82 191-223 321-143 133-267 133-122 0-153-133-30-133 51-321 20-48 47-96" fill="#fff"/><path d="M1362 1024q-7-31-35-31-28 0-62 31l-28-36 16-16q56-51 104-51 50 0 60 51 13 51-19 126-32 74-88 126-57 52-104 52-48 0-60-52-13-51 19-126l15-32 39 18-6 14q-20 44-12 74 8 32 36 32 27 0 62-32 32-30 50-74 18-42 13-74" fill="#fff"/><path d="M809 890l60 28q-47 82-84 169-134 319-82 541 49 224 257 224 209 0 449-224 244-225 376-541 135-317 84-542-51-225-257-225-207 0-449 225l-8 7-54-45 44-42q278-258 515-258 238 0 296 258 57 258-96 621-157 366-432 622-282 259-517 259-238 0-294-259-22-97-15-208 12-183 110-414 44-103 97-196" fill="#fff"/><defs><linearGradient id="A" x1="-16384" x2="16384" gradientUnits="userSpaceOnUse" gradientTransform="matrix(-.05-.06.07-.06 482 81)"><stop offset="0" stop-color="#fff"/><stop offset="1" stop-color="#fff"/></linearGradient></defs></svg>