<?xml version="1.1" encoding="UTF-8"?><svg xmlns="http://www.w3.org/2000/svg" xmlns:xlink="http://www.w3.org/1999/xlink" version="2.0" width="100pt" height="100pt" viewBox="0 0 2000 2000" clip-rule="evenodd" fill-rule="evenodd" preserveAspectRatio="none"><path d="M993 1646l-36 23-43 17-50 4q-44-7-77-62-36-60-12-115 8-18 44-30l61-21q33-17 84 9l81 42 451-18 479 1q3 76-8 131H1569q-256-1-410-9l-131 9q-12 3-35 19" fill="#fff"/><path d="M491 785q62-132 161-217l20 81q15 41 44 57 3-124 53-233 52-114 139-176l40-25q-27 110-14 219 14 126 78 172 27-17 39-87 14-73 35-92 12 30 117 191 84 128 94 232 20 186-80 323-107 146-290 142 121-88 119-199-1-115-137-186 18 63-2 129-15 48-44 83-28-15-60-58-35-46-45-86-51 75-45 162 6 99 90 155-140-6-236-87-88-75-126-199-21-147 50-301" fill="#fff"/></svg>