<?xml version="1.1" encoding="UTF-8"?><svg xmlns="http://www.w3.org/2000/svg" xmlns:xlink="http://www.w3.org/1999/xlink" version="2.0" width="100pt" height="100pt" viewBox="0 0 2000 2000" clip-rule="evenodd" fill-rule="evenodd" preserveAspectRatio="none"><path d="M522 962q10 2 19 14l48 99q40 86 47 89 12 5 44-48l75-2 83 115 4 8q2 9-8 16l-37 20-5 100-172 125-88-208L63 1773 513 963l9-1" fill="#fff"/><path d="M1801 232l140 318-416 352-62-144-51 38-163-195 167-216 105 188 280-341" fill="#fff"/><path d="M858 981l89 91q9 14 6 33l-17 29q-12 10-27 7-14-2-24-12L781 1028q-10 30-21 34-38 11-54-41-10-32-3-68l8-30q6-18 27-26 20-7 31 0l89 84" fill="#fff"/><path d="M978 1032 801 842q-9 9-25-7-6-11-7-26-3-30 19-46l83-2 171 209q17 53-6 71-23 17-58-9" fill="#fff"/><path d="M957 628l-12 2q-13 6-19 22-5 13-8 40l-8 24q-12 8-24-23-13-32 8-60 21-27 44-22 19 5 19 17" fill="#fff"/><path d="M1148 584l9 45-128-12q-3-22 3-43 11-43 55-39 44 3 61 49" fill="#fff"/><path d="M957 809q-10-19 7-25 7-2 35 26l46 34 44-1q27 0 40 27 19 36 20 51 2 19-18 32-17 11-35 0l-14-12L957 809" fill="#fff"/><path d="M1375 856q8 65-6 169-13 99-29 123-16 25-56 58-43 36-74 44l-32 5 9 16q10 23 18 28l47 2q51-9 92-34l12 30 18 58q7 37 158 311l-292 148-206-350q41-16 55-37 11-16-1-23l-54-5-78 2q-40-5-64-37l-40-42q-11-10-9-19 2-11 137-122l134-109q101-75 110-100 7-17-5-46-11-28-26-36-18-10-25-29-8-22 9-38 11-11 29-17 8-3 2-10l-70-2-89 1q-33-8-54-27-25-23-24-59 1-33 18-45l17-5 215 9 73 60q75 71 81 128" fill="#fff"/></svg>