<?xml version="1.1" encoding="UTF-8"?><svg xmlns="http://www.w3.org/2000/svg" xmlns:xlink="http://www.w3.org/1999/xlink" version="2.0" width="100pt" height="100pt" viewBox="0 0 2000 2000" clip-rule="evenodd" fill-rule="evenodd" preserveAspectRatio="none"><path d="M904 200l6 6q180 43 284 150 114 118 116 296 1 95-36 213l-73 204q-74 220-89 345-23 203 61 340-436-4-561-508-29 84-18 181 11 90 52 162 14 23 65 71 42 39 50 72-179-58-283-187-111-138-112-333-1-114 31-219 23-73 72-170 19-38 99-148 65-90 84-155 10-34 6-114 19-4 40 16l29 35q74 94 102 248 28 156 0 324-29 171-29 199-3 106 64 143-11-145-6-217 6-88 66-235 60-147 66-227 10-127-17-254-20-100-69-221V200" fill="#fff"/><path d="M1482 720h17q87 91 123 188 43 114 31 269-12 151-150 294-78 81-103 115-51 70-67 151-96-135-109-274-9-109 28-208 25-64 89-162 72-110 95-160 45-95 46-196V720" fill="#fff"/></svg>