<?xml version="1.1" encoding="UTF-8"?><svg xmlns="http://www.w3.org/2000/svg" xmlns:xlink="http://www.w3.org/1999/xlink" version="2.0" width="100pt" height="100pt" viewBox="0 0 2000 2000" clip-rule="evenodd" fill-rule="evenodd" preserveAspectRatio="none"><path d="M690 10H870l238 384-308-10 329 378-199 55 256 343L741 686l189-17L578 248l304 2L690 10" fill="url(#A)"/><path d="M1690 770q57 3 75 43 16 36 3 82-14 46-46 62l-79 3-67-5q13 67 105 164 94 100 109 158 6 25-1 61-8 39-24 48-14-11-18-36l-10-42q-13-24-63-67l-79-77-48-67q-20-28-49-38l-34 2-60 81q-43 56-55 84-9 18-14 72-4 43-15 45-12 1-22-20-10-19-13-46-1-25 8-49l33-62q19-32 27-90l-146 30-14 2-86-222q224-54 410-22 3-10-14-45-15-31-3-41l55-3q34-3 44-26 22 18 91 21" fill="url(#B)"/><path d="M435 1228q-19 16-42 152l-18 133-15 7q30 66 9 87l-72 55q-60 40-92 48-18 6-15-12 2-14 21-60 14-32 38-51l28-31 4-6-31 4q-25-2-1-116l38-159q17-110 58-151 17-17 116-65 56-28 208-55l195-29 8-6 19-9 191 172-63 23q-35 11-93 44-32 21-111 47-30 8-66 44l-58 49q1 58-17 186-16 118-11 189 20 15 43 66 0 28-37 82l-30 47-28 31-40 17q-26 6-34-4l14-43 19-64q3-38-10-82l14-14 11-17q-3-11-21-9-17 3-20-10-44-256-9-386 23-91 107-174-129 9-207 70" fill="url(#C)"/><defs><linearGradient id="A" x1="-16384" x2="16384" gradientUnits="userSpaceOnUse" gradientTransform="matrix(-.03-.05.06-.03 771 242)"><stop offset="0" stop-color="#fff"/><stop offset="1" stop-color="#fff"/></linearGradient><linearGradient id="B" x1="-16384" x2="16384" gradientUnits="userSpaceOnUse" gradientTransform="matrix(.02 0 0-.02 1450 1068)"><stop offset="0" stop-color="#fff"/><stop offset="1" stop-color="#fff"/></linearGradient><linearGradient id="C" x1="-16384" x2="16384" gradientUnits="userSpaceOnUse" gradientTransform="matrix(.03 0 0-.03 636 1464)"><stop offset="0" stop-color="#fff"/><stop offset="1" stop-color="#fff"/></linearGradient></defs></svg>