<?xml version="1.1" encoding="UTF-8"?><svg xmlns="http://www.w3.org/2000/svg" xmlns:xlink="http://www.w3.org/1999/xlink" version="2.0" width="100pt" height="100pt" viewBox="0 0 2000 2000" clip-rule="evenodd" fill-rule="evenodd" preserveAspectRatio="none"><path d="M1211 962l-46 8-32-4q17 17 59 17l46-8q19-9 19-20 0-16-33-24l6 12q0 11-19 19m784-219v79l-454 212q22 20 50 119 25 87 41 185-43 116-126 201-154 80-249 113l-110-19q-94-52-278-178L605 1267q-39-69-55-136l1-40q4-57 14-90l14-42 23-40L899 806q1-8 34-9 24 0 302 109l760-341V718L1342 946l122 53 531-256m-989 306-55 9-41-5q21 18 69 18l55-10q23-9 23-23 0-18-37-28 9 6 9 15 0 14-23 24m220 234 315-204-381 147L612 969l504 317 103 297 7-300" fill="#fff"/><path d="M182 1201q-37-93-59-191l-15-80 135 229q167 253 328 371 162 118 423 218l228 77-232-26q-272-50-471-170-219-131-337-428M208 17Q243 6 281 2 124 361 269 668q47 99 134 165 43 33 77 46v264q-107-81-206-223Q76 635 119 331q25-176 89-314M381 0h4q-39 87-56 176-27 148 18 260 61 153 107 236l34 53q-47-45-97-112Q290 480 276 372q-15-108 30-229Q335 66 381 0m79 0Q439 249 563 465q99 173 221 251 61 40 102 44L736 821q-62-58-132-142Q463 512 423 386 376 237 442 0h18m569 435q261 153 458 187l176 18q-112 46-183 94-252-22-488-236-74-67-137-145l-48-64 222 146" fill="#fff" fill-opacity=".8"/></svg>