<?xml version="1.1" encoding="UTF-8"?><svg xmlns="http://www.w3.org/2000/svg" xmlns:xlink="http://www.w3.org/1999/xlink" version="2.0" width="100pt" height="100pt" viewBox="0 0 2000 2000" clip-rule="evenodd" fill-rule="evenodd" preserveAspectRatio="none"><path d="M971 834q14-12 32-11 18 1 31 15 12 13 11 32-1 18-15 30-14 12-32 11-18-1-30-14-12-14-11-32 1-18 14-31" fill="#fff"/><path d="M968 1092q13-12 32-11 18 1 30 15 13 13 12 32-1 18-15 30-14 12-32 11-18-1-30-15-12-14-11-32 1-18 14-30" fill="#fff"/><path d="M1695 540q30 59 32 112 3 60-22 127l-54 118q19 21 65 20 40 0 69-15 1 25-27 66l-44 59q-26 35-23 68 1 20 21 70 33 82 23 158-5 36-26 58l-46 37-97 40q-92 38-126 67h-2l-10 14q-58 88 34 103 87 14 149-33l36-33q-18 97-142 131l-109 18q-77 18-74 53l59 12q-9 20-51 53-49 38-61 53-36 46-39 96H1109l7-747 209-28 115-20q12-9 19-172l4-191q-2-24-18-38l-16-9-305-21V724q0-9-34-9l-154 1q-34 0-34 8v41L549 801q-37 9 10 385 5 26 21 44l306 25-3 737H742q-42-63-41-175 0-19 41-98 30-59-1-67l-83-3-80-7q-72-27-141-80-84-66-96-126l-6-9 48 44q31 25 54 29l2 5 96 9q60-4 96-31l-31-5q-206-104-311-147-100-41-137-145-35-97-5-213 18-67 61-113l42-37q-37 57-30 118 9 67 73 84 77 21 132-54 49-70 41-153-4-50-56-115-62-70-85-103-45-64-30-129 13-61 73-112-2 65 1 81 6 39 40 65 84 65 155 38 36-13 66-35 36-27 47-56 13-35 7-85-6-44-23-80-25-53-76-96l-97-69q83-7 156 33 74 41 113 116l69 144q50 71 136 33 71-31 68-134-3-79-41-156-36-73-5-149h151q3 56 20 85l40 62 42 60q40 62 48 154l7 77q2 49-6 76 36 3 71-32 37-37 30-75 9 38 10 90l1 90q1 41 39 59 31 15 77 12 42-3 71-27 30-24 40-64l9-64q3-46-8-70 43 46 69 98" fill="#fff"/><path d="M783 65q-34-4-52-56H837q4 80-54 73V65" fill="#fff"/><path d="M1496 498q-49-35-21-120 42-93 45-125 42 86 52 154 15 110-69 115l-7-24" fill="#fff"/><path d="M1800 1138q-25-14-18-41 3-12 21-42l7 3q45-22 72-54l25-44q13-32 22-42l4-20-4 110q-10 61-43 94-56 54-86 36" fill="#fff"/><path d="M109 479l33 63q20 38 17 69-2 21-23 67l-16-10q-29-29-38-49-11-25-9-64l9-70q3-44-14-64 20 20 41 58" fill="#fff"/><path d="M266 1551q13 17 23 56 11 39 23 55l47 35q33 19 47 38 28 39 10 55-13 10-60 15l-16 10q-43-1-72-32-28-39-48-59-4-78-34-149-10-26-43-63-36-42-46-60 39 9 67 42 80 27 102 57" fill="#fff"/><path d="M1646 1882l-3-14q5-37 26-81 21-44 48-73l55-50q35-33 41-59v87l-2 51q-4 19-26 41l-62 63q-43 36-77 35" fill="#fff"/></svg>