<?xml version="1.1" encoding="UTF-8"?><svg xmlns="http://www.w3.org/2000/svg" xmlns:xlink="http://www.w3.org/1999/xlink" version="2.0" width="100pt" height="100pt" viewBox="0 0 2000 2000" clip-rule="evenodd" fill-rule="evenodd" preserveAspectRatio="none"><path d="M1243 1742v-7l-3-4q-5-1-4 7 1 8 7 4m54 6 8-7-1-10-7 17m-25 22q9 6 8-8-9 0-10-4-9 6 2 12m-12-116 2 2q12-10 8-19l-10 10q-7 6-17 4l4-10q-23 13-10 70l15-25q9-16 1-22l7-7v-3m-32-15 2-2 1 5 6 5q3-8-8-15l-23-1 22 8m88 19-16-4 2 19-5 25h10q-4 6-7 27 12-4 14-33 3-29 17-31-1-5-15-3m-211 98-3 16 4-3-1-13m33 38 9-5-9 1q-3 4 0 4m31-3 24-2-1-29q-2-16-16-15v27q-2 14-10 17-9-6-11-22l-3-32q-7 1-7 12 8 4 8 35 4 10 16 9m-40-70v-27q-9 3-12 16-4 14 12 11m7-84 9 10 1-16h-20l8 18 2-12m50 11-10-11q-4 6 1 29 5 22-4 35l12-18 8-22q1-8-7-13m7 3 3-4-4-4 1 8m0-17v2l4 9q0-9 6-8-1-3-10-3m-131-7 6-13-7-3-3-7q-8 4 4 23m34 74-1-10-6 6v8q6 2 7-4m13 7q-7 3-5 12l4 17 4-2-3-27m-71-14q7 5 0-23-5 3-2 10l2 13m-17-83q2 4 7 3l-6 13q-12-19-4-23l3 7m17-21-13-37-14-54q-14-36-43-47l7 105q6 66 19 100l20 6 17 5q6-8 4-19l-4-22 7-37m17-202 5 7-2 3q4 11 24 8l17-1q11 11 13-33l-32-2q-16 5-25 18m138-222 4 4q-6 0-2 5 3 6-2 5l-4-6q-4-2-3-8h7m259 299 3 4 4-3q15 8 16-4l4 10q13-6 13 0l6-4-2-9q5-2 7 11 1 8 3-1 5 3-1 13l6-1q-1-12 11-19l5 11 2-7 6 8 6-2h-2v-6h7v5l10-4 3-8-9-4q-7-1-7 4l-2-8-12-2q8-7-6-13l-24-11-18-6-29 8-25 8 15 21 10 2 3-9q5 11-3 16m-145-128q-15-16-37-13l2-5-2-5-25 14-22 17-29 69q-19 41-8 75l20 13q11 10 20 11l24-4 20-3v-10q-2-7 4-13l3 6v10l7-4 10-2-7 10q-7 5-7 10 4 11 15 17l15 4 29-9v-4q0-14 15-16 11-24 7-56-4-31-20-47l-2-23-5-21-27-21m-81-177-3 6q-13 0-17-10l7-6-13-15-14-18-79-34q-55-7-86 9l-6-6-6 10-11 10-4-7-7 11-10 11-2 12-10 19 3 69q-1 44 13 63 7-4 1-13-5-8-1-10l10 9 10-3 6 12q1 7-6 8l14 8 10 13 36-1 28-9 13 16 7-4v-12l40 4 40-4 16-23 11-28q6 4 2 13l-5 14q12-7 15-34l5-37 14-7-2-8-2-20v-3q-14-11-23-15l2 5 4 5M777 633q18 0 31-12 12-13 12-31 0-17-12-30-13-12-31-12-17 0-30 12-12 13-12 30 0 18 12 31 13 12 30 12M41 888q-19 12-41 7V857H4l22-13q17-3 18 15l-3 29M255 531l24 10 15 21 1 24-17 18q-5 8-8 28l-26-5-23-12q-12-10-12-23l5-27 4-26q3-13 15-14l22 6M234 379l-30-20q-16-17 6-24l16-5 5 4 8 3q3 20-5 42M1253 796l4 7 72-2q2 56 15 83l-20 9-20 9-22-1-22-4q-4-13-21-27-14-12-29-18 14-25 43-56M842 873l24 7 23 9-8 39-8 41-62-1q-38-5-45-26-11-36 29-67l4-5 43 3m266-519q23 23 19 29l-27 30 195 188 6 16q3 21-11 40L1183 809q-93 129-106 128-19-1-328-208l-22 25 2 2q10 9 9 24 0 15-11 28L366 1213q-11 13-26 15-15 2-26-7l-7-6L0 1553V1365l210-237-7-6q-10-9-10-24 1-15 12-28L566 665q11-13 26-15 15-2 26 7l5 5 18-21L396 386q0-23 13-45 20-35 119-152Q641 56 662 68L940 269l26-30q6-6 31 16l111 99M988 407q0-18-12-30-13-13-31-13-17 0-30 13-12 12-12 30 0 17 12 30 13 12 30 12 18 0 31-12 12-13 12-30m236-47 15 35-63 47-9 2-5-44-8-42 23-20q16-12 26-8l21 30m187 69 37 22 23 8 15 19q20 43 14 54-6 11-46 32-26 18-37 31l-12 20-13 18q-8 6-22 9l-23 4-5-6-11-21q-9-6-27-40l6-24q4-11 14-19l18-14 7-22-4-52q1-34 29-35 12-1 37 16m217 1106-3-1-14 3 7 3h-17q-30 9-59 28l-17 14q-8 14-9 25l-7-10-12 9-7 6-1 2v-1l-4 3q-18 14-31 10l-2 11-6-5-1-8q-8 1-7 8l7 9-3 6-3 10q-2-5-2 1l1 3h-1q0 11-5 3 6-2-1-4l-12 2 3 6h-4l-10 3 1-4-1 1q-3-1-1-4l1-7h-13q3 16-4 36l-10 35 18-29q8-22 19-31 6 5 2 18 8-11 15-15-3 12 0 8 6-8 7-5l-7 23-10 41q-16-5-24 12-7 15-6 39-6 1-10-4l2-15q-2-5-6 2l-6 10q-6-9-2-22 3-13 12-15l7 3v12l3-15-11-2-3-12q-8 8-13 21l-10-3-10-4q0-67 43-84-1-7-13-3-9 3-7-4l-34 3 8 31q3 25-1 43l-10 17-1 11 1-4q6 10 0 30l-6 23v1h-1l-6 7q-16-1-21-13-4-12 4-24l7-2-6-12q-8 2-8-13-11 3-16 24-5 22-14 26-12-4-7-23 5-20-3-24-10 1-12 20-2 19-15 17-8-2-7-20l-3-24q-8 5-8 25 0 17-12 19 25 2 47 13l2-2-2-4q3 3 12 6l11 7 5-5q1-5 5-5l19 13 25 7 12-10 18-3q0 4-8 4-8 0-9 3 4 6 0 10-4 5 0 10l10-8 17-12 2 12 2 14-16 1q-15-4-21 0l9 3q6 0 18 7 9 6 16 0l7 6-3 10q16-2 13-13l10 2 7 5-9 2q-7 1-1 8-12 0-19 13l-11 27-2-1v2l4 2q30 28 8 57l-16 17q40-11 76-30l47-27 24-29 24-31 39-31q21-18 28-37l-3-13-4-13 10-21q-20-34-8-93 19-65 22-95l37-34-26-1m87-288q-4-3-14-3-5 35-2 62l16-59m8-418q38 49 48 73l13 41 1 1h-1l4 45v102l-2 18q11 87-9 142l-35 66q-31 47-39 64-12 25-14 73l-5 76-12 157q-6 99-36 148l-30 54-39 52q-39 39-52 61H977q17-41 17-76 1-21-17-58l-26-59-27-81q-15-46-20-81-17-112-17-312l4-65 3-63-1-67q1-39 12-64 18-43 52-88l33-31q19 24 47 37l72 31q42 21 66 20 33-3 35-43 41 6 97-35l10 7 4 2 3-3q24-38 43-47l20-19q6-9 21-16l17-8 5-7-3-6q-6-19-3-40-18-25-25-44-3-8 2-14 4-5 12-7l-11-16q-15-26 33-58 14-20 38-25l15 4 6-1q58-2 128 54 46 39 101 106m-6 130-6-1-12 19-12 11q-7 1 0 14l-18 29q-13 21-15 38-9 45 27 104l-13 4q-5 2-4-10-1 7-51-11-3-1-3-6l-31-9-23-11-82-31-57 10-4 8-8-1q7-5 1-3-12 3-11-4h8l-10-2-1 2 4 7-1 7q-7 1-7-7l-6 3-4 4q-1 7 4 5 6-2 6 5l-7 6-13 1 3 10 7 6-13-1q-9 0-4 11l-8-4-12 59 3 23-4-1v13l4 8h-2l2 5v-2q7 4 7 10 5-2 2-8-4-8-2-12l14 43q8 26 26 31 59 50 175 61l6-6 4-8 6 5 4-1-1-4q-2-6 5-13 9 0 10-4 6 2 1 7 24-8 37-50 11-47 19-64l12 9 18 1-10 9q-7 6 0 11 8 7 6-1l-4-6 8-3q8-7 8-20l2-24 10 10q-1-8 7-34 6-20 0-26l4-1 6 1 4-11q3-5-4-9l14 1 1-4-8-4 8-1 2-15-3-14 3 4v-12l-9-35-10-36q-14-51-5-85" fill="#fff"/></svg>