<?xml version="1.1" encoding="UTF-8"?><svg xmlns="http://www.w3.org/2000/svg" xmlns:xlink="http://www.w3.org/1999/xlink" version="2.0" width="100pt" height="100pt" viewBox="0 0 2000 2000" clip-rule="evenodd" fill-rule="evenodd" preserveAspectRatio="none"><path d="M1070 713q0-17-12-29-12-12-29-12-17 0-28 12-12 12-12 29 0 17 12 29 12 12 28 12 17 0 29-12 12-12 12-29m-41-276q-17 0-28 12-12 12-12 29 0 17 12 29 12 12 28 12 17 0 29-12 12-12 12-29 0-17-12-29-12-12-29-12m404-33 12 29q9 47 18 186 11 168-10 173l-329 31-1 39-9 5-22 2H966q-32 0-32-8V822L605 787q-33-8 12-358 3-15 12-29l8-12 285-22-1-356h225l-5 357 284 25 8 12m354 1520-51-29-35-35-31-38-40-18-49-11-27-4q-9-3-15-16l-8-21-12-19-81-58q-54-35-70-71l-30 3q-1 30 18 80 20 52 20 80l-4 45q-2 25 4 44l35 88 15 7 67-3 68-9 66-6 66-7 48 2 46-4m-17-256-10 8q-23 5-38 18-10 11-10 16l8 19q10 26 26 38l44 19 50 13 50 13q34 13 44 22l11 14-41 49q-94 96-249 96H1352l-4-9q-10-18-52-65l-37-49q-23-33-39-47-5 7-6 25l-4 26-16 20q-9 10-8 25 1 13 14 32l18 30 3 12H345q-157 0-253-96l-11-12 23-16 15-20q22-9 30-57l13-69q10-21 28-28l40-11 43-9q30-7 36-16l6-1q8-20 22-28 10-7 36-14l37-6q21-6 21-24l-7-16-8-16q-2-25-8-35l-23-26q-11-16-9-36 22-3 52-19 34-17 46-34-56-35 15-57 36-11 95-41 29-14 83-29l83-26 1-7q23-6 13-25l-23-25 60-28 60-28 75-43q45-24 80-34l23-13q19 11 56 15l61 8q101 20 104 52-35 15-43 21 24 20 76 34l83 21 95 26q58 20 86 46-23 0-71 18 10 25-8 50l1 6-3 39-1 12 3 7 38 31 99 50q22 46 83 90l46 35q29 22 49 33l-3 6q-18 3-20 20M793 1271l-5-7q-11-1-23 10l-20 17-44 20q-70 33-73 50-3 14 14 27l29 18 33 33q19 27 83 67 16-43 51-93l22-32 15-12q7-7-4-13l-1-7q-16-7-37-43-18-32-40-35m178 323-8 27-17 23-16 21-18 17-22 18q-7 8-9 24l-7 38-3 37 7 5 11 37 38 23 44 5q67-10 102-26-14-34-30-99l-27-86q-26-67-45-64m-2-241-53 3-5-7-4 49q-2 30 8 41l24 15q18 7 24 13l9 15q4 9 11 11l5-24q14-5 16-25l2-35 11-30q8-17 6-30l-54 4m139-166-50-61q-35-43-65-30l-5 3q-47 42-87 63-19 9-21 18l-2 29q-2 15-12 24l-22 16-5 22 53 17q28 11 49 26l32 23 21-8 19-17 41-16q23-9 32-24 30-49 22-85m64-87q-10-13-24-16l-77-3v5q-4 16 8 35l19 8q12 19 10 37 22 4 48-22l37-27-21-17m98 291-15-27q-6-36-19-48-6-5-27-8-18-2-21-11l-7-1q-7-15-22-22l-28 2-13 16-12 19-26 29-20 46q-11 26-29 36-2 23 26 46l47 29q28 16 61 49 31 29 51 16l22-24 21-26 19-21 17-23 3-27-10-24-18-26m130-127q-15-10-22-10-5 16-37 33-31 16-35 32-5 21 20 52 25 32 46 34l-5 7 6 28q33 4 43 27l27-6 26-11-1-1 13-4q-23-12-26-24-7-5-6-24l2-27q-4-28-28-36l1-29q1-17-6-25l-18-16m-57-57-90-21-38-10-39 1q-6 25 5 51 12 27 35 36l5 7h-7l26 5 25-5 58-5 1-4q10-1 15-23l4-32M785 1587q-9-24-22-26-7-1-37 15l-19 5q-11 3-15 10-10 16 1 37l18 33 20 3 42-7q21-3 20-33 0-16-8-37M303 1954l13 2 52-4 54 5 64 8 62 6-6-19q-3-9 2-20 4-10 35-35 19-16 19-26l-12-32q-15-38-16-102l-2-106-17 15-15 18-32 72q-10 21-43 37-34 16-43 30-22-1-38 24l-20 45q-20 39-57 82" fill="#fff"/><path d="M2000 1019v132l-834-132h834m0-188V964H1346l654-133M696 964H0V826L696 964M0 1176V1019H876L0 1176" fill="#fff" fill-opacity=".8"/></svg>