<?xml version="1.1" encoding="UTF-8"?><svg xmlns="http://www.w3.org/2000/svg" xmlns:xlink="http://www.w3.org/1999/xlink" version="2.0" width="100pt" height="100pt" viewBox="0 0 2000 2000" clip-rule="evenodd" fill-rule="evenodd" preserveAspectRatio="none"><path d="M582 1501l4 36-2 13 2 6 6-11q1 15 9 38l12 37 7 41q8 39 19 59 13 24 26 33 15 11 39 8 79-10 137-37 36-17 92-62l-145 14q-84 0-118-17-15-8-29-33l-20-42-39-83m432-247q-30 11-47 23l-65 46-66 35 105-35 53-12-19 24-19 32-32 51-16 18q-10 13-10 20l41-32 40-32q23-14 46-37l41-42q39-31 50-52l27-36 48-52-18 6q-10 4-15 0l2 2-28 23-35 16-34 15-49 19M212 1368l-30-50q-11-1-71-33l25 42q13 25 15 45 4 44 37 87l67 71 24 21q11 7 28 11l68 21 100 22 40 12 40 5-34-31-37-29-97-87q11 21 40 50l44 47-71-31q-43-20-68-38-50-37-87-87l-33-48m81-251-4-21q0-11 8-19 14-16 46-30l50-23-18 2-96 11-88 1-48-1-47-7 115 100q27 25 59 65l49 55 35 39q-5-32-29-86-25-59-32-86M981 397q-4 14 4 26 8 12 21 15l26-4q12-7 16-21 3-14-4-26-7-12-21-15l-26 4q-13 7-16 21M962 272q4-14-4-26l-21-16-26 4q-13 7-16 21-4 14 4 26 7 13 21 16l26-4q13-7 16-21m319 12q5 16 2 32L1103 450l88 147 100 5q59 9 91 106l32 69q22 43 26 71l2 42q0 26 3 41l9 43 3 43-5 19 486 818-34 40-53 43-472-799-9 9q-32 29-53 83l-21 39-22 38-18 41-20 40-56 74-53 71-35 34-33 37-37 38-43 32-93 69-91 72-27 30q-18 20-31 22-14 3-49-14l-46-25-117-65-113-72Q188 1549 7 1332l-7-8v-92l65 66q-9-10-22-48l-15-32-12-32 105 41 105 38-112-96L3 1073l-3-2V839l17 7q37 24 53 26l40-9 38-17 42-9q73-7 133 24l-45-29-64-33-38-14q-24-8-33-20l-23-35-10-24q-9-15-40-29 7 14 8 44l12 30q6 19-7 27L0 788V608q74-4 134 17l77 35q78 35 130 80 55 47 80 117 27 72 11 141l128 34q75 28 103 74 16 28 28 71 13 47 10 75l-6 38-1 37q5 16 12 20l23-2 28-18 27-20 26-21q28-23 74-35l38-6 38-8 27-17q20-15 27-19l80-47 68-42q42-29 55-56 11-23-13-62l-38-61-8-32-9-29-4-5v22h-64l-33-72q-15-37-12-82l15-5q-12-31-8-45l9-14 11-12q8-7 15-8l12-2-82-140-201 92-27-17Q627 388 645 371q16-16 186-139l-14-24q-3-5 17-16l76-46q19-10 22-6l14 23q180-89 211-99 15-5 68 101 45 87 56 119" fill="#fff"/></svg>