<?xml version="1.1" encoding="UTF-8"?><svg xmlns="http://www.w3.org/2000/svg" xmlns:xlink="http://www.w3.org/1999/xlink" version="2.0" width="100pt" height="100pt" viewBox="0 0 2000 2000" clip-rule="evenodd" fill-rule="evenodd" preserveAspectRatio="none"><path d="M265 1142l-155-11q-72-21-103-98l-7-18V804q46 33 82 91l66 114q18 35 34 52 24 23 56 25l7 3 74 53H265" fill="#fff"/><path d="M1918 912q59-6 82-16v118l-61 9q-25 7-40 30-10 15-21 49-10 31-23 44-10 10-41 25-15 8-40 29l-39 28 27-56 13-63q5-75 34-126l50-41q31-24 59-30" fill="#fff"/><path d="M1006 784q20 0 34 14 14 15 14 35 0 20-14 35-14 14-34 14-20 0-35-14-14-15-14-35 0-20 14-35 15-14 35-14" fill="#fff"/><path d="M1006 1019q20 0 34 14 14 15 14 35 0 20-14 34-14 14-34 14-20 0-35-14-14-14-14-34 0-20 14-35 15-14 35-14" fill="#fff"/><path d="M1923 110q73 82 77 230-43 20-75 56-42 46-47 126-1 25 13 78 13 48 7 76-16 79-93 89l-153 4q-61 6-103 84-19 36-2 67 19 33 61 26 13-2 25-13l15-23q14 34 9 69-6 40-35 57-18 11-43 13l-48 28q-37 20-52 65l-12 34-1 8-5 29q-4 20-2 32l18 13q17-3 27-18l11-33q18 21 13 67-5 45-26 62-5 21-38 38-18 9-53 27-49 36-69 84-25 62-9 131 16 68 61 113l-2 2 28 6 28-6-4-3 28-13 23-19 9-1q42-50 27-119l-17-45q-15-29-33-38 48 14 83 63 30 45 41 103 24 130-77 206l-63 11-64 13q-40 4-58 18-25 19-4 54 15 26 68 40H1114l-1-822 284-22q15-16 20-40 10-39 21-185 12-168-9-173l-328-35V686q0-8-32-8l-125-1q-32 0-32 8v38L583 755q-34 7 8 357 5 24 19 41l284 25-4 823H538l60-19 43-50 1-36q-3-21-17-28l-1-9-33-28-36-32q-57-32-83-57-15-43-12-81 5-48 38-72-2 70 47 130 52 64 123 63 30 0 57-25 24-21 36-52 11-27 7-67-4-46-29-56-2-15-19-39-16-23-18-41l3-50q2-32-13-44-4-24-39-50l-52-39q-50-14-76-17l-40-1-37-9q-40-24-40-112 4 27 37 41 27 12 59 11 23-17 30-56-1-20-14-54-12-34-14-53l-2-6-1-2 1-2q0-10 3-21 6-60 1-88-9-46-48-73l-55-36q-33-22-51-41-65-36-92-93-30-63-8-137 5 78 41 92 28 11 45-11l25-38q9-49-3-81-12-35-51-60l-66-39-63-42q-54-47-61-139-6-68-61-104l28-36q27-28 62-49l2 5q6 15 25 32l31 28q21 23 31 77 10 60 21 79 37 64 111 69 45 3 81-15 39-21 51-61 12-42-12-85-24-44-67-54 26-5 77 45 45 45 58 76 18 44-5 86-32 60-35 79l-6 2-6 35q-3 20 1 38 3 15 17 32l20 28q77 29 94 68 10 26 1 71 24 5 54-10l1-5 9-1q9-10 20-14l7-10q15-84-59-135 24-4 61 16l55 37 1 9 5 1 1 9q13 8 18 39 6 31 18 39 16 10 34 7 16-18 22-42 10-36-4-75l-35-67q-26-44-23-90 2-37 24-90 27-22 43-29l53-11 113-24 17-22 17-21q13-22 19-57 12-59-42-117l-17-17h326q12 26 7 57l-7 47-9 1-1 12-76 58-44 32q-29 23-32 41-5 26 30 40 29 13 59 10 31-4 46-21 14-16 17-48 0 26 7 77 0 42-34 61l-66 32q-40 23-41 58-13 12-15 44l-10 44v24q15 35 49 42l81-7q43-20 27-67 31 26 52 74 9 20 2 46-8 29-5 43l7 4 2-1 62-17q37-14 43-38 28-9 26-57-1-32-13-71-11-32-5-67l18-65 9-1 1-9 28-11q16-9 28-7l-16 8q-20 35-9 72 10 33 38 51 29 19 55 10 30-10 42-53 18-65-25-137-35-56-64-126-17-44-12-95 5-51 31-90h11q167-3 251 92" fill="#fff"/></svg>