<?xml version="1.1" encoding="UTF-8"?><svg xmlns="http://www.w3.org/2000/svg" xmlns:xlink="http://www.w3.org/1999/xlink" version="2.0" width="100pt" height="100pt" viewBox="0 0 2000 2000" clip-rule="evenodd" fill-rule="evenodd" preserveAspectRatio="none"><path d="M1042 1093q0-17-12-30-12-12-29-12-17 0-30 12-12 13-12 30 0 17 12 29 13 12 30 12 17 0 29-12 12-12 12-29M971 863q-12 13-12 30 0 17 12 29 13 12 30 12 17 0 29-12 12-12 12-29 0-17-12-30-12-12-29-12-17 0-30 12m-50-97q0-7 27-7l107 1q27 0 27 7v33l280 29q19 5 8 148l-18 157q-4 21-17 35l-243 19 2 812H902l4-813-242-21q-13-15-17-35-35-299-6-305l280-27V766" fill="#fff"/><path d="M1738 1467q27-26 34-59-27-64-272-440L1068 314q-19-29-64-29-25 0-45 10-20 10-29 27l-4 6Q663 714 469 1012q-220 338-242 396 2 29 30 59 32 34 71 34H820v120H328q-89 0-158-71-67-70-62-152 1-29 47-109 79-141 318-502Q719 415 826 263q25-46 73-72 47-26 105-26 51 0 94 22 44 22 70 60 720 1072 724 1151 2 37-17 78-18 40-51 75-68 70-153 70H1160V1501h511q35 0 67-34" fill="#fff" fill-opacity=".8"/></svg>