<?xml version="1.1" encoding="UTF-8"?><svg xmlns="http://www.w3.org/2000/svg" xmlns:xlink="http://www.w3.org/1999/xlink" version="2.0" width="100pt" height="100pt" viewBox="0 0 2000 2000" clip-rule="evenodd" fill-rule="evenodd" preserveAspectRatio="none"><path d="M1657 1712l-15 9q-8 6-6 18l-39-1-40 6 9-10-9-11q-14-13-40-20l-45-2-68-34q-37-18-54-40-129-9-132-143-11 8-13 47-2 31 2 59l25 64q18 39 7 63l60 122q39 88 48 160H1039q-9-21-12-43l-28 43H678q22-101 95-223-4-58 18-112l35-84q-10-13-6-57 3-47-5-65-44-26-84-90 9-63-47-129-61-74-64-125-39-11-46-70L557 933l-17-20-20-17q-26-35-32-112L477 647q-26-66-15-175l28-182-3-1-12-19q-5-25-4-46H439q-14 12-31 12-19 0-32-13-14-14-14-33 0-19 14-32 13-14 32-14 19 0 35 16h36v-3l4-15q3-7 13-10l20 1 19 4q12-8 21-9l24 4q15-11 24-11 12-10 27-4 14 5 19 20l-2 23h36V102L656 82l97 6-27 9 2 38q13 32 33 32 26 0 47-25h788l74 49-66 35-798 8q-19-20-41-18-16 1-32 36l2 42 29 20H654l30-23V224h-9q1 24-22 64l-41 14-3 2q-7 51 25 180 28 112 2 174 21 19 46 67l39 87-6 2q-4-2-5 3l73 70q44 42 85 46l-4-6h6q11-2 14-23l2-29q3-21-8-45l-20-43q-5-18-1-44l10-45-7-5 5-14-8-14q-1-12 13-29l23-21 25-20 25-7q20-10 25-11l49-12q-22 9-33 24l-10 7 33 9 36 2-16 14 39 18q24 12 33 26h-1q42 24 49 37l15 9q-8-1-25-12-15-10-26-9l35 36 29 38-28-5-30-5 14 27-10 1 6 29h-17l-3 26 9 10 27 25 20 28-17-6-17-6-31-4q-1 6 5 17l7 16 4 2-13 2q-4 2-5 14h-5l-8-12q2 22 9 33 3 16 15 32l21 25q33 5 61 32l45 47q57 11 85 62 29 50 15 118 38 61 21 149l45 35q27 20 24 55 8 9 36 30 25 17 33 33 47-5 93 13l77 30q-12 15-12 44l6 51" fill="#fff"/><path d="M1995 1291v76l-282 286-3-16q-17-55-59-87-36-27-97-43l441-216M-4 1541v-55l525 136-400-550 560 386-42-147q60 89 81 132 35 69 10 148-14 46-58 142-10 28-16 77l-11 78-35 111H341q-155 0-249-97-17-15-31-36l366-35L-4 1541m1454-99q-22-34-35-71l-2-58 396-412-274 601q-30-8-47-19-20-14-38-41m-89-347q-37-44-110-65l140-317-30 382m348 606 285-30q-3 79-30 142l-241 114 111 27q-79 45-184 45H1393q9-53-13-137l-40-120-30-70 45 34q97 72 140 91 88 39 159-2 57-34 55-94" fill="#f1f2f2" fill-opacity=".8"/></svg>