<?xml version="1.1" encoding="UTF-8"?><svg xmlns="http://www.w3.org/2000/svg" xmlns:xlink="http://www.w3.org/1999/xlink" version="2.0" width="100pt" height="100pt" viewBox="0 0 2000 2000" clip-rule="evenodd" fill-rule="evenodd" preserveAspectRatio="none"><path d="M932 789q-12 21-12 54v57l-25 27-29 19-1 6-9 1-1 5-9 1q-12 16-26 58-14 40-29 58-47 56-21 132 9 28 31 56l40 50 35 58q19 31 44 50l25 18 1 9 19 15q3 19 14 31l-13-31q-6-18-4-34l17-4-21-36-5-1-10-20-9-31-12-31q-6-10-23-22l-26-19-19-24q-5-10-8-32-17-55-14-74l11-31 13-32q5-21 14-31l29-23q25-18 42-50l31-57q8-13 47-51 34-33 41-54l29-23 26-24q-32 10-103 64l-34 32-2-23q-7-85 9-122-28 36-53 79m775-437q37 3 76 27l44 8-5 3 37 35q-2 10 19 36l30 35q34 49 48 77l-22-27 8 90 1 43-5 46-4-28-4-29q4 17-12 45l-28 37-56 62 21-57 13-25 10-25-18 33-2-15-43 30-46 27-6 9-9 23-13 18-19-2-17-14-36 10-14 1-13 14-21-4-8 5-25 8-15 5-59 8q-12-9-22-53-9-37-41-41-47 129-43 318l-32 48-2-38q9-48 6-86l-14 11q-9-17-30-19l17-32-49 25q-27 17-49 37-46 45-85 108l-34 61 1 21 2 21 10 12 2 21 24 29 25 29q10 5 21 25l24 21 28 17q15 9 19 25l1 29 57 69v14l17 2h63q12 2 20 10l13 17v4l12 18 26 24q27 25 52 28l-7 23q-51 6-101-38l3 13 5 13 23 21q40 32 48 43 12 16 26 72 15 62-3 63-12 1-23-31l-13-41q-8-17-30-36l-41-28q-1 10 16 28l25 41q36 58 17 71l-8 30-21-4q-6-4-9-20l-11-46q-19-51-53-70-5 17 6 46l20 47q12 41-11 29-6-3-13-19l-11-22-5 16q-11 0-22-21l-17-30-42-49q-21-25-24-62-3-19-19-34l-14 9 1 7-5 10-3 13-45-45-44-46-20-21-20-19-17-21q-14-25-21-27-8-18-34-40l-2 26-5 84q-1 49 3 85 19 139 55 238-11 3-28 13l-28 15v5l-7 9-4 12q0 14 9 44v3H420q19-99 26-191-105-76-69-304 65-269 86-379 23-121 119-229 27-46 54-74 68-66 148-128 64-50 167-110 42-24 63-32 36-16 68-17 67-27 195-22 117 4 184 27l111-123q62-67 135-61M509 1792l-20-3 32 33 41 30 27 6 30 4q11 3 26 15l23 16q17 37 60 44l81 2 156-3q-10-7-25-9l-27-5-51-26-59-19-60-12q-19-4-47-24-27-19-46-22l-36-3-37-3-34-10-34-11" fill="#fff"/><path d="M564-5h42q32 89 100 175l50 67q31 40 56 59 32 25 52 7 16-16 18-56 4 18 14 35 12 22 27 23 30 2 56-66 17-47 24-110l6-114 1-20h111q21 99 49 161 23 52 36 69 28 34 66 23l20-10q12-8 20-10 10 9 18 39 6 28 23 38 46 27 92-17l10-30 4-33-8-34-8-32 32 32 20 35q6 23-4 46l-16 43-45 37q-26 23-54 27l-146-7q-8-28-43-46-41-15-58-25-23-13-36-48l-17-55q-2 24 6 78 6 51 2 79l-8 1-1 9-9 1q-19 35-99 46-90 12-114 31l-44 30-53 6q-23-5-56-27l-44-37 16 73q8 49-7 70-34 10-85 68l-37 34-34 35-40 17q-21 5-44-13l-26-30-27-29q34 89 34 138 1 25-24 50-29 28-33 44-20 8-27 37-9 36-17 46l-32 25-36 23 3 5q29 8 40 27l9 1q24 31 19 106-4 71-27 103l-41 58q-25 41-33 72 4-34 35-106 16-32 21-70 2-26-5-36-5-8-28-21L4 1009V890q206 48 216-11l5-1q9-20-5-36l-30-27 39 6q23 2 36-10 20-17 11-69-14-62-60-174-38-88-104-213L22 203q9-32 28-71l88 87q103 85 161 120l62 35q42 19 68 14V295l-5-45q-4-28-1-44l54 65q35 36 72 41 19-68 21-156 1-61-6-161M219 1452l-10-17q-12-26-2-60-5 44 12 77" fill="#fff" fill-opacity=".8"/></svg>