<?xml version="1.1" encoding="UTF-8"?><svg xmlns="http://www.w3.org/2000/svg" xmlns:xlink="http://www.w3.org/1999/xlink" version="2.0" width="100pt" height="100pt" viewBox="0 0 2000 2000" clip-rule="evenodd" fill-rule="evenodd" preserveAspectRatio="none"><path d="M367 1619v-35H834v35H367m1266-35v35H1185v-35h448m113 17q0-67-90-126-87-57-237-93l24-36q183 40 290 107 109 69 109 148 0 125-247 213-247 88-595 88-348 0-595-88-247-88-247-213 0-80 113-150 111-67 299-107l17 36q-154 37-242 94-91 59-91 127 0 110 219 188 219 78 527 78 308 0 527-78 219-78 219-188" fill="#fff"/><path d="M1018 344l-7-76-8-76-9 76q-5 35-7 76v971h31V344M912 108l91-98 88 98 20 1211 48-3 95-12 82-17q35-6 35 5l-1 36q-10 25-64 45-52 19-129 23l-66 1v363l-17 29q-29 28-86 28-57 0-82-18l-14-18V1403q-91 0-179-27-66-21-81-54-15-34 44-27l202 21L912 108" fill="#fff"/></svg>