<?xml version="1.1" encoding="UTF-8"?><svg xmlns="http://www.w3.org/2000/svg" xmlns:xlink="http://www.w3.org/1999/xlink" version="2.0" width="100pt" height="100pt" viewBox="0 0 2000 2000" clip-rule="evenodd" fill-rule="evenodd" preserveAspectRatio="none"><path d="M434 324 552 467l62-115-9-17q-6-21 6-40 12-20 40-7 25 12 35 32 11 21-38 74l-35 73 140-78 7-14q12-17 37-28 27-11 50 8 19 17 19 35-1 21-22 31l-51 9q-29 2-73 22-43 20-50 34-10 17 4 56L965 917l284-379q13-39 4-57-8-14-50-33-44-21-73-22l-52-10q-21-10-22-31 0-18 20-34 22-20 49-8 40 17 45 41l140 79-35-74q-50-53-39-73 10-20 35-32 28-14 41 6 12 19 6 40l-9 17 61 115q233-279 245-308 7-18 1-34l-6-20q4-11 46-26 46-17 67-6 23 12 39 42 15 30 14 60-1 24-55 37l-54 8-222 318q154 90 177 84 24-6 58 12 37 19 11 44-22 21-35 22-30 3-78-39-46-40-90-42l-35 5 63 53q12 13 12 19 2 57-35 62l-37-7q5-54-1-71l-25-24-21-13-335 419 668 860-200-55-559-692-548 685-224 73 665-891L545 626l-21 13q-22 16-26 25-6 16-1 71l-37 7q-37-5-35-62 0-6 13-19l12-12 50-41-51 2q-59 10-105 51-48 42-77 39-14-1-35-22-26-25 10-44 34-18 58-12 23 6 178-85L256 220l-54-8q-54-13-55-37-1-29 14-60 16-30 39-42 21-11 66 5 42 16 46 27l-5 20q-7 16 0 33 8 19 127 166" fill="#fff"/></svg>