<?xml version="1.1" encoding="UTF-8"?><svg xmlns="http://www.w3.org/2000/svg" xmlns:xlink="http://www.w3.org/1999/xlink" version="2.0" width="100pt" height="100pt" viewBox="0 0 2000 2000" clip-rule="evenodd" fill-rule="evenodd" preserveAspectRatio="none"><path d="M1601 1832l194 86-527-761 19-2 36 3q14 4 28-24l10-29-16-17q-15-18-111 27l15-44q17-48 30-66 19-26 6-37l-34-4q-14 3-15 24-1 27-13 39-15 15-24 38l-7 20L757 528l-6-22q-4-23 2-34 7-14 50-34 44-20 73-22l51-9q21-10 22-31 0-18-19-35-23-19-50-8-25 11-37 27l-7 14-140 79 35-73 23-29q22-32 15-45-10-20-35-32-28-13-40 7-12 19-6 40l9 17-62 115L517 310Q398 163 390 144q-7-17 0-33l5-20q-4-11-46-27-45-17-66-6-23 13-39 43-15 30-14 59 1 24 55 38l54 8L561 523l-80 45q-84 44-98 40-24-6-57 11-37 19-11 44 20 21 35 23 29 3 77-39 46-41 90-43l36 5-51 41q-25 22-25 31-1 57 36 62l37-6-2-30q-1-31 3-41 5-16 46-38l457 554-91 12q-15 5-27 30-13 26 21 21l124-22q-41 37-86 61-24 11 2 29 24 17 40 13 24-5 78-77l486 583" fill="#fff"/><path d="M1110 786l-7 25 97 135 79-85 31-156 52-176q-99 44-148 77-55 39-104 180" fill="#fff" fill-opacity=".8"/><path d="M773 1419q47-27 80-85l44-100 8-89L790 994l-30 76q-12 37-34 173l-19 129-29 23-36 82 34-11 97-47" fill="#fff" fill-opacity=".8"/><path d="M1408 797l-29 23-36 82 34-11 96-47q53-30 89-101l47-109q27-60 52-220l52-176q-100 43-148 77-55 39-104 180-12 37-34 173l-19 129" fill="#fff" fill-opacity=".8"/><path d="M292 1761l34-11 97-47q53-30 89-101l46-110q28-59 53-219l51-177q-99 44-148 78-57 40-104 180-12 36-34 173l-19 129-29 23-36 82" fill="#fff" fill-opacity=".8"/><path d="M22 1836q21 40 47 69 25 25 52 42 29-32 53-88l34-83q28-59 53-219l51-177q-99 44-148 78-57 40-104 180-15 46-38 198" fill="#fff" fill-opacity=".8"/><path d="M1823 560q53-30 89-101l47-109 19-57q-14-121-93-197l-15-14q-31 48-59 129-12 37-34 173l-19 129-29 24-36 82 34-12q44-17 96-47" fill="#fff" fill-opacity=".8"/></svg>