<?xml version="1.1" encoding="UTF-8"?><svg xmlns="http://www.w3.org/2000/svg" xmlns:xlink="http://www.w3.org/1999/xlink" version="2.0" width="100pt" height="100pt" viewBox="0 0 2000 2000" clip-rule="evenodd" fill-rule="evenodd" preserveAspectRatio="none"><path d="M1003 973q-267-21-376-46-253-58-313-193-3-72 3-146 3 142 314 193l375 23-3 169" fill="url(#A)"/><path d="M1006 804l370-16q309-45 316-186 3 83-3 146-64 132-314 186-106 23-372 39l3-169" fill="url(#B)"/><path d="M1013 1796l-166-21q-110-25-138-85-2-36 1-65 2 64 139 85l166 11-2 75" fill="url(#C)"/><path d="M1015 1721l163-7q137-20 140-83l-1 65q-28 58-139 82l-165 18 2-75" fill="url(#D)"/><path d="M1013 1400l-251-31q-169-39-210-129-2-57 2-97 2 95 211 128l250 16-2 113" fill="url(#E)"/><path d="M1015 1287l248-11q208-30 212-124 3 45-2 97-41 89-210 125l-250 26 2-113" fill="url(#F)"/><path d="M317 586q64-126 320-175l377-35-3 159q-686-6-697 189-3-71 3-138" fill="url(#G)"/><path d="M1692 600q5 66-3 137-3-196-678-202l3-159q262 19 370 42 248 54 308 182" fill="url(#H)"/><path d="M1388 471l-57 124-242 704-47-99 294-826 106-57 46 109-294 902-64 26q-10 1-23-20l251-730 30-133" fill="#fff" fill-opacity=".8"/><path d="M466 458l39-112 109 51 364 863q-20 39-58 63L632 618 567 497l19 66 20 66 187 458-5-12 106 261-40 6-47-7L466 458" fill="#fff" fill-opacity=".8"/><path d="M996 328l-8 76v971h32V404l-16-152-8 76M913 168l91-98 88 98 20 1211 48-3 95-12 83-17q35-6 35 5l-1 36q-10 25-64 45-52 19-129 23l-67 1v363l-17 29q-28 28-85 28-57 0-83-18l-14-18V1463q-91 0-178-27-66-21-81-54-15-34 44-27l89 12 113 9L913 168" fill="#fff"/><path d="M709 1685l1-61q29-56 142-77l166-15-1 70q-303-3-308 83" fill="url(#I)"/><path d="M1318 1630l-1 61q-1-86-300-89l1-70 164 18q110 24 136 80" fill="url(#J)"/><path d="M554 1141q44-84 214-117l253-24-2 107q-459-4-467 126-2-54 2-92" fill="url(#K)"/><path d="M1473 1242q-1-130-454-135l2-107q173 13 248 29 167 36 206 121 3 42-2 92" fill="url(#L)"/><defs><linearGradient id="A" x1="-16384" x2="16384" gradientUnits="userSpaceOnUse" gradientTransform="matrix(.02 0 0-.02 659 781)"><stop offset="0" stop-color="#fff" stop-opacity=".97"/><stop offset="1" stop-color="#e2e3e4" stop-opacity="0"/></linearGradient><linearGradient id="B" x1="-16384" x2="16384" gradientUnits="userSpaceOnUse" gradientTransform="matrix(.02 0 0-.02 1348 788)"><stop offset="0" stop-color="#d5d5d7" stop-opacity="0"/><stop offset="1" stop-color="#fff" stop-opacity=".96"/><stop offset="1" stop-color="#e1e2e2"/></linearGradient><linearGradient id="C" x1="-16384" x2="16384" gradientUnits="userSpaceOnUse" gradientTransform="matrix(.01 0 0-.01 862 1710)"><stop offset="0" stop-color="#fff" stop-opacity=".97"/><stop offset="1" stop-color="#e2e3e4" stop-opacity="0"/></linearGradient><linearGradient id="D" x1="-16384" x2="16384" gradientUnits="userSpaceOnUse" gradientTransform="matrix(.01 0 0-.01 1166 1713)"><stop offset="0" stop-color="#d5d5d7" stop-opacity="0"/><stop offset="1" stop-color="#fff" stop-opacity=".96"/><stop offset="1" stop-color="#e1e2e2"/></linearGradient><linearGradient id="E" x1="-16384" x2="16384" gradientUnits="userSpaceOnUse" gradientTransform="matrix(.01 0 0-.02 783 1271)"><stop offset="0" stop-color="#fff" stop-opacity=".97"/><stop offset="1" stop-color="#e2e3e4" stop-opacity="0"/></linearGradient><linearGradient id="F" x1="-16384" x2="16384" gradientUnits="userSpaceOnUse" gradientTransform="matrix(.01 0 0-.02 1245 1276)"><stop offset="0" stop-color="#d5d5d7" stop-opacity="0"/><stop offset="1" stop-color="#fff" stop-opacity=".96"/><stop offset="1" stop-color="#e1e2e2"/></linearGradient><linearGradient id="G" x1="-16384" x2="16384" gradientUnits="userSpaceOnUse" gradientTransform="matrix(.02 0 0-.02 663 550)"><stop offset="0" stop-color="#fff" stop-opacity=".97"/><stop offset="1" stop-color="#e2e3e4" stop-opacity="0"/></linearGradient><linearGradient id="H" x1="-16384" x2="16384" gradientUnits="userSpaceOnUse" gradientTransform="matrix(.02 0 0-.02 1352 557)"><stop offset="0" stop-color="#d5d5d7" stop-opacity="0"/><stop offset="1" stop-color="#fff" stop-opacity=".96"/><stop offset="1" stop-color="#e1e2e2"/></linearGradient><linearGradient id="I" x1="-16384" x2="16384" gradientUnits="userSpaceOnUse" gradientTransform="matrix(.01 0 0-.01 863 1608)"><stop offset="0" stop-color="#fff" stop-opacity=".97"/><stop offset="1" stop-color="#e2e3e4" stop-opacity="0"/></linearGradient><linearGradient id="J" x1="-16384" x2="16384" gradientUnits="userSpaceOnUse" gradientTransform="matrix(.01 0 0-.01 1168 1611)"><stop offset="0" stop-color="#d5d5d7" stop-opacity="0"/><stop offset="1" stop-color="#fff" stop-opacity=".96"/><stop offset="1" stop-color="#e1e2e2"/></linearGradient><linearGradient id="K" x1="-16384" x2="16384" gradientUnits="userSpaceOnUse" gradientTransform="matrix(.01 0 0-.02 786 1117)"><stop offset="0" stop-color="#fff" stop-opacity=".97"/><stop offset="1" stop-color="#e2e3e4" stop-opacity="0"/></linearGradient><linearGradient id="L" x1="-16384" x2="16384" gradientUnits="userSpaceOnUse" gradientTransform="matrix(.01 0 0-.02 1248 1121)"><stop offset="0" stop-color="#d5d5d7" stop-opacity="0"/><stop offset="1" stop-color="#fff" stop-opacity=".96"/><stop offset="1" stop-color="#e1e2e2"/></linearGradient></defs></svg>