<?xml version="1.1" encoding="UTF-8"?><svg xmlns="http://www.w3.org/2000/svg" xmlns:xlink="http://www.w3.org/1999/xlink" version="2.0" width="100pt" height="100pt" viewBox="0 0 2000 2000" clip-rule="evenodd" fill-rule="evenodd" preserveAspectRatio="none"><path d="M983 268q-5 35-7 76v971h31V344l-7-76-8-76-9 76M901 108l91-98 88 98 20 1211 48-3 95-12 82-17q35-6 35 5l-1 36q-10 25-64 45-52 19-129 23l-66 1v363l-17 29q-29 28-86 28-57 0-82-18l-14-18V1403q-91 0-179-27-66-21-81-54-15-34 44-27l89 12 113 9L901 108" fill="#fff"/><path d="M828 1727l-80-1-184 87 173 82 506 1 178-84-178-84-69-1v-85h47l188-89-168-80h-67v-4l44-1q57-8 118-38l172 82 493 1v80l-467-1-187 89 168 80 472 1q-9 37-33 80l-406-1-287 135-543-1-248-118-417-2q-21-31-36-80l426 1 184-86-172-82-455-2v-80l429 2 209-99q37 19 109 43H735l-178 84 177 85h95l-1 86" fill="#fff" fill-opacity=".8"/></svg>