<?xml version="1.1" encoding="UTF-8"?><svg xmlns="http://www.w3.org/2000/svg" xmlns:xlink="http://www.w3.org/1999/xlink" version="2.0" width="100pt" height="100pt" viewBox="0 0 2000 2000" clip-rule="evenodd" fill-rule="evenodd" preserveAspectRatio="none"><path d="M650 1862q49-119 67-155l202-394 135-277 52 28-3-55-69-42L928 835q-16-17-393-107L160 642 4 598V353Q4 188 82 99q63-70 173-87L498 141q486 219 530 235l95 18 63 6 239-78 94 3 36-48q43-52 74-67l75-2 38 16 26 18q27 22 35 42 8 18 0 54l-14 54-16 41-7 41q2 13 13 19l19 12 5-2 1 3 5-1 35 22q27 15 34 22 14 13 17 35l3 45q-1 48-19 62-17 14-47 9l-27-9 16 29q15 36 7 74-8 38-65 49l-55 3 7 35q5 41-9 70-14 29-70 38l-54 4 12 47-3 16q-5 20-18 34-12 14-99 20l-85 2-73 130-34-9-156 284-167 301-99 172H597l53-128m990-486q13 10 22 34 8 20 7 42-2 27-21 36-51 23-70-48-19-71 35-76v-1q19 7 27 13M1455 609l4-23 5-22 63-63q10-40 3-56l-4-10-12-19-15-19-84-4-38-4-21-1h-16q-29 3-89 30-58 26-90 28 105 4 209 61-7 20-57 55-48 34-51 61l-14 15q-8 12-8 19 0 9 12 20l14 16q8 18-8 39l-33 32q-19 56 3 103-24 7-82 36-52 21-83 12l13 8q14 5 50 44 32 35 59 36l32 36 25-5 7-2v-1l-2-20q41-22 43-99l2-26q2-11 13-21l26-18 22-22q9-14 11-48 2-31 15-45 7-8 27-18l26-17 13-21q8-12 21-17l-6-25-5-25M324 905q61-54 107 28 44 78 22 136l-25 15-53-24q-30-15-45-38-15-25-20-59-5-41 14-58m406 242q38 19 19 49-19 30-56 28l-25-5q-24-27 3-57 28-30 59-15m883 216-13-5 13 1v4" fill="#fff"/><path d="M650 1862l-53 128H345l-42-2q9-39-16-122l-34-101h15q4-21-5-53l-18-50q-6-18-10-48l-7-49q-12-60-59-168-50-115-63-167l101 170q56 97 89 175l34 81q28 56 55 59-1-18 4-41l10-38 7 9q48-7 62-66 7-28 7-108 2-96-10-169-1-65-10-93 41 96 43 247l1 255 16 1 22 41q14 27 25 39l23-62q15-50 21-65l17 37q15 24 26 13 6 32 0 87v38l1 22m210 128 99-172 47 3q43-6 68-42 35-9 72-66l54-90 46-54 42-56-65 146q-37 87-50 150 30 32 119 0l125-57 150-73q90-41 157-51-168 77-248 130-141 95-152 145 98 48 158 10-23 21-48 21l-1 9q-37 7-74 40l21 4 22 1-6 2H860m357-951-32-36q-27-1-59-36-36-39-50-44l-13-8q31 9 83-12 58-29 82-36-22-47-3-103l33-32q16-21 8-39l-14-16q-12-11-12-20 0-7 8-19l14-15q3-27 51-61 50-35 57-55-104-57-209-61 32-2 90-28 60-27 89-30h16l21 1 38 4 84 4 15 19 12 19 4 10q7 16-3 56l-63 63-5 22-4 23q1 18 11 50-13 5-21 17l-13 21-26 17q-20 10-27 18-13 14-15 45-2 34-11 48l-22 22-26 18q-11 10-13 21l-2 26q-2 77-43 99l2 20v1l-7 2-9 2-16 3" fill="#fff" fill-opacity=".8"/></svg>