<?xml version="1.1" encoding="UTF-8"?><svg xmlns="http://www.w3.org/2000/svg" xmlns:xlink="http://www.w3.org/1999/xlink" version="2.0" width="100pt" height="100pt" viewBox="0 0 2000 2000" clip-rule="evenodd" fill-rule="evenodd" preserveAspectRatio="none"><path d="M1642 491q0 12-8 20l30 4q3-33-20-44l-2 20m91 59q6 13 41 43 28 25 27 45h15q-1 11-9 9l-16 1q0 7 6 12l9 8q-10 18-25 54-15 28-39 29-1 12 6 12l9 3-30 31q-16 19-19 42 9 4 9-5 1-10 6-9 8 11-7 29l-28 30-29 47q-19 27-39 31l5-20q-39 24-79 69-68-55-98-98 23-39 10-34 5-46 60-106 60-67 72-105-74 97-172 196-12-9-27-37l-27-37q16-74 58-132 28-38 90-93V540l13-8 16-7-4-13-1-16q21 5 38-23l26-46q56 37 88 84l-3 19-6 15q4 5 12-9 9-16 22-11 2 11-11 19-13 6-9 21l19-9q11-6 21-6m-64 29q12-17-5-24l-17 27q-11 16 2 22l20-25m5 309 8-13 6-16q-9 0-16 12-7 12 2 17m31 309q13 10 22 12v3q12 1 15 7v16l1 38q1 17-16 38l-29 32-47 51-54 41-43 19q-27 11-41 19l-92 47 10-49 6-49 3-17-6-18-19-42-44-109-35-86-46-78-25-37q-16-26-14-40-5-4-16-6l-16-4 46-8 45-12 47-10 48-4 11 5 11 8q9 16 35 37l41 32 64 58 117 90 21 16M1351 411l-21 60-34 142q-22 84-49 118-53 67-207 78-151 9-235-43 25 45 148 51l191-7 125-22q89-6 95 51l-1 18-13 12 6 8q6 4 4 11 8 5 16-4 6-6 8 0 2 9-12 10-13 1-8 14-108 23-446 34L751 932q-101-17-108-58-8-44 40-85 35-30 83-48 8 2 16 11l13 14-40-77q-26-53-38-90-10 1-16-5-8-8-19-10l13-9 12-10q-40-107-72-260-17-83-51-280l117 7q55 17 79 56 91 3 113 69-55 47-64 60-33 45-29 117 4 68 16 133 3 86 38 146 21 53 44 64 11 6 32 8 55 21 132 1 34-4 62-22l3-1q57-29 81-89 16-41 23-122l1-95q-4-52-22-88-24-76-96-87 5-33 38-51 12-6 65-23 14-48 79-69 52-17 122-14l-24 161-25 167q-3 21-18 58m325 1127q51-3 82 10 59 24 79 37 34 22 58 63 10 17 11 39 2 26 7 41 9 30-34 74-44 44-92 52-51 9-196 61-124 45-198 46 27-39 46-105l28-115q32-136-42-165l12 2 39-9 41-6q48-15 75-17l84-8M920 312q43-54 103-54 61 0 104 54 43 55 43 131 0 77-43 131-43 54-104 54-60 0-103-54-43-54-43-131 0-76 43-131m430 567q-23-2-30 9 6 1 14 8 8 7 16 7l2-12-2-12m-74 9q-1 23 20 25 18-7 14-29l-15 4h-19m-153 16q-6 2 1 4l8 5 7 5q6-9 5-25-10-4-10 6l-5 9q0-6-6-4m63 6q2 8-3 13l88-10q1-7-7-12l-8-13-44 5q-28 1-39 10 10-1 13 7m-28-184-8 12q-4 8-2 18 13 4 19-13 7-16-9-17m57 245-38 52q-54 53-137 58-83 4-155-47l-55-53 385-10M513 424l7 3q19 90 52 168 27 64 76 146-16 29-44 39 3 15-2 28l-8 22q-27-4-51-33-28-34-42-41l68 137q-27 52-93 89l-27-27q-18-14-12-27H412q-6-2-6 12l2 11q-18-6-32-29l-28-48q-32-48-47-91-20-56-21-125 30-53 110-121 88-75 116-115l7 2m12 460V864q-18-2-19 10l8 6q4 6 11 4M293 1550l64-4 123 17 122 20-5 3-31 95q-17 56-16 102 0 48 12 95 14 57 41 88H506l-69-16q-34-8-97-37-67-32-97-40-36-10-69-56-34-47-69-57 19-33 15-55-6-30 3-61l6-3q17-17 50-35l56-30q33-20 58-26m424-212q0-34 10-59l36-65 99 89q64 41 123 11 38-19 64-20l67 24q41 15 70 9 59-12 96-60l13 24-8 67-78 124q-93 124-169 129-84 5-208-113-115-110-115-160M588 964l11-8 11-5 48 4 47 10 46 12 45 8-16 4-16 6q2 13-15 40l-24 37-46 78-35 86-63 151q-6 11-6 18l2 17 7 49 10 49-92-47-41-19-43-19-54-41-47-51-29-32q-17-21-16-38l1-38v-16q3-6 15-7v-3l42-28 118-90 64-58 41-32 35-37m194 559q39 50 102 90 63 38 124 50l89 10q24 0 38-8l29-20q11-25 51-76l27-32q20-20 32-23 10 32 54 68l66 49q-4 35-31 91l-45 87q-16 33-33 84l-28 85q-62 3-166-2l-166-5-60 7q-37 4-52-10-14-14-31-48l-28-52q-39-42-42-62-14-11-26-40l-16-46-19-38q-10-23-13-38l41-31 33-38 29-34q19-22 34-28l7 10" fill="#fff"/><path d="M1642 491l2-20q23 11 20 44l-30-4q8-8 8-20m32 397q-9-5-2-17 7-12 16-12l-6 16-8 13m-5-309-20 25q-13-6-2-22l17-27q17 7 5 24M1158 726q16 1 9 17-6 17-19 13-2-10 2-18l8-12m28 184q-3-8-13-7 11-9 39-10l44-5 8 13q8 5 7 12l-88 10q5-5 3-13m-63-6q6-2 6 4l5-9q0-10 10-6 1 16-5 25l-7-5-8-5q-7-2-1-4m153-16h19l15-4q4 22-14 29-21-2-20-25m74-9 2 12-2 12q-8 0-16-7-8-7-14-8 7-11 30-9m-825 5q-7 2-11-4l-8-6q1-12 19-10v20" fill="#373535"/></svg>