<?xml version="1.1" encoding="UTF-8"?><svg xmlns="http://www.w3.org/2000/svg" xmlns:xlink="http://www.w3.org/1999/xlink" version="2.0" width="100pt" height="100pt" viewBox="0 0 2000 2000" clip-rule="evenodd" fill-rule="evenodd" preserveAspectRatio="none"><path d="M659 242l-65 2-64 6-122 22 54-33q31-15 67-27 39-14 77-19l89-8h9l78 4 67 13q32 9 54 21 25 12 36 28l1 1h1l2 2 56-13 18 12-72 17 26 18 22 1 13 3 8 5 4 6-1 3-2 2-4 3-8 3h-2l-2 1h-2l-2 1-40 9-61-43-75 17-17-13 57-13-43-14-102-15-55-2" fill="#fff"/><path d="M1106 446l-4-4-63 16-20-15 79-21-30-21h-6l-17-1-14-3-9-5-4-7 1-3 3-3 4-3 7-3h2l2-1h3l2-1 41-10 68 48 76-20 21 15-58 15 52 17 57 12 124 9 71-3 69-7 116-27-33 40q-26 22-55 37-33 17-78 27l-103 11h-10l-96-6-85-19q-42-13-68-28-28-16-45-36" fill="#fff"/><path d="M1161 115l79 14q39 8 71 20 31 10 55 26 23 15 29 33 6 17-1 32-7 17-27 30-19 13-50 24l-73 17h-2l-2 1h-2l-2 1 38 24-31 8-49-31-45 11 1 3-2 7-7 5-12 4-22 1-12-2-6-3v1l-2-2h-1l-2-1-2-2-25-17 105-26-45-29 30-7 35 22q40-17 56-41 15-20 8-45-8-23-30-42-20-20-55-36" fill="#fff"/><path d="M886 348l12-4 22-1 7 1 11 4 2 1 2 2h2l1 1 24 17-113 29 45 34-35 9-34-26q-50 21-74 50-24 29-24 61-1 30 20 66 20 32 60 62l-99-25q-50-16-83-34-36-19-54-41-19-24-16-49 3-23 20-43 20-22 45-37 26-15 65-28 35-11 82-19h5l2-1h3l-33-25 33-9 42 32 49-12v-3l3-6 8-6" fill="#fff"/><path d="M443 709Q325 553 388 400l93 143Q600 687 727 693q361 16 510 3 367-33 428-198 14-39 25-38 11 2 13 37 7 86-31 215-64 78-204 178-173 123-321 164-14 4-57 43-45 39-33 41 252-61 341-118l117-93q82-74 113-98-32 71-80 135-28 36-99 92l-124 95q-144 117-97 199 24 43 71 80l86 55-22 29-71 80q-43 38-111 62-11 4-28 31-17 27-5 23 94-32 153-70 89-56 117-134 38 26 54 51 19 32 13 72-13 86-309 175-148 45-294 72 85-54 154-118l77 12 75-7q11-3-12-11l-36-8-79-11q68-71 61-116-7-46-146-137-159-105-194-153l153 12 150-16q14-3-31-11l-59-6q-56 13-120-2-40-9-115-39l-3-1q-5-42 34-121 32-66 4-113-15-25-117-104-123-93-181-154l107 42q66 26 109 29 93 22 122 20 15-1-43-41-58-40-78-41l-93-21-92-29-86-22" fill="#fff"/><path d="M862 190q59-47 184-58 122-10 132 22 8 24-12 41l-21 12-50-11-68-13-165 7" fill="#fff" fill-opacity=".8"/><path d="M1568 306q62 77 32 104-24 21-50 19l-22-7q-13-78-22-96-10-21-44-68l-32-42q75 11 138 90" fill="#fff" fill-opacity=".8"/><path d="M453 375q-28-84 6-98 27-11 48 0l16 13-6 37q-6 40-5 51 2 33 29 116-60-32-88-119" fill="#fff" fill-opacity=".8"/><path d="M1222 577q-73 48-226 55-148 7-159-28-9-26 16-43l26-12 142 29 121 1 80-2" fill="#fff" fill-opacity=".8"/></svg>