<?xml version="1.1" encoding="UTF-8"?><svg xmlns="http://www.w3.org/2000/svg" xmlns:xlink="http://www.w3.org/1999/xlink" version="2.0" width="100pt" height="100pt" viewBox="0 0 2000 2000" clip-rule="evenodd" fill-rule="evenodd" preserveAspectRatio="none"><path d="M1522 1727q-33-17-80-33l-127-44q-28-12-120-56l-122-54-377-150q-140-53-260-85l69 9 204 8q-11-25-45-42l21 3 79 10 115 33 116 43q55 20 243 114 117 58 197 83l-104-28q51 21 177 122 114 91 187 109-28 0-107-27-39-13-66-15l39 24q-39 0-72-22l33-2" fill="#fff" fill-opacity=".8"/><path d="M789 227q-30 29-67 80l-65 93Q309 897 6 1460V1211q29-53 65-111Q298 732 528 440 728 187 825 119q70-49 188-83l104-23L682 689Q208 1432 18 1769q-5-15-7-69l-3-72q49-83 66-131 11-5 25-36l25-52L516 754Q746 381 941 111q-15 5-28 21l-25 29-50 33-49 33" fill="#fff"/><path d="M1117 1763l81-68q-37 88 3 199 20 55 47 93H1124q-11-27-17-68-13-83 10-156" fill="#fff"/><path d="M1652 722q-118 115-351 481l43-144q43-144 39-146 95-163 187-252 90-87 211-136 84-34 207-66l2 54q-221 96-338 209" fill="#fff"/><path d="M1743 138l97-41-173 150q-187 181-259 337-72 156-135 471-32 158-49 284l-35-14v1q-26 1-61-22-38-24-58-26l-1-5q-19-2-52-19l-53-28-50-25-54-18-14-8-16-8q155 28 242 52l-23-18-22-23-29-21-29-20q88 13 162 34-15-15-16-32l23-4q46-231 111-412 93-261 209-370 156-146 285-215" fill="#fff"/><path d="M919 1655l44 24q13-1 32 9l30 14 28 9q18 6 15 12l-9 6q1 34-14 76l-32 73q-9 22-24 70l-4 35q-67 10-146 1l40-70q23-42 31-77 6-26-12-39l-41-21-79-50q-44-4-99-52l82 9 82 5q-12-8-46-19-37-12-51-20l-76-37-80-32q-52-22-69-43 104 12 245 57 44 13 103 40l50 20" fill="#fff"/></svg>