<?xml version="1.1" encoding="UTF-8"?><svg xmlns="http://www.w3.org/2000/svg" xmlns:xlink="http://www.w3.org/1999/xlink" version="2.0" width="100pt" height="100pt" viewBox="0 0 2000 2000" clip-rule="evenodd" fill-rule="evenodd" preserveAspectRatio="none"><path d="M989 1001Q766 768 691 664 509 417 551 264q47-58 105-112-98 113 142 402 101 119 314 317L989 1001" fill="url(#A)"/><path d="M1112 871q205 190 337 284 304 212 411 108-48 60-106 112-149 52-409-107-110-67-356-267l123-130" fill="url(#B)"/><path d="M658 150q146-46 405 120 113 72 358 274L1306 666Q707 112 559 256q45-57 99-106" fill="url(#C)"/><path d="M1718 874q181 241 143 388-43 54-99 105 135-155-456-701l115-122q218 225 297 330" fill="url(#D)"/><path d="M957 235l99 91-121-45-51 149 1-159-152 29 129-81-50-105 94 77 105-60-54 104" fill="#fff"/><path d="M1573 591l128-46-86 112 74 121-113-74-114 136 57-171-184-24 181-35-33-148 90 129" fill="#fff"/><path d="M1705 1111l-5-68 43 56 68-21-51 46 52 72-76-49-36 85 7-91-76-3 74-27" fill="#fff"/><path d="M1507 135l194-86-526 761 54-1q14-4 28 24l10 29-15 17q-15 18-111-27l15 44q17 48 29 66 19 26 6 37l-33 4q-15-3-16-24-2-28-13-39-14-15-24-38l-7-20-435 557-5 22q-5 23 1 34 8 14 50 34 44 20 73 22l52 9q21 10 22 31 0 18-19 35-23 19-50 8-40-18-45-41l-140-79 35 73 24 29q22 32 15 45-10 20-35 32-28 13-41-7-12-19-6-40l9-17-61-115q-233 279-245 309-7 18-1 33l6 20q-4 11-46 27-46 17-67 6-23-13-38-43-16-30-15-59 1-24 55-38l54-8 222-317-80-45q-83-44-97-40-23 7-58-11-37-19-11-44 21-21 36-23 29-3 77 39 46 41 90 43l35-5-50-41q-25-22-25-31-2-57 35-62l37 6-2 30q-1 31 3 41 6 16 46 38L961 785l-38-4-53-8q-15-5-28-30-13-26 21-21l125 22-26-21-61-40q-23-11 2-29 24-17 40-13 16 3 49 40l30 37 485-583" fill="#fff"/><defs><linearGradient id="A" x1="-16384" x2="16384" gradientUnits="userSpaceOnUse" gradientTransform="matrix(.02.02.02-.02 822 576)"><stop offset="0" stop-color="#fff" stop-opacity=".97"/><stop offset="1" stop-color="#e2e3e4" stop-opacity="0"/></linearGradient><linearGradient id="B" x1="-16384" x2="16384" gradientUnits="userSpaceOnUse" gradientTransform="matrix(.02.02.02-.02 1425 1133)"><stop offset="0" stop-color="#d5d5d7" stop-opacity="0"/><stop offset="1" stop-color="#fff" stop-opacity=".96"/><stop offset="1" stop-color="#e1e2e2"/></linearGradient><linearGradient id="C" x1="-16384" x2="16384" gradientUnits="userSpaceOnUse" gradientTransform="matrix(.02.02.02-.02 989 399)"><stop offset="0" stop-color="#fff" stop-opacity=".97"/><stop offset="1" stop-color="#e2e3e4" stop-opacity="0"/></linearGradient><linearGradient id="D" x1="-16384" x2="16384" gradientUnits="userSpaceOnUse" gradientTransform="matrix(.02.02.02-.02 1592 956)"><stop offset="0" stop-color="#d5d5d7" stop-opacity="0"/><stop offset="1" stop-color="#fff" stop-opacity=".96"/><stop offset="1" stop-color="#e1e2e2"/></linearGradient></defs></svg>