<?xml version="1.1" encoding="UTF-8"?><svg xmlns="http://www.w3.org/2000/svg" xmlns:xlink="http://www.w3.org/1999/xlink" version="2.0" width="100pt" height="100pt" viewBox="0 0 2000 2000" clip-rule="evenodd" fill-rule="evenodd" preserveAspectRatio="none"><path d="M1339 1352l-46 50-130 117q-221 178-449 229-165 38-411-24-124-31-214-69 87 27 211 32 247 10 429-98 198-116 205-188 2-23-15-38l-17-11h437" fill="#fff" fill-opacity=".8"/><path d="M168 1216v20h963l150-10-150-10H168m-61-163q20-42 54-52 33-10 26 28l-12 58q-11 60-9 72l1198 9 97 58q-48 29-97 57L163 1296l3 31 12 61 17 53q6 22-5 22H155q-26-7-45-41-19-34-23-84l-1-42H-2V1168H80q0-59 27-115" fill="#fff"/><path d="M1143 129l29-61 127-22 42 14 52-7 49 24q54 29 75 58 34 45 59 116l74-16 35 63 110 61 71 55 65 67 67 144v954l-34-26q-60-34-86-41-18-4-65 0l-65-5q-11-5-26-21l-24-26-45-31-20-14-21-13-1-4-11-6 23 37 23 41 59 76q16 20 42 21l52-5 54 3 49 17q54 22 77 20l19-8v60q0 156-96 249-95 97-249 97H1279l-196-9 42-182 292-287 14-78 101-77-92-290q41-28 55-30h24q8 0 12-14l6-24 8-22 51-78 25-40 31-38q-38 14-64 46l-24 29-9 17-13 15q-15 12-38 15l-38 5-80 23-191 28-47-28L914 685l-49-21-69-107 9-45 3-2-17-26 1-1-5-14-5-66q-9-46-5-65 2-9 11-27l11-29 4-22q4-12 12-14-4-7 2-25 6-19 16-18l11 9 7 13 9 1q48 46 62 91 3-11 13-14 10-3 19 4-13 28 2 65 17 42 11 66l5 2 23 7 86 135 133 22 73-24 3-33h-5V534q3-17 20-47l30-55q14-30 32-45l44-33 53-37 56-28h-1q-95 25-131 42l-21 12-22 11-16 4-13 8-18 27-19 23q-17 34-16 49l8 25 11 20 3 24q-3 7-1 13l-34 1-34-90-50-24-38-111-48 13-34-56 48-124 49-27" fill="#fff"/></svg>