<?xml version="1.1" encoding="UTF-8"?><svg xmlns="http://www.w3.org/2000/svg" xmlns:xlink="http://www.w3.org/1999/xlink" version="2.0" width="100pt" height="100pt" viewBox="0 0 2000 2000" clip-rule="evenodd" fill-rule="evenodd" preserveAspectRatio="none"><path d="M1288 311l274-32 240-11-194-90 310 47L1788 71l208 157V348l-708-37" fill="#fff" fill-opacity=".8"/><path d="M1288 610l708-36V694L1788 850l130-153-310 47 194-90-240-12-274-32" fill="#fff" fill-opacity=".8"/><path d="M519 1056q-132-53-228-113 93 44 228 63 269 38 477-87 225-136 293-226 21-28 24-48l-1-15 330 45-49 61q-63 73-137 138-236 209-489 255-184 33-448-73" fill="#fff" fill-opacity=".8"/><path d="M127 54q47-21 100-17l64 16q12 2 44 17 41 19 47 36 6 16 2 94-4 80 0 94 6 21-5 48l-21 33-24 16q-16 12-36 38-19 27-46 26l-23-6v15q4 17 23 24 76 27 124 31 94 8 186 0l214-27 138-29 153-30 252-38 39 38h50l2-88 66 46 520 7v61l-520-8v29l520 3v56H1482l-70 55-4-79h-39l-29 20q-35 19-64 11l-51-17-37 1q-125 58-249 86L720 670q-148 36-189 31-51-6-123 14-76 22-110 56-29 28-65 151l-47 163q-31 84-54 169-7 25 120 99l179 101 105 70q57 45 69 85 10 31-13 164-17 104-46 223H346q5-90 12-115 10-37 6-94l-6-50Q58 1601 8 1574l-12-5V374l16 5q-6-11 26-38 31-26 21-77-18-59-20-87l2-26q21-37 43-60l43-37" fill="#fff"/></svg>