<?xml version="1.1" encoding="UTF-8"?><svg xmlns="http://www.w3.org/2000/svg" xmlns:xlink="http://www.w3.org/1999/xlink" version="2.0" width="100pt" height="100pt" viewBox="0 0 2000 2000" clip-rule="evenodd" fill-rule="evenodd" preserveAspectRatio="none"><path d="M675 1208q8-4 2-7l-5-4q11-22 42-19l-50 38q-20 8 11-8" fill="#fff"/><path d="M549 1118l16 1-15 8q-2 1-1-9" fill="#fff"/><path d="M879 1245l20-5-22 18-24 17q25-18 26-30" fill="#fff"/><path d="M1027 1512l15-1-24 7q-4-2 9-6" fill="#fff"/><path d="M1072 647l-13 19-25 8q-27-25 38-27" fill="#fff"/><path d="M605 506l-8 7-6-1q15-15 14-6" fill="#fff"/><path d="M540 460q-22-20 29-20-3 6-3 13l-26 7" fill="#fff"/><path d="M369 1148l1-1q13-15 8-4-5 10-9 5" fill="#fff"/><path d="M421 899q11 6 5 12l-25 11q19-13 20-23" fill="#fff"/><path d="M822 1558q6 1 1 7l-10 8q-5-9 9-15" fill="#fff"/><path d="M1453 527q-14-12 20-14l-2 10-18 4" fill="#fff"/><path d="M1371 832q7 4 3 8l-17 8 14-16" fill="#fff"/><path d="M1119 734q-7 11-18 9l10-12q9-7 8 3" fill="#fff"/><path d="M1547 1046q10-5-19-6-17-1 46-15l-31 25q-8 3 4-4" fill="#fff"/><path d="M1459 984q14-13 7 2-8 14-7-2" fill="#fff"/><path d="M1048 1542l-2-12 21 1q-11 6-19 11" fill="#fff"/><path d="M1210 1648l12-18q15-16 38-22-38 41-68 51l18-11" fill="#fff"/><path d="M1285 1143q3-4 15-5l11-8q1-14-28-8l-31 10q-9 5 18 18 26 14 27 3-3-10-12-10m90-92-13-4q-6-3-12 12l16 1q31-17 9-9m-48-230 4 8 2 8q14-3 18-14 4-12-1-11-13 3-23 9m53-50q2-3-6-3h-8q-5 3-4 9l5 9 13-15m270 203q18 3 17-10l-13 1q-10 5-4 9m-81-202 7 7 11 7q-5-4 14-15 1-8-15-4l-17 5M1438 494q17-8 9-14-4-10-14 3l-7 11q-6 10 12 0m15 13q-16 8-34 22-25 19-19 27 5 7 30-8 4 5-22 44-27 43-20 70 7 24 29 61 20 33 23 58-18 28-48 20l-36-5q-2 3 3 7 4 5 8 2l-2 11 10 2-23 24-21 20q-7-14-12-7-10 17-9 76l3 84q13-12 12-5-1 11 10 6-8 26-6 28l11-8q18-19 26-9l5-12h-1l7-14-11-2 3-2q17-8 11-15l-9 1-10 7 5-10q1-6-7-1 8-14 22-19 7-2 15-43l18 36q12 20 26 26l-7 10-1 13 6-1q4-3 5 0-13 2-12 13 8 1 14-6 4 50 36 42-12 5-14 16l24-1 26-11-32 22q0 7 12 0 13-9 17-3-23 9-14 24 17-1 18-8 2-8-7-4l39-30 36-33-24 2-31 11 36-31q17-21 8-40 13-13 9-47-4-37 5-51l29 59q17 33 28 28v13q3 8 23-22l-5-5 4-11 4 18q10-1 1-16-7-11-5-2-9-2-15 4 10-17-2-68-13-52-27-70-2-3-9 3l-7 7q-7-9-4-10l1-5-15-2q-13 5-10 15-21-4-17-9l5-13-9-6-42 9q-46 5 0-34 55-49 36-100l-1-27q-3-26-10-19-20 42-29 18 37-23 25-38-10-13 2-22l11-13q-1 8-53-8l-25 1q27 3 24-19l-18-1 6-25q-9-4-17 3l7-18q-7-9-16 6-9 13-6 20M1016 622q-10 15 17 13-56 34-96 70-29 25 15 22l37-5-26 54q-14 23-56 34 6 19 4 71-3 47 12 73 2 29 26 64l44 56q47 64-17 110l-44 3-50-2q10-11-5-13-15-3-25 6-7 6 4 14l17 2-7 23 22 1-33 25q-4-13-28 23l-22 35q-12-26-21-13-14 21-9 65l5 70q-13 14-13 35l5 38-7 63q-2 34 27 12-8 11 1 18l20 2-18 19q-13 11-8 20l16 1q-16 14 30 13 48-1 45-15-14-17-37-7l19-11q25-15 21-23l-15-2q30-16 26-23-4-9-30 4l-31 17 40-27q34-22 26-31-5-6-17 3l-11 9q8-9 4-21-9-5-15 4l40-52q21-27 29-65l34 67q23 38 49 50-14-3-17 9l3 34 11-2 8-1q-25 5-22 25 16 5 26-11 4 48 19 67 15 20 44 14-19 9-21 29l44-3 49-20-32 21q-27 17-27 21-2 16 52-9-44 47-25 47 32-1 34-14 3-17-13-7l83-57q70-52 58-70-10-13-52 6l-52 26q48-39 64-65 14-25 26-83 5 7 8-71 4-88 11-98l39 75q21 43 41 66-11 5-9 16 3 6 20 6l20-3q-8 3-8 12 5 12 26-3l22-22 1-2q3 5 10 3 3-25-13-41l2 29v2l-6-1-15 3q21-6 19-24-13-4-23 3l4-5q20-22-1-17 10-8 8-14l-37-106-39-97q8-4 4-15-3-4-17 5-14 8-13 13l-14-14 8-5 2-9-28-2q-24 10-20 26-47-15-34-19l7-11 4-10-17-13-14-15q-8 2-18 19-13 22 0 25l-37-3q-21-18-32-19-12-29 2-40l35-26q44-35 55-105 5-84 12-126-21 2-28-32-6 2-29 37-22 28-32 0 69-45 48-72-12-5-17 8l1-21q1-13-5-13-1-17 24-28l17-10q-15 7-102 0 8-5 7-13l-47-1q41 3 48-30-3-12-15-13l-22 4 11-39-33-1 15-34q-8-9-33 10l-27 25m-22-4q18-3 18-13 21-17 2-25-16-7-31 30-7 12 11 8M511 395l-9 13-2 3 18 1q25-13 12-21-5-13-19 4m28 35-46 30q-35 25-32 36 4 16 22 5 21-13 25-10-12 22-21 47-9 17-45 26 7 21 10 74 2 53 10 77 9 26 54 65 29 35-21 72l-34 2-38-1q7-7-4-10-12-2-19 5-5 5 3 11l13 1-6 17 17 1-33 35-30 29-6-10q-6-7-11 0-17 27-2 103l-11 79q-5 54 19 35-6 9 1 14l16 2-14 14q-10 9-6 16 4 8 38 11h23l-2 1q-29 17-13 24l35-5q15-9-9-7l-14 1 6-10v-5q8-3 6-11-7-7-15-8 13-8 17-24l-8-3 17-16-18-3 1-1q26-17 20-24l-13 2-14 10 8-15-11-1 31-40q16-20 23-50l26 51q17 30 37 39l-10 15q-5 14-2 18l5 2q-7 5-6 15 12 5 20-8 5 71 49 62-15 6-17 22l35-2 37-15-24 16-22 16 16-2q20-11 25-3-33 14-19 34 24-1 26-11 2-12-10-6 16-16 56-43l51-47-34 2-45 16 51-45q25-29 12-58 18-18 13-68-6-53 7-73l31 64 25 50q-7 6 10 8h23q-9 2-9 10 6 13 29-10 22-22-8-14 15-4 14-19l5 26q15-1 2-23-9-16-7-3l-18 3 3-4q16-18 0-13l-20-86q-23-85-30-93-2-3-13 4-10 6-10 10-9-12-5-13 5-2 2-8l-58 14q-5 4 2-27l-12-9-10-12q-7-1-13 16l-5 20q-34 12-45-13-10-25 14-46 35-30 45-56 11-27 9-78l-4-47q-5-38-14-30l-15 26q-12 17-26 5l24-25q22-21 11-35-9-3-13 6-4-13 11-42l6-11-67-2q7-4 6-10l-37-1q32 3 38-23-3-10-12-10l-17 3 8-30q1-11-25 0l12-27q-10-12-25 7-14 19-8 30M218 570q-19-29 4-64 43-65 77-93 19-16 82-27 52-10 74-48 26-45 13-104-11-53-47-96 54 4 110 33 55 28 92 69l41 55q34 38 56 24-9 48 18 115 26 64 31-23 6 26 40 57 30 26 25 53-7 45 73 36 66-8 74-62 6-47-31-99l87 87q61 59 88 44 56-32 24-112-42-105-40-119 9-55 102-78l141-22q70-12 26-92-37-68-84-98 61 5 107 79 36 58 48 130 2 10-49 73-56 68-64 95l83-3q44 2 60 29 12 20 43 24 27 4 49-7 45-24 75-85 30-64 14-111 50 76 28 173-6 27-41 80-33 50-36 73 59 5 52 57-8 58 30 70 39 13 92-15 57-29 53-72 18 56-9 132-17 48-61 121-69 120 11 106 0 31-12 88-12 59-13 87-2 41-44 68-55 36-66 54-21 34 33 46l75 3q42-9 84-44l63-64 1-2 2-3 1 1q16 16 12 30l-10 12q-15 33-69 84l-130 110q-50 47-55 67-7 27 36 62 37 30-19 69-29 21-80 45-21 13-76 30-47 15-77 39-25 21-43 60l-35 62q-11 14-41 21-32 7-44 21-26 29-89 10l-96-29q-41-3-111 14-78 20-112 20-49 1-58-35-13-49-29-60l-111-41q-79-35-54-84 7-15-7-34-14-18-6-28l37-51q30-41 11-80-17-37-65-53-37-12-129-25-81-11-129-32-36-17-79-25 6-23-13-39l-31-15-32-12q-25-11-17-58l21-76q18-74-117-228l43 12 7-80q8-28 46-65 34-32 43-80 8-51-18-89 40 36 70 44 38 10 10-55l-39-57m1152 445q-10 11-33 11 17-20 33-11M358 883q-8 5-1 7h12q-8 6-7 14 10 15 30-21 17-29-34 0m56-76q-8 3-6 13l8 13 13-11q11-12 4-17l-19 2m464 339q51-1 18-23H883l-13 2q-44 22 8 21m-31-49q14-11-13-6-26 5-11 13 15 3 24-7m-2 59q-7-6-11 3-4 9 8 11 14-5 3-14M731 804l-24 8q-7 4 14 14l21 2q-3-8-10-8l12-3 9-6q1-11-22-7m704 699q11-9-11-9-23 1-25 8l36 1M414 1159l-8 4-33 16q20-24 41-20m479 511q20-12-12-9l-18 2q10-3 10-15-69 74 20 22m-98-436 12 3q-6 6-4 15 23 15 45-18 23-20-22-23-43-3-31 23m-276-91 6-1-6 2v-1" fill="#fff"/></svg>