<?xml version="1.1" encoding="UTF-8"?><svg xmlns="http://www.w3.org/2000/svg" xmlns:xlink="http://www.w3.org/1999/xlink" version="2.0" width="100pt" height="100pt" viewBox="0 0 2000 2000" clip-rule="evenodd" fill-rule="evenodd" preserveAspectRatio="none"><path d="M1781 769l103-41 49 38-14 27 11 116-379 169-301 2 265-41-23-25-170-39 130-5-137-150-40 74-155 58-127 124 108 64 44 67-340 1 366 35 74 47-626-1 529 54-300 88-195 1 6 25-240-4 352 97-257 73 201 113-7 27-568 91 91-48 290-83L0 1657v-37l431-42 114-28-310-100 381-101-560-78 645-47-23-78-136-37 132-12L400 986l457 2-95-62 74-158q18-39 91-113l70-65-135-60L598 725l29 49 5 66-111 72-31-21-70-148 37-39-287-16 308-28L702 457l-109-4 102-28-58-15 86-14-254-29 351-14q40-13 196 66l210 106q-1-9 25-62l27-62 8-53q-9-11-40-17L978 301l265 1-144-50 84-16-135-18-202-30 6-9 2-7h629q80 4 133 76 54 73 49 172-4 99-65 166-60 68-140 64l-15-1 149 245 185-78 2-47" fill="#fff"/></svg>