<?xml version="1.1" encoding="UTF-8"?><svg xmlns="http://www.w3.org/2000/svg" xmlns:xlink="http://www.w3.org/1999/xlink" version="2.0" width="100pt" height="100pt" viewBox="0 0 2000 2000" clip-rule="evenodd" fill-rule="evenodd" preserveAspectRatio="none"><path d="M681 945l1 1 10 23 36 57 54 88q15 21 28 29 17 12 43 13 27 1 52-17 26-19 28-44l-3-28-7-29v-19l-13-33-17-27-112-21h-8l-92 7m393 263q30-16 39-42 11-28 15-115 3-50-14-82l-107-2-94-6 17 31 16 30q-8 13-3 33 4 18 13 29-21 25-33 53-19 42 0 63l16 9 19 8 30-2 27 4q30 3 59-11m66-236q2 31 24 97 23 68 27 105l4 74q4 45 25 59l15 6 17 6 8 8q31 9 63-29-2-13 7-28l12-26q5-25 2-75-4-56-2-76l24 5-50-42q-31-26-58-34l-1-5-53-23q-34-18-57-22h-7m242-462-57-10-88-37q-51-23-101-18-51 5-138 0l-130-4-82-11-67-4-5-3-1-5-45-3-51-3q-13-9-21-4L392 389l-226-3q-69-4-166 0V351q0-63 12-116 126 0 179 16l-65 24 154 5 65-8 64-13 145-4 78-6q55 0 65 18l148 17q16 26 82 41l96 11 202 4q25 2 44 15l38 24 47 9 49-3q100-6 169 44l16 9 2 7 52 13q28 9 41 27l8 19 10 19q6 6 22 12 17 6 23 12 19 18 53 72 29 46 60 65 4 32 40 53 1 16 21 27 29 13 32 17l-4 8q1 5 7 3l-7 23 4-2-4 31-22 29q1 12-8 28l-20 21q-2 42-24 148-19 95-18 154l-32-117q-19-66-41-111-3 10-3 29l-2 29-12 25-19 13q-11 11-46 25-28 14-24 39l-27 13q-19 10-25 16l-12 24-19 21q0 26-12 76l-17 76-2 86q0 53-10 77-4-31-27-78l-35-76-16-20q-10 12-19 48l-17 52q-14 30-37 97l-6 1q-9 34-36 88l-43 84-26 85q-15 55-30 80l-4-73-7-75-17-132-16-127q-14-85-43-116-24 95-91 233-23-36-44-136l-14-55-10-54-9-2-10 1-20-20-20-36q-4 21-27 52-23 31-27 52l-32 6-5 59H854q-3-20-22-51l-28-49-39-89-37-79-37-78q-29-59-39-66-20-13-27 9l-15 39-11 1H587l-9 16q-11 13-19 49l-32 77-18 39q-11 23-15 41l-7 47q-4 32-13 43-12-22-22-68l-14-74q-15-84-29-125l-26-92q-15-56-31-90-16 3-38 41-21 37-50 39-11-27-37-30l-51 6-58 6q-36 4-55 15l-19 18-15 22-29 22V964q89-24 158-51l92-32 47-18q27-11 45-13 27-3 52 12l42 29 22 4-2-4 11 6 59 13 60 5q25-6 47-20 33-21 74-22 43-2 74 19l4 1q12 1 16 13 29 20 52 28l63 9 140 2q79 5 132 25 55 19 73 37 23 1 53 34l49 48 41 20q38 11 64 1l23-13 39-18q22-15 19-41-1-15-18-30l-32-24-11-13-10-14q-11-10-38-25l-33-22-10-18-11-17q-109-57-149-130 26-19 72-23h91l57 4 42 17q33 15 52 19l40 14 54 36q35 23 61 27l69-9q41-17 30-52-4-11-21-20-21-32-60-63l-70-51-69-54q-42-31-76-46l-63-12-64-22" fill="#fff"/><path d="M995 547q-10 7-17 24-11-16-29-23l-37-11q-12-3-47 0l-47-5 2-2q-53-11-82 18l-29 24q-17 15-20 30-13-7-15-29l-10-10-9-10-16-1-17 1-16-6-16-4-15 9-15 7q-3-12-3-24-42 90-53 139l-4-27-1-30-14-50-15-47-6-13-12-4-25-5-17 1q-15 9-22 0-22 37-37 91-5-6-7-20l-5-23q-14-22-17-36l-10-10-9-11-28-7-33-3q-22-4-27-14l-46-9-49-9 95-2 107-1 107 5 55 2 56 5 53 7q40 7 41 17l46-1 48 5 55 10q72 23 113 10 23-8 56-9l58-1 93 4 69 8-9 3q20 8 55 12l-38 2-36 2h-36q-39-6-80 10l-33 11" fill="#fff"/></svg>