<?xml version="1.1" encoding="UTF-8"?><svg xmlns="http://www.w3.org/2000/svg" xmlns:xlink="http://www.w3.org/1999/xlink" version="2.0" width="100pt" height="100pt" viewBox="0 0 2000 2000" clip-rule="evenodd" fill-rule="evenodd" preserveAspectRatio="none"><path d="M1509 876l-73-84q53-24 102-24 109 0 138 119 26 122-46 289-71 168-200 289-129 120-240 120-110 0-137-120l-8-68 97 18q26 62 94 62 82 0 176-87 96-91 149-214 53-125 33-212-19-79-85-88" fill="#fff"/><path d="M1658 480q-156 0-332 141-16-34-23-68 213-174 398-174 212 0 266 231 51 232-87 559-139 328-388 559-252 233-465 233-214 0-264-233-20-84-14-187l7-62q34-36 82-62-23 135 2 239 45 202 232 202 186 0 403-202 218-202 338-486 122-285 75-487-45-203-230-203" fill="#fff"/><path d="M1421 1179q17-38 11-66-6-28-31-28-23 0-56 28-32 30-46 66-17 39-11 67 8 29 32 29 24 0 56-29 29-27 45-67m7-159q43 0 54 46 12 47-17 113-26 66-79 114-50 47-94 47-37 0-49-34l43-136-20-13q29-55 68-91 52-46 94-46" fill="#fff"/><path d="M1052 1175l172 39-59 156-127-29q-145-18-244 31-98 48-165 140-42 57-63 115l143 39-278 159-160-278 133 36q26-79 82-158 93-133 234-203 141-70 332-47" fill="#fff" fill-opacity=".8"/><path d="M976 576l136 450-470-6L744 886-6 325q5-133 73-218L875 711 976 576" fill="#fff"/><path d="M1475 352 1371 247q-40 47-69 112-45 103-39 213 6 111 94 227 44 59 88 96l-106 128q-62-52-120-130-114-154-123-312-9-157 61-304 40-87 96-149l-97-98 321 1-2 321" fill="#fff" fill-opacity=".8"/></svg>