<?xml version="1.1" encoding="UTF-8"?><svg xmlns="http://www.w3.org/2000/svg" xmlns:xlink="http://www.w3.org/1999/xlink" version="2.0" width="100pt" height="100pt" viewBox="0 0 2000 2000" clip-rule="evenodd" fill-rule="evenodd" preserveAspectRatio="none"><path d="M491 647q43-5 56 55 12 0 13 5v14l-4 6-83 24q-46 13-78-12-20-15-41-74-20-54-51-68l-83-12q-45-5-63-50l-34-73q-16-23-65-44 34-14 89 1l84 31q12 45 52 67 34 18 83 18 58 1 77 35l48 77" fill="#fff" fill-opacity=".8"/><path d="M433 117q57 55 98 71l62 14q40 8 58 19 35 21 35 101 1 94 19 124-3 7-1 13l3 12 15 5q-59 1-81-47l-25-97q-11-49-50-80-28-22-88-46l-1-14q-16-8-30-33-13-23-14-42" fill="#fff" fill-opacity=".8"/><path d="M1073 100q38 57 24 100-24 18-33 33-10 19-8 45l10 45q3 21-19 33l-15-25-49-72q-29-42-16-78l40-76q17-38-9-83 45 32 75 78" fill="#fff" fill-opacity=".8"/><path d="M1361 376q-29-1-47 11l-7 14-15 10q8-16 22-24 30-61 77-92 28-19 71-20l75-4q35-6 56-29l39-51q19-21 51-35l58-20q-44 25-72 96-32 81-51 100l-6 48q-33 25-82 25l-88-14-81-15" fill="#fff" fill-opacity=".8"/><path d="M1537 676q52-50 155-55l79-8q37-11 42-56l9-2q-13-38 0-58 13-20 53-31-4 12-10 156-4 101-63 119-38 12-73-1-21-7-63-32-58-31-143 0l14-7V676" fill="#fff" fill-opacity=".8"/><path d="M1217 1560l-14 9-13 11-32 13-32 15-86 13-8-2-20 4 18 5 18 8 13 13q8 9 14 11l46 4 48-2 44 1 42 6q19 7 31 29 12 22 8 41l15-28-2-3 20-33 19-31q14-13 38-14l38-5-41-37q-24-21-47-31l-117 3m114-139-44 8-91-3q-71-14-137 25l-108 84q15-10 27-13 20-19 69-21l81-3 48 1 49 4 99-8q54-9 83 19 42 37 46 71 6-11 0-59-7-47-15-61-25-44-61-47l-46 3M678 1600l-24-20 60 89 59 85 77 84 31 35q18 17 38 22l113 18 123 1 123-2q44-1 81-24l62-58q21-23 30-57l7-68 4-19-4 8v11l-14 31-13 24-12 24-22 27-26 24q-43 25-67 26l-100 1h-99q-31 2-69-18l-63-33q-18-27-56-53l-60-45q-48-38-126-73-26-11-53-40m-70-329-4-13-8-12v25l-7 9 14 53 20 24q12 12 30 14l26-1 23-10h-8l3-1 5-20 2-21-30 8q-16 1-28-10l-20-23-18-22m-15-209q-4 18-4 75l6-37q6-19 24-24 27-6 34 15l10 40 12 14 9 16v-19q0-11 5-16l-3 2q25-20 3-67-21-47-53-46-34 1-43 47m527 237-21-3h-10l24 19 29 11 27 14 27 14 56 37q45 25 51-6l4-1q2-10 12-16l1-5 21-19 15-23 3-33-5-30-43 40-32 6-33-8q-19-16-32-20-18-4-39 10l-15 11-17 8-23-6m150-420q-8 5-3 32 3 20 9 36l9 52q7 44 11 46 1 11 25 45l19 19 28 3q25-5 42-27l25-44 10-20q6-21 10-21l-9-34q-20-20-45-27l-55-10-50-12q-27-12-24-40l-2 2m-60 0-25 20q-41 30-71 40l-48 8-49 2q-47 5-74 28-11 9-24 31l-23 32-4 42 39 13 39 15 78 4 35-7q15-5 27-19 23-29 27-66l19-43q13-37 21-45 27-26 33-55m173-280q77 113 84 204 2 41 28 135l-16 74 13 127q3 28-18 102-5 22-4 69 2 48 9 66l21 65q12 49 5 76l-36 158 100 50 127 80 97 101 8 70q-63 24-142 24H350q-156 0-250-97l-16-17q345-373 407-477 44-74 67-164l14-75q-2-37-1-77 2-80 21-94 19-14 23-34V948q8-89 35-188 54-197 151-245 115-60 145-72l105-10q86 4 180 48 103 48 152 118" fill="#fff"/></svg>