<?xml version="1.1" encoding="UTF-8"?><svg xmlns="http://www.w3.org/2000/svg" xmlns:xlink="http://www.w3.org/1999/xlink" version="2.0" width="100pt" height="100pt" viewBox="0 0 2000 2000" clip-rule="evenodd" fill-rule="evenodd" preserveAspectRatio="none"><path d="M1049 1413l-4 32-7 29-77-99v-2l1-10 87 50" fill="#fff"/><path d="M621 1174q-30-64-21-112 9-47 53-48h11v70q-9 7-12 23-4 27 14 66 18 39 47 65 23 18 40 24l41 66q-42-2-89-43-52-45-84-111" fill="#fff"/><path d="M355 381q149-6 318 100l-11 76q-140-80-259-76-187 8-224 212-39 203 93 485 132 282 357 474 225 194 412 188 188-7 225-211 8-45 8-87l82 47-10 109q-42 235-257 243-213 8-474-216-256-220-410-545Q55 857 98 623q44-234 257-242" fill="#fff"/><path d="M400 890q23-122 133-125 60-3 130 32v90q-41-17-80-16-82 3-98 92-17 90 41 211 59 125 157 209 98 84 179 81l15-1 64 104-29 3q-110 5-244-111-134-116-212-282-78-166-56-287" fill="#fff"/><path d="M1185 1172l-27-58 70 4 34 73-77-19" fill="#fff"/><path d="M1261 1402l-18-72 73 6q19 67 30 131l-85-65" fill="#fff"/><path d="M786 644l-11-8-33-109 71 56-27 61" fill="#fff"/><path d="M942 747l-3-45 31 32-28 13" fill="#fff"/><path d="M718 598l46 252L983 208 857 936l426-511 21 11-126 182-446 506 280-94 817-42-899 126 820 251-754-145 311 284-410-244 119 284-285-357-46-73 33-516" fill="#fff"/><path d="M1595 400 1225 247 1534 4h143q167-3 251 93 18 20 38 57L1803 293l203 84V514L874 1026l721-626" fill="#fff"/></svg>