<?xml version="1.1" encoding="UTF-8"?><svg xmlns="http://www.w3.org/2000/svg" xmlns:xlink="http://www.w3.org/1999/xlink" version="2.0" width="100pt" height="100pt" viewBox="0 0 2000 2000" clip-rule="evenodd" fill-rule="evenodd" preserveAspectRatio="none"><path d="M975 557q-44-16-64-60-19-43-3-87 17-44 60-64l87-3q44 17 63 60 20 43 3 87-16 44-59 64l-87 3" fill="#fff"/><path d="M1448 388q44 17 64 60 19 43 2 87-16 44-59 64l-87 3q-44-16-64-60-19-43-3-87 17-44 60-64l87-3" fill="#fff"/><path d="M1459 874q-19-43-3-87 17-44 60-64l87-3q44 17 64 60 20 43 3 87-16 44-60 64l-87 3q-44-16-64-60" fill="#fff"/><path d="M1405 1062q44 17 64 60 20 43 3 87-16 44-59 64l-88 3q-44-17-63-60-19-43-3-87 17-44 59-64l87-3" fill="#fff"/><path d="M862 1086q17-44 59-63l87-3q44 17 64 59 20 43 3 87-16 44-60 64l-87 3q-44-17-64-60-19-43-2-87" fill="#fff"/><path d="M775 1369q44 17 64 59 20 43 3 87-16 44-60 64l-87 3q-44-16-64-60-19-43-3-87 17-44 60-63l87-3" fill="#fff"/><path d="M410 1585l-87 3q-44-16-64-59-19-43-3-87 16-45 60-64l87-3q44 17 64 59 20 43 3 87-16 44-60 64" fill="#fff"/><path d="M899 826q-17 44-60 64l-87 3q-44-16-64-60-19-43-3-87 17-44 60-64l87-3q44 17 64 60 20 43 3 87" fill="#fff"/><path d="M573 787q-11 27-37 39l-54 2q-28-10-40-37-12-26-2-54 11-27 37-39l54-2q28 10 40 37 13 26 2 54" fill="#fff"/><path d="M874 258q-28-10-40-37-12-27-2-54 11-28 37-40l54-2q28 10 40 37 12 27 2 54-10 28-37 40l-54 2" fill="#fff"/><path d="M1557 305q-28-10-40-37-12-26-2-54 10-28 37-40l54-1q28 10 40 37 12 26 2 54-11 27-37 39l-54 2" fill="#fff"/><path d="M1894 782q27 11 39 37 12 27 2 54-11 28-37 40l-54 2q-27-11-39-37-12-27-2-54 10-28 37-40l54-2" fill="#fff"/><path d="M1492 1353q27 10 39 37 12 26 2 54-10 27-36 39l-55 2q-27-11-39-37-12-26-2-54 11-28 37-40l54-1" fill="#fff"/><path d="M913 1662q28 10 40 37 13 26 2 54-11 27-37 39l-54 2q-28-10-40-37-12-26-2-54 10-28 37-40l54-1" fill="#fff"/><path d="M220 1174q28 10 40 37 12 26 2 54-10 28-37 40l-54 2q-28-10-40-37-12-27-2-55 11-27 37-39l54-2" fill="#fff"/><path d="M242 1681q27 11 39 37 12 27 2 54-10 28-36 40l-55 2q-27-11-39-37-12-27-2-54 10-28 37-40l54-2" fill="#fff"/><path d="M1033 489 831 785l155 323 358 28 202-297-155-323-358-27m15-82-13 7 367 28 151-212 45 32-147 207 164 342 237 11-2 56-233-11-227 333 118 201-48 29-121-207 21-12-398-30-198 272 159 263-48 28-145-240-355 12-135 262-49-26 132-257-135-240 48-28 131 233 330-11-10-16 39-23 194-267L746 780l-1 21-239-11 3-55 238 11-1 32L991 419 879 229l48-28 121 206" fill="#fff" fill-opacity=".8"/></svg>