<?xml version="1.1" encoding="UTF-8"?><svg xmlns="http://www.w3.org/2000/svg" xmlns:xlink="http://www.w3.org/1999/xlink" version="2.0" width="100pt" height="100pt" viewBox="0 0 2000 2000" clip-rule="evenodd" fill-rule="evenodd" preserveAspectRatio="none"><path d="M1930 1000q0 381-269 651-269 269-651 269-381 0-650-269Q90 1381 90 1000q0-381 270-650Q629 80 1010 80q382 0 651 270 269 269 269 650m-755 533-1 36v33q0 68 11 108 216-47 382-213 231-231 231-557 0-326-231-557-231-230-557-230-326 0-556 230Q223 614 223 940q0 326 231 557 163 164 375 212l3-16 2-36 9-49q12-65 4-116l2-61 2-61 14-183 3-60-43-16q-1-6 5-19l10-16q-1-4 4-10l6-11 9-21 5-39 2-31-13-167q-32-28-50-34l-7 1-20 5q-8 1-18-9l-17-20 9-20 1-4-77-91-62-67-18-20-21-18q-15-2-44-23l-20-12-5-3q-13-10-16-22l19 8 11 7 7 3-5-6q-21-28-11-58l25 21 13 9 18 4-5-16-3-7q-5-12 8-16l9 10q23 29 31 80l18 14 20 12 2 1 37 30 77 58 31 17 1-7 16 4 13 9 37 4 18 14 43 3 26-7 7-27q-14-30-16-48-2-13 3-33l-7-23q8-1 11-19l3-25q3 17 93-11l-4 4q13 6 30 18l29 20-15-1 8 43q7 27 2 42 4 18 0 28-21 34-10 38l23-1q7-9 17-11l26 1 24-1 11-8 12-9 20 3 19 3q40-9 102-64 64-59 107-71 1-29 19-49l37-30-5 23-12 16q19 3 36-12 17-16 32-16 0 7-8 18-7 9-3 22l-30 23 34-13q-1 12-20 25l-31 19q-19 13-31 15h-6l-95 90-98 89v28l-78 39q-20 88-25 163l12 72q4 26 25 72-11-1-31 9l2 26 11 136-3 82q-6 54-2 82l-1 1 7 104m-116 44v-1l-9-56-10-56-2-50-8-50-4-28-3-29-7-28-7-7q-6-5-7 2l-2 11q-9 33-14 93l-12 93q-10 42-14 129l-1 7v6l-7 89-8 24 66 2 70-2-14-34-3-76-4-39" fill="#fff"/><path d="M1175 1533l13-7q144-70 263-189 103-104 170-227 65-119 89-242 14 150-35 291-52 147-162 257-122 121-284 171l-55 15v-33l1-36M612 558Q503 675 440 815q-69 153-71 303-50-176-5-354 40-158 145-279l20 12q29 21 44 23l21 18 18 20m-94-83 2-3 5 6-7-3m29-31 13-12 5 16-18-4m27-25Q687 318 834 275q161-48 327-15-135 16-268 83-137 69-250 182l-20-12-18-14q-8-51-31-80m485 1158 4 39-104-3v-6l1-7 99-23" fill="#fff" fill-opacity=".8"/></svg>