<?xml version="1.1" encoding="UTF-8"?><svg xmlns="http://www.w3.org/2000/svg" xmlns:xlink="http://www.w3.org/1999/xlink" version="2.0" width="100pt" height="100pt" viewBox="0 0 2000 2000" clip-rule="evenodd" fill-rule="evenodd" preserveAspectRatio="none"><path d="M1637 597q6 44 13 64-6 19-13 60l-14 63-18 78q-13 48-33 72l3 5-16 26-12 21q10-41 13-95 2-70-10-146-10-65-55-147l-78-134 7-11q19 6 47 19l45 19q27-26-101-160l-62-71q-42-45-71-59l-31-8-32-6-29-13-28-17q-84-43-119-49 59-5 126 18l2 12 78 25q50 14 74 27 21 11 59 41l35 18 36 18q27-19 83 59 44 62 59 104l31 100 11 67m196 274q0-224-111-418-108-188-293-299 227 116 362 333 139 222 139 486 0 381-269 651-270 269-651 269-381 0-650-269Q90 1354 90 973q0-192 77-367 74-169 207-297Q271 422 216 564q-58 147-58 307 0 347 245 592 246 245 592 245 347 0 593-245 245-245 245-592M1165 495l3 265 265-3 3 295-265 3 3 265-295 3-2-265-266 3-3-295 265-3-2-265 294-3M685 213l31-13-79 95q-52 59-68 111-10 36-16 88-2 25-18 59l-26 55q-13 33-17 72-5 50 12 70-47 36-73 99l-25 41q-19 27-25 43l-13 53-9 54-17 85 3-32 1-35 6-61q4-41 16-88l25-102 24-65 22-65q14-65-5-66l-52 64-57 58q-18 21-33 49-19 34-22 57-4-30 10-73l28-69 47-115 42-79q21-29 22-40 1-11-6-17-8-6-16 4 8-33 36-56l10 6q11-14 63-59 76-68 114-97 34-25 65-31" fill="#fff"/><path d="M1621 1083q65-119 89-242 14 150-36 291-51 147-162 257-121 121-283 171-158 48-320 19 140-12 279-80 144-70 263-189 103-104 170-227" fill="#fff" fill-opacity=".8"/></svg>