<?xml version="1.1" encoding="UTF-8"?><svg xmlns="http://www.w3.org/2000/svg" xmlns:xlink="http://www.w3.org/1999/xlink" version="2.0" width="100pt" height="100pt" viewBox="0 0 2000 2000" clip-rule="evenodd" fill-rule="evenodd" preserveAspectRatio="none"><path d="M1646 780q18 10 74 19 89 12 128-24l18 53q12 34 9 55l-66 31q-34 12-75 12l-81-9q-49-3-66 23-14 29-13 40 1 12 15 31 1 15-11 36l-21 33-29 68-33 65q-15 22-51 46l-57 37-12 27q-25 15-83 17l-86-5-87-15-90-10-175 10-88-4-86-10H594q-21-1-32-8l-24-21-57-30q-38-14-53-30 0-12 10-15 36 16 75 15l-68-17-7 2-67-45q-37-31-37-64 0-28 27-74l32-62q19-42 32-62l24-28 24-29 13-40 10-41q6-15 26-35l30-33 23-34q14-18 33-24 49-70 104-92l81-9 82-5q27-6 64-32l29-26 13-34q10-27 45-44l61-31 35-27 25-37 9-54q4-31 15-51 31-57 64-59l60 8 62 12q-23 23-39 68-13 39-17 77-4 46 14 74l43 56q16-10 36-6 20 3 31 17l71-10q30-11 64-45l22 59q16 37 38 43l8 14-37 21-41 15-1 6-35 8-1 6-23 8q0 20 22 58 20 34 16 59l-7 27q-2 10 11 23 10 9 31 14l33 7q12 4 26 14l24 17M907 884l-50 56-67 52q-44 33-51 62-141 5-198-25-29-15-42-57-15-45 10-71l-3-3q-40 28-47 81-6 47 15 96 18 44 68 78 35 24 95 47 28 11 88 16 58 5 86 16l38 17 40 11 88-4 89-2 90-1 99-14 36-13q24-11 38-13l70-45q45-29 58-64l-90 14-91-4q4-20 21-37l29-29 10-2q12-19 42-35 25-14 53-21-61-1-126 32-37 19-114 65-31 16-64 14l-64-8-68-2q-35-4-63-20 14-52 116-116 34-22 77-43l56-23q37-15 48-30l-20-1 10-3 55-41 64-36q10-6 33-14l33-15 12-6 8-13 4-16 1-11-73 2-73 9-93 11q-52 8-89 23-29 12-70 40l-68 46q-27 18-56 50m126-176q15-13 46-24l49-20q-52 2-89-27-38-30-41-80l-11 38-11 38q-5 30-1 41l10 17 8 17q-19 4-46 22l-43 24-13 12-1 5-4 2-3 5q-17 21-19 36l42-30q25-22 45-26v-4q31-9 45-18l37-28m117-246q-40 4-58 21-26 26-16 57l23 52q58 34 98 42 61 14 100-24 19-19 21-48 2-29-13-55-14-24-41-38-19-10-55-18l7 10-66 1" fill="#fff"/><path d="M1733 1488q-18 0-23 6l27 2q18-1 21-13l-25 5m-33 6-67 5q-38 7-55 26 18-11 64-18l58-13m106-11h-27q-15 1-16 11h27q15-1 16-11m-47-126 10-1 81 25q47 16 67 39-2 21-16 34l-32 19 33-4q20-10 20-28 6-1 6 10l-1 16q-42 32-175 42-136 10-179 38-2 14 2 34l3 34-8 10-7 11-86 29q-49 18-68 35-13 47 23 74 21 16 72 37-16 24-77 29l-86 8q44 11 96 0 46-10 78-32-2 34-80 49-80 16-110-17 1-5 16-5-10-15-69-10-57 4-64-17l15 4 17 1q-1-5-13-8-10-3-8-13l52-14q27-10 38-28 0-11-8-21l-13-16-421 3q-239-8-383-66-7-57 79-84 99-31 112-64-24-35-119-34l-167 12-158 10q-85 1-138-20 18-40 86-57l115-28q-5-9-33-17-24-7-25-25 74-34 179-54 23 7 82 40 50 28 86 32 37 6 93-15l157 12 160 1 120 6q11 11 27 11l169 18q111 5 148-51l142 12 160-6m-455 353q-46-24-74-26-72-6-253 4-175 10-255 1l298 11 284 10m-587-21-110-25-107-17q78 32 217 42M284 1478l52-6 48-10q-20-5-52 0-34 5-48 16m245-27-124 6-14 1q-5 6 9 4H659l-130-11" fill="#fff" fill-opacity=".8"/></svg>