<?xml version="1.1" encoding="UTF-8"?><svg xmlns="http://www.w3.org/2000/svg" xmlns:xlink="http://www.w3.org/1999/xlink" version="2.0" width="100pt" height="100pt" viewBox="0 0 2000 2000" clip-rule="evenodd" fill-rule="evenodd" preserveAspectRatio="none"><path d="M837 538q-6 20-28 26-1-20 28-26m643 463q-12 3-2-18 14 15 2 18m-122 716q-8-11-5-28 19-14 26 9 7 22-21 19M940 1568q-25 0-25 16 22-4 25-16m191 66h-10v-11h10v11m6-232q-1 20-31 22 10-19 31-22m-51 77q-3-14 11-16 13-2 19 5 0 9 5 11 4 11-2 15l-8 8q34 92-40 121l-56 1q-30-12-39-45-14-50 21-81 35-32 89-19m-64-42q-10 11-6-13 17 2 6 13m54-29q12 33 5 49-10-1-13-21-4-21-12-23l8-5h12m71-67q14 2 15-5 12 19 15 50-18 14-35 11l5-56m47-35q11 11-12 8 2-19 12-8M915 1457l26-5 25 5q18 29 4 68-17 46-14 59-21-4-53 24-26 23-48 4 3-15 17-34l18-32q-104 2-85-111 30-24 63-19 35 5 47 41m14-313 1 11 10-1-1-11-10 1m383-56q13 1 10 22-12-3-10-22m86 116q6-1 6 10l-1 17h-20q-4-12 3-18l12-9m-121-85-15-4q1-13 20-11l-5 15m-4 91 9-12q14 2 20 28l-18 5q-11 2-17-5-1-10 6-16m37-7q-2-12 2-16 6-6 21-6 14 0 20 6 3 17-14 21-20 4-22 12l-7-17m-29-59q8 4 6 15-7 9-18 4-10-5-7-20l19 1m-34-67q20-16 17 2-2 19-17-2m146-22q5-6 20-6h25q-2 16-22 20-22 5-23-14m105 124q-13 16-15 36l25-4q12-8 21-7l6-29q2-21-11-21l-26 25m-45-169q-8 0-10 6-23-1-20-33 36-5 30 27M601 1731l3-14q24-2 25 11 1 11-6 15l-19 1-3-13M371 1286l-30-9q14 32 44 39 0-21-14-30M32 1323q12-20 33-12 21 9 15 40-17 17-34 11-18-7-14-39m369-269q-1 13-19 13-4-10 4-12l15-1m-16 32q6 8 5 19-37-4-61 31-27 39-53 43-6-5-7-19-2-14 3-20 30-4 36 7l32-39q19-22 37-35l8 13m98 322h2q0-40 19-27 22 16 8 28 48 12 72 70l19-7 21 2 11 31q6 21 24 19-6 15-13 50-8 31-27 43l-22 4q-13 0-18 13l-16-16q-13-7-15-17H473q-60-23-57-104 3-81 67-89m25-389q-14-13-3-18 12-4 3 18m-86-1q10 1 5 11-5 9-13 7l4-9 4-9m43 17q-5 11 1 11 2 7-3 10l-6 8q2 6 15 4 14-1 16 4-4 11-18 12l-26-2q7-9-1-17-9-11-8-21 5-7 30-9m33-20q-11 2-12 20l-4 26-12-38q-9-25 5-39 16 1 23 31m171 50q7 15 17 17l7-4q-6-20-4-50-13 15-32 13l12 24m42-202q0 14-19 14-1-14 4-15l15 1m2 37q1-19 17 0-18 19-17 0m-61-24q12 0 12 20-14 0-12-20m30-54q7-10 18-6 11 4 9 20-28 6-27-14m-68-20q-5-17 12-22 19-7 20-15l9 17q3 11-1 16-5 6-19 8l-21-4m82-48-5 16-8 13q-14 0-22-25l18-7 17 3M563 926q21-7 24 12-5 6-19 8l-26 3q0-16 21-23m-32 63 9-7q25-2 23 31-36 10-32-24M438 805l-3 30q-1 21 13 19l22-27q12-17 12-38-14-2-24 7-11 9-20 9m142-43q5 11-2 18l-10 11q-6 1-7-10l-1-17 20-2M773 657q-1 19-12 9-11-10 12-9m-2-72q9-9 13-11l21-4v55q-14 2-14 7-13-14-20-47M303 964q14-27 10-39 77 25 113-35-24-62 11-102 26-28 86-48l6 25-2 25q7 11 30 10l31-6q6 11 4 17l-11 11 19 15q12 9 15 21l-31-3q-1 18 13 22l25 7-9 10q-9 4-9 9l-16-19-18-21q-2-5 3-12l5-6-19-26q-11-9-35-12-4 22-34 66-27 39-25 62 1 10-2 9-3-1-3-8-12 32-15 52-9-3-6-17 3-14-2-16-37 20-40 60-13-10-21 4-5 10-6 27-4-10-21-9l-31 4q-2-10-11-17l-12-14q-6-20 8-46M804 342l-10 2-1-11 10-1 1 10M568 303q-18 16-27-6-9-21 19-21 8 10 8 27m992 680q6-10 14-6l-5 9-5 8q-10-1-4-11m29-22q1-14 20-11 3 10-5 11h-15m-66-38 26 5q-8 9-2 17 9 12 7 21l-30 6q6-10 0-11-2-7 4-10l6-7q-2-6-15-6-14 0-16-5 6-11 20-10m-21 47 6-26 9 40q6 26-9 37-14-2-20-33 11 0 14-18m9-353q-7-13-2-21l30 1q-2 27-12 30-8 2-16-10m13-103v27l-18 6q-13 0-18-6-9-15 6-27 16-12 30 0M1071 801h-10v11h10V801M859 503q11 0 16 19 5 21 13 22l-7 6-12 1q-16-29-10-48m68 25q-16 0-7-12 9-12 7 12m47-38q-20-26-10-67 12-47 8-61 21 1 51-29 24-26 47-9l-13 36-16 33q103-13 95 101-28 27-61 26-35-1-51-36-23 15-50 6m15-113 18-5q7-4 5-14-21 6-23 19M853 337q28-15 57-7 31 8 43 40 19 48-14 83-32 35-87 28 4 14-9 18l-20-3q0-9-6-11-4-9 1-14l7-9q-43-88 28-125m696 122v22h-20q-3-13 4-18l16-4m-310-55q28-3 47 24l27 62q-13 40-30 57-25 25-65 9-37-14-32-80 5-66 53-72m87-118q13-2 17-16l17 14q14 6 16 16l75-8q62 16 66 97 5 80-58 96-31 8-61-10-29-17-46-50l-18 9-21 1-14-30q-8-20-26-16l8-51q5-32 23-47l22-5m-19-122 5 13-2 14q-24 4-26-8-4-19 23-19m382 714-35 36-40 30q-12-16-10-33 37 9 64-24 31-36 57-37l5 20-5 19q-30 2-36-11m-50 106 30-1 10 18 10 15q4 21-11 46-16 25-14 37-75-35-115 22 18 64-21 99-28 26-90 39l-4-26q-1-13 4-24-6-11-28-13l-32 2q-4-12-2-17 2-5 12-11l-18-16q-11-10-12-22l30 5q2-17-11-23-18-5-24-10l10-8 10-8 14 21 16 23-10 16q9 21 16 28 10 10 34 16 6-21 40-62 30-35 30-59 0-10 3-9l3 9 20-50q8 4 4 18-5 13 1 16 38-17 45-56 21 20 30-27 3 11 20 12m-10-283q-2 22 11 32l29 13q-11-33-40-45m221-71-14 44q-11 25-1 44 14 3 24-7 12-10 21-10l44 60q24 38 17 78-11 60-78 69-68 10-88-63-39 12-68-15-24-21-38-62l-25 5 19 23q8 14 1 32-13 9-33 8l-37 3q-7 26-31 41l-50 20q-4 18-26 35-24 18-29 31l-62 8q-39 5-53-24l-2 20q-1 18-8 24-42 6-36-39 18-14 36-11l-10-25q-6-16-16-19-10 3-25 17l8 11q5 6 2 16-13 14-32 14-18-1-33-14l-20 37-20 35q5 10 11-3 7-13 14-3l-12 18q-8 10-3 27l25 30q15 17 35 19l-13 3q-10-3-17 3l-8-19q-4-12-12-14-9 1-14 15l-11 18q12 17 14 56 2 42 11 60l27 1 18-1-25 17q-18 9-25 16l3 11 2 11q-14 4-31 28-17 23-34 27l-60-7q-39-15-51-15-8-4-3-16 5-13-2-17l-15 16-15 17q-37 2-66-33 4-36 32-50l54-5q0-13-11-28l-74 27q-2 62-39 67l-2 3q1 50-34 73-30 21-70 10l-9 22q-11 0-23 7 6 37-10 70-17 35-50 36-28 0-44-30-10-18-21-64l5-10q-28-30-36-78l14-26-13-13q0-14 5-26l-19 17-24 24q-21 17-52 55-30 27-73 15l-14 13-14 12q-12-17-14-29-2-12 3-36l-21 19q-13 12-27 14l1 20q1 13 7 12l-54 68q-42-5-64-16-31-14-43-44l-25 2 10-45q9-26-3-44-13-2-23 9-11 12-20 12l-49-54q-28-35-24-76 6-61 71-78 67-16 93 54 38-16 70 7 25 19 43 58 9-9 24-8l-21-21q-9-13-4-32 12-10 33-12l36-7q4-26 27-43 13-10 47-26 3-19 23-38 22-20 26-34l61-15q38-9 56 18l-1-20q-1-18 6-25 41-10 39 34l52-31 48-35 4-6q-6-9-11 4-6 14-13 4 0-5 10-19 7-11 1-27l-28-27q-17-14-37-15 3-6 13-4l17-5 10 18q5 11 13 12 9-2 12-16 4-16 10-19-14-16-19-54-6-42-17-59l-27 2-18 3q6-8 23-19l24-19-4-11-3-11 29-31q14-25 31-31l59 1 53 9q8 3 4 15-3 14 4 17l14-18q7-14 13-18 36-7 68 25-1 36-27 54-22 14-53 11 1 10 8 20l10 14 70-20q-8-33-1-59 8-30 32-35-11-77 57-96 67-18 99 39l20-6 6-9q16 1 36-13 21-13 34-14 43-2 71 31 27 33 30 85l-31 42q-21 20-49 24 2 10 13 19l17 14 11-7q7-5 14-4l-3-13q-4-6-2-15 13 10 29-3l36-30 57-48q32-23 74-7l14-12 16-10 12 31-7 35 22-16q14-10 28-11l1-20q0-13-6-13 19-23 61-61 41 10 62 23 29 18 38 49h25m120 64q17 10 11 41-15 19-34 8-19-12-11-42 18-15 34-7" fill="#fff"/></svg>