<?xml version="1.1" encoding="UTF-8"?><svg xmlns="http://www.w3.org/2000/svg" xmlns:xlink="http://www.w3.org/1999/xlink" version="2.0" width="100pt" height="100pt" viewBox="0 0 2000 2000" clip-rule="evenodd" fill-rule="evenodd" preserveAspectRatio="none"><path d="M1134 979q27-358 59-499 76-337 253-418 38-2 76-1l-61 2q48 2 87 35-114 84-161 386-27 190-28 498l-225-3" fill="url(#A)"/><path d="M1505 1895l-67-4q-177-85-249-417-31-136-55-495l225 3q-1 314 24 492 45 299 157 385-39 31-87 32l52 4" fill="url(#B)"/><path d="M1522 61l59 1 62 3q168 84 236 424 29 155 49 501l-212-3q4-745-168-889-39-33-87-35l61-2" fill="url(#C)"/><path d="M1928 990q-24 349-54 493-69 330-239 410l-22 1-108 1-52-4q48-1 87-32 174-139 176-872l212 3" fill="url(#D)"/><path d="M566 997q18-245 40-335 49-226 169-279l34-1-24 1q32 1 58 23-75 57-107 259-17 119-19 334l-151-2" fill="url(#E)"/><path d="M822 1610l-52-3q-119-56-167-279-20-89-37-331l151 2q-1 202 16 329 30 200 105 258-27 20-59 21l43 3" fill="url(#F)"/><path d="M809 382l78 1 20 1q113 57 158 284 18 99 33 336l-142-2q2-499-113-596-26-22-58-23l24-1" fill="url(#G)"/><path d="M1098 1004q-16 234-36 330-46 220-160 275h-2l-37 2-41-1-43-3q32-1 59-21 116-93 118-584l142 2" fill="url(#H)"/><path d="M946 1034q-141-48-253-65l-64-6 83-9q289-51 664-272 415-245 618-430l6 87V472q-262 225-624 360-256 97-484 127 233 22 501 122 344 129 607 347v210q-201-189-607-406-239-127-447-198" fill="#fff"/><path d="M610 233q17-7 16 24-3 39 9 46 19 12 19 43 0 31-23 64L518 552q-16 22 37 7 50-14 94-41 93-58 97-2 2 26-24 58l-48 41-90 38q-76 30-98 51-31 28-64 79-34 52-11 42 36-15 240-23 39-1 51 38 12 40-28 38-54-2-276 62l-26 16q-31 23-53 55-23 34-22 58 0 14 13 39 13 22 54 38l77 5 123-54q96-41 122-43 32-3 66 25 33 27 33 53-1 25-46 57-45 32-101 47-45 12-132 55l-136 69q-45 21-80 53l-72 58q-65 45-186 69L0 1575V974L93 819q64-119 214-276Q433 411 484 381q26-15 69-79 42-63 57-69" fill="#fff"/><defs><linearGradient id="A" x1="-16384" x2="16384" gradientUnits="userSpaceOnUse" gradientTransform="matrix(0 .03.03 0 1387 521)"><stop offset="0" stop-color="#fff" stop-opacity=".97"/><stop offset="1" stop-color="#e2e3e4" stop-opacity="0"/></linearGradient><linearGradient id="B" x1="-16384" x2="16384" gradientUnits="userSpaceOnUse" gradientTransform="matrix(0 .03.03 0 1383 1438)"><stop offset="0" stop-color="#d5d5d7" stop-opacity="0"/><stop offset="1" stop-color="#fff" stop-opacity=".96"/><stop offset="1" stop-color="#e1e2e2"/></linearGradient><linearGradient id="C" x1="-16384" x2="16384" gradientUnits="userSpaceOnUse" gradientTransform="matrix(0 .03.03 0 1694 525)"><stop offset="0" stop-color="#fff" stop-opacity=".97"/><stop offset="1" stop-color="#e2e3e4" stop-opacity="0"/></linearGradient><linearGradient id="D" x1="-16384" x2="16384" gradientUnits="userSpaceOnUse" gradientTransform="matrix(0 .03.03 0 1690 1442)"><stop offset="0" stop-color="#d5d5d7" stop-opacity="0"/><stop offset="1" stop-color="#fff" stop-opacity=".96"/><stop offset="1" stop-color="#e1e2e2"/></linearGradient><linearGradient id="E" x1="-16384" x2="16384" gradientUnits="userSpaceOnUse" gradientTransform="matrix(0 .02.02 0 736 690)"><stop offset="0" stop-color="#fff" stop-opacity=".97"/><stop offset="1" stop-color="#e2e3e4" stop-opacity="0"/></linearGradient><linearGradient id="F" x1="-16384" x2="16384" gradientUnits="userSpaceOnUse" gradientTransform="matrix(0 .02.02 0 733 1304)"><stop offset="0" stop-color="#d5d5d7" stop-opacity="0"/><stop offset="1" stop-color="#fff" stop-opacity=".96"/><stop offset="1" stop-color="#e1e2e2"/></linearGradient><linearGradient id="G" x1="-16384" x2="16384" gradientUnits="userSpaceOnUse" gradientTransform="matrix(0 .02.02 0 941 692)"><stop offset="0" stop-color="#fff" stop-opacity=".97"/><stop offset="1" stop-color="#e2e3e4" stop-opacity="0"/></linearGradient><linearGradient id="H" x1="-16384" x2="16384" gradientUnits="userSpaceOnUse" gradientTransform="matrix(0 .02.02 0 939 1306)"><stop offset="0" stop-color="#d5d5d7" stop-opacity="0"/><stop offset="1" stop-color="#fff" stop-opacity=".96"/><stop offset="1" stop-color="#e1e2e2"/></linearGradient></defs></svg>