<?xml version="1.1" encoding="UTF-8"?><svg xmlns="http://www.w3.org/2000/svg" xmlns:xlink="http://www.w3.org/1999/xlink" version="2.0" width="100pt" height="100pt" viewBox="0 0 2000 2000" clip-rule="evenodd" fill-rule="evenodd" preserveAspectRatio="none"><path d="M265 505v16l-11 6-13-3q-9-14 3-23 13-8 21 4" fill="#fff"/><path d="M346 499q11-2 10 8l-8 2-2-10" fill="#fff"/><path d="M1826 685q17-15 29 5 12 20 0 39-41 10-29-44" fill="#fff"/><path d="M1891 723l-7-16q10-24 21-3 10 20-14 19" fill="#fff"/><path d="M478 748l8 3q5 0 4 6h-8l-4-9" fill="#fff"/><path d="M543 768l-3 27-4 3q-12-1-19-11-6-11-1-25 18-3 27 6" fill="#fff"/><path d="M1620 768l-2 14-10-2-7-4V765l10-3q7 2 9 6" fill="#fff"/><path d="M361 837q-3 25-28 25-26 0-25-22 1-19 23-19 22-1 30 16" fill="#fff"/><path d="M914 1183q5 2 6 11 2 10-6 8l1-9-1-10" fill="#fff"/><path d="M1687 1200l7 2-4 4q-5-2-3-6" fill="#fff"/><path d="M967 1244q4 1 5 13 2 11 7 12l-8 11-12 5q7-13 8-41" fill="#fff"/><path d="M866 1252l5 4-3 7-4-4 2-7" fill="#fff"/><path d="M952 1258l-2 6-7-1q0-7 9-5" fill="#fff"/><path d="M418 1283l7 5q-1 5-5 2-4-3-2-7" fill="#fff"/><path d="M981 1305q1-5 5-2l2 7-7-5" fill="#fff"/><path d="M904 1310q5-7 5 2 0 9-5-2" fill="#fff"/><path d="M497 1316q9-1 7 11-7-4-7-11" fill="#fff"/><path d="M883 1324l3-3h4q4 4-3 8-7 3-4-5" fill="#fff"/><path d="M1204 1338q3-6 13-5 11 0 13-6l7 3-5 5h-9l5 6 7 3-11 5-11 3-3-5-2-6 8 2 4-5-6-1-10 1" fill="#fff"/><path d="M868 1330h5l-7 5 2-5" fill="#fff"/><path d="M1031 1333l4 4 3 4-5 1-2-9" fill="#fff"/><path d="M1168 1344h7v5h-7v-5" fill="#fff"/><path d="M1275 1352l-4 11q-5-1-2-7 2-6 6-4" fill="#fff"/><path d="M1158 1357l7 12q1 10-7 11l4 2 3-2 3 4 2 4-12 8-6-2h-6v-17l9-2q3-3 5-4l-4-7 2-7" fill="#fff"/><path d="M1206 1385l-7-3q-3 5 2 6l5-3m2-8v14q-4-2-4 3-11-2-10-14 2-3 14-3" fill="#fff"/><path d="M1232 1382q12 8 10 20-15-12-10-20" fill="#fff"/><path d="M1247 1388q2-6 7 0 5 6 0 8l-3-4-4-4" fill="#fff"/><path d="M385 1391q1-5 6-3l3 8q-3 1-5-2l-4-3" fill="#fff"/><path d="M1029 1396q5-5 15-3 10 3 9 12l-13-4-11-5" fill="#fff"/><path d="M1170 1396l9 1 5 5-7 2q-5-2-2 1-4 5-6 0-2-4 1-9" fill="#fff"/><path d="M1240 1407l-8-5q1-5 5-2 5 3 3 7" fill="#fff"/><path d="M667 1407q-2 5-7 3l-10-3q1-6 7-4l10 4" fill="#fff"/><path d="M1141 1405l8 2-3 6h-5v-8" fill="#fff"/><path d="M377 1421l8-2 7 5q-4 4 0 7l2 10q-20-18-12-17l-5-3" fill="#fff"/><path d="M545 1427h-5v-6q5-1 5 6" fill="#fff"/><path d="M1043 1424h5v6h-5v-6" fill="#fff"/><path d="M1038 1427v8h-7q-4 0-2-5 5-4 9-3" fill="#fff"/><path d="M557 1441l-9 5q-2-5 2-5h7" fill="#fff"/><path d="M1074 1446q2-5 6-3l-1 6-5-3" fill="#fff"/><path d="M574 1457h5v6h-5v-6" fill="#fff"/><path d="M380 1482l14-1 12 12q-14 4-14 17-6-4-4-11l4-14h-5q-4 1-2 6v5h-8q4-13-2-17l-3 14q-1 9-9 6 5-8 1-19l-3-20q20 6 19 22" fill="#fff"/><path d="M591 1477q-1-6 4-6l3 3-7 3" fill="#fff"/><path d="M409 1477q4-1 4 5l-2 3-2-8" fill="#fff"/><path d="M423 1477l11 5 6 8-9-2q-5 0-3 8-4 1-6-2l-4-4q-1-4 3-6l2-7" fill="#fff"/><path d="M842 1488q-1-5 5-3 5 1 2 5h-5l-2-2" fill="#fff"/><path d="M1460 1493l-7-3-2 2-1 4q-4 0-2-5l2-6q11 2 10 8" fill="#fff"/><path d="M409 1490h4v6h-4v-6" fill="#fff"/><path d="M629 1499h5v5h-5v-5" fill="#fff"/><path d="M962 1501l-4 7q-2 5-1 10l-3-6-2-8q3-3 10-3" fill="#fff"/><path d="M1443 1524l-2-3 3-8-1-12q3 3 4 2l6-2-5 11q-3 8 0 9l-5 3" fill="#fff"/><path d="M660 1504q15-3 17 17l-17-17" fill="#fff"/><path d="M552 1518l-5-2-7-1 8-5 4 8" fill="#fff"/><path d="M574 1513h19l-8 6 6 5-9 2-8-2v-11" fill="#fff"/><path d="M1101 1518q4-1 4 8l-4-2v-6" fill="#fff"/><path d="M502 1521q8-2 10 11-11 1-10-11" fill="#fff"/><path d="M820 1529l-8 1-11-4q2-7 8-3l11 6" fill="#fff"/><path d="M550 1524h7v8q-8 0-7-8" fill="#fff"/><path d="M974 1529l-10 6q0-7 3-7l7 1" fill="#fff"/><path d="M397 1529q10-1 12 17-13-1-12-17" fill="#fff"/><path d="M382 1532v9l3 5q-8 11-12-4-3-14 9-10" fill="#fff"/><path d="M775 1532l5 8-7-1 2-7" fill="#fff"/><path d="M447 1543q1-5 6-3l8 3-5 4-9-4" fill="#fff"/><path d="M780 1544q8 2 9 10l-12-3-9-2q5-7 12-5" fill="#fff"/><path d="M876 1546q-1-5 4-3l3 6h-5l-2-3" fill="#fff"/><path d="M650 1549l6 9q1 7-6 7v-16" fill="#fff"/><path d="M854 1551q4-4 13 0l11 9-10-3-14-6" fill="#fff"/><path d="M971 1557q0-3 5-3h7l-12 3" fill="#fff"/><path d="M713 1560l9 1 7 4q-3 11 6 15 10 4 11 7-2 4-8 0l-11-2-5-15-9-10" fill="#fff"/><path d="M761 1562h4v6h-4v-6" fill="#fff"/><path d="M377 1568h8l-3 8h-5v-8" fill="#fff"/><path d="M1240 1568q5 3 1 7l-9 4 4-5 4-6" fill="#fff"/><path d="M389 1576l4 7-6 4 2-11" fill="#fff"/><path d="M758 1582h7l-2 11q-5-1-5-11" fill="#fff"/><path d="M595 1585q5-1 6 4 2 6 6 4l-10 1q-7-5-2-9" fill="#fff"/><path d="M797 1587q-1 9-10 0l4-3 6 3" fill="#fff"/><path d="M878 1585l9 4 8 7q-2 8-10 2-7-6-7-13" fill="#fff"/><path d="M1321 1587q4 2 0 8l-7 6q-1-5 3-8l4-6" fill="#fff"/><path d="M638 1593q1-5 6-3l6 3-4 2-8-2" fill="#fff"/><path d="M931 1590q26 15 33 36l-17-12q-9-10-7-13l-6-2q-4 0-3-9" fill="#fff"/><path d="M816 1596l27 4 23 15q-27-4-50-19" fill="#fff"/><path d="M643 1596l4 7 1 9-19-11q3-7 14-5" fill="#fff"/><path d="M543 1604q-3 3 0 6l2 8-5-2-7 2q-3-14 10-14" fill="#fff"/><path d="M824 1615l-1 6 9 4q6 3 5 9l-12-4-12-4 4-4 3-4-16 4q-15 5-17-7l20-1q11-7 18-7-2 3-1 8" fill="#fff"/><path d="M557 1609q5-3 5 5l-5 4v-9" fill="#fff"/><path d="M1251 1609l2 9-4 8q-5-3-2-8l4-9" fill="#fff"/><path d="M1560 1609l2 5-2 7q-4-1-2-6l2-6" fill="#fff"/><path d="M576 1615l-4 3h-5l3-6q4 0 6 3" fill="#fff"/><path d="M990 1612l5 3q-1 5-5 3-4-2 0-6" fill="#fff"/><path d="M603 1615l5 3 2 5q-9-1-7-8" fill="#fff"/><path d="M638 1632h-9q-1-8 4-7 6 0 5 7" fill="#fff"/><path d="M411 1640l-2 3h-8l1-7q-3-5-5 1-6-13 4-9 9 3 10 12" fill="#fff"/><path d="M627 1637l-14 1-15-4q6-8 15-7l14 10" fill="#fff"/><path d="M885 1626q0 5 6 9l6 8-21 1q-14-7-20-4 5-9 12-9l17-5" fill="#fff"/><path d="M797 1637q-13 0-12-8l8 2 4 6" fill="#fff"/><path d="M495 1632h12q1 8-5 7-7-1-7-7" fill="#fff"/><path d="M514 1634q0-1 3-2h4q4 3-3 7-6 3-4-5" fill="#fff"/><path d="M557 1632h7v5h-7v-5" fill="#fff"/><path d="M734 1634h7v6h-7v-6" fill="#fff"/><path d="M969 1637q4 4 0 11l-7 9 2-11 5-9" fill="#fff"/><path d="M442 1643q1-3 10-3l-4 5-6-2" fill="#fff"/><path d="M490 1640q10-2 12 14l-12-14" fill="#fff"/><path d="M1187 1648q1 9-5 12l-12 5-9 10-12 1q2-14 14-23 11-9 24-5" fill="#fff"/><path d="M466 1651q0-4 9-3 8 0 5 6l-14-3" fill="#fff"/><path d="M811 1648q2 3 5 3v6H806l5-9" fill="#fff"/><path d="M1398 1654l-10 5q-6 4-7-5 4 6 9-6l8 6" fill="#fff"/><path d="M492 1651l-3 3-1 5-4-5q2-4 8-3" fill="#fff"/><path d="M413 1657q1-5 6-3l6 3-2 8-2-8h-8" fill="#fff"/><path d="M854 1654q8 2 3 6l-8-1 5-5" fill="#fff"/><path d="M430 1659q-1-4 6-3 7 0 4 6l-10-3" fill="#fff"/><path d="M595 1659h10q6 0 5 6H600q-6 0-5-6" fill="#fff"/><path d="M830 1662l6-1 4 9q-4 2-6-3l-4-5" fill="#fff"/><path d="M1517 1659l5 9-8 1-6-7q5 7 9-3" fill="#fff"/><path d="M1524 1659h5v6h-5v-6" fill="#fff"/><path d="M502 1662l10 3-6 5q-5-1-4-8" fill="#fff"/><path d="M746 1665q8 2 3 6l-8-1 5-5" fill="#fff"/><path d="M1184 1668q1-3 4-2l4 2-4 2-4-2" fill="#fff"/><path d="M392 1670l7-1 7 4q-3 8-14-3" fill="#fff"/><path d="M780 1670l7-2v8q-3 1-4-2l-3-4" fill="#fff"/><path d="M801 1668h6l4 2-6 5q-5 0-4-7" fill="#fff"/><path d="M835 1676q-10-2-10-8 11-2 10 8" fill="#fff"/><path d="M945 1679l-10-3q1-6 6-5 5 1 4 8" fill="#fff"/><path d="M538 1679v-6h7v8q-4 1-7-2" fill="#fff"/><path d="M1378 1673h5l3 3-9 7-13 1 8-5 6-6" fill="#fff"/><path d="M461 1679q1-3 6-3h9l-15 3" fill="#fff"/><path d="M598 1676q10 2 9 8-10 2-9-8" fill="#fff"/><path d="M646 1676h4v5h-4v-5" fill="#fff"/><path d="M691 1676h7v5h-7v-5" fill="#fff"/><path d="M708 1679q-1-5 5-3 5 1 2 5h-5l-2-2" fill="#fff"/><path d="M904 1679l-4 7-8 4q6-18 12-11" fill="#fff"/><path d="M837 1684l-3 6-6-3q0-4 3-5l6 2" fill="#fff"/><path d="M1527 1684q1-4 3-2l6 2q0 9-9 0" fill="#fff"/><path d="M800 1692l-23 6q1-11 13-13l26-1q-3 6-16 8" fill="#fff"/><path d="M548 1687l11 3h12q-6 20-19 14 2-7 10-6-1-3-9-3-7-1-5-8" fill="#fff"/><path d="M770 1690q6 1 1 8-4 8-6 0v-5q5 5 5-3" fill="#fff"/><path d="M603 1695q-1-4 6-3 6 0 3 6l-9-3" fill="#fff"/><path d="M624 1693q5-2 7 3l7 2q-1 7-8 5-7-3-6-10" fill="#fff"/><path d="M797 1693h12l4 5-2 3-2 3-6-6q-5-2-4 6l-2-11" fill="#fff"/><path d="M820 1695l5 9-7-2 2-7" fill="#fff"/><path d="M995 1695l-7 6 2-5 5-1" fill="#fff"/><path d="M1065 1695l9 3q1 4-6 3-6 0-3-6" fill="#fff"/><path d="M844 1701q-5 8-6 0 0-7 6 0" fill="#fff"/><path d="M849 1698h12q3 7-6 7-8 0-6-7" fill="#fff"/><path d="M641 1701l2 4-2 4-1-4 1-4" fill="#fff"/><path d="M1369 1704q10-2 9 8-12 2-9-8" fill="#fff"/><path d="M813 1706q1 6-4 6l2 8-12-8q1-3 6-4l8-2" fill="#fff"/><path d="M1005 1712q-3-6 4-6 6 0 3 6h-7" fill="#fff"/><path d="M840 1717l-10 3-10-3q1-6 9-4l11 4" fill="#fff"/><path d="M844 1712q8-1 8 8h-8v-8" fill="#fff"/><path d="M1192 1712h7v5h-7v-5" fill="#fff"/><path d="M1105 1731l-7 3-7-3q1-5 6-4l8 4" fill="#fff"/><path d="M636 1729h8l6 2q0 4-8 4-8 0-6-6" fill="#fff"/><path d="M1065 1734h4v6h-4v-6" fill="#fff"/><path d="M916 1742l8 1 4 10-12-11" fill="#fff"/><path d="M993 1745q9 0 9 3v5l-6-1q-3 1-3-7" fill="#fff"/><path d="M981 1759l9 3q1 4-6 3-6 0-3-6" fill="#fff"/><path d="M1014 1773l-10-1-9-2 3-8q14-2 16 11" fill="#fff"/><path d="M1129 1767q0-4 7-3 6 0 3 6l-10-3" fill="#fff"/><path d="M1098 1776q11-2 10 8-10 2-10-8" fill="#fff"/><path d="M1207 1787q3-5 6-3 2 7-3 9l-9 2-1-7-1-7-5-3h9l8-2-7 11q1 4 3 0" fill="#fff"/><path d="M1089 1789q5-7 4 2 0 9-4-2" fill="#fff"/><path d="M1343 1792l4-3q5 1 3 6h-5l-2-3" fill="#fff"/><path d="M679 1809h5l2 8h-9l2-8" fill="#fff"/><path d="M670 1812h4v5h-4v-5" fill="#fff"/><path d="M940 1814l-1 9 11-3-6 6q-6 1-6 8-4-4-5-12 0-9 7-8" fill="#fff"/><path d="M1122 1817l-3 6q-4 0-6-3 0-4 3-5l6 2" fill="#fff"/><path d="M674 1820q8-1 8 8h-8v-8" fill="#fff"/><path d="M698 1823l-12 5 5-7q4-2 7 2" fill="#fff"/><path d="M914 1820q10-2 9 8l-4 2-5 1v-11" fill="#fff"/><path d="M732 1825l7-2-1 10q-1 4-9 4 9-11 3-12" fill="#fff"/><path d="M995 1828q0-3 5-3h7l-4 3h-8" fill="#fff"/><path d="M722 1834l-5 6-7-1 6-6 6 1" fill="#fff"/><path d="M674 1837q2-5 5-2l5 4q-1 7-10 6l2-5-2-3" fill="#fff"/><path d="M945 1839l5 9-7-3 2-6" fill="#fff"/><path d="M710 1845l7 1-2 7-5-8" fill="#fff"/><path d="M816 1848l7 2v17l-10-3 4-7-1-9" fill="#fff"/><path d="M684 1856q1-4 7-3l7 3-7 3-7-3" fill="#fff"/><path d="M849 1853l7 1 5 2-9 8-3-11" fill="#fff"/><path d="M679 1870q-7 0-7-9h7v9" fill="#fff"/><path d="M1294 1570q7-8 3-16 7 2 8 11l-3 14q-4-1-2-4l2-7-7 8-5 9-5-3-2-3-15 19q-10 1-20 12-9 12-20 11v13q5-12 4-1l-7 7-2-19 10-7q4-6 9-2 3-10 19-19 16-10 19-20 7 4 14-3" fill="#fff"/><path d="M1254 1593l-5 5-5 6q-5-4 0-8l10-3" fill="#fff"/><path d="M1270 1611q-6-1-2 4l-12 7 1-5 2-10 2 5 12-13q8-10 14-6l-6 9-10 5q5 5-1 4" fill="#fff"/><path d="M1034 1626l2-3q1-3 1 1 1 5 4-1l1 2-1 1 2 3q0 6-9-3" fill="#fff"/><path d="M952 752l22-4q12 13-3 45l20 23 19 24-2 28-3 27q-1 9-10 17l1 90q-1 50 6 79 13 44 27 63 5 7 14 11 34 28 58 64l13 26q6 16 13 24l13 10 13 12h42q24 0 35-8l18 1 11-10q-3-27-3-58l28-32q15-20 11-51 6-14 20-9 14 5 13 23l-11 17q-11 10-13 22v40l-2 40 31 29 24 35q-6 9-15 4l-19-10-1-15-1-10-9-1-8 4 2-6 3-5-4-3-6-3-9 13q-2 6 5 15-5 2-8 9-3 7 3 8l12-22 2 15v12l-4 1-1-8-7 32q-4 21-2 34-5-1-5-20l-2 8q-3 0-3-6v-10q6 6 7-6l3-22q-5-1-7-11l-5 8q-3-4 2-12l3-18q-4-1-6 3l-6 2 3-6 1-7-5 6-9-4q0 9 7 9l-5 17q-5 10-12 5l-1 21-1 29h-12l-9-3 4-11-2-11 16-18q3-13-14-16l11-4 11-7q1-10-8-9-10 2-11-4l-5 8-5-8-13 5-13 6-27-4-21 1-5-7-5-7-12 1-12-12q-3 4 3 10l5 12-17-5-1-8-2-6 7-9-2-16q-1-2-2-1l-3-2q-1-3 1-5h2q-1-8-9-13l-6-10q-11 4-18-10l-10-26q-6 3-5 11v14q-11 1-10-15 0-17 8-15-14-9-29-3l5 17v16q6-1 5 7-1 8 7 4l-2 12q1 8 6 8l-16 3q5-3-2-11l-8-17-17-3 2-9 3-8 3 7 2 7 3-21q-2-12-8-12 0-6 2-5 3 3 5 2-2-12-7-14l2 9-5-20q-1-12-14-11l-3 14q-1 10-9 11-1 9 10 11 12 2 14 6l-11 5q-9 1-10-5l-11 25q-8 14-6 30-11-16-12-30l-17 5 1 7 2 7q-5 4-10 0l2 8-2 6-5 1-7-1q-10 26-10 33l-7 4-7-1q-4 19-17 19l5-2q-7-1-19 10l-22 14-1-7q0-3-6-4 7-5 5-13 10 3 19-14 10-16 22-11-1-7 12-22l12-23 6-7 3-12 2 3 1 5 7-15 5-12q-1-5-4-3l-6 3v-9q-3-6 0-10-7 11-7-4l-7 14-10 14 7 5 3 9-12 1-7 13 4 5-4 9-5 11-3-9-13 13q-9 4-3 12l-13 8q-10 3-9 12l-10 1-9 10-34-4q-23 1-31-7 2-9-5-9 2-6 8-2-6-8-3-39l1-4 4 1-3-4-7 1q5 19-4 38l-15 32q-7-3-14 0 5 5-5 14-13 10-12 19l-9-2-10-1 14-28 30-20q11-12 13-32l-2-14q-1-9 6-20l11-19 22-15 16-24-1-17-1-19q2-9 10-21l11-17q-3-25 13-36 16-12 26 8l-11 61q-9 30-28 41-2 57-31 67-11 30-2 63l39-9 33-18q24-23 43-80l1-13q1-8 8-10l41-94v-33q-14-31-12-50l10-25 9-22-4-26-8-29V842l-5-11 2-31 1-35 14-13m6 87q3-3 9-5l-4-8q-5-1-8 3l3 10m1 42q6-1 5-14-1-12-7-13-13 27 2 27m348 261-2 10q-1 5 4 6l2-8 3-8h-7m12-9h-5v6h5v-6m-50 147q-1 10 4 14l7-6q2-3 7 0v-19q-8 5-6-4 3-10-3-10 2 7-3 8l-7 3 1 14m21-43-5-15-10-3 4 21q4 11 16 12l-5-15m-29 87q5-4-3-4-8 0-4 4h7m-24 39q5 1 8-4 4-4-1-7l-4 4-5-4 2 11M993 1095q-1 4-5 2 2 12 7 11l3-13q2-8-5-9v9m14 31q1 5 5 2l-2-7-3-7v12m-12-5q-1 8 5 9l3-10-3-9q-4 3-5 10m-162-42 2-7q-4-2-7 4-3 6 2 7l3-4m-29 72q-3 7 0 7 9-3 7-14-4-1-7 7m16-18 6-4 2-7q-6-1-8 11m108-5-5 14q-1 11 3 16 0-3 7-3l-2-8 4-8 2 6-2 5 13-14 2-19q-6-1-12 7-6 7-10 4m49-2q-3 2-1 7l7-4q3-5-2-7l-4 4m-20-22 2-7-7 5q-3 6 0 6 0-2 5-4m10 43v19H957l-5 9 3 25 10-12q6-8 16-5-4-10-2-18l4-21-16 3m-24 58h-8l-1 7 4 4q-1-4 3-5l2-6m-15 25 3-7q4-2 0-4l-4 6q-3 3 1 5m0 11h5v-5h-5v5m-131-55q-4 6-6 3l-6-6-7 12-10 10 4 6 3 5q-1-10 10-14l12-11 2 6-2-11" fill="#fff"/><path d="M1285 1352l-5 3q1-9-5-17 13 0 10 14" fill="#fff"/><path d="M998 1214q1-6 5 1 4 7-1 10l-2-5q1-7-2-6" fill="#fff"/><path d="M1055 1277v-8l-8 5-9 3 5 8q-6 8-12 9-12-29 7-39 18-10 31 11v25q-4-3-5 6l-1 4 4 16q1 17-12 18 6 6 0 4l-12 2q-9-4-7-21 2-16-7-18 3-8 8-3 7 7 11 6l-10-8q0-5 7-6l10 3 5-14q-6-1-10 8l-4-11q5-4 9 0m-5 42q0 9-9 0-3 17 12 14v-9q0-6-3-5" fill="#fff"/><path d="M950 1280l-5 3 7 2q-1 5-6 3l-8-3q1-2 12-5" fill="#fff"/><path d="M1000 1288l4-4 3-4q5 0 4 6-1 5 1 5-1 4-4 0l-8-3" fill="#fff"/><path d="M958 1337q5-2-1-4-3 2-2-4l-3-8-5 6q-5-3 3-6-11-4-15 3 8 0 8 9l-5 2-2-7-5 2q4 15 16 11l-3 3-1 5 12-3-2-5-3-3 8-1m11-4q-6 15-2 13l-22 11-9-12-13-1 3-17q-10 6-13-18-3-22 18-21l-3-3q-7-3 1-2l4 5q13 2 21 15l13 24 2-11q9 0 9 7l3 12q-4-1-5 3l-5 3 3-11q-4 8-5 3m-31-17-10-3-2 8 12-5" fill="#fff"/><path d="M955 1302q0-5 4-2l3-1 1 4 1 5-3-1q-3-6-6-5" fill="#fff"/><path d="M986 1335q-5-8-1-14l13-13q0-3-5-3 7-5 5-14 11 3 6 16l-9 14 1 3h2l-7 4q-6 3-5 7" fill="#fff"/><path d="M746 1299q4 2 0 9-4 3-6-3-2-3-3 0-5-6 2-5l7-1" fill="#fff"/><path d="M1019 1299l-1 5-4 4-1-5q2-5 6-4" fill="#fff"/><path d="M1160 1324q-22 7-21-11 11 10 29 11l-4 5-6 4 2-9" fill="#fff"/><path d="M536 1424l6 6 8 2-4 3q-3 0-3 3l-5-7q-2-5-7-4v-8q-3-1 2-14l7 5-4 14" fill="#fff"/><path d="M1316 1321v9l-7 8 2 8 3-5q5 5-1 11l-9 11-5-11 9-15 8-16" fill="#fff"/><path d="M1321 1346l1 7q1 8 11 4l-7 25-10-4-9-4 6-10q6-5 3-15l5-3" fill="#fff"/><path d="M445 1405q-1 10-10 11l3-6q3-4-5 0-4-1 2-4l10-1" fill="#fff"/><path d="M457 1465v9l3-4 4 1-4 3q-2 2-1 5l-4-6 2-8" fill="#fff"/><path d="M476 1432q-9-6-12-19l7 8 5 11" fill="#fff"/><path d="M552 1418l14 8 13 9q10 12-24-14l-9-1-6-4 3-11 2 2 4 6 3 5" fill="#fff"/><path d="M993 1753q-1 4-5 2l-9-2v-8l7 4q2 5 7 4" fill="#fff"/><path d="M998 1737l-5 7-7 4q-1-9 12-11" fill="#fff"/><path d="M962 1690l-2 9 4 5q-5 9-7-2-2-11 5-12" fill="#fff"/><path d="M847 1729q1 13-5 11v-6l5-5" fill="#fff"/><path d="M406 1706q11 2 10 11-5 2-5-8-5 5-5-3" fill="#fff"/><path d="M1263 1366q7 1 8 15 1 15 9 18-11 8-17-33" fill="#fff"/><path d="M775 1405q8 1 0 9-7 8 0-9" fill="#fff"/><path d="M1268 1413q0 10 3 14-1 5-7-6-6-9 4-8" fill="#fff"/><path d="M1271 1435q7 6-2 8l-8-5-2 3q-4-5 3-4l9-2" fill="#fff"/><path d="M593 1463q6 1 16 7 13 6 18 12-3 4-10 0-9-5-14-3 1-7-10-16" fill="#fff"/><path d="M947 1471l-6 1-6-1q-4-5 3-4l9 4" fill="#fff"/><path d="M718 1490l-15-2-9-9q-2 1-1 3l1 3q0 6-3-1-4-6 0-5l-5-8q10-4 20 0-12 1-5 6l19 5-2 8" fill="#fff"/><path d="M1438 1477l-9 5q0-1 7-3-4-7 2-2" fill="#fff"/><path d="M701 1490l-4 3q-3 0-3 3-4-1-1-4l8-2" fill="#fff"/><path d="M562 1507l-13-1-11-10v5l-7-2q6-9 16-3l15 11" fill="#fff"/><path d="M801 1540q-2-11-19-15-19-5-24-15-5-1-7 4l-5 7 12 5-4 4q-3 1-3 5-1-5-10-6-7-1-4-3 0-2-3-2l11-7 8-7-12-5q-8-2-9-9l12 2q6 1 0-2 4-4 11 4l10 15q13-5 31 10 18 15 27 12 2 11-9 5l-13-2" fill="#fff"/><path d="M828 1540l1 5-6 4 2-5 3-4" fill="#fff"/><path d="M507 1499q2-4 9-3l10 3-7 5-1-4-11-1" fill="#fff"/><path d="M605 1504q8-6 29 9-1 6-9 2-10-4-13 0 0-7-7-11" fill="#fff"/><path d="M1096 1507q-1-4 5-3l4-3 10 16 7 18-11-16q-6-11-15-12" fill="#fff"/><path d="M533 1510l1 5-1 11-2-5q-3-4-10-5l-9-6 12-2 9 2" fill="#fff"/><path d="M636 1513l16 3 15 10-15-1-16-4 2-5-2-3" fill="#fff"/><path d="M1388 1598l2 4-2 7-5-5 2-2 1 2 2-6" fill="#fff"/><path d="M1390 1678l8-8 4 8-4 9q-4 1-1-4 3-4-2-4l-2 6-3 5h-4q-1-7 4-12" fill="#fff"/><path d="M366 1549l-10 1-10 1 5-5 5-6q-3-5-10-5 3-6 8-5l12 2q-8 4-4 12l4 5m7 2v10l-3 7q-5 1-5-6l1-12 7 1" fill="#fff"/><path d="M765 1551q-6-6-7 0l-1-4 1-4q-6 0-12 6-3-1 0-3l3-6q8-4 14-5l2 7v9" fill="#fff"/><path d="M967 1551v-11q-3 0-3 3-5-7 3-4 7 3 7 10 13-8 5 0l-12 2" fill="#fff"/><path d="M1338 1626l10-11q7-5 4-14 12 4 12 11l-8 6-6 3 4 24h-7l3 12-3 11 5-5 7 2-2 2-3-2-2 4-5 1 8 2q5 0 7 4l2-3-2-3q2-6 4 1l-2 8-10-1-11 1 1-10 1-10q-5 1-4 6l-1 8q-2 3-1-3l-1-11h-41q-8 11 0 9l-10-2q-9-6 3-4l-4-3h-6l5-5-5-6 36-5q23-2 27 14l2-7-2-10-6 2q-1 1-4-2l2-3v-5l5 4 5 4-2-9-5-5" fill="#fff"/><path d="M904 1568v-6q5-5 14 3l13 3-3 14q-9-9-14-3 0-10-10-11" fill="#fff"/><path d="M823 1573h2l3-5 21 8-7 4q-5-2-5 5l-5-7-9-5" fill="#fff"/><path d="M619 1573q4 0 1 4-3 5 2 5-2 4-8 0-6-5-11-3 0-5 6-6 5 0 8 3l2-3" fill="#fff"/><path d="M545 1585l3 5q6-3 3 0-10 7-6-5" fill="#fff"/><path d="M902 1590l19 15q9 11 7 21l10 9q6 6 2 13l-21-29-17-29" fill="#fff"/><path d="M557 1593l-5 5q1 5 5 0l2-8h20l-13 8-14 6-1-7q1-5 6-4" fill="#fff"/><path d="M691 1596q0-4 3-1 3 1 2-5 8 1 12 8l7 14q-30 0-31-16l6 2 4 3-3-5" fill="#fff"/><path d="M603 1601l12 3-6 4-9 1q-3-1 0-2 5-1 3-6" fill="#fff"/><path d="M368 1637q0 3 7 3-1 7-9 5v-13q10-5 15 0l11 11q1 16-12 16l2-8h-5l4-2 4 2 2-6-9-5q-6-6-10-3" fill="#fff"/><path d="M461 1645l7-6 5-7q5-2 6 3l4 5-22 5" fill="#fff"/><path d="M852 1640q-11 11-15 5 4-11 12-11l3 6m0 11q-4-1-2-4l2-6v10" fill="#fff"/><path d="M904 1637q7 1 14 13l15 12q0 6-14 6 5-7-5-12-12-8-10-19" fill="#fff"/><path d="M1539 1637q-5 5-3 13v12h5q-4 5-8-2-4-8-9-3 9-18 15-20" fill="#fff"/><path d="M413 1643h9q5 0 3 5-20-1-14 17H401l5-6q-6-3 0-6 9-3 7-10" fill="#fff"/><path d="M789 1654l-12 3q0-9 3-14l3 4 4 4 2-6q5 4 0 9" fill="#fff"/><path d="M646 1648q14 2 14 11l-9-4-8 1 3-8" fill="#fff"/><path d="M689 1718l-7-1q0-2 4-2l-9-2q-9 2-10-9l-5 2 3 11-3-2-9-3q0-4 5-5l7-3q1-11-12-20l5-7 2-12q12 6 12 16-7-1-7-5-3 1 0 4 4 4 0 7l7-3-5 9 4 4q1 10 6 12 8-10 17-8-3-6-8-5l-12-1q5-8 13-5h14l7 8 2-8q6-1 8 11-11 0-15 5-3-7-9-3l-10 1q-2 5 2 5l5 3-2 6" fill="#fff"/><path d="M413 1676v-8q6-2 8 3l2 8q-1 3-3-1l-7-2" fill="#fff"/><path d="M861 1670q2 12-8 8l-11-2q-3-6 6-5l13-1" fill="#fff"/><path d="M1524 1670l2 6-2 8q-6 0-4-11l2 6 2-9" fill="#fff"/><path d="M538 1679q-2 5 4 5 5 0 3 6l-12-4-17 1q4-6 11-7l11-1" fill="#fff"/><path d="M552 1676q-1-4 10 2 13 8 14-2 5 9-7 7l-17 1 2-5-2-3" fill="#fff"/><path d="M990 1673l1 3 2 3-7 3q-8 0-5-6l9-3" fill="#fff"/><path d="M729 1681l14-1q11 2 15-4 1 13-10 11l-19-6" fill="#fff"/><path d="M650 1684l-4 6 7 5-7 6-3-3 1-8q0-6 6-6" fill="#fff"/><path d="M1366 1687l3 6 5-6 9 3-2 2-3-2-3 6-6 2-3-11" fill="#fff"/><path d="M533 1690l-1 7-8 7q-5-4 0-8l9-6" fill="#fff"/><path d="M569 1704l3-5 2-6 14 6 19 5 3 5H598q-10-3-5-8l-13 3q-4-6-11 0" fill="#fff"/><path d="M1079 1693l14 13-9-1q-7-5-5-12" fill="#fff"/><path d="M468 1704l7-1 5 6q-5 2-12-5" fill="#fff"/><path d="M1304 1706h7l-12 14 1-2 4-12" fill="#fff"/><path d="M715 1706l6 1 13 8-9 2H710l6-5-1-6" fill="#fff"/><path d="M1022 1709h2q16-2 10 2l-12-2" fill="#fff"/><path d="M1184 1723q-4 0-9 3l2-7 3-4 4 4 3 4-2 2-1-2" fill="#fff"/><path d="M1108 1720q1-8 3 0l-3 6-1 1 1-7" fill="#fff"/><path d="M897 1751l-7-3-5-6 4-5 3-6 7 9h-2q-1-6-5-3l3 7 2 7" fill="#fff"/><path d="M923 1809l-1 5-3 3q-4 1-1-5 2-5 5-3" fill="#fff"/><path d="M1074 1792l-2-3v-5q5 6 12 5-1 5-6 2-4-3-4 1" fill="#fff"/><path d="M734 1803l3-11q12 14 4 22-3 0 0-5l-7-6" fill="#fff"/><path d="M749 1812q-1-4 4-2l3 7q-3 1-4-2l-3-3" fill="#fff"/><path d="M569 1823l2 5 8-3v9q-10-2-10-11" fill="#fff"/><path d="M698 1828q-4 12 10 11l-2 9h-5l-7-12q-5-6 4-8" fill="#fff"/><path d="M790 1837q-6 3-5 5-5-3-1-5l5-6 1 6" fill="#fff"/><path d="M638 1828l11 1 9 2q-2 3-1 9l-2 8-11-6q-7-5-6-14" fill="#fff"/><path d="M746 1837q2 18-7 13l2-9 5-4" fill="#fff"/><path d="M423 543H409q-13-15-1-35 12-20 22 2l-7 33" fill="#fff"/><path d="M1709 557q6 21-12 39l-3 22-7 17-21 3-7-20 16-46q11-25 34-15" fill="#fff"/><path d="M243 674q-11 18-29 4-17-13-9-35l27 3q8 7 11 28" fill="#fff"/><path d="M303 685q-11 11-29 7-20-3-21-21 8-18 30-15 22 4 20 29" fill="#fff"/><path d="M1721 743l19 8q2 35-22 31-10-18-9-25 0-4-7-3l-8-3q-12-25 11-35 23-9 16 27" fill="#fff"/><path d="M289 793q-15 12-24-2-9-12-2-26 8-17 21-6 14 11 5 34" fill="#fff"/><path d="M1096 1264l5 19q-3 0-7 3l-8-1v-8l5-3-9-11q-5-6-13-5v-8q-4 10-14-23l14 1q9-1 12 5l-7 3 13 8q11 4 14 8-8 3-5 12" fill="#fff"/><path d="M1001 1546H986l-3 5v-33l-6-4-6-10q7-7 3-16l17 29q11 18 21 26l-11 3" fill="#fff"/><path d="M1367 1582l11 16-9 2-12 1 2-5 3 2-5-16-17-3q-2-14 7-20l19 1q-4 12 1 22" fill="#fff"/><path d="M1120 1651l-2 7-1 7-10-4-11-4q2-6 24-6" fill="#fff"/><path d="M200 1933l2-7-4-6-2 8 4 5m525-58q3-5-4-5-7-1-6 3l10 2m43-74 9-12-8 5q-5 6-1 7m-170 16q0 5 5 3l-3-9q-3-4-5 1l3 5m21-44q8 6 10-3h-6l-4 3m5-28h-7v6h7v-6m3-11-7-1q-4-3-5 1l6 3q5 2 6-3m76 36 5 6 5 5q2-7-3-12l-7 1m-153 64q-3-5-5 0l3 8 6 1 5 2-2-12-2-10 7 2q-2-2-1-11 0-6-4-2l2 4-4 4q-7-10-24 0l5-8q-8-1-8 11 23-3 27 16l-5-5m-129-11 9-9h-7l-2 9m40-20-2 7 5 4v-7l-3-4m-16-61q-7 2 0 3l5 2-1-2q2-5-4-3m-34 0h5v-5h-5v5m146-5q-9 0-9 3l2 5h5l2-8m13 3q-6-3-6 0l3 8h9l-6-8m-97-330 7 13q7 7 10 4l-17-17m55 3q-4 3-7-4l-2-10 9 14m14 48q2 3 6 2 2-5-4-8-5-3-6 2l4 4m125 32v-5h-5v5h5m-27-57 3-1-8-9-6-10-14 1-5 1 12 5 5-5q7 4 7 17l6 1m46-21-4-5-5 8 9 2q4 2 5-2-4 2-5-3m43 17-11-4 2 7 9-3M236 1834l7-5v-6l-7 11m22-64-1-8q-3-6-4 0l5 8m-24-83 2-14q-7 2-7 3l2 6q-1 6 3 5m9 20-2-6-3 7 1 4 4-5m129 11q-1-4-6-3-2 10 4 11l2-8m-66-117q0 5 4 3l-2-8q-4-4-5 0l3 5m-72-22-1-6q-1-3-2 0l1 6h2m-3-56q-1-3-2 1l2 5v-6m112-128-4 1 10 11q3-8 9-8l-5-11q-5-6-7-3l5 11-8-1m-11 1-4 6q-3 4 2 5l3-6-1-5m-17-46 12 10 14 1 17 2 1-3h-8q-34-22-45-25 0 9 9 15m10-34-2 7-5 4h9l-2-11m56-1-6-5q-1 6 3 8l7 3-4-6m-11 16 3 4 2-6-5-5v7m-16-21q-4-4-1-6l8 1q2-6-6-6-9-1-9 3 6 0 4 3l-4 5 5 2 3-2m-9-6-3-7-3 11 6-4m36-17q-5-3-6 1l10 6-4-7m-15 23q-2-4-7 0-5 5-1 6l4-3 4-3m4-25-5-3q-2-4-7-2-2 6 4 8l8-3m-103 53 1-8-5-6q-2 14 4 14m-16-172-2 2q-3-1-3 1l17 31q3-7-5-18l-7-16m31 25-22-33 10 22q5 14 12 11m91 67-6-4-4-4 4 11q4 6 6 2-5 0 0-5m-22 22-2-6-4 3-6-3v9l9 1 6 1q-4 1-3-5m0-32q-4-3-5 2l1 3-3 5 5-3q1-4 5-3l2 3 2 3v-8l-7-2m-34 12-4 1q-1 7 5 6l4-6-5-1m5-33-7 6-19-39q13 44 26 44-5-2-3-4l3-7m3 9 7 4 5 1-3-5-6-1q-3-2-3 1m6-81 1-5-6 6q-5 3-1 5l6-6m-18-86q4-15-3-24l-7 26q-5 19-2 26l2-5 5 2q-1-5 5-25m-50 37-4-5q-2-3-4 2l5 4 3-1m-49-8q0 6 5 5 0-12-4-17l-1 12m18-49-3-7q6 1 5-2l-5-4q-4 21 2 22l1-9m301 303v14h12l-3 4-2 7 19 10q13 5 12 18 3-6 17-9l5-5q6-2 8 3l6 5q-4-8 2-7l10-1q-12-9-26-9l-12 12q3-9-6-17-8-7-4-11-11 3-23-11-14-16-24-17l1 21q-1 9-13 4l6 10 8 9q9 3 34 27 19 19 38 15l-29-11q7-5 2-6-5-2-4 6l-6-9-4-8-2 6q-15-23-29-31l3-10-3-6 7-3m-14-33q-7-26-15-17 5 1 8 7l7 10m-24-22q0-10-5-9l5 17q1 10-5 14l14 17q7 10 5-1 5 8 12 6l-10-26-16-18m-35 99 8 3q0-7-11-11-1 6 3 8m-8 6q0-3 5 0l-6-10-4-12h7l5-6q0 3 7 3l-2 5 9-2q-17-11-24-3-5 2-9-8-3-8-7-3l19 36m-10-42-2-7q-4-3-5 2l7 5m10-11 7 2 7-5-12-3q-6-1-2 6m26 25q2-8-7-11-8-2-10 6l10 1 7 4m-73-33 4-3q-1-3-6 0l-9 3 4 7-6 4 9 11q7-1 4-7l-1-7 15 2q5 1 6 12l-4-1 2-5-7 3 9 6 5 10 7 4-6-23q-1-14-8-19-3 1 1 3 6 3 4 8l-13-1-14-4 4-3m-10-22q-1-5-6-3l5 11 1-8m2-3v5h4v-5h-4m12 0q-9 0 0 3 2-4 4 3l3 11q9-2 17 8 2-8-8-11-9-2-4-9-6 2-8-3l-4-8v6m-17-6-7-2q-3 4 2 6l5-4m-3-16 7 9q4 6 10 5l-7-13-10-1m36 14-5-6q-4-5-4 3-4-2-5-14-1-9-5-6l-2-8q-7 4-2 10l9 10q-7 6 6 15 13 10 8-4m36 30v-3q-17 0-9 3 16 5 9 0m-12-7 8-1-5-6-7-3q-3 7 4 10m-9-12q-6-1-4 2l-1 3-3-6q-2-5-4 1v5l8 5 4 1q-3 0-1-4l1-7m-4-44q-5-1-6 5l5 1 5 2-4-8m49 0q-7-5-5-14l-19-3q-3 16-14 22 1 10 12 19l-6-14q-3-3 6-11-1 9 7 13l10 10q-4-4-5 1l-3 10h-7l15 13q0-4 4-2-4 6 10 14l17 19-27-33q0-7-12-11l8-4 7 4q6-6 4-11-2-6 5-12l-7-10m-37-43-6-10-4 14-8 11 10 2 9 3-11 1q-7-1-8 5 18 11 24-17l-6-9m-61 43 5-3q-9-5-10 0l5 3m10-14 12 8 9 11-5 8q9 1 16 15 8 15 16 16l-4-13-4-12 11 9q5 8-1 10 4 8 14 3l-16-28q-10 5-20-5-9-9-9-17 14 18 17 6l-20-8q-11-5-16-3m7-14-5 1 22 2-17-3m-15-16q-3-2-4 2l10-1q6-6 2-10l-8 3q1-9-13-11-14-2-13-12l-4 3q3 6-1 6l-5-6-7-5q-2 8 7 13 6 3-2 6h29q-5 0-7 6l5 4q3 3 4-2l-5-5 10 3 7 5-5 1m17-9h-5l3 8 3-10q2-5-3-1l2 3m27 0v5h4v-5h-4m-12 25-5-22-10 16 8 1q3-1 7 5m-5-64q0-6-3-5l-7 7-7-5-2 17 8-8 11 2v-8m60-77q-5 6 3 14 8 8 11 5-4 0-1-8l-1-3-6-1q-1-6-4-2l-2-5m-82 44q9 0 0-3l-4 6q-2 3-1 8 7-2 12 7 5 9 10 4l-9-11-8-11m-7 0 5-3q-1-12-15-22l-2 11q7-3 8 4l-1 13q4 2 5-3m5-44-8-2q-8-4-11 2-3 6 11 9 14 3 8-9m38 19 3-3 2-3v6l19-6h16l-3-4-3-4q-3 6-16 6l-18-3 18-3q13-2 9-8-2 5-6 2l-6-5q-1 5 4 8l-20 3q-6 4-4 10l-10-10-11-8-5 27 36 42q7-7-5-19l46-9q-1-4-13-6-9-1-4-10l-7-1-7-2 5 9q7 3 7 8-8 3-11-5l-9-7 2 7 1 7-10 3 2-8-9-6h12l-1-5-4-3m-14-47q0-7 5-6l4 14-7-3v19q0 11 5 12 2-3 5-3l-5-12q-2-9 5-10-4 6 0 13l9 1-11-23-10-24v22m-25-28-2-14-6-2-6 2 6 10-3 4 5 5 4 6 2-11m10 3 5 7 5 7-3-13-7-1m15-11-4-5q-2-3-3 2l4 4 3-1m12 16-5-5 2 8 3-3m48 34h-5l-3 8h5l3-8m-36-14 1-9-1-13q-10 1-9 12l4 18 9-2 5-6-6 1-3-1m16-16q-7-4-9 2l12 8q3-7-3-10m15-9H461v8l6-3 4-5m-31-28-2 7q-2 3 2 4l2-5v17q-2 7 3 10 4-6 1-18l-6-15m-31 6h2l-10-6v17l5-4q0-7 3-7m-3-47q-4-2-7 3-2 4 2 5l5-8m24-3 3 3 2 2q1-5 4-1l3 4 2-8-4-3 2-3-7 2-5 4m-14 17 4-4q1-7-2 1l-4 4q-2 3-3-1l2-9-7-3q4 5 0 10-6 8 0-4l-14 19-7 20 2-1 2 4q8-17 5-25l5-2 2-4q15 13 22 11-2 10 2 17 4 9 10 5-7-31-19-38m1305 922q1 12 12 19l-4-12-8-7m-228-9-8-2-8 2 10 5 6-5m3 28q-9 0-10 3h5l-2 8h9l-2-11m17 11-10-3q-3 6 4 6 6 1 6-3m-8-32 3-9-7 7q-7 2-8 6l3 4 2 5q-2-7 7-13m10 6 7-13q-12 4-21 25h7l2-3q-2-3 5-9m2-35h-10q-8-2-9 6l13-1 6-5m-31 8q10-3 7-13l-14-6q-1 5 3 6l4 5-1 4 1 4m-62-124 2 3v-5q0-6-2 2m-17-8q-4 0-5 7l-4 9-1-1-2 1h12l1 8 2 6 2-17q-9 2-6-9l1-4m1-11-1-3-4 4q-3 2 2 4l3-5m14-53 2-3-5-5q0 7 3 8m-8-28q7-9-2-11l2 11m17-19q-2 2-1 9l4 10q3-18-3-19m58 11v5h4v-5h-4m62 77q-4 6 0 14l7 14q0-3 2-3l3-5q-6 1-8-8l-4-12m-29 6v4l2 1 2-6q-1-6-4 1m5-8-3-6q7 3 8-5l-7 2-5-5q0-14-3-2-2 11 3 10 1-5 3-3l1 3-2 3 7 5q8-10-2-2m-17-59h-9l4 12-2-9 7-3m-150 117-6-11-16-2q-6-1-7-9-10 1-10 16 3-3 5 3 1 4 2 0l-2-6h6l3 3-2 11 17 2q11-1 7 4 10-3 3-11m-1-14 7 10 8 9-5 5q-4 1-5 4l7-1 7-2q2-12-6-17l-13-8m-98 50 1 3q0 14 9 11l-2-18-3-16-5 11q-3 7 0 9m17-50q-5 7 2 8 0-5 3-8h-5m-7 11v-6h-5v6h5m14-8q9-2 10 5l-9 12q-7 5-3 5l7-4 7-4 2 11-14-3-2 6q-4 1-3 5 7 4 17 0 11-4 17 0l-5 2q-4 0-5 3 7 1 12-5 6-7 10-8l-6-4 3-7h-12q-1-12-10-19-10-8-16 5m5-25q10-7-2-1l-10 9 8-2 4-6m-50-6q7 1 2 4l-7 7q14-2 14-14h-6l-3 3m-38-5-3 2 14-8-11 6m9 11h7l-2-9-5 9m12-22 7-3h-4l-3 3m48-53-16 19 16-8 1-7-1-4m105 80-2-11-2 7 4 4m17 3-3-3 1 16 7 9-4-12q-2-7 4-10h-5m-74 3-8 2-4 1 2 4-2 7 11-2 1-12m62-249-5 3-5 2 8 1q8-3 2-6m0-14q-2 5 2 5l1-7-1-4-2 6m0-80q0 4 10 5 10 1 4-5l-8 1-6-1m194 188 7-14q3-6-2-14l-5 15q-3 9 0 13m-71 7q-4 3-1 4l6-4q4-5-1-7l-4 7m-1-27q-5 11 0 11-1-3 1-7l-1-4m42 11q-7 2-4 3 9-1 10 6l-17-9q3 9-4 12l-10 2 2 17q-1-4-9-6l-32 26-26 27-13 21q-7 16-1 29-1-24 21-31l-1-7-4-4q2-14 15-24l21-17q-1 10 10 0-6 4-7 0 10-14 19-17l-7 23q-6 14-5 19 9-11 12-3 2 9-7 14l5 6 4-3-1 8q-3 4 1 5 2-6 5-5l-1 8q-1 4 1 0l1-8-3-8h7v11l2 8 5-19 4 6 3 7 2-2 3 2q-13 6-7 17 4-9 9-8l2-17q1-7-4 0 1-15 14-8l-3-10 6 4 3-14-1-5-2 6-3 5-3-4-4-4q3 12-21 8l14-3 5-14 4 3 5 6q-3-16 15-34l-6-8-4-5q4-14-2-17l20-25q16-26 25-33-15 7-30 31l-22 31v-1l-11 2m-28-41 5 14 7 5-5 9 5-2 3-4-7 15-10 10q14 1 26-42l4-5-4 3 1-8q-1-5-6-3l2 16q-1 8-6 3l-1-16-7 3-7 2m46-22 2 5v-6q-1-3-2 1m-134 99-3 5-2 7q5 2 7-4 3-6-2-8m-9-6q-3-1-1 1 1 3 5 2l5-2-5-6q2 8-4 5m9-24-1-2-2 2 11 10q6 5 11-2l-4-10-1-1q4 5 0 10l-7-1 4-4-4-2q7-15 0-19l-5 7 7 1-3 7-6 4m-1-25-2-3q-4 6-1 16l1-10 2-3m-13-16q-3 7-3 13 12 0 5-27l-2 14m33-3q6 2 4 11-3 9 1 11 7-27 0-36 2 9-5 14m21-14q-5 1-6-7-1-8-6-7l2 7 1 7q4-2 4 3l3 5 2-8m3-42q-7 15 1 8 7-7-1-8m19-22q1-6-2-5l-3 2v6l5-3m-5-22 1-4 2-7q-7 0-10 7l-2 10q-3-9-3 2 5 3 7-6 2-7 5-2m-69 39h-5v5h5v-5m-5 16-10-11 12 17 9-12 3-5-14 11m12-77 9-2 5-6q-4 1-14 8m-15 15-4-1q-5 0 0 11l7-3 5 3-6 1-6 2-6-4-6-2q-3 14 2 14l5-8q2 8-5 13l7 3q5 2 5-3l-7-5 9 2q6 0 8 3l-12 11 9-4q5-4 8 2-7 0-10 5l17 6 2-10-2-10q8 8 14-13l-9-7q-5-3-5-10l7-3 7-3-3-2 5-6-38 25 2-7m5-54 5 6 1-9q0-6-3-5-3 2-3 8m12-3 10-1 6-14-16 15m10 27-7 1-1 6 1 2q0-4 7-5l7-6-7 2m57 20 1 6q-1 5 4 5l-1-10q-2-6-4-1m-9-5q-8 2 0 3 10 4 5 0 1-5-5-3m-15 5 3 3 7-5-3-3 5-6-2-4-2-4-2 10-6 9m-19 6q2-7 5 3-1 13-10 27l-11 25 6-3 1-5 2 6-7 11q-5-3-11 4l-8 15q8-9 9 3l4-10q-1-7 6-7l8 18q6 10 1 18l11-23 9-26-15 19q-5-12 6-21 8-8 16-7-2-2 2-8l-3 3q-1 3-4 2l3-8 4-8-9-9-3-14-2 14 5 11-10-11 10-30q-8 1-5-4 4-5-3-7l-5 12q-5 7-2 10m13-42-1-5-2 3-3-6-1 7 1 7 6-6m2 3 7 14 5-8q-8 2-12-6m2-5 5 5 1-7q-4-4-6 2m86 58q-1 7 4 8l6-5-5-2-5-1m37 6q-6 5-3 8l9-17-6 9m-6-9h-7l-2 8 9-8m-55 50 4 4 6 1-3-11q-5-1-8 3l-6 6q0 19 2 13 0-13 5-16m17-6-6 12-6 10 8 2 6 4-5 7q-5 3-2 4l6-2 4-6q3 7-3 11-5 3-2 5l7-5q2-20-9-25l4-4 5 4-2-10-5-7m-41-54v-12q-9 25-2 30-3-8 2-18m3 2 7 2-2-8-5 6m69-14 5-4-5-4v8m-431 352 10 2 4-11q-11-1-14 9m32-8 11-6q1 14 5 2h5q-4 8 3 12 9 5 6-3 9 0 10 3-5 2-7 5l12-4 5-4q5 9 16 2 11-6 7-13l-14 9-17-4q16-16 31-8v-14q-16 0-23 6l7 2-9 4-10 2q0-6 9-17l-19 6-17 11q-4-9-12 0l-12 14 13-5m-177 10q-6 0-6 3l7 3q4-5-1-6m23-2v-9q-8-2-10 6l3 8q7 1 7-5m36 2 2-7-2-4-2 2-5-2q-1 7 7 11m-7-27-7-4-5 4 8 2q3 2 4-2m-41-56h-5v6h5v-6m65-55 7 3q1-6-4-6l-8-3q-1 6 5 6m91 88 14-9 14-10q-29 12-28 19m16 14-2-2 6-3q3-2-1-3h-7l-3 8q6 4 7 0m-81-11q-1 0-7 3v6l7 2-2 3-22-3-2 6-7-2q-6-2-1 2l5 5-6-1-6-1-7 13 6-1 6-1 2 9-2 7 9 2 8 1 2-11 6 6-3 11h6l3-3q0-21 7-22-5 8 2 11 9 4 8 11-3-3-6-4l-6-2v6l2 5q3-9 5-2l-6 7q-3 4-1 12l13 1 13 2q0-4 7-6l1-5 7 2 5-5-24-3 16-11q0-8 3-11-13 3-22 17-5-2-3-7l3-7h10l-4-4-6-5 27-4q13-1 21-12l2 5 3-2 2-3-5-6-21 6v-11l7 3 2-12-18 7q-10 3-17-4-8 6-8 17-5 0-7-6l5-5-2-9-3 9-7 3v-9m9-27q0-8 3-12l5-2-10-1-7 1 1 5-1 3-22 7-23-1-1 8-4 5 29-1 27-3-1-1 4-8m11-1q2 4 6 3 12-12 17-2-4 8-18 5l-13-3-1 4-2 2h5l31 3q17 0 22-9l-21-2 4-8v-6q-3 7-17 8h-19l6 5M964 1875l11 2q6 1 8-4l-11-2q-6-2-8 4m-55-90q-12 7-5 10 2-6 15-6 0-10-10-4m-7-6q-4 3 0 5l5-6q4-2 0-5l-5 6m60 13 7 3q4-5-2-6-6 0-5 3m-121 86 3-3q-9-9-9 0l6 3m-47-17-1-5-4-3 3-5q-12-2-12 5l7 4 7 4m77-78 5-5-7-2q-5 0-5 5l7 2m-58-42q-5 0-7-4-1 6 10 8l-3-4m0-4v-6l-2-2-2 2-2-5q-3 1-3 5l5 2 4 4m-19-3-1 4 1 4 2-4-2-4m134-271-8 1q-4 3 1 4l4-2 3-3m660-91 1-6q-10-8-21 5 0 10 13 11 12 1 7-10m-28 26q4-7 0-10l-4 3-5 3-3-6v17l12-7m-52-29h5v-6h-5v6m18 23q-3-1-4 4 2 12 14 28l3-6q2 4 2 0l-4-9-3-15-8-2m-23-57-1 5 1 4 2-5-2-4m-19 56h7q-1 15 14 30 7 6 3-1l-12-15-3-9 2-7h-6q-7-2-5 2m-12-11-3 8q-1 6 3 8l2-12q1-7-2-4m-5 8q-5-1-1-7 3-6-1-7l-5 6q4 16 7 8m-7-44-6 12-9 10q8 1 13-9l2-13m17 22-3 3-2-9-3 7q-1 6 3 7l2-5q-1 6 4 1 4-6-1-4m-33-21q-3 2 1 4l4-5q3-2-1-3l-4 4m45-15q6 4 7-3 2-7-3-8l-1 6-3 5m-12-45-3 10q-4 5 0 7l6-8 1-6-2 3q0-16-2-6m0-22h16l3-8-3-8q2 10-3 12l-13 4m-22 11q5 11 5 2 0-9-5-2m7-30-4 5-5 1 6 9 2-6q2 11 8 10l-7-19m22-17q6 4 7 0-5 1 2-8l5 6q1-9-12-9l-2 11m11 8-4-2 7 11-1-11q-1-7-4 0l2 2m-11 15-5-3q-2 12 7 11l-2-8m2-9q-2-3-7 0-4 4-7 0v9l14-9m-9-30q-1-6 7-11l-6 1-4-1 1 7 2 4m-10-3v8l-5 3q10 0 12-5l-5-2-2-4m-7-42 6 8 6-5q-8-7-12-3m28 18-2-4q0 9-9 0-3 2-1 5l-2 4-1-7 4-7q-4-2-5 3l-5 2h-2l7 11h14l2-7m20 46q10 10 12 0l-4-1 1 1q-6 5-13-11-7-15-13-11 17 8 12 47 11-1 5-25m7-5 7 2q4-4-2-5-6-1-5 3m21-22 5-9-6 5-6 6q6 0 5 6h-8q-5 0-4 5 14-3 19-11h-3l-2-2m-23-45 9 3q4 4 5 0l-7-5-7 2m7 11q-12-6-12 0h7q-3 4 0 9l5 11-5-2-2-4q-2 9 7 8l2-9-2-13m38-69-9-2q-4-1-5 5l14-3m19 19q8 0 7-5-9-3-9 10 1 15 5 9l-2-6-1-8m12-8v-6l5 1-3-6-7-3q0 7-4 3l6 9 3 2m-50 30q-4-1 2 3h3q0-2-5-3m-30-33q-6 7-4 11 19-25 12-25l-8 14m26 12q4-8-1-12l-10 2q-6-1-7 4 15 1-4 14l21 2q-3-2 1-10m6-12 1-12q2-6-6-7l-4 14 9 5m5-22 1 8q3 3 4-2l-5-6m-14 0-7 6q-6 2-1 5 12-8 8-11m-11-4 1 7h5l-1-7 1-4q-5-1-6 4m-8 1 3-8q3-3-1-5l-4 7q-2 5 2 6m-3 3-2 6q-4 1-3 5l7-4-2-7m-7 0-5 3v8q7 4 5-11m84 8q10 2 9-8l-6 2-3 6m-22-27v10l5 4-1-9-4-5m-5 14-2-11q-12 7-14-9-7 0-10 3l12 10q12 3 14 7m32-30-2 8q-2 3-1 8 8 4 3-16m-12 5v-9l-7 5 7 4m-90 75-9-3q7 13 12 14l3-6h2l-2-9q0-7-3-2l-3 6m-4 8q-4-1-7 4-3 6 0 7l5-4 2-7m-26 3v11l5-2 4 2q-1-9-9-11m12-6q-9 0 0 3 4-4 1-8l-6-6-2 3 2 5q2-7 5 3m96-125q5 9 11-2 8-15 1-9l-6 6-6 5m4-13h-5l-4 2q-3 6 5 4l4-6m-2-20-12 11 7 3-2 3q7 0 7-17m5 8 3 7q5 3 4-1-4 1-1-7l-1-1-5 2m0-2 5-9-7 3q-2 5 2 6m201 908-12-16-14-1q13 0 21 20l-3 10 6 6q-1-5 1-9l1-10m-33-13 2-1-1-6q-1-3-2 1l1 6m-17-59q-2 12-8 11-1 12 8 17l-1-14 3-14h-2m38-19v-14q-5 2-6 7-2 6 6 7m-151 11h7l3-6q-8-1-10 6m53-83-9 3 4-6q-5-7-14 5 10-2 4 4l-2 2q14 3 17-8m9 3 5 5v-8l-9-3 4 6m-42 27-3-3 6-3q3-4 8-2l-5-11q1 7-10 15-9 7-4 15 3-5 10-5l-2-6m109-3 2-9-2-7-6 9q-2 6 6 7m-4-50q6 1 8-6l6-10-12-3-1 10q-2 5-1 9m-20-27h-4v11h4v-11m21-7q-2-1-1 4-14 4-17 11l10-5 9-6-1-4m-128-143-9-1-6 7h2q-7 2-14 15-6 12-12 10l5-3-2-11 4 2 3-2q-5 2-5-3l-2-6-6 20q-6 11-4 16-7-2-9 7v10l-5-3-9 9q-5 8-3 11l8-7 9-7-4 3q-2 2-1 5l9-7v-9q4 4 9-7l3-13 8 3q2-11 14-21l17-18m100 44q11 6 19-8l-19 8m31-11h-7l-1 8-1 6 17-19-8 5m-59 42q0-20-3-8v10l3-2m2-3 2 6v-6q-1-4-2 0m-48 31q3-6-3-6-7-1-7 3 8 0 10 3m10-64 1 4q-3 4 1 4l2-8q-1-7-4 0m36 11 1 9 6 5q1-13-10-17l-5 9 5-2 3-4m-16-48 1 1-11 4q-8 1-8 7l7 6-6 1q-3-1-3 7 7 1 10-5 3-7-1-12l9-3 6-5-4-1m-6-54-4 7q-3 4 2 6l3-11-1-2m10 8q5 0 6-10 1-9-4-10l-2 20m-22 6-7 8 9 8 3-8v-6l-3 3q1-9-2-5m-12 22q-2-8-10-6 7 12 0 19l2-7-2-4q-11 9-14 28 12-14 24-14v-16m-24-3q3 4 11-4 8-8 3-13l-2 6-2-3-10 14m-3 7-2-4-16 12q-12 6-12 18l4-1-2-7 7 2q7-13 17-16l5 5 4-7q2-6-2-1l-5 6 2-7m8-35-6 11q-5 5-8 0l10-8 9-11q-16 2-27 9-13 10-9 24l22-8q12-7 9-17m28-29 1-1 2-6q-2-9-2 0l-1 7m-26 12-7-4q-6-2-2 2l2 4 2 4 5-6m15-46q4-10 0-6-13 13-8 17l8-11m141 94-5-23-38 34q-1 7 5 13l-16 9q-9 5-11 14h15q26-50 50-47m-70 11 3 2 2 3 5-15q4-9 0-7l-10 17m10-89 10-8 4-9-8 7q-6 3-6 10m12 17-2 5 7-5h-5m17-8-5 5 12-8q-4 0-7 3m-139-266q1-12-6-30-7-16-4-31-11 9-15 26l-6 26q-12 30-27 42l-9 5-7 12-3 8q-5 6-7 14l-8 8-6 8q3 12-3 8 0-6-4-5l1 9 3 7-4 6-5 6-5-4q-3-3-2 4l-3 5 5-1 2 1-7 8q-5 5-2 9l-7-6q-5-4-8 0l3 8 4-1-4-4 6 2 3 6-20 34-18 32 2-2-7 25q11 2 17-11l-2-8v-12l27-49 28-48q-10 21-3 34l19 22 8 22q5 12 14 14l13-22q7-17 16-20-2-25 18-52 19-25 13-50-20-10-17-42l9-6 8-7m100 171 10 6-11 17-6 16q21-29 19-43l-6 1q-6-1-6 3m36-32-2 4h5l2-2q-4 0-1-5l-1-4-3 3-2-3 2 7m-19-1-2 8 5 6-2-9-1-5m-12-17h10v-8q-17 8-10 14v-6m8-11q3 3 4-3l-5-5q-1 5 1 8m40 39h3l-2-8q-4-4-1 8m-68 74q2-8-4 1l-2 7-5 7-5-17-7 23q-6 11-2 16 2-9 9-11l-1-7q-3-3 1-4l5 1 3 4 8-20m-21-3 1-13q-11 1-16 17-4 15 4 16l-5 14q-3 6 2 11l5-21q3-10-2-17l11-7m1-35-5-6 2 9q0-3 3-3m27 10q-3 2-4-4l-10 18q-6 11-1 20l2-19q8-3 13-10 6-9 1-18l-1 13m-23-18v-6h-4v6h4m-31 0-1 24-1 23q12 7-5 30-1 2-5-2l-9 16q-8-4-8-11l6-1 2-4-15 4-14 7-4 15-1 4 4-4 3-4-4 13 11-7 12-6-16 2 2-11v6l14-2q8 2 3 10 8-4 9 2l3 12 2-4 3 1-6 6q-4 3 1 5h4 8l11-18 8-15-11 12-11 13q0-32 12-33-6-5-12 5l-9 14 2-12v-10q23 0 15-53l6 3 3-3q-3-2-3-13 0-11 3-14h-12m-16 46-5-5q-3 4 0 9l7 5-2-9m-15-76q10-8 2-12l-7 7q-8 0-9 7l-3-4-4-4 2 22 10-6 9-10m5-24-3-4q0 4-2 1-3-5-5-4 0 13 10 14v-7m55 23-2 11q-3 5 0 6 1-5 3 0l4 5 4-11 5-14-5 7q-3 4 0 7-1 0-7 3l2-8-4-6m-9 9q8-10 2-14l-8 14-11 13 7 3q0-5 10-16m0-23-5-2-10 11q-6 8-2 14l8-12 8-11q0 7 7 8 7 2 8-5-5 1-7-6l-5-8 1 7 1 7-4-3m20 2q7-16 3-24l-4 6q-3-7 0-14l-4 3-4-6q-4 10 5 20-3 1-7 5l4 1q2-4 6-4-5 29 1 13m-12-86 1 4 4-5q3-4-2-6l-3 7m22 13q-2 6 5 11l-1-7-1-7q-7-1-10 8l-2 11-7-5 3 6 2 7 8-1 6 4q-8-11-3-27m-7-6q-3-7 2-8 8-1 8-9l-14 6-1 9q1 4 5 2m-56-5q-11 18-11 41 12 16 8 40l-15 37 15-15 11-26 10-8q6-23 10-28l7-25q2-30-12-44l-23 28m-32-12 9 3v-5l-4-3-5 5m50-33-2-3-3 12-9-1q-4 13-10 6l-3 19q-4 11-2 14l11-11 8-14-7-3q7 1 11-4l8-12-2-3m49 20-8-12q-6 11-10 25l10-6q4-2 9 4l-1-11m29 21q-3 3 1 3 10-5 2-8l-3 5m-23 6q-4-1 1-7 6-5 1-7l-8 10q-2 10 6 4m43-16q-3-6-9 0l4 7 5 6q4-6 0-13m-43-17-1 4q-1 3 1 4l2-4-2-4m34-22q-5 3-4 10l-1 12 8-1 4 1q-8 4-7 11 10 0 14-17l-14 3q-4-5 0-11v-8m-2-10-1-4-4 6q-3 3 2 5-1-3 3-7m35 7q-10 14 0 3 8-7 0-6v3m12 11q-4-6 4-15l6-13-7 9-10 5q0 14 7 14m15-152q-5 0-5 5 8 9 12-2l-7-3m-15 111q0-4 3-3l-5-6 2 9m-7 5h-7l-3 6-4 5 9 1 5-12m-12 6 7-10-5 3q-6 4-2 7m-151-36 2 5v-6q-1-3-2 1m0 13-2 10-5 7 13 21 13 18q-1-6 2-4l3-2q-13-6-17-27l-7-23m36-108-14-5 1 7 3 7 10-3q4-4 0-6m-27-5q-5-1-7 3l5 2 9-4 1-7-8 6m-18-31q-1 4-5 0-3-4-5 0l2 11-2 9 8-9 2-11m35-5q7 0 5-8l-6-3q-2-2-3 3l2 2 2 3 1-1q1-1 2 1-3 0-3 3m-4 6-7 1-5 1q5 11 12-2m220 130q4 3 5-3l-3-6-2 3v6m-43-3 2 3 3-11-8 2 5 3-2 3m32 19q2 11 6 3-5 0 0-11-8-3-6 8m-11-83 12-14 5-14-17 28m-12 17 7-4-2-7-2 6q-4 1-3 5m53-3 7-4q4-5 0-7-7 10-7-6l-8 19q-6 11-4 17l5-8q3 5 7 0 4-6 0-11m28-99q-6 8-4 13 14-7 17-22l-13 9m-49 55 5-5q-8 1-1-6-5-1-6 3l2 8m23-4-4-5-60 81q18-7 37-33l32-39-5-4m-2-27-2-3 7-5q-8-4-9 5-1 11 4 3m19-8-2-6-5 9 7-3m7 17q-12 3-12-3 4 3 5-3l-2-6v6q-10-5-15 8h12q-4 5 3 14h7l2-16m-59 30 4-7q4-3 0-4l-5 6q-3 4 1 5m67-94-5 3-6 11-1 2q16-12 12-16m2 52v-8l-14 8 6 2 8-2m38-88q4-7 0-8-34 33-9 13l9-5m-167-22v16l5-9V873l-5 3m-19 33h2q10 18 2 2-3-8-4-2m9-6q1-8-7-8v8h7m-64 6q4-10-1-6l-7 12-5 8 11-4q7-5 4-10-8 13-10 8l8-8m16 0h-5v5h5v-5m22-35q-1-10-5-9v14l2 11 3-16m52-43v9h5l3-9h-8m-9 9-2 7q-6 6 0 9l4-8 5-8-5-1q-1-1-2 1m-26-3-1-6q-1-3-2 0l1 6h2m-8-17q3 7-2 8-7 1-7 3l9 3 5-11 5-3h-10m-64 81h-5v5h5v-5M457 873l-5 3h7l2-9-7-2 3 8m-24-8h-5l7-7q4-4 0-7l-2 2-3-2 5-2-2-4q-6 9-10 25l-1-1q-2 1-1 4l11-2q6-3 1-6m-27-59q-2-8-7-2l8 18q4 13 11 7-3-1 0-9l-5 2-2 4 2-11-7-9m59-45 1 9 3-12-5-10 1 13m-43 1h3l-1 9-3 5q6 2 2 8l5-1q1-1 2 1-5 2-5 9l4 2-1-2q0-6 2-6l3 7 4 4q-3-7 0-8l4 3 4 2q-4 1-2 4l2 7 12-5q-28-19-34-48l-1 9m7-25 4-8q-1-6-12-6-4 8-3 14l6-2 4-6-4 9q-3 5 1 8-1-5 4-9m23-16H440l-3 6q-3 4 0 5 1-7 7-3 6 4 8 0l-3-2 3-6m38 44v13l2 9V766 743l-7-8q-4-6-9-6l2 7 2 7q-5 2-11-4l-8-2q10-1 14 17 3 13 7 12l-4 9-7 7q2-8-6 0l-13 11 10-2q7-7 9-4l-6 5-6 6 6-2q2-4 6-3-4 2-5 14l-5 13-5-4-7 2 6-7q3-4-3-5-2 0-1 5l-4 4-6-8-1-1 9 12q8 8 19 8l2-17q1-12 6-14l4 5 3 6q7-5 5-16-2-14 2-25M193 812q-8-2-5-6l3-5-5 1-5-4 4 12q5 7 8 2m0-22-3-2-4-1 2 11 5-3v-5m-12-17q-6 13 0 14 0-6 5-8 0 11 2 3l-7-9m-68 20 6 5q2-7-4-11-6-5-8 0l6 6m14 23 1 2 3-7-3-7q0 4-4 2l3 10m28-7q1-13-7-16l-3 11q4-2 5 3 1 4 5 2M76 687q-3 8 4 5 7-4 3-7H79q-3 1-3 2m64 61q-4-1-7 5-3 6 0 6 5 6 13 7 11 2 21-7l2 6 5 3 6-11q2-10-4-11l-16 12-22 1 3-5-1-6m33-12q-3 2-1 7h14q-2-10-10-11l-3 4m-9-2q0 7-7-2l5-3q-7 0-10 5 4 2 0 7l-7 7h-2l5 4 7 2-3-11q6-2 8 3l4 8 5-6-5-14M83 751l8 8q2 9 6 9l-7-16q-6-9-7-1m38-61 1-11-6-5q-3 0-2 13 0 9-5 3l-1 7q-3 3 1 4l8-7 11-4h-7m39 28q5-6 0-11l-3 11-7 5q6 1 10-5m-5-64q0 9-7 8l4-8-14-8 4 14-2 16 5-5q1-6 5-6 4 2 7-4 3-5-2-7m-62-8q-12 0-10 14l5 1 2 4 3-19m31 8q-3 8 4 5 7-4 3-8h-4l-3 3M93 557l-10 2-7 1 10 3q8 1 7-6M79 570q-4-3-3 1 2 7 11 5 9-3 1-8l2-2-4 3-3 5-4-4M30 492q0 7 3 7l1-11q2-6-4-6v10m34 7-5 6 5 4 5 4-5-14m21-8q-5 20 11 47 16 28 13 44 13-1 20 8l9 17 7 6v7l5 6 24 28 17 17q8 9 9 25l-5 22v47l6 16 4 20-6 14-6 14v16 17q9 12 13 35l9 40 7 5q5 26 9 22l3 8v9l7 11 8 10 6 12 8 25 4 35q3 18 15 26l17-48q7-37 16-49-3-9 3-33l16-3 15 3q-1 7 3 10l6 6-4 19q-3 6-17 9l-13 48q-8 29-6 49 24-6 31 25 8 36 19 39 14-4 4-23-14-26-14-35l16-38q11-24-4-40l11-30q7-18 4-31l-8 4-9-1q-4-10 0-19h9l5 5 6-15 1-18h15l7 16q5 10 12 12l7-23-19-11q-5-13-3-46l1-48q-5-1-10 6-3 7-7 2l2-4-2 2-1-9-2-13 10 2-7-24q-5-14 2-23l17 6q-6-46 7-67l46-3q30 8 36 28l3 27-1 29q-3 14-17 25l-24 22 10 19q4 11-10 28l-3 8-4-3-4 27-10 20q0 8 9 6 1 19 13 46l21 43q-3 9 3 22 6 14 2 25 12 6 9 19-4 17 0 22l-11 29q-7 15-6 32-10 10-23 8l-2 3-3 3q-2 22 14 34l31 21 18 28 16 33q3 9 17 20l1-3 23 19q13 16 19 31l2-9q28 4 26 9 4 0 8-4l7-5 8 6 6 8 21 7q13 3 15 13l25 10q16 9 28 6l14-15 5-24 14-14 22-8 7 6-3 41q-1 25 3 39l-10-7-9-9q2-16 12-14l-4-13-6-15 7 3q0-8-9-6-4 0 0 7v7q-6 1-7-4l2-7-12-3-1 11-4 11q7 0 7 23-2 8-2-12l-5 11-7 9 11 4q5 0 1 10l9-4 8 1q-4 10-12 8l5 3 2 5-15-12-14-15 8-8 2-14q-3 1-3 8l-2 8-15 4-14 5-26-9q-15-8-22-8v-8q1-5 5-3l-24-14q-8 3-9 11-7-7-12-5 0-3 9-3l-12-1q-9 4-9-5l9 2 12-2-14-3-14 3q9 5-6 8l-21-2q-3-1-6 3l-6 2q4 6 18 6l25 3q4 0 1-4l-3-2q7-4 17-5l6 9 15 2q1 8-5 7l-9-5q-3 1 0 7l7 5q-8-6-1-5 8 1 11 5l-2 1-6-1q5 9 12 3 9-8 15-6l5 19 16 2 15-2-1 5 8-2q-4 8 9 8 13-1 12-11l2 4-2 7q8 1 8-8 2 8 17 16l26 12 1-4q-2-3 4-2l-4-5-4-6-7 8q-3 0-1-5 3-5-1-6 1-2 3-1l6-2-7-2 2-7 1-7 21 22q-2 6-4 1l-3-7-5 3q-1 6 4 8l3 6q18 0 12 3l-9 2-7-2q2 5 12 7l14-2 12 13q12 8 21 4-1-12 24-14l-7 11q1 4 7 0l-3 5q-2 2-1 6l2 2v7q6 12 30 21 26 11 32 17l-16-4-22-1q0-3 7-3l-36-13-38-12q-1-5 5-5l-20-6-23-8 18 11 15 14-13-6q-7-3-13 0l5-3-34-20q-21-15-36-16l-12 1-14-3q1-4 9-6 8-1 3 6l13-4 15 1-34-9-35 3-4-11-6-14q-2 6 5 24l5 23-4 5q-4 1-3 9l-5-8q-5 7-12 4l-14-7q0-5 5-5l7 2q9-13 1-29l-11-18-13 2-20-10q5 10 20 17 19 9 23 13-10 3-24-6-18-12-24-13l26 17-13-3-13-8v-9q-25-5-49-25l-37-34 7 9 12 9q-14 1-28-20l-25-30v-7-4l-13-8-18-12q0 6 7 13 7 6 7 15-2 0-2 6l-19 2 15 2q12-2 6-10l46 50-7-1-8-2q-3-17-19-25l5 7 7 4q5 17 15 23l1-2 19 29q13 21 25 22l2-11 19 8 8 6-11-4-11-4-2 16 19 7q12 4 14 13l-19-7-19-7 22 17-12 5 11-1q7-6 13-4 11 2 12 13l-16-8q-12-2-13 8-5 1-8-4l-7-7 3 7 2 7-11-12q-8-7-5-13 7 11 19 11l-9-11-10-2-6-12q-8-7-11-5l-5-13q-6-7-12-6 1-2 2-1l3 1-18-24-18-23 22 19 21 22q-13-29-48-58l5 28q-8-6-12-20 2 15 19 35l24 34 10 3q-4 5-1 10l1 10-34-37q-20-21-29-41l-4 4-5 2-1 11-6 14 10 14 11 13-6-13q-5-6 1-12l-4 2-5 1q0-3 5-4l4-4-6-2q-4 0-3-9 10 2 20 16l13 22 7 3 5 17q-3-11-14 3-4-2 1-6l6-6-14-10-15-17 7 13q4 8 10 9l-4 2-8-2 4 7 1 10-22-23q-3 0 0 4 1 3-4 2l-1-4q-2-1-2 1-4-3 0-5l5-6-6-3H430l4-12-7-9 22-9-33-31q-3 0-1 4 1 3-4 2-4-1-2-5 2-5-3-9l22 10 17 15v-7q-5-5-3-10-4 6-12 0v-5l-19-3-1-8 3-6-10 9-8-1q4-8-3-8H377v-16q0-4-4-1l-7 1q-2-2-1-8l-2-9H337q1 10 15 13 16 3 18 9-7 26 7 22-3 15 8 24 11 9 9 21l-8-5-4-9-3 6-9-1q0-6 4-4l6-1-4-10-8-4-2 13q0 9-8 6v12q0 7 5 5l-7 6-10 2 5 11 5 11q7-4 4-10l-6-12 9-2q9 3 7 22l-10 4-14 1q0 6 12 3l2 18 1 18H346q0 6 12 3 5 2 0 3l-9-1 14 3 14-5q2 5-3 5-6 0-4 6 1 5 5 2l7-2-7 14q-9 0-7-11l-19-1-17 3-2-19q-6 11-3 50l9 9 3 16 22-6v11l-3 11q-6 0-4-11-7 1-5 11l-6-2-6-3 5 8 4 8-2 15q0 10-7 8 7 6 19 0l-4 4q-3 2-1 7l10-11q3 19-3 30l19 3q0 5-8 4l-13 1 11 3q9 0 10 3-2 7-12 6l-16-3v-10l-3-13h8l4-5q-11-1-16-8l3 29q5 21 18 20-1 5-5 3l-7-3q0 5 6 6l6 6q0 6-4 2l-10-2q3 8 13 13l18 9v-11q2-5-3-11l5-11-2-9h12q-6 3-1 12 5 7-4 8 3 6 12 5l-5 9-9 5q6 2 16-7 11-10 8-18 7 5 4 9l-9 10q2 14 19 25 3-9-2-19 9 0 12-6l-6-5q-5-2-6 3v8l-10-8 12-11 9 5 5 8-12 17 20-14 7 11 4-3 3-2-13-10q-8-9-9-4-4-14 43-8l-13 4-10 1 11 8-6 1-4-3h-2-2l12 10 12-2 10 5 9-8q5 5-9 17l6-1 8-5-4 6 2 8 2-14 2-11q9 3 0 3-1 6 3 4l7-1 7 9q4 7 10 5l-10-9q-6-7-12-8 7-5 12 3 5-14 12-6-3 2-3 6l-6 2 12 1 14 2-3-10q-1-4 8-4-7 8-2 6h9q0 10-8 10l-14-2 11 9 16 2-3-4-7 2 5-7 2-10 22 12q12 9 19 7l-7-4q-6-1-5-7l14-5 2 3-2 2 1 5-5-5 3 9-1 8 6-1-1 6 4-4-2-9q6-1 31 9l36 2q-11-1-24-9 1-3 8-4l7-7 29 6 26 3q-2 13-22 19l8 5 11 3q6 0 9-16l3-20 7-3-7-9-12-7q3-4 9 0l15 3 3-6q0-5 4-3l2 13 8 7 6-3 6-3-3 3-2 3q4 7 15-6l8 6 6 8-21 10-27-2q5 7-1 21-7 16-6 26-13 5-19 17l6 13-2 15-12-4q-5 1-2 12-7-1-5-14l-11-1q-11-2-10-10l29 6 1-5q-1-6 1-9-52 5-70 16l5 7q4 3 0 4l-8-1 1-10q-11 16-14 11l-5-5-2-8-8 6q-4 3-7-4-2 0-1 5l-1 6-24-8q0-1 7-3l-10-2q-5 4-4 11l-6-4-4-7q-5 7-4 15 1 9 9 10 0 9-10 11l23 2q15-3 16-13l-10 1-10 7q1-16 13-17 12-2 19 9l-6 6-6 5h7q4-3 9 0l-3-7-1-10q5-2 7 4l7 4-5 6q-4 2-2 8l-10-3q2 6 9 5l13 1 8-7 8-1-2 6-7-1q2 6 7 8-1-3 4-4l6-7 1 8-4 9 28 4q13-5 20-21l7 5q8 1 12-5l16 4 20-1-9-8q0-9 9 0l-1-8-4-6 11-1 4 7-5-2-5-1 5 9q1 7 5 10l3-5 2-6 19 2 17-2q-7 3-12 17l11 4q5 3-2 10l15 1 11 1 3-22 10 10 7 15q4-3 7 0 3 5 9 3l1-3-1-5 7-1 5-2-3 7-4 7 11 2q7 7 6 20l8-20q4-13 16-11l1 9 4 8-2-17q-4-12 4-14-7-2-5-11l27-2-15 11 8 1 7-7 55 8-5-5q2-5 5-1l7 4q-1-8 17-14 0-3-5-3-5 0-3-5 22-27 36-14l-12-17 5-8q3-5 7-6l-9-2-10-3q-3-1-2 6l-3 5q1 4 4 0 3-5 6-3-10 10 2 14l-12 8 3-8-4 2-3 3-6-7-4-9-4 11q-1 7 4 8-22 8-31 14 3 4 10 4l9 2q-3 7-13 4l-16-7q0-7 12-9-15-34-48-36-1 6 4 6h8q0 7-8 4-8-2-6 7l-10-8q-2 1-6 13-4 9-13 6 2-10-4-14l-12-5 1-9-4-5q-5 2-3 5l3 9-19 5q-5 1-6-6l-6-8q-3 5 2 13l5 15q12 1 18 22 6 21-6 28l1-8h-8l1-14q-1-8-8-3l-7-25q-5 4-1 12 3 6-2 8 0-7-7-2l-14 7q-1-4-7-4-4 1-3-7l-38-3q-2-4 3-6l-3-2 9 1 12-1-2 5h23 22l-69-11-7 9-12 2 7-22q-7-10-22-8l5-22q13-12 28-3l23 19-3 9q5 0 10 3h9l4-10q2-7 6-7 8 2 12 8 5 6 2 14l7 6-2-34q-4-8-19-4-14 4-10 10-10 4-21-11-13-16-7-33h-8l34-17 8 9 1 5 8 6 4 5q5 3-3 7l-9 1 4-4 4-4q-6-5-12 0l-5 8-8-1-2-4q-6 13 14 14 20 0 25-9l-3-22 4 4 3 4 10-22 7-3q5-1 3-8 5-1 10 5l9 6 9-8q2-8-4-8l9 1 5 12-3-3-4-2q2 12 9 5 9-11 12-11l-9 15-12-1-12 12-19 2-6 9q-2 7-9 5l4 17q4 8 1 16l5-6 2-10q-3 6 6 4 9-2-1-4l21-2q16-2 20 7 6 0 4-14 4 11 10 11l10-8 9-3-3-5 1-9q14 10 5 20 9-3 5-12l-8-13q1-4 3-1l4 4 1-5-1-9-11-1-13 1 10-11q0 6 12 6 12 1 10-9l9 2q5-2 7 6l-8 1q-8 1-6 10l10-6 16 1q-16-24-24-53-4 1-1 4l1 7q-2 2-5-7-1-5-2 2-4 0-1-6 3-5-1-5l5-2 7-1q0 12 13 24 13 11 11 20l19 4q12 3 14 10l2-3 1-5 16 5-12 4q-9 1-12 5l-23-1-20 3q3 19 8 28l-4 3q3 5-1 5l-6-4-11 2 29 14 36-1-4-8-4-8q3-3 8-3-2-4-10-6l6-6q2-7 6-7l2 13 18 2 16 4-14-14q-9-7-17-3l9 3q-3 6-12 6 0-11 5-11l-3-2-6-1q2-12 13-10l18 2q2-5-8-10-7-3-2-4l-8-12-11-2q-3-11-26-20 4-7-5-12l-12 1q4-7-2-13-6-9-5-17 10 13 36 31l36 30 2-8q5 0 5 4l-5 4q39 19 53 5l-5-7q-3-7-10-9 3-6 9-4 7 2 6 4 3-8-4-9l-16-2q-3 1 1 3 5 3 2 8l-11-4-11 4q-3-6 3-6-14-17-19-11l-11-11-13-5-8-11-12-9-9 3h-7q-1-6 2-6l5 3-3-7q-5-2-4-7l8 3h13l9 7 8 10q22 14 45 16-25-8-55-36l-50-41-7-25-5-5-5-9q-7-5-23-8l-27-6v-5q-11-3-14-9l2-14-5-13 17 11-5 19q15-4 19 3 4-3 0-8l-4-9-2 2-1 4-2-13-3-15H885l11-9q5-7 8-5-2-21 20-30 22-9 35 11 0 10 7 18l10 12q-5 8-5 20l-10-7-11-7 2-14q-10-16-31 0 6 7 5 19-4 2-6-2l-4-6 3 19 14 20 3-10 2-18 7 11 7 11-5-1q-3-8-9-4l7 16 5-3 9 1 1 5-5 3 12 30q5-3 13 0 9 4 10 11l-9-4-14-4 18 15 17 13 3 8 29 28 31 22 7-2q4-1 0 5l6-5q2-7 6-6l-1 8-4 6 12 2-2 9 21 12 29 4q-4 11-22 9l14 3 15-1 5 6q1 5 9 3-9-7-7-17-10 0-12 6-4-1-1-5l-1-4 10-1 9 7q4-12 9-14l15-6 11 8 11 3 5-10 2-14 44-27 37-34-2-6 41-41-5-1q-6 3-7-2 4-7 14-9l19-8 5-11q2-4 7-3-3-5 3-11 6-7 11-5l-22 32-23 23 4 3 1 5q-9 1-16 17l-11 22-32 27q-17 17-18 42l-35 18q-26 10-32 16-7-2-19 5l-19 11q0 11 9 11l-5-5 6-8 9-6-2 7-5 4q4 8 17 5l19-5v-14l14 2 14-5 23-23q14-14 30-15 3 6 29 13 26 6 31 17l-14 7q-5 4-3 12l-7 3q6-3 1-9l-8-10q-18 3-19 22l-32 3q-2-14-11-8l-8 8-6 5-6 14q-3-1-6 3l-6 3 8 4-5 1q7 6 11-2l3-12q2 8 7 3l12-5q1 22 15 41 3-18 14-19l-3-13q1-8 10-7l-2 6q-4 1-3 5l10 2 7-10 5 8 2 9-4-2-5-1 3 3 2 5 4-5 5-3q-5-2-4-8l2-11 11-8q8-12 15-12l2-12q2-6 8-4l-3-8 15 10q1 7-4 6l-8-3-1 9 1 5 2-11q1 7 5 9l7 2q0 15-7 3-4 4 7 22l3-6h7l-5-5h-7l14-22 2 6-7 2 4 10q4 4 1 9l4-4 3-7-2-1-5 1q-1-6 3-7l7 2-2-5-3-4q0-4 5-9l4-13q17-6 17-16-6-8-3-16l8-15q-2-4-7 0l-10 3q6-25 15-33l2 2 2-2q4 1 1 7-3 6 2 7l1-6q-1-4 4 0l-5-9-3-13-7 11-9 8q-5-1-2-4l6-1q-4-7-7-2l-5 10-8-3q-2-5 1-8l5 6 2-14q1-10 5-11 0-5-4-3l-3 5q-3-3 1-9l6-10-3-1-4-2q-1-6 4-8l8-6 3 7 2 7 2-9q0-6 3-10-9-11-15 5l-3-4-6-1-1-10-2-10-13 8-16 4q1-11 13-27l11-23 8-9 2-16q-7 0-10 5v11q-3-4-3-1l-1 7-18 15-16 18q-14 0-24 8l-10-3-11-2-2 6-8 2 5-3q-7-3-17 11-10 14-22 12l-19 11-24 5v17q-3 0-16 10l-15-2 1 9 2 16-11-8-13-6-10 9 10 1 9 4-3 5-2-5-33 10-36-2q-35-9-45-19l-12-19-15-14v-17l-14-14q7-2 15 10l11 21q50 48 106 25l16-14q23-7 58-31l43-33 32-8q16-4 23-20 15-3 28-14l20-24h9q-5-6-3-16 2-10 8-6 3-26 16-47 12-20 27-25l-1-9 4 6 14-25q-4-6-12 14-4-4 0-12l7-10-4-4q-3-6 2-13l12-6 2-11h7l6-4 6 2-2-17q-3-10 0-17 1-3-5-2-5 1-5-3l1-4 4 1q-3-10-5-3 0-20 22-58l-6-8-6-8 2-18-4-16q2-9 7-19l9-17 11-7q5-7 9-4-2-6 5-16 6-7-1-9l11-9 11-2q15-18 41-27l-2-33 2-31 21-8 3-6 1 3 1 3 17 2q5 14 14 14l46-52-10-21q-2-15 2-27l30 5 35-2 10-12 12-10q0-2-2-1l-6 1q-4-44 12-61l21 5 15 12q27-4 39 14v5l-6 11-11 6q6 11-2 32l-15 34-13 4-16 2-5-11-2-11q-6 4-7 0l-5 10-2 12-10 2q-7 0-9 3l-3-4v-7l-8 8-13 3-3-5-4-3q-5 0-6 6l-2 11q-24 5-21 47 5 50-7 63-27 2-29-11-15 3-12 22 4 27 0 36 2 2 8-4 8-7 16-4-2 7 1 11l4 9q-9 7-8 25l3 30 31-5q17-2 24 10h35q16-4 15-27l5 3 12-22 12-23 6-2q4-3 6-3-6-2 5-12 13-14 12-24-12-5-17-19-7-16 5-26h21 15q17-5 29-34 12-31 26-38 8-19 25-37l30-32v-9l2-7 8-5 7-7q9-31 16-44l15-14q5-16 12-22l3-12q1-9 6-10V714 687l8-13V849q-29 32-48 63-8-3 0-14-43 34-63 66l27-29q19-24 33-23l-26 33-3 25q-14 26-34 86l-35 86-7 42-15 35-26 122-3 32-4 32-5 5-2 33-3 34-7 8q-3 11-4 47l-5 53h-5q-2 13-1 35l1 34-5 8 1 45 6 52q3 29 19 72l15 30 16 34 38 46q-83 56-200 56H349q-64 0-121-17l-54-31 17-21 14-44q10-27 12-50 11-151 5-213-17-162-19-205L181 986q-1-34-9-61l-20-52-25-45-30-44-20-35q-8-20-8-51-23-22-3-47 24-27 17-41L71 596q-8-16-19-25l-3 3q-14-6-13-22l-1-31-7-10-7-12q5 0 3-7l-1-15 19-3 10 20 17-9q8-3 16 6" fill="#fff"/><path d="M1606 1535l-7-1 5-5 2 6" fill="#fff"/></svg>