<?xml version="1.1" encoding="UTF-8"?><svg xmlns="http://www.w3.org/2000/svg" xmlns:xlink="http://www.w3.org/1999/xlink" version="2.0" width="100pt" height="100pt" viewBox="0 0 2000 2000" clip-rule="evenodd" fill-rule="evenodd" preserveAspectRatio="none"><path d="M903 1257l94 13 90-13q-17 21-22 63-5 39 3 69 7 29 35 69 27 40 51 59l6 3q-72 47-173 47-92 0-139-40l13-5q27-15 40-41l24-63q27-63 0-130-8-20-22-31M522 1622q34-20 69-30l29-7q0-17 42-34l77-11 90-9q18 57 161 57 149 0 184-63l102 12 87 12q23 9 27 17v7l35 12 59 23q16 7 14 25-4 23-41 42-109 57-441 59-361 2-474-43-82-32-20-69M871 768q79 28 126 28 46 0 134-28l-2 13q3 46-12 66l-22 20q-11 19-7 96 1 37 21 61l42 33q25 16 43 41 20 29 21 62 2 24-38 47l-69 34-108 6-126-6-37-15q-35-13-46-52-8-31 1-71 6-28 45-47 19-9 59-19 17-5 24-13l3-7q5-101 0-125-3-13-23-25-18-11-17-20 2-13-12-79m465-440q14-5 12-30-3-20 20-18 22 2 53 26 40 30 26 67-14 37-12 54 3 31 43 47l37-1q15-12 13-46-1-24-20-55-17-26-12-41 8-25 42-59l37 7-10 150q-5 80-76 161-51 59-118 100-41 25-107 43l-83 18-71 8-108 8-133-8-109-12Q631 728 517 609q-49-51-75-195L426 279l152-17 448-20 108 1-12 29q-6 31 27 45l67 32q29 19 32 45l-17 63q-13 42 10 72 23 31 58 28 31-2 49-27 13-19-16-108-27-82 4-94" fill="#fff"/></svg>