<?xml version="1.0" encoding="UTF-8" standalone="no"?>
<svg
   ffdec:objectType="shape"
   height="50"
   width="45.425869"
   version="1.1"
   id="svg1"
   xmlns="http://www.w3.org/2000/svg"
   xmlns:svg="http://www.w3.org/2000/svg"
   xmlns:ffdec="https://www.free-decompiler.com/flash">
  <defs
     id="defs1" />
  <g
     id="g1">
    <path
       d="m 43.217665,24.921136 2.208203,4.100946 -0.315458,3.154575 Q 44.479495,36.277603 42.586751,39.589906 37.066246,50 23.028391,50 14.037855,50 7.4132492,44.321767 0,38.012619 0,27.917981 0,18.29653 6.1514196,11.514196 8.0441641,9.3059941 10.410094,7.7287066 L 12.302839,6.466877 5.0473187,0 H 30.44164 l -8.675079,20.82019 -4.889589,-8.990537 -4.100947,3.62776 q -4.1009461,5.047319 -3.6277604,11.987382 0.3154581,6.624606 4.7318614,10.883281 4.574133,4.731861 12.302839,4.731861 7.570979,0 12.460568,-5.678234 4.574132,-5.205046 4.574132,-12.460567"
       fill="#fefefe"
       fill-rule="evenodd"
       stroke="none"
       id="path1"
       style="stroke-width:3.15457" />
  </g>
</svg>
