<?xml version="1.0" encoding="UTF-8" standalone="no"?>
<svg
   ffdec:objectType="frame"
   height="46.5px"
   width="46.5px"
   version="1.1"
   id="svg6"
   sodipodi:docname="ridges9.svg"
   inkscape:version="1.3 (0e150ed6c4, 2023-07-21)"
   xmlns:inkscape="http://www.inkscape.org/namespaces/inkscape"
   xmlns:sodipodi="http://sodipodi.sourceforge.net/DTD/sodipodi-0.dtd"
   xmlns:xlink="http://www.w3.org/1999/xlink"
   xmlns="http://www.w3.org/2000/svg"
   xmlns:svg="http://www.w3.org/2000/svg"
   xmlns:ffdec="https://www.free-decompiler.com/flash">
  <sodipodi:namedview
     id="namedview6"
     pagecolor="#ffffff"
     bordercolor="#000000"
     borderopacity="0.25"
     inkscape:showpageshadow="2"
     inkscape:pageopacity="0.0"
     inkscape:pagecheckerboard="0"
     inkscape:deskcolor="#d1d1d1"
     inkscape:zoom="50.451613"
     inkscape:cx="30.454923"
     inkscape:cy="7.6608056"
     inkscape:window-width="2560"
     inkscape:window-height="1369"
     inkscape:window-x="2552"
     inkscape:window-y="-8"
     inkscape:window-maximized="1"
     inkscape:current-layer="svg6" />
  <g
     transform="matrix(1.0, 0.0, 0.0, 1.0, -0.7, -1.3)"
     id="g1">
    <use
       ffdec:characterId="81"
       height="46.5"
       transform="matrix(1.0, 0.0, 0.0, 1.0, 0.7, 1.3)"
       width="46.5"
       xlink:href="#shape0"
       id="use1" />
  </g>
  <defs
     id="defs6">
    <g
       id="shape0"
       transform="matrix(1.0, 0.0, 0.0, 1.0, -0.7, -1.3)">
      <path
         d="M47.2 9.35 L47.2 39.75 Q47.2 43.4 44.95 45.55 42.8 47.8 39.15 47.8 L8.75 47.8 Q5.05 47.8 2.85 45.55 0.7 43.4 0.7 39.75 L0.7 9.35 Q0.7 5.65 2.85 3.45 5.05 1.3 8.75 1.3 L39.15 1.3 Q42.8 1.3 44.95 3.45 47.2 5.65 47.2 9.35"
         fill="url(#gradient0)"
         fill-rule="evenodd"
         stroke="none"
         id="path1" />
      <path
         d="M42.9 4.65 L43.35 4.95 5.1 43.2 4.15 42.0 42.2 4.1 42.9 4.65 M3.15 14.0 L14.2 3.1 16.25 3.1 3.15 16.1 3.15 14.0 M8.65 3.15 L3.25 8.4 Q3.75 6.35 5.15 4.95 6.5 3.55 8.65 3.15 M35.75 3.1 L37.95 3.1 3.15 37.75 3.15 35.6 35.75 3.1 M21.45 3.1 L23.55 3.1 3.15 23.4 3.15 21.2 21.45 3.1 M28.55 3.1 L30.6 3.1 3.15 30.4 3.15 28.4 28.55 3.1 M45.15 24.25 L45.15 26.35 26.25 45.3 24.15 45.3 45.15 24.25 M45.15 39.7 Q44.75 41.9 43.3 43.3 41.85 44.8 39.75 45.2 L45.15 39.7 M45.15 32.1 L45.15 34.15 34.05 45.3 31.95 45.3 45.15 32.1 M45.15 16.3 L45.15 18.45 18.4 45.3 16.2 45.3 45.15 16.3 M45.15 8.8 L45.15 10.85 10.65 45.3 9.2 45.3 8.75 45.2 45.15 8.8"
         fill="#ffffff"
         fill-opacity="0.09411765"
         fill-rule="evenodd"
         stroke="none"
         id="path2" />
      <path
         d="M44.65 16.75 L44.7 18.8 M41.8 4.45 L41.95 4.45 Q42.15 4.5 42.35 4.7 L42.8 5.15 M44.7 11.2 L44.7 9.15 M44.7 34.45 L44.7 32.25 M44.7 26.65 L44.7 24.6 M30.15 3.45 L28.1 3.45 M23.15 3.45 L21.05 3.45 M37.45 3.45 L35.35 3.45 M15.85 3.45 L13.8 3.45"
         fill="none"
         stroke="#333333"
         stroke-linecap="round"
         stroke-linejoin="round"
         stroke-opacity="0.49411765"
         stroke-width="0.5"
         id="path3" />
      <path
         d="M44.7 9.15 L8.45 45.3 M44.7 32.25 L31.5 45.3 M44.7 24.6 L23.85 45.3 M28.1 3.45 L2.95 28.55 M21.05 3.45 L2.9 21.55 M35.35 3.45 L2.9 35.85 M13.8 3.45 L2.95 14.35 M15.85 45.4 L44.65 16.75 M44.7 39.95 L39.25 45.3 M3.95 42.2 L41.8 4.45"
         fill="none"
         stroke="#000000"
         stroke-linecap="round"
         stroke-linejoin="round"
         stroke-opacity="0.49411765"
         stroke-width="0.5"
         id="path4" />
      <path
         d="M3.1 8.5 Q3.1 7.7 3.65 6.75 4.2 5.9 5.05 5.2 5.8 4.45 6.65 4.05 7.5 3.55 8.2 3.5"
         fill="none"
         stroke="#000000"
         stroke-linecap="round"
         stroke-linejoin="round"
         stroke-opacity="0.40392157"
         stroke-width="0.5"
         id="path5" />
    </g>
  </defs>
  <path
     style="fill:#000000;stroke:#666666;stroke-width:0.0941865;stroke-dasharray:none;fill-opacity:0.49792534;stroke-opacity:0.40000001"
     d="M 7.6132806,2.1980475 2.4954151,7.2169142"
     id="path6" />
  <path
     style="fill:#000000;stroke:#666666;stroke-width:0.1;stroke-dasharray:none;fill-opacity:0.49792534;stroke-opacity:0.40000001"
     d="M 15.460358,1.8631714 2.5569054,14.707161"
     id="path7" />
  <path
     style="fill:#000000;stroke:#666666;stroke-width:0.1;stroke-dasharray:none;fill-opacity:0.49792534;stroke-opacity:0.40000001"
     d="M 22.714834,1.9028133 2.5172634,21.961637"
     id="path8" />
  <path
     style="fill:#000000;stroke:#666666;stroke-width:0.1;stroke-dasharray:none;fill-opacity:0.49792534;stroke-opacity:0.40000001"
     d="M 29.830563,1.8631714 2.4776215,29.097187"
     id="path9" />
  <path
     style="fill:#000000;stroke:#666666;stroke-width:0.1;stroke-dasharray:none;fill-opacity:0.49792534;stroke-opacity:0.40000001"
     d="M 37.144501,1.9028133 2.4974425,36.411125"
     id="path10" />
  <path
     style="fill:#000000;stroke:#666666;stroke-width:0.1;stroke-dasharray:none;fill-opacity:0.49792534;stroke-opacity:0.40000001"
     d="M 4.4002558,41.861893 42.555627,3.7461637"
     id="path11" />
  <path
     style="fill:#000000;stroke:#666666;stroke-width:0.1;stroke-dasharray:none;fill-opacity:0.49792534;stroke-opacity:0.40000001"
     d="M 44.517903,9.5735294 9.4347826,44.398977"
     id="path12" />
  <path
     style="fill:#000000;stroke:#666666;stroke-width:0.1;stroke-dasharray:none;fill-opacity:0.49792534;stroke-opacity:0.40000001"
     d="M 44.180946,17.462276 17.323529,44.339514"
     id="path13" />
  <path
     style="fill:#000000;stroke:#666666;stroke-width:0.1;stroke-dasharray:none;fill-opacity:0.49792534;stroke-opacity:0.40000001"
     d="M 25.351023,44.180946 44.161125,25.450128"
     id="path14" />
  <path
     style="fill:#000000;stroke:#666666;stroke-width:0.1;stroke-dasharray:none;fill-opacity:0.49792534;stroke-opacity:0.40000001"
     d="M 43.982737,33.279412 33.23977,44.240409"
     id="path15" />
</svg>
