<?xml version="1.1" encoding="UTF-8"?><svg xmlns="http://www.w3.org/2000/svg" xmlns:xlink="http://www.w3.org/1999/xlink" version="2.0" width="100pt" height="100pt" viewBox="0 0 2000 2000" clip-rule="evenodd" fill-rule="evenodd" preserveAspectRatio="none"><path d="M835 934q7-5 25 0 17 4 21 10l54 78 14 31-2 26-8 9-47 35q-8 24-8 46l38-27 20-4 15 11 66 96 1 18-7 15-15 19-96 66q36 59 22 100l-10 15-13 12-579 399-20 2-24-9q-23-25-43-59l-129 89-18-16Q0 1804 0 1649V1509L835 934" fill="#fff"/><path d="M2000 807v75l-695 20 695 255v153L950 971 858 9h98l151 458L1260 9h77L1219 540 1739 13l58 11-552 641 748-401q7 38 7 88V523L1296 794l704 13" fill="#fff" fill-opacity=".8"/></svg>