<?xml version="1.1" encoding="UTF-8"?><svg xmlns="http://www.w3.org/2000/svg" xmlns:xlink="http://www.w3.org/1999/xlink" version="2.0" width="100pt" height="100pt" viewBox="0 0 2000 2000" clip-rule="evenodd" fill-rule="evenodd" preserveAspectRatio="none"><path d="M1239 443Q1123 562 905 759v-1q-35-96-34-174 1-79 37-97l8-3h1l434-160-112 119" fill="#fff"/><path d="M871 1267l433 161h1l8 3q37 18 38 97 1 78-35 174v1q-215-195-333-316L871 1267" fill="#fff"/><path d="M1349 1299l-110-22 305-83 6-1q27-5 59 39 32 43 50 110v1l-310-44" fill="#fff"/><path d="M1383 561l132 9-72 122-60-131" fill="#fff"/><path d="M1209 1064q-10 14 46 54 55 40 48 55l-408-23h-2l-22-95q-46-6-62-31-21-32-21-127 273-109 422-180 66 49 159 110-26 53-76 122l-84 115" fill="#fff"/><path d="M311 674q55-102 131-102 43 0 82 36H490q-81 0-130 98-44 88-45 215-1 127 43 215 48 98 132 98h32q-38 33-80 33-77 0-131-101-54-102-54-246 0-144 54-246" fill="#fff"/><path d="M400 1094q-32-71-31-174 1-103 32-175 36-79 94-79H788q-41 5-69 78-28 74-28 176 0 101 28 175 28 73 68 78H495q-60 0-95-79" fill="#fff"/></svg>