<?xml version="1.1" encoding="UTF-8"?><svg xmlns="http://www.w3.org/2000/svg" xmlns:xlink="http://www.w3.org/1999/xlink" version="2.0" width="100pt" height="100pt" viewBox="0 0 2000 2000" clip-rule="evenodd" fill-rule="evenodd" preserveAspectRatio="none"><path d="M522 521Q323 720 323 1000q0 280 199 478 199 199 479 199 280 0 478-199 199-198 199-478 0-280-199-479-198-198-478-198-281 0-479 198m479-277q313 0 534 222 222 221 222 534 0 313-222 534-221 222-534 222-313 0-535-222-222-221-222-534 0-313 222-534 222-222 535-222" fill="#fff"/><path d="M508 773q57-131 160-225 261-235 587-59-38-19-118-25-110-7-208 27-288 101-339 509h84L536 1203 389 1000h79q-14-100 40-227" fill="#fff"/><path d="M747 1511q37 18 117 25 110 7 208-27 289-101 340-509h-84l137-203 147 203h-79q14 101-40 227-56 131-160 225-260 235-586 59" fill="#fff"/><path d="M1214 654q31 31 31 76 0 44-31 76-32 32-77 32-45 0-76-32-32-32-32-76 0-45 32-76 31-32 76-32 45 0 77 32" fill="#fff"/><path d="M953 797q32 31 32 76 0 44-32 76-32 32-76 32-45 0-76-32-32-32-32-76 0-45 32-76 31-32 76-32 44 0 76 32" fill="#fff"/><path d="M1214 999q31 31 31 76 0 44-31 76-32 32-77 32-45 0-76-32-32-32-32-76 0-45 32-76 31-32 76-32 45 0 77 32" fill="#fff"/><path d="M990 1249q0 45-31 77-32 31-77 31-44 0-76-31-32-32-32-77 0-45 32-76 32-32 76-32 45 0 77 32 31 31 31 76" fill="#fff"/></svg>