<?xml version="1.1" encoding="UTF-8"?><svg xmlns="http://www.w3.org/2000/svg" xmlns:xlink="http://www.w3.org/1999/xlink" version="2.0" width="100pt" height="100pt" viewBox="0 0 2000 2000" clip-rule="evenodd" fill-rule="evenodd" preserveAspectRatio="none"><path d="M1678 1000q0-280-199-478-199-199-479-199-280 0-478 199-199 198-199 478 0 280 199 479 198 199 478 199 281 0 479-199 199-198 199-479m-143 535q-222 222-535 222-313 0-534-222-222-222-222-535 0-313 222-534 221-222 534-222 313 0 535 222 222 221 222 534 0 313-222 535" fill="#fff"/><path d="M695 891q0 45-32 77-32 32-77 32-46 0-78-32-32-32-32-77 0-46 32-78 32-32 78-32 45 0 77 32 32 32 32 78" fill="#fff"/><path d="M1527 764q0 46-32 78-32 32-78 32-45 0-77-32-32-32-32-78 0-45 32-77 32-32 77-32 46 0 78 32 32 32 32 77" fill="#fff"/><path d="M1286 545q0 46-32 78-32 32-78 32-45 0-77-32-32-32-32-78 0-45 32-77 32-32 77-32 46 0 78 32 32 32 32 77" fill="#fff"/><path d="M914 545q0 46-32 78-32 32-77 32-46 0-78-32-32-32-32-78 0-45 32-77 32-32 78-32 45 0 77 32 32 32 32 77" fill="#fff"/><path d="M1024 1478q0 45-32 77-32 32-78 32-45 0-77-32-32-32-32-77 0-46 32-78 32-32 77-32 46 0 78 32 32 32 32 78" fill="#fff"/><path d="M1527 1107q0 45-32 77-32 32-78 32-45 0-77-32-32-32-32-77 0-45 32-77 32-32 77-32 46 0 78 32 32 32 32 77" fill="#fff"/><path d="M1336 1326q0 45-32 77-32 32-78 32-45 0-77-32-32-32-32-77 0-46 32-78 32-32 77-32 46 0 78 32 32 32 32 78" fill="#fff"/><path d="M971 815q0 45-32 77-32 32-77 32-46 0-78-32-32-32-32-77 0-46 32-78 32-32 78-32 45 0 77 32 32 32 32 78" fill="#fff"/><path d="M1234 847q32 32 32 77 0 46-32 78-32 32-78 32-45 0-77-32-32-32-32-78 0-45 32-77 32-32 77-32 46 0 78 32" fill="#fff"/><path d="M1024 1131q0 46-32 78-32 32-78 32-45 0-77-32-32-32-32-78 0-45 32-77 32-32 77-32 46 0 78 32 32 32 32 77" fill="#fff"/><path d="M752 1277q0 45-32 78-32 32-77 32-46 0-78-32-32-33-32-78 0-45 32-77 32-32 78-32 45 0 77 32 32 32 32 77" fill="#fff"/></svg>