<?xml version="1.1" encoding="UTF-8"?><svg xmlns="http://www.w3.org/2000/svg" xmlns:xlink="http://www.w3.org/1999/xlink" version="2.0" width="100pt" height="100pt" viewBox="0 0 2000 2000" clip-rule="evenodd" fill-rule="evenodd" preserveAspectRatio="none"><path d="M1792 823q16 63 16 151 0 88-16 151-16 63-39 63-23 0-40-63-16-62-16-151 0-89 16-151 17-63 40-63 23 0 39 63" fill="#fff"/><path d="M676 607q-81 0-138 107-58 108-58 260 0 152 58 260 57 107 138 107 43 0 83-35H726q-89 0-140-103-45-93-44-227 1-134 47-228 52-103 137-103h36q-41-38-86-38M967 789q30-77 72-82H731q-62 0-99 83-33 76-34 184 0 109 33 184 36 83 100 83h308q-43-5-72-82-30-78-30-185 0-107 30-185M1976 196q15 41 19 81L1700 403q-173 76-223 111 39 16 260-42l263-66V1483h-4q-45 7-262-36-211-41-257-30 41 43 403 192 41 16 119 58-2 51-13 91L829 1409l714 582H934L166 1189l241 461q-17-25-147-121L1 1347V640q177-86 320-164 152-82 179-110L166 763 1209 9h351L803 546 1976 196M1823 785q-31-78-75-78H1085q-43 5-72 82-30 77-30 185 0 107 30 185 29 77 72 82h663q44 0 75-78 31-78 31-189 0-110-31-189" fill="#fff"/><path d="M1624 875H672l39-86h951l-38 86" fill="#fff"/></svg>