<?xml version="1.1" encoding="UTF-8"?><svg xmlns="http://www.w3.org/2000/svg" xmlns:xlink="http://www.w3.org/1999/xlink" version="2.0" width="100pt" height="100pt" viewBox="0 0 2000 2000" clip-rule="evenodd" fill-rule="evenodd" preserveAspectRatio="none"><path d="M1691 1114l-70 3q-25 8-28 42-4 39 10 86 14 44 33 61l43 29q20 5 46-16 22-17 26-30l2-44-4-26q-4-25-31-53-25-26-27-52M1467 928l-36-10q52 24 67 54 8 16 2 34l-16 32-18 45-15 47q-6 16-6 68 1 40-21 60-29 27-128 18l-150-18q19 2 73 28 60 29 75 30l94-14q53-9 65 45 0-32 10-73l20-70 9-53 6-54q6-34 52-57 48-24 55-48l-46-9-29-19-29-22q-14-8-34-14M1129 448l126 12 117 31q69 18 111 46 45 30 95 106 102 36 169 80 79 51 110 179l6 79-5 78q-3 17-31 51-25 29-20 52 11 54 53 159l-58 33q-59 40-64 74-2 15 20 40 21 23 16 40l-31 75q-27-1-129-35-101-33-133-33 1-42-57-85l-59-34-65 1-5-5q-21-15-63-16h-68q-116-9-176-47v-44q-6-45-59-69l-74-9q-45-5-69-17-60-30-105-58-46-29-20-20 66 24 156 28 72 4 88 19 20 17 4 2l-32-27q-68-53-130-74-75-25-126-68-50-43-67-95-13-43-27-131l-12-80 32 84q43 88 95 113 56 26 94 30l51-5q20-7 18-29-3-23-27-47l-91-53q-75-39-100-66-38-39-65-110-31-80-35-168-2-38 4-22l30 73q68 141 171 131 112-11 52-95l-56-58q-30-25-39-27l-74-38q-76-40-137-58-80-24-144-93-67-72-81-160l-4-35 25 45q67 111 176 149 100 35 157 43 50 7 106 28 72 27 130 95l93 108q55 47 120 87 66 40 108 51l59 12q17 1 28-8 14-12 5-36-11-28-48-44l-83-30-88-32q-49-20-103-75-58-58-70-105-6-21-1-16l23 31q56 68 125 81l158 11" fill="#fff"/><path d="M1514 1795l-11 53-78 120-90-19-210-193 5-285 169-74-32 149 63 159 184 90" fill="#fff"/><path d="M300 404q23 25 70 49 42 21 51 36 65 104-2 113-43 6-84-32-34-31-61-85-19-37-30-106l-7-61 15 25 48 61" fill="#fff"/></svg>