<?xml version="1.1" encoding="UTF-8"?><svg xmlns="http://www.w3.org/2000/svg" xmlns:xlink="http://www.w3.org/1999/xlink" version="2.0" width="100pt" height="100pt" viewBox="0 0 2000 2000" clip-rule="evenodd" fill-rule="evenodd" preserveAspectRatio="none"><path d="M389 350q54 36 88 74 144 65 293 216L512 606 245 583 0 575 2 301q70 25 171 77 128 67 165 83-18-22-61-50l-65-48q13-25-23-59-35-34-18-63l-52-28q-31-18-29-41 44 16 103 54l97 64 99 60" fill="#fff"/><path d="M810 167l37-41q21-24 28-49 7-1 13 4-3 62 33 258 35 196 32 256L861 388q-68-153-83-217h18l14-4" fill="#fff"/><path d="M908 815q-42-25-62-77-23-61 22-90 44 19 87 66l72 81-62 5q-33 4-57 15" fill="#fff"/><path d="M690 1031 510 1179q-3-41 2-77 3-27 16-74l161-83q96-51 175-69-59 65-174 155" fill="#fff"/><path d="M1206 344l-73 90q-45 55-86 86 18-54 63-136l68-134q18 35 28 94" fill="#fff"/><path d="M966 938q85-45 139-65 13 10 39 15l38 12q-8-40-52-130-41-84-48-143 48-28 141-110 87-76 147-106 49-48 127-99l138-85L1891 71l31 29q78 87 78 251v870l-96 85q-80 65-88 88-7 19-14 120-7 99-5 155l-30 307q-54 16-113 16H1430l4-100q0-30 7-72 52-619 44-655l187-252 181-249-256 181q-180 128-291 146-21 51-70 288-47 222-50 261-3 52-17 103l-26 84-19 100q-59 16-121-1-38-11-98-42 8-25 0-34-30-19-100-8l-108 4q-85-26-120-94-38-74 43-114l109 14q67 7 114-29 29-23 71-274l52-311" fill="#fff"/><path d="M0 713l278 28 276 13 17 8 20 8 43-3 46-5 67 11 60 1L417 939Q183 1036 0 1077V908q268-39 350-61L189 836 0 832V713" fill="#fff"/><path d="M799 497q33 54 52 98-23-14-51-46l-46-56q-75-75-106-89-21-11-37-4-81-93-207-192L174 40Q243 8 333 8H505q37 71 119 183 89 123 122 180l-4 15-1 18 58 93" fill="#fff"/></svg>