<?xml version="1.1" encoding="UTF-8"?><svg xmlns="http://www.w3.org/2000/svg" xmlns:xlink="http://www.w3.org/1999/xlink" version="2.0" width="100pt" height="100pt" viewBox="0 0 2000 2000" clip-rule="evenodd" fill-rule="evenodd" preserveAspectRatio="none"><path d="M1738 365q-29-45-98-90-49-30-129-68l4-19q75 3 152 36 35 16 70 42 37 30 57 63 37 61 56 149 16 81 13 153l-20 3-47-141q-33-90-58-128m125 493q3 73-13 154-19 88-56 149-21 34-57 63-35 26-70 42-77 33-152 36l-4-19 129-69q69-43 98-89 25-38 58-128l47-141 20 2M975 881q0-21 15-35 14-15 35-15 20 0 35 15 15 14 15 35 0 20-15 35-15 15-35 15-21 0-35-15-15-15-15-35m100-243q0 21-15 36-15 14-35 14-21 0-35-14-15-15-15-36 0-20 15-35 14-14 35-14 20 0 35 14 15 15 15 35M960 416h123q76 0 98 51l270 29q52 12 65 76 10 47 1 168-9 137-20 191-9 39-36 73l-259 42 7 954h-73l-7-1021 277-23q15-16 20-40 9-45 19-181 11-164-10-169l-321-32V496q0-7-31-7H960q-31 0-31 7v38L609 566q-34 8 9 350 5 24 19 40l278 23-8 1021H835l7-954-259-42q-27-27-36-73-9-35-21-191-8-122 1-168 13-64 65-76l271-29q22-51 97-51M531 207q-79 37-130 68-69 45-98 90-25 38-58 128L198 634l-20-3q-3-72 13-153 19-88 56-149 20-33 57-63 35-26 70-42 77-33 152-36l5 19M198 856l47 141q33 90 58 128 30 46 98 89l130 69-5 19q-75-3-152-36-35-16-70-42-36-29-57-63-37-61-56-149-16-81-13-154l20-2" fill="#fff"/><path d="M1680 751q-10 152-23 215-18 83-74 146l-216 84 5 804h-81l-7-879 238-63q41-44 55-110 12-55 22-202 6-75 4-131-3-95-47-147-33-40-86-52l-243-27q-53-55-144-55H960q-91 0-143 55L574 416q-53 12-86 52-44 52-47 147-2 56 4 131 10 147 22 202 13 62 54 110l238 63-6 879H671l6-804-217-84q-56-67-73-146-13-58-24-215-6-79-4-138 5-138 80-213 49-48 117-64l226-26q71-58 178-58h123q106 0 179 58l226 26q68 16 117 64 74 75 79 213 3 46-4 138" fill="#fff" fill-opacity=".8"/></svg>