<?xml version="1.1" encoding="UTF-8"?><svg xmlns="http://www.w3.org/2000/svg" xmlns:xlink="http://www.w3.org/1999/xlink" version="2.0" width="100pt" height="100pt" viewBox="0 0 2000 2000" clip-rule="evenodd" fill-rule="evenodd" preserveAspectRatio="none"><path d="M780 1337l-59 19 67 83-8-102m97-404q-20-18-33-41l-2 2-183 122 32 86 28 9 106-15q108-11 117 15l69 264 181-126q-40-30-64-63-48-64-118-132L877 933m808-18q3-3 16 13l47 67q12 16 8 20l-21 14 106 187q9 21-193 130l-29 5-120-142-90 65q21 20 5 43l-21 17-17-9-31 19-31 7 3 12-19 11q-7 0-15-9l-232 168 33 134 42 7q43 12 42 35-2 31-77 72-80 43-146 39-59-3-102-19l-31-16-2-230q-433 162-484 172 3 60-20 68-21 7-51-34-29-41-51-106-20-62-21-112-2-49 17-59v-1h1l2-1h8l349-23-50-70-139-70 17-173 3-1 4-32-21-21q-11-12-12-22l35-1q-3-12-17-28l-24-24-28-29q-18-21-15-35l33 11L225 823 402 942l-4-10 12-2-17-25-15-26q35 21 59 11l-16-22-16-25-22-21-16-25q11 0 34 9l36 9L277 665l-9-1 6-2L159 555 400 693l69 18 36 11q23 3 15-18l20 6-13-22-12-9-9-12 31 10 31 11L207 286 727 612l36-7 76 8v-1q-32-32-36-45l20 6 19-1 3-13q0-19-7-20l-38-32q-27-20-38-34 28 16 96 24l-33-34-23-19-18-22 29 10L685 314l-26-14 16 5L539 180l522 255-1 1q37 26 56 75 20 50 15 107-5 62-37 110-31 47-77 63l4 9q30 84 93 161 31 38 89 89l95 83 1-2q14-18 37-27l23 29 58-40-95-160q4-14 15-26l90-80q85-70 96-60l141 162 21-14" fill="#fff"/></svg>