<?xml version="1.1" encoding="UTF-8"?><svg xmlns="http://www.w3.org/2000/svg" xmlns:xlink="http://www.w3.org/1999/xlink" version="2.0" width="100pt" height="100pt" viewBox="0 0 2000 2000" clip-rule="evenodd" fill-rule="evenodd" preserveAspectRatio="none"><path d="M1870 516q13 35 53 20-48 26-55 79-5 31-1 98-2 77-17 110-21 43-83 70l-90 35q-40 22-60 74-15 40-31 109l-26 112q-7-5-24-9l-24-10q4 68-44 81l-113-8-123-20q-61-1-74 43l-35 89q-25 62-21 94 4 36-75 41-76 4-99-20l60-35q45-27 47-42l28-174q12-74 54-104 26-19 117-45-94-55-139-69l-152 6q-51 21-77-55L834 859q37 1 67 43 31 44 51 47 7 2 29-16 23-19 33-20l18 4 16 1 80-20q31-3 75 19l69 40 60 52 33-68q20-47 12-72-8-25-53-48-44-23-46-34-4-21-27-53-27-37-33-54-3-6 2-26 4-19-6-33-8-12-38-25l-43-18 21-5 20-5-22-15q-15-12-23-15l19-2 21 1-40-21q20-3 20-13l2-19q40 17 96 94l83 116q20 25 90 33 75 8 98 28 4-9-8-60-9-40 20-52 17-6 24-32 6-23 33-27l29-5 33 5 36 88q9 49-37 84 28 37 77 33 50-3 62-48 24-71 31-118 12-88-45-86 17-13 40-16-44-20-20-39 23-19 52 13l-13-33q22 7 38 54M597 940q-13 13-13 32 1 19 14 32 13 13 32 13 19 0 32-14 13-13 13-32-1-19-14-32-13-13-32-12-19 0-32 13M482 974q0-19-13-32-13-13-32-13-19 0-32 14-13 13-13 32 0 19 14 32 13 13 32 12 19 0 32-13 13-13 12-32M322 619q16-14 38-20l171-21 161 6 36 304h36q8 0 8 29l2 117q2 29-6 29l-36 1-25 305q-7 32-332-2-23-4-39-18l-26-263-310 9V886l306-3 16-264" fill="#fff"/><path d="M0 361q2-78 23-135L1694 374 0 361M88 119q31-34 72-55L1260 268 65 146l23-27M0 1665v-76l1839-13L6 1738q-6-34-6-73m92 247q-40-40-62-90l1375-140L103 1923l-11-11" fill="#fff" fill-opacity=".8"/></svg>