<?xml version="1.1" encoding="UTF-8"?><svg xmlns="http://www.w3.org/2000/svg" xmlns:xlink="http://www.w3.org/1999/xlink" version="2.0" width="100pt" height="100pt" viewBox="0 0 2000 2000" clip-rule="evenodd" fill-rule="evenodd" preserveAspectRatio="none"><path d="M995 835q-23 0-39 16-16 16-16 39 0 23 16 39 16 16 39 16 23 0 39-16 16-16 16-39 0-22-16-39-16-16-39-16m72-120q36 0 36 9l-1 43 370 40q25 6 11 195-12 158-23 208-6 28-23 46l-321 25 1 721H863l6-723-320-27q-17-20-23-47-46-395-8-403l371-36V723q0-9 36-9l142 1m-72 385q-23 0-39 16-16 16-16 39 0 23 16 39 16 16 39 16 23 0 39-16 16-16 16-39 0-22-16-39-16-16-39-16" fill="#fff"/><path d="M1995 1724q-16 107-90 178-86 88-223 95l-485-606 113-10 482 422-364-433 97-9 470 363M1709 16q139 8 214 91 69 78 76 211L1477 722l-113-18 378-431-493 413-68-11L1709 16M205 1789l496-417 99 14-488 611q-134-9-219-95-71-70-88-183l487-376 92 13-379 433M88 109q75-78 198-92L813 676l-102 9L175 216 579 697l-86 7L2 324q9-134 86-215" fill="#fff" fill-opacity=".8"/></svg>