<?xml version="1.1" encoding="UTF-8"?><svg xmlns="http://www.w3.org/2000/svg" xmlns:xlink="http://www.w3.org/1999/xlink" version="2.0" width="100pt" height="100pt" viewBox="0 0 2000 2000" clip-rule="evenodd" fill-rule="evenodd" preserveAspectRatio="none"><path d="M1758 1352q3-28-22-93l-26-59-16 48q-18 50-34 64-16 14-240 29l-222 11 211 13 244 22q28 8 54 52l21 43q25-80 30-130m28-89 1 2q7 12 9 43l1 3v9q7 108-19 237-30 148-81 171-58 26-300 44l-303 13q-540 0-650-84-71-54-106-174-19-66-28-169-4-46 4-62 12-68 91-242 66-146 86-177l26-29 15-12 380-21 95-444q3-10 13-20 18-20 49-20 31 0 47 20l11 20 73 445 382 24 14 11q17 14 26 29l72 151q68 151 92 232M1122 914q-1-16-20-27-20-11-48-11-28 0-48 11-20 11-21 27-1 17 20 29 20 12 49 12 29-1 49-13 20-11 19-28M438 1370q16-14 240-29l222-11-455-35q-28-8-44-52l-11-43-23 46q-24 53-27 84-4 44 28 152 45-90 70-112m723-218q-1-25-33-43-31-18-74-18-43 0-74 18-31 18-33 44-1 26 30 46 32 19 77 19 46 0 77-19 32-20 30-47" fill="#fff"/><path d="M2000 477V663L1289 17h101l610 460M891 17h69L0 1561V1194L891 17m89 0h56L834 721l-131 6L980 17m126 0h56l283 726-135-16L1106 17m527 1831q144-24 202-107l65 167q-86 85-223 91l-44-151m367-842v326L1181 17h70l749 989M0 584 752 17H853L0 793V584M305 1746q87 68 207 90l-47 164H345q-71 0-131-20l91-234" fill="#fff" fill-opacity=".8"/></svg>