<?xml version="1.1" encoding="UTF-8"?><svg xmlns="http://www.w3.org/2000/svg" xmlns:xlink="http://www.w3.org/1999/xlink" version="2.0" width="100pt" height="100pt" viewBox="0 0 2000 2000" clip-rule="evenodd" fill-rule="evenodd" preserveAspectRatio="none"><path d="M923 1078q-12-19-34-24-22-5-42 7-19 12-24 34-5 23 8 42 12 20 34 24 22 5 42-7 19-12 24-35 5-22-8-41m589 229 1-16q35 15 41 54 17 21 22 53 4 33-6 67l-2 5-3 1q-21 10-49-9l-43-39-2-13q19-15 28-47l13-56m-193 11q4 6 25 17-13 65 36 115-2 21 15 36 57 52 82 67-37 20-51 30-26 18-41 39l-16 33-37 86q-22 47-48 78-22 73-51 127l-21 37h-85q50-67 64-112l43-137 15-53 15-56-12 29-21 48-26 46-110 181-36 54H964l188-365q49-43 68-100 7-20-1-48l-8-24-12-23-8-22-2-1q-18-8-14-30-16-16-11-40l1-5 35 13q34 8 60-7 25-15 39-47l2-18 2 6q21 11 11 35l5 11M665 1020q-12-19-35-24-22-5-41 8-20 12-24 34-5 22 7 42 12 19 34 24 23 5 42-7 19-13 24-35 5-22-7-42M949 619q118 23 118 42 0 39-46 370l42 9q4 1 4 12l-3 25-31 139q-9 35-17 33l-42-10-119 353q-9 19-156-22L0 1507v-43l426-2-2-2 9-66L0 1303v-20l442 49 27-191L0 1038V780L524 901l62-196L0 486v-3L605 644l16-50 17-7L6 264l4-18L949 619m275-510q39 74 55 126l50 179 52 179 56 151q34 91 48 153 11 9 10 23l-2 47q0 10 11 12l21 1q18 4 35 21l21 35q10 33-2 59-12 25-40 38-16 22-39 28-25 7-48-10-62-47-143 8-29 20-60 5-29-14-43-46-13-31-7-68 6-34 27-63l2-3-9-27-6-63-81-395L988 64q2-36-5-64h93l7 16 20 50 15 51 53 205 35 165q22 96 49 161l25 80 21 79q8 22 45 66 34 40 39 63-1-59-15-117l-37-108q-8-19-15-56l-13-56-22-47-22-46q-12-38-27-150-13-95-38-144L1128 86l-24-42-26-44h115q26 60 31 109m540 1356q22-7 42-31-2-13 25-45l39-43 38 128q14 9 16 23l8 7q-18 13-47 37-26 15-55 0l-13 10q-18-6-37-36-19-31-16-50m-27-391q-1-6 1-9l28-17q16-10 34-7-7 34-8 82l-2 84q-78 6-93 33-19 3-36-12-22-18-30-21l-1-9 10-4q12-35 39-68 27-34 58-52" fill="#fff"/></svg>