<?xml version="1.1" encoding="UTF-8"?><svg xmlns="http://www.w3.org/2000/svg" xmlns:xlink="http://www.w3.org/1999/xlink" version="2.0" width="100pt" height="100pt" viewBox="0 0 2000 2000" clip-rule="evenodd" fill-rule="evenodd" preserveAspectRatio="none"><path d="M1501 767q17 1 30-10 13-12 14-30 1-17-10-30-12-13-30-14-17-1-30 10-14 12-15 30-1 17 11 30 12 13 30 14m279-7q14-12 15-30 1-18-11-31-12-13-30-14-17-1-30 11-13 12-14 30-1 17 10 30 12 13 30 14 17 1 30-10M736 1338l-7 28-5 28-2 46-8 45q-14 35-10 73l11 75 8 48-1 25q0 18 5 23l9-35 4-36 1-20 1-20 7-43 8-87q8-56 3-80l-14-93q2-22-5-35l-5 58m32-228q2 16-5 26l-15 21h-7q-5 18-34 42l-46 27q14 1 39-10l38-17v-4l22-4 3 4 10 47 10 48 3-25 2-25q12-28 11-48l-8-52-8-52-5 24-10-2m-102-16-22-14-17-22-22-41 7 17 6 18 6 51 5 24 4 24 3 58 6-6q0-4 3-9 1-25 21-47l38-36 8-3-46-14M493 760l-13-47-293 47H493m540 12q-5 3-13 25l-15 21q-28 26-52 31l15 9-55 7-25-7q-12-4-19 11h-4l-12 17-14 15-1 4-4 1v4h-4l-2-18-9 20q-28 74-10 138 8 30 34 58 34 37 51 33-52-34-49-94l30 16 29 13q-16-34-17-53l2-29 9-1 10 5 2-16 16 11q10 8 17 8-6-40 6-76l6-17q4-7 14-7 7 0 17 6l17 6 19 12-6-28q-4-16-2-28h42l16-4-58-10q14-14 17-41l2-42M981 513v39 42l-2-25-8 27q-4 17-2 27l-10 22-11 20-3 1v4l-27 6-23 12-23 12-27 5-28-5q-7-7-10-27V639q0-24-6-31l2 27 2 26-6 51q-4 2-10 18l-17 5-38 9-41 3-13-33-1-12-6-40v-1l-1-8-1-44-6 39q2 27-7 45l-18 39q-6 17-17 22-22 0-41-11-44-27-40-51h-2q-2 20 18 56 11 19 42 34l52 18 25 11q17 9 19 17l39-3 38-10-24 36-24 35-38 60 25-30 24-31 13-14 21-18q12-13 23-16l35 2 35 2-28-12q-16-9-21-20-24-14-1-57 17-11 45-22 45-19 48-20 21-9 40-25l20-13 25-15 24-13q22-4 60 18l-29-33q-18-19-35-20 1-20-9-50l-21-46m165 65q-2 85-43 99l13 13 9 15q19 10 55 55v-2l22 20q12 13 12 20l66-7 7-11 15-5-1-2h4l10-32 10-31h-43l-43-4h-50l-13-5 2-6 2-1 5-13-16 3 8-22 4-23-8 12-11-1q-4-7 0-33l-16-39m255-273q17-15 42-21l193-11q174-4 180 18l35 341h40q8 0 8 33V814q0 33-8 33h-41l-10 271-8 15q-13 16-37 18l-185 2-166-13q-7-9-28-128-21-112-35-216h-34v3q0 14-12 24-11 9-28 9l-84 1q2 27 7 48 7 28-8 64-15 40-32 55l-45 40-92 80v4q-14 8-23 32l-8 9q-9 5-7 16l6 20 7 59 28 342q29 330 39 398H725l55-7 25-6 25-4 61-2-1 2 149-1-66-794 36-55-34 25-46 28q-16 4-64-34l3 16q6 18 20 33 22 24 51 36l26 545-58-129v1l-3-8-11-35q-9-23-17-31l-7 55-7 55 3 59q0 39-16 49l-7 10-8 8-10 26-6 33-3 33-1 31q-3 14-17 22-9 4-32 18l-33 17-7 4H533l60-726q9-44 5-77-5-66-30-144l-15-72-13-74h-1q5-37 36-57l59-33q3-12-4-24l-91 3H528v-6L0 788V662l530-1-8-46q-2-28 7-39l2-8 6-9h4l4-5 1-4 13-8 15-13 15-8q9-5 17-4l20 7 20 8 21 3 17-10 20-31 26-16 30-3q11 2 31 14l30 12q2-13 10-21l23-16 22-14q23-7 53 6l48 25q5-22 15-35 11-11 43-20l46-4q13 5 33 29l32 35q45 40 35 68 17 26 22 64l104-1q17 0 28 10 12 10 12 23v7h27l27-352" fill="#fff"/></svg>