<?xml version="1.0" encoding="UTF-8" standalone="no"?>
<svg xmlns:ffdec="https://www.free-decompiler.com/flash" xmlns:xlink="http://www.w3.org/1999/xlink" ffdec:objectType="shape" height="100.0px" width="100.0px" xmlns="http://www.w3.org/2000/svg">
  <g transform="matrix(1.0, 0.0, 0.0, 1.0, 0.0, 0.0)">
    <path d="M100.0 0.0 L100.0 100.0 0.0 100.0 0.0 0.0 100.0 0.0" fill="#000000" fill-opacity="0.003921569" fill-rule="evenodd" stroke="none"/>
    <path d="M87.25 6.55 L87.65 6.45 Q88.2 6.45 88.5 7.35 88.85 8.5 88.85 11.1 88.85 16.45 88.5 18.1 87.45 22.7 84.35 27.9 79.9 35.75 60.35 54.8 L40.75 73.2 40.45 73.4 45.05 79.0 Q45.6 79.75 44.1 81.05 42.7 82.45 42.05 81.8 L37.85 76.5 Q37.65 76.3 37.2 76.7 L20.55 91.45 Q18.85 93.3 17.85 93.6 16.35 93.85 14.95 91.35 L12.8 88.8 Q11.0 86.6 11.2 86.2 L12.05 85.25 30.85 69.65 Q31.1 69.5 28.2 65.4 L26.8 63.7 26.7 63.7 26.6 63.4 26.55 63.4 26.55 63.15 26.45 63.05 Q26.45 62.5 27.85 61.55 29.15 60.6 29.7 61.0 L34.3 66.8 37.75 63.3 55.6 46.8 Q68.6 33.9 78.0 20.35 L85.1 10.0 86.6 7.65 Q86.9 6.8 87.25 6.55" fill="#ffffff" fill-rule="evenodd" stroke="none"/>
  </g>
</svg>
