<?xml version="1.1" encoding="UTF-8"?><svg xmlns="http://www.w3.org/2000/svg" xmlns:xlink="http://www.w3.org/1999/xlink" version="2.0" width="100pt" height="100pt" viewBox="0 0 2000 2000" clip-rule="evenodd" fill-rule="evenodd" preserveAspectRatio="none"><path d="M1265 1113q45 24 104 16 66-9 72-58-77-38-186-77-2 90 10 119m502-171q26 8 47 34l31 44q49 20 73 41 35 30 35 71 0 23-22 55l-43 58-33 60-32 57q-21 30-79 59-65 34-81 49-13 12-36 55-21 38-38 49l-49 20q-31 10-42 28-8 12-11 34l-6 39-19 45-16 38q-6 25-10 71l-7 76-7 67H699q32-56 37-84 9-51-5-113l-21-91-6-83-3-90-7-94q-6-58-6-88 1-70 21-149 18-72 44-120l74-112 40-47q22-25 25-44 5-32-22-96-186-77-280-115-165-68-287-110-23 12-38 74-14 58-40 65-28 8-82-23L77 630q16-82 83-221l48-105q40-77 69-81 28-4 80 30 52 34 54 56 2 25-24 60-28 37-28 62 93 45 247 110L857 647q8-65 32-108 24-44 68-74 88-59 184-45 90 13 158 84 62 65 68 160 6 88-38 178l174 69 88-4 76 26 54 4 46 5" fill="#fff"/></svg>