<?xml version="1.1" encoding="UTF-8"?><svg xmlns="http://www.w3.org/2000/svg" xmlns:xlink="http://www.w3.org/1999/xlink" version="2.0" width="100pt" height="100pt" viewBox="0 0 2000 2000" clip-rule="evenodd" fill-rule="evenodd" preserveAspectRatio="none"><path d="M1532 1006v153l-428 42V1009l428-3M801 1545V1343l501-53-2 161-384 72-115 22M230 1010H368v250l-135-27-3-223m2 333 138 29 1 228-137-55-1-65-1-137m235 35 227-25-1 212-223 43-3-230m2-115-1-43V1014l533-4v201l-532 52m-4-596 225 19 3 215-227-1-1-233M228 382l136-56 2 229-138 27V382m768 24V602L466 553l-3-243 533 96m305 382V903l-499-2q-3-66-3-206l502 43v50M1100 612l1-75 1-112 441 79V654l-170-15-273-27m721 623 51-5v111l-50 10-1-116m-94 10-2 125-325 61V1280l327-35m148-242-3 124-243 24V1005l246-2M1728 776l-2 126H1403V748l13 1 312 27m94 126V783l54 5-2 114h-52m55-338V685l-238-22V522l238 42" fill="#fff"/><path d="M385 646l2 153 1 126H209V842l-1-161 177-35" fill="#fff"/></svg>