<?xml version="1.1" encoding="UTF-8"?><svg xmlns="http://www.w3.org/2000/svg" xmlns:xlink="http://www.w3.org/1999/xlink" version="2.0" width="100pt" height="100pt" viewBox="0 0 2000 2000" clip-rule="evenodd" fill-rule="evenodd" preserveAspectRatio="none"><path d="M315 1758l-52 118 81 27-134 68q-68-24-119-75l-25-29 249-109m25 82 47-105 75-51 52-27q32-16 49-36l53-74q34-50 43-55l17-9q-10 18-16 65-10 94 16 240l33 204H345l-44-2-1-1q167-112 184-119l-144-30M1454 601l23 175q17-11 29 4 23 29-1 159-16 86-31 128l-23 48q-9 15-31 21l-21 2-55 184q-20 71-105 160-68 72-106 92-43 23-221 14-75-4-253-287-33-53-55-189-22 1-37-28l-26-58q-14-25-20-117-5-70-4-126 1-31 26-31l25 6 18-162q36-174 123-233 162-110 368-93 173 15 283 101 59 46 94 230M908 966q21-29 53-133 8-27 56-23l26 3q11 5 16 33 4 28 39 86l48 76q16 24 58 53 44 31 71 34 103 9 156-55 31-39 40-102 7-46 1-90-8-69-107-104-43-14-110-19l-269-1-274 4q-35 1-78 20l-36 18q-32 28-42 83-9 43-2 79 11 54 38 95 45 67 122 64 77-2 133-50l61-71m99-184-33 6-19-26q-19-20-43-21h190q-49 19-53 39-2 11-8 8l-34-6m679 1048 76-34-61-107 263 125q-23 45-61 82-49 52-123 77l34-63-128-80m-41 27 92 61-28 71-55 3H1318l44-275q26-145 15-239-5-48-15-66l16 9 43 55 53 74q17 20 49 36l53 28 74 50 47 106-144 29 92 58m-839 13q-64-16-88-53l66-20 98 3q27 21 33 41v16l238-4 4-16 11-30q18-30 79-1 60 28 55 47-4 19-55 18-55-1-62 10l-70 111H951l-84-107-61-15" fill="#fff"/><path d="M702 1529q9 35 21 57 27 49 59 75 35 29 124 72l132 78 75-56q84-67 126-116 66-77 89-161 11-42 9-69 24 49 27 108 2 37-17 172l-20 128-41-32q-49-31-83-27-35 3-65 31l-24 27-164 1-7-13q-16-19-59-47l-121-3-69 31-18-198q-1-53 16-122 0 27 10 64" fill="#fff" fill-opacity=".8"/></svg>