<?xml version="1.1" encoding="UTF-8"?><svg xmlns="http://www.w3.org/2000/svg" xmlns:xlink="http://www.w3.org/1999/xlink" version="2.0" width="100pt" height="100pt" viewBox="0 0 2000 2000" clip-rule="evenodd" fill-rule="evenodd" preserveAspectRatio="none"><path d="M467 856q0-9-8-17-7-7-17-7-9 0-17 7-7 8-7 17 0 10 7 17 8 8 17 8 10 0 17-8 8-7 8-17M331 745q-7 7-7 17 0 10 7 17 7 7 17 7 9 0 16-7 8-7 8-17 0-10-8-17-7-7-16-7-10 0-17 7m1-75h25Q508 540 522 535L695 707 559 864l4 27 68 87 66 79 143 143 8-8 402 402-11 10 7 7 26 2 17 36q-14 52-26 64-7 8-36 18l-28 8-36-17-2-26-7-7-10 10-402-401 8-8-144-142-79-66-87-68-28-3-157 135L83 974q3-9 69-88l66-77V784l9-8-9-9q-5-5 17-31l23-26q50-48 57-40l9 8 8-8" fill="#fff"/><path d="M1903 908q37 207-15 395-122 438-655 588 267-143 352-429 76-258-18-519-95-262-303-362-231-111-501 43-12 7-92-71-87-84-115-92-105 61-153 80l-94 26Q693 72 1134 113q187 17 355 134 158 111 269 287 109 175 145 374" fill="#fff" fill-opacity=".8"/></svg>