<?xml version="1.1" encoding="UTF-8"?><svg xmlns="http://www.w3.org/2000/svg" xmlns:xlink="http://www.w3.org/1999/xlink" version="2.0" width="100pt" height="100pt" viewBox="0 0 2000 2000" clip-rule="evenodd" fill-rule="evenodd" preserveAspectRatio="none"><path d="M103 1434q0-138 44-239 21-51 43-74l3-4q5-5 198 62l191 68-69 286-100-5q-135-20-310-94m485-298-26-20 73-247 330 42-19 267-259-16q-61-6-99-26m55 271q28-134 62-147l99 5 197 13 197-13 98-5q34 13 62 147 27 126 17 147-7 13-70 29-105 25-304 25-199 0-305-25-63-16-70-29-10-21 17-147M780 600l-45 93q-39 81-49 83-204-37-241-75-25-25 30-81 46-46 84-63 44 15 96 22l125 21M283 880q61-100 77-110 11-7 106 42l90 46-31 94-53 132-93-16q-91-21-136-55-28-21 40-133m757 33 320-44 73 247q-85 37-170 49l-134 12-70 3-19-267m481-293q55 56 30 81-23 24-133 52l-108 23q-9-2-49-83l-46-93 125-21 97-22q38 17 84 63m-361-98-162 11-162-11q-123-18-145-47-7-9 77-34 103-31 230-31 199 0 306 65-22 29-144 47M855 614l35 6 108 6 142-12 96 186-45 17-191 17-193-17-48-17 96-186m780 156q162 209 117 243-45 34-135 55l-93 16q-38-86-54-132l-31-94 91-46q94-49 105-42m220 425q43 101 43 239-175 74-310 94l-100 5-69-300q381-124 389-116l3 4q22 23 44 74" fill="#fff"/></svg>