<?xml version="1.1" encoding="UTF-8"?><svg xmlns="http://www.w3.org/2000/svg" xmlns:xlink="http://www.w3.org/1999/xlink" version="2.0" width="100pt" height="100pt" viewBox="0 0 2000 2000" clip-rule="evenodd" fill-rule="evenodd" preserveAspectRatio="none"><path d="M1663 532q115-24 183 41 51 48 43 136-7 87-68 132-89 7-141-32-35 10-81 50l-72 58q-41 25-138 40l-162 24-56 12q-43 6-78 1-28 21-53 74l-42 85 106-32 111-6q52 17 72 104 18 84-9 145-16 38-71 57-57 19-88-12l-127-15q-68-12-103 15-23 17-39 69-17 56-37 77-11 55-6 161 4 119-1 171l-6 45-17 60H345q-109 0-189-47-6-48-1-115 8-82 71-205 22-44 32-57l47-47q24-27 23-74 0-22-26-82-27-64-32-97-5-33-1-101l1-97-21-93q-13-60 2-98 6-15 36-44 28-27 41-33l32-5 32-1q97-20 153-57V706 675q-5-27-35-76-31-49-36-77-26-161 92-227 114-64 240 16l31 58q19 39 33 57-7 52 26 89 2 16-10 26-14 12-16 19 15 21-1 61-16 44-5 73l-35 29q-23 16-29 35 25 17 56 20l52-1 80-17 73-2q18 6 51 29 28 19 45 22 36 5 87-12l79-33 74-35q47-19 98-16l23-19 22-19-9-16q-9-8-4-22 21-81 136-105" fill="#fff"/></svg>