<?xml version="1.1" encoding="UTF-8"?><svg xmlns="http://www.w3.org/2000/svg" xmlns:xlink="http://www.w3.org/1999/xlink" version="2.0" width="100pt" height="100pt" viewBox="0 0 2000 2000" clip-rule="evenodd" fill-rule="evenodd" preserveAspectRatio="none"><path d="M659 260q29-57 66-71 73-27 151 18 5 100-48 161-41 46-130 79 45 47 86 40 30-4 73-44l75-66q48-33 95-28 27 3 103 53 63 42 137 27l85 95q62 67 92 118l74 130q44 83 50 127 11 79-21 189-20 70-67 175l170 150q102 92 185 135 0 88-7 128-13 76-55 85-16-10-9-31l9-49q-10-113-145-190-168-73-237-112-27 66-6 175 14 75 50 162-39 32-93 47-63 17-120-2 7-8 66-44 47-27 50-63 2-21-10-31l-26-31q-7-15-19-72l-25-97-47-99q-22-49-15-114 2-28 22-87 19-60 40-99l39-52q21-24 23-46 6-73-76-162-75-81-128-87-40-4-88 26-53 34-81 37-10 77-65 273-33 171 38 233-56 8-88-31-30-50-54-67 34-38 23-109L769 926q-204 119-257 435-26 18-60 66l-64 94-103 155q-37 88 41 156-77 30-160-63 46-45 95-205 46-150 109-194-5-24 3-75 6-44-3-58 44-67 51-190 5-70-4-236-16-320 59-418 17-16 65-25 49-10 69-28 14-12 49-80" fill="#fff"/></svg>