<?xml version="1.1" encoding="UTF-8"?><svg xmlns="http://www.w3.org/2000/svg" xmlns:xlink="http://www.w3.org/1999/xlink" version="2.0" width="100pt" height="100pt" viewBox="0 0 2000 2000" clip-rule="evenodd" fill-rule="evenodd" preserveAspectRatio="none"><path d="M306 1431q-116-63-143-125l-16-203q109 66 279 109 243 62 573 63h12q309 0 538-68 163-49 271-127l-9 236-29 40q-44 49-118 88-235 127-681 121-445-7-677-134" fill="#fff"/><path d="M504 795l-13 15q-27 27-35 61-11 45 20 80 46 53 138 81 130 39 372 39 232 0 349-32 98-28 162-95 40-41 21-90-16-38-74-69 262 39 347 127 42 44 32 80l-1 9q-83 77-236 131-240 85-586 83-367-1-621-79-154-47-238-110l-1-15q-2-36 43-82 89-90 321-134" fill="#fff"/><path d="M519 873q8-16 17-23l2-2 3-4q6-9 25-20 38-22 105-36v31l13 9q30 19 81 36 101 34 223 34h12q128-2 220-36l70-36 11-9V796q69 17 113 40 40 21 48 41 6 11-8 26-51 53-129 75-111 33-339 33-378 0-465-99-13-16-2-39" fill="#fff"/><path d="M731 785V753q79-46 255-46 176 0 255 46v34q-88 49-242 51H988q-151 0-257-53" fill="#fff"/></svg>