<?xml version="1.1" encoding="UTF-8"?><svg xmlns="http://www.w3.org/2000/svg" xmlns:xlink="http://www.w3.org/1999/xlink" version="2.0" width="100pt" height="100pt" viewBox="0 0 2000 2000" clip-rule="evenodd" fill-rule="evenodd" preserveAspectRatio="none"><path d="M1033 1572h-11q-366-1-621-79-153-47-237-110l-1-15q-2-36 42-82 89-90 322-134l-13 14q-27 28-35 62-11 45 20 80 46 53 138 81 130 39 372 39 232 0 349-32 98-28 162-95 40-42 20-90-14-37-73-69 262 39 346 127 42 44 32 80v9q-84 76-235 129-238 85-577 85" fill="#fff"/><path d="M1022 1632h12q309 0 538-68 163-49 270-127l-8 236-29 40q-44 49-118 88-235 127-681 121-446-7-678-134-116-63-143-125l-15-203q109 66 279 109 243 62 573 63" fill="#fff"/><path d="M1011 1255h12q128-2 220-36l70-36 11-9v-21q69 17 113 40 40 21 48 41 6 11-8 26-51 53-129 75-111 33-339 33-378 0-465-99-14-16-2-39 8-16 17-23l2-2 2-4 26-20q38-22 105-36v31l13 9q30 19 81 36 101 34 223 34" fill="#fff"/><path d="M754 1110q27-16 77-28 74-18 178-18 176 0 255 46v34q-88 49-242 51h-11q-151 0-257-53v-32" fill="#fff"/><path d="M1389 488l-26 445 415-743-104 792 255-196-125 424-43-28q-56-35-127-65-228-98-513-119l-284-3q-283 19-498 126-107 54-158 104 5 0-100-361L263 966 107 210 527 831l11-388L771 811 958 26l161 809 270-347" fill="#fff" fill-opacity=".8"/><path d="M1086 994h-3l-319 6L953 488l111 469 247-266-12 326-183-19-30-4" fill="#fff"/><path d="M1591 1019l-2 68q-91-33-223-60l282-437-57 429" fill="#fff"/><path d="M764 1000l-92 12-86 15 1-3q-65 18-202 76l-173 99-84-262 233 146-57-391L590 996l31-234 143 238" fill="#fff"/><path d="M1763 1181l-86-47-88-47 268-182-94 276" fill="#fff"/></svg>