<?xml version="1.1" encoding="UTF-8"?><svg xmlns="http://www.w3.org/2000/svg" xmlns:xlink="http://www.w3.org/1999/xlink" version="2.0" width="100pt" height="100pt" viewBox="0 0 2000 2000" clip-rule="evenodd" fill-rule="evenodd" preserveAspectRatio="none"><path d="M766 636l249-10 170 5 77 5V754l-84-5-175-6-237 11V636" fill="#fff"/><path d="M1298 129q23 71 69 74 44 2 80-59l35-69q24-45 47-66h45q-7 23-7 120 0 78-44 150-54 90-30 176 22 77 66 71 31-5 39-110 7-95-7-117 21 28 81 84 52 67 47 167-2 62-11 97-8 32-32 85-22 51-48 89l-62 81q-26 33-37 90-10 53-3 102 69 9 118-60l45-86q29 66 11 124l-40 81q-13 24-68 42-55 18-69 41-48 82 35 130 75 42 159 21l77-90q34-50 24-123l16 19 23 23q5 78-8 131-14 60-57 110-36 41-102 65l-117 41q-9 41-58 103-49 62-56 95 42 32 95-5l82-55q-14 47-90 107-66 52-121 74l-77 15q-51 9-69 33-14 19-12 62H523q-76-62-112-127 117 95 220 38-33-19-67-69-32-46-47-91l-126-7q-84-2-124-16-63-22-77-80-5-21-5-118l3-129 3-131-11-126q-8-79 4-119 32 62 55 236 20 154 73 216 46 53 90 70 63 23 101-39 35-56 3-107-14-21-72-70-89-91-79-194l73 78q53 50 96 41 7-137-39-214-45-76-157-123-26-10-65-47l-50-50q-29-98-32-167-3-79 24-143-9 185 159 244-1-23-15-44-14-21-36-30l-33-80q-13-44 13-84 21-31 64-67 47-39 80-49V348l-7-45q-21-16-21-72l-2-80q27 97 88 64 62-34 56-126L543 9H719l3 95q6 57 24 83 56 9 88-56Q859 82 864 9h418q2 78 16 120m102 230q0-19-35-45-31-23-66-35-116-43-174-55l-120-7-111 7q-28 6-81 22l-73 24q-20 8-49 28l-39 31q-15 16-21 48l13 1220q1 31 11 72 11 45 46 70 26 18 82 34l156 11 225-2q73 0 143-29 56-24 73-46 11-14 19-43l6-26-5-1279" fill="#fff"/></svg>