<?xml version="1.1" encoding="UTF-8"?><svg xmlns="http://www.w3.org/2000/svg" xmlns:xlink="http://www.w3.org/1999/xlink" version="2.0" width="100pt" height="100pt" viewBox="0 0 2000 2000" clip-rule="evenodd" fill-rule="evenodd" preserveAspectRatio="none"><path d="M754 797l237-11 175 6 84 5V679l-77-4-170-5-249 9V797m598-440q35 26 35 45l5 1279-5 26q-8 29-19 43-18 23-73 46-70 29-143 29l-225 2-157-11q-55-16-81-34-35-25-46-70-10-41-11-72L618 420q7-32 21-48l39-31q30-20 49-28l73-24 82-22 111-7 120 7q62 13 173 55 35 13 66 35" fill="#fff"/><path d="M74 111 88 95q35-37 81-59L525 530 74 111" fill="#fff"/><path d="M338 1H453L568 283 338 1" fill="#fff"/><path d="M637 1h77V223L637 1" fill="#fff"/><path d="M863 1h175L945 142 863 1" fill="#fff"/><path d="M1159 1h167L1184 168 1159 1" fill="#fff"/><path d="M1594 1 1390 251 1447 1h147" fill="#fff"/><path d="M1694 1q105 3 176 48L1461 438 1694 1" fill="#fff"/><path d="M1996 282 1493 587l452-462q41 63 51 157" fill="#fff"/><path d="M10 251 340 530 0 357V347q0-53 10-96" fill="#fff"/><path d="M0 461 515 758 0 588V461" fill="#fff"/><path d="M0 702 480 893 0 855V702" fill="#fff"/><path d="M0 978l485 62L0 1171V978" fill="#fff"/><path d="M0 1306l515-41L0 1461V1306" fill="#fff"/><path d="M0 1564l547-114L6 1731q-6-36-6-76v-91" fill="#fff"/><path d="M55 1858l470-170-347 277q-47-22-86-61l-37-46" fill="#fff"/><path d="M348 2001q142-86 283-173L498 2001H348" fill="#fff"/><path d="M674 2001l111-120 27 120H674" fill="#fff"/><path d="M955 2001l74-120 79 120H955" fill="#fff"/><path d="M1236 2001l-46-120 188 120H1236" fill="#fff"/><path d="M1743 1991l-88 10H1539l-111-183 315 173" fill="#fff"/><path d="M1868 1935l-350-343 469 169q-22 84-83 143l-36 31" fill="#fff"/><path d="M2000 1631l-482-325 482 118v207" fill="#fff"/><path d="M2000 1130v139l-482-177 482 38" fill="#fff"/><path d="M2000 1000l-482-70 482-142v212" fill="#fff"/><path d="M2000 613 1518 758l482-350V613" fill="#fff"/></svg>