<?xml version="1.1" encoding="UTF-8"?><svg xmlns="http://www.w3.org/2000/svg" xmlns:xlink="http://www.w3.org/1999/xlink" version="2.0" width="100pt" height="100pt" viewBox="0 0 2000 2000" clip-rule="evenodd" fill-rule="evenodd" preserveAspectRatio="none"><path d="M1631 1003l29 2v79l-49-4-106-4 40-45 16-31 70 3m192-398 34-8q-5 15-5 75 0 49-27 94-33 56-18 109 14 49 41 45 19-3 24-69 4-61-5-74l51 53q33 42 30 105l-7 61-20 52-30 56-39 50q-17 21-23 56-7 34-2 65 43 5 74-38l28-54q18 41 7 78l-25 50-37 43q-29 28-37 43-29 50 7 54l85-13 33-45q8-13 16-45 25 45 22 94-3 48-32 81-21 24-51 30l-61 14q-4 21-44 44-35 20-31 60 32 24 65 17 32-6 50-34-9 29-57 67-40 31-75 46l-48 9q-32 6-43 21-9 12-7 38l-16-19q-24-13-88 10-70 25-103 7-52-27-82-29-25-1-28 13-3 14 37 24 120 32-12 23-136-9-174-29-47-40-69-79 72 60 137 24-20-12-42-44-19-28-29-56-26-4-65-25-46-24-63-30-39-14-48-50-3-13-3-74l-9 12q-21 25-51 30-46 8-61 15-4 20-44 43-35 20-31 60 31 24 65 18 32-6 49-35-8 29-56 67-41 32-75 46l-48 9q-32 6-43 21-8 12-8 39l-16-19q-24-13-88 10-69 25-103 7-51-28-81-29-25-2-28 12-3 15 37 25 119 32-12 23-136-9-174-29-47-40-69-80 72 61 137 24-21-12-42-43-19-29-29-57-26-4-65-24l-63-31q-39-14-48-50-3-12-3-74-1-31 3-25l50 70q22 26 48 21 28-6 49-50 10-21 4-51-7-31-27-48-56-58-49-121l38 39q26 21 53 15 5-85-17-123-22-38-91-68l-40-29-32-31Q13 971 43 897q-6 114 99 152 0-14-9-27-9-14-23-19L90 952q-9-27 8-52 13-19 40-42 29-24 50-30V799l-4-28q-14-10-13-45l-2-49q17 60 56 39 38-21 34-79l-5-50q54 161 54 126-2-64 28-105 32-46 28-21-11 52-6 86 4 25 20 47 73 30 81-7 7-29-25-82l52-4q59 16 96 113 3 7 14-33l50 24q28 16 38 39 13 28-22 21-36-7-41-21-3-10-11 12l-14-4-73-4-68 4-95 28-30 17-24 20q-8 9-13 29l9 748q0 19 6 44 7 27 29 42 15 11 50 21l96 7 137-1q45 0 88-18 34-14 45-28l12-26 3-16-1-248 100 14q-9 31 27 31l76-14 29-38 36-12q15 59-8 107l44 60q23 26 48 21 29-6 50-50 9-20 3-50-7-31-27-48-24-26-38-55 43-10 57 9 19 25 49 18l10-29q14-29 35-29l3 297q0 19 6 44 7 28 29 43l50 21 96 6 137-1q45 0 88-18 34-13 45-27l12-27 3-16-3-783q0-12-22-28-18-14-40-22l-107-33-52-4 5-51q2-38-23-68l-25-23q49 24 81 107l31-85q39-97 103-67l-18 47q-12 50 15 63 44 22 69 19 29-4 37-45 9-57 45-76M370 1074V995l133-6q-7 44-3 78l-130 7m285-81v5q-4 27-35-7l35 2" fill="#fff" fill-opacity=".8"/><path d="M860 590V511l166-7 113 4 52 3v79l-56-4-117-4-158 8" fill="#fff"/><path d="M1013 289l-68 4q-45 8-95 28-12 4-30 17l-24 19q-9 10-13 30l9 733-1 14 7 44q7 27 29 43l49 21 96 6 138-1q45 0 88-18l45-27 11-27 3-16-3-784q0-12-21-27l-40-22q-75-27-107-33l-73-4m341-180 34-8q-5 15-5 76 0 49-27 94-33 56-19 109 14 49 41 45 20-3 24-69 5-61-5-74l52 53q33 42 30 105l-8 61-19 52-31 56-38 50q-17 21-23 56-7 33-2 64 43 6 73-37l28-54q19 41 8 78l-26 50-36 43q-29 28-37 43-29 50 7 54l85-13 32-45q8-13 16-45 25 45 23 94-3 48-32 81-21 24-51 30l-61 14q-4 20-44 43-35 21-31 61 31 24 65 17 32-6 49-34-8 29-56 67-40 31-75 46l-48 9q-32 5-43 20-8 10-8 39l-16-19q-24-13-88 10-69 25-103 7-52-27-82-29-25-1-27 13-3 14 37 24 120 32-12 23-137-9-174-29-47-40-70-79 74 59 138 24-21-13-42-44-20-29-29-56-27-4-66-25-47-24-63-30-39-14-48-50-3-14-3-74 0-31 4-25 28 44 50 69 22 26 48 21 28-6 49-50 10-20 4-50-7-32-27-49-56-56-50-121l39 39q26 21 53 16 5-86-17-124-22-38-92-67l-40-30-31-30q-36-121-5-194-6 116 99 152-2-33-32-46l-21-50q-8-28 9-52 13-20 40-42 29-25 50-31l-1-28-4-29q-13-10-13-45l-1-49q17 60 55 39 38-21 35-79l-5-50q54 161 53 127-1-64 29-106 32-46 28-21-19 89 14 134 73 30 81-7 7-29-25-82l52-4q59 15 95 112l31-85q39-98 104-68l-18 48q-13 50 14 63 45 22 70 19 29-4 36-45 10-57 46-77" fill="#fff"/></svg>