<?xml version="1.1" encoding="UTF-8"?><svg xmlns="http://www.w3.org/2000/svg" xmlns:xlink="http://www.w3.org/1999/xlink" version="2.0" width="100pt" height="100pt" viewBox="0 0 2000 2000" clip-rule="evenodd" fill-rule="evenodd" preserveAspectRatio="none"><path d="M554 1355q9-33 39-41h47q14 9 18 31 2 21-7 31l-43 29-35 8-35-1q-18-12-21-40-2-21 2-30 8-15 18-19-3 20 0 48 1 8 10 14l22 4-10-15q-6-7-5-19m1303-336 14 13 7 415q0 41-45 52l-46 3h-65l-739 15-595 11q24-29 32-32-1-40 28-49l1-26 7-20q7-6 28-7l21-1q4 0 4 5v7l13 20 19 8 63-10q27-8 44-19 24-18 28-34l5-29q3-24-1-29l148-12 77-1 70-5 42-2 41-2q9 5 9 33h14q11-3 14 0l1 8h28 53l40 1 38-2 4-4 4-4 115-1 63 1 56-6 12-5 6-5 6-7q0-14 12-17l109-1 108-5 13 1 11-5q8 3 9-4v-12q17-5 12-38l-5-8-4-4-6-8q-5-6-2-12h-33q-8 2-8-6v-14q-2-9 8-9h16l16-2 9-6 1-28-6-26q-13-11-32-10l-33 3-446 3-289 2q-183 0-272 3l-126 4-44 1-50 6-64 11-37 5-4-9-25 2-24 7q-16 0-16 25-11 0-21 8l-28 33q-3 88 11 107 8 11 23 12l3 1 1 3 15 13q14 8 14 16l-1 10-3 10-41 54-48 70 2 41-95-11q-7-3-9-20-5-32-10-396-7-45 64-61l183-14q279-8 846-13l555-5q52-1 77 13" fill="#fff" fill-opacity=".8"/><path d="M248 864l-75-7-7-38q-4-32-4-373-6-41 68-45l182 2 794-12 516-9q49 1 73 14l14 13 1 391q-1 38-44 47l-44 2L248 864" fill="#fff" fill-opacity=".8"/><path d="M1905 1163l1 52v52l2 36q1 19 10 28 9 8 18 6l15-6 1-86q1-52-9-87-2-7-16-7l-22-2v14m-848 459 105-15 1-34q-4-16-38-15l-88-4-94 1v34q0 21 5 29l109 4M762 948l6 27q75 5 232 2l239-5q21 0 21-25 0-25-17-26-77-2-249-1H756l6 28m714 15 105-7q24-2 28-21 4-19-28-18l-219-4q-14 51 6 47l108 3M398 1024l-193 14q-80 16-73 61 5 364 10 396 2 17 7 19 14 9 78 12 137 6 756-9l739-15h65l46-3q45-11 45-52l-7-415-14-13q-25-14-77-13l-547 6-835 12m21-77v23l220 6q21-2 14-28-6-26-22-27l-106 1-100 2q-7 4-6 23m-7-544-182-2q-74 4-68 45 0 343 4 373l3 26q8 16 44 18 73 4 1509-14l44-2q43-9 44-47l-1-391-14-13q-24-13-73-14l-516 9-794 12m89-65 64-6 64-7 8-13 9-14h21q9-2 9 11 0 15 4 16h76q9 0 6-11-5-13 2-16h17q9-3 9 8l-1 18 440 6 9-22q6-10 20-9 11 4 9 31l52-2q27-4 33-21l33-3 34-2q9 1 13 14l8 17h67q35-4 43-27l40 1q21 2 19 21 71 5 93-23l34 1 30 3q2 28 48 27l70 3q17 13 17 84 1 65 26 72l-16 24-21 18-7 124q-4 75 16 109l-9 15-16 7-9 104q-18 16-76 12l-85 3q-1 16 6 32 8 16 17 17l86-3q53-1 65 18l9 43 5 46q38 26 17 45 7-1 17 7 10 8 18 6 24 35 27 89l1 120q1 20-14 42l-27 36q15 72-4 100-23 34-101 22-6 2-9 12l-7 15-93 1v-23q-11 5-31 35-17 24-41 24v-31h-53q-29-2-32-22h-89q-7-1-7 10-1 12-5 13l-36 2-40-2q-9 4-8-11 1-14-9-11-10-2-9 9v18l-97 1q-6-7-4-27l-18 3-20 2q-6 22-4 67-14 20-41 26l-69 6-134 6q-75 0-111-18-5-17-5-76l-16-4H816q-6 1-7 12l-5 15q-30-2-30-22-18 21-25 49H728q-8-3-17-25-7-18-21-19-6-1-4 11 1 12-5 11H652q-5-5-5-27l-72 4-76 2q-8 0-13 9l-12 13-33 4-34 6q-9 5-9 36-30 4-45-26l-27-45q-7 2-8 16l-4 19-81 1q-7-25-17-31l-66 1q-40 1-56-9l-13-37q-8-20-22-26 7-52 4-85 1-11 12-16l18-11 9-117 6-121-9-17-12-14 3-82q4-39 32-52l66-2 69-4 33-3q24-5 24-25-1-20-25-23H244l-81 6q-42 1-56-21-11-19-12-54l-1-72 10-11 11-11-14-238Q68 492 71 413q-3-11 6-12l15-6 7-33q2-23 13-30 18-4 51 0l47-1q8-2 16-15 9-13 17-16l33-1h35q10 0 16 15 6 16 14 17l48-3q25-4 32-20 58-8 80 30" fill="#fff"/><path d="M1675 1166l7 5 2 11-33 5-127 1-7-12-5-13 102-1 34-1 27 5" fill="#fff" fill-opacity=".8"/></svg>