<?xml version="1.1" encoding="UTF-8"?><svg xmlns="http://www.w3.org/2000/svg" xmlns:xlink="http://www.w3.org/1999/xlink" version="2.0" width="100pt" height="100pt" viewBox="0 0 2000 2000" clip-rule="evenodd" fill-rule="evenodd" preserveAspectRatio="none"><path d="M819 844q18 28 47-33 17-34 12-58l-8-17-10-13q-14-5-38 38-16 31-13 57l10 26M804 530q-14-4-38 39-16 31-13 57l10 26q18 28 47-33 17-34 12-59l-8-17-10-13M926 312q-14-5-38 38-24 46-3 83 18 29 47-32 17-35 12-59l-8-17-10-13m29-96 73 287 3 9-1 27-10 46L832 930q-15 31-28 27-13-4-18-22L738 786q-44-131-44-167 1-25 62-121L925 213q8-9 18-9 6-1 9 6l3 6m25 375q18-35 13-59l-9-17-10-13q-14-5-37 38-27 49-3 83 5 10 14 8 15-4 32-40" fill="#fff"/><path d="M533 852q-11 4-11 13 2 15 34 39 31 23 56 22l18-5q11 0 15-7 7-13-31-44-41-33-81-18m-163 3q11 0 15-7 7-13-32-44-27-22-53-22l-28 5q-11 4-10 13 2 15 34 38 31 23 56 22l18-5m29-130-28 5q-11 4-10 13 2 15 34 39 31 23 56 22l18-5q11-1 15-7 7-14-31-44-28-22-54-23m78-56q-11 4-11 13 2 15 34 38 31 23 56 22l18-5q11 0 15-7 7-13-31-44-41-32-81-17M292 620q-41-32-81-17-11 4-10 13 2 15 34 38 31 23 55 22l18-5q11 0 15-7 7-13-31-44M119 551q-2-12 10-20 7-6 21-6l12 1L577 628l36 17 21 30 12 23 73 250 2 10-1 19-18 17L280 887q-21-2-50-34-11-12-21-39L119 551" fill="#fff"/><path d="M386 350q8-15 3-25-10-20-77 4-48 17-69 50l-16 40q-4 17 8 24 18 10 72-12 52-21 71-53l8-28M763 225l8-27q8-15 3-25-10-20-76 4-47 17-68 50-7 10-16 39-4 17 8 23 18 10 71-11 51-21 70-53M354 106q17-29 45-44 26-14 50-11L622 86l224 52 13 4 9 9q4 4-4 17L738 401Q644 572 629 579q-18 8-187-36L241 489q-91-22-80-55 16-43 101-182l92-146" fill="#fff"/><path d="M832 1354q-4-11-13-10-15 2-38 35-22 32-21 56 0 12 5 18 1 11 8 15 13 7 43-32 21-28 22-54l-6-28m104-171q-22 31-21 56 0 12 5 18 1 11 8 15 13 7 43-32 22-28 22-54l-5-28q-4-11-14-10-15 2-38 35m-121-24q-4-11-13-10-15 2-38 35-22 31-21 56 0 12 5 18 1 11 7 15 13 7 43-32 32-42 17-82M950 950q-15 2-38 34-22 32-21 57 0 12 5 18 1 11 8 15 13 7 43-32 31-42 16-82-4-11-13-10m61-75 34 228q9 77 5 99-4 25-80 109L757 1565l-6 4-13 3q-9-1-10-14l-26-296q-4-12 4-35l18-44L965 873l12-13q13-13 20-9l12 14 2 10" fill="#fff"/><path d="M1424 1217q-9 12 24 48 24 26 49 31h28q32-7-15-55-27-27-51-31l-19 2-16 5m-31-191q-9 12 24 48 35 39 77 30 11-1 12-11 1-15-27-44-27-27-51-30l-19 2-16 5m-91 35-16 5q-9 12 23 48 36 39 78 30 31-7-15-55-27-27-51-30l-19 2m-114 43-16 5q-9 12 24 48 24 26 49 31h28q33-7-15-55-27-27-51-31l-19 2m44-161q-27-27-51-31l-19 2-16 5q-9 12 24 48 24 26 49 31h28q33-7-15-55m-149-99 12-10 8-3 400 173 13 7q16 12 30 35 15 22 19 67l42 249-1 6-11 12-35-1-393-167q-21-11-32-23-7-7-16-33l-8-24-32-259q-2-19 4-29" fill="#fff"/><path d="M1475 1450q-17-14-73 0-55 13-78 41-12 14-13 26l-7 24q8 22 77 9 50-10 76-39l22-36q6-17-4-25M823 1652l-13-5-7-11q0-8 7-17l162-209q120-154 137-158 19-6 178 65 168 77 190 86 87 36 70 67-35 64-243 293-22 25-52 36l-51 3-165-63-213-87m96-72q-11 14-12 25l-7 24q7 21 76 8 49-9 75-37l21-37q7-16-4-24-16-13-72 0-54 13-77 41" fill="#fff"/><path d="M295 1545l219 8q112 26 206 84 88 56 163 152 72 91 112 188L849 1819q-86-84-160-131-77-47-189-89-108-38-205-54" fill="#fff" fill-opacity=".8"/><path d="M300 1955q47-51 135-81 37-12 77-18l81-4q73 4 154 36 83 37 135 78l-148-34-144-21-71 3-73 8q-79 12-146 33" fill="#fff" fill-opacity=".8"/><path d="M2003 1709l-147 31-69 22-66 28q-50 25-123 78l-121 92q31-61 91-126 60-63 126-97 30-16 75-30l78-15q93-9 156 17" fill="#fff" fill-opacity=".8"/><path d="M1651 1547q-48 42-74 75-52 64-111 182-39 81-87 203 5-101 45-220 40-118 106-202 29-37 83-82 51-40 95-64l104-46q63-19 112-20-95 40-190 107-48 35-83 67" fill="#fff" fill-opacity=".8"/></svg>