<?xml version="1.0" encoding="UTF-8" standalone="no"?>
<svg xmlns:ffdec="https://www.free-decompiler.com/flash" xmlns:xlink="http://www.w3.org/1999/xlink" ffdec:objectType="shape" height="100.0px" width="100.0px" xmlns="http://www.w3.org/2000/svg">
  <g transform="matrix(1.0, 0.0, 0.0, 1.0, 0.0, 0.0)">
    <path d="M100.0 100.0 L0.0 100.0 0.0 0.0 100.0 0.0 100.0 100.0" fill="#000000" fill-opacity="0.003921569" fill-rule="evenodd" stroke="none"/>
    <path d="M84.85 38.55 L15.7 38.55 15.7 34.95 84.85 34.95 84.85 38.55" fill="#ffffff" fill-rule="evenodd" stroke="none"/>
    <path d="M50.05 10.55 Q66.4 10.55 77.85 22.1 89.45 33.65 89.45 50.05 89.45 66.4 77.85 77.85 66.4 89.45 50.05 89.45 33.65 89.45 22.1 77.85 10.5 66.4 10.5 50.05 10.5 33.65 22.1 22.1 33.65 10.55 50.05 10.55 M86.05 50.05 Q86.05 35.05 75.45 24.6 64.9 14.0 50.05 14.0 35.05 14.0 24.5 24.6 13.9 35.05 13.9 50.05 13.9 64.9 24.5 75.45 35.05 86.05 50.05 86.05 64.9 86.05 75.45 75.45 86.05 64.9 86.05 50.05" fill="#ffffff" fill-rule="evenodd" stroke="none"/>
    <path d="M51.6 13.4 L28.75 81.05 25.5 79.85 48.35 12.35 51.6 13.4" fill="#ffffff" fill-rule="evenodd" stroke="none"/>
    <path d="M51.6 12.35 L74.45 79.85 71.2 81.05 48.35 13.4 51.6 12.35" fill="#ffffff" fill-rule="evenodd" stroke="none"/>
    <path d="M15.5 34.85 L73.4 79.55 71.3 82.35 13.3 37.65 15.5 34.85" fill="#ffffff" fill-rule="evenodd" stroke="none"/>
    <path d="M86.45 37.65 L28.65 82.35 26.6 79.55 84.25 34.85 86.45 37.65" fill="#ffffff" fill-rule="evenodd" stroke="none"/>
  </g>
</svg>
