<?xml version="1.1" encoding="UTF-8"?><svg xmlns="http://www.w3.org/2000/svg" xmlns:xlink="http://www.w3.org/1999/xlink" version="2.0" width="100pt" height="100pt" viewBox="0 0 2000 2000" clip-rule="evenodd" fill-rule="evenodd" preserveAspectRatio="none"><path d="M730 848q28-59 78-101-169 68-342 230 167 153 337 225-48-43-74-100-28-60-28-125 0-68 29-129m287 506-16-1q-207-6-442-169L414 1070l-60-58-34-36 34-35q89-91 208-174Q796 603 987 603q242 0 478 165 119 83 198 175l29 35-30 34-60 59-145 117q-235 166-440 166m-14-597q-91 0-155 65-64 64-64 155 0 91 64 155 64 64 155 64 91 0 155-64 65-64 65-155 0-91-65-155-64-65-155-65m272 89q30 62 30 131 0 73-33 138-32 62-89 104 184-67 369-243-163-163-356-232 51 43 79 102" fill="#fff"/><path d="M1495 249q106 71 186 170 78 97 126 218 23 61 36 121 14 65 17 126 7 130-37 255-43 125-128 221-83 96-200 157-119 59-244 69-130 11-254-40-123-51-204-150l258 12q89 32 183 19 95-13 179-62 84-48 143-122l124-139q63-81 57-158-1-16-41-72-42-58-45-72-15-57-30-91-36-90-98-164-60-74-141-128-81-54-173-80-93-27-189-26-88 1-193 31-189 52-340 195Q337 678 272 871q-67 193-38 398 27 200 151 398 119 189 292 325H510q-95-63-144-113-45-47-112-147-129-192-178-436L60 1176q-5-64-2-121 6-119 43-240 74-239 250-415Q526 224 770 149q56-17 120-28l126-12q128-3 250 33 122 35 229 107" fill="#fff" fill-opacity=".8"/></svg>