<?xml version="1.1" encoding="UTF-8"?><svg xmlns="http://www.w3.org/2000/svg" xmlns:xlink="http://www.w3.org/1999/xlink" version="2.0" width="100pt" height="100pt" viewBox="0 0 2000 2000" clip-rule="evenodd" fill-rule="evenodd" preserveAspectRatio="none"><path d="M516 507l5 29q9 36 32 73 71 115 243 186 173 71 421 58 124-6 213-27l-195-14Q997 779 781 684 670 635 582 566l-66-59M1588 386l37 51q40 63 60 122 65 189-98 271l-377 191q-101-12-241-51-187-52-252-111-27-27 17 23 32 36 75 70 140 110 315 134-124 68-211 141-127-21-227-77l-74-53q-17 18 43 78 74 72 207 98-126 126-130 272-2 64-103 153l-101 83 85-12q72-21 102-79-42 110-32 177 4 35 42 105 3 5-32-9-41-16-82-41-128-79-184-202l-39-102-35-108q34 75 133 99l81 6q-84-26-156-95-59-55-82-107l-2-14q30 20 59 32l206 7 105-29q-111 29-205-95-30-39-54-89l-19-42q61 96 179 95 59 0 106-20l-40-13q-55-25-132-86-77-61-117-200L391 831q-5 6-28 92l-25 93 46-254q53 131 200 180 73 25 136 24-36-17-82-46-92-59-138-122-44-61-72-123l-19-49q66-308 113-401 12-24 66-52 83-43 211-43 145 0 294 44 91 28 170 68 86 44 147 103 58 56 70 113 12 54-18 95-55 67-197 67h-14q-76-3-153-22-99-24-175-68-43-24-76-55-33-31-44-60-13-29-7-56 6-26 29-45 38-29 113-29 64 0 150 27 55 17 76 48l-99-16q-121-21-164 28-11 14 2 35 18 32 70 59 44 24 115 40l107 12q107-2 134-40 14-19 6-45-8-26-35-54-31-33-88-63-56-30-122-51-124-37-243-43-120-6-198 22-72 29-81 78-7 31 12 74 51 80 139 146l119 68q114 67 287 102 150 29 235 18 235-30 278-118 23-48-20-142l-30-84" fill="#fff"/><path d="M375 1316q31 41-50-15l10-151q6 58 17 105 11 45 23 61" fill="#fff"/></svg>