<?xml version="1.1" encoding="UTF-8"?><svg xmlns="http://www.w3.org/2000/svg" xmlns:xlink="http://www.w3.org/1999/xlink" version="2.0" width="100pt" height="100pt" viewBox="0 0 2000 2000" clip-rule="evenodd" fill-rule="evenodd" preserveAspectRatio="none"><path d="M473 1817l-52 5 258-11q258-9 264 7 10 30 42 36l65 3q42 2 65-20l19-26q4-4 72-1l67 4 340 4-211-43q-150-36-180-37-34-1-56 15-11 7-35 33-22 25-32 45-48-25-79-23-20 1-36 14l-12 13-20-40q-7-17-26-35-38-34-99-33-57 1-142 35l-114 42-98 13M91 1854l-6-17q-4-17 6-20l27-2 15 2 105-151 61-3 101-9 138-20 117-24 109-57q76-45 117-45 88 0 128 76 20 37 22 75 5-39 19-78 29-78 77-80 94-4 214 47l142 62q108 21 207 18l78-7 128 195 32 6 5 26-790-15-23 31-170 8-22-57-837 39" fill="#fff"/><path d="M67 878l40 89q50 106 104 196 172 288 314 301L236 1139l420 305-90-113q-89-114-82-114 5 0 156 102 185 104 357 113 173 9 381-121l125-91 48-42-137 231 417-401-266 375q91-50 117-75 61-57 170-258l97-189-39 341-22 64q-29 75-62 136-107 194-218 165-98-25-236-72-130-45-162-52-49-11-121 18l-63 32-150-32q-47-8-156 40l-170 74q-60 20-178 32l-106 7-125-352q-18-52-48-223L67 878" fill="#fff" fill-opacity=".8"/><path d="M1223 236q110 41 106 106-2 31-35 54-50 35-57 44 67 95 55 203-12 100-83 177-72 77-170 95-106 20-203-40-62-38-99-100-44-72-43-160 0-51 18-97 10-27 40-81l-54-42q-31-24-30-61 2-64 105-97 57-19 172-41h106l78 18q65 11 94 22m-55 26q-63-25-146-30-117-7-209 36-107 51-32 128l-9 19q-8 9-2 18 41 24 113 36l139 8 112-12q59-12 85-36-13-24 5-51 21-32 21-44-2-43-77-72" fill="#fff"/><path d="M1179 393q-54 47-181 45-122-2-188-42 12-30 56-51 41-20 90-25 70-7 134 14 63 21 89 59" fill="#fff"/><path d="M601 856q70-27 100-43 53 78 140 117 96 43 218 29 70-8 133-53 40-29 97-90 144 44 182 110l19 45q7 29 3 53-3 20-31 51l-46 48q-67 70-160 118-95 48-197 61H920q-89-11-185-56-91-43-155-101-66-60-73-92-4-20 3-67 7-44 16-64 16-38 75-66" fill="#fff"/></svg>