<?xml version="1.1" encoding="UTF-8"?><svg xmlns="http://www.w3.org/2000/svg" xmlns:xlink="http://www.w3.org/1999/xlink" version="2.0" width="100pt" height="100pt" viewBox="0 0 2000 2000" clip-rule="evenodd" fill-rule="evenodd" preserveAspectRatio="none"><path d="M1521 1271q94-14 185 35 67 37 127 105-68 150-184 266-139 139-327 210 42-116 50-215 11-157-74-218-122-86-136-191-5-32 2-63l8-24 109 57q130 54 240 38" fill="#fff"/><path d="M1571 1117q-140 29-244-13-64-26-104-73l693-1q2 187-75 364-168-299-270-277" fill="#fff"/><path d="M531 1423q62-137 176-182 57-22 102-17l-67 129q-59 143-16 209 50 76 21 174-20 70-78 145-178-71-311-204-105-105-173-243 287 117 346-11" fill="#fff"/><path d="M1286 313q56-40 118-72 53-27 56-24-63 61-122 137-117 152-94 228 24 78-70 217-47 70-99 124l165-56q177-67 233-123 61-61 281-12 111 24 209 60-91-8-194 3-207 21-266 113-33 52-171 94l-167 39-446-4q-60 10-110 45-82 57-114 170-28 97-135 127l-198 6q-71-171-71-353l559-1q-103-89-352-98-61-2-168-163L36 609l96 102Q250 813 356 812l190 6 190 57q22-38 19-90-5-104-126-172-184-103-66-340 37-75 100-153l55-64-28 58q-32 72-48 136-52 206 67 267 121 61 182 195 31 67 37 121 44-23 89-72 90-98 95-227 4-103 174-221" fill="#fff"/><path d="M1169 1533q110 67 141 190 20 79 5 166-146 53-303 55-156 1-303-49 121-70 180-139 84-98 27-182-74-109-1-197 24-27 59-49l30-16 17 70q38 84 148 151" fill="#fff"/></svg>