<?xml version="1.1" encoding="UTF-8"?><svg xmlns="http://www.w3.org/2000/svg" xmlns:xlink="http://www.w3.org/1999/xlink" version="2.0" width="100pt" height="100pt" viewBox="0 0 2000 2000" clip-rule="evenodd" fill-rule="evenodd" preserveAspectRatio="none"><path d="M1312 1026q0-69-30-131-29-59-80-102 111 40 220 117 76 54 136 115-187 178-369 243 57-42 89-104 34-65 34-138" fill="#fff"/><path d="M1669 993q-78-92-198-175-236-165-478-165-191 0-425 163-118 83-207 174l-35 36 35 35 60 58 144 114q236 163 443 170h16q205 0 439-166 75-53 145-117l60-59 31-34-30-34M345 358 717 486q56-31 122-51L1014 82l173 354q63 18 121 50l374-126-127 372q31 59 50 122l353 175-353 173q-18 61-50 121l127 372-374-125q-52 29-121 50l-173 354-175-354q-64-18-122-50L345 1698l126-374q-32-60-51-122L67 1029 420 854q20-66 51-122L345 358" fill="#fff"/><path d="M708 1026q0 66 27 125 27 58 74 100-169-71-337-225Q648 864 815 796q-50 42-78 101-29 61-29 129" fill="#fff"/><path d="M1010 807q91 0 155 64 64 64 64 155 0 91-64 155-64 64-155 64-91 0-155-64-65-64-65-155 0-91 65-155 64-64 155-64" fill="#fff"/></svg>