<?xml version="1.1" encoding="UTF-8"?><svg xmlns="http://www.w3.org/2000/svg" xmlns:xlink="http://www.w3.org/1999/xlink" version="2.0" width="100pt" height="100pt" viewBox="0 0 2000 2000" clip-rule="evenodd" fill-rule="evenodd" preserveAspectRatio="none"><path d="M1492 874l-24-5h-21q-17 11 9 68 18 41 48 58 12 7 35 11 42 4 3-74-22-44-50-58m-191-34q-22-45-50-59l-24-5h-21q-17 11 9 69 18 41 48 58l35 10q15 3 20-9 6-18-17-64M1170 617q15 1 19-10 7-17-16-64-22-44-51-58l-24-5h-21q-16 11 10 68 19 41 48 58 12 7 35 11m201-117 31 24 44 54 236 527q23 45 7 57l-42 2-217-77q-192-67-234-99-29-22-87-179l-99-250-83-203q-3-18 5-29 5-7 15-6l9 3 415 176m-16 84-24-5h-21q-17 11 9 69 19 41 49 58l34 10q42 3 4-73-22-45-51-59" fill="#fff"/><path d="M936 1442l9-23q8-12 4-21l-69-3q-44 11-65 38-9 10-17 32-5 14 6 21l66-5q48-14 66-39m247 58q8-12 4-21l-69-2q-67 16-82 70-5 14 5 20l66-4q48-14 67-40l9-23m272-216q8-12 4-21l-70-3q-67 17-81 70-5 14 5 21l66-5q48-14 67-40l9-22m-249 49-69-3q-44 11-65 38-9 10-17 32-11 41 72 16 48-14 66-40l9-22q8-12 4-21m16-136q8-12 4-21l-69-2q-67 16-82 70-5 14 6 21l65-5q48-14 67-40l9-23m403 3 20 17q8 15 3 36l-501 399q-21 22-85 28l-64-10-388-130q-15-9-15-30 0-13 12-30l12-14 490-394 18-10 35-16 54 2 37 6 358 139 14 7" fill="#fff"/><path d="M613 1123q-8-18-21-20-26-5-50 74-18 57-3 100l26 43q13 16 28 9 23-10 40-75 17-64 0-104l-20-27M790 669q23-10 40-75 17-63 0-103l-20-27q-8-18-21-21-26-5-51 74-17 57-2 100l26 43q13 16 28 9m38-323q10 3 18 20l160 356q116 263 110 287-6 27-209 186L665 1382q-50 40-80 53-40 17-57-9-36-57-123-281L317 908q-18-46-11-92 7-44 32-68L533 577Q713 423 794 361l16-12 18-3" fill="#fff"/></svg>