<?xml version="1.1" encoding="UTF-8"?><svg xmlns="http://www.w3.org/2000/svg" xmlns:xlink="http://www.w3.org/1999/xlink" version="2.0" width="100pt" height="100pt" viewBox="0 0 2000 2000" clip-rule="evenodd" fill-rule="evenodd" preserveAspectRatio="none"><path d="M695 1372q38 20 94 40-27-27-60-44-56-30-120-43 46 29 86 47M230 736Q109 623 102 493q-8-124 92-213 94-88 254-129 180-45 378-27 121 9 228 45 124 40 207 103 84 64 113 140 25 73-1 139-57 118-248 161L928 729q-129-4-234-44-61-22-108-56-47-35-69-73-43-79 5-147 38-52 134-76l95-19q55-5 99 11 51 19 95 69l-99-12q-86-6-148 23-49 24-68 59-13 26 10 57 29 40 101 64 63 21 152 21l142-17q60-16 102-43 41-27 53-59 14-33-1-70-16-37-57-69-47-38-124-65-78-26-164-34L530 262q-149 29-242 95-87 65-87 143-3 92 98 184 53 47 132 86 80 40 172 65l111 25h2q92 0 183 19l94 3q322 0 573-99 233-94 327-270l21-55 13-39 15 37q15 43 17 75 8 102-75 198-78 89-222 157-199 93-472 112 44 30 77 65 52 57 61 111 9 52-18 91-55 72-201 75h-8l-140-17q-95-21-167-64-41-24-71-54-29-31-39-59-19-57 22-92 33-30 105-33 85-2 143 22 27 12 41 32l9 18-56-23q-58-18-112-10-51 8-72 33-18 24-2 55 19 36 71 65 44 25 114 39l112 8q109-6 140-55 17-25 10-57-6-33-35-65-37-43-117-82l-65-1-206-23q-85-13-171-38-49 7-88 24-81 37-93 98-17 71 50 155 28 36 69 68l21 1q84 7 164 48 47 24 82 58l35 42 105 26q259 54 472 18 242-44 291-150 5-10 6-42l-1-30 14 26q14 32 10 59-9 72-82 126-70 51-184 77-92 22-208 22-147 0-307-38l-86-24q5 26 0 48-9 35-33 57-48 42-136 31-40-4-85-23-53-25-84-58-39-42-36-84 3-36 32-54 28-17 68-12 41 3 80 27l-1 4q-37-17-72-16-34 1-55 17-21 18-20 47 2 27 28 55 26 25 62 38l68 16q70 5 107-29 34-32 25-82l-13-4q-81-30-150-67-75-40-144-97l-71 11q-63 18-89 65-31 53-12 119 20 70 90 129 57 50 142 84 147 61 288 53 144-8 224-81l5 3q-60 96-211 114-151 17-309-56l-80-44-74-59q-71-70-90-145-19-70 11-128 28-54 87-78 23-9 56-16-31-29-52-58-72-95-60-185 12-84 94-131l27-14Q328 830 230 736" fill="#fff"/></svg>