<?xml version="1.1" encoding="UTF-8"?><svg xmlns="http://www.w3.org/2000/svg" xmlns:xlink="http://www.w3.org/1999/xlink" version="2.0" width="100pt" height="100pt" viewBox="0 0 2000 2000" clip-rule="evenodd" fill-rule="evenodd" preserveAspectRatio="none"><path d="M1263 470l-72-134q108 32 198 101 91 71 155 173 95 152 85 310-12 177-164 216 119-153 43-367-72-199-245-299" fill="#fff" fill-opacity=".8"/><path d="M1906 1188q-73 188-230 315-149 121-341 159l4-223q134-22 236-83 110-66 168-168 105-187 49-445-50-227-197-412-169-213-413-263-230-48-488 57-224 91-349 296Q229 611 220 855q-9 238 86 455 99 227 283 362-309-39-455-351Q9 1053 51 725 82 479 220 290 351 110 557 7h900q296 169 431 520 137 354 18 661" fill="#fff" fill-opacity=".8"/><path d="M878 325h1l-39 68-61 119q-87 57-149 137-64 82-88 171-40 153 13 283 48 118 167 204l4 227q-153-110-245-277-96-175-92-354 5-208 146-372Q674 370 878 325" fill="#fff" fill-opacity=".8"/><path d="M907 430q94-171 125-184 31 13 125 184 90 166 100 216 15 78 9 593l-9 566q28 21 45 21 17 0 31-24 17-31 27-37l63 41q47 33 40 44-3 73-94 141H694q-91-68-94-141-7-11 40-44 25-18 63-41 11 6 28 37 13 24 30 24 17 0 45-21l-9-566q-6-515 9-593 11-51 101-216m186 246-56-94-55 96V1823h111V676" fill="#fff"/></svg>