<?xml version="1.1" encoding="UTF-8"?><svg xmlns="http://www.w3.org/2000/svg" xmlns:xlink="http://www.w3.org/1999/xlink" version="2.0" width="100pt" height="100pt" viewBox="0 0 2000 2000" clip-rule="evenodd" fill-rule="evenodd" preserveAspectRatio="none"><path d="M959 0l85 1L635 265l1178-2-932 740 478 131-230 238-89 278L133 997 1411 423H53L959 0" fill="#fff" fill-opacity=".8"/><path d="M2000 598V863l-652 652-29 114 114-31 567-567v252q-399 409-472 458-44 30-235 87-197 57-230 44-13-33 44-230 56-190 86-236 59-88 807-808" fill="#fff"/></svg>