<?xml version="1.1" encoding="UTF-8"?><svg xmlns="http://www.w3.org/2000/svg" xmlns:xlink="http://www.w3.org/1999/xlink" version="2.0" width="100pt" height="100pt" viewBox="0 0 2000 2000" clip-rule="evenodd" fill-rule="evenodd" preserveAspectRatio="none"><path d="M1072 634l-61-102-58 103V1832h119V634m403 1234q-3 69-79 132H645q-76-63-79-132-7-12 42-47l66-43q12 7 29 39 15 26 32 26 19 0 49-23l-10-595q-6-542 10-624 10-53 105-228 98-180 131-193 33 13 132 193 95 175 105 228 16 82 10 624l-10 595q30 23 49 23 17 0 32-26 17-32 29-39l66 43q49 35 42 47" fill="#fff"/><path d="M1336 586v-1l583-303-546 538 578 115-578 114 546 539-573-298q9-605-10-704" fill="#fff" fill-opacity=".8"/><path d="M705 585v1q-19 99-10 704L122 1588l546-539L50 935 668 820 122 282 705 585" fill="#fff" fill-opacity=".8"/></svg>