<?xml version="1.1" encoding="UTF-8"?><svg xmlns="http://www.w3.org/2000/svg" xmlns:xlink="http://www.w3.org/1999/xlink" version="2.0" width="100pt" height="100pt" viewBox="0 0 2000 2000" clip-rule="evenodd" fill-rule="evenodd" preserveAspectRatio="none"><path d="M1730 320q114 365-116 820-170 337-616 860H816q410-472 571-710 251-371 252-623-88 222-385 602-154 197-613 731H398l-72-6 698-836 706-838" fill="#fff"/><path d="M1353 575 1147 776l-994-1L1349 576l4-1" fill="#fff" fill-opacity=".8"/><path d="M1349 576l-996-1L1553 375 1349 576" fill="#fff" fill-opacity=".8"/><path d="M953 976H353l800-200L953 976" fill="#fff" fill-opacity=".8"/></svg>