<?xml version="1.1" encoding="UTF-8"?><svg xmlns="http://www.w3.org/2000/svg" xmlns:xlink="http://www.w3.org/1999/xlink" version="2.0" width="100pt" height="100pt" viewBox="0 0 2000 2000" clip-rule="evenodd" fill-rule="evenodd" preserveAspectRatio="none"><path d="M1729 358q68 94 40 195-33 119-82 185-35 44-77 71l-59 28q-38 16-57 30-34 25-40 88l-2 102q-4 156-31 244-12 40-56 104-48 68-61 103-52 139-72 234-24 114-17 258H634l39-142 45-384q30-281 39-317 11-44 55-137 54-114 95-149l119-76q78-48 103-93 41-70 35-221l-7-53q-5-33 5-51 9-17 36-25l39-18 30-17 33-7q11-3 8-26-3-27 2-33 6-7 17-7 17 0 54 18l50 22 14 1 53-11q35-11 52-11h3q107 0 176 95" fill="#fff"/><path d="M1417 1434l49-83 180 83 73-8-43-60-187-87 16-102q198 92 226 111 24 17 88 105 67 90 66 109-14 13-126 21-108 6-137-1-24-6-205-88" fill="#fff"/><path d="M830 867l-50 84L438 792l-32 68 341 158-35 86L374 945q-19 9-22 18-4 9 5 22l13 23-37 23q-29 16-33 10-52-27-57-137-2-55 6-105L115 737l42-91 134 63 77-72q88-68 142-46 8-1 13 32l6 43-26 6q-16 1-20 9-4 9 0 29L830 867" fill="#fff"/><path d="M570 390l143 5L857 781 570 390" fill="#fff" fill-opacity=".8"/><path d="M291 1402l30-127 397-103-427 230" fill="#fff" fill-opacity=".8"/></svg>