<?xml version="1.1" encoding="UTF-8"?><svg xmlns="http://www.w3.org/2000/svg" xmlns:xlink="http://www.w3.org/1999/xlink" version="2.0" width="100pt" height="100pt" viewBox="0 0 2000 2000" clip-rule="evenodd" fill-rule="evenodd" preserveAspectRatio="none"><path d="M45 199q21-50 57-89l23-21 902 876-51 65L45 199" fill="#fff" fill-opacity=".8"/><path d="M1918 1904l-32 28-431-447 41-58 459 434-37 43" fill="#fff" fill-opacity=".8"/><path d="M1065 855l-50-558 181 93-131 465" fill="#fff" fill-opacity=".8"/><path d="M421 1191l-43-166H852L421 1191" fill="#fff" fill-opacity=".8"/><path d="M1828 1238l-30 139-243-75 273-64" fill="#fff" fill-opacity=".8"/><path d="M1390 1880l-122-62 150-237-28 299" fill="#fff" fill-opacity=".8"/><path d="M1692 320q114 365-116 821-170 338-616 859H778q436-503 599-751 255-390 221-649l-4 5q-65 222-371 620-167 217-647 775H360l-72-6 698-836 706-838" fill="#fff"/></svg>