<?xml version="1.1" encoding="UTF-8"?><svg xmlns="http://www.w3.org/2000/svg" xmlns:xlink="http://www.w3.org/1999/xlink" version="2.0" width="100pt" height="100pt" viewBox="0 0 2000 2000" clip-rule="evenodd" fill-rule="evenodd" preserveAspectRatio="none"><path d="M1925 1248l2 35-6 43-16 47-36 72-43 64-51 58-58 50q-187 140-467 140-270 0-539-125-268-125-432-327-168-208-172-432-3-150 33-272 28-97 86-181 46-63 111-113 53-40 109-65l46-19 62-18 9-1L763 556q-163 272-85 490 71 197 317 305 215 96 479 91 116-3 213-28 97-26 157-69l30-26 23-28 16-31 7-33 5 21" fill="#fff" fill-opacity=".8"/><path d="M701 294 640 193q-23-44-14-48l31-14q10-5 59 26l110 72 118 89q59 46 83 70l243 238 11 7 14 4 15 8 9 13 30 29 15 10 75-48 23 5 22 2 23 5q12 3 23 10l24 19-22 36-7 19q-2 11 4 21l-55 18-31 12-22 10v1h-1l-1 1q-16 14-5 38 9 20 41 50l62 56 60 55 73 74q6 5 8 13l-2 14-10 15-15 12-19 10-20 5-18-1q-8-3-14-9l-74-75-53-60-55-62-53-44q-27-14-50-6v1h-1l-1 1h-1l-44 35-39 40-27-9-28 1-29 5-28 4-17-21-1-3q-6-12-6-21l1-20 5-38 88-46-9-14-29-31-15-10-9-22v-9l-4-5L841 482l-62-77-78-111" fill="#fff"/></svg>