<?xml version="1.1" encoding="UTF-8"?><svg xmlns="http://www.w3.org/2000/svg" xmlns:xlink="http://www.w3.org/1999/xlink" version="2.0" width="100pt" height="100pt" viewBox="0 0 2000 2000" clip-rule="evenodd" fill-rule="evenodd" preserveAspectRatio="none"><path d="M1250 1323q58 50 140 136l136 141 9 6-54 55-20-6-268-267-3-28 52-54q0 10 8 17m48-209 31 32-4 12-31 23q-36 27-59 49-36 36-79 102l-13 6-38-38q31-53 88-114 36-37 74-58l31-14M390 1540l-3 1q-30 17-57 52l-42 64q-5 7-3 18l-6 11 8-7q7 13 22 15 16 3 24-12l34-52q22-30 46-44 12-7 12-20l83 81-41 38q-44 40-61 47l-66 29q-52 14-84-19-33-34-27-93 4-42 23-76 11-19 49-59l36-35 57 57-4 4m212-148 136-141q9-10 6-22l21 18 64 78 1 31-272 267-18-1-89-89 10-6 141-135m116-186-16 9-136 140-142 135-6 10-55-55 6-19 267-269 28-2 54 51m6-137 34 23q42 30 80 66 38 36 59 73l13 31-32 32-12-4q-37-54-72-90l-64-54-38-26-6-12 38-39M451 456l6 10L593 607q82 87 140 136 9 8 22 6l-18 21-78 64H628L361 562l1-17 89-89M411 257l59 49 35 36-57 57-4-4-1-3q-17-30-52-57l-64-42-18-3-11-6 7 8q-13 6-15 21-3 17 12 25l53 34q29 22 43 45 6 11 20 13l-80 82q-75-75-86-101-21-38-29-66-14-52 19-84 34-33 93-27 42 4 76 23M838 734l26-37 12-6 39 38-23 34-66 80-73 59-31 13-32-32 4-12 91-73 53-64m-11-93 2 28-51 54q0-9-8-17-59-51-141-136L494 429q-4-4-10-6l55-55 19 6L827 641m262 66 32-32 12 4 23 32 50 58q35 37 101 80l6 12-38 39q-53-31-114-89-37-36-58-73l-14-31m353-361 17 1 89 89q-6 2-10 6L1397 577q-86 83-136 141-8 9-6 22l-20-18-64-78-1-31 272-267m276 1345-53-34q-29-22-43-45-6-11-21-13l81-83 38 41q40 45 47 61l30 66q14 52-19 84-35 33-94 28-42-5-76-24-30-17-93-85l56-57 4 4 1 3q18 30 52 57l64 42 18 3 12 6-8-8q14-6 16-21 2-16-12-25m-60-225-1 18-88 89-7-10-135-141-140-136q-9-8-22-6l18-21 77-64 31-1 267 272m-22-943-6 20-267 269-28 2-54-51 17-9 136-140 141-135 6-10 55 54m23-315q52-14 84 19 33 34 28 93-5 42-24 76-17 31-85 93l-57-56 4-4 3-1q30-17 57-52l42-64 3-18 6-12-7 8q-6-14-22-16-16-2-25 12l-34 53q-21 29-45 43-12 8-12 21l-83-81q75-74 101-85 38-21 66-29" fill="#fff"/></svg>