<?xml version="1.1" encoding="UTF-8"?><svg xmlns="http://www.w3.org/2000/svg" xmlns:xlink="http://www.w3.org/1999/xlink" version="2.0" width="100pt" height="100pt" viewBox="0 0 2000 2000" clip-rule="evenodd" fill-rule="evenodd" preserveAspectRatio="none"><path d="M736 1236l-19-20-62-5-97 8q34 1 83 17l1 6-3 7-3 5q56 2 61 33 6 37 40 68l30 28 47 13 43 5q26 4 40 12 35 18 37 62l58 16 30 16q20 11 30 12l-40-57q-18-32-21-66l-18-2-14-14-21-7-67-27-83-31 5-36q-30-6-43-21l-14-22M370 306l12-5 12-22-13-9-13-8q-20-8-28 12-8 18 1 32l3 3 2-10 24 7M240 82l2-2-4-1-1-2-5-2 8 7M414 319q6-19-6-28l-7 12-15 8 28 8M994 931l-23 30q-13 21-21 56l-15 60-13 48-24 53q-3 7 12 29l13 28-4 12 18-28 30-47 22-45 21-46q21-67 40-101l21-44q4-13 0-45l1-15q-49-31-50-38l1-23-6 9-7 10-1-1v31l-1 35q-1 13-14 32m96-243-18-2-17 1-13 1-13-2-24-16 2 1-7-5 2 10-3 9q-4 6-2 9l9 14 11 11q7 15-2 27l20 21 37 24 1-17 3-17 11-31 8-13 11-10 18-22h-1q-6 10-33 7m595 345 4-11q-11-1-19 7l15 7v-3m48 26q9-15-6-24l-11-4-12-5-8 14 1 1-2 6 11 21-12-7-3-4-4 11 24 5q13 0 22-14m-83-137 10 12 83 26 2 4 143 47q1-2 2-1h3l5-4 10 7 1 10 14 5-9 24-14-4-5 14-1 9-6 8-26-9-3 4-42-15-41-14q-22-4-36 13l-5 11-5 11-45-6-23 58-66 8-2 3-27-11-15-5-5 18-183 2-136-36-91-13-47 106-49 60-10 51 43 58-23 77 153 122 57 104-63 83 4 24-66-17 7 225H949l-6-129-222-232-340 276-82 82q-117-15-193-93l-29-33 294-167 30-121 33-78-79-42 40-81-32-95 131-84L683 857 443 664 372 552 348 440l-32-13 26-109-22-26 8-13 7-14q8-25-12-45l-20-15-24-16-45-31 2-6-29-20 4-11q2-7 9-8l10-15-14-11q5-13 17-27l15 11q3-7 12-7 8 0 14 6l-1 8 2 2 1 4L426 192h5l87 64 10-1 9 3-3 10 16 13q2 14 6 16 15 4 8 13-6 8-17 12v-5l-5 15q-3 9-1 16l5 8 3 8-3 5-8 1-8-5q-24-10-34 26v2l2 6 38 27L668 547l148 19 113 72 57-11 11-142 23-26 24-46-50-35 60-11-24-23 95 44 39 1 43 40q44 43 47 59 5 26-29 91l-28 62-32 17-43 79 39 37q40 39 39 45-2 10 20 88l61 46 73 17 30 25 74-1 41-4q40-4 41 0l16 49 26-27q19-23 1-35l-8-3-2-5 2-5 14-2 10-8 7-11-3 3V930q2-10 12-2l13-4 17 5 5-7" fill="#fff"/></svg>