<?xml version="1.1" encoding="UTF-8"?><svg xmlns="http://www.w3.org/2000/svg" xmlns:xlink="http://www.w3.org/1999/xlink" version="2.0" width="100pt" height="100pt" viewBox="0 0 2000 2000" clip-rule="evenodd" fill-rule="evenodd" preserveAspectRatio="none"><path d="M1695 915q-17 2-31 14-17 12-23 29l-2 22-3 22q-63 23-109 10l-3-1v27l7 31-93 75-3 24 2 9-2 12-128-19q-2-1-1-5v-7l-29-3-1-10-22 47-12 37-351-13-410-84-39 118-130 224 32 126 18 27 7 3q56 29 82 50 37 31 55 77 23 56 68 121l83 112H354q-158 0-253-96-92-92-92-247V926l50-90 140-80 152-10L676 932l179-12 118 26 113-24 134 5 72-9 14-13-6-7q-1-6 1-10 1-2 11-5l12-5 13-21 7-23-4 7q-9-15-10-29-1-17 21-8 6 1 11-5l9-10 31-2 6-14 13 4 11 11 159-1 5 5 275 2 3-4 5-1 6-10q12-1 22 6 10 8 8 18l27 1-3 46h-26l-1 28q7 6 3 16l-6 17-51-1-1 6-2 4-80-3-80-2m219-92 17-2-9-2-2 2-6-2v4M1376 310v2l-5 1 2 3 9-10-6 4m-43-4q7-7 16-8 10-1 14 6l16-14 23 28-15 14 14 17q7-1 11 7l6 13-30 27 3 7-47 41-47 42q-8 10-11 24-2 16 4 29l10 14 10 14q-26 47-57 64l-3 1 15 15 21 14-14 92 12 16 10 12q-14 13-40 30l-43 28-7-6-18 13-6-6 12 38-156 8-78 2-55-1 50-72 79-69 36-44 1-15q-10 2-12-6l8-19q1-10-10-32v3q-13-3-21-11-10-10 7-17l4-19 17-17-5-11q3-5 10-5h12l91-85h5l158-145v-4l2-4-2-9M813 467l56 67-165-7 48 63-44-12 20 58 2 65-19 27 43 98-81 25-28 24-137-99 24-44-14-77-48-2-2 83-44-9-128-56 40-89 46-158 74 19 22-56 105-2-30 24 121-8q14 0 0 11l-17 10 193 30-37 15m449 132h-7l-14 22 4 5q30-14 43-40 9-17-3-37-12-22-34-10l-19 18 33-20 8 36-12 17 17-2-16 11m312 326 46 9-24 41-25 6 17 13-25-4-8-5-31 7v9l30 5 45-5q23-8 30-37 7-31-24-39l-22-1-9 1M715 1258l-56 28-204 26 74-110 233 27q8 0-47 29M407 1123l23 4-14-7-9 3q-13-4-47-22-30-17-45-20l-52 5-50 17q-9 10-41 20l-47 17-54 32-50 37 45 2 44-6q-4 4-5 11l26 1-38 74-14 36-17 31q21 1 55-26l49-43q23-19 71-46-14 2-32-12l-27-25q8-11 32-21l38-15 33-21q22-15 33-18l29 4 32 2 32-14" fill="#fff"/></svg>