<?xml version="1.1" encoding="UTF-8"?><svg xmlns="http://www.w3.org/2000/svg" xmlns:xlink="http://www.w3.org/1999/xlink" version="2.0" width="100pt" height="100pt" viewBox="0 0 2000 2000" clip-rule="evenodd" fill-rule="evenodd" preserveAspectRatio="none"><path d="M968 1225q-45-25-76-23-18 1-50 37l-45 48 14-5q96-34 144-6 22 12 43 71l13 42 16 41 23-34q19-26 19-35 0-17-17-40l-29-35-24-34-31-27M594 1348l-26 4-26 4-18 20-20 17-30 45q-23 30-21 48l-14 20-29 23-28 25q-30 16-53 12l-100-25-6-10q-27 5-60-8-15-6-55-28l27 45 29 44 9 19 2 32q3 26 22 86l29 90q24 61 48 78-21-22-27-66l-5-70 7-4-2-7 6-4q2-18 19-40l24-38 21 27 31-13q24-13 31-16l47-25q19-14 31-37l40-75q6-15 47-80 31-66 50-93M372 914q-14 7-38 21l10 5 36 10 33 19 34-6 27-12q4-34 10-54l-11 14q-5 6-17 5l-40-9q-18-5-44 7M261 618l98 39 173 4-58 77 38 89-14 83 15 35-55 147-17 65-57-3q-60-3-74 1-22 6-117-22l-53-41L94 981l-7 66-60-15L3 926V686l12-2 46-61 5 22 195-27m762 160 15 15 208 8 27 41-5 33-235 32-46 58 21 49-27 30-103 15-89 3-54 17q-57 18-90 33-53 24-121 17l58-135-14-52 3-88 58-13 211 61 31-60h36l57-60 59-4m16 205 36-53 358-60 81 97-171 57 34 25 19 196-116 50-59-8-123 149-55 16-91 68-159 56-111 10-202 56-101 357H349q-88 0-158-32l-40-22-19-14L29 1797Q3 1733 3 1653V1012l4-4 45 77 90 57q20 11 47 46l22 34 142-19 86 5 49 13 114 66 127-10 104-117 55-10 182-50 15-33-46-84" fill="#f1f2f2"/><path d="M1650 353q287 250 287 604 0 217-119 407-114 184-314 302 142-111 221-267 82-161 82-342 0-328-244-559-244-231-589-231-192 0-363 79-166 76-282 212l-12-1-98 6-48-15-71-7Q228 341 453 223 685 102 957 102q406 0 693 251" fill="#f1f2f2" fill-opacity=".8"/></svg>