<?xml version="1.1" encoding="UTF-8"?><svg xmlns="http://www.w3.org/2000/svg" xmlns:xlink="http://www.w3.org/1999/xlink" version="2.0" width="100pt" height="100pt" viewBox="0 0 2000 2000" clip-rule="evenodd" fill-rule="evenodd" preserveAspectRatio="none"><path d="M1712 886l6 44 160-99-62 118 194 9v45l-168 78 116 38-194-3 19 52-92-77 50-2-45-23 165-60-173 8 35-43-57 28 46-113m-73 163-1 2-4-1v3l12-4h-7m11-14 6 32-18 5 4 19 5 10-1 13-36 8v7l-56 11-55 12-19 14q-9 11-10 24l2 16 2 15q-40 25-74 24l-16-1q-17 1-21 35l-5 47 3 22 2 19 3 14-91 8-2-8-21 3-4-30h-31q-35 7-113 42l-115 45q-45 22-58 19l-16-9q41-105-11-159-17-17-45-26l-39-5-46-4-7-4-12 2-30-5 1-40 6-51q-14-2-40 10l-34 6q-18 9-54 33l-15 14-23-2-126 17-125 18-8-7-16 13-9 3 13-40q-5-34 23-52h1l16-50 2-25-1-25q0-21 7-49l13-50 11-45q7-21 23-39l35-38 35-3q-40-42-65-58-15-12-19-24l-34-32 13-38q6-23 18-34 12-10 38-24l37-21 15-18 11-20 29-26q43-39 55-67l45-2 47 4q10-18 44-25 11-12 48-24l54-18q1-9 9-24l8-24q58-16 135-53l66-31 28-16 18 2 18 5 4 38v37q-2 15-17 22l-29 11-58 25-31 8q-21 4-30 10 2 21-19 33l-41 9 4 30-15 5-7 16-11 15q-5 13-7 42l-43 10-43-2q-2-11 1-20l-30 13q-17 7-28 15-3 5-3 13l15 26q-5 4-7 11l-72 34-41 13q-28 8-41 14l39 26q92 8 151 63 20 20 22 53l4 1-4 12q-2 27-18 47-16 22-42 26-91 14-161-33l-22-17q21 42 51 59 26 15 56 19l61 2 50-4q29-8 32-32l-6-25q-6-17 0-25l16-11q7-2 10-18l2-22q13-1 38-22 23-19 40-16-15 38-12 60 3 21-10 60-15 40-16 59-2 38 11 71l39 22q-2 9 5 27 16 2 20 22l4 33-2 2 1 3 1 5v2l101 131 20 1 32-6 67-3 132-31 5-33 11-5q-5-4-14-5l-10 2q-10-2-8-11l15-11 5-16 1-14-1 3q-9-9-11-18-4-13 12-10l7-5 5-8 20-6 2-11h10l9 6 109-26q1 3 4 2l188-43q-1-3 2-3l3-1 2-9 16 1 9 11 18-4M1509 145l-61 33-59 29 98-4 98-2q-72 6-203 55l-66 24q-40 13-68 14 27 25 44 28l-134 14 25-52h-12q37-24 62-55-46 4-107 40 3-19 27-60-13-3-35 11-22 15-35 14l3-8 44-35 44-38 52-35 48-36-6 22q63 14 163 0l118-10 116-12q-23 13-76 31-55 19-80 32M991 859v2l-16 19 30 11 28 19 16 8 15 9 20-7 18-17-16 4-10-8-17-30-9-16-14-10q-23-2-45 16m112-143 29 23q5 13 26 31l30 28-27-2-28-3q17 2 32 23l23 33-60-13-7 59-8 59-8 8q-19 7-38 28-18 21-23 39-14 10-40 53-28 35-62 14-13-8-40-52-23-37-56-42 0-52-11-85l32-5 22-22q15-25 13-59l-35 8-8-11q11-6 13-33 1-33 4-39 12-27 58-38 119-30 169-2M590 1460l-52 2-56 9-100 12-51 10-50 6q-21 1-37-22-11-17-16-42-12-50 12-86 30-43 52-55v4q109-30 234-38 41-2 107 14l106 20 75 4 36 6 10 13 7 12q1 20 24 66-13 10-31 34l-28 37q-18 19-71 51l-73 52q-46 31-71 52-65 57-98 95l-42 51-24 29q-15 18-18 31-10 6-13 17l-69 3-35-4-35-5 29-71 4-18q3-10 9-17l31-20 58-44q41-35 46-53 13-7 26-28l19-32 24-32 22-32 6-1q4-8 15-17l18-13M251 1912l15-25 18-23 22-5 85 15q23 5 33 13l22 29 24 31 33 20 10 4 38-68 24-43q13-19 38-32 21-12 50-17l24-3 22-8q-14-23-41-48l-27-29-30-24q5-13 25-32l30-29 25-33q16-21 28-28l9 9q18 11 40 39l37 45 30 41q19 25 36 32 5 24 3 50-2 32-13 46l-31 30-29 29-16 15-16 18-54 58H355l-65-4-17-3-65-19 43-51m1188-689-11 2-13 6-19 7 22-1 30-11q14-10 14-31 0-22-23-22l-31 6-1 10 38-2q9 20-10 34l4 2m-60-30 12-1-1-7-11 8" fill="#fff"/><path d="M10 636V480L818 219 435 419 10 636m269 23q-17 33-25 64-10 51 28 78l68 56L10 1040V779L279 659M11 333q3-104 46-178L601 99 11 333M280 1668l-55 52q-31 30-43 57L61 1842q-51-81-51-196v-32l199-89q41 51 159 45l21-1q-59 44-95 89-9 4-14 10m-39-624 4 24-7 72q-4 32-25 83l-28 83-175 94V1147l231-103m712 645 815-213-917 485 100-142-10-105 12-25m436 300H1030l831-255-472 255" fill="#fff" fill-opacity=".8"/></svg>