<?xml version="1.1" encoding="UTF-8"?><svg xmlns="http://www.w3.org/2000/svg" xmlns:xlink="http://www.w3.org/1999/xlink" version="2.0" width="100pt" height="100pt" viewBox="0 0 2000 2000" clip-rule="evenodd" fill-rule="evenodd" preserveAspectRatio="none"><path d="M1738 334l-8 4v6q-9 4-11 6l7 7q19-17 17-30l-5 7m63 14-16 22-16 21 43 35q18-4 31 14l21 31-32 42-32 41 8 8 4 7-103 128-54 65q-32 39-46 64-16 30-16 67 1 41 22 72l33 31 33 31q-20 64-41 101-30 52-78 89l-19 13-18 14q-23 21-13 56 6 24 31 62l77 112 45 44 41 39q8-1 17 9l16 17-89 96-97 90q-4 2-10-5l-11-8-40 44q-59-32-126-143l-104-189q-23-40-54-54-34-16-66 9l-9 11-10 11-23 3q-12-4-14-13l4-23 7-28q-2-22-18-45l-20-28h-1l-1 2h-3l-9 3-80-4-12 1v-4l-22 30q-16 23-18 45 0 8 7 28l4 23-14 13-23-3-10-11-9-11q-32-25-66-9-31 13-55 54L644 1657q-67 111-126 143l-40-44-10 8-11 5-97-90q-58-56-89-96l16-17q9-10 17-9l41-39 45-44 77-112q25-38 32-62 9-35-14-56l-37-27q-48-37-78-89-21-37-41-101 9-13 33-31l33-31q21-31 22-72 0-37-16-67l-46-64-54-65L198 569l5-7 7-8-32-41-32-42 20-31q14-18 32-14l43-35-16-21-16-22q20-24 72-61l35 43q14-15 38-9 24 7 38 29l-4 10-7 12 4 9q5 5-1 11Q497 534 722 836l7 2 6 1 167 226q21-41 73-57-4-11-3-32V939l-46-26q-25-19-32-45-21-77-4-145 20-78 82-86V569q-41-17-60-37-28-27-31-69l-2-31-4-26q-4-41 14-79 17-37 46-55 15-9 34-12l-2-35V188q-60-30-73-78Q881 66 883 9l1-9h71q2 18 11 44-10 13-10 38-1 27 14 28 9-37 31-43 35-8 41 46 32-22 20-113h67l2 70q-8 89-89 115v78q52 17 70 68 14 39 14 89 0 53-16 85l-31 36-40 24q7-1 6 25l-1 43q50 26 65 50 28 45 20 144-5 81-85 107l3 72 44 25 22 29 162-221 6-1 7-2 338-444q-6-6-1-11l4-9-7-12-4-10q14-22 38-29 24-6 38 9 20-29 34-43 52 35 73 61M972 708q-18 5-18 31-1 22 9 42-14 22-10 51 5 30 25 39l-2-5-4-2q2-33 17-43l39 2q17 16 14 44 21-21 21-55 0-86-19-103 7 43-37 44-45 1-35-45m-6-373q-17 15-19 24-4 16 4 33l9 23-6 26q-7 19-4 31l8 16 9 6q-4-48 35-49 38-1 39 39 14-8 18-50l-1-50-8-40-9-8-5-4q12 43-31 46-46 3-39-43m-686 3-8-4-6-7q-1 13 18 30l7-7-11-6q-3-1 0-6m242 681-28-34q-50-42-92 8-40 46-25 94 12 37 47 79 37 45 69 57 40 15 78-30 40-46 12-90l-31 28-53 10-59-9-24-13q-14-10-14-22l50 15 46-3q31-11 55-53l-31-37m1086 78q0 12-14 22l-24 13q-25 12-59 9l-53-10-31-28q-28 44 12 90 38 45 78 30 32-12 69-57 35-42 47-79 15-48-25-94-42-50-92-8-12 9-28 34l-31 37q24 42 55 53l46 3 50-15" fill="#fff"/></svg>