<?xml version="1.1" encoding="UTF-8"?><svg xmlns="http://www.w3.org/2000/svg" xmlns:xlink="http://www.w3.org/1999/xlink" version="2.0" width="100pt" height="100pt" viewBox="0 0 2000 2000" clip-rule="evenodd" fill-rule="evenodd" preserveAspectRatio="none"><path d="M1154 1103l-31 8q-22 3-32 9-12 7-19 25l-12 31q-8 16-29 17-18 1-36-9l-6 7h9l18 8 17 10 17 5 17-2 36-7q16-6 20-28l2-20q2-10 7-18l23-26q31-45 29-69-6 45-30 59m142 313 11-20 34-44q-47 28-71 29l-52 5-53 3 8 11 4 12 45 7 30 10 29 3q7-2 15-16m92-185-32-4-30-11-31-2-1 2q-55 12-119 57-24 16-52 15l-40-2q-26 3-10 24v9l-4 1q4 20 25 14l33-15 68-14 41-3 24 1 23-1q12-3 34-17l33-21 31-15 36-8q-8-7-29-10M318 1847l-2 4q-11 2-28 11l77 19 55 12 31 8 30 4q-1-19-27-36-22-14-45-18l-91-4m76-148-24-5-24 5 5 2-3 2q1 11 43 20l55 10 55 10 26 6 23 7-44-30-51-18-30-4-31-5m-85-124 37-15-46-156 71 175 201 71q14-48 36-53l68-10 77 6 70 42 43 29 47 94-26 89 35 150H658q27-70 49-105l10-1-5-18q-4-12-2-17l4-1q6-11 29-23l37-13-25-3-26-3 12-54-16-3q6-7 1-19l-10-19-9-18-22-2-43 1q-28-2-38-15l-24-9q11 29 37 46l57 3 2 5 24 14q8 28-10 43l-26 13q-19 7-26 14 14 8 24 32 10 23 6 38-3 13-22 29l-29 24-21-1-20-5-44 1 9 26q1 11-11 24l-17 16H354q-98 0-172-39l-5-23 41-42-21-95 47-46 13-72 52-105m438-105 41 11-150-195-1 47 13 96-45 35 68-6 74 12m-291-18q20-10 24-31l3-46-3-20 10-47-10 13-23 18q-25 10-48-8-8-7-21-67l20-63-20 24q-19 29-13 51l63 183 18-7M238 843l-7-6 5 26q8 14 28 13 13 0 34-22l18-23-16 12q-19 12-30 14-18 3-32-14M357 694l-31-49-22-33 27 99q7 33-17 54l26 43-10 37 130 251h17l38 11 78 145 26-34-93-166-56-60L354 787l7-24q6-48-4-69M303 541q-4-11-21-14l-35 5q-18 8-28 22-9 13-4 24 5 11 21 14l34-5 28-21q10-14 5-25m18-38q-5 7-2 8l21 6L584 935l10 32 71 126 17 5 113 196 29 2 16 51-7 16 25 33 17 9 8 49-31 140-36-36-45-39-36-5-27-2-60 16-27-2q-29-1-37 6l-4 7q-24 10-37 35l-52-19-95-24q-26-37-60-126l-38-107q-12-40-6-50l20-44 18-47 8-27q-22-21-17-35l3-22-1-11L203 848l14-42-61-95q-16-36-6-51l20-34-6-19 25-41q27-41 34-42l37-10 17-10 44-1M905 804l-66-9-67-13-37-11q-23-9-37-8l-28 10-30 9q-2 10 63 46l41 18q25 15 23 36 48 17 85-11l-6 40-10 39 31-41 11-27 10-24q-6-14 8-26h5l4-28m289-233q-29 5-47 19l-16 17-17 13-1 5-6 5h-5l-1 5-5 1-29 24-35 20q-6 4-37 23l-35 25-11-4-20-3-21-4q13 17 30 19l16-1 15-4 76 2-51 49 40 1 18 6 15 8 37 15 31 24q28 16 73 12l78-13-41-5q-40-3-68-24 11-10 32-19 20-9 36-11l1-4q14-1 37-27l10-22 7-23 20-18 23-15 48-31-18 3h-18q8-12 3-19-3-6-18-12 16-10 54-24l67-26q-17-8-43-10l-45-1-47-3-45 5-87 22m428 353 20-79q3-11-2-24l-9-25q-5-29-14-46l-4 29-5 29-4 3q-4 61-27 89-26 31-49 73-14 25-17 36-5 18 1 39l5 57q2 16 12 33l2 43-4 44 2 94q3-42 29-91l46-85 13-37-2-41-1-85q-1-33 8-56m53-538q95-81 124-91 19-7 46 54 25 55 27 87 8 99-21 179-37 101-120 104 29 60 105 185 52 112 5 197-41 75-133 180l-146 171-31 47q-22 32-38 42-36 23-131 20l-138-13-123-133-88-73-93-146-148-152-40-155-58-30-63-53 6-55-77-276V363l136 17 4-34 26 42 23-88 2 74 95-122-20 109 96-98L1270 83l48 280 131 42 107 130 46 185 83-75-29-146 19-113" fill="#fff"/></svg>