<?xml version="1.1" encoding="UTF-8"?><svg xmlns="http://www.w3.org/2000/svg" xmlns:xlink="http://www.w3.org/1999/xlink" version="2.0" width="100pt" height="100pt" viewBox="0 0 2000 2000" clip-rule="evenodd" fill-rule="evenodd" preserveAspectRatio="none"><path d="M755 466l130-90q-3-43 12-58h8q8 7 5 44l-9 52q-8 21-84 104-54 58-24 112l76-2q30-24 32-73 27 32 33 78 6 45-12 89l-35 44q-25 26-27 43-3 20 5 52l11 52q1 56-34 130-34 70-70 99-46 29-62 41-26 20-25 55 0 36 41 66 45-1 66-40l26-80q41 42 29 129-8 60-50 137l-98 119q-54 69-18 135l14 20 11 22q77 58 151-25 53-59 90-167 40-112 21-225l-19-56-23-56q-24-76-21-148 3-88 46-131 86-86 154-71-7 17-60 64-43 38-40 86 2 25 17 43 16 20 37 20 39-1 94-100 52-93 56-146l-3-64q-6-43-5-61 2-52 22-104l40-87q120-98 137-108 91-55 180-34L1401 484q-93 78-104 204-5 52 4 95 10 54 37 55 33 1 39-50 1-60 7-79 67 29 41 127-23 84-74 127l-32 21-35 21q-27 21-64 66l-61 79-56 77q-27 51-19 115 24 54 85 77 65 25 124-11 33-20 62-73 30-55 37-110l2-141q-1-84 23-125 55-94 167-117 3 24-47 67-50 43-45 83 7 46 54 37 36-7 67-33 88-68 108-158 11-46 4-108l-16-108q-7-60 22-103 28-41 78-51l-35 67q-25 42-15 91l12 40 13 43 8 46q5 25 13 41l-24 151q-15 73-47 120-26 39-82 91-66 61-85 84-37 43-36 104 0 69 69 62 42-4 76-42 32-37 37-82l-2-25-2-25q2-80 61-139 63-62 139-45-8 22-43 37-39 18-49 30-33 40-5 138 32 109 9 166l-26 36-36 39-63 71-129 74q-79 45-95 92-16 44 11 101 27 56 68 70l88 3q42-11 57-32 24-34 9-108-16-89-9-121 10-38 48-67 38-29 86-37 0 12-14 24l-24 21-18 25q-10 14-15 9-20 39 10 114 30 76 69 77 22 1 35-25l23-46q16-19 33-25l50-8v21q-5 0-4 10v15l-27 30q-14 16-19 37-3 13 1 43l-28 32q-64 66-160 87H254l-4-1-39-10-26-11q-54-22-95-65l-12-13 20-104q14-8 25-28l21-34q17-21 64-48l61-44q21-25 20-70 0-65 4-84 30 9 45 68 14 57 5 115l-11 58q-1 30 28 38 52 13 82-53 23-52 22-118-1-66-68-257-57-160-28-280 11-44 71-115 56-67 63-118l-1-47q-1-31 13-36 17 7 23 49 4 36-2 72l-37 94q-32 70-38 109-10 71 8 134 21 72 67 70 36-1 58-61 21-58 8-113l-19-43q-13-25-14-41-1-31 12-52 13-24 38-27-6 62 1 92 11 40 49 46 76 11 117-134 12-44 13-93 2-57-13-98l-31-46q-26-29-32-50-31-102 33-168" fill="#fff"/><path d="M1188 347l-29 49q-16 29-20 59v51 53q-8 47-50 91l-71 63q7-35-5-138-10-84 17-132 21-35 66-63 45-26 92-33" fill="#fff"/><path d="M273 1071q-24 38 0 103 27 75 16 114-12 9-25 49-12 36-33 42 10-28-14-79-30-63-32-83-8-77 88-146" fill="#fff"/></svg>