<?xml version="1.1" encoding="UTF-8"?><svg xmlns="http://www.w3.org/2000/svg" xmlns:xlink="http://www.w3.org/1999/xlink" version="2.0" width="100pt" height="100pt" viewBox="0 0 2000 2000" clip-rule="evenodd" fill-rule="evenodd" preserveAspectRatio="none"><path d="M858 196Q893 39 994 46q-22 28-28 74-3 21-3 78 0 124 43 185 22 32 60 31 39-1 54-37 29-74-13-178 44 61 63 104 26 61 17 116-7 43-40 103l-30 54q-13 34 11 50 43 30 87 16 43-14 55-61 10-42 1-98l-22-98q14 46 69 126 55 79 69 125l-22 112-53 206 292-491 100 209 267-235-189 462-138-128-341 302 45 47q18 24 20 36l127-16 112 3q-17 24-63 36l-83 17q13 21 58 6 46-15 62 7-8 23-43 31l-64 9q10 3 44 24 25 15 50 16-61 46 4 46l142-6q-1 33-47 40l-73 13 47 9q28-1 46 18 4 17-10 23-16 8-16 17 17 33 62 24l58 3q-6 32-54 26 28 62 47 84 26 27 53 78-57-12-105-78-15-20-30-18-19 3-58 41-3-21 5-74 4-29-18-46-14 11-27 40-6-16-30-34-15-12-10-59-24 31-26 106-44-2-33-61 15-86 6-112-30 30-56 15-27-16-24-68-12 12-20 52-9 41-20 54-17-6-15-45l2-61q-17 9-26 68-7 51-41 52l14-157q5-92-40-123-46 58-57 96-9 33-4 100-105-66-165-76-33 75 45 131l63 46q33 29 38 62-33-6-65-27l-55-39q-15 16 22 41 44 31 45 52-30 4-54-12-24-21-39-28l10 34q5 17 3 59-22-14-40-13 7 40 57 76 53 38 63 70-34 3-63-23-32-29-57-30 36 26 42 39 8 18-2 68-22-14-40-14-8 38 30 57 40 20 37 50-11 1-27-8-14-8-27-6-4 27-13 26-7 0-13 58l-6 15-6 15-5-15-6-15q-5-58-13-58-9 1-13-26-14-2-28 6-15 9-26 8-3-30 37-50 38-19 30-57-18 0-40 14-10-50-2-68 6-12 42-39-25 1-57 30-29 26-63 23 10-32 63-70 50-36 57-76-18-1-40 13-2-42 3-59l10-34q-15 7-39 28-24 16-54 12 1-21 45-52 37-25 22-41l-55 39q-32 21-65 27 5-33 38-62l63-46q78-56 45-131-21 27-73 43-65 20-84 32 13-53-4-96-14-34-65-99-45 31-40 123l13 157q-33-1-40-52-9-59-26-68-2 8 2 61 3 39-15 45-11-13-20-54-8-40-20-52 2 52-24 68-26 15-56-15-9 26 6 112 11 59-33 61-2-75-26-106 5 47-10 59-24 18-30 34-12-28-27-40-22 17-18 46 8 53 5 74-63-60-99-15-63 75-118 86 28-52 65-86 32-31 59-92-48 6-54-26l59-3q44 9 61-24 0-9-16-17-14-6-10-23 18-19 46-18l47-9-73-13q-46-6-47-40l142 6q65 0 4-46 25-1 50-16 34-21 43-24l-63-9q-35-8-43-31 15-22 62-7 45 15 58-6l-83-17q-47-12-64-36l113-3 127 16q2-14 26-44 26-33 57-52L389 754 247 877 29 337 333 653 440 448 723 964q-30-99-53-193-24-99-20-116 11-53 68-136 61-88 75-134L765 513q-8 85 37 119 27 22 62 12 33-9 49-38 29-53-8-136-37-84-47-134-15-69 0-140" fill="#fff"/></svg>