<?xml version="1.1" encoding="UTF-8"?><svg xmlns="http://www.w3.org/2000/svg" xmlns:xlink="http://www.w3.org/1999/xlink" version="2.0" width="100pt" height="100pt" viewBox="0 0 2000 2000" clip-rule="evenodd" fill-rule="evenodd" preserveAspectRatio="none"><path d="M733 1436q-20-47-23-96-3-48 55-102l58-45-17 50q-15 56-6 87 9 31 85 45l73 8-205 90-20-37" fill="#fff"/><path d="M226 220q-42 15-67 8 3-32 19-103L197 17Q256 0 323 1H652q-7 27-34 54-31 32-39 48l68 49q-17 13-73 111-54 96-80 113l134-19 130-26-17 132q-15 85-41 121l187-9q-6 53-40 125L789 818l23 7 2 8 2 1-102-1 23-73q16-46 15-76-38-6-105 17-71 24-108 22 74-134 77-219-128 52-248 130-120 77-187 104l-60 30q-38 17-64 16 48-30 109-141l88-171q32-58 91-153l92-150q-26 14-70 20l-74 9-67 22" fill="#fff" fill-opacity=".8"/><path d="M1601 177q-33-15-79-54l-74-63-64-59h277q96 0 168 36l83 236q-119 95-304 127l94 66q67 46 99 47l-55 34q-20 10-58 31-21 12-73 28-49 16-71 29l45 63q29 41 32 70l-189 25-106-4-102-5q-5 29 12 85-73 18-201 20 44-40 111-55l-13-31q-8-18-4-34l64-18 61-26 80-15q52-7 69-26l-30-30-34-27q53-65 184-120l-146-63q-116-54-110-82 4-18 56-49l70-38q76-48 208-98" fill="#fff" fill-opacity=".8"/><path d="M1171 1358q139-72 99-150-35-70-174-123-145-55-161-77-28-39 0-89l33-41 1 16q4 21 21 49 7 11 206 74 198 62 242 141 53 95-1 205-46 95-164 190-126 101-184 170-75 90-61 152 17 80 84 125H422q20-118 81-224 96-169 272-248 167-75 396-170" fill="#fff"/><path d="M1330 1585l89 60q92 80 106 180 18 123-1 175H1174q74-53 69-107-3-39-47-85l-43-38 177-185" fill="#fff"/></svg>