<?xml version="1.1" encoding="UTF-8"?><svg xmlns="http://www.w3.org/2000/svg" xmlns:xlink="http://www.w3.org/1999/xlink" version="2.0" width="100pt" height="100pt" viewBox="0 0 2000 2000" clip-rule="evenodd" fill-rule="evenodd" preserveAspectRatio="none"><path d="M1718 675q-102-165-116-133-4 9-6 38-3 21-18 11l-109 27 45 161-352 36 76 128q44 65 83 83-77 55-103 138l33 80 175 53 82 127 108-71q24-16 38-7l18 20q18 15 84-109 2 45 45 30l20-3q5 4-9 34-77 171-261 319-192 155-369 171-14 1 37-39 53-41 37-41 168-103 162-128-1-4-18-14-12-8-2-22l-28-110-161 45-25-247q-131-23-218 85-27-39-68-79l-76-65-94 38-55 184-138 67 84 113q26 39 24 78 15 35 146 105-34 2-67 24-19 13-68-10-171-78-318-261-156-193-172-369-1-14 52 70 55 86 55 70 101 165 114 129l6-41q4-23 18-13l109-27-45-161 306-31q-95-81-105-146-14-93 102-225l6-7-2-3-254-76-28-154L384 658q-46 31 1-93l15-43-45 82q-3-52-111 47l-64 58q-24 18-10-13 85-186 284-346Q663 181 855 164q15-1-83 51-99 54-82 54Q511 379 557 399l48 10q27 5 16 21l30 119 174-50 23 216q95-79 171-51 58 21 119 114l187-92 16-222 109-9-82-82q-16-24-8-41l16-24q12-25-113-92 45-3 35-37-4-13-1-15 6-2 36 12 171 78 318 261 155 193 172 369 1 14-52-65-53-81-53-66" fill="#fff"/></svg>