<?xml version="1.1" encoding="UTF-8"?><svg xmlns="http://www.w3.org/2000/svg" xmlns:xlink="http://www.w3.org/1999/xlink" version="2.0" width="100pt" height="100pt" viewBox="0 0 2000 2000" clip-rule="evenodd" fill-rule="evenodd" preserveAspectRatio="none"><path d="M1377 856q52-24 77-45l29-41q18-31 27-37 20-13 56-17l61-5 106-7 104-7q-45 7-96 58l-86 76q-2 27-45 86l-66 77q-32 31-98 26l-119-4q-17 61-98 58l-140-14 61-58q37-5 82-45l66-60q19-12 79-41" fill="#fff"/><path d="M952 8l10 143q6 86 4 142-9 145-25 230l-12 50-13 50q-4 26 2 61l11 55-3 55-10 54q-3 35 5 105l-4 28q-2 13 13 22 37 98-144-40l-46-36q-21-18-36-43l-27-45q-14-20-39-37-69-47-199-90L231 643q25 34 57 101l53 104 30 39 29 41 23 51q14 33 28 50 39 46 101 52l123-3q74-3 250 5l-6 62q-4 39 1 63l16 52 9 58q2 28 21 117 13 82-10 109 12 25-10 49-24 26-19 48l13 23 16 23 7 35 2 36q7 51 5 117l-4 117h-5l-24-92q-17-51-51-78-28-23-79-26-47-3-86 11 59-68 13-144-29-36-33-56-4-14 6-37l7-31q-4-13-29-22l-35-14q-22-17-25-29l-6-41q-6-45-42-52-34-7-75 22l8-15q-35-9-82 50-23 29-57 89 54-116 44-244-2-33-14-70-13-37-31-61-23-27-60-35l-74-5q-4-76-26-113-27-47-94-61L69 958q-30 10-39 34-13-6-30-9V973H9q-8-11-9-20V352Q0 196 88 102 179 8 333 8H952" fill="#fff"/></svg>