<?xml version="1.1" encoding="UTF-8"?><svg xmlns="http://www.w3.org/2000/svg" xmlns:xlink="http://www.w3.org/1999/xlink" version="2.0" width="100pt" height="100pt" viewBox="0 0 2000 2000" clip-rule="evenodd" fill-rule="evenodd" preserveAspectRatio="none"><path d="M1488 644 1105 952l188 188-749 294 479-348L821 889l667-245M1290 456l43 14 49 15q29 11 42 26l61 53 28 32 31 25q-8-1-49-29l-51 1q-19-21-38-21-5 0-18 6l-18 2q-35 17-47 15-13 10-28 7-11 8-20 0l-15-18-11-14-18-2q-54-2-77 12l-86 48q-29 4-44 16l-18 20-16 22Q893 804 842 850l-45 34-49 30q-8 5-84 65l-68 41q-47 26-68 46l15-17q43-48 158-158l75-82 74-82 80-81q47-47 85-75l79-58q17-11 41-21l41-19 3 2 33-11 34-3q17-11 44-5m351 329q6-64-7-120-10-41-61-104l-49-55q-173-152-306-127-71 13-136 57-40 28-100 88L760 743 549 957q-77 68-118 128-77 112-37 233 39 120 147 265 55 72 101 120l4-6q3 14 17 15 14 2 32-13 13-9 18-25 25-24 84-59l19-16q37-21 49-24l34-9q18-9 38-30l31-37 16-6q46-30 303-260 279-251 312-309 34-62 42-139m24-485 10 40q-8 0-26 6 23 17 18 38l-20 39q-24 45-19 82 18-32 63-73l31-35q21-25 35-29-22-15-49-51l-47-54q-2 13 4 37m80-133q-22 13-54 49l33 34 31 34 25 35q17 17 36 7l29-29q17-24 16-38-1-15-23-40l-36-35 2-5-28-16q-14-6-31 4m88-12 49 48q37 41 40 62 3 21-39 53l-43 29-156 156q-16 18-1 70l31 127q11 69-38 171-37 80-72 114L664 1903q-15 10-63-9-94-37-255-183-161-146-217-257-17-35-24-68l-7-35q-5-16 74-90l80-70q728-718 774-757 98-82 192-111 54-17 146 2 55 12 104 31 28 10 57-26L1744 94q25 3 53 27l36 34" fill="#fff"/></svg>