<?xml version="1.1" encoding="UTF-8"?><svg xmlns="http://www.w3.org/2000/svg" xmlns:xlink="http://www.w3.org/1999/xlink" version="2.0" width="100pt" height="100pt" viewBox="0 0 2000 2000" clip-rule="evenodd" fill-rule="evenodd" preserveAspectRatio="none"><path d="M1210 475 1311 0h266l-74 212 350-53-243 680 277-70-294 883 74-650-250 27 143-614-350 60" fill="#fff"/><path d="M1114 1265h13q7-13 0 8-9 1-18-6-10-9-15-10l8-19q7-9 17-8-7 11-5 35m-851 17q-14-8-6-25 8-18 23-11-12 12-17 36m59-30 19 9q-10 20-30 24l-29-4 18-16q9-10 7-28l15 15m473 127q-6 13-4 20 6-12 20-18 11-6 12-18 12 12 13 0 16 28 6 40-17 18-16 47-23-6-33-20-13-19-9-56 14-2 11 5M102 715q13-1 18 24 6 27 17 27-8 14-22-8-12-21-13-43M268 596q8-18 14 6l8 36q-20 3-17-14 4-23-5-28M528 421q6 14 9-1 6 9 0 20-7 13 2 32-16-9-17-28l-6-40q4-1 12 17m626 539q2-15-7-17l19 2q17 9 27-4l4 17 4 17q-11-1-13 9v1q-10-35-34-25m-61-248-2-28q-27-16 3-6 17 6 11 23-6 3-2 10l9 7-9 11q-5 6-3 16-7-15-7-33m-24-70-2 35q1 12 18 16l-9 19q-6 9-17 8 7-12 6-26-7 0-15 6-4 3-11-5 9 11 10 22l4 21q2 21-8-1-10-21 1-16-7-15-16-13l-23 6q-3-10 17-19 15-7 1-17 18 9 44-36m727 1041-125 2-248 7-119 37-109 5-112-5-84 3-85 3q-48 0-71 11-36 15-33 56l-61-10-101-7-104-3-84-2q-51-2-79-15l-71-15q-43-8-63-30l-21-23q-11-9-31-12l-27-4-71-2H71l58-3 56-2 103-4 383-15 3-157q0-77-33-110l-24-4q-12-1-18-10l15 27q10 17 9 40-16-26-28-60l-26 6-27-4q0-7 8-15 7-7 4-20 6 0 10 14 3 13 11 11 9 3 14-11 5-13 18-7-7-9-5-15l3-20q4-11-13-10-17 1-13 11-11 0-6-14 5-14 12-12l-21-17q-8 11-11 32l-12 39-16-11q-4-5-17 3l6-17q-8-2-11 4l-2 14q-15-16-49-85-16 13-23 10-16-8-29-8 2 21 15 23 14 2 19 19 8 1 1-15-6-15 11-12-1 13 17 53 13 26-13 34-3-31-13-28-11 2-16-40-15 13-25 3l-22-19q-10 2-4 18l12 17q-2 9-17-6-15-14-17-28l15-2q10-7 11-7l-7-3-5-3-45-24-9-2h-1-7l-5 1h-2l-6 3-6 5-1-34-15 23-30 4q1-10 10-16l15-11q-8-5-13-18l-8-24q-14-2-22 19-7 21-23 17l13-17q7-12 5-27-29 9-37 45l2-41-13-54q-7 0-14 6-4 3-12-5 3-20 16-42l20-37 11 2 9 5q15-8 19-26-2-7-18-12-13-4-10-22 8-2 11 3l-4 5q0 11 20 10 21 0 19-11l-18-2q-11 2-2-23-22 8-42 31l-34 41q-6 0-10-14-3-13-11-11 2-7 7-4l13 3-6-18q-4-11-15-7 10-10 22-7 12 4 18 23 11-1 12-19l-1-34q12 7 21 6l18-7-3-6-3 6q-11-9-11-18l3-25q-16 2-12 44-17-24-26-27-12-4-33 12l4-28-18 11q11-38 34-53 44-27 54-38-5 18-18 32l-26 22 47-7q35-14 30-48l-13 13q-6 9-5 23-13-11-14 0-8-3 0-19 10-20 5-33l32 4 27-15q-4-20-19-34l-29 1q1 7 4 6l3-6 11 19 10 6q2 19-6 14-13-9-20-4l-6-25q-4-12-15-9-1-14 5-23l13-13q-5-9-24-4-15 4-16-20 28-4 53 24 10-10 9-26-3-22 2-35 7 8 10 21 4 14-2 22 10-10 19-10-8-15 0-17-10 0-15-15-7-17-1-37 7 12 31 18 17 4 10 16 15 3 21-12l10-24q-12-3-12 17-8 0-8-20l-1-31q5 1 7 13 2 12 8 12 8-18-2-57-12-40-3-64l14 59q12 43 10 61 5-11 25-25 7-5-13-10 21-6 20-50-1-43 15-47l-4 24q-3 14 0 29l13-1q7 5 0 5-13-1-19 5-2 31 15 59 17 28 26 0 11 7 1 24-12 21-12 28l28-5 31-6q-2-7-7-3l-13 4q3-13-3-23-6-10-5-20 17 16 16-4 0-20-17-22 2-10 9-7l11 6-11-35q-4-20 8-26l4 19 5 33q8 1 11-15 3-16 14-12l-9 18q-8 9-9 17 25 16 46 52l30 58-17 25q-11 14-13 29l-15-12q-7-8-6-22l-11 15q-6 5-15-6-9 4 0 13 12 11 8 22l22-2 24 9q26-32 28-81 2-57-41-75 4-26 25-36-4-14-15-7l-18 9q18-19 20-34 3-16-10-45 13 9 20 8l2 27q2 17-7 16 0 11 13 9l20-1q1-16-10-32-15-20-19-36l24 4 22-6-12 14q-10 6-6 21l17-15 8-29q13 13 20 8l19-1q0-16-11-21l-23-4q14-12 7-29l-22-40q19 15 22 11l3-29q9 5 8 38 0 34 8 39 7-7 2-29-4-20 3-23 12 13 13 35 2 27 16 51 7-58-9-78 10 0 21 17 12 18-7 17l11 8h16q-10-17-9-43l24-22q12-10 15 20-11-14-12 1l1 34q27-6 30-44 18 2 8 20-9 15 7 14-5 18-19 18l7 26q14 0 26-10l19-18q10 8-13 29-22 21-31 7l4 24-9 20q8 0 18-20l20 1q1-14-7-17-2-13 11-4 13 8 9 21 20-7 24-35V419l8-10 4-17q6 13 2 69 18 1 16-18-1-18 16-18l-10 48q-6 19 0 31-12 16-14-8l-13 5q-6 6-13 5 5 23 24 20l36-14q-9-25 1-48 11-28 8-57l-10 6q-4-2-4-14l20-1q8 16 6 35-3 16 10 34l-7 8-13 2 7 27q3 15-4 25 12 2 12-18 11 11 1 32l-18 29q6 14 15 0l17-1q-7-22-1-21 9 1 6-23l41-3q14-7 19 18l-17-4q-6-1-9 14l56 48q39 27 44 0 2-7 7-4l13 3q3 18-7 25l-25 3q18 8 37 0 21-9 8-28l10 9q5 7 10 7l-39 38q-16 6-33-35l-17 14q-5 4-9-21-6 1-7 16l-5 19-8-43q-5-21-27-25l-6 5-7 4q16 9 15 19l-7 33q-5-11-28-21-15-6 1-22l-11-7q-9-2-10-9-8 30 11 47 8 8 38 20l-10 21q-8 9-22 7 1 9 13 10 12 1 14 6 2-9 11-16l27-20-7 34q-2 13 16 17 1 10-17-3-24-16-36-3l29 17 37 6q-11 7-9 20 2 14 17 15 11-4 5-14-9-14-6-21 2 10 17 16 15 6 17 17 10-2 1-13l-15-12q7-10 27 19 21 29 33 13-17-10-11-26l16-26q14 3 11 17l-10 26 46-19 5 15q3 10 9 11l-30 2-35 9q1 8 10 3 11-7 16 4-12 41-24 53 17-9 60 15 1-26-12-32l-16-1q-12-7-3-14 13-11 8-21 9 8 14 25l3-9q-5-10-4-17l33-1q2 11-8 15-11 4-11 12 7 33 41 33 2-14-6-18l-15-7q4-16 12-6l15 13-7 40q-6 24 3 30-11 20-13-6-1-25 5-37-10-2-17 17-5 15-15 2-1 14 7 17 5 16-7 0l-20-25 3 19-22-1q1 15 9 14 12 0 18 11-4-2-22 7l-23 3 7 22 7 21 7-12q4-7 12-6 2 18-7 38l-22 41 6-22 5-22q-6-15-14-16 2 10-17 14-25 6-34 22-15-16-2-28 13-11 21 10-6-20-3-24 3-4 16 6l-1-26-45 21-32 26q6 38 34 42-7 22-28-6-20-25-27-53H950q-13-1-12 10 1 8 7 7l6-7 11 17q5 13 16 8-5 19-18 26 8 16 18 13l28-6 23 41q15 21 38 18-23 26 3 69-21-8-32 10-13 19-26 18 14 33 46-10l7 24q6 18 1 28l14-9q8-4 5-18 12 6 6 22l-11 21 17-17q8-11 8-27l-3-5 9 5-9 34q-7 16-21 19 4 26 23 54 21 31 26 48-17-6-27-25l-14-31q-10-16-27-19 2 27 14 34l-21 1 16 25 18-11 14 1-11 22q-6 16 6 22 4 9-10 0-23-15-36-7l6 21q3 6-11 5 2-30-8-30-15-1-20-12-7 2-7 21 1 20-5 23l8 7 12 1q1 16-9 22l-22 5-11-17q-7-10-4-26l11 21q6 13 16 13 3-17-21-41l-41-35q4 16 19 42l18 44q-19-2-20 9l1-28q-1-21-16-32-10-2-7 17 3 19 14 9-10 18-24 0l-16-34-12 15q-8 8-7 21-7-3-3-27 5-26-6-33-7 2-6 25 1 24-5 27-11 0-17-26-5-26-17-25 6-13 5-35 5 15 15 14 10-2 11-23l-19-1q-17 13-33 11l-11 18q-5 16 5 17 0 6-10 9-9 2-9 9-6 0-9-14-3-13-11-11-6 3-2 10l9 7q-38 28-45 126l-9 170 40-1 127 5q127-6 228 3 157-6 222-2l137 4 136-2 277 15h21l-60 6-61 3" fill="#fff" fill-opacity=".8"/></svg>