<?xml version="1.1" encoding="UTF-8"?><svg xmlns="http://www.w3.org/2000/svg" xmlns:xlink="http://www.w3.org/1999/xlink" version="2.0" width="100pt" height="100pt" viewBox="0 0 2000 2000" clip-rule="evenodd" fill-rule="evenodd" preserveAspectRatio="none"><path d="M890 715l104-7 103-8 111-30 101-18q14 3 24 17l6 14q32-24 60-24 18 0 18 26l-7 41q-7 21-64 65l6 23q-4 29-55 63l-134 44q-124 37-150 55l-94 55q-63 36-75 54l-63 68q-51 52-60 68-10 20-7 70 3 45 10 57 7 10 49 8 44-3 60-23 17-21 69-55 51-34 74-39l61-5q40 2 54 10 17 9 20 26 4 19-10 34l-83 66q-69 51-89 59l-191 71-111 54q-91 44-120 48l-293 25L0 1637V1269H59l57 8q42 3 72-22l176-156Q514 964 544 941q24-18 77-41 45-20 68-44 35-35 104-84 71-50 97-57" fill="#fff"/><path d="M1592 247l-31 25q-39 33-58 66-66 110 84 206 64 41 93-25 18-43 16-94l11 11 20 48q25 84-8 166-16 41-78 101-58 57-85 141-29 93-143 128-57 18-108 17l130 71q162 92 215-52 16-45 20-109V893q101 97 34 238-65 138-213 178-124 33-150 93-22 52 29 73 44 18 139 0l86-22-62 90q-79 83-166 44-159-71-131 51l26 80q10 31-12 11-139-122-277-24-66 47-83 78 74-147-29-107-94 36-157 114-68 84-155 109-100 29-201-27 81-29 136-63 109-67-59-112-102-27-174 19-10 6-34 25-7 6-3-7 6-22 28-50l217-17q107-21 235-75l223-105q104-41 157-70 96-52 105-121 8-56-44-82-30-26-86-32-67-8-126 25-25 14-71 49-31 23-65 19-36-4-10-44 38-60 125-118 56-38 152-86l169-63q102-37 153-89 84-46 64-93 2-11-4-21-16-14-1-29l29-38q16-29 16-50-10-19-28-35l-6-2-59-2q-35-1-56-14-8-5-10-16l-52 10h-3l-48 9-144 16-144 21q-56 12-112 46-41 25-98 72-40 34-130 91L460 931l-15 15q-58 43-132 118 24-48 7-101-15-48-58-80l-64-16q-37-9 25-10 50-1 93 27-73-142-88-205-29-115 23-218 4-9 8 32l5 80q8 75 65 131 57 57 142 73 63 12 55-79-8-82-47-133-26-34-68-49l-27-8q74-20 160 25 82 42 111 108 19-55-22-170-49-139-51-165-5-65 31-118 37-55 99-69 5-1-29 69-24 85 28 152 69 88 162 125 98 39 122-26 26-74-49-122-37-24-72-36 118-56 177-26 43 21 138 156l53 76q4-20-2-57-12-75-61-162-44-78 23-141 48-44 133-70 6-1-35 59-32 82 21 179l98 187q-45-118 35-190 67-60 138-45" fill="#fff" fill-opacity=".8"/><path d="M263 1116l-62 57q-37 27-76 32l-52-4 56-156q20-56 12-15-14 75 39 90l83-4" fill="#fff" fill-opacity=".8"/></svg>