<?xml version="1.1" encoding="UTF-8"?><svg xmlns="http://www.w3.org/2000/svg" xmlns:xlink="http://www.w3.org/1999/xlink" version="2.0" width="100pt" height="100pt" viewBox="0 0 2000 2000" clip-rule="evenodd" fill-rule="evenodd" preserveAspectRatio="none"><path d="M590 1423q-17 18-20 53-3 39 25 103 29 63 51 67l36-5q16-10 27-39 8-16-15-119-8-38-25-63-19-32-40-22l-39 25m340 116q12-52-2-93-14-38-47-52-63-28-101 54-15 31-9 64 3 17 9 27 34 81 87 71 49-9 63-71m174-616q76 9 100-29 27-44 33-80 5-36-6-83-19-73-127 57l-74 74-34 32q54 23 108 29m184-754-39 66q-41 69-47 87-8 23-22 85-15 64-15 78 0 15 11 10l20-17 46-64q38-56 46-81 12-40 18-136 6-97-18-28M736 921q-9-36-34-49l-22-6 15 28q13 37 6 83-5 37-40 150-30 101-28 112 6 21 0 80l71-184 27-100q15-77 5-114M582 718q-22-9-26 37l-8 75q1 31 28 68 24 34 67 22l50-10q-32-99-65-145-31-41-46-47M538 209V53q50 28 124 136 73 105 124 130 66-29 193-22 108 6 138 22 41-9 105-106 66-100 101-112 55 101 15 224-16 48-90 178 17 47 25 56 14 16 60 19l78 85q47 52 56 97 7 34-4 100-9 58 4 95 17 45 73 122l45 43q32 29 41 54 18 51 13 184-5 130 23 205 147 137 251 326l-8 8q-94 97-249 97h-77q-56-114-131-407-75-293-91-458-5-47 0-127l5-132q-6-163-111-315l43 137q42 152 35 224l-19 188q-7 114 20 183 21 52 92 351 71 300 93 356H743q8-98-3-152 41 19 78 7 99-34 129-132l25-95q16-54 37-72l74-44q52-32 70-71l47-112q21-78-5-167l2 43q1 52-10 91-13 49-37 92-25 45-48 59l-36 25-26 22-38 21q-28 17-46 49-12 23-34 106-18 73-34 88-55 57-85 65l-75-6q-11-16-50-40-36-23-50-49-7-49-45-138-35-83-40-142 9-22 35-163 25-136 38-160 6-111-46-201-47-81-32-172 8-47 83-131 70-79 68-122-2-33-58-71-63-43-73-69-22-55-20-144m43-66 3 62q3 68 8 100 5 34 50 74 44 38 50 27 17-33 0-90-8-28-60-103l-51-70" fill="#fff"/></svg>