<?xml version="1.1" encoding="UTF-8"?><svg xmlns="http://www.w3.org/2000/svg" xmlns:xlink="http://www.w3.org/1999/xlink" version="2.0" width="100pt" height="100pt" viewBox="0 0 2000 2000" clip-rule="evenodd" fill-rule="evenodd" preserveAspectRatio="none"><path d="M1734 465l82-33-1236 3-23 82 1 5v7l1176-64M1536 741l-9-23q-56-98-198-94-67-39-181-39l-191 3q-131-7-271 69-34 12-60 36-44 30-66 47l-2 1-76-4-21 83-116 7 24-138H10V409H418l13-74 116-53 44 26-16 64H1917l-56 113q-68 123-127 167-71 54-198 89" fill="#fff"/><path d="M1098 701l112 8 33 3 41 17 87 27 44 14 43 29q25 19 45 23 10 22 38 55 30 36 41 57 16 28 33 93 12 46 7 101-5 58-27 95l-38 51q-29 30-54 37l-56 2-67-2-17 3-16 2-28-11q-17-9-35-8-3 2 3 12 5 11 2 13l-21-4-22-5q-4 21 11 31l24 13 14 28 11 32q1 37-36 77l-43 32-43 30q-22 11-59 14l-76-5-53-21q-34-14-51-7-8 4-15 20l-12 24-27 23q-16 11-20 21-3 9-1 25l1 27q-3 21-27 63l-25 63q-15 12-45 11-29-1-42-14-13-45-3-107-57-22-157-104-115-93-116-142-55-53-60-117-5-74 36-182l60-165 32-42 30-46 21-17 23-18 17-19 16-19 35-22q25-21 39-28l41-13 22-15q14-10 21-13l55-8 49-14 18 2 18 1 27-5h37l37 2 34-3 34-5m29 58q-23-34-31-15-4 9-1 91 2 75-19 100-47 55-133 55-26 0-14-48 15-58 0-76l-81-4q-73 18-95 10-27-10-29-38-1-14-15 0-19 20-9 56 6 18 15 32H835q73 0-38 126l-48 58q-15 11-40-14-12-12-91-16-49-2-2-51 20-20 18-57l-7-33-75 75-32 58q-30 60-19 71 11 11 90 11 73-1 75 19 6 63-22 106l-29 31-18 38q-17 42-15 65 3 51 74 145 68 90 82 83 15-7-32-101-53-106-51-138 2-21 34-72l32-47q7-21 21-19 29 3 68 115 15 44 56 50 67 10 88 21 49 26 102 9 48-16 58-48l-61-18q-67-18-99-14-60 7-113-138-18-49 23-100 40-48 79-40 5 1-5 32-12 39 10 76 24 40 57 39l107-14q24-2 20 10-17 44-20 85-4 49 43 4l76-80q29-24-10-58-39-34-85-21-95 29-113 5-12-16-25-77-19-38 39-49l119-20q67-22 97-16 44 8 79 73 39 73 73 103 37 32 96 41 56 9 44-13-10-20-50-37-24-11-31-36-14-50-32-83-27-51-92-97l-59-35q38-26 88-51 32-16-9-53-20-19-47-35l23 31q11 37-48 64-25 11-89 59-27 19-56-3-28-21-16-53 22-57 22-91l-22-38" fill="#fff"/></svg>