<?xml version="1.1" encoding="UTF-8"?><svg xmlns="http://www.w3.org/2000/svg" xmlns:xlink="http://www.w3.org/1999/xlink" version="2.0" width="100pt" height="100pt" viewBox="0 0 2000 2000" clip-rule="evenodd" fill-rule="evenodd" preserveAspectRatio="none"><path d="M364 267q-40 78-70 177-27 92-42 183-31 173-26 374 5 192 37 373 38 205 101 366-44-56-97-168-41-94-65-184-51-183-56-386-5-204 45-388 27-99 67-184 52-104 106-163" fill="#fff"/><path d="M593 482q-26 59-44 127-14 50-27 130-18 122-15 262 3 140 23 263 22 140 63 262-77-94-124-248-39-128-42-275-3-149 34-278 19-66 51-130 40-74 81-113" fill="#fff"/><path d="M823 656q-25 73-37 174-9 71-7 172 2 86 12 173 15 107 32 176-58-60-93-162-29-88-31-186-3-98 26-187 36-107 98-160" fill="#fff"/><path d="M1875 1005q5 204-45 388-26 97-67 184-52 104-106 163 39-76 69-177 23-73 43-183 29-164 26-373-5-191-37-374-39-207-101-366 46 60 96 169 39 89 66 183 52 191 56 386" fill="#fff"/><path d="M1594 1004q3 149-34 278-19 65-52 130-41 76-80 114 26-57 44-128 15-53 27-130 18-122 15-262-3-140-23-263-26-149-63-261 77 93 124 247 39 133 42 275" fill="#fff"/><path d="M1322 1004q2 100-26 187-36 107-98 160 25-73 37-173 9-72 7-172-2-91-13-174-12-98-31-176 58 60 93 162 29 88 31 186" fill="#fff"/></svg>