<?xml version="1.0" encoding="UTF-8" standalone="no"?>
<svg xmlns:ffdec="https://www.free-decompiler.com/flash" xmlns:xlink="http://www.w3.org/1999/xlink" ffdec:objectType="frame" height="100.0px" width="100.0px" xmlns="http://www.w3.org/2000/svg">
  <g transform="matrix(1.0, 0.0, 0.0, 1.0, 0.0, 0.0)">
    <use ffdec:characterId="1" height="84.55" transform="matrix(1.0, 0.0, 0.0, 1.0, -0.25, 7.85)" width="95.95" xlink:href="#shape0"/>
  </g>
  <defs>
    <g id="shape0" transform="matrix(1.0, 0.0, 0.0, 1.0, 0.25, -7.85)">
      <path d="M51.0 71.65 Q49.75 71.85 47.3 73.05 44.7 74.3 44.25 75.15 L48.5 74.3 47.35 75.3 Q42.6 78.35 43.0 80.55 43.6 83.85 50.75 84.05 L52.75 84.3 47.65 86.05 Q50.05 87.8 53.45 86.9 55.9 86.3 57.1 85.15 62.95 79.6 59.75 74.9 56.7 70.65 51.0 71.65 M14.1 76.55 L8.85 76.75 2.15 77.45 -0.25 77.65 -0.25 74.1 3.8 74.45 Q8.2 75.0 13.2 73.5 L15.3 72.7 Q15.7 72.5 17.95 78.4 20.45 84.9 23.2 85.4 L26.6 85.65 Q26.75 84.8 27.55 83.85 28.35 82.9 32.65 82.5 37.25 82.05 38.65 81.05 40.5 79.8 36.55 79.2 L32.25 78.75 36.15 77.9 Q40.25 76.75 41.05 75.0 41.85 73.35 39.25 72.25 L36.55 71.45 40.0 71.5 Q43.65 71.3 44.95 70.1 46.25 69.0 44.65 68.45 L42.7 68.15 50.5 67.7 52.05 67.6 53.7 67.55 Q55.5 67.65 56.3 68.65 57.75 70.6 61.15 71.65 L62.0 75.25 Q63.1 78.85 64.55 79.1 62.25 80.6 60.9 83.25 59.3 86.1 61.2 86.7 57.95 87.8 55.8 89.45 53.9 90.9 53.3 92.4 51.05 90.3 45.7 91.05 43.0 91.4 40.75 92.15 L43.45 90.55 Q45.95 88.95 45.15 88.0 L40.75 88.1 37.2 88.5 Q38.25 87.4 38.3 86.9 38.45 85.7 35.9 84.95 L30.15 84.6 Q27.6 85.05 27.15 85.85 26.8 86.5 25.8 86.65 L20.25 86.65 Q18.05 86.6 16.2 81.55 14.25 76.55 14.1 76.55" fill="url(#gradient0)" fill-rule="evenodd" stroke="none"/>
      <path d="M76.3 15.55 Q74.7 14.75 72.0 14.9 68.2 15.1 66.2 17.55 L72.05 17.65 Q72.35 17.75 70.1 18.5 62.75 20.9 63.15 24.2 63.5 26.35 69.3 27.9 71.05 28.3 70.7 28.45 L66.1 28.95 Q66.85 29.55 69.95 29.95 L74.2 30.15 Q79.8 29.4 80.55 23.6 81.35 17.75 76.3 15.55 M-0.25 28.3 L-0.25 25.1 Q0.9 25.5 19.0 25.1 L40.1 24.15 44.7 22.9 47.9 22.2 Q48.85 22.15 48.75 23.9 48.7 25.35 50.0 24.9 L55.2 23.35 Q58.65 22.15 58.95 20.7 59.3 19.05 54.3 17.85 49.7 16.75 46.75 17.05 48.9 15.9 53.85 15.65 58.2 15.45 58.95 14.4 59.95 13.2 58.8 11.2 L57.55 9.4 61.7 10.9 Q66.2 12.3 68.05 11.6 68.75 11.35 67.6 9.55 L66.25 7.85 Q70.85 10.5 72.7 11.45 73.9 12.05 74.25 11.2 L74.35 9.25 Q75.15 10.5 76.9 11.9 L80.4 14.6 81.9 16.9 Q83.4 19.6 83.45 21.7 83.5 23.9 82.8 25.9 L81.6 29.1 Q80.75 31.2 75.4 35.15 L75.85 33.6 Q76.1 32.2 74.75 32.85 L66.55 37.3 68.1 35.4 Q69.3 33.4 68.0 32.95 66.65 32.5 60.25 33.65 L54.05 34.85 58.0 31.85 Q61.75 28.6 61.0 27.6 60.2 26.55 58.25 26.25 L54.75 26.05 49.55 26.3 47.95 26.6 Q47.25 26.45 47.55 24.8 47.8 23.1 46.45 23.5 45.55 23.75 41.85 25.35 37.5 26.95 32.7 27.45 L-0.25 28.3" fill="url(#gradient1)" fill-rule="evenodd" stroke="none"/>
      <path d="M33.25 45.2 Q32.95 47.65 35.25 47.8 36.15 47.85 37.6 48.45 L40.0 49.2 Q43.15 49.75 45.1 46.3 45.65 45.4 45.0 44.2 L45.55 42.7 Q45.7 41.9 45.25 41.15 L44.05 40.15 Q42.45 39.35 40.6 39.55 38.75 39.8 37.4 41.0 36.5 41.85 36.5 43.0 L35.95 42.9 Q33.6 42.8 33.25 45.2 M10.0 41.3 Q9.7 43.8 11.7 47.0 12.5 48.7 6.2 49.3 L-0.2 49.55 -0.1 48.05 1.2 48.15 Q7.1 48.95 8.5 45.4 9.15 43.65 8.55 38.85 8.15 36.15 14.05 36.35 19.75 36.55 24.7 39.05 30.05 41.75 30.25 40.3 30.4 39.0 27.5 36.1 L29.5 36.7 33.5 37.3 Q35.2 37.6 34.55 34.9 L33.5 32.25 Q38.4 36.05 40.25 36.55 41.4 36.9 41.35 35.6 L41.05 34.2 43.6 36.8 47.0 40.45 Q48.2 41.85 48.0 44.4 47.85 46.35 46.9 48.35 46.25 49.8 43.3 51.3 L38.5 53.35 Q39.8 51.3 36.8 50.8 33.55 50.25 28.6 53.1 30.45 50.7 30.1 48.9 29.4 45.25 19.65 47.2 24.15 45.4 25.9 44.3 29.15 42.25 22.1 40.0 10.65 36.3 10.0 41.3" fill="url(#gradient2)" fill-rule="evenodd" stroke="none"/>
      <path d="M75.6 51.8 Q73.8 52.05 72.05 53.15 70.15 54.25 69.25 55.75 71.05 54.4 72.55 53.9 74.05 53.35 75.8 53.35 70.35 55.75 70.45 58.8 70.4 62.7 79.4 64.3 L81.45 64.85 73.8 65.7 Q76.85 68.9 81.8 69.1 85.1 69.25 87.5 68.3 90.05 67.3 91.55 63.95 92.95 60.7 92.55 57.05 91.55 47.9 82.1 47.9 L76.35 48.5 Q80.8 49.3 83.05 50.5 85.1 51.6 86.5 53.7 84.2 52.25 81.65 51.8 79.1 51.35 75.6 51.8 M-0.2 66.8 L-0.2 65.05 39.15 62.65 37.05 55.65 57.7 56.5 Q62.25 56.05 59.0 54.35 55.9 52.75 49.65 52.05 55.8 49.55 65.9 49.55 L64.35 47.85 60.5 44.4 Q62.45 45.45 64.65 46.2 L70.45 46.35 Q71.8 45.05 70.05 41.05 L68.05 37.3 71.1 40.65 Q74.65 43.95 77.0 43.55 79.3 43.2 80.65 41.65 L81.55 40.25 81.8 41.9 Q82.4 43.85 84.3 44.8 L88.3 44.9 90.0 43.85 90.15 45.8 Q90.55 48.1 92.05 49.85 93.2 51.35 93.9 54.0 94.6 56.65 95.7 57.95 94.3 59.7 94.45 61.65 94.65 63.25 95.55 63.9 95.95 64.15 94.75 65.3 93.55 66.6 94.25 67.5 89.3 68.25 85.2 74.7 84.4 73.25 83.1 72.4 80.65 70.7 78.65 73.8 77.4 72.1 75.9 71.55 73.9 70.85 71.85 72.4 L68.8 74.7 Q69.65 72.35 69.15 70.0 68.15 65.3 61.4 65.45 62.6 64.7 63.5 63.55 60.35 62.05 58.75 60.25 L41.45 58.05 40.55 64.65 -0.2 66.8" fill="url(#gradient3)" fill-rule="evenodd" stroke="none"/>
    </g>
    <linearGradient gradientTransform="matrix(0.0383, -0.0065, 0.0065, 0.0383, 32.8, 82.15)" gradientUnits="userSpaceOnUse" id="gradient0" spreadMethod="pad" x1="-819.2" x2="819.2">
      <stop offset="0.0" stop-color="#ffffff" stop-opacity="0.0"/>
      <stop offset="0.5411764705882353" stop-color="#ffffff"/>
    </linearGradient>
    <linearGradient gradientTransform="matrix(0.0473, -0.0159, -0.0159, -0.0473, 42.85, 28.3)" gradientUnits="userSpaceOnUse" id="gradient1" spreadMethod="pad" x1="-819.2" x2="819.2">
      <stop offset="0.0" stop-color="#ffffff" stop-opacity="0.0"/>
      <stop offset="0.5333333333333333" stop-color="#ffffff"/>
      <stop offset="0.7254901960784313" stop-color="#ffffff"/>
    </linearGradient>
    <linearGradient gradientTransform="matrix(0.0294, -0.0039, -0.0039, -0.0294, 23.65, 44.45)" gradientUnits="userSpaceOnUse" id="gradient2" spreadMethod="pad" x1="-819.2" x2="819.2">
      <stop offset="0.0" stop-color="#ffffff" stop-opacity="0.0"/>
      <stop offset="0.5411764705882353" stop-color="#ffffff"/>
    </linearGradient>
    <linearGradient gradientTransform="matrix(0.0585, 0.0, 0.0, -0.0585, 47.75, 56.0)" gradientUnits="userSpaceOnUse" id="gradient3" spreadMethod="pad" x1="-819.2" x2="819.2">
      <stop offset="0.0" stop-color="#ffffff" stop-opacity="0.0"/>
      <stop offset="0.5411764705882353" stop-color="#ffffff"/>
    </linearGradient>
  </defs>
</svg>
