<?xml version="1.1" encoding="UTF-8"?><svg xmlns="http://www.w3.org/2000/svg" xmlns:xlink="http://www.w3.org/1999/xlink" version="2.0" width="100pt" height="100pt" viewBox="0 0 2000 2000" clip-rule="evenodd" fill-rule="evenodd" preserveAspectRatio="none"><path d="M533 1061V761q35-111 121-197Q756 460 893 430v962q-136-29-239-133-86-88-121-198" fill="#fff"/><path d="M1146 441q110 35 197 123 90 90 123 204v286q-33 113-123 205-85 87-197 122V441" fill="#fff"/><path d="M271 1642l9-9v360l-83-20q-15-6-56-44 0-91 32-158 29-61 98-129" fill="#fff"/><path d="M533 2000V1513l56-4H893v491H533" fill="#fff"/><path d="M1146 1509l320 4v487H1146V1509" fill="#fff"/><path d="M1719 1635l7 7q69 67 100 135 34 72 34 164l-21 13-33 17-87 24V1635" fill="#fff"/><path d="M469 0V2000H353V0H469" fill="#fff"/><path d="M1077 0V2000H961V0h116" fill="#fff"/><path d="M1651 0V2000H1535V0h116" fill="#fff"/></svg>