<?xml version="1.1" encoding="UTF-8"?><svg xmlns="http://www.w3.org/2000/svg" xmlns:xlink="http://www.w3.org/1999/xlink" version="2.0" width="100pt" height="100pt" viewBox="0 0 2000 2000" clip-rule="evenodd" fill-rule="evenodd" preserveAspectRatio="none"><path d="M613 1079l-75 34q-30 11-37 25-6 14-1 53-1 43 23 47 17 3 74-23 56-26 65-39 10-14 13-43 3-31-8-53l-54-1M800 878l20-50-154 74-16 48 150-72m476-400q-1 14 11 71l52-8-1-25q-4-26-16-33-15-9-30-11-16-3-16 6M1099 735l150-72 21-50-154 73-17 49m-54-15-154 74-17 48 150-72 21-50M275 983l86-41 61-32-12-72q-7-75 12-84l31-20q11-5 27 21 25 39 59 70 7 6-7 31l-16 24 11 19 628-292q49-31-147-52L803 541l253 91-53 26L589 500l-12-8q-10-13-3-33 15-45 51-9 16 16 76 25l130 9 208 13q140 14 167 27 33 17 42 13 11-5-2-45-18-59 56-47l30 6 24 19 19 40q107-42 134-42 22 1 28 10 7 11-6 36-25 45-18 75 2 10-11 17-13 6-11 11l55 35q54 33 68 59l31 86q19 56 35 70l52 34q33 16 52 12 21-5 49 7 28 11 47 33 21 25 9 47-13 24-60 16-46-9-64-23L1529 889l-224-95 48-28q286 145 286 118 1-24-15-55-19-37-53-59l-75-52q-41-28-55-24-13 4-333 170L790 1030l-33 15q-34 19-38 45l-12 68q-11 38-34 50l-79 39q-58 27-93 24-39-3-68 13-26 16-28 37l-26 166q-25 150-41 172-16 23-94 50l-75 22 37-145q60-268 44-274l-25-14q-13-8-18-7l-43 13q-37 10-38-5-2-33 25-125 24-82 35-103 9-19 36-48 31-33 53-40" fill="#fff"/><path d="M165 270q-26 54-34 112-9 59 4 113 15 59 51 85 39 28 90 8 45-17 93-65 82-82 131-209 49-128 43-251 31 120-5 263-36 142-122 240-57 65-114 89-38 16-78 15-43-1-81-25-60-40-85-130-19-70-8-145Q77 212 181 119q38-30 70-39 50-14 91 9 36 19 57 65l11 38 4 37q1 72-36 140-18 32-43 58-37 33-68 37l-43-7q-18-9-30-30-17-33-12-71 4-35 21-65 18-31 45-49-45 45-43 115 0 32 16 53 17 21 39 15 20-6 40-31 18-21 30-49 25-57 20-111-2-28-14-51-12-23-28-31-32-16-76 26-40 37-67 92" fill="#fff" fill-opacity=".8"/><path d="M1692 185q-39-22-79-25-43-5-71 14-29 19-27 59 0 32 22 81 36 75 111 141 75 64 162 91-89-8-180-68-88-61-135-143-29-53-33-100-2-29 9-58 12-29 38-49 41-31 109-27 50 4 102 31 103 57 140 151 11 32 10 58-2 38-28 60-24 21-59 23l-29-1-26-7q-50-17-88-59-19-22-29-44-13-34-9-55 3-17 16-28 9-9 27-13 28-3 52 9 51 25 62 73-19-42-68-58l-41-1q-17 6-19 22-1 16 11 36 10 18 27 32 32 32 71 41 46 12 66-8 19-19 1-59-32-76-115-119" fill="#fff" fill-opacity=".8"/><path d="M1352 1165q78 23 107 88 20 46 4 102-12 39-40 79-25 35-63 68-53 45-118 70-54 20-94 18-92-2-122-61l-6-18-2-22q0-30 21-61 36-54 103-79-66 31-93 80-24 43 2 75 36 44 126 34 97-13 172-81 38-35 47-70 8-32-9-63-32-49-100-64l-149 4q-93 22-173 80-95 68-112 142-19 67 24 129 32 46 95 74 117 53 290 18l88-26 94-41q109-55 191-136l55-62 13 24-53 65q-95 99-220 171-102 58-205 87-183 51-326 0-68-25-110-80l-19-31-14-37q-12-48 3-108 18-75 82-153 51-64 126-118 114-78 219-99 92-19 166 2" fill="#fff" fill-opacity=".8"/></svg>