<?xml version="1.1" encoding="UTF-8"?><svg xmlns="http://www.w3.org/2000/svg" xmlns:xlink="http://www.w3.org/1999/xlink" version="2.0" width="100pt" height="100pt" viewBox="0 0 2000 2000" clip-rule="evenodd" fill-rule="evenodd" preserveAspectRatio="none"><path d="M1070 1532l44-3 90 8 75 24 4 1-8 12q-17 26-77 75-59 50-86 60l-81 10-89-4q-29-3-77-51l-58-68-14-19 6-2 29-13q19-9 31-11l87-7 78-12h46" fill="#fff"/><path d="M967 1226l14 11 21 7q23 6 42-9l34-33 32-24 34-23q-2-18-15-26l-29-3-39 16-42 8-70-15q-46-7-57 27l-2 1q2 11 51 37l26 26M638 729l34-8q-58 27-79 49l3 2-6 6 34 3 36-2 65 7-31 17q-20 13-17 27l16 19 20 14q25 13 73 10l72 5q-18 40-74 78l15-7q84-37 92-67l2-15q0-6 6-15l18-25 23-34q14-17 34-27-40-14-57-27-12-9-28-13l-32-6q-17-3-54-24-33-19-57-18-27 2-57 17-29 14-51 34m676-53q-23-4-68 12l-146 39 3 2h-12l7 1-27 6q16 14 17 25l-1 31q4 56 17 72l19 11 19 9 24 30q15 29 56 77-27-41-36-77-11-48-33-57l114-3 55-5q20 2 52 16-25-21-28-42l-11-57q13-21 82 22-22-100-103-112M501 562q-11-36 3-92 5-18-1-49-6-33-4-49 3-23 17-42l33-34 51-37 50-34 60-53 33-29 39-27Q889 60 954 43l-6 3q24 13 72 11h74l19 7 19 8 51 12 52 8 86 12q55 7 84 19 14 6 19 18l7 28q12 39 38 75l56 66 39 38q25 26 26 44-12 15-12 48l2 53 5 33 2 33-7 17-7 17q-3 14 11 37 14 23 27 27 9 3 16 54l5 81q-1 28-20 88l-28 75-19 50q-13 38-26 53-23 27-56 23l-6 53-37 7-57 10q-12 5-26 16l-22 16-27 7-28 3-77 15-115 32-60 6-53 10q-64-2-105-28l-42-30-26-7-26-6-26-11-27-8H663 606l-56 7v-2q-2-20 3-35l6-11-14-38q-28-2-52-26-15-14-19-39l-1-22-28-73-26-131-7-81q8-24 24-42 13-16 57 28l6 6q-4-4-4-62l7-41q4-25-1-42" fill="#fff"/><path d="M843 1422l28-14 51-12-80 10-81 9-35 9-18 7-16 10q-11 3-31 17-17 5-21 9l21 3 26-3 54-15q24-14 38-17l64-13m86-72H919l-25-3H869l-80 5-75 10-64 3q-12 3-36 15l-35 14-36 31h4l112-5 54-8 42-10 29-3 23-6 22-7v-1l13-4 12-5 26-13q15-7 27-8l22-5m488 115 18-44q-19-18-55-24l-62-4-148-5 3 3-27-1-25 3 39 9 40 8 33 13 37 3 80 8q11 3 34 16l33 15m15-162-67 1-75 2q-48 2-72 11l56 7 57 6 64 24q39 17 65 20l-4-24q12-39-24-47m-963-17 7-25q-15-10-13-23 1-12 18-19l4-6q19-9 51-7v2l43 11 47 4 47-5h48q72 10 141 42l21 13q13 10 20 12l60 1 92-10 28-9 22-13q20-11 64-18l67-13 32-12 32-8 86-5 82 2 22-3 22 2q20 8 34 24l11 23 2 25q-1 10-10 20l-13 18h-5q-9 11-9 18l-4 1q-6 10 4 30 10 23 7 36-6 21-48 44-1 9 8 23l2 24-32 19q-23 8-35 20l-11 13-15 9-22-4-18-13-27-13-28-10q-24-10-68-38-32-16-79-21-26-2-83-1l-80-3q-28-4-80 17l-35 13q-12 4-33 15l-8 5v3q-12 4-29 27l-27 24-22 8-25 3-22-4-23-2-15 3-14-1q-17-4-23-21-9-18-16-20l-29-1q-16-1-21-18-18-10-46-15l-10-15-3-17 3-16-4-17q-10-5-31-7l-3-36q-9 0-19-9l-13-17q-3-8 1-19l5-20 18-20m59 17 7-2q-14 0-17 12l31 6 29 11 31 3 31-5 36-4 37-1 34 3 32-3q-19 2-61-15-39-15-63-7-7 11-59 8l-68-6" fill="#fff"/><path d="M1403 1749q17 54 37 89 15 27 45 52l57 41q30 22 110 61H518l58-42 66-69 24-32 12-39 21-77q10-43 9-80l-12-109q33 57 60 89l41 36 44 34q15 14 36 54 19 38 35 51l61 53q47 35 67 17l1-7 73-65q46-47 71-63l58-42 21-13 21-13q30-33 48-136 19 33 40 117l30 93" fill="#fff"/></svg>