<?xml version="1.1" encoding="UTF-8"?><svg xmlns="http://www.w3.org/2000/svg" xmlns:xlink="http://www.w3.org/1999/xlink" version="2.0" width="100pt" height="100pt" viewBox="0 0 2000 2000" clip-rule="evenodd" fill-rule="evenodd" preserveAspectRatio="none"><path d="M1201 774q-10-31-30-46l-4-3q6 6 4 19l3-4 2 18 5 18 8 33q11 52 2 67l19 105 9 61q5 36 12 61l5 32 9 34-2-26v-24l2-61-4-31-4-31 2-59-1-56-19-54-18-53M1078 671q2-14-3-22l-12-19-10 11-4 25 2 25v19q0 14 5 19l-3 33v23q2-10 15-34 11-20 11-35l-1-45m716 221q22 37 29 61l-8 4q-5 1-8 6-6 10 0 22l15 22 17 44 12 41-9 5q-5 2-8 7l-1 4q-4 8 1 17l6 17-1 31q-1 19 6 30l-12 16 11 38q7 23-2 39l7 22v21l-61-15q-14-12-29-37l-24-40q-15-24-72-76l5 6q35 38 60 85 20 42 43 57l-20-6-13 13-19-2q-12-2-16 6l-23-16q-17-8-30-9l-25-76-14-51-19-51q-24-49-45-70l13 12 53 48q32 26 60 34l50 9q20 5 62 29l-61-38-1 1-25-10-26-8-52-36-51-46-51-46 28 15 31 14 27 6 26 8 2-2 66 7 33 1 31 5 31 12q23 6 32 11h6l-25-16-27-17-54-23-28-5-28-8-62-14q-76-17-110-35-23-12-55-40l-53-44 38 13 41 7q31 0 83-16l3 3 14-3 13 3h9q61 16 114 50l50 35q34 23 55 25l-87-72q-24-17-43-26l-22-12-22-6-33-11-118-13q-46 1-114-24l-1 1q-43-20-47-42l14-5 49 4 95 10 52 2 40-5 40-3 39-7 20-3 17 1-83-3-52 7-48-6h-11l-58-21q-36-15-58-16l-53 8-53-3-2 1q-29-13-64-58 5-16 44-20l52 4 50 2 50-1 29-7 32 1 37 1h18l15 3 23-2 23-3h26l26-7-39 2-40-4-38-5-40-1-22-1-23 2-22-4-23-3h-49l-23 2-24-1-3 2h-9l-3-2-44 7-20 5-20 5q-23 0-44-15-15-10-11-36l12-6 11-7 22-9 56-6 28-5 26-5q16-13 59-10l-34-2-32-3-23 2-24-1-20 5h-20l-31-1-33-5q-19-1-44 13l-12 1-12 7-27-2-38-18 60 52 57 52-6-3v4q8 12 9 33l-2 34v63l3 57v57l1 6q1-15 9-46l8-40 2-62 3-24 3-24q-2-27-20-47l11 9 108 95 107 96 194 175-3 4 9 31-1 2q9 12 20 43l17 39 10 38 4 20 8 18-2 2 14 31 16 32-3 4-44-5q-27-3-45-17l-16 6-3-20-4-20q1-12-6-30l-11-31q-11-27-17-56l-18-61-10-60-11-35-11-19-12-17h-2l9 26 6 29 12 55 11 71 14 68 21 53q17 36 30 49l-5 6q-46-3-127-36l-13 10 2-28v-30l-1-55q-3-44-22-111l-29-108-4-28-3-28q-7-31-30-54l-7-7-2-3 11 49q6 30 17 47l-1 2q7 12 8 34l-1 34 6 65q6 9 9 33 3 24 8 33-2 10 7 39l31 117v1l-21-9q-14-8-22-6l-47-37q-28-28-47-37l-28-8q-17-5-31-21-26-30-45-67-22-41-28-75-2-11-17-18l-24-14q-19-16-25-52l-7-59q-13-37-15-56 6-18 4-43l-5-42q-6-7-13-37l6-7 3-6 2-3q-1 0-3 2l5-18 3-18-4-4-4-3q-2-6 4-24l1 3v4l5-7 3-8q-10-17-51-44-43-29-58-50-58-9-111-36l-12-12q-10-26-43-45-32-19-64-21-40-2-60 25l-41 50q-8 26-47 67-34 37-63 55l-17 50q-14 30-12 56 5 54 22 98l32 40 33 45q22 35 24 108 1 79 14 108 14 31 54 76l63 68 28 39 30 33q31 54 47 108l24 51 26 49 7 42 2 44 93 20 90 17q36 3 107-2l110-3q7 45 104 53l137 5q49 10 129 47 89 42 125 53l86 16 114 17-41 51q-97 97-253 97H349q-153 0-249-97l-27-30 72-5 68-1q80-7 139-41l103-77q64-54 98-74 15-36 20-71 3-19 15-53l15-52q4-32-9-49l-35-37q-24-30-54-85l-46-85q-28-47-32-106l1-118-6-50-13-46q-4-18-1-49V816l-2-7q-16-25-17-56-15-40-16-61-2-35 21-65l13-2 2-13 10-10 5-1q7-23 17-38 16-22 58-51l59-49 42-67q22-33 64-43l91-2q37 10 74 47l47 50 58 48 3-5 6 10 13 6-12-4v2l1 12 88 59q63-34 149-47l150-16 88 10 18 7q26 0 48 19l14 19 14 16 17 5 18 4 51 19 56 51q0 24 10 44 27 16 54 43 28 27 44 55l-6 27 36 60" fill="#fff"/></svg>