<?xml version="1.1" encoding="UTF-8"?><svg xmlns="http://www.w3.org/2000/svg" xmlns:xlink="http://www.w3.org/1999/xlink" version="2.0" width="100pt" height="100pt" viewBox="0 0 2000 2000" clip-rule="evenodd" fill-rule="evenodd" preserveAspectRatio="none"><path d="M886 1277q-21-52-20-82-8-5-14-20l-11-29-15-46q-5-27 12-44-14-87 39-147 49-55 125-61 64-4 114 44 35 33 69 99l-1 28-2 25 10 18q8 13 8 25 1 21-21 74l1 4-1 5q-8 12-19 58l-12 66q-8 66 28 102 37 39 173 87 128 45 161 96 45 69 50 191l-7 233H516l-3-31-17-111q-8-63-5-111 10-154 75-199 23-16 69-34l79-31 75-31q44-19 68-37l26-27 17-32q6-34-14-82" fill="#fff"/><path d="M1393-3h153V1506q-48-51-153-88V-3" fill="#fff" fill-opacity=".8"/><path d="M1705-2l49 7V1986l-49 8V-2" fill="#fff" fill-opacity=".8"/><path d="M856 272l60 2q122 7 151 37 37 36 39 212 2-154 26-195 29-49 148-55V1376q-37-17-54-35-13-13-9-45 9-66 21-96 12-16 12-38l4-10q17-47 16-74 0-28-16-55 4-30-1-55l-6-16q-35-69-73-109-70-72-161-72l-16 1q-39 3-81 19 1-172 43-209 37-33 206-35-173-2-210-39-37-37-39-212-2 157-27 196-30 49-157 53V-3h548V270q-119-5-148-55-24-40-26-195-2 176-39 213-37 37-211 39" fill="#fff" fill-opacity=".8"/><path d="M732 548q123 4 154 48 29 40 30 195-58 24-100 75-56 72-50 165-22 47 6 123l4 9 3 10q8 25 18 42 3 30 23 77 13 32 12 43l-16 20q-26 18-84 42V548" fill="#fff" fill-opacity=".8"/><path d="M246 3l67-6V1995l-67-11V3" fill="#fff" fill-opacity=".8"/><path d="M493-3H606V1446q-51 21-81 41l-32 31V-3" fill="#fff" fill-opacity=".8"/></svg>