<?xml version="1.1" encoding="UTF-8"?><svg xmlns="http://www.w3.org/2000/svg" xmlns:xlink="http://www.w3.org/1999/xlink" version="2.0" width="100pt" height="100pt" viewBox="0 0 2000 2000" clip-rule="evenodd" fill-rule="evenodd" preserveAspectRatio="none"><path d="M714 1428q-5-79 5-129 5-24-13-43-17-20-29-2l-8 15-5-6q-2 23 9 66 5 37-2 114l4 55 3 55-10 46-11 46-8 37q-4 22 0 37 3 14 16 28l23 22 10-15 25-36q8-14-1-39l-13-41q-1-15 4-41l6-41-5-128m720 350-11-36-16-45-14-45q-3-19-3-55l-1-56q-14-75-13-113l4-38-3-39q-4-12-6-39l-5-40-10-18q-11-18-29 2-18 19-13 43 9 45 7 91l-11 89q-5 32-3 77l4 78-3 44q-3 30 3 40l24 36 33 45 32 47 7 17 19-22 12-26q2-15-4-37M491 1043q22-107 28-162l12-52 14-52q14-70 40-91 56-46 140-58l62-4q32-6 46-36l18-34 15-13 9-17-28-84q-21-70 16-69-7-16 4-69 9-48 19-68 18-34 55-52 34-15 75-13 43-2 77 13 37 17 54 52 10 20 20 68 11 53 4 69 36-1 15 69l-27 84q1 11 9 17l14 13 19 34q14 30 46 36l61 4q85 12 141 58 26 21 40 91l14 52 12 52q6 55 27 162l14 46 20 45 43 120 7 42q11 142 10 188-4 65-2 97 2 30-14 107-13 71-4 103l5 24-16 17q-14 12-13 19l5 25 3 49 7 27 5 27-5 14H564l3-7-25-5q-8-5-11-20l-9-22-17-17q-11-10-13-22l1-27 5-28-2-49 3-26-15-17-18-16 3-24q5-33-14-103-6-20-7-46l-1-47-10-96q-5-37-3-89l3-90 7-40 29-102 18-57" fill="#fff"/><path d="M1405 592q0-14-11-41-10-25-10-42l-15-30-9-27q-2-16 8-26-9-52 23-88 29-33 74-36 64-4 109 85v17l-2 14 6 12 6 14-13 45v5l-12 34-7 40q-5 39 17 61 22 23 100 51 74 25 95 53l-12-35q-9-23-8-39l-15-30-9-27q-2-16 8-26-9-52 23-88 29-33 74-36 64-4 109 85v17l-2 14 6 12 6 14-13 45v5l-12 34-7 40q-5 39 17 61 21 22 71 40v828q0 156-92 249-87 88-226 96 1-21-9-56l-4-10v-14l-2-32q35-36 18-93l-1-5q-5-16 5-72l4-18q13-69 11-105l1-80 1-10q2-47-7-156l-3-41-16-79-51-129-18-50-11-65-16-94-16-71-11-38q-15-93-63-132-40-32-89-50" fill="#fff" fill-opacity=".8"/><path d="M240 452q64-4 109 85v17l-2 14 6 12 6 14-13 45v5l-12 34-7 40v17l13-14q14-10 42-21l47-18q68-28 85-40l16-16 10-19q4-21-8-49-13-32-13-49l-15-30-9-27q-2-16 8-26-9-52 23-88 29-33 74-36 64-4 109 85v17l-2 14 6 12 6 14-13 45v5l-12 34-7 40v6q-85 18-147 68-46 38-64 132l-10 38q-15 52-17 71l-15 94-12 65-14 41-3 8-29 102v3q-9 38-9 58l-2 65q-4 75 2 121l11 90v26q0 51 9 83 15 54 13 72l-1 5q-11 58 27 91l2 45-2 11q-8 38-3 59 7 38 39 65l-2 6H345q-155 0-249-97-84-81-94-209l-1-10L0 860l69-28q68-28 85-40l16-16 10-19q4-21-8-49-13-32-13-49l-15-30-9-27q-2-16 8-26-9-52 23-88 29-33 74-36" fill="#fff" fill-opacity=".8"/></svg>