<?xml version="1.1" encoding="UTF-8"?><svg xmlns="http://www.w3.org/2000/svg" xmlns:xlink="http://www.w3.org/1999/xlink" version="2.0" width="100pt" height="100pt" viewBox="0 0 2000 2000" clip-rule="evenodd" fill-rule="evenodd" preserveAspectRatio="none"><path d="M1671 134 1792 14q87 21 141 81 38 44 57 106L1880 313 1601 596q-210 202-359 284l117-15q50 35 144 55l156 25 120 25 124 28-98 7-87 3-154-14q-93-8-155 12 2 24 13 37-89-24-132-21-62 6-11 72l-32-11-106-30-64-27-24-19q-18-15-24-16l-9-27-15-27q-30-44-52-138L920 639q33-57 47-161l13-171 17-132 20-137 15 106 12 93q4 56-2 169-1 101 27 166 25-3 38-16-19 98-11 144 11 67 78 6-9 29-15 65 141-238 512-637M464 1469q58-117 237-250 210-141 295-209l6 6-172 306q-119 181-251 262-6 28 3 70l15 69 236-154q137-94 235-196-10 132-147 300-137 167-288 231-8 14 1 42 10 27 0 41H356q-158 0-254-96-92-92-92-247V1466l43-57 40-2q26 10 39-4 66-152 235-288Q532 983 670 962q-102 105-196 236-56 78-155 235 16 21 65 28l80 8" fill="#fff"/><path d="M908 879l-84 5q-53 13-13 59-52-13-135-58L546 813 393 736q-94-53-132-106 80 39 181 68 131 36 183 14l-28-30q39 27 140 65 98 36 137 70h9l13 30 12 32m442 574-8-53q157 275 148 481-22-25-73-115-43-77-79-105l9 56q2 29-6 44-6-30-39-64l-51-57q-16-29-30-84l-22-88-47-179q-32-117-68-167h9l63 60v-22l1-23q49 37 98 155 50 122 95 161" fill="#fff" fill-opacity=".8"/></svg>