<?xml version="1.1" encoding="UTF-8"?><svg xmlns="http://www.w3.org/2000/svg" xmlns:xlink="http://www.w3.org/1999/xlink" version="2.0" width="100pt" height="100pt" viewBox="0 0 2000 2000" clip-rule="evenodd" fill-rule="evenodd" preserveAspectRatio="none"><path d="M359 199q29-1 103 20l111 11q15 30-38 72l-64 49q196 64 293 109 171 78 259 201-63 47-213-39-80-46-112-58-59-21-98 1 50 3 125 61L854 729q31 23 118 70 62 48 15 111-56-3-142-61-104-69-140-82 25 33 122 103 78 56 99 116-61 20-135-13-45-20-131-81-86-60-126-78-69-29-121-5L560 942q86 89 121 169-89 10-183-73Q363 920 340 908q-46-23-134-42L65 834Q32 824 2 810L3 314l177-69q107-45 179-46" fill="#fff"/><path d="M1117 1222q113 40 154 41-31-23-147-67-97-38-132-83 24-75 99-51l125 57q107 30 158 47 90 29 121 68-4-45-56-82-28-20-111-59-157-74-155-153 150 2 312 98 93 55 258 179l3-81q3-68 36-73 20 42 73 86 60 50 76 73 26 39 45 94l26 104v243q0 156-92 249-26 28-72 54-33-20-130-65-79-36-123-71l-107-98q-65-61-111-86-24-13-197-55-122-30-164-109 85-17 206 2 72 11 193 44-11-57-74-96-38-23-136-59-99-35-141-61-69-42-88-104 60-17 151 14" fill="#fff"/></svg>