<?xml version="1.1" encoding="UTF-8"?><svg xmlns="http://www.w3.org/2000/svg" xmlns:xlink="http://www.w3.org/1999/xlink" version="2.0" width="100pt" height="100pt" viewBox="0 0 2000 2000" clip-rule="evenodd" fill-rule="evenodd" preserveAspectRatio="none"><path d="M1866 1382q-2 32 13 90l22 96 1 22 2 21 17 40q10 28 0 50l49 81q-5-37 2-121 7-77-2-117l-7-17-7-17-21-124q-12-68-46-88-1-4-6-3l-7 46q-10 30-10 41M771 696q5-12 12-16l16-5 15 2 13 12 14 12 13-5 12-8 35 1 15 25 15 4 16 4q18 12 18 25-2 25 6 57l7 42-3 34q-7 22-4 39 4 21 22 74 15 48 18 76l7 77 9 38 5 38q33-52 45-135l13-143q5-58 48-125 20-31 52-51 21-14 66-31l59-22 70-29q40-18 63-35l25-26 16-29q6-32-13-78-20-49-19-76l-14-19-10-28-14-43q-4-25 12-41-13-81 36-137 46-52 117-57 60-4 107 41 33 31 65 92l-1 27-2 23 9 17q8 12 8 23l-7 34-13 36 1 3-1 6q-8 11-18 53l-11 63q-7 62 26 95 33 35 120 67 110 39 135 54v892q0 157-91 249-97 97-254 97H1211l2-6q6-37 36-101 31-66 38-100l1 6q15-15 20-48 4-33-5-59 16-16 24-43l11-62 4-44 2-44 11-52q7-31 3-53-16-78-30-110l3-2-12-27-11-30q-15-25-28 2l-17 38q-9 5-20 48l-3 1-14 33-35 60-13 23-14 22-32 22-24 18-25 17-36 4q-23-2-36-11l-52-36-12-8-9-11q-3-8 0-21l3-22-6-32-7-32q-4-26 2-75l8-78q2-36-4-88l-10-85-7-58-16-55q-10 2-24-8-16-10-25-10-11 0-52-25l-24-17q-13-8-28-7-9 1-25 11l-25 8q-5-1-4-8l1-11-5-12-5-12q-4-13-1-22l16-35q11-21 21-32 7-8 26-8 18 1 24-6" fill="#fff" fill-opacity=".8"/><path d="M205 1518q-7-77-39-108-5 15-7 33l-2 36-19 69q-17 42-19 56-2 24 3 66l9 68 6 66q3 38 11 64 15-15 20-48 4-33-5-59 16-16 24-43l11-62q13-73 7-138m590-52q-12-68-46-88-1-4-6-3l-7 46q-10 30-10 41-2 32 13 90l22 96 1 22 2 21q3 12 17 40 10 28 0 50l49 81q-5-37 2-121 7-77-2-117l-7-17-7-17-21-124M2 894q16-26 33-39 22-15 65-32l75-28 70-29q40-18 63-35l25-26 16-29q6-32-13-78-20-49-19-76l-14-19-10-28-14-43q-4-25 12-41-13-81 36-137 46-52 117-57 60-4 107 41 33 31 65 92l-1 27-2 23 9 17q8 12 8 23l-7 34-13 36 1 3-1 6q-8 11-18 53l-11 63q-7 62 26 95 28 29 156 73 119 40 157 99 46 71 48 208l-10 253q-1 51 12 126l20 118q9 86-14 183l-41 156q-6 26-6 63H348q-154 0-250-97-96-93-96-249V894" fill="#fff"/></svg>