<?xml version="1.1" encoding="UTF-8"?><svg xmlns="http://www.w3.org/2000/svg" xmlns:xlink="http://www.w3.org/1999/xlink" version="2.0" width="100pt" height="100pt" viewBox="0 0 2000 2000" clip-rule="evenodd" fill-rule="evenodd" preserveAspectRatio="none"><path d="M1953 1319q-16 4-38 32l-30 43q-20 28-57 87h-5l-25 29-32 23q-13 12 28-9l40-16q24-11 31-27 43-5 65-66l9-47q6-33 14-49M1799 913l-49 40-25 25q-28 25-50 73l-33 85q-10 29-54 72-44 43-54 71-25 14-59 57-34 43-42 71l41-36 38-39 43-34q26-22 34-41 23-11 63-56l21-38q12-23 33-22 3-14 17-39l16-41 7-62 36-26 59-44 38-10 37-10q-12-7-48-11l-13-14q-30 10-56 29m-89-24q-28 6-62 42-6 6-18 33l-18 26 76-42q47-25 80-38-23-3-58-21m131-173 8-26q29-46 9-47l-7-2-48-9-21-10-23-4q-14 31-26 124l-1 14 8 10 32 9 57 5-1-10q-4-27 13-54m87-235q-13-8-28-7l-16 38q-11 22-8 40l40 6 5-31q3-18 8-29l-1-17M1679 273l67-8q88-2 151 63 66 67 43 153l-14 39q-9 23-9 41v40l-13 40-12 41-12 40q-7 13-7 39l-5 40q28 6 58 29l54 36 20 12v774q0 156-96 247-94 96-249 96H1249l12-29 14-62q6-39 20-59l36-40 34-40q13-24 5-57l-16-56-3-43q-2-30-9-40-7-10-36-22l-41-16-152-81q-94-59-142-84l-12-6q-41-94-91-153l13-34h-1q-39-17-53-29-24-20-24-51l2-25-7-25-16-24q-9-13-4-26L467 758 254 859l-46-6L58 728 34 677 51 506l20-33L463 317l65-5L718 436 701 614l-26 46-103 48L854 917q21-25 36-27l46 33 61-42q61-38 110-65 35-22 56-33 39-21 60-19l2-6h11l18-34 22-31q16-16 36-16l45 7 88 11q55 10 73 37 8-25-11-68l-29-66q-23-74 6-145 30-74 74-114 16-15 60-34 46-20 61-32m11 202-11-2 4 4v1l19 19q10 10 23 12 26 17 82 12-1-42-25-78-16-25-32-29l-45-3-14 7-15 33 14 24M221 640l15 194 40-194L692 448 248 600 85 497 221 640m1064 586-16-35-21-75q-15-56-31-61l-2 7q-28 2-37 27l-45-10-41 2-10 6q9 14 43 32 32 17 37 31 4 12-5 25l-15 22-2 29 1 31-10 1q22 16 65 33 10 16 42 35 32 20 54 23-16-17-12-42l10-43-5-38" fill="#fff"/><path d="M1531 240 1384 340 731 286l800-46M171 1326l600-86 73 106-673-20m1006 314 74 106-1054-20 980-86M897 1480l214 106L17 1566l880-86" fill="#fff" fill-opacity=".8"/></svg>