<?xml version="1.1" encoding="UTF-8"?><svg xmlns="http://www.w3.org/2000/svg" xmlns:xlink="http://www.w3.org/1999/xlink" version="2.0" width="100pt" height="100pt" viewBox="0 0 2000 2000" clip-rule="evenodd" fill-rule="evenodd" preserveAspectRatio="none"><path d="M2000 827v64l-373-68q181-5 373 4M1088 9h76l-76 525V9M958 9h89l-12 617L958 9m138 834L1193 9h124L1096 843M892 9l117 731L781 9H892M269 825l120 1-126 22L0 897V831q124-6 269-6" fill="#fff" fill-opacity=".8"/><path d="M1681 413q25 53 13 63 8 14 10 37 2 25-7 37-5 7-34 18-20 8-16 32l-57 1-55-15q-32-14-33-34l4-50V456q3-20 21-40 13-14 16-15h22l29-1 27-3 15-4q19 19 45 20m319 640v596q0 156-96 247-94 96-249 96H345q-157 0-253-96-92-92-92-247V1092L246 969l-72 20L0 1042V973q321-91 685-120l127-4 118 5L688 981q-184 95-193 103 320 14 420 40l-62 58q-50 38-53 57l211-15q-22 34-32 73-7 27-12 76-113 67-164 126l105 91q51 48 68 94l-33-89q-25-58 19-86 12-7 146-42 107-27 105-64-1-14-41-45-39-29-36-44 4-21 49-39l71-27q97-48 179-104-23-16-81-26-59-9-81-24 17-5 33-28l18-37-149-11q-111-14-138-29l183-47q116-31 154-67l20-2 6-18q317 26 600 101v55l-221-36 221 78M837 597l22 18 27 13q14 10 11 26l10 6q5 15-5 32l-18 29-5 16-12 12-16 4q-10 1-14 8l-7 1-1 7q-47-8-69-28-7-27-33-44l7-3q0-25 6-37l11-12 9-10V621q-2-8 2-14 5-7 28-13l20-2q13-5 27 5m586 127q-14 1-20 12l-12 16-28-1-25-11-10-5-16-33q2-14 13-20l9-24q7-11 24-9 4-23 37 3l16 14 19 14q4 10-7 44M596 380l4-11 4-8-1-24q1-21 11-44l62-3 10-3 17 8q2 18 20 18l1 4 7 1 1 33q-2 14-13 24l-25 22q-14 15-18 28l-50-10q-30-12-30-35m16 180q-1 15 6 22l-24 34q-10 17-11 41H537l-43-4-5-5q-18 2-35-33-17-36-3-38l1-4q16-3 25-47l7-8q19-6 28-25 7 1 22 11l25 14 52 18 1 24" fill="#fff"/></svg>