<?xml version="1.1" encoding="UTF-8"?><svg xmlns="http://www.w3.org/2000/svg" xmlns:xlink="http://www.w3.org/1999/xlink" version="2.0" width="100pt" height="100pt" viewBox="0 0 2000 2000" clip-rule="evenodd" fill-rule="evenodd" preserveAspectRatio="none"><path d="M1409 408l17 37h35l4 118-3 44-35 1-17 37-327-38-7 655 270 17 5 8 8 20q28 330 5 335l-300 21v42l-21 5H958q-21 0-21-6v-41l-284-24q-23-5 8-336l8-19 5-8 255-15-2-654-314 38-17-37-35-1-3-118 4-44h35l17-37 312 42-19-214 37-17 1-35 125 1 1 35 37 17-23 213 324-42M1045 1598q14-14 14-34 0-19-14-33-13-14-33-14-20 0-34 14-14 13-14 33 0 20 14 34 14 14 34 14 20 0 33-14m-67-218q14 14 34 14 20 0 33-14 14-13 14-33 0-20-14-34-14-14-33-14-20 0-34 14-14 14-14 34 0 20 14 33" fill="#fff"/><path d="M2000 1689l-11 63-370-60 381-3m-106 220-67 48-347-150 414 102m81-113q-20 47-49 81l-503-158 552 77M181 1961q-39-19-73-48l428-106-355 154M77 1881q-32-39-50-84l566-78L77 1881M13 1754q-9-37-10-65l394 3-384 62m1174 8 584 217q-51 16-115 16h-65l-404-233M425 1995H346l-108-13 591-220-404 233m246 0H611l202-118-142 118m168 0H819l67-73-47 73m358 0h-20l-47-73 67 73m208 0h-60l-142-118 202 118" fill="#fff" fill-opacity=".8"/></svg>