<?xml version="1.1" encoding="UTF-8"?><svg xmlns="http://www.w3.org/2000/svg" xmlns:xlink="http://www.w3.org/1999/xlink" version="2.0" width="100pt" height="100pt" viewBox="0 0 2000 2000" clip-rule="evenodd" fill-rule="evenodd" preserveAspectRatio="none"><path d="M1454 1879q8-33 9-94 2-70 6-95 15 12 26 50l14 58 13 61 16 61 18 39 21 38-74 1-80 2h-16l6-24 24-62 17-35M996 1643q5-17 12-25 13 61 9 146l-13 145-1 74-1 17H847l7-11q15-27 20-70l7-73q5-30 23-59l39-51 44-64 9-29m138-7 26 30 29 13 28 11q12 8 17 22l8 31 12 26 5 30-10 29-13 29-11 28-31 6h-35l-32-7q-23-14-38-45l-26-54 5-14 5-28q-10-21 3-64 10-32 27-61 13-3 31 18m25-302 5-5-14-14q-3-27 13-36l42-11q65-12 56 50l-60 5-21 7-21 4m175 96 22 16 22 15q5 27-21 49l-49 31q-21 17-49 22l-59 4v-17l-10-22-12-23q-7-23-1-55 4-20 26-42l28-39 7-1q6-13 50 18 43 29 46 44m61-92q-1-20 17-34l37-25q22 16 41 67 15 42 19 76-8 17-11 33l-31-14-30-17h-8q-31-31-34-86m161-291q7 28 15 34l14 34q5 20-8 32-33 10-50 27l-12 22-8 22q-13 17-50 18l-59-2h-5q-34-11-49-30-8-11-7-21l3-24-11-54q-7-32 3-52l21-22q7-10 29-7l38 8 40 1 39-11 36-6q15 5 21 31M645 1922q52-34 81-9 16 14 20 42 4 27-7 45H573q26-48 72-78m107-259q1-23 4-31l8-25q5-15 14-23l27-10q14-6 12-23 7-5 14-34l8-6q2-15 11-28 2 20 7 36l36 30q5 10 2 26l-5 26-5 49q-5 23-21 42l-39 25-44 18q-25 12-42 28l-31 38H694q3-25 20-52l5-1q2-13 13-29l14-24 6-32M423 1445q6 16 3 33l-12 29-19 25q-15 25-17 65l-8 5-8-37 3-2-4-21-1-19-8-20-9-20q-7-25-5-35l11-16q6-8-1-18l-5-24 3-6q-5-9-5-20l17 18 32 4q7 4 11 14l6 16 16 29m27-287q-11-15-6-26l20-22q32-30 50 8l-32 25-9 12-11 10 1-4-13-3m184-2q13 14 5 36l-16 36q-6 17-20 30-10 10-32 24l-6-9-14-9-15-8q-11-10-21-32-5-13-1-33 5-23 2-33l4-3q-1-10 34-9l43 9 19 1h18M559 846q10-3 23 9l21 14 20 14q11 10 8 22-16 16-19 33-2 7 2 18l3 15q-1 15-22 29l-34 20-3 2-38 1-13-9-7-15-26-27q-16-15-17-30l3-21q1-8 15-14l24-10 23-14 18-21 19-16m-37-71q12 5 14 29l-4 35-25 26q-19 16-20 23l-1-4q-25-11-42-30-21-24-9-46l16-18 20-16 26 2 25-1M385 587l6 3q12 8 22 33 8 13 31 34 16 16 17 27l9-6q-6-9-10-28l-15-30q-4-8-2-25l-11-11-14-8q-5-7-3-19l-2-20-14-11-18-5 2 15v23l6 22-4 6m40-148 17 15 18 18 11 24 16 24 13 5 12 5 17 24 9 27-3 2 37 51 22 33 8 38 18 37 23 35 14 34 3 15 33 50 25 29 23 30 23 28q12 15 13 31 1 22 7 39l18 36q-26 17-30 36l-13 38-19-49-20-48q-22 8-26-9-4-16 7-31 16-22 14-37l-20-38q-8-14-13-34l-9-34-10-23-13-13q-8-8-14-9l-19 4-19 1-16-15-13-19 1-16 1-16q-4-18-31-20l-40-5-3-2-12 19q-36 51-85 26l5 1q-19-30-24-53-10 10-26 13 22 9 27 19l5 16 5 16 8 16 1 16q-4 27-32 52l28 25 17 9 14 14q4 11-3 36 0 18 11 36l19 33q8 21-42 54l-10 4q-21-31-60-53l-5-3q19 28 21 48 6 39 27 68l24 31 20 31q9 21 0 34l-29 31q3 15-18 32-21 17-37 17l-5-1q8-15 4-40-4-26-16-38l-16-14-13-19q-4-11 0-19l11-18q7-14 7-35l-1-36 2-16-6-16q-5-21 0-40l4-13q-31-20-30-33l10-15 12-13 6-19V914q2-18 16-47-27-22-39-81l21-25q3-19 8-26-19-4-32-16-19-17-18-50V617l2-2q-4-9-3-24V568l27-23q-23-25-15-51l-1-13 1-13-2-31 2-28q-1-15-9-28 34-38 19-71l4-5q-3-7 4-14 15-14 38 8l29 35 31 29q16 16 22 36l5 40m962 496q-8-47 25-64l34-10 39-4q14 1 30 24 15 21 31 18 11 16-7 48l-32 39-51 13q-37 4-44 12l3-6q-23-34-28-70m117-343-9-16-7-18-9-9-12 34-13 32q-7 17-8 35l-1 25 30-28 27-33 15-18-13-4m137 1000 12-24 16-18 3 58 3 57-3-31-8 92-4 42q-3 28-13 34l-7 16-4 56q-2 35-11 53 2-25-9-47l-23-38q-20-33-14-97l-3-48q-1-22 18-38l18-11 15-15 3-23q1-14 11-18m12-1014q14-15 14-25 0-13-10-26l-17-20-10 20-18 29q-8 15-10 32l-10 3 5 9q5 12 3 29l-3 30q0 16 11 67 7 33 0 47h16q0-9 10-44l3-24 2-24q1-13 18-32l-5-23-10-21q-2-13 11-27m47-416 9 66 16 62q6 33-3 61l-25 55 9 32 6 37-4 38q-5 27 0 42l12 17 11 17q5 15 2 43l-11 40h-4l4 93 2 30-2 29-20 53q-7 23-7 61l-1 62q-1 32-9 52l-9 22 2 88q0 17 7 56l4 55 6 54q4 29-8 48-17 29-23 54-4 18-6 59-46 2-67 20l-21 21-26 16 15-76 15-75q-34-8-25-32 7-23 34-33 37-14 46-34l7-63q1-25 11-53l16-49 7-37q-6-38-17-49-7-6-27-10-17-3-24-15-5-10-8-31-3-23 0-33l14-19 14-20q9-25-22-49l-45-38-2-5-32 14q-39 16-70 8-35-9-56-45l6 6q0-52 13-85l-43-5q21 30 19 45l-7 23-7 25-3 26-12 21q-28 33-82 38l16 54 15 25q8 16 5 29l-15 21-19 20q-13 22-14 54l-3 55q-5 22-37 29l-58 5-17-3q0-52-30-115l-4-7q0 47-13 77-25 56-22 106l5 56q3 35-1 56l-7 26-19 16-30 7-31 7q-8 21-49 25-39 5-59-8l-5-6q22-12 37-47 15-34 10-59l-7-30q-5-20-1-34 4-16 15-24l27-12q21-11 37-38l28-46 16-17 3-13 2-12q11-28 32-50l16-13q-23-52-11-66 5-6 23-9l28-7 21-18 15-24q17-20 58-46-9-25 0-69 5-31 17-61l47-15 13-13 16-13q-20-22-26-46-9-36 19-74 36-51 40-65l5-1q3-15 16-32l19-29 51-7q-9-50 23-75 1-9 9-18l12-15q11-26 21-39l26-33q10-19 11-42 30-9 51-26 26-20 30-47l8-3q4-11 17-14 29-6 39 40" fill="#fff"/></svg>