<?xml version="1.1" encoding="UTF-8"?><svg xmlns="http://www.w3.org/2000/svg" xmlns:xlink="http://www.w3.org/1999/xlink" version="2.0" width="100pt" height="100pt" viewBox="0 0 2000 2000" clip-rule="evenodd" fill-rule="evenodd" preserveAspectRatio="none"><path d="M1740 1229l-9 504-495 40 19-686 237 4q183 7 200 20 18 14 35 68l13 50M1157 0l2 485 41 555-344-3q29-441 37-528L900 0h257m-58 1602q0-34-24-59-24-24-59-24-34 0-59 24-24 25-24 59 0 35 24 59 25 24 59 24 34 0 59-25 24-24 24-58M851 1081l352 2-23 694-4 33-38 38-219 5-47-38-9-34-12-700m239 153q-24-24-58-24-34 0-59 25-24 24-24 59 0 34 24 58 25 25 59 24 35 0 59-24 24-24 24-59 0-34-25-59M292 1741l-6-475q0-24 24-91l23-61 469-28 12 689-522-34" fill="#fff"/><path d="M2000 407V628l-279 374-60-6 339-589M1923 96q42 48 62 124L1542 991l-47-1L1886 62l37 34M1671 3q68-1 127 16L1540 632 1671 3M1239 3h73l-56 293L1239 3m159 0h182L1314 953q-18-34-29-113L1398 3M0 751V465l336 560q-27 12-52 46L0 751M183 32Q246 5 324 3L571 1017l-31 2L183 32M14 237Q33 157 87 99L377 900 14 237M409 3 558 6l28 698L409 3M624 3H799L770 900l-4 25L624 3" fill="#fff" fill-opacity=".8"/></svg>