<?xml version="1.1" encoding="UTF-8"?><svg xmlns="http://www.w3.org/2000/svg" xmlns:xlink="http://www.w3.org/1999/xlink" version="2.0" width="100pt" height="100pt" viewBox="0 0 2000 2000" clip-rule="evenodd" fill-rule="evenodd" preserveAspectRatio="none"><path d="M557 1568q9 3 5 13-5 13-2 18-13-1-10-12l7-19" fill="#fff"/><path d="M806 1466q-3 20 10 29l25 10-25 42q-16 22-42 27-25-27-15-64 10-38 47-44" fill="#fff"/><path d="M626 1466q1-17 14-30l24-21q3 21-9 28-14 8-13 22l-16 1" fill="#fff"/><path d="M983 64q-9 1-11-27-2-28 10-37 6 6 3 28-4 27-2 36" fill="#fff"/><path d="M297 510v9l-52-27 25 2q18 13 27 16" fill="#fff"/><path d="M297 477v25l-39-43 39 18" fill="#fff"/><path d="M1514 1696q9 15 12 10-6-6-4-12l2-15-12-2q-6-6-10-6l12 25m33 84-33-42-27-39q-14-20-27-24 20 37 53 82l57 77q-4-28-23-54m-300-6q8-30-19-30-1 23 19 30m9-23q6 20 18 26-3-49-27-61l9 35m59-195q11 26 21 40 4-8-7-36l-23-51-9 3 18 44m168 79q-27-14-14 4l27 27q1-10-5-18l-8-13m121-180 15 19q9 13 20 15-1-14-16-26-15-12-19-8m144 77-27-30q-18-16-30-13l27 24q15 14 30 19m-554 126q-2-13-11-10-10 11-2 29l17 22q2 6-6 9-8 3-8 8 1 11 17 15l22 8q4-7 0-24l-5-23q-7-1-9 4v12q-9-4-7-22 1-18 9-20l18 10q10 8 20 8 8-3 2-10-7-10-4-17 14-1 21 18 5 18-1 28l23 19q11 14 9 36 12-31-4-60l-28-53q28 3 19-23l23 4 21 13q-10-37-55-122l-14 3q5 20-4 20l22 18q13 10 4 27-13 1-20-14-8-17-15-19-9 3-1 16 8 13-2 16-6 8-11 2l-11-11-11 28q-5 20 6 31l-14 14q-10 8-3 24-5 0-7-14M376 1278q54-37 74-65-53 26-74 65m249-83q-4 13 4 17 0-7 3-12l-7-5m-151-10-10 16q22-4 30-24-13 0-20 8m103 70q-4 7 4 9l13-14q6-12-5-18v7l-4 4q-2-6-6-5 4 6-2 17m-34-8q-10 6-16 23l-11 27q31-11 27-50m-166-22q-19 16-29 34 25-11 52-36l37-35q3-3 9-3v-21q2-12 6-14-21 4-32 17-13 15-3 33-9-2-14 3l-12 5q-6-8-21-11-16-3-21 10l17 5 11 13M854 341l-5 33-22 695 352 2-12-700-9-35-48-38-218 5-38 38m117-90q-6 18 2 25l10 2 6-26q2-18-7-24-7 10-11 23m138-99q10-36 3-68 2 24-17 75-17 44-8 59l22-66m42-54q9-17 2-24l-12 22q-10 12-10 23l20-21m516 1071q6 15 21 24l30 14q-16-24-51-38m15-128 10 7 7 12q10-10 32-5 21 5 26 0l-40-11-35-3m155 81-15-14q-9-7-23-4 1 10 18 17l20 1m-318 163q-13-11-2-23l95 56q56 33 94 43l-4 16 25 16 24 1q-11-4-58-58-33-39-70-15l3-9v-12q-26-4-58-30-34-28-53-34 1 10-12 22-10 8 0 21l-17-3 10 16q9 8-1 15l-28-19q18 9 24 34 8 33 14 42 6-7 1-12-8-6-8-14 24-2 21-21-1-13-10-22 3 0 12 7l16 1-18-18m364-919q-13 7 0 4l27-6q1-9-6-11l-12-3-9 16m-452-85q-15 7-24 15-13 12-4 20l15-17 13-18m4-79 24-23q15-14 8-23l-22 30-10 16m-23-57 68-85q-14 31-61 87-55 65-71 89 29-15 75-76 49-66 79-86-16 31-55 76-44 49-58 72 84-68 166-201-15 3 3-21h39L1492 133 1614 0h44q-144 136-226 234 26-9 53-43 29-37 50-46l-17 19q-11 13 4 14l-31 36-31 38q20 7 47-16 35-30 49-35l-92 93 40-23q31-21 47-17 3-13 22-27 22-16 43-10l-11-5q20-8 53-30l57-38-7 21 19-1q4 11-9 12l-21 1q12 2 14 13l14 11-39 36 15 16q6 8-6 20 9 0 12-12 4-11 12-12 14-1 7 7l-10 15q8 5 21-4 17-11 25-11l2 16q1-5 15-7 15-1 15-7 9-1 15 12 5 14 14 12 1 7-15 7-15 0-10 11l25-5q25-15 26-15-15 14-21 30-7 19 5 24l11-15q6-15 17-19l48 3q38-18 52-13 1 10-10 16l-14 13q2 4 6 2l10-3-19 19q-11 12-21 6l4 10 3 10q-9 9-45 21-32 10-41 24 31 13 53 0-13 20-65 33l-23 34q-15 20-41 19l45-2 49-12q-40 22-113 46l-2-115-521-35 11 689 469-27 6-15q29 15 97 37 57 26 66 75 46 26 72 35 1 12-9 17l35 17q23 9 32 19-7 11-20 4-15-8-23-5-8 3-3 9l5 12q-31-2-71-25-43-26-66-31 4 10 25 19 19 9 21 24-22 2-40-12-27-21-32-23-4 1-2 5l3 10-24-3-24-3q9-17 20-18l-20-16-20-17q14-6 42 6l45 18q-13-17-56-43l-69-41q-3-10 15-12 1-12-10-14l-18-4q3 18-15 18l-37-8q-1 18 18 19l36-3q-9 13 4 21l26 8q-19 7-14 13l12 24-20-8-24-4q22 30 72 57l81 45q33-4 76 35 49 46 74 52l4 12-2 9 36 25v38l-32-21q-5-2-5 15l37 28v79l-117-72q14 33 50 57l67 37v21l-63-46q-37-27-67-41 18 31 58 55l72 39v47q-25-27-41-33-8 18 6 39 12 20 35 33l-1 21-15-12q-8-7-18-8-8 5 1 16 9 11 2 16-10-7-40-14-28-7-37-16-4 8 16 20 21 14 20 29-23-1-46-28-24-29-44-32l60 74q-21 0-44-24-24-24-32-54l-41-24-38-27 17 51q14 25 48 23 13 32 89 71 66 34 68 82l-3 7-18-2q-11-3-21 0-64-90-129-136 4 12-12 5l-26-17q-5 4 9 15 14 12 5 20-12 0-24-12-13-13-21-15 5 10 6 32 0 22 6 35-8 9-25 9-16 1-21 12-9 1-18-8-8-9-20-5 0 6 24 25 23 20 24 40l12-4 9 2q-5 8 18 33 28 29 27 52-10 0-19-18-8-17-21-15 0 14 10 28 11 15 11 28l-11-11q-4-5-11 3-2 12 10 17 12 5 9 18 11 3 10-9-2-14 4-14 15 0 4 15-12 18-1 22-7 9-18-6-12-18-21-17 1 13 11 23l14 20-4 1q-27-35-70-74l-76-69q-8 7 4 24 11 17 5 23-5 0-8-8-3-8-9-7l29 61 28 60h-14q-34-42-115-172-70-111-122-163-16 26 13 62 41 50 47 75 12 45 44 102l58 96h-48q-28-45-63-122l-59-128q-17 29-10 65-9-14-25-10l-19-2-4 8 1 13-25-20q-15-11-31-12 5 19 28 61 16 39 0 64 20 42 24 83h-29l-33-110q-19-65-47-92-1 45 15 101l29 101h-28l-16-68q-11-39-26-63-17 19-2 62 17 51 12 69h-60l-4-9h-8l1-72 4 8q2-11 14-12l9 25q3 17 11 21 5-31 2-43l-22-8-18 1 2-143 26 48q14 25 31 21 11-12 6-43l32-3q-5-57-48-53-4 11 0 27l6 35q-11 0-19-15-8-16-16-18l12-61q2-34-27-41l1-23 37-528-345-2 25 324q-20-14-41-19l-32 3q-10-17-28-18-6 4-14 22-8 15-20 18-6-9 7-25 16-18 15-30-3-7-7 0-7 10-14 7 0-4 6-9 6-5 3-13-4-8-13 7-9 14-12 6l2-22 4-21-20 15-14 20-12-10-15 2-6-27q-4-20 12-21l-20-26-30-1q13 12 7 30-7 18 4 27-11 7-15 30-4 20-22 26-7 2-10-3l-7-6q-24 17-49 64l-45 67q-3-26 24-64l38-64-48 33q-32 22-67 36l-33 50-37 46q-10-22 12-51 26-34 26-53-23 17-61 69-34 48-64 65 10-28 63-87 45-50 47-87-22 5-40 33-21 30-38 37 8-20 26-46l30-44q-35 26-106 97l-110 93q25-39 105-131 69-81 98-137-25 2-31 8-9 30-50 56-52 34-62 45l4 4h7l-21 24q-14 14-17 27-7-1-2-12l10-15L0 1594v-56l4-3 98-76q54-44 88-84 27-2 43-22l20-32-6-10L0 1512v-18q32-35 92-81l99-76q-1-7 4-16 6-8 4-16-7 9-50 23l-39 8-18 16q-32 40-92 81v-22q70-48 105-92l11 2 11 1 17-16q9-11 5-28-11 2-8 10 3 9-6 12-13 1-6-7 8-9-1-13l-55 22q-26 9-29-14-10 9-23 10l-21-2v-19l16-3-16-1v-20q50-24 69-42-33 2-69 17v-82l14-14-14 6v-88l61-20 52-29-53 13-60 18v-24q39-17 136-46-10-6-51 9-38 15-49 0l57-17 56-20q5-1-4-15l-15-15q7-12 17-2l16 15 23-10q11-6 24 0l-9-7q-6-3-4-13l19-6 18 3q-11-15-33-5-28 14-40 12-2-17-26-29-23-12-41-7-11-1-5-8 6-8 14-4-6-18-44-19-41-1-49-14 7-7 23-5 20 4 30 0-4-10-10-7l-17 4q-2-8 5-10l-19-8q-12-6-19 0-5-16 40-17l69 1L0 755V706l59 4L0 696V645l140 20Q91 648 0 633V619l111 17Q71 615 0 599V587l91 22 93 15q-10-13-12-26-2-16 12-21-20-15-38-18l35 3q27 13 40 11 1 7 9 19 7 10 6 22l15-4 15-4-16-14-23-9q-1-6 10-6l16-1q-41-22-104-44L39 495q40-3 101 20l100 35q29-22 56-12l-6 384q19 95 48 118 27 24 436 24l19-686-414 34-23-19q-13-11-20-5l17 11 16 14-71 5v32l-5-10-5 8-9 4q-16-40-86-79-88-47-108-67l59 10q1 3-10 6 94 53 162 86-39-46-136-104Q58 243 21 205l2-4q20 3 57 31 40 31 60 37 9-3 4-12l-6-14 88 62 87 64-13-57q-10-29-34-50l9 2 8 2-65-73q16 2 46 30l50 40q-33-31-96-109L136 58l-2-3Q199 11 288 2q52 74 81 108-8-25-28-55L301 1l33-1 10 12q19 0 20-12l20 19q10 17 20 19L381 0H542l8 14L577 0h33l33 42q51 83 72 167L691 0h1l75 158q7-1 5-6l-4-15 8 1 8 2q-15-12-11-32l4-41q12 4 14 33 2 32 9 39 2-10 12-11 9-1 10 11V93q-1-29 6-47 1-31 9 32l13 88L848 0h13l3 33 4-4V22q12 28 13 81l3 86L903 2V0h7q-2 115 6 192 14-2 16 3l12-38q16 5 12 26l-7 32q12-10 13-43 1-39 5-49-11-3-9 12 2 14-10 11-5-26 10-64 20 17 18 58l-5 78q4-10 12-15 9-6 9 13 8-15 12-42l6-49q14 12 0 58 13-2 16-25 4-23 16-26l-15 68q-13 43-15 67 31-39 47-125L1085 0h8V23q-3 17 0 25l22-48h39l-11 17q1 7 13 26 8 13 2 26 11-9 14-31l5-38h10l2 8 3-8h40q-44 102-93 150l-4 54-8 47q6 8 21-3 11-9 12 11 13-6 22-26l15-30q6 9-4 29l-17 31q10 0 36-21 19-16 20 0 15-3 12-15-4-18 0-24 12-1 10 3l-3 13q16-20 48-17 32 2 43 24l70-81" fill="#fff"/><path d="M1013 466q34 0 59 24 24 24 25 59 0 34-24 59-24 24-59 25-34 0-59-24-24-24-25-59 0-34 24-59 24-24 59-25" fill="#fff"/><path d="M997 775q35 0 59 24 25 25 25 59 0 35-24 59-24 24-59 24-34 0-59-24-24-24-24-59-1-34 24-59 24-24 58-24" fill="#fff"/><path d="M2000 485v29l-91 19q1 4 7 4h10q-26 20-86 34l-100 23V580l68-18 55-14 17-2q11-2-7-4-40 3-134 30V543l261-58" fill="#fff"/><path d="M1742 802l37-11q18-8 18 12l203-8v16l-17 1q1 16-29 18l-59 6q6 15 47 19 38 4 42 26l-118 3q-82 5-123-1l-1-81" fill="#fff"/><path d="M1742 776l-1-72 42 5q11 6-41 14 3 7 21 4l22 3q1 8-10 11l-21 2 73 3 76-1-14 8-17 6 112 10q-39 14-117 13l-125-6" fill="#fff"/><path d="M1818 912l-38 5-40-9 3-22 38 12 37 14" fill="#fff"/><path d="M1730 947l6-21 95 16-48 7-53-2" fill="#fff"/><path d="M1721 972l8-23 72 15 71 17-151-9" fill="#fff"/><path d="M1740 629V616l260-51v7l-129 31-131 26" fill="#fff"/><path d="M872 1867q-5 12 0 14v7q-4 6-4 31 1 22-7 28-16-253-1-424l11 143v16l-2 10h2l1 175" fill="#fff"/><path d="M1856 639q-16 10-53 16l-62 9-1-13 116-12" fill="#fff"/><path d="M1741 677l63-8q36-3 50 12l-113 11V677" fill="#fff"/><path d="M1719 979q30 8 43 15 21 11 29 31l-78-30 6-16" fill="#fff"/><path d="M533 1918q-11 16 0 28 0-11 12-24 12-13 10-26-15 10-22 22m-44-217q9 2 6 11l-3 15q11-9 22-40 10-29 24-38-6 40-31 114l-38 120q18-11 36-59l31-74q6 17-13 71-17 47 6 77-3-7 16-16 21-9 15-3 21-22 36-76 17-61 33-83l7 73q-28 33-44 94l-20 113H364q11-28 46-89l43-90q-10-29 5-65l31-55m4 68 7-16q-12-1-21 17-8 17 8 16-1-9 6-17" fill="#fff"/><path d="M338 1654l-66 94q9-39 48-97l66-94q-10 40-48 97" fill="#fff"/></svg>