<?xml version="1.1" encoding="UTF-8"?><svg xmlns="http://www.w3.org/2000/svg" xmlns:xlink="http://www.w3.org/1999/xlink" version="2.0" width="100pt" height="100pt" viewBox="0 0 2000 2000" clip-rule="evenodd" fill-rule="evenodd" preserveAspectRatio="none"><path d="M1099 1305q2 11 30 27 28 17 100 90l67 69 18 18q20 12 31-18 11-31 92-120l80-83-100 73q-93 67-103 59l-212-123-3 8m-425 68 5-28q-9 31-49 84l-124 20q-119 23-88 34l138-7q95-6 69 44-13 27 58 161-22-89-17-106 2-10 62-19 53-8 43-12-42-17-57-26-40-23-40-49l5-14 106-70-43 9q-45 14-58 36l-21-6 11-51M1724 600l79 40 45 95 39 86q26-9 26-36 0-17-47-136l-19-44q-172-230-203-265-19-22-64-108l-41-82 22 64 22 78q0 11 47 87l63 98 73 79 46 49-68-29-69-29q-16-10-37-15-24-5-7 15 15 18 93 53M0 1654V347Q0 207 69 117l54 47q19 19 34 85 18 75 15 157l-5 119 16-10q18-9 24-7 8 3 9 17v36l-1 117q-3 96-17 99-22 4-40 17l-9 42q-10 51-13 95l-16 165q-9 117 8 139 18 24 78 61 53 34 85 45 23 8 44-5l57-44q46-34 149-66 116-36 195-31 84 7 163 27 75 19 106 40 19 12 19 29l25-34q45-52 109-93 81-52 156-61l152 7q61 12 99 33 21 12 34 37 11 22 23 24 17 3 21-14l1-17q-8-66-26-105l-19-44q-6-25-12-111l-12-147q-4-52-1-60 4-13-20-90-27-83-51-104l-77-92q-54-67-64-62l-56 46-63 46-46 7q-28 4-33 20-5 15-39 40l-36 30v36q2 29-9 39-29 29-115-26-40-26-84-68l-48-51q-14-20 0-115l6-94q5-79 16-95 11-17 49-28l35-8 119-26q123-27 145-27l135-12q119-5 174 30l300 313 92 88 96 93-6 818-129 46q-67 22-89 17-39-8-65 11l-18 21 98-4q116-8 209-31v161q-71 34-140 94-48 44-180 114-161 84-256 93l-220 12-124-3q-11-2-42 18l-46 31-7 6H920l67-28 152-85q90-52 95-61l133-4 264 8q42-10 124-78 84-70 97-111l-88 88q-100 87-164 84l-352-35q39-67 52-120 9-32 1-61l-9-22-29 77q-31 79-42 90l-63 71q-55 60-82 70-10 4-86 49-74 43-140 68H345q-67 0-119-16l108-22q68-18 89-37 34-31 37-93 3-54-19-116l-1 85q-7 88-43 104l-118 43q-76 21-94 15l-22-6q-39-21-71-53-92-92-92-250" fill="#fff"/><path d="M679 1455q13-22 61-48l45-22-106 70" fill="#fff"/></svg>