<?xml version="1.1" encoding="UTF-8"?><svg xmlns="http://www.w3.org/2000/svg" xmlns:xlink="http://www.w3.org/1999/xlink" version="2.0" width="100pt" height="100pt" viewBox="0 0 2000 2000" clip-rule="evenodd" fill-rule="evenodd" preserveAspectRatio="none"><path d="M1197 264l30-2 31 4 32-2q13 1 20 18l5 35v36 67q1 43 20 58l51 23q29 11 36 37 18 72 2 116l-28 44-32 43q-91 139-224 208-36 120-9 316l47 334q11 22 48 30 34 7 44 38l53 325H660l-24-229q5-21 36-48 31-26 35-48-11-86 36-382 48-308 39-440-3-46-21-135-19-90-22-135-5-74 10-105l28-36q20-20 25-39 17-20 31-26l26-6 25-6q7-13 24-27 18-15 32-19 16-4 41 10 26 13 46 7 11-3 30-23 17-18 32-19 13-1 39 10l40 16q17-43 29-48" fill="#fff"/><path d="M1411 992q5-10 13-11l19 1 19-2h18q8 4 19 30l24-10 24-6q9 1 19 12l19 14 28-4q16-9 25-7 20 5 35 29l31 7 19 16q3 12 15 24l18 22q9 22 5 64l-13 83-13 83q-6 81 24 270 29 182 22 235 3 14 22 30 19 16 22 29l-7 59q-67 32-160 32H1412l24-150q6-20 27-24 23-5 29-18l29-205q17-120-5-194-81-41-138-128-30-34-37-53-9-26 1-71 5-16 23-23l31-14q11-9 12-36v-41q-2-32 3-43" fill="#fff"/><path d="M580 1349q8 37 1 58l-30 43q-46 70-112 104-18 59-4 157l23 167q5 11 24 14 17 4 22 19l13 81H349q-90 0-161-33 3-10 18-23l17-24q-5-43 18-191 25-153 20-219l-10-67-11-68q-4-34 4-52l14-18 13-19 15-13 25-6q13-20 29-23l20 5 23 3 15-11q8-8 16-9 11-2 39 12 9-21 15-24h15l15 1h16l10 8 2 36v33q1 22 10 29l26 12q15 5 18 18" fill="#fff"/></svg>