<?xml version="1.1" encoding="UTF-8"?><svg xmlns="http://www.w3.org/2000/svg" xmlns:xlink="http://www.w3.org/1999/xlink" version="2.0" width="100pt" height="100pt" viewBox="0 0 2000 2000" clip-rule="evenodd" fill-rule="evenodd" preserveAspectRatio="none"><path d="M828 1134 814 683 449 757l3 402 376-25m-82 210 42 10 2-108h42l2-32-387 14 2 31 47 3-3 64 91 18q27 6 81 0 54-5 81 0m359-102 30-1-2-29-252-2-2 34 43-3 5 126 90-10q56-8 59-18l34-9-5-88m236-16 47-5 2-22-204 6 1 34 35-7-2 97 19 3 47 12 46 17 8 2 1-137m280 2v-34H1442l-7 27 48 5 7 179h2l48-4q29-1 46 9h2l-2-182h35m-18-835 353 303-5 56-244-51-5 49-62-24 29 488 26 3 8 223q32 17 94 64 54 35 91 75l33 48q19 32 34 44-125-59-232-56 40 19 74 66 29 41 45 90l-41-26-43-27q-66-28-155-42l-81-15-40-16-42-10 41 44q23 27 31 49l-17-12v19q-13 1-36-15-27-18-36-21l-54-9-55-6-202-52-99-37q-62-19-104-10l-147 36-85 9-83 12 15-16-81-14q9-27-1-59-11-32-33-41-25-10-70-14l-71-3-133-11 2-2-62 7q-39 11-65 28l6-11 22-24 18-30q15-6 29-20l-29-1q-3-16 9-39l-22-1q7-10 25-16l27-13-3 3q90 0 151-33l39-20-3-59 39-2V854L46 791l2-54L646 281l957 112m-6 301-179-92 37 511 160 12-18-431M1335 591 882 672l4 464 482-38-33-507M852 448l-6 161 390-79-61-45-323-37M818 616V497l-51-12L452 694l366-78" fill="#fff"/></svg>