<?xml version="1.1" encoding="UTF-8"?><svg xmlns="http://www.w3.org/2000/svg" xmlns:xlink="http://www.w3.org/1999/xlink" version="2.0" width="100pt" height="100pt" viewBox="0 0 2000 2000" clip-rule="evenodd" fill-rule="evenodd" preserveAspectRatio="none"><path d="M945 470q68-61 90-170 13-64 15-181 1 128 15 195 22 110 91 168 124 107 571 115l-346 17q-155 21-224 90-68 68-90 223-15 105-17 347-2-242-17-347-21-155-90-223-68-69-223-90L374 597q439-9 571-127" fill="#fff"/><path d="M1143 698q-43-42-104-43 17 53 57 92 40 39 93 54-2-60-46-103m-256-3q36-49 95-67l-3-40q0-113 80-193 79-80 192-80 113 0 193 80 80 80 80 193 0 113-80 192-80 80-193 80l-34-2q-17 60-66 98-51 39-115 39-77 0-132-55-55-55-55-132 0-63 38-113m102-33q-46 15-76 55-30 41-30 91 0 63 45 108 45 45 108 45 52 0 93-31 40-30 54-79-70-18-122-69-52-50-72-120m40-74 2 33 5-1q78 0 133 55 55 55 55 133v1l27 1q92 0 158-65 65-65 65-157 0-92-65-158-66-65-158-65-92 0-157 65-65 66-65 158" fill="#fff" fill-opacity=".8"/><path d="M914 300q55 55 55 133 0 77-55 132-55 55-133 55-77 0-132-55-55-55-55-132 0-78 55-133 55-55 132-55 78 0 133 55M781 280q-63 0-108 45-45 44-45 108 0 63 45 108 45 45 108 45 64 0 108-45 45-45 45-108 0-64-45-108-44-45-108-45" fill="#fff" fill-opacity=".8"/><path d="M1656 2000H1418l-26-58q-56-164-115-542l-48-345 270 348 343 456q20 28 34 74-88 67-220 67" fill="#fff" fill-opacity=".8"/><path d="M428 975 697 787 415 1152Q116 1536 29 1630L2 1660V1292q130-107 426-317" fill="#fff"/><path d="M361 1420l195-202-131 263-246 483q-45-24-81-60-51-49-75-117 119-137 338-367" fill="#fff" fill-opacity=".8"/><path d="M971 1098q-10 410-64 589-44 146-142 313H574q-10-339 20-423 40-114 177-428Q918 811 970 724l1 374" fill="#fff"/><path d="M1063 1204l78 277q82 317 105 519H937q26-210 62-444 41-273 64-352" fill="#fff"/><path d="M1244 664l270 178q301 196 453 285l35 24v340l-185-177q-142-137-372-407L1244 664" fill="#fff"/><path d="M1794 917l-86-75 294 128v120L1794 917" fill="#fff" fill-opacity=".8"/></svg>