<?xml version="1.1" encoding="UTF-8"?><svg xmlns="http://www.w3.org/2000/svg" xmlns:xlink="http://www.w3.org/1999/xlink" version="2.0" width="100pt" height="100pt" viewBox="0 0 2000 2000" clip-rule="evenodd" fill-rule="evenodd" preserveAspectRatio="none"><path d="M593 1495l-69 95-96 125q-35 40-215 155 115-195 145-230 19-22 129-86l106-59" fill="#fff"/><path d="M500 1353q-137 74-171 88-34 14-183 32l70-46q73-47 92-55l107-14 85-5" fill="#fff"/><path d="M1386 1495l106 59q110 64 129 86 30 35 145 230-180-115-215-155l-96-125-69-95" fill="#fff"/><path d="M1552 1392l-73-39 85 5 108 14 161 101q-148-18-182-32l-99-49" fill="#fff"/><path d="M1098 1211l251-36-251-35 153-202-203 153-35-252-35 252L776 938l152 202-251 35 251 36-152 202 202-153 35 251 35-251 203 153-153-202m446-833-12-28 41-45q25-27 50-37l75 58 76 64q15 18 32 57l31 71 62 130q29 68 48 148l28 79q20 51 17 71-3 21-46 54l-68 41-113 58q-74 35-123 43l-88-3-94-2q-81 111-138 309-10 35-21 97l-20 96-16 66q-5 36 9 68l17 43 9 48q4 69 33 136H634l33-84q21-45 49-73l10-45-5-71-8-70v-87q0-53-9-87l-18-41-19-41q-27-102-44-142-28-68-74-108-31 0-94 15l-97 12q-109-8-210-49-101-42-144-99v-11l7-32 1-32Q70 758 142 606q88-183 184-275 55 23 100 59-9 16 1 31 13 18 13 29l-70 46q-41 30-85 31-43 59-54 174-8 77-1 218l107-20q64-9 103 15 66-34 182-55l-7-1 73-3q32 7 43 27-18 4-23 14 19-16 98-35 67-16 80-47 6-14 2-48l-11-52-10-9-13-14-16-36q-7-15-20-23-33-91-41-163-11-101 32-142l24-6 30-12-30-4-15-10q7-9 36-5l41 5q-15-10-23-23l19 12 18 11q6-41 63-50 58-9 112 22 50 29 75 78 28 54 27 137-1 55-18 145-34 14-48 76l-20 93q18 33 77 56 32 13 91 30l-10-5q-5-4-3-13 47-20 72-26 48-12 79 1 68 7 143 41 34-26 98-21l118 10q-1-177-6-226-11-131-54-189-44-3-93-18l-75-27 7-31" fill="#fff"/></svg>