<?xml version="1.1" encoding="UTF-8"?><svg xmlns="http://www.w3.org/2000/svg" xmlns:xlink="http://www.w3.org/1999/xlink" version="2.0" width="100pt" height="100pt" viewBox="0 0 2000 2000" clip-rule="evenodd" fill-rule="evenodd" preserveAspectRatio="none"><path d="M1452 1028l-2-86q-3-25-27-37-66-34-97 35l-2 39-10 95q-17 112 21 159 25 31 42 36 23 5 39-31 42-87 36-210M1227 667q-44 25-52 59-22 102-18 199 2 53 23 98 22 48 46 44 54-10 71-164l13-136q2-57-17-91-19-36-66-9M850 992q-56 18-122 82-78 75-122 173-40 89-9 183 16 48 39 77 32 76 100 73 54-3 109-47 52-42 114-59 76-21 139 6 84 54 120 71 59 27 102-40 45-69 24-145l-59-141q-29-71-93-123-57-47-87-39-14 4-117-39-102-44-138-32M601 817l-23 89q-19 101 0 160 22 65 65 49 39-16 58-74 19-56 21-134 1-83-21-108-23-28-49-24-27 4-51 42M995 608q-15 38-20 88-5 62-4 204l4 33q7 35 24 44 26 13 55 11 35-2 47-29 14-33 23-160 8-131-4-176-11-44-38-63-24-16-45-6-25 12-42 54M785 691l-6 92-9 115q0 46 19 58 25 15 64 10 43-5 53-33 13-35 19-141 7-113-8-137-23-37-61-50-47-16-65 41l-6 45M915 287l24-19-29 103q-18 65 6 146 37 54 34 86 34-126 77-150l10-86q9-59-4-112l-14-40-1-16q2-10 19 17 63 101 56 240 24 18 41 54 26 50 48 68l10 8q12 3 23-22-2-50 8-106 8-46-1-91l-10-35q-1-8 1-12 4-8 16 13 16 30 34 91 19 70 22 122v23l22 23q24 27 35 122l7 90q10-9 26-11l5-57 6-59q1-34-5-61l-7-19q-8-24 12-7 21 16 39 65 32 87 19 168l30 35q31 45 49 94 15 40 17 68 5 97-10 174-13 68-37 97-18 23-54 31l-32 4 14 31q13 44 2 107-13 82-56 138-48 62-112 59-22-1-120-49-85-41-150-23-62 18-170 62-92 27-166-11-60-31-98-126-37-94-42-229-2-41 30-93l33-43q-30-14-56-46-52-64-30-156 63-250 138-258-2-19 7-53l25-78q19-59 47-93l23-23q-19 34-26 112L690 673l-5 29 45 16q0-62 32-122 30-53 71-81-7-41 35-151 19-49 47-77" fill="#fff"/><path d="M205 1971q-42-15-77-41L165 499l40 1472" fill="#fff" fill-opacity=".8"/><path d="M1631 1996h-96l40-1864 56 1864" fill="#fff" fill-opacity=".8"/><path d="M1419 1292l37-2 31 706h-90l22-704" fill="#fff" fill-opacity=".8"/><path d="M592 1996H505L523 617l69 1379" fill="#fff" fill-opacity=".8"/><path d="M650 1610q14 9 32 8 18 0 31-10l19 388H645l5-386" fill="#fff" fill-opacity=".8"/><path d="M790 1584q35 19 61-4l21 416H785l5-412" fill="#fff" fill-opacity=".8"/><path d="M1014 1523l14-8 24 481H965l6-471 43-2" fill="#fff" fill-opacity=".8"/><path d="M1150 1591q15 11 33 6 17-4 28-18l21 417h-87l5-405" fill="#fff" fill-opacity=".8"/><path d="M1291 1555q10 11 28 13l31-6 22 434h-87l6-441" fill="#fff" fill-opacity=".8"/><path d="M1897 1901l-2 3q-37 36-80 57l18-1344 64 1284" fill="#fff" fill-opacity=".8"/><path d="M255 1986 273 82l68 1913-86-9" fill="#fff" fill-opacity=".8"/><path d="M1763 1980l-82 14 17-1852 65 1838" fill="#fff" fill-opacity=".8"/><path d="M437 1996H362L405 199l32 1797" fill="#fff" fill-opacity=".8"/></svg>