<?xml version="1.1" encoding="UTF-8"?><svg xmlns="http://www.w3.org/2000/svg" xmlns:xlink="http://www.w3.org/1999/xlink" version="2.0" width="100pt" height="100pt" viewBox="0 0 2000 2000" clip-rule="evenodd" fill-rule="evenodd" preserveAspectRatio="none"><path d="M754 1268l173-230-283-39 283-40L754 729 984 902l40-284 39 284 230-173-173 230 284 40-284 39 173 230-230-173-39 285-40-285-230 173" fill="#fff"/><path d="M708 690Q578 820 578 1005q0 185 130 316 131 131 316 131 185 0 315-131 131-131 131-316 0-184-131-315-130-131-315-131-185 0-316 131M498 1005q0-218 154-372 154-154 372-154 218 0 372 154 154 155 154 372 0 218-154 373-154 154-372 154-218 0-372-154-154-155-154-373" fill="#fff" fill-opacity=".8"/><path d="M1024 292q295 0 504 209 209 209 209 504 0 295-209 505-209 209-504 209-295 0-504-209-209-210-209-505 0-295 209-504 209-209 504-209m476 237q-198-197-476-197-132 0-253 49-116 48-209 136 83-69 185-107 104-38 217-38 262 0 447 186 186 185 186 447 0 262-186 448-185 186-447 186-112 0-217-39-101-37-185-106 93 88 209 135 122 50 253 50 278 0 476-197 197-198 197-477 0-278-197-476m-117 57Q1209 412 964 412q-245 0-419 174-174 174-174 419 0 245 174 420 174 174 419 174 245 0 419-174 174-175 174-420 0-245-174-419" fill="#fff" fill-opacity=".8"/><path d="M1076 241h107V359H1076V466H958V359H852V241H958V134h118V241" fill="#fff"/><path d="M327 237H496V392H651V561H496V716H327V561H172V392H327V237" fill="#fff"/><path d="M554 1518H661v117H554v107H436V1635H329V1518H436V1411H554v107" fill="#fff"/><path d="M1509 1194h180v164h164v180H1689v164H1509V1538H1345V1358h164V1194" fill="#fff"/><path d="M1769 528h104V642H1769V746H1655V642H1552V528h103V424h114V528" fill="#fff"/></svg>