<?xml version="1.1" encoding="UTF-8"?><svg xmlns="http://www.w3.org/2000/svg" xmlns:xlink="http://www.w3.org/1999/xlink" version="2.0" width="100pt" height="100pt" viewBox="0 0 2000 2000" clip-rule="evenodd" fill-rule="evenodd" preserveAspectRatio="none"><path d="M1194 1134l42 18 11 20 13 19 19 10q12 4 19 13 8 13 14 44l8 47q10 51 7 102-4 59-24 98l-12-18-17-12q-12 79 40 220 20 52-7 101-16 30-32 15-14-14-19-46-19 5-19 88l8 139H818l-15-80-28-66q-15-38-5-71l13-30 8-31-4-38-4-38q0-15 13-75 10-46-3-71l-28 6-32 3q-41-7-52-27-23-40 23-159l11-34 5-36q3-54 20-64l86-4 87 14 61-1 2-51 1-51q-7-75-3-119l10-10q26-9 39-7l6 46 2 46 10 42 9 42 6 29 7-2-5 3h-2v1l2-1 48-5 45-17 43-2" fill="#fff"/><path d="M917 265l83-133 88 138q98 167 151 309 172 455-169 493 99-45 21-232-24-58-64-124l-34-54-93 172q-76 182 11 233-306-57-139-502 52-139 145-300" fill="#fff"/><path d="M127 992q0-242 124-449Q371 343 575 229 415 353 322 552q-95 205-95 440 0 235 95 440 93 198 253 323-204-115-324-315-124-206-124-448" fill="#fff"/><path d="M1750 543q123 207 123 449 0 242-123 448-120 201-325 315 160-125 253-323 95-205 95-440 0-235-95-440-93-199-253-323 204 114 325 314" fill="#fff"/></svg>