<?xml version="1.1" encoding="UTF-8"?><svg xmlns="http://www.w3.org/2000/svg" xmlns:xlink="http://www.w3.org/1999/xlink" version="2.0" width="100pt" height="100pt" viewBox="0 0 2000 2000" clip-rule="evenodd" fill-rule="evenodd" preserveAspectRatio="none"><path d="M762 808l87-69 61-69q30-28 97-16 106 20 233 191-4 77 2 245-2 141-44 199l136 4 138-15q21-5 68-33 45-26 70-30l168-26q100-17 170-38l52-15v294l-148 66q-82 40-136 78-43-7-75 9l-52 33h-95q-57 40-75 155-11 66-21 205l-3 16H529q-6-138 34-207L369 1625q-118-90-260-93-32-38-109-63V1145l45 17 37 22q23 16 37 20 79 24 217 37l217 26 97 35q55 20 93 8 3-50-26-193-28-137-16-230 19-43 61-79" fill="#fff"/><path d="M1276 283q66 118 90 202 9 31 7 83l-7 84q-6 71-17 107l-21 42q-17 30-17 38l-8-107q-11-45-65-72-32-17-58-41l-70-65q-43-31-101-32-70-2-129 15-74 21-107 67-63 86-116 137-29 29-47 65-23 45-6 71-13-19-17-51l-6-61q-17-87-43-145-57-122-57-203l92 101q98 111 107 76 14-48-38-139-55-98-50-150l7-122q-1-58-22-113 61 52 101 177 47 148 61 170 38 60 39-14 0-67-30-306-6-40 12-89H877q18 187 40 311 28 165 51 152 36-20 50-91 15-70-7-97-46-59-44-134Q979 60 977 8h14l47 122q30 67 68 107 55 59 53 72-8 47-2 77 6 29 50 56 22 14 43 22-19-248-40-292l66 111" fill="#fff" fill-opacity=".8"/></svg>