<?xml version="1.1" encoding="UTF-8"?><svg xmlns="http://www.w3.org/2000/svg" xmlns:xlink="http://www.w3.org/1999/xlink" version="2.0" width="100pt" height="100pt" viewBox="0 0 2000 2000" clip-rule="evenodd" fill-rule="evenodd" preserveAspectRatio="none"><path d="M1375 353l11 46 99-28 99-28q-13-51-90-58-71-7-132 23l13 45M911 442l12 46 12 45 198-57 198-58-11-50q-8-28-21-41l-192 59-196 56m479-237q139-10 256 29 117 39 183 117-64 268-380 404l-95 40-94 27-29-1-27 1q-11 3-21 13l-18 15-36 10-36 9h-19l-20-4q-12 2-26 14l-26 18-46 12q-31 5-45 12L828 651q-54-165-74-280l64-16 66-12 27-13 28-14 63-12 60-12 12-9 11-11q38-21 144-43l161-24" fill="#fff"/><path d="M664 643q-29 37-178 133-74 48-121 124-47 75-55 156-20 221 156 419 139 157 372 272-84-40-48-15 40 26 72 27-185-1-393-165-202-160-256-333-68-221 75-452Q412 607 647 466q76 101 17 177" fill="#fff"/><path d="M1188 1757q-31-13-33-6-2 7 27 8-196-3-376-107-178-101-269-257-96-163-54-316 47-171 259-281 105 58 32 126-41 38-143 105-73 74-63 185 7 95 71 187 80 114 250 211l299 145" fill="#fff"/></svg>