<?xml version="1.1" encoding="UTF-8"?><svg xmlns="http://www.w3.org/2000/svg" xmlns:xlink="http://www.w3.org/1999/xlink" version="2.0" width="100pt" height="100pt" viewBox="0 0 2000 2000" clip-rule="evenodd" fill-rule="evenodd" preserveAspectRatio="none"><path d="M1544 1431l-21 43q64-13 82-87 18-76-62-77-11 14 0 33l16 35q2 24-15 53m7-489V911l-4-29q51-26 83-26 48-1 41 54l31 19q22 10 25 25l-20 40q-12 24-12 48l-86 91q-51 53-42 113 4 25 39 68 31 39 29 68-2 32-35 62-40 38-49 55 27 5 47 43 21 41 41 49 6 14 4 36 34 0 44 20l-5 25q-5 14-3 27 54 26 42 62-5 14-54 74l-32 43q-21 26-40 33l-29 4-27 4q-33 13-56 72H1127q8-21 64-83 46-52 48-93 1-20-14-51-16-34-18-57l-23-3q-14 3-17-5 2-10 11-27l5-25q-4-30-43-51-45-20-61-33l30-51q16-30 14-66 43-16 79-62l57-86 19-5 17-7q43-68 126-174l130-170" fill="#fff"/><path d="M830 734l11 40q21 42 72 57 53 16 109-41l45-59-237 3m36-511q90 29 135 69 43 40 99 115 28 38 42 101l17 117q4 38-14 73l-34 68-10 32-12 32-9 19q-7 19-1 19 10 27 50 93 33 63 26 101-3 15-28 37l-40 35-201 208q-92-35-372-116-294-84-389-100 1-25 22-40l38-24q-8-18-52-70-35-40-40-82 21 16 55 22l73 10 23 8 21 8 542-59 24-27-576 30q-12-70 7-104-22-26-25-83-3-38 4-110 13-125 117-240 71-80 131-114 81-46 205-53 79-4 172 25" fill="#fff"/><path d="M315 1991q-139-9-223-95-92-90-92-247V1145q107-5 946 342-24 25-41 64-12 27-27 80l-11 30q-6 17-5 26 2 25 33 69l47 71q20 38 34 82l22 82H315" fill="#fff"/><path d="M1835 113q30 29 53 106 25 82 5 115-27 43-104 90-44 28-52 87-3 27 4 115 7 76-6 116-18 59-81 88-1-30-12-62-27-21-109-40-72-17-100-55-38-52-61-127-25-82-12-135 2-9 31 17 29 27 35 2 22-91 70-128 33-25 103-36-62 33-95 136-36 110 10 181 14 22 39 42l42 31q-33-72-36-115-5-64 39-118 8-10 103-79 81-58 84-90 7-68-58-119-65-38-61-46l76 3q78 7 93 21" fill="#fff"/></svg>