<?xml version="1.1" encoding="UTF-8"?><svg xmlns="http://www.w3.org/2000/svg" xmlns:xlink="http://www.w3.org/1999/xlink" version="2.0" width="100pt" height="100pt" viewBox="0 0 2000 2000" clip-rule="evenodd" fill-rule="evenodd" preserveAspectRatio="none"><path d="M1544 1431q-19 34-21 43 64-14 82-88 18-75-62-76-11 13 0 33l16 35q2 24-15 53m151-390-86 91q-51 53-42 113 4 25 39 69 31 39 29 68-2 31-35 61-40 37-49 55 27 5 47 43 21 41 41 49 6 14 4 36 34 0 44 20l-5 25q-5 14-3 27 54 26 42 62-5 14-54 74l-32 43q-21 26-40 33l-29 4-27 4q-33 13-56 72H1127q8-21 64-83 46-52 48-93 1-20-14-51-16-34-18-57l-23-3q-14 3-17-5 2-10 11-27l5-25q-4-30-43-51-45-20-61-33l30-50q16-30 14-66 43-17 79-63l57-85 19-5 17-7q43-69 126-175l130-170V910l-4-29q50-26 83-26 48-1 41 54l31 19q22 10 25 25l-20 40q-12 24-12 48" fill="#fff"/><path d="M489 250q82-46 205-52 79-4 172 25 90 28 135 69 42 37 99 114 28 38 42 101l17 118q4 37-14 72l-34 68q-11 45-22 64l-9 19q-7 19-1 19 10 27 50 94 33 63 26 100-3 15-28 37l-40 35-201 209q-90-35-372-117-293-84-389-100 1-24 22-40 12-9 38-24-8-18-52-69-35-41-40-83 21 16 55 22l73 10 23 8 21 8 285-28 257-31 24-27-576 30-4-39q-1-44 11-65-22-25-25-82-3-39 4-110 13-126 117-241 71-80 131-114m578 480-237 3 11 40q21 42 72 57 53 16 109-41 28-28 45-59" fill="#fff"/><path d="M0 1648V1144q107-5 946 342-24 25-41 64-11 27-27 80l-11 30q-6 18-5 26 2 25 33 69l47 71q20 38 34 83l22 81H315q-136-7-223-94-92-92-92-248" fill="#fff"/><path d="M1677 193q52-7 79 8 23 14 50 59l26 44q7 21-8 47l-39 41-48 31q-42 27-48 83-3 26 4 109 13 150-81 195-2-42-26-99l-44-96q-47-114 14-192 18-22 56-48l62-43 26-24 6-30q0-19-10-44l-19-41" fill="#fff"/></svg>