<?xml version="1.1" encoding="UTF-8"?><svg xmlns="http://www.w3.org/2000/svg" xmlns:xlink="http://www.w3.org/1999/xlink" version="2.0" width="100pt" height="100pt" viewBox="0 0 2000 2000" clip-rule="evenodd" fill-rule="evenodd" preserveAspectRatio="none"><path d="M620 314V254q31 8 53 31 23 22 30 54H635v50h67q-7 31-30 55-23 22-55 30V414H568v60q-32-7-56-31-23-24-30-56h65V337H483q8-32 31-55 24-23 56-29v61h50" fill="#fff"/><path d="M459 721q39 3 62-27l36-55q-3-59-88-71-80-13-128 21-3 23 9 62 10 38 8 58 12 4 27 0l26-5q10 1 25 9l23 8m201 91q21-36-8-76l-47-65H586l-31 60q-21 35-20 71 15 10 41 17 15-2 20-25 7-32 9-35 9 55 55 53M844 690l2-47-2-47q-46-15-79-19-33-3-81 16-48 20-46 34 6 38 42 72 30 28 49 31 32 7 66-9l49-31M701 257q-34-35-81-44V173q125 18 181 45 114 54 137 177 23 139 12 187l-40 85q-26 53-18 107l8 27q5 22-8 40-14 20-52 21l-65 7q-8 3-17 16l-17 20-17 8q-12 4-18 9l-4 24-4 24q-13 0-18-15-6-16-15-16-14-1-16 14l-1 31-22 3q-6 0-4-13 1-13-7-11-12 2-16 13-3 10-13 8-10-1-13-9l-11-19q-10-2-19 7-9 9-22 5-7-7-4-37 3-26-8-31-7 5-8 27-2 19-16 21-14 2-20-13l-13-27q-6-1-5 9 1 10-7 7l-27-49q-25-41-48-32-28 11-51 0-21-11-16-22 23-49-38-174-41-86-36-178 4-90 53-172 88-68 109-79 72-39 184-44v39q-49 8-84 42-35 34-44 82H395v50h47q8 49 42 84 35 35 84 43v45h49V514q48-8 83-43 35-34 43-82h44V339H743q-8-48-42-82" fill="#fff"/><path d="M1307 337q8-32 31-55 24-23 56-29v61h49V254q31 7 54 31 22 22 30 54h-68v50h67q-7 32-30 55-23 23-55 30V414h-50v60q-32-8-55-31-23-24-30-56h65V337h-64" fill="#fff"/><path d="M1668 690l2-47-2-47q-46-15-79-19-33-3-81 16-48 20-46 34 6 38 42 72 30 28 49 31 32 7 66-9l49-31m-385 31q39 3 62-27l36-55q-3-59-88-71-80-13-128 21-3 23 9 62 10 38 8 58 12 4 27 0l26-5q9 1 24 9l24 8m127-50-31 60q-21 35-20 71 14 10 41 17 15-2 19-25l10-35q9 55 55 53 21-36-8-76l-47-65h-19m-16-458q-49 8-84 42-35 34-44 82h-48v50h48q8 49 42 84 35 35 83 43v45h50V514q48-8 83-43 35-34 42-82h45V339h-44q-8-48-42-82-34-35-82-44V173q126 18 182 45 114 54 137 177 23 139 12 187l-40 85q-26 53-18 107l8 27q5 22-8 40-14 20-52 21l-65 7q-9 3-17 16l-17 20-18 8-18 9-3 24-4 24q-13 0-18-15-6-16-15-16-14-1-16 14l-1 31-22 3q-6 0-4-13 1-13-8-11-12 2-15 13-3 10-13 8-10-1-13-9l-11-19q-10-2-19 7l-22 5q-7-7-4-37 3-26-8-31-7 5-9 27-1 19-15 21-14 2-21-13l-13-27q-5-1-4 9 1 10-8 7l-26-49q-25-41-48-32-28 11-51 0-21-11-16-22 22-51-38-174-41-86-36-178 4-90 53-172l109-79q72-39 184-44v39" fill="#fff"/><path d="M983 837v89h67V838q44 11 77 44 32 33 41 78h-97v66h97q-11 45-43 78-33 33-78 43v-87H980v87q-46-11-79-44-33-34-43-80h95V957H860q11-46 44-78 33-33 79-42" fill="#fff"/><path d="M677 1294q-4 31 11 83 15 52 12 78l16 3 24-5 26-5 4 1 33 11 31 11 12 1q45 0 74-39l46-71q-3-49-53-76-44-23-110-23-81 0-126 31m416 197-63-87h-26l-41 80q-27 48-26 96 20 15 55 23 20-3 26-33l12-48q6 34 19 50 17 21 49 21h6q28-49-11-102m37-188q-58 24-55 43 8 50 56 95 40 38 66 43l25 2q35 0 72-21l57-36 2-61-2-64q-61-21-106-26h-10q-47 0-105 25M737 796q96-51 246-58v59q-62 10-107 54-46 44-57 106H748v66h71q10 63 54 108 45 45 107 56v67h67v-67q62-10 106-55 45-44 55-106h66V960h-66q-10-61-53-106-44-45-105-56V737q170 25 243 60 153 72 183 238l17 121q8 91-1 129l-52 114q-36 71-25 143l11 36q6 29-11 53-18 27-70 29l-87 10q-11 4-22 21l-23 27-24 11q-15 5-24 12l-5 31-5 33q-17 0-24-21-8-20-21-21h-1q-18 0-20 20l-1 41h-7l-22 3q-7 0-6-16 2-16-6-16h-4q-15 3-20 16l-13 13h-6q-12-2-17-13l-15-25-5-1q-10 0-19 10-9 9-18 9l-12-2q-9-10-5-49 4-35-11-41-9 6-11 35-2 26-21 29h-6q-15 0-23-20l-16-35h-2q-5 0-4 12 1 12-5 12l-5-1-32-60q-28-51-56-51l-12 2-34 6q-26 0-44-13-16-12-12-22 29-67-51-235-56-114-49-237 6-121 71-231 115-90 147-107" fill="#fff"/></svg>