<?xml version="1.1" encoding="UTF-8"?><svg xmlns="http://www.w3.org/2000/svg" xmlns:xlink="http://www.w3.org/1999/xlink" version="2.0" width="100pt" height="100pt" viewBox="0 0 2000 2000" clip-rule="evenodd" fill-rule="evenodd" preserveAspectRatio="none"><path d="M799 544q14-61 60-105 46-44 107-57V501h93V384q60 15 104 60 43 44 56 104H1088v94h131q-14 61-59 105-44 44-105 57V689H962V804q-62-13-107-59-44-45-58-107H923V544H799" fill="#fff"/><path d="M1070 1233q-29-35-38-62H996l-58 113q-38 66-37 134 28 20 77 32 28-5 37-46 13-60 17-67 9 49 29 72 25 30 74 27 39-69-15-143l-50-60m412-26q6-34 2-87-4-62-2-89-94-31-149-36-61-6-152 31-90 36-86 64 11 70 79 134 55 52 92 59 60 12 123-18l93-58M537 1018q-5 44 16 116 20 73 16 109l49-1 49-8q19 1 47 16 28 14 43 15 74 6 117-49l68-104q-6-110-166-134-149-23-239 40M966 314q-90 14-155 77-65 64-81 153H637v94h92q14 90 78 155 65 65 155 80v88h93V873q89-14 154-78 64-64 79-153h86V548h-86q-14-89-77-153-64-64-152-80V236q239 36 341 84 214 101 257 333 15 77 24 171 11 128-1 180-5 20-74 160-49 100-34 200l15 51q8 42-15 75-26 37-98 41l-123 13q-15 6-31 30-18 28-32 38-10 8-33 14-21 7-34 17-5 13-7 45l-7 45q-25 1-34-28-11-29-29-30-26-1-29 26l-2 59-41 5q-10 0-8-25 2-24-14-20-21 4-28 25-6 18-26 15-18-2-25-18l-20-36q-18-3-35 14-17 16-42 9-12-13-6-68 5-49-16-58-13 9-16 50-3 36-29 40-27 4-39-25l-24-52q-11-2-9 18 1 19-14 14l-49-94q-46-76-90-59-52 20-96-2-39-19-30-39 41-92-72-328-78-161-69-334 9-169 100-323Q579 341 620 319q135-72 346-82v77" fill="#fff"/></svg>