<?xml version="1.1" encoding="UTF-8"?><svg xmlns="http://www.w3.org/2000/svg" xmlns:xlink="http://www.w3.org/1999/xlink" version="2.0" width="100pt" height="100pt" viewBox="0 0 2000 2000" clip-rule="evenodd" fill-rule="evenodd" preserveAspectRatio="none"><path d="M1519 214q51 22 55 78l-1 44-3 47-22 35q-15 20-11 39-66 7-96 59 31 35 28 107-4 67-30 109l130-83q108-78 133-123l37-1 38 2q16-4 31-15l25-20q2-11-8-33-6-14 9-20 8-4 27 11l25 25v3q-11 21-41 43-38 26-48 38l7 11q5 5 0 10-92 64-195 143 2 19-4 49 12 9 50 11 40 3 52 11l-2 39-9 32-64-6-56-13q-19 22-39 31l-64 7q-6 5-7 26l-4 30-17 2q-9 1-15 8-42-34-64 13-7 39 1 56l23 40 35 100 51 134q-16 60 13 211 26 141 51 181l28 29 28 25q26-3 46 12 30 22 35 24-12 50-90 55l-144-1-28-43q-20-37-20-46l-36-196-35-157q-34-133-52-149-27-24-56 5l-33 47q-21 30-90 81-66 49-84 52-31 5-108 2-85-4-121-1l-159 16q-23 7-53 54-27 42-64 44-2-26 2-60l6-57 34-78q20-49 52-62l95-20 104 3 101 9q67-5 135-108 33-49 36-74l-1-52q-5-31-2-50 8-44 26-77l21-23q15-13 18-26l5-57-4-60q-4-13-25-31-21-18-24-29-9-41 67-131 69-82 105-97l60-12q35-7 46-33-24-30-6-123 15-10 27-34l20-40q67-23 117-2" fill="#fff"/><path d="M1249 277l-84 86H319V277h930" fill="#fff"/><path d="M1034 561l-84 86H104V561h930" fill="#fff"/><path d="M1032 845l-84 86H102V845h930" fill="#fff"/></svg>