<?xml version="1.1" encoding="UTF-8"?><svg xmlns="http://www.w3.org/2000/svg" xmlns:xlink="http://www.w3.org/1999/xlink" version="2.0" width="100pt" height="100pt" viewBox="0 0 2000 2000" clip-rule="evenodd" fill-rule="evenodd" preserveAspectRatio="none"><path d="M1387 263l-23-2q-6 2-24 15-27 16-27 48 0 17 47 26l48 1q23-4 24-18 3-55-45-70M1256 133h-4l80 4 15 5q-6 19-33 46 21-17 51-29l5-22h8l-7-1v-1l8 1q9-20 3-60l-4 13-3 14h-4l-5 8-4 1-3 6-12 4-28-26q-30-18-63 30v7m239 1618 77-17 68-17h1l32-9-172-5-226-3-62-4-53-22q-75-30-155-40h-2l-125-39-3 16-15-6 7 9 1 9-3 5 15 4 8 12 30 18-69-9v5l2 20-14 7 19 6 15 19q15 15 116 32l212 25 175 41 169 43 89 17q-25-7-55-21l100 19-277-101 95-14m201-475 21-12-414 110-431-105v13H862l11 4 12 19q22 18 287 104l-293 79 202-22-182 33-7 2q103-3 191-36l5-1 184-23 36 11q61 18 235 19l163-3-44-11-86-24-143-30q78-32 223-106l54-21h-14m42-321 11-10-841 73 26 47h38l19 5 52-4 269-3 220-38 168-34 35-33 5-3h-2m-23-170 26-12-160 34-238 46-422 85 5 6h-4l17 14h-3l-3 3q5 10 28 6l14 2 173-28 233-40q88-12 306-105l45-13-17 2M1455 575l40-34-77 14-77 11-26-10-27-12-29-8q-16-5-26-14l1-6h-2l-2 2q3 14 24 36 19 20 21 36l66 3 65 5q21 0 49-23M1544 0q13 27 19 62 5 28 20 60l29 56-27 4h-29q-3 12 2 35l5 36q-17 2-24-8l-1 31-22-7-19 58q-18 39-21 58l-10 97 288 179q29 22 38 47 43 2 55 16 10 13 0 28l-20 28-33 4-12 88q60 2 54 43-6 38-66 38l-17 206 73-9q-3 15-3 43l-3 43-35 13-36 12q19 61 7 127l-2 7q47 15 56 28 7 10 0 30l-13 26 1 3q-26 4-58-19l-37 168 36-3q51-2 45 71l-95 1-8 54 4 27q67 23 74 41l-3 26q-7 18-14 22-10 6-43 0l14 79-8 48-50 3H848l-40-60q-19-26-15-70l20-99q10-47 16-169l-39-8-36-12q-2-33 3-48l73 6-2-104q-4-21-2-69 1-51 9-96l-47-10q-26-9-23-25 7-5 10-18l5-22 24-14 30-1 24 8q35-98 40-162-33-2-41-10-9-7-7-17l4-22 6-8q19-8 38-11l-2-39-2 18q-25 4-42-15-16-18-10-42 9-29 50-38-8-140 13-186 18-40 134-88l130-46q52-20 60-43V416l-3-51-29-9 16-34q9-35-30-38l16-19 15-20q-28 2-45-10 10-23 24-33l-50 2V191q24-23 38-75 18-63 29-82l21-34h313m-86 126-3 5-7-3-9-9-11-10 3 34h-7l7 1h2l2 1q5 49 27 58l-10-24q-7-15-5-24l21-10 13-1 45 2-22-20q-18-10-29-9l-17 9" fill="#fff"/><path d="M481 1002l-221 27-260 1V972l274-21 246 10 114 14-153 27" fill="#fff"/><path d="M257 1291 0 1288v-56l276-23 205 8 96 12-131 31-189 31" fill="#fff"/><path d="M494 1128 0 1125v-22l506-40 205 8 96 12-128 22-185 23" fill="#fff"/><path d="M699 723q28 5 44 24 18 21 5 50-7 15-38 26l-50 10h12q-26 6-41-13-13-17-10-42 7-67 78-55" fill="#fff"/><path d="M730 609q25-12 41 3 16 14 12 40l-19 6-20-25q-16-12-14-24" fill="#fff"/><path d="M729 1368q15 12 14 25-28 21-47 26-25 6-56-7-6-25 14-39l25 20 50-25" fill="#fff"/><path d="M509 1418q34 18 50 49 19 37 0 71-18 32-64 20l-70-26 7-66q7-36 47-33l30-15" fill="#fff"/><path d="M378 829q-7-16-22-22l-28-15-26-28-24-30q-30-34-127-111 36 4 96 45l92 63q16 9 79 30 51 18 74 36 16 12 25 32l13 44-43 1-43-11 10 5-30 20-32-24q-15-15-14-35" fill="#fff"/><path d="M599 1348q-18 10-56 16l-59 9-67 14q-41 9-67 17l-76 29-81 15q32-20 152-64 55-23 89-35 62-22 85-11v-15l37-24q22-17 38-21l50-3 50 4-48 37-47 32" fill="#fff"/></svg>