<?xml version="1.1" encoding="UTF-8"?><svg xmlns="http://www.w3.org/2000/svg" xmlns:xlink="http://www.w3.org/1999/xlink" version="2.0" width="100pt" height="100pt" viewBox="0 0 2000 2000" clip-rule="evenodd" fill-rule="evenodd" preserveAspectRatio="none"><path d="M459 1499q-32-1-45-15l-11-5-1-4-23-15q-15-13-16-23l-6-4-7 19 28 45 12 27q7 16 20 21l38 12 16 9 17 5 33-5 33-6 88-9 66-11 65-14 22-3 18-7 25-22 25-35 31-37 16-15-54 35q-16 10-39 13l-45 2-110 9-72 14-72 15-52 4M947 648l-26 22 199 100h77l49-112-79-11-98-11-122 12M374 786l-35 15-103 36-34 8-20-6-20-2 1 3q-5-8-17-6l-7 10v30q3 12 17 22l28 21 31 2h37 35l29-10 23-16 62-25 60-24 72-35 31-17q15-19 25-24l41-5 42 4 35-2q21-6 28-13l6-12 6-12 7-6q7-36 24-43l29-5 31-2-41-16-44-10q2 27-15 43l-40 24-11 5-13 1-28-5H587l-13-21-13-19-8-12 5 12 7 18 6 16-13 10q-23 13-73 30l-73 26q-18 3-38 12M550 534l13 4q2 8 18 18l20 18 19 1 20-3 12-9 11-12q4-4 14-9l13-9 15-24q-9 2-10 3v3l-35 5-31-12-38 4-39 9v2l-12 4 10 7m64-237q38 12 70 34 25 18 29 72l-1 50 13 33-20 71 19-9 47 14 88-27 898 8-14 103-235-3-19 27-48-10-30 55-43 13-40 9-9 119q-2 27-22 67-22 45-46 56l-72-2-47-15-44 15-83 14q-94-4-131 10-13 6-21 35l-14 55q-7 23 13 89l27 81q54 161 53 174-2 14 23 75 25 61 34 63l121 173 166 250H905l-81-101q-51-64-69-98l-24 2 3 55-2 38-5 30q-2 13 6 36l8 38H399q-59-318-58-375l6-81-33-103q-10-25-21-94-12-70-18-143L253 935l-69 18q-61-28-83-52-14-15-16-58-2-35 1-44 30-94 32-137 1-29 29-55 23-21 71-47 35-18 95-10l53 12 17-44-2-78q-4-22 4-46l26-54q16-26 72-42l54-11q35-4 77 10" fill="#fff"/><path d="M1980 1779l-20 45-648 75-100-152 768 32" fill="#fff" fill-opacity=".8"/><path d="M1109 1592l-40-62 931 39v22l-828 96-63-95" fill="#fff" fill-opacity=".8"/><path d="M1021 1451q-15-53-23-96l-17-70 1019 43v9l-979 114" fill="#fff" fill-opacity=".8"/><path d="M968 1228q-23-89-24-155l995 42-971 113" fill="#fff" fill-opacity=".8"/><path d="M784 428q10-70-21-122l926 39L781 451l3-23" fill="#fff" fill-opacity=".8"/><path d="M1895 356q33-42 77-67l24-14 4 67V789l-24-15-33-17-32-18-20-17q-13-10-22-12l26 55 22 55-46-37-41-43-61-64 22 3 22 8 40 8q-18-16-29-45-4-11-1-13h17 33l62-7 31-7 32-4q-13-1-41-22l-37-21q-22-12-42-16l-20-2-21-6 28-53 35-37q-21 9-62 33l-61 20 7-15 3-21q-19 13-56 30l9-18 8-16v-5q3-8 12-19l14-19 33-45 78-90q2 18-7 46l-13 44q9-4 30-31" fill="#fff" fill-opacity=".8"/></svg>