<?xml version="1.1" encoding="UTF-8"?><svg xmlns="http://www.w3.org/2000/svg" xmlns:xlink="http://www.w3.org/1999/xlink" version="2.0" width="100pt" height="100pt" viewBox="0 0 2000 2000" clip-rule="evenodd" fill-rule="evenodd" preserveAspectRatio="none"><path d="M604 434l-71-50-33-20 7-19 116 19q22 8 38 40l12 30-4 930-14-450q-20-456-51-480" fill="#fff"/><path d="M631 1681l-62-4-59 7 121-3m2-113q4-35-1-63-3-17-22-17l-77 4-78 9q-16 1-21 17-5 15 5 24l-2 15q1 17 13 70 4 15 23 17l64 4 1 12-59 4 68 8 70-5q-14-8-34-8l-42 1v-12h3l21 2 23-7 20 4q12-3 14-16l11-63M306 1420l-6 32H644l-3-23-335-9M359 339l103-7q-11 5-4 16 7 10-6 15 2 5 16 10 12 4 11 14l-12-1-8-6 3 15q-22 5-37 23-16 18-18 44L379 666q-19 124-18 204 0 70 20 210 4 43 0 117l-3 116q1 30 20 48 18 17 44 19l2 4h9l3-4h4l-1 5 74-1 60 3 23 3 25-4q18-5 27 12l1-10 1 21q5 73 2 261 1 4 12 4 10 1 9 7-16 16-55 15l-66-1q-54 5-155 3l-162-3q-3-7-14-7 1-9 10-13l18-5q-2-781 3-1300 31-21 87-31" fill="#fff"/><path d="M1153 434l-71-50-34-20 8-19q81 8 116 19 22 8 38 40l12 30-4 930-14-450q-20-456-51-480" fill="#fff"/><path d="M1118 1677l-59 7 121-3-62-4M854 1420l-5 32h344l-3-23-336-9m132 137q3 30 13 70 4 15 22 17l64 4 2 12-28 3-31 1 68 8 70-5-34-8-42 1v-12h3l21 2 23-7 20 4q12-3 14-16l11-63q4-35-1-63-3-17-23-17l-77 4-77 9q-16 1-21 17-5 15 5 24l-2 15M821 370q30-21 87-31l103-7q-11 5-4 16 7 10-6 15l16 10q12 4 11 14l-12-1-8-6 3 15q-22 5-37 23-16 18-18 44L928 666q-20 125-19 204 1 41 9 105l12 105q4 43 0 117l-3 116q1 30 20 48 18 17 44 19l1 4h10l2-4h4v5l74-1 60 3 22 3 26-4q18-5 27 12l1-10 1 21 2 261q1 4 12 4 10 1 9 7-16 16-55 15l-66-1q-54 5-156 3l-161-3q-3-7-14-7 1-9 10-13l18-5q-2-781 3-1300" fill="#fff"/><path d="M1702 434q-32-24-72-50l-33-20 8-19q81 8 116 19 22 8 38 40l12 30-4 930-14-450q-20-456-51-480" fill="#fff"/><path d="M1729 1681l-62-4-59 7 121-3m-194-124q3 30 13 70 4 15 22 17l64 4 2 12-28 3-31 1 68 8 70-5-34-8-42 1v-12h3l20 2q19-7 24-7l20 4q12-3 14-16l11-63q4-35-1-63-3-17-23-17l-77 4-77 9q-16 1-21 17-5 15 5 24l-2 15m-132-137-5 32h344l-3-23-336-9M1566 373q12 4 11 14l-13-1-8-6 4 15q-22 5-37 23-16 18-18 44l-28 204q-20 125-19 204 1 41 9 105l12 105q4 43 0 117l-3 116q1 30 20 48 18 17 44 19l1 4h10l2-4h4v5l74-1 60 3 22 3 26-4 15 2 11 10 2-10 1 21 2 261q1 4 12 4 10 1 9 7-16 16-55 15l-66-1q-54 5-156 3l-161-3q-3-7-14-7 1-9 10-13l18-5q-2-781 3-1300 30-21 87-31l103-7q-11 5-4 16 6 10-7 15l17 10" fill="#fff"/></svg>