<?xml version="1.1" encoding="UTF-8"?><svg xmlns="http://www.w3.org/2000/svg" xmlns:xlink="http://www.w3.org/1999/xlink" version="2.0" width="100pt" height="100pt" viewBox="0 0 2000 2000" clip-rule="evenodd" fill-rule="evenodd" preserveAspectRatio="none"><path d="M1340 1558v72l-8-37 3-17 5-18m0 113v80q-6-49-1-74l1-6" fill="#fff"/><path d="M1340 1558l2-41q0-96 3-127l9 78q4 51 10 75 18 3 26-46 8 53 16 68 10 1 20 28h576v69q0 99-36 171H1366l-2 2-3-2h-1q-13-7-16-29l-2-39-2-14v-80l2-36-2-5v-72m662-498v240H1360V1073v-22l2-21V977l-5-97 11 37 8 38 5-8 4-9q9 9 10 30 2 22 7 29 5 7 23 10l27-3q7 17 11 56h539m0-513V787H1360l-1-184q-7-6-4-35l4-41-8-35q-1-8 1-17l3-17 5-76 5-38 4 43q0 40 15 46l8-9 5 46 13 37q14-24 14-82l7 61q1 42 7 61h564M625 1342l8 115q3 74 11 113 7 35-1 94-9 67-7 94l11 2v3h5q11-36 10-63l3 34-3 34-2 30q-5 13-21 17l-1 3-8 5-3 9v1h-1l-2 4-2-4H40Q2 1763 2 1662v-69H595l4-11q-4-26-2-40l10-36q9-29 12-81l6-83m9-462 1 53q0 68 7 88l3-4v56l-1 55 4 49v49q-12 4-14 33l-1 41h-4v3H618v-3H2V1060H586l4-5 5-25 4-26q10 1 13-11 3-13 10-15l10-114 2 16m1-398 3-4 14 60 7-39 1 138-3 43-1 42q-2 19-1 54l-15 2q-10 1-13 6v3h-1l-1 1v-1H2V547H609l5-35 10-60V394q0-36 8-55l-2 80-2 33q1 20 7 30" fill="#fff" fill-opacity=".8"/><path d="M1364 314l3-2-2 32-1-30" fill="#fff"/><path d="M885 577q0-89 15-239l14-131 18 164q18 173 17 220l-15 972q-49-618-49-986" fill="#fff"/><path d="M1087 595q0-75 13-168l12-79 21 109q22 117 21 156l-30 750-30-566-28 681q-20-345-30-579l-16 968Q984 904 984 784q1-315 7-476l9-215 32 552 13-127 9-55 13 60 21 120-1-48" fill="#fff"/><path d="M770 341q40 10 26 52-14 41-46 49H740q-16-26-12-65 4-45 42-36" fill="#fff"/><path d="M795 267q-31-12-8-32 21-21 48-18v69l-20 1-20-20" fill="#fff"/><path d="M1179 274v3h-2q-38 33-89 35l-5-5q-14-18-13-62 0-36 9-67 8-17 30-25l43 2q26-10 51-15 20 1 37 20 18 21 14 44-3 18-23 31l-37 21-15 18" fill="#fff"/><path d="M1225 502q-45-31 10-65 20-12 35-7 17 5 14 31-21 4-34 26l-25 15" fill="#fff"/><path d="M823 505q40 26 23 61-17 33-58 33H778q-27-25-15-74 12-51 60-20" fill="#fff"/><path d="M776 1000q53-34 70 9l-36 30H785q-15-16-9-39" fill="#fff"/><path d="M1199 818q39-18 73 15l-3 71q-11 38-56 28l-15-30q-14-12-10-40l11-44" fill="#fff"/></svg>