<?xml version="1.1" encoding="UTF-8"?><svg xmlns="http://www.w3.org/2000/svg" xmlns:xlink="http://www.w3.org/1999/xlink" version="2.0" width="100pt" height="100pt" viewBox="0 0 2000 2000" clip-rule="evenodd" fill-rule="evenodd" preserveAspectRatio="none"><path d="M1968 314 1797 495q-181 190-237 240-89 81-200 147 122-168 169-209l439-359" fill="#fff"/><path d="M1282 792l-25 5-15-3q-14-3-21-22-6-18 2-30 7-9 25-14l27-6 21 25q13 16 6 32l-20 13" fill="#fff"/><path d="M1357 707q-4 2-5-3l3-7q15-8 26 7 9 13 6 30l-17-2-13-25" fill="#fff"/><path d="M1560 1084l15-22 22 10q11 7 5 22-4 12-19 15h-28q-6-7-5-14 2-8 10-11" fill="#fff"/><path d="M1161 1522q54 0 68 24 7 13 0 35-8 21-21 30l-38 5q-25-4-29-17-6-14 3-40 9-27 22-27l-5-10" fill="#fff"/><path d="M1407 1531q21 11 6 41-15 28-36 31-30 6-31-26-1-32 19-34l42-12" fill="#fff"/><path d="M1090 1633q15 7 17 17 3 11-8 28l-19 24q-21 25-42 25l-48-12q-24-20 4-57 26-34 53-38l20 2 23 11" fill="#fff"/><path d="M1080 1153q-7 26-19 34l57-13-38-21m161 91q8 17 13 66 25-3 35-46l-51-27 3 7m-41-12 14-7-71-37q2 24-16 65l-22 43 37-32q29-19 58-32m781-665-199 208q-212 220-278 279l-47 40 114 126q68 69 140 102l99-1 89 11q-4 51 28 240 24 142-18 215-10 8-40 14-30 6-39 16h-20q-25-10-19-46 4-25 19-53-52-45-132-164-78-115-136-163-30-25-130-69-15 103 0 160l-22-63q-26-77-45-61-11 9-13 62l-3 70q-10 58-11 108-3-45-32-118-32-84-39-119l-8 12q-10-11-11-24l-15 6-7-12q-24 17-61 78l-19 44q-12 29-23 35l12-76q6-48-10-73l-47 39q-30 25-45 47-49 70-157 170 22-24 49-79l42-86 38-60 23-27 18-27-9 1 20-37-56 32q-43 18-64 15 14-15 36-31l39-28 36-29q25-21 30-34l-20 5h8l-147 13-153 12 130-39 55-20 57-10 13 3q20-6 72-32-214-121-332-253-91-16-166-111-97-124-131-146Q253 767 176 827q90 67 217 218 141 168 209 227 120 22 188 139-177 200-277 277-139 107-198 30l115-130q55-82 33-177-17-72-186-181L38 1084 4 1061V463q66-82 132-151l63-25q-15 19-28 47-14 30-17 53 29-31 107-72 57-38 89-51l-76 11q22-20 69-89 41-59 74-81l-50 17q-30 10-49 23l-50 45q-33 31-54 38l-23 30q-16 18-27 20-3 12-17 20l-1 9-9 1-1 4Q81 274 14 246q18-89 67-145Q165 7 333 8H533l29 27 111 72q67 45 87 86 20 40 24 124 5 92 16 124 11 33 49 81l70 87 95 161q58 100 113 136 34 22 114 45 79 23 113 46l463-386-176 179-246 241 23 21 54-54 509-431" fill="#fff"/></svg>