<?xml version="1.1" encoding="UTF-8"?><svg xmlns="http://www.w3.org/2000/svg" xmlns:xlink="http://www.w3.org/1999/xlink" version="2.0" width="100pt" height="100pt" viewBox="0 0 2000 2000" clip-rule="evenodd" fill-rule="evenodd" preserveAspectRatio="none"><path d="M545 1585 339 1759q-25 21-67 5-43-15-79-58-37-43-45-87-8-45 17-66l206-174q24-21 67-5 43 15 79 58 36 43 44 87 9 45-16 66" fill="#fff"/><path d="M1840 383 1634 558q-25 20-65 8-41-13-73-51-33-39-38-81-6-42 18-62l206-175q25-20 65-8 41 13 73 51 33 39 39 81 6 42-19 62" fill="#fff"/><path d="M217 220q33-30 72-34 38-5 60 19L530 406q22 24 13 62-8 38-42 68-33 30-72 35-38 4-60-20L188 351q-22-24-13-62 8-39 42-69" fill="#fff"/><path d="M1826 1658q-13 42-54 79-40 37-84 46-44 8-66-15l-180-201q-22-24-9-67 14-42 54-79 41-36 85-45 44-9 65 15l181 200q22 24 8 67" fill="#fff"/><path d="M1582 332l-4 26-4 26-31 26-39 21q-27 12-37 23-20 4-50 23-16 10-45 30-69 39-90 47l-60 19-62 17-118 26q-64 9-122 1L787 593q-72-19-123-51l-84-53-45-32-31-18q-22-12-31-13l-8-9 7-8q52 47 158 68l129 30 133 17 134-13 131-22 121-25 117-31q46-11 98-43l89-58" fill="#fff" fill-opacity=".8"/><path d="M946 1041l1-10-109 14q-14 61-115 193l-98 119q121-75 234-126v-4l9-1q69-97 78-185M665 704l73 107q77 119 96 184l115 11q2-44-14-78l-29-68q-79-36-178-123l-82-80 19 47m432 221q-12 47-17 81 78-2 129-22 19-78 86-206l64-112-76 67q-90 74-166 112l-20 80m-21 115q-4 39-1 62 4 33 21 57l44 62q67 29 153 76 43 23 72 41-36-44-74-103-77-116-87-185l-127-18-1 8m-40-10-41-1q-1 46-13 97l-19 21q0 18-22 52 40-14 68-14 31 0 85 18l-8-13q-38-67-47-97-8-27-3-63m-33-148-19-1q12 62 12 125l43 1 4-30 5-56q5-37 17-53l-62 14m671-468q4 22-7 57l-20 53-34 103q-14 41-29 113l-27 114q-29 112-35 238-2 44 3 132 0 46 12 130 13 81 25 115l18 56q13 38 26 47-37-13-63-70-137-79-254-134-201-96-292-96-103 0-369 138-133 68-246 137l173-210q172-227 172-315 0-100-177-372l2 25 13 123q5 73 0 126-7 72-38 220-18 117-62 208l-45 95-29 53q-17 35-17 56l-71 10 44-94 19-54 16-54q49-133 66-217l13-61 9-62 7-120q4-79-2-118L453 671q-32-144-91-187l43 15q20 10 55 21l-13-18-30-75 31 32 82 79 14 4 1 10Q821 798 987 787q144-9 371-178l199-167-131 234q-128 257-119 366 12 143 215 416-22-46-35-91l-33-117q-16-65-22-121-15-159 0-265 18-119 79-222l32-48 34-48 31-48q23-29 47-26l-10-38 29-20" fill="#fff" fill-opacity=".8"/><path d="M897 1522l-293 25q-86 14-124 27-23 7-53 25l-28 19-27 19 23-63 32-17 32-16q14-15 39-28 23-13 45-18l114-36 58-19 60-13 132-10q114-12 270 25 97 22 253 87l51 20q30 12 48 26l41 43q24 31 41 41l-121-57q-57-24-143-39l-147-24q-125-24-303-17" fill="#fff" fill-opacity=".8"/></svg>