<?xml version="1.1" encoding="UTF-8"?><svg xmlns="http://www.w3.org/2000/svg" xmlns:xlink="http://www.w3.org/1999/xlink" version="2.0" width="100pt" height="100pt" viewBox="0 0 2000 2000" clip-rule="evenodd" fill-rule="evenodd" preserveAspectRatio="none"><path d="M1142 1589 907 1744l155-215v-30l100 46q58 25 102 13 42-11 75-41l-302 483h-30l135-411M996 382l-62 36-32-44 94 8m966 462-305 90 220 195-200-20 175 385-270-225 60 725-180-565-135 435 20-355q49-50 89-176 18-59 32-169 13-110 10-172-4-146-14-234-19-157-74-243l-52-102q-34-64-68-82-51-26-107-7l-103 38L862 54l295 250 65-285 80 300L1507 34l-60 345L1783 15l9 3-255 616 415-130-345 295 355 45" fill="#fff" fill-opacity=".8"/><path d="M1273 1015q10-111-7-156-9 17-13 53l-10 54-22 42-28 38-13 22-20 18-41 20-47 16q-18 10-34 36-36 2-87-21-55-26-85-28l-14 6-49 7q26 3 47 14 6 3 40 25l40 31 38 24 20 17 23 13 25 7 23-1q13 1 66 28 41 20 65 6 44-25 62-115l21-156M419 736q-52-49-129-31l-68 71q-12-19-23-69-11-50-8-74 13-102 141-77 89 17 182 75l85 49q43 18 97 15 65-2 90-17l28-28q17-20 30-23l1-12 12-1q21-50 64-86 43-34 93-44l87-31 87 4q27 14 53 65l41 80q43 67 58 190l11 183q2 49-8 135-11 87-25 133-23 74-48 111-34 51-87 65-38 10-94-16-71-34-96-38-38-6-107-77-69-73-105-80l4-5-89-13q-53-10-92 1-29 8-69 40l-67 45q-77 32-173 7-88-23-154-83l75-95q15 29 70 37l87-3q33-5 63-29l51-47q53-49 153-57 33-2 170 3l1-76q-1-52-13-74-49 50-143 34-78-13-138-57L419 736" fill="#fff"/></svg>