<?xml version="1.1" encoding="UTF-8"?><svg xmlns="http://www.w3.org/2000/svg" xmlns:xlink="http://www.w3.org/1999/xlink" version="2.0" width="100pt" height="100pt" viewBox="0 0 2000 2000" clip-rule="evenodd" fill-rule="evenodd" preserveAspectRatio="none"><path d="M1085 863q-35 6-68-26-33-32 14-33l50-30q46 17 29 64l-25 25" fill="#fff"/><path d="M966 959l30 5q8 14 4 24l-32-2q-12-10-2-27" fill="#fff"/><path d="M1182 1020q-3 20-24 10-20-9-35-31-42-64 48-55l20 5 20 10q-5 15-11 54l-18 7" fill="#fff"/><path d="M1485 1105l-27 6 34 13q20 7 30 16l-199 7q10 29 78 66l99 47 96 48q61 29 100 38l-73-6-70-18-109-20q-68-14-96-42l-16 2q35 40 128 114l67 65q54 49 81 59-59-8-127-36l-122-54q26 61 92 136 60 70 127 121l-39-21-44-34-44-35-93-73q-61-48-92-60l-42-52q-27-36-46-41 27 46 39 94-31-22-84-101-50-74-86-93l5-5-7-10-11-10 48-6 1-28 14-2-7-49q20 5 70 40 44 30 71 30-19-25-35-69l-27-72q32 15 78 19l84 2 78 6 76 8" fill="#fff"/><path d="M458 1111l10 47q5 31 13 43-2 8-8 4l-7-11q-7 9-2 41 6 39 2 56l-29-69q-19-35-46-51l2 60q3 30-2 53-1-36-30-72-33-39-38-63-13 29-10 79 2 63-5 101-3 20-3-12 1-53-4-71l-25-34q-21-20-28-41-19 15-18 48 0 45-4 57v98q-3 8-5 3l-3-11 1-75q0-45-8-67-38-14-45-53-15 26-19 75l-4 90v60q-9-22-8-81 0-62-7-84-55-40-52-112-12 11-8 40l8 42q-18-3-15 30 4 48 0 60-7-24-29-61L1 1171l-1 1v-65q265 7 458 4" fill="#fff"/><path d="M859 709l8 23 22 104q13 68-5 197l-20 116-133 5 35 135q6 28-27 107l-35 73-185 7q-8 0-24 43l-14 42H0v-56l286 4q11-7 17-31l13-37q11-3 0 24-15 35-15 44H428l39-74q17-46 14-99h61q31-1 36-15 12 22 8 50l-15 63q36 19 50-10 15-35 17-35 31-1 19 26l-11 26q69-7 77-129 7-122-70-126l-17 17q-9 10-5 28l-27-29q-10-16-18-8-17-29 11-48 35-22 34-42H803q30-27 37-93 6-56-7-117Q467 908 0 910V706l859 3" fill="#fff"/><path d="M1376 851l-54-11 34-6 33-6q-30-12-116-24l84-6 85-4 17-5 176 7 167 8q85-5 198 5v44l-193 15q79-1 193 4v142q-67 9-257 6l-201 5-186-10 31-1-31-6q14-2 9-4-55-3-92-25l28-8 27-8-15-13 100-2 97-5 11-9q-103 8-216-39l237-11q143-7 234-5l-190-12-187-12 40-1-63-3" fill="#fff"/><path d="M1201 406q24-29 51-41l-25 22-26 19" fill="#fff"/><path d="M1480 344l57-22q63-19 186-30l174-22q-41 10-100 39l-109 51-105 35q-63 20-102 41l105-12 106-23-54 20 118 6 118-11 126-1v3q-71 6-180 38l-174 51q-180 45-277 93l132 3 131-2-104 21-103 13 124 17 124 9q-136 0-251 28-39 10-84 37l-77 45 39-68-35 26q-22 15-40 16l6-49q4-27-8-44-25 0-81 31-52 30-87 22l3-16V672q-34-11-118-2 5-19 29-39l35-5q22-24 53-87 32-64 53-88 12-14 40-25l43-16 8-4-6 9 70-3q34-6 62-27-3 9 10 7l27-6 30-9 30-11 56-22" fill="#fff"/></svg>