<?xml version="1.1" encoding="UTF-8"?><svg xmlns="http://www.w3.org/2000/svg" xmlns:xlink="http://www.w3.org/1999/xlink" version="2.0" width="100pt" height="100pt" viewBox="0 0 2000 2000" clip-rule="evenodd" fill-rule="evenodd" preserveAspectRatio="none"><path d="M662 1223q-20 12-9 31 39 69 122 157l32-1q17-16 2-32-76-80-116-148-11-19-31-7m241 94 19 2q8-5-11-7-31-18-65-82-33-62-59-73l54 82q33 51 62 78m-35 44q17-17 3-34l-76-108q-23-34-41-42l1 1q-17-14-33 3-16 17 1 31 29 24 61 70l54 78 30 1m49-216q20 45 50 68l-50-68m-46-38q-8-21-30-15-22 6-15 28 49 134 108 166 20 11 32-10 12-20-8-31l-18-14q-15-29-39-59l-30-65m85 11q-12-31-17-60-2-13-13-16l-21 4q-14 9-11 25l4 19 44 71q25 45 50 67l12 3q22 5 28-17 7-23-15-28-11-1-21-10l-40-58m123-328q27-47 65-75l4-6q-66 28-161 104-60 114-29 216 27 89 111 137 83 46 166 25 91-24 132-121 5 62-66 120l-129 86-219 152q-126 85-227 134l-30-21-41-3q12-41 9-83l-5-83q-6 25-16 5l-17-41-37-5q-20-3-34 9 0-11-13-21-11-8-3-32-18 6-26 48l-15 68q-81 66-261 246l21 41q13 24 31 35 53-20 125-70l122-89 35-30q23-15 41 6-27 8-138 114-105 99-150 98-39-1-62-34-38-54-48-62 5-63 39-101l68-56q-2-21-21-49-23-31-27-46l19-79q219-206 503-501l493-516q-25 81-2 153 21 65 70 94l-9-16q33 22 84 28 60 6 88-22-12 20-48 50l-63 50q41 24 57 72 16 21 26 52l9 51q-1 52-28 94-11 60-55 104-44 45-104 52l-45 31-46 2-46 4q9-31 46-17-5-11-31-15l-40-9-12-32q14 16 28 22 44 20 67 4-79-32-108-141l-41-50q-10 19-2 55 7 33 26 68-28-34-36-52-16-32-9-69l-18 16q5-50 33-99" fill="#fff"/><path d="M3 1601l107-124 106-126q-2 44-45 179-36 115-23 168 14 56 89 82l150 31-216 146q-43-22-79-58-92-93-92-249v-63l11-19q10 6 2 15L3 1601" fill="#fff"/><path d="M1470 230q64 0 109 43 45 44 45 105 0 72-59 116 30-39 30-87 0-61-45-104-46-44-110-44-53 0-95 32 46-61 125-61" fill="#fff"/><path d="M0 1320V933L875 407 0 1320" fill="#fff" fill-opacity=".8"/><path d="M966 1996H375l1195-789-604 789" fill="#fff" fill-opacity=".8"/><path d="M1375 1996H1194l466-463-285 463" fill="#fff" fill-opacity=".8"/><path d="M0 684V664q8-74 0-136v-1L469 313 0 684" fill="#fff" fill-opacity=".8"/></svg>