<?xml version="1.1" encoding="UTF-8"?><svg xmlns="http://www.w3.org/2000/svg" xmlns:xlink="http://www.w3.org/1999/xlink" version="2.0" width="100pt" height="100pt" viewBox="0 0 2000 2000" clip-rule="evenodd" fill-rule="evenodd" preserveAspectRatio="none"><path d="M422 746l-31-3-15 6-12 9q-12 7-31 34 15-6 26 21l41-7-2 16 4 16 10-21 9-16 8-12v-8l-2-9-5-26m123 517q-7-30-34-48-30-20-42-33l-11 11-12 11 16 25-2-9 11 23 12 21 13 43 28 91 31 89 26 93 32 92q19 56 24 94 4 30 21 88l6 46 7 45 8 23q-4-69 1-180 1-35-16-90l-26-93-24-83-20-86-49-173m136-253 1 15-3 5q2 12 14 28l17 27 26 55 34 71-6-21-8-65q-7-90-16-124l-8 36q-2 12-1 37l-22-39q-17-29-28-25M819 813l16 37-38 40-80-17-10 40 96 34 41 64 28-13 95 47-10-94 28-18-16-63 7-56V749L819 813m826-454 33 96-241 85 3 66-218 75 5 24-44 24-32 44-51 29 39 62-10 40 27 35 10 261-27 55-40 67q-17 14-123 40l-168-71v376l44 260-6 69H345q-85 0-155-31l14-97-58-352-98-137-48-21v-44l5 9q5 12 23 21l52 24q5-6 1-15l-5-15 26 2 26-5 32-22 29-19 44-32q15-11 56-33 12-6 40-28l36-26 42-32q46-17 63-34l9-18 6-22 19-36 8-20 36-5h28l27-5 34-24 34-27-1-18-1-19q3-13 22-22-2-11-18-22-12-8-24-11l-11-7-11-1 5 30-32 13q-6 4-6 16l-1 21-5 9-12 1-79 6q-23 0-28 7l-3 8-5 7q-9 6-17-9l-10-23q-1 4 9 44l4 43-12 14-14 12-21 14-17 16q-14 7-41 27l-83 50-25 11q-18 8-20 15-34 17-100 57l-30 23-9 12-37 5-38-1V1038l49-12q13-3 68-113Q59 780 55 748q-2-19 4-69l6-45 49-33-27-44 53 19 27-32 7 25 93-44 147 9 35 21 41 4-17 43-29 23 30 25-20 15 32 50-23 52 36 51 37-30 90 8 91-95 928-342" fill="#fff"/><path d="M1626 1149l-21-37 19 27 2 10" fill="#fff"/><path d="M1680 878l91-89 25-24-19 48-18 42q19-7 46-35l45-38-14 15 42-26 40-31q31-21 80-40-23 35-47 87l49-8v444l-79-28q2 29 19 63 15 34 33 49l-33-17-33-21q-33-20-87-41-22-9-46-28l-40-30q-6 32 14 87l-46-41-46-42-32-35-11-27q10-8 112 17l-32-19q-21-16-27-27l31-1-1-2 226-65-57-10-59-8H1691l7-3v-4q15-4 46-26l39-33-97 20q-55 15-86 36l-26 11q32-42 106-120" fill="#fff"/><path d="M1528 1205l7-4q9 8 19 7l-17 89q-21-1-45-17-25-18-30-36-10-35 15-41l51 2" fill="#fff"/><path d="M1375 1078q-3 5 9 24 8 14-11 17-20 3-27-10-7-13 9-24l20-7" fill="#fff"/><path d="M1498 1065l10 3q15 6 14 21-1 15-21 9-12-4-14-16-3-13 11-17" fill="#fff"/><path d="M1605 621l-20 80-370 130 23-56 293-104 4-76 173-57 10 53-113 30" fill="#fff" fill-opacity=".8"/><path d="M1647 770l8-76 115-29 7 54-54 6-25 79-459 120 27-55 381-99" fill="#fff" fill-opacity=".8"/><path d="M1185 1424q-45 19-113 13l72-37q43-25 63-49 30-36 33-87l-2-96 10-7q15 6 26 42l13 53q6 24-1 48l-22 47q-29 53-79 73" fill="#fff" fill-opacity=".8"/></svg>