<?xml version="1.1" encoding="UTF-8"?><svg xmlns="http://www.w3.org/2000/svg" xmlns:xlink="http://www.w3.org/1999/xlink" version="2.0" width="100pt" height="100pt" viewBox="0 0 2000 2000" clip-rule="evenodd" fill-rule="evenodd" preserveAspectRatio="none"><path d="M1188 625q17 4 31 38-36 20-48 59-6 23-13 71-52-29-35-87 15-52 65-81" fill="#fff"/><path d="M1210 473q-5 16-20 8-15-7-18-25 15 12 38 17" fill="#fff"/><path d="M1276 489h-18l-18-1q0-8 17-10 16-1 19 11" fill="#fff"/><path d="M1281 486l3-7 2-7q12-4 18 15l-12 1-11-2" fill="#fff"/><path d="M1226 654q-13-19-6-32 6-11 28-20 36 18 30 38-19 7-28-21-14 3-14 17 0 15-10 18" fill="#fff"/><path d="M1276 612q14-6 12-12 10-3 19 15 10 18-5 26-2-11-13-15-11-4-13-14" fill="#fff"/><path d="M1034 883l8 13q-3 25-23-24 10-2 15 11" fill="#fff"/><path d="M1174 369h9l9 19-10-8-1 24-6 21-8-16q-14-26-13-39 8-5 14 5l6-6" fill="#fff"/><path d="M1141 589q-46 61-64 109-24 63-10 127 1 9-4 3-4-6 2-8-18-22-15-64l5-67 11-17q5-12 13-18 3-8-3-14-6-6-4-12 14-1 31-14l38-25" fill="#fff"/><path d="M1280 534q41-12 86-1 51 13 79 50-70-46-165-49" fill="#fff"/><path d="M1319 591q26-7 47 25l31 50q-19 14-52-13-34-28-26-62" fill="#fff"/><path d="M335 816 300 711l90-40 45 105-100 40" fill="#fff"/><path d="M1893 1343l107 85v94q-18-4-29 4l29 17v33q-42-11-81-42-36-29-59-67-17 2-22-35-6-48-19-63 5-4 10 0l9 3q-22-31-58-58l-62-43-10 10-14 1q3 22 18 44l35 42q-19 6-19 14l5 17-94-108q-53-68-45-119-12-4-9-33 2-31 24-45-5 16 4 46l14 39q0 13-7 6-10-9-12-8-3 1 1 9 2 5-8 0l6 14 7 27q4 6 15 5 11-2 14 4 5-8 2-13l-9-13 16-2-12-4-9-15 12 8 12-8q58 70 103 92l7-1 10-1q55 12 118 64" fill="#fff"/><path d="M1437 1861q8-19 0-25 1 12-9 27l-13 25 22-27M874 1080l-2-49q-6-6-10 2l-14 10q-3 24 2 48 7 32 28 37l-4-48m28-11q4 8 0 20-3 12 2 21 25-10 20-23-3-11-22-18m854-329-32-67-15-1-18 5q4 21 26 38l39 25M1108 445q-17-12-45 5-24 14-31 63-7 51 32 48 59-11 59-79 0-27-15-37m35-122-41 17q-19 8-29 22 10 33 30 61l40 47q1 35-25 75l-34 48q-5 5 4 5 9 0 3 9l-9 1-10 8-33-53q-28-40-32-57-44 57-48 175-4 119 36 202l17 21 23 25 47 85q28 41 65 37-61-92-57-155 16 18 35 25 19 6 36 0l30-21 27-30V855q-2-10 3-16 34-43 84-60l92-2q102-15 125-83 57 109 62 141 48-59-32-222-79-161-173-204-16-7-53-12l-46-11 16 23q7 13 0 23-19-33-77-52-56-19-76-57m755 955q52 19 102 26v54q-112-51-197-130-105-98-148-222l-4-1v4l-13-23q-9-21-18-28h-31q-14 1-23-15-4 2-5 10l-10 9-11-19q-12-13-16-26-14 15-32-6-20-22-23-21-10-5-9-31 0-25-16-34 12 2 6-4-10-12-5-19-63-36-137 9-71 43-81 113l52 25q32 11 52-4l-15 50q-6 30 2 57-15 10-19-3-5 36-46 51-5 6-2 18 2 7-15 8 13 15 9 31-5 13 2 17-18 0-22 27l-10 53q65 77 70 226 5 145-48 247 8 60-35 128-38 59-108 112 75-18 143-105 83-63 92-225l6-133q5-76 23-124 7 8 14 39 6 32 4 58 15 1 17 7 2 7-8 24 2 3 7 2l9-4q0 24 11 45 12 25 31 17l16 42q5 14-3 34 22-33 10-104-12-67-47-131l-7 21q-6-1-9-13-1-7-12 6 37-49 51-113 20 4 25 25l4 21 1 16 2-8q20 47 32 104 13 64 13 123l-7-3-5-9-14 15q-8 9-17 6 7 9 5 21 6 11 16-14 7-4 5 6-2 10 7 6 4 8-5 20-10 11-5 20l6-4q2-7 13-5 41 132 11 230 17-1 30-19 11-15 14-37 10-1 18 7 9 8 5 17l20-2h20q9 36-24 70-37 37-37 48-16-6-31 8l-26 20 4 4H909q154-125 232-209 126-139 127-240l-102-192q-60-105-116-151-7-8-5-15l3-13-32-33-31-37-29 60q-14 34-18 63-55-35-91-109-41-86 6-127Q750 726 750 575q-1-209 171-322l19 1 19 5 10-11q1-9 9-11l5 30q-1 12 8 23-49 20-97 64-57 52-69 104 21 13 19 59-2 58 8 82l28-52q17-32 42-47 2 16-6 32l-19 27 14 3-4 16q54-18 88-71 20-32 42-98-8-3-18-26 17-24 57-42 19-9 74-28 108 96 256 66 8-8-13-13-16-4-4-9-5-7-9 0l-10 9q1-12-16-20l-29-11 50-1q41 18 52 17-3-26-32-49l-45-38 33 8q5-8-13-15-17-8-3-19-19-24-63-26h-79l-32-8-32-2q-18 4-42 22l-39 29 8-18 2-22q12-10 52-19 32-8 34-23 150-2 279 133 101 105 213 325 54 6 95 86 37 72 34 134l-28-22-35-24q-29 79 37 226 38 84 127 249" fill="#fff"/><path d="M215 1301 0 1400V1149L407 959l-5-27L0 1096V939L561 695q24 20 43 63 20 45 13 72l-85 39q-49 23-70 45 12 15 42 5l48-13q33 13 54 57 19 41 12 78l-71 51q12 42-33 77-42 33-88 29-79 43-211 103" fill="#fff"/></svg>