<?xml version="1.1" encoding="UTF-8"?><svg xmlns="http://www.w3.org/2000/svg" xmlns:xlink="http://www.w3.org/1999/xlink" version="2.0" width="100pt" height="100pt" viewBox="0 0 2000 2000" clip-rule="evenodd" fill-rule="evenodd" preserveAspectRatio="none"><path d="M1262 1587l-57 12-57 11q-61 10-78-8l-9-4v-3q-28-14-31-30l-5-4q1 8-6 15l23 36 10 22q5 12 15 16l31 10 13 7 13 4 26-4 26-4 70-8 53-9 52-11 17-2 15-6 20-17 20-28 24-29 13-13-43 28q-17 11-67 13l-88 6m-82-752v1l-9 3q2 5 18 9l14 15 16 14 31-2 10-7 8-10q17-6 22-14l12-19-8 2v3l-28 3-25-9-29 3-32 8M857 1084l-6 8v24l14 18 22 16 25 1 29 1h29l22-8 19-13 49-20 48-19 57-28 25-14q12-15 20-18 15-7 66-1l28-2 22-11 5-9 5-9 5-5q7-29 20-34l23-4 24-2q-50-21-68-21 2 22-11 34l-32 19-10 5-10 1-22-5h-47l-10-16-11-16-9-13 13 28 5 12-11 9-58 23-58 21-30 9-28 13-82 28-27 6-16-4-16-2v3q-4-7-13-5M1888 945l-23 44-66 18-8 94q-1 21-17 54-17 36-36 45-28 13-95-14l-35 12-66 11-105 8q-11 4-17 27l-11 45q-6 18 10 71l22 64 24 72q19 57 18 66-1 11 19 60 19 49 26 51 10 4 217 318l-88 9H1454l-61-76q-37-47-51-73l-19 2 2 43-1 31-4 24q-2 16 10 49H1057q-46-256-44-289l4-64-27-83q-18-48-31-189l-17-210-55 14q-49-22-66-42-11-12-13-46-1-26 1-35 24-75 25-109 1-40 80-81 28-15 76-8l42 9 14-35-2-62q-4-31 24-79 13-21 58-34l43-9q59-4 116 35 20 14 24 57l-1 40 10 27-16 56 16-7 37 11 70-21 577 5v81l-60-1-15 23-39-9m-255 88h61l39-90-63-9-78-8-97 10-20 17 158 80" fill="#fff"/><path d="M275 1018l-6 15 23 36 10 22q5 12 15 16l31 10 13 7 13 4 26-4 26-5 70-7 105-20 17-2 15-6 20-17 20-28 24-30q6-2 13-12l-43 28q-12 8-31 10l-36 2-88 7-57 12-57 11-42 3q-26 0-36-12l-9-3v-4l-18-12q-12-10-13-18l-5-3M745 392l-20 18 158 80h61l39-90-63-9-78-8-97 9M547 444l-10 5H527l-22-4H458l-10-16-11-16-5-9 3 9 6 15 5 12-11 9-58 23-58 21-30 9-28 13-82 28-27 6-16-4-16-2v2q-4-5-13-5l-6 9v24l14 17 22 17 25 1h29 29l22-7 19-13 49-20 48-20 57-27 25-14 20-19q15-7 66-1l28-1 22-11q1-4 5-9l5-10 5-5q7-28 20-34l23-4 24-1q-50-21-68-21 2 22-11 34l-32 19M430 291v2l-9 3 8 6 10 3 14 14 16 14 31-1 10-7 8-10q17-7 22-14l12-19-8 2v2l-28 4-25-9-29 3-32 7M376 114l43-9q57-6 116 35 20 14 24 57l-1 40 10 26-16 57 16-7 37 11 70-22 715 7-11 82-187-3-15 22-39-8-23 44-66 17-8 95q-1 22-17 54-17 36-36 44-28 13-95-13l-35 12-66 11-105 8q-11 4-17 27l-11 44q-6 19 10 71l22 65q43 128 42 138l20 60q19 49 14 51-13 7 38 870H564q-7-108-1-367l7-226-131 593H348q-71 0-130-21l49-876-27-82q-18-48-31-189L192 621l-55 14q-49-22-66-41-11-12-13-46-1-26 1-35 24-75 25-109 1-40 80-81 28-15 76-8l42 9 14-35-2-63q-4-31 24-79 13-21 58-33" fill="#fff"/></svg>