<?xml version="1.1" encoding="UTF-8"?><svg xmlns="http://www.w3.org/2000/svg" xmlns:xlink="http://www.w3.org/1999/xlink" version="2.0" width="100pt" height="100pt" viewBox="0 0 2000 2000" clip-rule="evenodd" fill-rule="evenodd" preserveAspectRatio="none"><path d="M1256 1049q29-1 27-27-1-26-30-23l-15 13q-12-3-19 4-7 8-2 19 3 6 18 11l21 3m213-211-33-25-26-28h-23q-34-4-65 10-33 16-44 46-15 41 1 69 12 21 50 46 79 53 141 2 30-25 22-57l-23-63m64-71-25 15q-15 14 3 21l32 4 3-24q-1-13-13-16M1433 574l-10-12q-21 7-28 24-7 17 1 38 18 18 49-8l3-26q-1-15-15-16m-77-222-18 2q-46-4-73 30-25 33-14 77l75 47q52 22 79-19 10-14 14-41 4-28-1-44-6-19-26-31l-36-21m272 114-7 7q-42 5-50 52-8 49 36 61 43 13 67-21 23-33 1-70-12-22-47-29m-433 699q-11-8-25-8l-2-2 2-2q-13 4-16 22-3 18 7 26l29-1q10-15 5-35m0-228q-9-12-40-31-31-19-39-29l-5 17q-31 1-58 13-32 15-40 40-9 27 8 57 15 27 42 41 27 15 59 13 31-3 56-21 37-26 17-100M988 1080q-9-14-31-21l-36-10-8 5-23-1q-13 2-17 13l-7 1q-32 51-20 92l42 28q25 15 50 17 48 6 58-40 11-53-8-84M931 764l-8 8q-28-2-27 34 1 35 35 26 25-7 26-35 2-29-26-33M535 829l20-18q5-6 3-16l-20-8-22-5q-18 26-6 40 12 16 25 7M701 727h7q10-23 8-36-3-16-25-25l-75-9-15 27-10 1-5 5-3 42q2 21 26 28 28 8 55 0 32-8 37-33m59-41q18-1 20-19 1-17-14-25l-8-8q-12 12-15 32-4 22 17 20M668 582H658l-17-15q-14 27 8 31 23 5 19-16m525-50q-16 6-12 27 25 19 39 3 14-16-12-35l-15 5m-113 14-7-4q-38 3-85 36-50 34-57 68-16 75 71 134 72 48 160 1 91-48 56-136-13-35-58-65-40-27-80-34M966 390q-9 49 28 65 35 14 76-14 26-40-4-62-24-17-70-17l-5 10-12 10-13 8m75-81 5-20q-19 4-28 31-8 27 8 34 29 14 37-9 8-24-22-36m181-199 15-15 1-35-3-60h394q-5 28-13 36 40 12-7 79l-58 80q-2 12 4 21l12 19q6 14 8 42 5 37 39 55l66 26q91 43 136 112 15 20 16 54l-3 56-2 60-5 60q-12 61-24 182-4 22 0 55l6 54 1 43 3 44q2 18 15 41l21 39q19 38 38 123l25 57 22 59 6 52 3 54 5 42q4 25 13 40 12 18 46 33v36q0 146-82 239l-12-16-13-16-26-13q-16-7-22-19-5-10-7-30l-5-31-20-52-5-28-23-14q-21-6-25-12l-6-26q-5-37-52-106-13-20-23-48l-18-50-46-100q-20-41-41-99l-36-100-11-46-8-46q-7-24-33-9-26 14-29 41-6 51-24 99l-42 91q-17 32-30 81l-22 84-18 46q-13 31-11 44l15 47 21 59 20 61 1 31-2 31 6 31 9 29q16 53 21 132l9 61H961l-26-89q-13-51-8-91l7-59q1-31-11-59l-17-33-34 17q-26 15-43 41l-29 53q-24 43-88 93l-100 84-35 43H347q-147 0-240-88 21-9 26-19 6-11 0-28l-6-28 8-32 14-29q14-21 46-46l51-37q60-48 98-94 50-58 94-95l25-18 22-21 16-27 19-24 52-38 51-36 39-30q13-12 12-42-1-39 1-48 4-15 18-42l20-42 39-139q22-85 50-134 13-24 0-51-13-27-32-12l-34 33-35 31-87 62-91 56-96 54-44 31-46 25q-78 29-104 56l-20 18-27-5-27-2-21 20-46 31-22 23-24 19-22 4-22-4V986H12l44 7 43-3 34-25 29-31 33-42 36-39q17-14 52-34l53-34 50-40 53-37 40-19q23-11 36-25l54-68 36-41 32-45 85-162 31-51 34-51q36-68 74-82 77-29 176-12l69 17q37 5 63-22l32-29 21-8" fill="#fff"/></svg>