<?xml version="1.1" encoding="UTF-8"?><svg xmlns="http://www.w3.org/2000/svg" xmlns:xlink="http://www.w3.org/1999/xlink" version="2.0" width="100pt" height="100pt" viewBox="0 0 2000 2000" clip-rule="evenodd" fill-rule="evenodd" preserveAspectRatio="none"><path d="M182 795 91 951 66 926 315 341l117-86-290 785 40-245" fill="#fff"/><path d="M469 905l116 63-430 310-25-127L469 905" fill="#fff"/><path d="M243 1417l-70 32L51 1339l50-15 142 93" fill="#fff"/><path d="M214 974 394 704l127 25L214 974" fill="#fff"/><path d="M1286 1337q2-37-17-80-20-43-48-66-28-24-50-14-22 9-23 46-2 37 17 80 19 43 48 66 28 23 50 14 21-10 23-46m80-182 20 36 20 64q13-32 3-72-7-25-33-39l-24-10 14 21m-629 87 42 50 227-16 146-119-341 69-82-184 8 200m691-237-4-5-8 1q1 26-9 67l-5 33 1 11 5 14 20-7 20-12q26-18 38-18l-3 3 4-3h-1l3-3-16-20-17-17q-26-32-28-44M908 744l-65-42 74 231-64 91 122-52-1 60 70-34 241-12 49-51 57-29 123 7-28 63 59 96 216-114-20-20 9-69-48-38-91-46h-45l-107-40q-4-3-38 12l-32 15q-26 14-53 27l-2 136-292-9-13-31-57 25 15-25-32 4-47-155m250-235 33-63-40-139q24 91-9 149-28 51-102 96-71 43-121 43-64 0-125-31 35 33 83 58 96 48 165 4 69-45 116-117m-93-288 55-35-313 17q-51 77-31 83l67 6q59-1 109-18 48-16 113-53M912 54q3-5 23-6 40-3 122 15 83 19 101 132 9 56 1 109l57 77 161 9 39 59 68 71 252 141 130 118 40 77 73-32 23 43v139l-12 9-65 2-516 248-11 40-100 41 145 493 9 161H1245l-11-9-16-111-59-120-261-262-465 309-158 187q-105-16-177-91l-10-10 127-208 72-48 103-98 229-288 82-295q-39-314-23-377 10-40 49-81l37-33-34-206 30-30q1-27 20-62Q818 97 912 54" fill="#fff"/></svg>