<?xml version="1.1" encoding="UTF-8"?><svg xmlns="http://www.w3.org/2000/svg" xmlns:xlink="http://www.w3.org/1999/xlink" version="2.0" width="100pt" height="100pt" viewBox="0 0 2000 2000" clip-rule="evenodd" fill-rule="evenodd" preserveAspectRatio="none"><path d="M1786 294q21 107-5 208-43 163-204 256-303 175-751 401l-81 51-122 79q-54 37-158 125l-1-94 128-101 122-79 81-51q449-226 751-401 142-83 201-209 41-87 39-185" fill="#f7f7f7" fill-opacity=".8"/><path d="M1576 905l37 123q42 147 63 270 65 392-105 385-170-7-99-393 22-121 65-265l39-120" fill="#f1f2f2"/><path d="M138 1253l-6-16-15-7q-9 0-16 6-6 6-7 16L83 1530q-1 10 6 16 6 7 15 7 9 1 16-6l6-15 12-279m112-77-6-15q-6-7-15-7-9-1-16 6-6 6-7 15l-11 279q-1 9 6 16 6 6 15 6 9 1 16-5l6-16 12-279m112-76-6-16q-6-7-15-7-9-1-16 6-6 6-7 15l-11 279q-1 9 6 16 6 6 15 7l16-6 6-15 12-279M1786 294q2 98-39 185-59 126-201 209-302 175-751 401l-81 51-122 79-123 96 4 124L8 1719l-4-57V1161L457 926l2 42L1650 261l129-29 3 17 4 45M1308 683q17-11 22-31 5-20-6-37-11-18-30-23-20-5-38 6L632 959q-18 11-23 32-5 20 6 37 11 18 31 23 20 5 37-6l625-362" fill="#fff"/></svg>