<?xml version="1.1" encoding="UTF-8"?><svg xmlns="http://www.w3.org/2000/svg" xmlns:xlink="http://www.w3.org/1999/xlink" version="2.0" width="100pt" height="100pt" viewBox="0 0 2000 2000" clip-rule="evenodd" fill-rule="evenodd" preserveAspectRatio="none"><path d="M559 802l-85 89-54 61-27 33L0 926V546L559 802" fill="#fff" fill-opacity=".8"/><path d="M3 291Q13 166 78 92 154 6 303 0L807 711l-17 18-89 2-41 9-31 11-24 13-3 2L3 291" fill="#fff" fill-opacity=".8"/><path d="M1122 0h393L1198 690l-2-2q-6-25 7-92l9-45q30-28 42-70 12-43 0-87l-13-26-12-12q-4-110-59-171-29-31-69-46L1122 0" fill="#fff" fill-opacity=".8"/><path d="M778 364q-33 45-20 103 10 48 45 83 11 51 28 82 2 22-7 50L554 0H937l12 137q-51 16-100 49-15 8-25 27-22 46-30 134l-16 17" fill="#fff" fill-opacity=".8"/><path d="M328 1071l-14 23-26 46-14 30-13 42q-8 37-5 72 4 32 18 61l10 16L0 1473V1102l328-31" fill="#fff" fill-opacity=".8"/><path d="M1561 894l-70-84 509-201V979l-352 33-87-118" fill="#fff" fill-opacity=".8"/><path d="M1429 755l-18-9-19-7-28-9-69-7-51 3-3 1-21-17L1774 13q81 21 138 81 88 94 88 252v25L1444 765l-15-10" fill="#fff" fill-opacity=".8"/><path d="M1725 1146l-17-36 292 44v379l-294-135 6-6q23-28 33-58l10-48v-35l-9-46-21-59" fill="#fff" fill-opacity=".8"/><path d="M489 1450l47-1 155-16 9 43-412 519q-117-15-192-92-77-75-92-194l384-272 6 2 39 8 56 3" fill="#fff" fill-opacity=".8"/><path d="M1983 1775q-23 76-75 128-96 96-253 96h-11l-262-368 2-80-2-93-1-8 110 11h50l42-3 400 317" fill="#fff" fill-opacity=".8"/><path d="M648 1983l-2 16H527l180-391q-7 138-19 221l-22 92-18 62" fill="#fff" fill-opacity=".8"/><path d="M677 1217l51-3-16-90q-11-56-13-92l-36 36-100 107-36 44 4 1 146-3m749 13h66l-4-7-38-55-89-110-20-22-11 190 24 1 72 3M473 998l53-60 84-88 18-17 3-1 4-4 2-1 5-4 16-8 22-8 31-7 25-2 45 1 30 3q47-32 70-77 28-54 18-117-12-16-20-44l-12-52q-25-15-37-46-13-36 5-62l12-3q7-2 12 3l9-85q6-49 19-75 78-50 144-48 137 5 128 208l13 3 15 5q8 32-4 61-12 29-36 39l-18 100q-12 60 2 104 4 12 33 38l59 46 72-7 25 1 29 5 33 11 17 9 5 4 2 1 1 1 4 3 45 48 50 61 93 127q25 38 42 71l20 39 18 49 6 34v23l-6 31-20 35-16 15-1 1-3 2-1 1-4 3-5 2-39 15-52 6h-44l-157-18-27-5q-3 31 2 91l2 88q-5 87 3 173 9 92 29 155l29 124H716l23-80 19-80q14-102 19-244 3-63-8-128l-26-113-51 8-160 17-42 1-48-2-30-6-19-7-17-9-4-3h-1l-1-1-3-2-1-1q-18-15-29-35-9-18-11-38-3-24 3-49l10-31 11-25 23-40 49-70 51-63" fill="#fff"/></svg>