<?xml version="1.1" encoding="UTF-8"?><svg xmlns="http://www.w3.org/2000/svg" xmlns:xlink="http://www.w3.org/1999/xlink" version="2.0" width="100pt" height="100pt" viewBox="0 0 2000 2000" clip-rule="evenodd" fill-rule="evenodd" preserveAspectRatio="none"><path d="M864 1101H602V813H864V552h288V813h262v288H1152v262H864V1101" fill="#fff"/><path d="M1728 238l-30 14q34 17 89 23l94 4q-44 7-127 38-86 31-123 38l25 26q-27-11-51 0-23 11-30 40l6-27q-26 49-108 104l-132 83-7 4-63 21q148-159 279-248-14-14-40-13l-47 8q34-9 62-34l-30-9q25-25 62-37-44-67-60-115 21 44 79 79l56-61 57-62q-67 86-78 147l53-33-24 31q20 0 88-21" fill="#fff"/><path d="M1387 706l-48 4q-7 1 6-6h16l26 2 16-4 62-17 88-13q69-11 81-26 8-10 9-38 2-27 12-38l1 20q37-7 100-46 75-45 100-55-79 43-138 103l101 3 51-5-38 10-82 28q54 25 70 55l-61-13-62-6 14 14-252 21-72 7" fill="#fff"/><path d="M298 248q-43-66-63-118l73 115q53 76 90 79 1-27-7-43l28 26q29-15 48-66 26 91 53 125l14-14q34 87 144 214l13 42-21-7-77-73-42-49q-32-37-47-41-23-7-54 8l-55 33 28-25q-22-3-47-20l-42-31q-44-31-123-76L87 253q167 73 285 106L298 248" fill="#fff"/><path d="M1715 1648l-47-4 33-13q-50-50-139-106l-148-95-50-42-26-21q27 15 60 24l4-5q27 30 156 95 161 82 193 102 39-29 109-14l112 34q-71 8-108 26l47 35 50 33q-51-37-134-54 105 84 157 163l-66-60q-56-46-83-46-26 1-35 25-11 34-26 45l-6-57q-4-44-12-53-10-10-41-12" fill="#fff"/><path d="M744 1536q-33 73-32 108 1 16 12 48l11 47-30-32v3l-4-2q-7 16-12 41l-6 42q-6-28-6-73l-18 39-23 36q27-50 28-79-11 8-28 32l2-8q-15-13-31-7l24-25 25-24-8-5q26-13 41-48 14-43 26-64l40-79q-6 15-2 26l-9 24" fill="#fff"/><path d="M636 97l59 45q-26-60-28-81 19 54 39 74l-4-42 4 7q19-1 27-19l3 69 8-2q-7 28 9 63l27 58 32 84-16-16-12-23 4 11q-31-80-63-107-12-11-42-24-31-14-43-24 27 4 44 0l-1-2 3-2-22-36-28-33" fill="#fff"/><path d="M660 1294l19-33q9-8 16-10l-35 43-42 73q-47 38-99 96L418 1579q19 9 48 15l50 8q-18 13-55 28-43 18-57 26l47 50 30 28-45-21q-53-23-73-17-18 6-40 51l-15 34q6-20 4-38l-97 63 36-40 31-43-194 13q19-11 85-40 54-24 81-45l-11-16-11-16 45-6 42-10q16-11 28-43 15-37 25-49v26l172-135q72-60 116-108" fill="#fff"/><path d="M63 1155q-29 12-61 32V1085l21 7 68-10q49-14 32-21 115 32 383-50l-38 29q4 3-42 16l-71 18-148 38q-95 22-144 43" fill="#fff"/><path d="M1118 1651l3 83q2 52 13 81 32-10 71-15-12 7-16 15l-11 19q63-1 125 41l-103 6 33 108h-8l-64-91-7 91h-19q-8-52-9-76-32 11-86 52 33-51 56-110-36 22-71 15 44-63 35-198l26-159 3-36q24 117 29 174" fill="#fff"/><path d="M1524 1254q-129-13-154-38l55-2-18-4 222 29q130 9 219-2l-56-58q-34-39-60-56 74 40 111 44l19-73 22-72 29 64q20 43 37 57 19 17 52 13v29l-14 13 14 4v189l-47-40q-26-25-53-36-87-33-190-44l-188-17" fill="#fff"/></svg>