<?xml version="1.1" encoding="UTF-8"?><svg xmlns="http://www.w3.org/2000/svg" xmlns:xlink="http://www.w3.org/1999/xlink" version="2.0" width="100pt" height="100pt" viewBox="0 0 2000 2000" clip-rule="evenodd" fill-rule="evenodd" preserveAspectRatio="none"><path d="M987 502q15-58-12-116-25-54-76-86-31-81-14-143 8-29 32-52l48-38-19 18q-48 99 20 161l72 65 35 36q9 17 5 50-23 20-23 59 0 30 13 65 24 58-12 120-10 18-7 55 2 33-14 49l10 12-71 92L704 516l71-92L934 620l4-16q5-18 25-51l24-51" fill="#fff" fill-opacity=".7"/><path d="M1479 9h196l-16 8-38 26q-15 15-23 41-6 20-6 60l-9 22-8 21q0 28 63 78l22 81q10 51-18 75l-11 28q-8 16-9 28-3 18-3 38-3 12-24 25l-27 12 50 62-336 436 242 298-10-24q-12-41 3-81 14-38 47-60 17-51 8-128-12-102-10-131 10 10 10 36l4 40q7 20 39 57 51 77 17 144l-18 30q-11 19-15 33-5 19 1 35l12 31q7 29 0 56l-21 45 36 44-159 206-75-93 88-113-345-425 336-436-88-109 71-92 76 94 38-32q24-29 29-65 5-39-16-69l-52-58-53-56q-24-30-5-64l33-59q5-17-5-36l-18-31q-7-20-3-28" fill="#fff" fill-opacity=".7"/><path d="M713 1599l265-343 74 92-264 343-75-92" fill="#fff" fill-opacity=".7"/><path d="M986 998q-11-21-27-23l-66-4L616 630l88-114L974 849l71-92 74 92 265-344 88 109-336 436 345 425-88 113-270-332-71 92-74-92-265 343-88-108 282-367 49-2q16 0 28-21 12-21 13-51 0-30-11-52" fill="#fff"/><path d="M974 849l335-436 163 201-336 436 345 425-159 206-344-425-336 435-163-200 279-362 198-7q16 0 28-21 12-21 13-51 0-30-11-52-11-21-27-23h-1q9 20 9 47-1 30-13 51-11 21-28 22L4 1126V889l713 45L470 630 629 424 974 849" fill="#fff"/></svg>