<?xml version="1.1" encoding="UTF-8"?><svg xmlns="http://www.w3.org/2000/svg" xmlns:xlink="http://www.w3.org/1999/xlink" version="2.0" width="100pt" height="100pt" viewBox="0 0 2000 2000" clip-rule="evenodd" fill-rule="evenodd" preserveAspectRatio="none"><path d="M1416 901q-171 24-246 100-75 75-99 246-15 106-18 343-3-237-18-343-24-171-99-246-76-76-247-100L346 883l343-18q171-24 247-99 75-75 99-246 15-106 18-343 3 237 18 343 24 171 99 246 75 75 246 99l343 18-343 18" fill="#fff"/><path d="M563 1201q14 97 57 140 43 43 140 57l195 10-195 10q-97 14-140 57-43 43-57 140-8 60-10 195-2-135-10-195-14-97-57-140-42-43-140-57l-195-10 195-10q97-14 140-57 43-43 57-140 8-60 10-195 2 135 10 195" fill="#fff"/><path d="M727 468q-33-33-191-35 158-2 191-36 34-33 36-191 2 158 35 191 34 34 192 36-159 2-192 35-33 33-35 192-2-158-36-192" fill="#fff"/><path d="M1483 929q9-62 10-204 1 143 10 204 12 91 52 131 40 40 132 53l203 10-203 10q-91 12-132 52-40 41-52 132-9 61-10 203-1-142-10-203-13-92-53-132-40-40-131-52l-203-10 203-10q91-13 131-53 40-40 53-131" fill="#fff"/></svg>