<?xml version="1.1" encoding="UTF-8"?><svg xmlns="http://www.w3.org/2000/svg" xmlns:xlink="http://www.w3.org/1999/xlink" version="2.0" width="100pt" height="100pt" viewBox="0 0 2000 2000" clip-rule="evenodd" fill-rule="evenodd" preserveAspectRatio="none"><path d="M637 1831q-4 4 0 8l5-9 2-7-7 8m67-273h-5l-2 4q-5 2-5 3 13-2 12-7m129 0q-4 6-2 8l9-10q-3-3-7 2m-76-88-7-3q-3 9 5 6l-14 10 8-2q3-2 5 3l8-12 3-10-3 4v-6q-4 4-5 10m13-20v5q0 4 4 2-3-3 0-4l5-3-1-5-3 3-5 2m145-8-13 19q-9 9-12 19l3 2 12-19 10-21M443 1905q-3 1-1 5l4-3 3 6 3-7-4-8-5 7m894-953-1 4 1-8-7 2q-5 1-2 5 2-3 9-3m21-46h-2l-3-1q5 4-5 19-9 13-4 15l14-33m15-27-3 2q-3-1-4 2l3 4-6 3-1 8q-4 5 1 5l7-11 3-13m3-10 4 1v-4l-1-5-3 2q-3-1-4 2l4 4M1145 647l42-25 92-14 99-10q17-2 29 6 14 8 15 23l12 30q8 17-2 33-17 26 9 94l-11 51-17 62-87 142-581 830-103 131H581l21-31q26-42 38-43 400-548 562-783l15-19 12-20 2 4q11-13 1-7l5-7q4 5 5-2 2-6 5-2v-5h-4q3-7 9-5l13-19 11-22 18-21q10-12 12-23-14 21-31 30 1-2-3-2l1 4-3 8-2-3h-5l-19 27q-2-1-1-4v-4l-3 7-2 6-4-1 7 3q9-16 15-17l-13 18-10 11q10-9 3-11l-5 10q-3 6-9 4l4 4 3 1-8-1-9 11q-5 5-4 11l-5-1-3 2-6 11 6 1-2 5-3 2-1-4q-1-4-4-2l-1 5-5 4 2 7v6q-6-3-16 9-9 9-12 2l4-2 4-6-2-3-14 19-14 10q3 11-19 27l-1-5-6 5q0 3 4 3l2 4-4-1 1 5q-4-1-6 3v6l-9 3q-5 2-5 3l2 1v3l-2 3q-1-6-5-2 1 12-19 23l2 12q-6-5-12 3l-8 12-2-6q-3 3-1 6l3 5q-3-2-3 2l-2 1-1-8-6 9 4 1 1 3q-8-1-11 4l2 2 1 2q-6 7-8-1-3 2 0 5 4 2 0 4-4-3-5 2l-9 8 2 5-5 4h6q3-4 5-3-5 3 0 9-5 0-3-5l-6 7 4 2 1 2h-5l-6-1 7-9-13 10-10 9 1 6v5l8-11-2 6-6 9-2-5h-4l-1 4-1 4q5-5 6-4l2 3-3 1-4 3 5 2q3 0 2 3l-11-6v6l-6 2 3 6-4-3h-3l4 7q-8 3-15 15l-5-4 10-6 5-8q-12 0-21 17h4l-4 5q-4 1-4 3h6l-1 6-5-1-7 6 6 2v4l-5 1 4-2-2-3q-3 2-3 9h-3l-4 2q-2 2 2 1l2 2-5 5-6 4-2 6-8 5-16 26-22 24 3 1 1 2h-5l-3-4q21-14 16-25l-4 4-1 2q5-3 4 1l-7 8q-5 5-7 2l-3 13-7 11 2-12-4 4-2 3 4 14q-4-8-7-5l-1 5q-3 3 1 4l2-4 2-2-5 12-12 9 4 10-4-2-3 2q5 1 4 5-2 5-5 3v-7q-6 6-2 10-7 2-12 7l-7 9 4 5q-1-2-3 2l-4 1-1-1q-51 65-63 87 1-2 3-2l3-1q-5-3 4-8l1 4 2 4 8-14-4 6-5 3 2-12 6 2q4-19 22-34v5q-6 1-6 7l-1 10-4-4-16 35-8-1 3 2q4-1 3 2l-4 2-5 1 2 2h4l-4 2-2 2-4-7 4-3-1-4q-2 6-9 5l4 9 2 9-4-5-5-4-8 19v-5l-16 20q-9 11-8 20-4-3-7 3l-2 9q-6-3-5 0l1 8q-9 4-20 23-10 18-22 21l1 4-1 5-2-6-7 9 6-3-2 7 1 5-6-1q-13 20-11 28-6-4-12 5l-9 11q1-10 12-16-2-4 4-9-9 2-16 17l-11 18q8 3 5 4l-10 3q-5 3 0 6h-4q-2-3-4 1l4 4h-5l-4 3q4 3 0 6-7 3-7 5l-1 5q-4 3 0 5-13 5-27 29 7 0 3 4-3-2-8 6l-9 9 3-5-1-1-10 17-10 10h4l4-2-7 6H375q7-19 17-27-4-7-1-12 3 5 5 0 3-7 7-7 1-3-2-1h-6l8-3 7-2 4-15 5-2-4-2 3-2q3-4 4 0l3 7-2-7q-2-4 4-5l-8 1 6-9q-2 3 2 5l8 4-2-17q-2 0-1 3l-1 7q-3-11 3-17v5l3 5 11-16 10-15-2 3q0 3-4 2l1-3h-3l4-5 6-6-1 3 1 3 5-5-2-8q11-6 6-16l4 1 2 4 14-20 4 8-1-8q-5-4 1-8l3 9v-8l5-6-2-5 5-5-1-3-1-7q2-2 4 2v5l2-3 2-5 1 6-2 7q12 6 16-3l-12 3q0-9 3-16l-6-1 15-6-1-3-3-4 3-5h6l-3-6h6l3-3v9l2 8 1-5 2 3v-3l-2-1q0-3 5-3l7-6-10 4q-2-2 2-6l4-6-6-4q-3-4 3 0v-4q7-2 9 3v-5l-7-1 5-4 5 3 19-35-5 5q-2 3-4-3 4 3 4-6h5l4 4q-5-10 7-13l-2-2-4 3q0-4 7-6l9-3-4-1-4-3 4-3 6-5-2 4 1 4 4-8-2-11q3-3 4 0 2 3 4 2l1-4-4-1 12-15 13-14v-6l6 1v-6-7l6 1q4-6 8-2l-2-3-3-3q4-7 12-4l-1-7q2-5 6-2l-2-3-4-1 14-17 12-1-3-3q-4-1-1-4l4 3-3-5 6-3 1-10v7l15-25q1 6 7-2l-1 6-5 5q14-1 6-15 9 0 12-14 0-2 8-3 8-1 10-6l-6 1-7-2 8-4 1-5q6-3 11 7 5-1 2-4l-5-4 9-7q-7-5-8 3-3-8-7-3l-8 8 1-6 5-3-1-4-3-4 9 4-2-5-3-5q11 7 12-3l-6 5-1-5-1-1q-3-3 0-3l5 2 1-4-3-3 6-5q2-2 2 1l2 3 2-4 6-1-8-10q5-2 11 3l-4-4-4-4 6 1 6-1-2-1q-4 1-5-2 2-7 7-2l-3-4 6-5 5-1-2-3-6-2v5l-8 3q-1-3 4-7l5-5q1-1 2 1l5 4v-5l-5-3q1-4 5-4l4-3q-1 4 1 5l2-6-7-2 20-17 13-20q-4-1-10 9l-12 2 4-3 2 2q3-4-2-7l4 1 1 5q1-9 12-17l-4 2-4-1 14-21 3 2-4-3-4-3 8-10-12 1q-1-6 12-21l-3 1-3-1 3-3q1-3 3-2 10-47 34-100l47-101q15-37 54-106l51-99 74-120q39-64 133-135-23 7-56 27-18 11-55 33-423 571-922 1259l-36-24 541-741L876 952l96-124q99-127 114-140l59-41" fill="#fff"/><path d="M1376 283q1-25 15-43l28-20 26-22 20-64q12-41 29-60 14-15 18-13l14 26q23 52 15 124l-19 124q-4 39 10 68 9 19 41 55 25 29 27 60 3 34-21 58-3 22-25 65-21 41-22 68-1 23 13 75 12 48 7 75l-24 63-37 57-53 44q-34 25-45 53-9 22-11 47v49q2 41-21 86l-46 25-46 27-50 24q-32 17-41 31l-32 18-7 39-12 17-12 16q-18 3-42 25-23 22-28 41l-9 1q-4 33-13 46l-13 27 8-23-7-7 10-27q-5-27 19-49l43-33 33-42q16-27 20-48 31-14 68-79 38-65 64-79l9-19 9-20q15-8 30-42l20-51 24-48 19-49 7-5 3-8q36-22 65-81 24-48 35-100 10-49-11-120l-10-57q-7-39-20-55l-100-5-57 3-59 2-107 19q-62 13-67 56l-19 21q-6 26-34 66-30 44-37 63l-18 27-23 23q-1 13-25 39l-36 38-40 32q-28 22-31 38l-9 1-51 72-26 46q-20 35-29 38l-11 3q23-18 26-48l-1-52q0-88-48-97-17-29-10-50l25-47q15-25 17-59l-3-63q-6-66 0-134l5-61q4-41 12-56l-2 97q1 57 19 90l25 33q16 19 21 37 8 32 10 90l-2 43q2 25 19 27 20 3 51-35l14-29 9-31q5-12 17-24l21-21q26-29 28-66 2-35-18-70-19-34-16-66 2-27 21-67l34-22 32-26q61-47 31-114-49-75-61-115-15-50 46-84l28-15 22-22 8-27q3-22-4-25-19-8-16-26h172q-9 25-7 49 2 22 14 55l19 47 12 48-7 43-10 43q-1 24 20 61 21 36 43 46l46 8q29-2 42-15 11-12 11-27l-5-30-3-45" fill="#fff" fill-opacity=".8"/></svg>