<?xml version="1.1" encoding="UTF-8"?><svg xmlns="http://www.w3.org/2000/svg" xmlns:xlink="http://www.w3.org/1999/xlink" version="2.0" width="100pt" height="100pt" viewBox="0 0 2000 2000" clip-rule="evenodd" fill-rule="evenodd" preserveAspectRatio="none"><path d="M458 1772l4 31-13-38 9 7-15-43-28-77q-25-89 65-121 69-24 128 72 44 73 60 162-43 41-98 59-71 23-88-32l-24-20" fill="#fff"/><path d="M980 1780q-9-34-35-58h14q-38-6-7-104 30-95 67-121 33 38 55 83 26 53 25 95-1 38-25 65l-55 52-18-5-21-7" fill="#fff"/><path d="M1632 1734l-8 59q-13 23-73 45-57 20-86 17-49-5-51-35 7-44 6-77 19-8 30-8l-25-13 20 6q17-27 84-55 77-32 102 3 4 7 1 58" fill="#fff"/><path d="M1841 1524q-18 72-54 83l-8-25 10-58-11 28q-2-46 15-82l6-10v-1q19-32 53-42 2 53-11 107" fill="#fff"/><path d="M247 1547l-3 9-10 3q-75-89-80-151 36 3 82 55 46 52 38 77l-27 7" fill="#fff"/><path d="M564 1485l-85-10h-7-9l-4-7 69-40 64-42q31-16 83-34l88-29 68 13q-4 17-28 37-27 22-35 36l22-13q-42 30-56 60 38-8 104-46-44 36-60 116l38-29q-10 17-36 106-21 70-55 91l-30-40-28-41-10-46q-5-30-17-46-21-29-76-36" fill="#fff"/><path d="M746 1242q-93 30-207 95-117 68-194 137l-42-22q-30-15-43-32-5-6-11-43-4-21-34-22h17l13-7-36-1q211-75 503-156-58 18-118 84 54-5 152-33" fill="#fff"/><path d="M1036 1464q-46-29-91 3-25 17-50 81-21 51-23 83v-3l-13 7 11-73q10-79 17-99 26-85 72-173l-2 66q2 39 15 60 17-29 14-67 35-1 93 73 59 74 33 100l-76-58" fill="#fff"/><path d="M1300 1382q25 56 160 108 133 52 158 117-97-4-163 23-89 37-98 124l-8-6q-16-83-95-182-110-140-131-197l102 50-9-11 24 8 25 10-17-20-17-22q29 17 61 28l12-5-4-25" fill="#fff"/><path d="M1384 1343l-143-35 64-13v-13q187 0 252 6 156 16 234 72-63-3-76 75-7 44-4 126-35-15-97-58-61-41-95-55l-110-53q-71-36-105-47l87-4-7-1" fill="#fff"/><path d="M778 1114l85-20q-2-43 34-72-42 3-105 26l-102 40-7-12q-24 24-38 52 10 14 6 6l67-20-12 8-13 6q32 1 85-14m533-71q-21-19-67-18l-72 11 40 35-33-23q9 31 49 40l-16-17 27 17q-17 8-8 7 47 3 80-52m-305-17H981l13 21q-25 41-47 54l-8-1 11-11-59 33-59 33 40 13-12 5-13 2q14 13 24 15l27-1q-4-33 40-44 19 30 54 37l-20 6 90-3-3 10 13 13q3 7 25 15 22 9 41 10l-18-13q-1-32 34-41l8-2 22-2-11-6q2-8-20-22l11-65-18-2q-15-19-59-24l11-8-25-3 3-19 2-19-40 12 1-22-19 6-14 23m-71-77h11l-7 6q-15 17-20 39 25-3 78-21 52-17 80-20-71-59-142-4M819 882l-12 4q-5 2-1 14 23 14 52 7 13-22 13-44-11-1-19-9l-13-12-20 40M947 716q-21 46 12 66l6 6 43-5 43-3q-6-10-29-74-16-45-42-64l-33 74M932 194l-33-50 84 42q50 30 68 60 22 39-11 119-32 78-9 109 21 27 82 29 63 3 79-28 11-20 11-89-1-68-13-98 36 47 47 79 12 33 15 95 3 69 7 86 4 19 18 42l20 38q6 19 0 89-4 56 21 76 61 47 117-9 55-56 19-117l69 96q-38 24-17 50 10 13 64 47 107 68 49 127-9 9-50 24l-56 19-47 7-47-1q60 62 112 66 11 23 7 41-4 21-27 29v-22q-33 37-102 46l-117 19-41 12q-31 10-39 16-9 6-36 37-15 17-44 22-23 4-58-8l-54-21-52-14-58 1-93-7q-50-20-39-77l-54-1-52-2-66 12-68 8-65-4q-43-8-49-34-2-9 32-42 33-32 43-31l46-7q-35 3-87-38-47-37-68-74-34-59-7-124 40-73 49-117l-1-44q-3-29 1-43 6-20 18-32l24-26q50-67 92-101 60-50 124-55-49 6-70 74-21 68 18 99 29 23 83 8 51-15 71-47 11-18 11-42l2-45q5-27 19-52l30-46 53-66q35-41 44-69l-13 11q12-23-6-52" fill="#fff"/></svg>