<?xml version="1.1" encoding="UTF-8"?><svg xmlns="http://www.w3.org/2000/svg" xmlns:xlink="http://www.w3.org/1999/xlink" version="2.0" width="100pt" height="100pt" viewBox="0 0 2000 2000" clip-rule="evenodd" fill-rule="evenodd" preserveAspectRatio="none"><path d="M1572 1573l1-3-3-1 2 4m-223-146q-8 23 3 45 11 21 25 18-11-6-17-29l-11-34m252-184q-1 7 5 13l-13 18q15 32 28 101 13 71 14 135 30-29 40-55l2 70q-5 40-27 60-17 16-34 8l-70-14-65-20q9-9 7-28-22-1-21 21-94-16-162-114-72-103-67-234 36 6 39 60 4 72 9 80-4-20 17-37-3 33 23 67 23 28 61 50l3 19q4 14 17 12l20-3-1 17q15 16 42 8l41-1-7-11 11-12 15 1 12-11 13-53q31-70 38-144l6-11-4 11 8-3m5 198v-72q-2-39-13-60l1 72q2 40 12 60m9 86q2-29-9-44 0 16-14 37l-21 33q19-5 44-26" fill="#fff"/><path d="M1502 843q-21 16-47 17-24 0 19-24 7 6 14 4l14 3" fill="#fff"/><path d="M1405 878l-34 35q-25 21-29 6l29-23q16-16 34-18" fill="#fff"/><path d="M983 1651l7-11 14 20q-9-6-21-9" fill="#fff"/><path d="M1739 1100q11-10 3-31l-3-4q3 21-7 20-8-1-14-13l5 20q4 9 16 8M1608 804l33-3q-18-18-36-24-24-9-33 17l36 10m-78-24-107-47q-67-32-109 5l216 42M1144 397q8-13-29-30l-59-10-62-3q-33-5-90-29-81-2-132 17l-14-21-37 15-33 20q-6-2-3-5l3-9-58 43q-36 24-53 40-7 8-36 61-21 41-54 51 14-8 11-26l-4-23q38-123 204-189 165-65 338-27 98-35 182-22 97 15 135 92l5 6q8-6 19-6 21 54 79 108l107 88q129 104 99 207 16 16 31 62 14 43 39 64-5 25 20 132 21 92-6 125l21 3q15-3 13 18h-34q28 1 33 33 5 32-20 36 19 11 15 42-4 37 2 47l1 72-11 6 12 10 1 11-11 6q5 39 26 61l24 20q12 11 10 26l-14 28-18 27 21 12q14 5 21 13 7 7 22 41 11 1 24 9l23 13q-4 13 10 36l19 36 14 46q8 17 35 33-21 52-59 93-29 1-86 41 9-39-3-70-9-22-37-52l11-46q-1-24-31-24-17-13-15-48l-3-53-4 10h-11l-9 25q-6 15-5 27l-20 28q-10 17-11 35-10 4-19 20-8 15-8 25-8 7-8 19l-3 20-12 12q-10 7-11 10-9 18-1 42 7 21 23 37l-17-14-76-15-38-17q-24-12-38-13l-4 20q-14-1-33-16l-28-25q-12 19-15 53l-8 54q-38-1-95-56l-35-32q-26-21-39-22-8 15-25 4-26-16-30-16l-19-47h-9l-18 14-1 9q-23-6-44-47l-33-64-54-74 25 25 30 25 58 27 54 36q11-18 40-4l44 24 75 25q37 5 94-12l16-8 12 9 11 18 13 17q22-34 76-73l-1 11q87-6 124-45l-6 13 40-42 37-42-12-4q0-25 6-64l8-59 10-1q7-25 2-46l-11-44-3-25-28-19-23-100-3-11v-3l-1-2 13-1 14 10-5-18 12 4q3-11-3-19-5-8-4-16l19 20 15 22q8-16-9-41-16-26-32-22 17-9 10-25-10-26-3-51-4-7 2-1 12 15 5 29 17-19 12-42l-19-42q-11 38-73 116l1-14q15-36 12-91-3-45-17-87 0-9-8-3l-20 3 6-12q1-8-6-9 33-34 66-10 33 24 32 79 49-95-19-164-67-68-183-51 12-19-33-20l-57-1q11-4 10-15l10 1q4-13-6-14h-21q16-35-46-36-73-1-80-20 16-62 93-65 74-2 116 51 11-2 5-10-8-11-5-17 47 5 88 34l65 56q7-190-132-209 22-21-96-53-119-32-168-16l-35-5-28-9-63 20-55 15 8-11-79 44 28-30 24-29 14-14 45-19q7-9 5-23-3-16 0-22l28-36" fill="#fff"/><path d="M776 626q-28-2-41 18-13 20-5 48l21 30q13 17 2 30l35-5q-4 38-33 46-29 8-54-16-8-8-28-56-15-38-35-39-5-27 5-57 10-30 30-50 22-21 42-16l47 18 5 18 5-10 3 4 5 2q2 12-4 35" fill="#fff"/><path d="M1365 1051l5 7-1-11-4 4m-35-9q0-13 15-24l7-8 15-41 7-5v9q30-90 160-101 131-12 163 82-73-37-133-40-69-4-118 40l-1 8-2 2-8 67q-5 53 0 85-13-3-29-21l-24-25-6-12-6 7v-6l-4 5-4-7q-2 7 2 37 3 26-4 33-8-18-30-34-3 10-1 35 3 25-1 36l-8-15-10-16-6 71q-17-22-15-48-7-15 0-42l11-42 7 15 7-3 10-42h6" fill="#fff"/><path d="M1045 744l93-16q78-3 139-21 6 11 4 26-36 10-57 32-13 14-40 51l-15 8q-7 14-6 24l-10 1-9 1q-2 3-1 10l-1 9-19 2q-25 72-55 214 3-70-27-163-35-106-85-137l3-12 9-8q-2-22 1-27l-14-14q43 18 90 20" fill="#fff"/><path d="M1190 665q-15 15-36 15-21 0-36-15-15-15-15-36 0-21 15-36 15-15 36-15 21 0 36 15 15 15 15 36 0 21-15 36" fill="#fff"/><path d="M232 1475h1l1-2 3-12h-3l-2 14M586 777l10 5 6 13 12 8 14-2 14-4 3 8 11-13h13l8 38 60-27q-6 3-10 39l3 1-3 6-2 13 19-5-4 10 13-1-9 62 7-2-7 11-2 65 9 1q0 16-10 24l2 31h1l-1 4 6 26 16 26 7 30 4 1 14 45q8 26 8 47l27-2-3 72 8 43q1 22-13 31l4 64 27 6q5 28 11 32l1 41 15 11 14 22-22-2 2-3q-10-3-25-14l-32-32-33-32q-6-10-7-48-1-34-11-41l-11-55q-8-2-11 11-15-6-19-21l-9-29q-9 9-12 24l-13-9-9-18-10-18q-5-11-7-47l-9 16q-17 12-45 61-25 44-52 55v-45q-19 19-49 31l-44 30-48 49q-35 45-67 54 2-9 11-20l14-19-50 27-48 28-57 55-13 25q-32-6-28 33l14 54q-21-25-42 27-13 31-22 76l6 80q4 52-25 61l25 19-14 3-10-9q-96-93-96-249V1527l10-13 14-26 20-49 21-30 17-29 10-4 5-1q32-38 70-65l3-1q26-6 56-40 31-34 62-44-2-65 48-118-4-43 8-85 11-42 34-68-4-121 42-188-1-82 10-123 18-71 73-85-9 9-2 13l16 7q-15 14-16 33l2 33 13 29 8-2q18 23 24 67l8 15 8 17 11 7" fill="#fff"/></svg>