<?xml version="1.1" encoding="UTF-8"?><svg xmlns="http://www.w3.org/2000/svg" xmlns:xlink="http://www.w3.org/1999/xlink" version="2.0" width="100pt" height="100pt" viewBox="0 0 2000 2000" clip-rule="evenodd" fill-rule="evenodd" preserveAspectRatio="none"><path d="M738 743l-45 25q-49 26-67 28-28 3-111-17 10-21 33-41 45-42 107-42 27 0 58 24l25 23" fill="#fff"/><path d="M1035 629l15-32q20-33 45-41l92 4q61 14 54 33l-13 38q-8 20-23 22l-101 3q-81-3-69-27" fill="#fff"/><path d="M833 1021l119-22 169-53q34-11 54 19l23 51q28 55 18 113-5 29-16 47l-45-160-17 63-53-26-51 4-82 9q-40 7-137 43-17 4-27 0-4-1-5-31-1-24-8-12-14 23 39 199-76-99-99-146-15-29-9-50l9-16q23-16 118-32" fill="#fff"/><path d="M847 1467l34 62 114-40 38-8 143 3 25-113 17 52q14 60-2 97-27 62-151 26l-85 2-28 26-44 8-37 4q-10 0-23-23l-29-129q-5-24 28 33" fill="#fff"/><path d="M550 387q103-51 236-84 141-35 240-34 97 0 133 34 32 30 4 64-18 22-77 58-35 21-53 58l-36 69q-18 25-45 25-24 0-36 27-15 33-1 52l38 46 52 84q29 49 16 41l-40-36q-32-31-61-45l-48 1-39 49q-21 24-30 46l-1 5V835q0-33 6-86 8-68 20-92 11-23-4-32l-42-21-54-2q-47 4-102-27-60-33-117-9-30 13-52 38-38 52-57 6-19-46 9-108 26-57 141-115" fill="#fff"/><path d="M629 165 812 32v80L958 37v77l261-48-23 123L1401 47l-51 162 98-3 36 2 14 12q3 11-6 19-8 8-47 94l162 9-140 143 127 78-44 61q14 4 22 15 26 37 38 158 12 136-26 192-38 58-68 83l34 126 38 101 55 153q11 33 24 113 13 84 24 125 18 67 47 101 41 49 136 126l-27 18q-92-74-133-123-32-38-52-110l-26-132q-11-75-22-108l-93-254-1-1-41-155 14-2q20-10 66-79 32-48 21-171-11-111-33-143l-3-2q-15 0-46 40l-3 5-25-18 79-110-132-81 119-121-138-8 9-21q32-71 50-103h-9l-119 4-23 1 38-118-192 133 28-152-252 46V88L781 163V93L622 209l-67-96-69 96-114-30 27 233-71-122 14 248-74-29 61 125-22 2-55 5 3 4h-5q37 76 86 213 56 154 74 245 19 96 93 252 52 114 61 158 16 77-6 152-21 75-72 119-32 29-95 45l-111 14-68-11q-37-22-195-71l-8-35q169 51 218 78l53 8 103-13q56-14 83-38 44-39 63-106 19-67 5-135-9-41-59-151l-54-124q-29-74-42-136-20-100-83-270-56-153-84-199l-23-34 40 4 52-2-76-157 104 40-19-329 61 105-15-130 137 36L555 59l74 106" fill="#fff"/><path d="M589 1520l55 142 114 35q94 31 123 72 58 84 214 65 146-18 178-82 30-59 78-116l71-87q70-100 62-284" fill="none" stroke="#fff" stroke-width="40" stroke-linejoin="round" stroke-linecap="round"/></svg>