<?xml version="1.1" encoding="UTF-8"?><svg xmlns="http://www.w3.org/2000/svg" xmlns:xlink="http://www.w3.org/1999/xlink" version="2.0" width="100pt" height="100pt" viewBox="0 0 2000 2000" clip-rule="evenodd" fill-rule="evenodd" preserveAspectRatio="none"><path d="M978 270h32q132 0 258 39 207 65 318 220 35 48 66 117 37 80 44 137 7 63-2 108l-3 16q-2 20 6 40 14 35 61 85 14 15 50 42 32 23 44 40 20 29 5 63-13 29-35 48l-37 23q-14 7-18 11-5 5-6 13 23 17 25 47 3 38-42 64 26 19 31 47 7 44-39 59l-10 4-4 9 11 15q26 27 32 52 8 36-18 85-41 78-160 78l-56-2-58-1q-41 12-90 46-66 44-113 107-36 48-61 109h-69q36-89 79-146 53-72 129-123 57-38 107-53l37-4 95 4q81 0 105-44 14-27 12-40-2-9-16-23l-22-28q-11-22-5-47 10-42 43-54l-30-13q-36-12-40-33l-6-30 30-7q49-11 64-28-27-17-24-54 3-31 23-51l35-25 25-15 19-28-29-24-59-50q-53-57-72-101-15-36-11-74l3-22q8-34 1-87-5-49-39-121-28-61-59-104-100-140-289-198-115-36-236-36l-29 1Q655 349 518 575q-188 313 31 620 116 161 147 251 34 100 2 214l-88 326-65-2 92-341q27-95 0-175-27-81-139-236-119-167-128-343-9-175 94-346 98-163 281-230 97-35 233-43" fill="#fff"/><path d="M775 548q-19-7-21-27-1-10-11 0-14 14-6 40l11 23h85q54 0-27 90l-35 42q-10 8-28-10-8-8-66-11-34-2 0-37 14-14 12-41l-5-24-54 54q-49 80-36 93l65 8q52-1 53 13 4 45-16 76l-21 22-12 27q-12 31-11 48 2 36 53 104 49 64 59 59 10-5-24-72-38-76-36-99 1-16 25-52l23-34q5-15 15-13 20 2 48 82 11 32 41 36l63 15q35 19 73 6 34-11 42-34l-44-13-71-10q-42 6-81-99-13-36 17-72 28-35 56-29l-3 23q-9 29 7 55 17 29 40 28l77-10q17-1 14 7-11 31-14 61-3 36 31 3 42-46 55-57 21-18-7-42-28-25-61-15l-82 3-17-54q-14-28 27-35l86-15q48-16 70-12 31 6 56 52 28 53 52 74 27 23 70 30 40 6 31-9-7-14-36-27-17-7-22-26-10-36-23-60-19-36-66-69l-42-25 63-36q23-12-7-39l-34-25 17 22q8 26-35 46l-63 43-40-2q-21-15-12-38 16-42 16-66l-16-27q-16-25-22-11-2 6-1 66 2 53-14 71-34 40-95 40-19 0-10-34 11-42 0-55l-58-3-68 7M675 525l12-13 25-16 28-19 29-10 16-11 16-9 39-6 35-10 26 2 19-4 27 1 26 1 49-5 81 5 23 2 30 12 94 29 31 22q18 13 32 16l27 40 29 40q12 21 24 67 9 33 5 72-3 42-19 69l-28 36-38 27-40 2-49-2-23 4-20-8-25-6 2 9 2 9-16-3-16-3q-2 15 9 21l17 10 10 20 7 23q1 26-25 55l-31 24-31 21-42 10-55-4-38-15-37-4q-6 2-11 14l-8 17-19 16-14 15q-3 7-1 18l1 20-20 45-18 45q-11 8-32 8-21 0-30-10-10-32-2-77-41-16-113-74-83-67-84-102-39-37-43-84-4-53 26-131l43-118 23-30 22-33 31-26 12-14" fill="#fff"/><path d="M181 786q-22-50-19-123 3-66 28-123 24-58 67-106 44-50 96-79l-71 98q-31 45-55 103-23 55-35 111-11 60-11 119" fill="#fff"/><path d="M55 647q-18-28-18-76 0-38 16-78 15-37 44-66 30-31 64-45l-39 64q-19 32-32 62-26 62-35 139" fill="#fff"/><path d="M1434 202q56 0 120 32 56 28 101 76 44 45 70 104 27 58 32 120l-59-105q-34-51-72-92-44-46-88-76-49-34-104-59" fill="#fff"/><path d="M1724 231q-47-50-113-88 34-4 78 14 37 17 64 47 27 27 43 67 16 39 15 76l-42-61-45-55" fill="#fff"/></svg>