<?xml version="1.1" encoding="UTF-8"?><svg xmlns="http://www.w3.org/2000/svg" xmlns:xlink="http://www.w3.org/1999/xlink" version="2.0" width="100pt" height="100pt" viewBox="0 0 2000 2000" clip-rule="evenodd" fill-rule="evenodd" preserveAspectRatio="none"><path d="M4 1104V810H588L279 556 663 711 321 232 753 633 633 62 830 621 992 174 963 550q-62 35-107 121-12 22-18 49-7 29-1 51l24 69q9 32-8 69-19 39-6 101 15 79-33 143-31 42-113 100l-45 37L43 1455l472-265-267 10 260-96H4" fill="#fff" fill-opacity=".8"/><path d="M1804 1268l-7 27q-5 18-2 25l-8-4 21 26 25 23 41 55q-7-80 8-139l9-32q4-18-5-34l-18-23-17-24-33 67q-10 16-14 33M1657 725q-4-5-16-6-12 0-21 5l7 2-1 5q12 5 19 24l12 30 24 30 20 29 21 31 19 30q2 22 15 54 12 33 24 46l3-82-2-42-7-40-24-36-33-33-71-49 11 2m-511-93-25 15-25 16-8-1-17 4h-10l-21 24q-8 13-9 29l61-11-13 46q-10 27-6 50 37 8 50 50l9 76 15 1h14q40 53 103 69 65 17 117-15 100-58 117-90 11-23 5-67-6-44-23-59-73-10-190 30 2-16 38-69l41-68-95-9 17-98q-8 4-32 19l-33 18q-14 5-40 20l-40 20M944 684l49-42q28-18 64-25l71-15q42-12 65-31l93-78q85-58 146-44 37 9 163 128l159 162q34 39 58 93 18 41 25 75l10 69q7 49 17 65l50 47q41 38 51 87 11 50-9 97l-36 76q-8 24 6 91 12 52-11 60l-45 4q-13-6-31-39-15-28-56-52l-38-19-168 249q-52 93-28 119l9 8 15 31q7 19 8 50l2 52-5 87H349q-111 0-191-51l18-117q15-62 132-211 34-42 176-109 101-47 186-77 46-17 105-83 65-74 100-93l42-26q17-14 26-41 34-105 20-147l-10-26q-2-10 5-26l18-44 5-24-8-22q-27-35-29-51-33-16-24-74l24-83" fill="#fff"/><path d="M1625 1785l101 2 149 9q38 4 91 22-22 42-54 74-97 97-253 97h-65l23-59q11-29 11-71l-3-74" fill="#fff"/><path d="M4 1051V854H743L37 941H769L127 993l654 58H4" fill="#fff"/></svg>