<?xml version="1.1" encoding="UTF-8"?><svg xmlns="http://www.w3.org/2000/svg" xmlns:xlink="http://www.w3.org/1999/xlink" version="2.0" width="100pt" height="100pt" viewBox="0 0 2000 2000" clip-rule="evenodd" fill-rule="evenodd" preserveAspectRatio="none"><path d="M816 1385l-26 57 42 2q40 5 32 17-13 19-25 68l105 11-63 47-65-12-22-80-38-53-24-75 39-128 23 68-33 34 55 44" fill="#fff"/><path d="M1051 1242l-2-44-13-15q-15-15-24-17l-87-19q95-17 145 25 46 39 166 105 147 84 164 114l25 49q-9 1-35 35-28 37-68 49l-54 11q-3-1 4-5 77-49 98-85 14-25 7-44-8-18-18-10l-16 24q-12 18-26 21l-68 4q19-6 47-41 30-39-6-52-13-5-51 25-22 18-13 9 10-23 7-41v-18l2-4-13 6-23 4q-12-2 7-23l-46 8-14-47-58 5q-21-8 39-24l6-12q1-12-25-18-26-6-44 9l-13 16" fill="#fff"/><path d="M1483 1276l-3 12-14 41q-9 24 3 64l14 35 60-23q-42-21-47-53l-13-76M602 878q-83 73 55 108 115 29 214 15 100-14 281 78l154 104q91 64 67 18-34-65-102-152-73-94-91-86l-5 1-2-1h-1q-5-5 0-34l4-19h4l-3-4 3-28-7-103q-9-86-25-118-15-31-86-85l-68-48q-32 87-72 101-64 24-89 50l-97 91Q630 853 602 878M116 777q-79-61-99-65-15-3 0 33Q72 878 55 919l-45 90q14 9 35 14 40 9 71-14l58-43q21-11 24 19l20 140q3-22 14-46 21-47 59-58 39-10 54 25 8 18 8 37l17 62q22 64 48 76 18 9 6-92-13-114 18-132 36-21 79-92l36-67Q344 968 324 956q-20-12-208-179M699 534q-10 28-29 38l-17 5 39 36q-16 48-11 44l63-24 33 19 38-77 37-9 31-64-33 15q-34 17-37 21-3 8-23 9-20 2-23-15-2-16 61-124l67-112 23 1q19 12 20 36 0 36 37 120 20-50 19-74-1-15-21-57l-39-75q-20-42-24-43-7-3-31 38l-35 57-31 37q-20 25-61 95-41 71-53 103M100 93q56-54 162-74L358 9q63 199 117 177 17-6 31-34l11-27 66 86q78 80 137 49l27-2 29 4-34 115q17-35 52-66 23-20 36-47h1l2-7 6-15q39-102 66-123 18-14 30 25l17 67 35 72 36 75q10 28 5 68l-43 55q37-4 59-19l44 58 60 69q33 40 44 75 10 33 17 109l9 82 2 27q-1 15 4 25l22 36q6 22-41 9l41 19q61 34 104 86l134 161 102 27q42 15 24 79-14 53-63 86-46 29-83 33l-35-68q-15-26-66-60l-111-67q-122-69-161-102-84-71-240-13-41-3-64 21-25 26-46 99l-17 63-16 69q-2 14 18 57l26 60 30 80v-1l9 26q5 7 30 13 27 5 47 0l90-20-32 25-50 35q-23 14-77 24l-20 12-22 18q-3 6-20 6l-33-5q-95-35-109-83-6-24-11-83l-9-90-33-125q-26-86-37-102l-20-22q-9-3-21 13-14 18-29 51-17 37-17 54-1 16-16 3l-23-24-17-24-19-17q-78-14-98 36-10 25-4 53-28-14-52-36-49-43-29-79l-76 16q-8-59-22-106-28-94-59-30L0 351q2-42 15-96Q41 149 100 93" fill="#fff"/><path d="M18 711q19 5 98 66Q304 944 324 956q20 12 233-118l-36 67q-43 71-79 92-31 18-18 132 12 101-6 92-26-12-48-76l-17-62q0-19-8-37-15-35-54-25-38 11-59 58-11 24-14 46L198 985q-3-30-24-19l-58 43q-31 23-71 14-21-5-35-14l45-90q17-41-37-175-15-36 0-33" fill="#fff" fill-opacity=".8"/><path d="M657 986q-138-35-55-108 28-25 134-112l97-91q25-26 89-50 40-14 72-101l68 48q71 54 86 85 16 32 25 118l7 103-3 28-21-29q-15-28-19-67-10-91-76-71-65 19-67 80 0 14 9 25l41 37q42 33 133 25l-5 23q-6 30 0 34h1l2 1 5-1q18-8 91 86 68 87 102 152 24 46-67-18l-154-104q-181-92-281-78-99 14-214-15" fill="#fff" fill-opacity=".8"/><path d="M1952 143q19 33 31 78L1374 402l54-174-124 99 13-209-106 232 82 143 93 335 228 109-177-197 161-20-148-151 549-156v95L1578 627l189 152-219 35 334 265q-495-154-523-172-36-24-85-260-14-69-83-182l-66-99L1322 8h55l-16 177 214-72-119 198 496-168" fill="#fff"/><path d="M1386 828l-93-335-82-143 106-232-13 209 124-99-54 174 609-181q16 62 16 131v61L1450 569l148 151-161 20 177 197-228-109" fill="#fff" fill-opacity=".8"/></svg>