<?xml version="1.1" encoding="UTF-8"?><svg xmlns="http://www.w3.org/2000/svg" xmlns:xlink="http://www.w3.org/1999/xlink" version="2.0" width="100pt" height="100pt" viewBox="0 0 2000 2000" clip-rule="evenodd" fill-rule="evenodd" preserveAspectRatio="none"><path d="M903 1538l46-152 27 81-39 41 66 52-31 68 49 2q47 6 38 20-14 23-29 81l125 14-75 56-77-15-27-95-44-63-29-90" fill="#fff" fill-opacity=".8"/><path d="M1587 1532q-5-12-20-17-17-7-61 29-26 22-15 11 11-27 8-49v-21l2-5-16 7-27 5q-14-3 9-28l-56 11-15-57q-44 16-69 6-26-10 46-29l7-14q2-15-29-21-31-7-53 11l-16 19-2-52-15-18-29-21-104-22q113-21 172 29 46 38 198 126 89 51 122 72 60 39 73 63l30 58q-10 1-41 42-34 44-82 58l-63 14 5-6q90-58 116-102 17-30 7-52-8-22-20-12l-19 28q-15 22-31 26l-81 5q22-8 55-50 22-27 14-44" fill="#fff"/><path d="M1793 1445l-16 48q-11 28 3 76l17 42 70-27q-49-25-56-63l-14-91-4 15M1129 656q-76 28-106 59-55 57-116 108L747 957q-98 86 66 128 139 35 255 18 115-17 335 92 17 9 182 124 109 76 80 22-40-76-122-181-87-112-107-103l-6 2-2-1h-1q-7-5-1-41l5-22 5-1-4-4 4-33q0-49-8-123-11-102-30-140-18-37-102-102l-81-57q-38 103-86 121m62-205q25-59 24-88-1-18-26-67l-46-90-28-52q-9-3-37 46l-42 68-37 43q-24 30-72 113-50 86-64 124-12 33-34 45l-20 6 47 42q-19 57-14 52 5-4 74-28l40 22 45-91 44-10 37-77-40 19q-40 19-43 24-5 9-27 11-25 2-28-19-2-19 72-146l81-134 27 1q23 14 23 43 1 43 44 143M85 895q28 71 12 110-31 75-54 108 17 11 41 16 49 11 86-16l68-51q26-13 29 22 5 53 24 166 4-26 17-54 25-56 70-69 46-12 64 29 9 21 9 44l21 74q26 76 57 91 20 10 7-110-15-136 22-157 43-24 94-109l42-80q-253 155-277 141L292 943 170 836Q58 756 32 749q-20-5 2 40L85 895M326 8l132 5Q560 180 614 137q16-14 26-47l7-30 79 103q93 95 163 58l31-3 36 5-42 137q21-41 62-78 27-25 43-56h1l3-9 7-18q49-124 78-145 23-17 36 29l20 80 42 85 43 90q12 31 6 81l-51 66q44-5 70-23l52 69 72 81q40 48 52 90 12 39 20 130l11 97 2 32q0 18 6 30l26 44q7 25-50 9l50 24q72 40 123 101l160 192 121 32q49 16 29 94-10 37-30 62l-46 41q-54 35-98 39l-42-82q-17-30-78-71-39-26-132-79-140-78-192-122-99-84-286-15-49-4-76 25-30 31-55 117-35 129-38 157-2 17 21 69l30 71 36 95v-1l11 32q7 8 36 14 33 7 56 0l106-23-38 30-59 42q-28 16-92 27l-23 15q-24 15-27 21-3 7-24 7l-39-6q-113-41-129-98-8-29-13-100l-11-106q-10-53-39-149-31-102-45-122-17-23-24-25-10-4-24 15-17 23-35 62-20 43-21 63 0 19-19 4l-27-29-20-29-23-20q-92-17-116 43-12 30-5 63-33-17-62-42-58-51-34-95l-91 19q-17-69-42-124-49-108-86-32L0 335q0-37 15-88Q43 145 113 79 180 15 326 8" fill="#fff"/><path d="M694 909l-42 80q-51 85-94 109-37 21-22 157 13 120-7 110-31-15-57-91l-21-74q0-23-9-44-18-41-64-29-45 13-70 69-13 28-17 54-19-113-24-166-3-35-29-22l-68 51q-37 27-86 16-24-5-41-16 23-33 54-108 16-39-12-110L34 789q-22-45-2-40 26 7 138 87L292 943l125 107q24 14 277-141" fill="#fff" fill-opacity=".8"/><path d="M907 823q61-51 116-108 30-31 106-59 48-18 86-121l81 57q84 65 102 102 19 38 30 140 8 74 8 123l-4 33q-39-35-48-115-12-108-90-84-31 9-55 36-24 29-24 59-1 16 10 30l49 44q35 28 94 32l64-2-6 27q-5 36 1 41h1l2 1 6-2q20-9 107 103 82 105 122 181 29 54-80-22-165-115-182-124-220-109-335-92-116 17-255-18-164-42-66-128L907 823" fill="#fff" fill-opacity=".8"/></svg>