<?xml version="1.1" encoding="UTF-8"?><svg xmlns="http://www.w3.org/2000/svg" xmlns:xlink="http://www.w3.org/1999/xlink" version="2.0" width="100pt" height="100pt" viewBox="0 0 2000 2000" clip-rule="evenodd" fill-rule="evenodd" preserveAspectRatio="none"><path d="M592 152q25-61 35-72 10-12 46-21 39-10 64 9 16 13 45 59 22 36 9 38l-66-13q-68-17-133 0" fill="#fff"/><path d="M1188 546q47 16 114 24 134 16 232-24l160-70 73-34q76-30 125 23 28 31 7 57-18 24-47 24-32 0-72 24l64-6q70-2 94 15 70 47-11 109-35 26-139 7l75 28q67 43 29 117-13 24-119-1l47 46q32 52-44 76-59 18-152-43l-80-64-324 18q12-15 19-47 15-63-11-146l-40-133" fill="#fff"/><path d="M940 1018q-13 47-26 67-10 17-16-22-8-49-20-54l73-35-11 44" fill="#fff"/><path d="M1116 913l36-73 3 43q3 45-3 55-9 16-36-25" fill="#fff"/><path d="M1 631-3 610l4-21v42" fill="#fff"/><path d="M662 742l-53 33q-37 12-169 0l60 59q47 35 97 38 54 3 71-18 14-17 17-79 2-47-23-33M838 385l19 24q16 28 1 48l-29 37q-9 14 9 24 28 16 93 28l-22-71q-31-75-71-90M104 88l214 35 150 28q13 3 62 30l87 3q68-17 132 7 55 20 101 69l95 119q67 82 122 119 68 44 93 94 24 47 24 131l-6 72q-16-8-22 10-16 53-42 75-28 23-51-8-27-38-17-57 27-46 33-77 15-74-92-126-95-46-262-66 70 22 140 50 140 55 142 83 4 45-9 84-19 54-67 73-51 20-44 48 7 28 44 8 43-27 61-34 29-12 39 14 12 31-14 62-28 31-86 46l-140 32q-81 21-86 41-6 23 28 47 33 22 92 37l104 23q52-2 86-63 35-62 80-86 35-20 61-9 20-2 28-66l-3 56q-17 128-65 166-87 69-192 59-60-6-171-35-59-9-71 0-24 15-69 20-139 16-340-124L100 935l98 123q110 125 169 133 22 3-29 33-73 44-92 66l-20 27 16 3q67-1 129 27 106 53 146 67 61 22 124 1l129-53q62-25 84-11 27 18 36 35 9 17 0 29l-68 56 81-35q86-34 108-29 158 35 113 93-25 31-62 46 107-21 138 10 99 99 32 161-37 35-117 61l-72 19q33-4 68 0 70 8 77 49 10 52-13 89-26 42-83 48-55 5-106-27-42-27-64-66l-6-8 9 28q16 57 2 73l-10 9H787q-15-16-47-81-26-51-51-61l-106-37-151-8-364 63Q1 1783 1 1649V766q54 40 127 52 139 21 22-6-53-13-97-73Q15 688 1 631V589q16-34 92-68l73-27q-20-10-65-13-58-5-100 11V352Q1 195 89 103l15-15" fill="#fff"/><path d="M916 205q43-35 143-19 71 12 143 43 55 23 156 144 95 114 88 120-60 24-73 0-14-27-79-98-79-86-144-133-63-46-155-56-46-5-79-1" fill="#fff" fill-opacity=".8"/><path d="M1078 142q43-35 143-19 71 12 143 43 55 23 156 144 95 114 88 120-60 24-73 0-16-28-79-97-78-86-144-134-63-46-155-56-46-5-79-1" fill="#fff" fill-opacity=".8"/><path d="M1230 69q-46-5-79-1 43-36 143-20 71 12 143 43 55 23 156 144 96 115 88 120-60 25-73 0-16-28-79-97-78-86-144-134-63-46-155-55" fill="#fff" fill-opacity=".8"/></svg>