<?xml version="1.1" encoding="UTF-8"?><svg xmlns="http://www.w3.org/2000/svg" xmlns:xlink="http://www.w3.org/1999/xlink" version="2.0" width="100pt" height="100pt" viewBox="0 0 2000 2000" clip-rule="evenodd" fill-rule="evenodd" preserveAspectRatio="none"><path d="M1888 1051l2 6q-2 36-17 70-37 134-155 282-102 127-275 278l-133 109q-87 58-137 28l-3-3q-27-50 31-115l119-115q123-126 196-225 89-124 117-228 40-152-25-318l-4-9q-34-84-101-189L1365 426q-63-77-88-120-44-76-2-117 51-50 130 15 27 22 131 142 281 321 341 548 20 77 11 157M1637 666q8-6 0-16-9-11-7-15l17 20q7 8 2-2-35-95-131-215-61-76-177-196-13 18 1 36l31 32q95 106 264 356" fill="#fff"/><path d="M370 804h6q33 9 64 34 120 71 232 223 97 132 197 338 60 122 72 157 33 98-9 139l-4 2q-55 13-103-60l-80-144q-91-153-167-247-97-120-190-173-137-79-313-58l-10 1-65 11V806q123-32 216-32 82 2 154 30M330 312q-1 22 20 30l43 10q149 42 413 160 4-9-8-14l-14-9 25 8q10 3 1-2-81-62-226-112-95-33-254-71M865 657l-8-6q-74-53-187-105-77-35-222-92-94-30-138-53-78-41-64-98 17-70 118-58 34 5 186 50 413 125 581 281 58 54 94 127l4 3q20 34 24 69 40 133 19 321-18 162-83 382l-54 164q-43 95-101 97l-4-1q-49-29-36-115l40-160q36-173 44-295 10-154-22-256-48-149-191-255" fill="#fff" fill-opacity=".8"/></svg>