<?xml version="1.1" encoding="UTF-8"?><svg xmlns="http://www.w3.org/2000/svg" xmlns:xlink="http://www.w3.org/1999/xlink" version="2.0" width="100pt" height="100pt" viewBox="0 0 2000 2000" clip-rule="evenodd" fill-rule="evenodd" preserveAspectRatio="none"><path d="M696 1989H521l294-239-119 239m-84-792L4 1026V810l608 387M100 1892l-11-12 586-290-410 391q-101-22-165-89M8 1702l-4-59V1509l618-73L8 1702M4 1350V1240l445 63L4 1350" fill="#fff" fill-opacity=".8"/><path d="M1279 1702q44 6 70 24 19-18 32-24l49-21-25-22q-15-13-41-11l-45 9-76 8-44-11-44-8-37 10q-13 7-29 25l-5-1q16 21 55 18l66-3 74 7m5-108 11-13-53 19q-13 2-28-8-17-12-25-12l5 6 23 52 23 9q10 1 22-8l16-30 6-15M991 813q-26-21-42-63-14-38-16-78l-5 95q-3 60 12 92 13 28 73 44 66 15 87 24l3 82-8 10 8-3v-7q22-25 72-34l85-17q-3-16-18-23-9-4-29-9-17-6-24-19l-12-33-94-25q-63-13-92-36m614 61q-15 34-15 66 14-39 45-57 3-19 19-28l31-16q12-10 15-33l8-37q14-25 49-48 19-14 31-17h18l19-1q-19-17-36-20-18-3-41 8-14 7-29 22l-27 25-36 18q-20 10-31 28-20 37-20 90M1034 413l-27 23 14 17-2 22q-20 22-34 61h20l6-19 34-22q19-14 35-19l44-9 45-6 95-10q47 0 94 16-30-11-85-42-55-30-85-42l2-1-38-13-36-4q39 5 72 18l-127 9-27 21m69-243 62-9q39-5 64 0 21 5 80 53l33 26q64 32 74 63 14 51 1 138 20 28 54 36 22 4 63 24l37 19 43 4q48 7 75 23 28 16 104 91l71 72 96 144 44 109v680l-7 78q-69-15-110-57-41-42-54-80-15-40-3-89l-99-7 2-4q-88-49-128-113 2-77-5-143-11-98-42-133-38-43-133-71l-87-20-49 1q125 17 176 67 32 32 51 123 13 64 17 140l-62 12q-60 13-83 28-21 13-51 45l-15-11q-17-14-24-37l-4 45-9 42 16 2-1 2 146-13 87-114 2 39-32 104-9 123-46 101-40 67q-44 67-65 70l-176-14-116-164-25-156-23-66-3-82 58 92 122 13-1-2 14-2-7-42q-5-26-4-45-6 23-20 37l-12 11-43-45q-26-20-108-38-2-87 2-135 5-55 58-115l-33-100-42-14q-46-21-67-57-42-70-62-142-30-111 8-181 38-69 101-121l-63 3-54-3-53 5q-13 4-31 22-18 19-29 23l-40 4-44-2-14-7-11-10q-29-13-32-23h-2l-8-32q-2-12 1-19l2-1-58-2V590H464V450H4V411H464V386H4V335q0-48 5-79H464V110h64V254h68v-4q-1-10 3-19l9-18q5-24 13-33l22-33q7-9 15-11l21-2 21 4 14 15 20 28q12 0 37 10l36 7 81-8 110-9 52-6 53-5" fill="#fff"/><path d="M1690 1585l26 92q17 54 44 83 27-11 81-13l83-4 71-12q-20 98-83 161l-5 5-25-51-33-21-79 8-54-60-29-79-145-77 17-106 12 43q22 0 60 14l59 17" fill="#fff"/></svg>