<?xml version="1.1" encoding="UTF-8"?><svg xmlns="http://www.w3.org/2000/svg" xmlns:xlink="http://www.w3.org/1999/xlink" version="2.0" width="100pt" height="100pt" viewBox="0 0 2000 2000" clip-rule="evenodd" fill-rule="evenodd" preserveAspectRatio="none"><path d="M1880 487l-53 65q-40 40-178 112-158 82-353 156l-37 14 27 25q23 20 32 22l40 6 39 2 59-15 19 6 41 20q97 23 169 116 74 98 46 183l-20 160q-7 49-20 245l35 58q35 70 41 129 5 56 29 189-60 20-127 20H1558q-75-218-80-245-9-45 0-102l11-49-21-248-19-43q-101 248-150 304-34 41-42 162-3 61 0 114l21 107H591l-28-2 45-269-4-126-21 34-87 126-42 49-9 139-19 38-237-27-30-18q21-107 74-220 8-43 36-103 17-35 51-76l21-31 10-10 15-42 74-66q39-110 89-159 16-92 46-113 30-22 131-52l94-26 14-22 54-20 57-18 88-33-31 1 39-27 44-31-20 6q-6 7-24 11l-27 4-44 12-23 6q-263 70-653 157l-45 11h-3v23l2 34-4 33 4 1-31 1-32-14-24-18-10-32-2-9-45 11-4-9-5 1 5 9-66 12V981l79-13-2-8q-3-20 1-34 11-35 33-59l21 17q14 11 17 20 8 6 16 26l9 26q499-84 679-128v-3l52-13h10l74-25-56-1q-57-4-81 0l-2-74q-48-36-50-67l-12-82q-7-53-2-80l18-79q10-50 2-77l16-29 15-31-42 17-42 9 68-47q44-29 62-53-13-9-29-12l-22 3q58-46 175-71l88-8 85 10 6 6q28 1 63 25 29 20 52 47 47 55 47 142l-7 158-31 96-64 40-15 73 216-80 436-165-17 30" fill="#fff"/><path d="M1560 513 1360 623l175-176 100-47-75 113m64 261 110 18-126 51-227-22 243-47m-828 6-364-5L242 671l177-8L796 780m-13-49L359 523 195 295l212 89L783 731" fill="#fff" fill-opacity=".8"/></svg>