<?xml version="1.1" encoding="UTF-8"?><svg xmlns="http://www.w3.org/2000/svg" xmlns:xlink="http://www.w3.org/1999/xlink" version="2.0" width="100pt" height="100pt" viewBox="0 0 2000 2000" clip-rule="evenodd" fill-rule="evenodd" preserveAspectRatio="none"><path d="M489 1637H439V285h50V1637" fill="#fff" fill-opacity=".8"/><path d="M319 285h60V1637H319V285" fill="#fff" fill-opacity=".8"/><path d="M209 285h50V1637H209V285" fill="#fff" fill-opacity=".8"/><path d="M599 105 489 247H209L96 105H599" fill="#fff" fill-opacity=".8"/><path d="M96 1821l110-142H486l113 142H96" fill="#fff" fill-opacity=".8"/><path d="M1626 285h60V1637h-60V285" fill="#fff" fill-opacity=".8"/><path d="M1516 285h50V1637h-50V285" fill="#fff" fill-opacity=".8"/><path d="M1746 285h50V1637h-50V285" fill="#fff" fill-opacity=".8"/><path d="M1796 247H1516L1404 105h502L1796 247" fill="#fff" fill-opacity=".8"/><path d="M1514 1679h280l112 142H1404l110-142" fill="#fff" fill-opacity=".8"/><path d="M984 350l-8 76v971h32V426l-7-76-9-76-8 76M902 190l90-98 88 98 20 1212 143-15 83-18q35-6 35 5l-1 36q-10 26-64 45-52 19-129 23l-67 1v363l-17 29q-28 28-85 28-57 0-82-18l-14-18V1485l-57-3-122-24q-66-20-81-54-15-34 44-27l202 22L902 190" fill="#fff"/></svg>