<?xml version="1.1" encoding="UTF-8"?><svg xmlns="http://www.w3.org/2000/svg" xmlns:xlink="http://www.w3.org/1999/xlink" version="2.0" width="100pt" height="100pt" viewBox="0 0 2000 2000" clip-rule="evenodd" fill-rule="evenodd" preserveAspectRatio="none"><path d="M1001 1078q67 43 107 125 28 58 54 162-57 61-100 161l-68 185q-1-40-14-85l-32-83-45-76q-31-46-36-68-17-68 37-176 42-83 97-145" fill="#fff"/><path d="M632 1269q352 210 356 643-13 7-21-5l-13-19q-158-139-315-240-33-76-34-187-1-107 27-192" fill="#fff"/><path d="M1277 1712l-101 66-85 76q-46 45-76 63-1-421 348-648 79 265 0 374-20 28-86 69" fill="#fff"/><path d="M928 1955q-367 4-592-129-190-111-301-336 298 32 537 174 166 99 356 291" fill="#fff"/><path d="M1668 1825q-224 132-587 130-4-12 18-36l43-41q391-349 812-388h13q-111 223-299 335" fill="#fff"/><path d="M1126 2l9 160q8 130 27 134l86-12 89-25q12 36 55 59l75 37-3 32-4 19q-8 35-37 66l-49 52-155-7 4 711-180-290V495H986V944L808 1228l2-711-155 7-48-52q-30-31-38-66l-4-19-2-32 74-37q44-23 55-59l89 25 86 12q19-4 27-134 5-139 9-160h223" fill="#fff"/></svg>