<?xml version="1.1" encoding="UTF-8"?><svg xmlns="http://www.w3.org/2000/svg" xmlns:xlink="http://www.w3.org/1999/xlink" version="2.0" width="100pt" height="100pt" viewBox="0 0 2000 2000" clip-rule="evenodd" fill-rule="evenodd" preserveAspectRatio="none"><path d="M1532 1208q58-27 98-77 42-53 46-110 4-48-10-85-18-48-60-55-97-17-233 67l-206 121 127 84q71 47 114 61 65 21 124-6M998 116l143-11-13 89-25 128q-15 54-85 209L918 492q-103-26-116 43-7 38 295 393 24-15 78-43l78-41q197-120 382-87 223 40 234 316 4 93-80 162-79 65-186 71-102 7-212-27-91-28-197-88-37-21-99-62l-2 1q-91-77-135-105l-10-2Q834 939 763 900q-64-35-138-50l-147-4q-72 12-130 76-57 61-70 136-15 89 20 142 35 51 100 40 64-11 154-56l146-81 141-82-33 91q-29 75-21 76-95 64-213 105-117 41-187 35-134-13-216-101-88-95-49-217 40-122 109-183 77-67 194-66 209 2 396 84L684 705q-79-89-79-204 1-151 151-287 82-73 242-98" fill="#fff" fill-opacity=".8"/><path d="M1214 136l2-77 41 52q42 61 41 100-4 127-32 261-61 294-219 596-116 224-328 580l54 38q49 45 29 77-11 16-78-8l-66-28-154 238-110-55 160-241-55-44q-52-49-41-68 16-26 77-6l58 25 252-422q249-416 335-797 27-119 34-221" fill="#fff"/></svg>