<?xml version="1.1" encoding="UTF-8"?><svg xmlns="http://www.w3.org/2000/svg" xmlns:xlink="http://www.w3.org/1999/xlink" version="2.0" width="100pt" height="100pt" viewBox="0 0 2000 2000" clip-rule="evenodd" fill-rule="evenodd" preserveAspectRatio="none"><path d="M1693 1759q-27 0-107-27-39-13-65-15-33-17-80-33l-128-44-120-56-122-54-377-150q-137-52-256-84l66 8 203 8q-11-25-44-42l20 3 79 10q48 10 115 34l116 42q57 21 244 114 116 58 196 83l-104-28q51 22 178 122 113 91 186 109m-172-42 38 24q-39 0-72-22l34-2" fill="#fff" fill-opacity=".8"/><path d="M526 430Q726 177 823 109q70-49 188-82L1115 4 680 679Q207 1422 16 1759q-5-15-7-69l-3-72q50-85 66-131 11-5 26-36l24-52L514 744Q745 370 939 101q-15 5-28 22l-25 28-50 33q-34 19-49 33-30 29-67 81l-65 92Q306 889 4 1451V1201l65-111Q296 722 526 430" fill="#fff"/><path d="M1233 1704q-6-15-35-6l-62 21q-40 14-75 12-14 12-52 23-35 11-50 26l-4-3-49 28-55 22-52 22-48 30-16 5-16 6q136-110 196-150l-29 6-31 2-69 18q58-53 130-102-20 2-34-8l61-5 96-3 1-4 19 2 13-2v4l125 16 79 3 6 9q14 20 3 46l-16 37q-2 18 8 114 10 98 17 127H1073l-12-62q-6-35-4-56l-4-53q-2-25 9-24 75 4 131-31 53-35 40-70" fill="#fff"/><path d="M1584 118 1639 0h31q108 0 177 36-49 112-57 146-6 23 2 34 5 8-13 49l-89 231-94 211q-75 165-77 183l-2 34q0 18-8 37-46 102-78 193l-112 258q-64-35-133-82l-1 2q-1-4-90-30l-91-30 35 1q-54-63-99-132l30 18 32 17 29 10q20 7 27 13-52-58-152-196l28 20q12 19 39 41l44 34 48 36q30 23 40 39l5-1q8 14 27 27l32 20 20-50q25-50 49-211 7-57 48-77 19-10 80 33 63 44 70 42 15-6 35-38 20-33 6-35l-47-9q-38-12-77-38-41-28-59-13l-2-20q2-17 28-47 31-35 56-95l43-118 44-160q27-105 42-126 23-32 71-16 47 16 87 67 37 46 37-1 0-49-33-74l-49-38q-44-33-78-18-25 11-26 4-3-17 33-42l37-21" fill="#fff"/></svg>