<?xml version="1.1" encoding="UTF-8"?><svg xmlns="http://www.w3.org/2000/svg" xmlns:xlink="http://www.w3.org/1999/xlink" version="2.0" width="100pt" height="100pt" viewBox="0 0 2000 2000" clip-rule="evenodd" fill-rule="evenodd" preserveAspectRatio="none"><path d="M1826 462V772H1544v282H1234V772H952V462h282V180h310V462h282" fill="#fff" fill-opacity=".8"/><path d="M620 1101q90-34 179-34 87 0 154 32-35-53-98-83-62-29-136-29-67 0-133 25-108 40-169 128-61 87-50 179 30-68 95-125 68-59 158-93M766 868q-54-26-119-26-59 0-116 22-95 35-149 112-54 75-43 156 26-59 83-109 59-51 138-81 80-30 157-30 74 0 135 28-31-46-86-72M381 463q56-21 112-21 75 0 133 35 60 36 83 97 12 31 12 71L867 874l-3 23 27 24 146 281q42 100 37 179-21 366-185 427l-74 13q-91 0-199-73-70-48-156-135-55-57-88-160l-75-307 5-36-18-15-39-271q-25-25-39-61-32-85 19-173 52-88 156-127m51 138q-75 28-118 89-42 60-34 124 21-47 66-86 47-41 110-65 63-24 124-24 59 0 108 22-25-37-69-57-43-20-94-20-49 0-93 17" fill="#fff"/></svg>