<?xml version="1.1" encoding="UTF-8"?><svg xmlns="http://www.w3.org/2000/svg" xmlns:xlink="http://www.w3.org/1999/xlink" version="2.0" width="100pt" height="100pt" viewBox="0 0 2000 2000" clip-rule="evenodd" fill-rule="evenodd" preserveAspectRatio="none"><path d="M365 1837l24 39q12-93-21-125l-4 19-1 22-1 7q11 23 3 38M102 950q27-31 68-33 56-4 99 77 3 12-2 29l6 11 5 13-12 40v5q-11 15-17 68-4 34 15 55 20 21 95 47 69 25 87 53l15 31 13-21q4-19-7-45-12-28-11-44-6-4-14-27l-8-25q-3-15 6-24-7-47 22-80 27-31 68-33 56-4 99 77 3 12-2 29l6 11 5 13-12 40v5q-11 15-17 68-4 34 15 55 20 21 95 47 69 25 87 53 31 47 27 154l25-10q64-27 78-37l14-15 9-17q4-19-7-45-12-28-11-44-6-4-14-27l-8-25q-3-15 6-24-7-47 22-80 27-31 68-33 56-4 99 77 3 12-2 29l6 11 5 13-12 40v5q-11 15-17 68-4 34 15 55l34 24q12-32 29-45l38-18 43-17q64-27 78-37 19-14 23-32 4-19-7-45-12-28-11-44-6-4-14-27l-8-25q-3-15 6-24-7-47 22-80 27-31 68-33 56-4 99 77 3 12-2 29l6 11 5 13-12 40v5q-11 15-17 68-4 34 15 55l40 27q-7-50-6-83 6-84 41-108 12-9 38-19l43-17q57-22 77-37l14-15 10-17q3-19-8-44-11-29-11-45-4-2-13-27l-8-25q-3-15 6-24-8-47 21-80 27-30 68-33 58-3 100 78v16l-2 13 5 10 5 13q0 12-12 41v5q-11 16-17 67-3 35 16 56 21 21 89 45v348l-7-6-3-2-4 27-6 24q-1 16 5 42l11 45q-15 113-88 186-97 97-253 97h-60l-1-5v5H874q-7-34-21-47l-4 19-1 22-1 6H747l2-45 1-82-5-10-11-72q-8-39-27-51l-4-2-4 27-6 23q-1 19 8 53l12 55 2 25 10 24q6 16 0 29l17 26H346q-154 0-250-97-50-50-73-112l4-20q7-43 4-80-4-45-23-63l-4 19-1 22-2 9-1-402 13-5 78-37q19-14 23-32 4-19-7-45-12-28-11-44-6-4-14-27l-8-25q-3-15 6-24-7-47 22-80" fill="#fff"/><path d="M902 783H637V582H902V338h180V582h244V783H1082v244H902V783" fill="#fff"/><path d="M568 931l431 249 431-249V433L999 184 568 433V931M999 71l530 305V988L999 1294 469 988V376L999 71" fill="#fff" fill-opacity=".3"/><path d="M471 8H786L309 284v797l690 399 691-399V284L1213 8h314l320 185v979L999 1661 151 1172V193L471 8" fill="#fff" fill-opacity=".5"/></svg>