<?xml version="1.1" encoding="UTF-8"?><svg xmlns="http://www.w3.org/2000/svg" xmlns:xlink="http://www.w3.org/1999/xlink" version="2.0" width="100pt" height="100pt" viewBox="0 0 2000 2000" clip-rule="evenodd" fill-rule="evenodd" preserveAspectRatio="none"><path d="M425 1480q-15-8-14-63l-22-2q-11 29 4 51 10 14 27 18 21 5 5-4m94-16q12-22 8-36-4-15-37-20l-32-2q-28 19-20 34l21 47 47-4 13-19m1389-139q-8 18-60 54l-666-3-10 31-330 11-25-25-52-1 4 68q16 78 70 131l155 149-101 150-84-61q-95-77-147-160l-79-213-10 77-17-74-20 29q-23 29-32 30l-48 2-51-3q-20-3-40-33l-41 91q-46 93-68 105l-51 5-25-10-49-34q5-24 19-60 28-74 74-139 5-7 0-13l-6-5-60-3 4-129 103-82 558-3 10-37 15 11 483 10 9 31 206-7 78 84 156-13 34-110h64l1 100 18 17q16 20 11 32" fill="#fff"/><path d="M848 892v520l451 260 450-260V892L1299 631 848 892m451-379 553 319v639l-553 319-553-319V832l553-319" fill="#fff" fill-opacity=".7"/><path d="M784 195 267 493v598l517 299 517-299V493L784 195m635 230v734L784 1526 149 1159V425L784 58l635 367" fill="#fff" fill-opacity=".5"/><path d="M1019 791l324 187 325-187V416L1343 229 1019 416V791M945 374l398-230 399 230V834l-399 229L945 834V374" fill="#fff" fill-opacity=".7"/></svg>