<?xml version="1.1" encoding="UTF-8"?><svg xmlns="http://www.w3.org/2000/svg" xmlns:xlink="http://www.w3.org/1999/xlink" version="2.0" width="100pt" height="100pt" viewBox="0 0 2000 2000" clip-rule="evenodd" fill-rule="evenodd" preserveAspectRatio="none"><path d="M1644 686l135-58q-12-49-52-90l-9-7-128 67 46-116q-53-22-97-21l-2 192-107-162q-89 51-113 151l159 50-159 68q8 34 25 63l25 38 151-128-54 200q56 19 119 1l5-166 94 114q78-65 99-153l-137-43M1244 232q-61-19-111-2-26 9-61 40l-59 41q19 2 62-13 43-16 63-14 60 16 84 84 13 38 20 125 23-62 89-117 68-58 132-65-66-28-114-43l-105-36M973 343q-37-42-70-65 56 21 129-23l59-47q134-82 349 10 165 70 310 203 151 139 118 342-33 211-242 256-200 43-325-108-104-126-125-334-3-97-16-156-24-110-94-79-60 27-93 1" fill="#fff"/><g transform="translate(192 689)"><path d="M1111 368V742H743v369H369V742H0V368H369V0H743V368h368m-70 303V439l-369 1V71H440V440L71 439V671H440v369H672V671h369" fill="#fff" fill-opacity=".8"/></g></svg>