<?xml version="1.1" encoding="UTF-8"?><svg xmlns="http://www.w3.org/2000/svg" xmlns:xlink="http://www.w3.org/1999/xlink" version="2.0" width="100pt" height="100pt" viewBox="0 0 2000 2000" clip-rule="evenodd" fill-rule="evenodd" preserveAspectRatio="none"><path d="M1385 234q-49-76-119-55-51 16-122 86L947 462l58 58 180-193q141-131 200-93m-91-94q96 0 163 67 68 68 68 163 0 95-68 162L1167 822 842 497l290-290q67-67 162-67M353 568q-65 35-46 123 15-68 207-75l264 8V542H499q-99 0-146 26m489-71V956H442q-95 0-163-67-67-67-67-162 0-95 67-163 68-67 163-67H842" fill="#fff"/><path d="M1661 1441q-19 19-47 19-28 0-47-19-20-19-20-47 0-28 20-47 19-20 47-20 28 0 47 20 19 19 19 47 0 28-19 47M1127 942q0 28-20 47-19 19-47 19-28 0-47-19-20-19-20-47 0-28 20-47 19-20 47-20 28 0 47 20 20 19 20 47M722 1720q19-20 47-20 27 0 47 20 19 19 19 47 0 28-19 47-20 20-47 20-28 0-47-20-20-19-20-47 0-28 20-47m785-592q0 28-20 47-19 20-47 20-28 0-47-20-20-19-20-47 0-27 20-46 19-20 47-20 28 0 47 20 20 19 20 46m-161 307q-19-19-19-47 0-27 19-46 19-20 47-20 28 0 47 20 20 19 20 46 0 28-20 47-19 20-47 20-28 0-47-20m-206-260q28 0 47 20 20 19 20 47 0 28-20 47-19 19-47 19-28 0-47-19-20-19-20-47 0-28 20-47 19-20 47-20m-280 27q28 0 47 20 20 19 20 46 0 28-20 47-19 20-47 20-28 0-47-20-20-19-20-47 0-27 20-46 19-20 47-20m309 374q0-28 20-47 19-20 46-20 28 0 47 20 20 19 20 47 0 27-20 47-19 19-47 19-27 0-46-19-20-20-20-47m-31 139q20 19 20 47 0 28-20 47-19 20-47 20-28 0-47-20-20-19-20-47 0-28 20-47 19-19 47-19 28 0 47 19M987 1602q-19 20-47 20-28 0-47-20-20-19-20-47 0-28 20-47 19-20 47-20 28 0 47 20 20 19 20 47 0 28-20 47m595 91q0 28-19 47-20 20-47 20-28 0-47-20-20-19-20-47 0-27 20-46 19-20 47-20 27 0 47 20 19 19 19 46" fill="#fff" fill-opacity=".8"/></svg>