<?xml version="1.1" encoding="UTF-8"?><svg xmlns="http://www.w3.org/2000/svg" xmlns:xlink="http://www.w3.org/1999/xlink" version="2.0" width="100pt" height="100pt" viewBox="0 0 2000 2000" clip-rule="evenodd" fill-rule="evenodd" preserveAspectRatio="none"><g transform="translate(209 517)"><path d="M743 126q30 49 41 118 11 71-4 125l-40 88q-23 58-10 127-16 39-78 51-75 14-91 27 3 18-4 41-8 0-15-13-6-12-22-7-8 2-8 19l-4 22-16-11-13-14q-6 0-14 15-6 11-11 6-9 3-8-9 1-12-4-12l-20 1-18 3-4-27q-2-14-8-22-11-3-17 16-6 18-12 13-8 0-15-18-6-14-26-7 3-38-28-53-27-14-67-5-21-14-22-47l-3-64q-5-32-33-89-29-60-37-97Q102 165 247 70 390-24 574 6q48 8 97 44 46 33 72 76M548 445l17 48q35 11 75 1 42-11 53-38 6-13 1-37-6-31-5-42-38-19-83-13-50 6-61 38-6 16 3 43m-78-6q-25 8-42 44-17 36-15 80 13 11 45 8l7-15q3-12 10-14 5 15 20 22l33-1q6-14 4-45-13-10-31-39-17-29-31-40M334 361q-27-4-59 16-31 19-36 38-2 8 4 25l9 32 136 8q1-15 16-30 12-13 9-31l-29-32q-30-23-50-26" fill="#fff" fill-opacity=".8"/><path d="M281 662q13 11 17 38 5 32 12 43 8 0 23 9l22 9q5-2 4-14 0-13 4-15 9 4 13 29 11 3 19-5 8-9 18-7l6 16 10 12q10 2 17-5l12-11q8-1 15 10 6 10 18 6l11-9 6-15 24 7q14-1 21-11 0 19 16 28 16-1 19-15l-2-30h21l11-38q6-24 22-28-9 30-11 68l-6 68q-49 93-181 80-133-14-161-113l5-53-5-54" fill="#fff" fill-opacity=".8"/><path d="M865 911q-36 55-93 11-39 13-114 48-87 40-105 59 49 21 133 76 80 43 168 40l18 15 15 18q-11 54-28 78-25 35-71 25-10-11-18-33l-15-37q-47-33-161-91-111-57-128-58-43-1-190 75-162 82-185 140-29 22-62-9-30-28-29-57 2-32 54-46l95-20q45-14 129-60 88-47 114-56-13-16-85-58-70-41-96-49-9-3-106 0-59 1-64-46-2-24 21-57l37-50q35 3 66 40l50 59q36 28 119 64 88 40 124 64l149-63q82-39 132-81-1-51 37-53 37-1 49 40 35 8 45 31 8 20-5 41" fill="#fff" fill-opacity=".8"/></g><path d="M1309 753q8 34 25 63l25 38 151-128-54 200q56 19 119 1l5-166 94 114q78-65 99-153l-137-43 135-58q-12-49-52-90l-9-7-128 67 46-116q-53-22-97-21l-2 192-107-162q-89 51-113 151l159 50-159 68M895 271q56 21 129-23l59-47q134-82 349 10 165 70 310 203 151 139 118 342-33 211-242 256-200 43-325-108-104-126-125-334-3-97-16-156-24-110-94-79-60 27-93 1-37-42-70-65m446-10-105-36q-61-19-111-2-26 9-61 40-36 32-59 41 19 2 62-14 43-15 63-13 60 16 84 84 13 38 20 125 23-62 89-117 68-58 132-65l-114-43" fill="#fff"/></svg>