<?xml version="1.1" encoding="UTF-8"?><svg xmlns="http://www.w3.org/2000/svg" xmlns:xlink="http://www.w3.org/1999/xlink" version="2.0" width="100pt" height="100pt" viewBox="0 0 2000 2000" clip-rule="evenodd" fill-rule="evenodd" preserveAspectRatio="none"><path d="M1117 604h-79V525H951v79H872v87h79v79h87V691h79V604M934 315q16-31 60-29 45-2 61 29l9 31q5 23 2 30 17-1 7 31l-13 38q1 8 11 13l9 15q6 13 21 16l29 2q40 5 65 26 13 10 18 40l7 24 5 23 13 72 16 41 12 32 11 15 13 12 29 41 32 39 9 19 8 20 7 16 9 13 17 7 17 2q13 3 29 16 18 15-3 18l-11 3q-3 2-1 11l13 20 18 15 18 14q11 11-7 11l-20-2-11 3-11-2-9 4-10 3-9-4-9-6-22-6-13-22-13-17-6-11-10-2-11-1-6-10-32-34-28-32-30-32-53-67-19-33-13 1q-9 8-7 19 7 30-2 80l1 70-2 20 2 17 11 17 30 40 8 24 13 21 17 32h3l6 16 10 24 14 23 15 21 11 22 2 26-3 5v3l-6 9v4l7 11 10 10 7 24q3 15 10 23l13 25 10 28 8 32h-14q2 18 7 31 8 15 12 49 2 21 14 51l9 23 6 23-12 23-18 20q-6 9 4 48 9 33-12 41l-26 3-27-2q-32 0-33-25l2-19-1-17q-5-6-18-12l-19-10-16-34-13-52-20-51-16-21-5-24q-1-30-8-43l-12-20-10-20v-26l-1-26-10-26-12-26-15-49-27-48q-17-28-20-49l-2-18h1l-10-16-10-11-11 11q-10 11-13 26l-1 8-4 16q-5 19-22 43l-20 38-15 49-23 52q-2 9-1 26v26q-3 15-22 40-6 13-8 43l-5 24-16 21q-15 29-20 51l-13 52-16 34q-4 5-19 10-13 6-18 12-6 7 2 36-1 25-34 25l-27 2-26-3q-21-8-11-41 10-39 4-48l-19-20q-12-13-12-23l6-23 10-23 13-51q4-31 12-49l8-31H662l8-32 10-28q6-17 13-25l10-23 7-24 9-10 8-11-8-13q-4-11-1-26v-1l2-7q2-11 23-38v-1l24-51 6-16h6l17-32 13-21q3-16 8-24l30-40 11-17q4-6 0-17l-6-18 2-18 2-19-2-57q-2-36 3-58 2-11-7-19l-13-1-19 33-53 67-30 32-13 17-14 15q-27 22-33 34l-5 10-12 1-10 2-6 11-13 17-12 22-23 6-9 6-9 4-10-3-9-4-11 2-11-3-20 2q-18 0-7-11l18-14 18-15 13-20-1-11-11-3q-32-5 26-34l18-2 16-7 10-13 7-16 16-39 32-39q18-29 30-41l13-12 10-15 12-32 16-41 13-72 12-47q5-30 18-40 25-21 65-26l29-2 21-16 9-15 11-13-13-38q-9-32 7-31-3-7 2-30l9-31" fill="#fff"/><path d="M1960 1523q0 171-272 286-272 114-678 114-406 0-678-114Q60 1694 60 1523q0-130 165-231 161-100 432-143l-40 102q-219 37-343 116-114 72-114 156 0 113 237 203 253 97 613 97 360 0 613-97 237-90 237-203 0-85-118-158-128-79-352-116l-40-102q275 42 441 142 169 103 169 234M1277 215q19 87 66 110 58 29 85 88 25 54 19 122-11-31-45-85l-24-37-32-31-36-23q-21-15-31-30-10-16-17-41l-11-44q-5-23-30-48-23-33-41-40l58 17q32 14 39 42m-11 272-50-28q-72-35-72-50 5-129-75-181-38-25-79-31h-4q-43 6-79 31-81 52-75 181 0 15-72 50-40 19-51 28-35 31-49 101L641 699q-25 90-51 128 20-56 16-131l-8-96q0-47 8-62 18-37 51-65 24-21 68-47l3-2 19-25 14-42q29-90 61-129 57-70 166-70 108 0 166 70 33 40 60 129 17 56 33 67l4 2 68 47q33 28 51 65 8 17 8 62l-8 96q-5 75 16 131-25-38-51-128l-19-111q-14-70-50-101M689 215q7-28 38-42l59-17q-11 4-23 18l-18 22q-25 25-31 48l-10 44-18 41-30 30-36 23q-17 11-32 31l-25 37q-34 54-44 85-6-68 19-122 27-59 85-88 45-23 66-110" fill="#fff" fill-opacity=".8"/></svg>