<?xml version="1.1" encoding="UTF-8"?><svg xmlns="http://www.w3.org/2000/svg" xmlns:xlink="http://www.w3.org/1999/xlink" version="2.0" width="100pt" height="100pt" viewBox="0 0 2000 2000" clip-rule="evenodd" fill-rule="evenodd" preserveAspectRatio="none"><path d="M1054 1345l63-274-79-493 16 767m243 84 1 73-177 2 8 113h-46l7 376H956l-7-376H915l-1-110-162 2-1-72 162-2-1-65-104-317L995 178l214 856-98 331 5 67 181-3" fill="#fff"/><path d="M193 1978q-53-24-95-67-37-36-59-79l570-439-416 585" fill="#fff" fill-opacity=".8"/><path d="M575 1988l189-330-71 330H575" fill="#fff" fill-opacity=".8"/><path d="M1296 1992l-46-382 175 382H1296" fill="#fff" fill-opacity=".8"/><path d="M1848 1959l-464-601 600 427q-23 75-74 126l-62 48" fill="#fff" fill-opacity=".8"/><path d="M2002 1505v136l-370-250 370 114" fill="#fff" fill-opacity=".8"/><path d="M2002 846V974l-424-18 424-110" fill="#fff" fill-opacity=".8"/><path d="M1379 698 1842 48q43 23 72 55 50 55 71 127L1379 698" fill="#fff" fill-opacity=".8"/><path d="M2001 324l1 163-383 176 382-339" fill="#fff" fill-opacity=".8"/><path d="M1298 8h160L1251 511 1298 8" fill="#fff" fill-opacity=".8"/><path d="M607 8H731l51 383L607 8" fill="#fff" fill-opacity=".8"/><path d="M45 150l34-49q54-60 141-81L654 583 45 150" fill="#fff" fill-opacity=".8"/><path d="M2 411V354q0-73 17-135L474 637 2 411" fill="#fff" fill-opacity=".8"/><path d="M2 806V640L527 856 2 806" fill="#fff" fill-opacity=".8"/><path d="M2 1493V1310l565-76L2 1493" fill="#fff" fill-opacity=".8"/></svg>