<?xml version="1.1" encoding="UTF-8"?><svg xmlns="http://www.w3.org/2000/svg" xmlns:xlink="http://www.w3.org/1999/xlink" version="2.0" width="100pt" height="100pt" viewBox="0 0 2000 2000" clip-rule="evenodd" fill-rule="evenodd" preserveAspectRatio="none"><path d="M1845 1283q2 28 6 40 6 3 9 21l1 26-9 20q-7 12-6 23l-28 2-33 10-52 16-47-48-2-8-8-48 2-22 5-20q14-13 63-22 46-8 58-23l19-23q8-7 16 16 5 13 6 40" fill="#fff"/><path d="M1606 1360l7 20 8 18 15 16q7 10-1 21l-15 12-12 15-14 9q-10 5-13 9l-10-2-16-45-9-17q-2-5 6-15l24-27q17-16 30-14" fill="#fff"/><path d="M1783 1622q4-4 15-6l16-3 17-6 17-3q21 1 26 48 4 16-6 28l-10 7-7 9-5 1q2 14-23 10-24-4-29-14l-10-5-6-34q-4-22 5-32" fill="#fff"/><path d="M1264 478l-26-22q-12-16-12-31l47-26q30-14 42 12 17 40 2 52l-25 13-28 6v-4" fill="#fff"/><path d="M644 289q31 26 53 36 2 20-9 48l-18 46-6 18q-3 7-13 10l-34-2-32 5-32 2q-22-4-68-34v-2l1-1v-3q-18-17-26-49-9-36 6-56 8-13 41-26 43-4 48-14l4-1 5-6q3-7 9-13 19-14 31-13 20 40 40 55" fill="#fff"/><path d="M482 730l-52 28-24-3-22-12h4l-10-15q3-7-4-21l-13-20 11-13 35-12 36 3 11 12 8 16 13 17 7 20" fill="#fff"/><path d="M291 1386l-12 16-13 12q-11 5-22 0l-16-11-1-3h-5l3 9q7 0 7 18l1 24 16 19 4 10-1 12 6 52q2 25 21 44 12 12 39 28 34 20 64 12l54-17q23-12 36-33l15-22 6-20q-17 4-32 13l-10 11-12 10-55 6q-23 0-38-24-7-12 5-47l4-11-3-10q-3-4-12-7l-14-4 6-15q3-9 9-13 12-9 28-11l-27-4-28-7-16-15-7-22m67-135q10 15 7 31l-5 34-1 16-10 15q-14 16-31 16l12 2q8 14 22 13l27-6q-1-13 20-32 18-18 13-36l-22-31q-18-19-32-22m387-116-70 3q-19-6-51-24l-18-68-10 31-16 27-24 11q19 0 34 12l12 17 9 20-2 27-6 26-4 23-11 20 7-1q-5 11-7 37 10 0 26-10l26-15 45-8-22-46-1-23-8-20 44-3 17-11 17-10 3-8 10-7m463 337-107 22-108 15-28-1-28 1-50 10-33 2-33 2q-7 1-23 8l-24 6 8-7q-20-1-45 16l-41 28h50l49-6 75-10 78-2-11 4-1 3q-22 6-59 28l-56 30 83-13 87-10 110-24 103-20q57-14 100-33l-99 5-80 9-20 5-20 2q30-18 91-36l51-23q31-15 51-18l-70 7m-60-270-37-18-51-17q-23-9-51-7l-77 9q-43 10-65 35l-21 24-19 25-5 13v14l-10 30-80-5-1 1 9 12 8 12 20 14 30 9q18 2 29-7l13-19 10-22q27-24 34-39l22-21q15-12 30-10 2 25 8 38l11 14 2 19 6 57 2-23 5-26 7-18-5-27q-6-17-4-27 1-10 10-18l17-14q1-15 23-15l34 2 38 7 11 8 11 6 38 39q29 24 35 42l39-2 12-16q6-11 14-13-22 0-42-14-25-17-30-30l-15-10-15-12M956 985l-4-34 4-8-4-2v10l-8 7-13 50q-7 30 7 50 6 9 25 11l30 1 27-5 26-6q-16 1-41-12l-37-25-9-17-3-20m71-357-26-3-52 4q-19 12-26 33l-2 26-5 24-2-1 1 2 1-1q3 15 25 9l31-12 41-4q18 1 28 17l8-9 10-38-1-20-10-17q-8-1-21-10m719 98q-5 8-7 31l-15 32q-21 40-50 51l-29 5q-9-2-10-6l-2-14-4-29-6-28q0 89-29 135-30 44-119 40-51-3-70-18l-8-11-8-12q-6-6-28-16l-4 7v2 36q-2 20-13 32l-29 32-17 26-20 22v4l-20 14-21 16q34 0 53 11 23 13 26 23 9 3-1 44l4 20 12 15q-3 7-1 23l1 24q-4 20-16 33 4 11-4 26l-13 24-26 39q52-7 105-74 33-43 29-109-1-10 3-19l9-16 5-31 12-64 44-5q30-5 32-24 18 14 68 17l34-6q18-6 28-15 10-1 22-17l17-25 5-14 3-14q3-9 13-10l19-2 47-6q25-6 37-22 14-17 23-52 10-28 8-35-6 19-23 38-18 21-37 25-17 4-45 0l-45-10 30-22 11-17 7-18q17-35 13-86m-64-583q12 9 19 29l5 6h7l36 45 27 47 18 58 9 27 11 25q11 6 21 42 14 7 28 50l14 61 14 25 9 28q16 44 16 123 0 24-13 51l-24 46q-13 27-18 56l-3 31-8 29q-11 16-47 24l-57 3-17 26q-10 2-21 20l-13 29-28 24-28 21-38 5-40-2-30-8-28-4q-15 4-21 49l-26 118q-12 47-50 93-42 49-87 63 2 25 24 71l15 47 7 16q2 3 14 7l55 20q35 12 55 23 62 34 85 84l19 56 7 62q4 68 42 93 8 36 24 39 11 33 32 40l-21 21-1 7-36 31H1346l-6-5-26-23-27-17-55-12q-87-23-95-58l-20-20-16-25-17-19-28-2-129 27-17 68q-11 44-28 65l-19 21H419q29-37 35-57l7-5 5-6 9-34 8-34q1-47 10-74l21-60q22-40 24-60l10-6q2-9 18-23l22-21 7-1q6-17 38-42l49-37 20-21 2-31q-5-55 2-76l-50-6q-30-8-36-31l-27 31q-8 12-18 40-18 35-52 61-13 62-38 93-45 53-73 59-49 10-102-24-46-29-73-73-14-24-20-55l-5-59q-2-34-13-60l-31-51-12-23-9-21-22-17q-14-10-16-20-2-8 3-25 3-15-3-27l-32-48 41-39q29-22 46-29l1-8q12-5 21-18l30-15 35-3q8 3 24 16l23 18 26 14q17 11 19 20 3 13-9 28l-23 19 16 14 13 15 4 10 21-28 17-30q8-10 30-24l29-23q8-10 11-35l4-38q11-48 22-71l35-20q25-16 37-21l106-10 1-7 19-14q13-10 15-20l38-30q24-18 45-21h27q14 0 23-10l12-23 4-24-5-60-11-23q-7-14-7-25-1-20 12-51l10-32 9-33q10-22 45-44 22-14 62-24-14 9-2 18l24-3 23-11 61-21q-28 15-43 43l27-3 26-3q-4 13 6 13l7-5 14 11 8 16 5 17q11 38 16 101l6 37q4 30-6 34-19 7-24 18-4 9-2 32l65-13 32 8 31 5q12-31 56-44l74-6 41 9 37 3q47-13 76-15-1-26 24-83l18-32 14-32-5-29-8-29-24-47q-9-30-24-44-7-6-50-26l-52-26q-14-11-17-22l-4-29-17-56q-10-41 14-44-1-5 1-7l54-24q33-13 38-40h49l19-6 12-11 35-4 39 5q16-5 33 4 19 10 20 27" fill="#fff"/></svg>