<?xml version="1.1" encoding="UTF-8"?><svg xmlns="http://www.w3.org/2000/svg" xmlns:xlink="http://www.w3.org/1999/xlink" version="2.0" width="100pt" height="100pt" viewBox="0 0 2000 2000" clip-rule="evenodd" fill-rule="evenodd" preserveAspectRatio="none"><path d="M1890 987l-17-172-142-271 159 443M1628 320l291 455 8 212 15 38 60-21v47l-43 15 27 64-26 8 42 120v248l-120-341-20 6-22-63-94 33-14-42 93-33-13-37-122-164-62-545" fill="#fff"/><path d="M1534 979l10-121-64-206 54 327m-119 88-5-31 69-11-4-27-64-129 26-385 144 352-22 147 7 29 77-12 5 30-76 12 10 48-19 3 140 904-47 3h-11l-139-899-15 2-7-47-69 11" fill="#fff" fill-opacity=".8"/><path d="M217 1147l62-161-6-306-56 467m140 72-5 44-108-14-5 69-27-4-79 620-35-31-38-44 70-556-20-3 8-67-98-12 5-44 99 12 5-39L92 949 281 434l57 537-88 193-3 41 110 14" fill="#fff"/><path d="M615 763l1 29 78 4-2 31-76-4v49l-19-1-57 1129H482L539 867l-15-1 3-47-70-3 2-31 69 3 2-28-37-139L598 249l69 374-52 140m11-126-21-214-14 330 35-116" fill="#fff" fill-opacity=".8"/><path d="M1162 1296l-38 4 78 700H1091l-77-689-28 2-10-90-133 15-7-60 133-15-6-53L852 857l84-737 245 689-54 281 9 55 150-17 6 60-146 16 16 92m-84-218 30-231-104-400 74 631" fill="#fff"/><path d="M808 1685l24-81-14-150-10 231m-47 80 2-33-49-3 1-22 49 3 1-20-26-97 73-261 49 262-36 98v21l55 2-1 22-54-2 1 34-14-1-11 232H760l12-235H761" fill="#fff" fill-opacity=".8"/><path d="M1348 1778l-64-129 26-385 144 352-21 147 6 29 77-12 5 30-76 12 11 48-20 3 20 127h-58l-19-119-14 2-8-47-69 11-4-31 68-11-4-27m59-19 10-121-64-206 54 327" fill="#fff" fill-opacity=".8"/></svg>