<?xml version="1.1" encoding="UTF-8"?><svg xmlns="http://www.w3.org/2000/svg" xmlns:xlink="http://www.w3.org/1999/xlink" version="2.0" width="100pt" height="100pt" viewBox="0 0 2000 2000" clip-rule="evenodd" fill-rule="evenodd" preserveAspectRatio="none"><path d="M931 1206q120 113 174 269 56 155 36 323-14 105-56 202H764l9-8 36-40q69-86 91-192 23-109-6-218-28-111-105-197l-39-39-42-32q-48-29-99-39-112-25-215 24-49 23-93 64-38 37-58 88-18 51-12 107 7 57 38 104l36 43q21 20 43 29 51 22 105 10 27-6 51-21 26-14 41-36 34-44 20-100-7-26-26-48l-10-10-10-7-23-10-52 5q-28 12-38 35-10 27 4 50l7 11 2 1v1l8 6 24 5 23-11q8-7 8-21 0-14-12-20-11-7-21 3l-12-12 19-11 23 2q20 10 25 34 5 24-12 42-15 18-36 21l-43-5-10-5-4-3-18-20q-26-37-12-81 14-40 54-62 38-21 82-15 22 3 40 13l19 11 16 13q31 31 44 69 14 39 10 82-5 43-28 79-23 34-57 59-30 23-73 38-81 26-163-3-37-12-75-41l-56-57q-51-64-68-147-17-83 5-164 22-83 79-147 53-62 124-103 146-85 316-63 85 12 158 49 33 16 72 43l63 53" fill="#fff"/><path d="M1182 173q39-27 72-43 73-36 159-49 169-21 316 63 71 41 124 103 57 64 79 147 22 81 5 164-17 83-68 147l-57 57q-36 28-74 41-82 29-164 3-44-15-72-38-34-25-57-59-23-36-28-79-5-43 10-82 13-38 44-69l16-13 18-11q18-10 41-13 44-6 81 15 41 22 55 62 13 45-12 81l-18 20-4 3-10 5-43 5q-21-3-36-21-17-17-12-42 3-23 25-34 24-11 42 9l-12 12q-10-10-22-3-11 6-11 20-2 13 8 21 10 10 23 11l24-5 4-3 5-5 8-11q14-24 3-50-8-22-37-35l-52-5q-14 3-24 10l-10 7-9 10q-20 22-26 48-16 56 20 100 15 22 41 36 21 14 50 21 55 12 106-10l43-29 36-43q31-47 37-104 7-57-12-107-18-51-58-88-42-40-92-64-104-49-215-24-49 10-100 39l-42 32q-19 16-39 39-77 86-106 197-28 107-5 218 23 109 91 192l17 21 17 17 1 2h1l42 39 93 65q96 57 208 81l220 8q83-10 162-43v361l-136 15q-164 8-323-39-160-47-291-141-71-52-122-104l-54-59-51-67Q929 986 909 818q-20-167 35-323 57-158 175-269l63-53" fill="#fff"/></svg>