<?xml version="1.1" encoding="UTF-8"?><svg xmlns="http://www.w3.org/2000/svg" xmlns:xlink="http://www.w3.org/1999/xlink" version="2.0" width="100pt" height="100pt" viewBox="0 0 2000 2000" clip-rule="evenodd" fill-rule="evenodd" preserveAspectRatio="none"><path d="M1520 179q36 26 20 56-7 12-3 27 7 22 2 25l-11 18-7 22-9 20-6 21 5 27 21 3 20 1 35 15 8 5 19 30 5 4 2 5 12 7 35 5q23 0 40 11l32 23 10 9 18 16 16 16q9 6 6 19l-5 20-15 21-5 8-11 2q-20 1-50-10l-41-10q-22 0-36 18 22 200 9 530-2 45-21 124-20 81-23 120-10 121-10 176-2 91 13 151l76 18q46 11 44 52l-141 4-130-8-15-66-11-69q-2 5-13 73-7 45-29 58l39 46q26 26 21 65-53 17-104-1-44-16-72-50 5-27 0-41l-19-26q14-206 36-312l21-67 21-69q16-84 17-224 0-169 5-222 2-21 18-60 17-40 18-60 4-53-63-214-51-122 13-174l34-5 33-8q2-23-11-43l-19-35q-8-37 2-71 10-37 40-56l54-2 60 32" fill="#fff"/><path d="M929 334 842 480l141 93q140 114 136 220-3 106-129 144-63 19-125 16H4V859l603 12 174-4q142-11 179-50 37-39-86-130L744 603 642 748 474 349l455-15" fill="#fff" fill-opacity=".8"/><path d="M865 1040q62-3 125 16 126 37 129 143 4 106-136 221-70 57-141 93l87 145-455-15 168-398 102 144 130-83q123-91 86-130-37-39-179-50l-174-4L4 1134v-94H865" fill="#fff" fill-opacity=".8"/></svg>