<?xml version="1.1" encoding="UTF-8"?><svg xmlns="http://www.w3.org/2000/svg" xmlns:xlink="http://www.w3.org/1999/xlink" version="2.0" width="100pt" height="100pt" viewBox="0 0 2000 2000" clip-rule="evenodd" fill-rule="evenodd" preserveAspectRatio="none"><path d="M530 534q57-50 92-58 11-26 10-37 60-27 118-41l46-27q24-18 54-25l61-6 60 11 58 24q38 16 61 14l3 3 18 6 18 5-77 9q-33-4-47 0l-15 9-14 8-40 8-41 7q-25 6-72 27l-1 4q-9 1-25 9l-26 12-26 8q-10 3-22 13l-33 38-17 18-22 12q-22 12-41 40l-33 49q-34 45-56 97-30 73-23 143l-3 68-12 65q-4 31 5 69l19 62 19 58 17 29 9 25-22-22q-16-19-31-54l-26-56-16-26-13-27-8-66-7-65q-6-40-6-63l-2-65q1-43 24-54l21-44q15-28 12-48l8-1 23-53q16-34 2-60 12-16 19-52m22 756 9 7-8-1-1-6" fill="#fff"/><path d="M1023 202q41 1 53 13l11 6q-36-8-79 11l-73 33-87 5q-64-5-89-1-50 8-82 30-29 20-57 62-34 51-114 124l-47 46-15 33-12 33q-14 28-40 57-29 32-57 46-28 107-36 161-13 89 0 163l10 36 7 36-1 44-4 43 6 68 3 7q19 48 20 73-15-31-23-80-19-48-23-70-26-108-32-162-15-144 31-352 6-29 30-67l38-65q10-23 36-59l40-57q42-70 77-112l54-47q36-29 46-51l112-15 113-6 124 13 60 1" fill="#fff"/><path d="M902 1556l-2-3q-23-14-35-16h78l23 4 23 2 31-13 83-6 74-18 1-4 27-6q20-8 27-9l27-4 23-11 37-33q11-12 20-16l22-10 46-35 39-44q37-39 66-90 39-67 40-139 1-30 11-67l20-64q8-29 4-68l-12-64-12-60-13-31-7-26 20 25q13 20 24 57l19 59 23 56v66q-2 22-1 65l-1 64-6 65q-7 43-31 51l-26 41q-18 26-17 46h-8l-30 50q-19 32-8 59-13 13-26 49-59 42-98 48-13 24-14 35l-123 27q-17 2-48 21-27 15-56 19l-62-2-59-18-55-31q-34-21-58-21m641-831-7-8 7 2v6" fill="#fff"/><path d="M952 1741q36 8 81-12l74-35 89-6q66 4 92 0 51-9 83-31 29-21 58-65 34-53 116-128l47-49 15-33 12-34q14-29 40-59 30-33 58-48l35-165q13-92-2-168-16-49-18-74l1-44 3-44-7-72-2-5q-21-49-22-75 16 32 24 80l25 73 18 82 16 84q18 146-27 361-6 30-30 70l-38 67-37 60-40 60-78 115-54 49q-38 31-48 53l-114 16-115 8-128-11-62-1q-42-1-54-13l-11-6" fill="#fff"/><path d="M150 545q6-58 65-114l92-92 44-27q26-20 48-24 12-12 40-19l47-3-46 10q-28 28-76 47l-41 73-23 38q-15 25-26 32-5 46-15 69-11 27-42 51-32 66-21 133 3 22 20 78 11 51-9 75v40q0-11-8-18l-13-15q-4-9-6-44l-2-40-6-39-14-30q-9-17-11-31-3-15 0-35l6-35-1-40-2-40" fill="#fff"/><path d="M1833 1251l-6 74-13 67-14 67-8 65-12 68q-13 49-73 94-2 3-1 9l-13 12-11 14-14 12-18 6-90 23-101 3-105-3q27-10 72-14l74-6v-3l136-68q74-48 91-111l7-37 6-38 13-32 14-34 23-71 19-70q11-53 11-98 14 21 13 71" fill="#fff"/><path d="M734 705q127-91 196-116 112-39 240 1 81 26 149 94 58 59 101 143 46 90 30 177-11 60-68 165-96 177-311 178-185 1-375-117l-47-93q-30-53-35-102-5-50-3-128l3-128q4 110 53 228 52 124 128 195 80 74 228 59 134-14 232-85 90-66 106-168 15-93-35-183-49-89-139-132-98-46-207-16-90 25-141 111-50 84-31 177 26 121 152 133 111 12 206-56 12-129-36-184-54-13-86 17-16 16-38 62-7-70 29-115 92-30 156 30 65 60 37 156-21 74-104 115-78 38-160 26-73-11-136-49-68-42-105-103-36-61-21-147l32-145m272 232 1 9-9 8 8-17" fill="#fff"/></svg>