<?xml version="1.1" encoding="UTF-8"?><svg xmlns="http://www.w3.org/2000/svg" xmlns:xlink="http://www.w3.org/1999/xlink" version="2.0" width="100pt" height="100pt" viewBox="0 0 2000 2000" clip-rule="evenodd" fill-rule="evenodd" preserveAspectRatio="none"><path d="M1656 423l48 104-4 34q54-6 90-27l27-23 4 14v26q-7 33-59 48l-57 10 11 31-96-12-158 177-18 83 34 153 3 144 207-28 69 1 55 32-8 59-53 132v90l80 43 46 2 3 28-120 31-68-30-52-58 40-66-34-130-130 62-124 26-142 63 112 98-8 96-34 18-24 45-57-2 13-29-28-18 46-28 8-40-171-81-87 7-61-33-49 74-55 34-73-68 46-97 65-31 40-4-44-108-133-79-48 29-55 11 35-36-71-66 20-18 33 29-20-46 88 29 27 22 22-14 175 72 98 114 194-136 59-15 2-165 37-148-1-63 135-150 79-42q-82-11-178-40-106-36-197-78l-135-70q-81-52-119-97-49-56-38-97 9-39 69-50l140 4q88 14 192 56 59 23 109 53 56 33 92 67 37 37 41 63 6 27-15 42-39 27-141 8-53-12-100-29-62-21-112-53-61-38-74-70-14-33 18-45 24-9 75-1 67 13 97 31 24 15 40 38l-48-21q-82-33-116-11-10 5-1 19 9 16 43 37 29 16 74 33l72 18 89-4q22-17-14-53-41-42-134-80-80-34-158-50l-131-12q-50 5-58 29-11 27 29 74 47 51 136 98l53 27h1q54 20 89 38l47 17q161 55 296 67l21 2 8-140h29M593 1384l-28-21q-101-65-210-64-102 1-192 72l-42 42q12-37 28-64 32-55 90-87 54-31 121-36 95-8 183 38 66 42 114 98l66 91q30 68 28 139 0 83-42 151-40 66-100 91-59 27-122 15-70-12-126-62-33-29-55-69-24-44-29-95-5-51 13-95 17-44 46-71 58-50 131-33 36 9 67 31 39 30 57 70 24 50 11 102-12 48-51 74-29 19-67 13l-35-10q-19-8-27-25-6-12-7-35l1-20 26 26q24 21 54 18 22-2 41-16 13-13 15-32 5-27-9-53-11-23-40-42-25-15-49-20-52-8-83 22-32 31-29 83 2 30 17 59 15 29 39 50 45 42 101 57 56 15 107 0 49-17 75-56 33-48 31-115 0-71-42-139l-26-35h-1l-50-47m430-832 54 41 39 38 57 22-3 19-34 6-29 2q-12 4-37-14l-11-24-34-22-44 3-18-30-26-4-29-25-39 10-40-12-83 19-23 33-3 133 13 20 119 24 41 31 145 24 9 21 33 57-16 56q-4 6-31 8L979 886l-153 9-94-46-54-10-77-114 2-89-7-29-51-11-84 21-56-2 21 87 34 40-2 33 33 55 29 10-7 17 8 65-29 25-25-39 2 30-14 7-7-26 9-57-86-82-5-58-24-77-46-41 5-127-43 8-53 3-41-26-4-80 42-31 48 29 60 25 10-33-11-55 26-43 47 3 32-26 46 2 19-15 100-10 19-9 70-12 10 41-47 25 16 17v14l-26-8-24-25-30 12-49 32-43 3-43 18 104 85 108 32 181 6 80 60 118 33" fill="#fff"/></svg>