<?xml version="1.0" encoding="UTF-8" standalone="no"?>
<svg xmlns:ffdec="https://www.free-decompiler.com/flash" xmlns:xlink="http://www.w3.org/1999/xlink" ffdec:objectType="shape" height="100.0px" width="100.0px" xmlns="http://www.w3.org/2000/svg">
  <g transform="matrix(1.0, 0.0, 0.0, 1.0, 0.05, 0.0)">
    <path d="M99.95 100.0 L-0.05 100.0 -0.05 0.0 99.95 0.0 99.95 100.0" fill="#000000" fill-opacity="0.003921569" fill-rule="evenodd" stroke="none"/>
    <path d="M47.55 24.1 L42.0 26.55 49.95 10.5 57.85 26.55 52.4 24.1 52.4 75.8 57.85 73.45 49.95 89.5 42.0 73.45 47.55 75.8 47.55 24.1" fill="#ffffff" fill-rule="evenodd" stroke="none"/>
    <path d="M24.1 52.4 L26.45 57.9 10.45 50.05 26.45 42.1 24.1 47.5 75.7 47.5 73.4 42.1 Q81.45 46.05 89.4 50.05 L73.4 57.9 75.7 52.4 24.1 52.4" fill="#ffffff" fill-rule="evenodd" stroke="none"/>
    <path d="M29.95 33.45 L27.7 38.95 22.1 21.95 38.9 27.8 33.35 30.05 69.9 66.55 72.1 61.0 77.95 77.85 60.95 72.2 66.5 69.95 29.95 33.45" fill="#ffffff" fill-rule="evenodd" stroke="none"/>
    <path d="M33.35 69.95 L38.9 72.2 22.1 77.95 27.7 61.0 29.95 66.55 66.5 30.05 60.95 27.8 77.95 22.05 72.1 38.95 69.9 33.45 33.35 69.95" fill="#ffffff" fill-rule="evenodd" stroke="none"/>
  </g>
</svg>
