<?xml version="1.1" encoding="UTF-8"?><svg xmlns="http://www.w3.org/2000/svg" xmlns:xlink="http://www.w3.org/1999/xlink" version="2.0" width="100pt" height="100pt" viewBox="0 0 2000 2000" clip-rule="evenodd" fill-rule="evenodd" preserveAspectRatio="none"><path d="M1805 201 413 317l31-64L1819 138l-14 63m-110 34 105-11-224 1715H1424L1695 235M1886 62l-3 53L363 241l21-38L1886 62M1109 301l65-5-72 305-75 10 82-310m270 1638H1236L1565 250l92-11-278 1700M749 1236l-91 230 43-243-248 79 196-135-196 2 200-36-210-76 36-96 814 273-26 121-396-143-56-6 58 126-124-96M526 327l100-6L73 1671q-6-36-6-75V1399L526 327m-123 7 85-3L67 1315V1077L403 334M505 922l54-143 840-38-96 444L505 922m918-313-11 73-838 46 27-68 822-51" fill="#fff"/><path d="M1879 165l74 240-114 1518q-58 16-117 16h-67L1879 165" fill="#fff" fill-opacity=".8"/></svg>