<?xml version="1.1" encoding="UTF-8"?><svg xmlns="http://www.w3.org/2000/svg" xmlns:xlink="http://www.w3.org/1999/xlink" version="2.0" width="100pt" height="100pt" viewBox="0 0 2000 2000" clip-rule="evenodd" fill-rule="evenodd" preserveAspectRatio="none"><path d="M1750 202l54-3 96 116-123 177 99 464v159l-33 218-35 58-49 74-54 48-101 131-84 36-120 168-9 149H808l-31-7 162-223q51-260 84-317l65-143 40-100V1052l-84-150-30-180q-2-21 3-61l6-37q209-117 275-132 41-9 157-46l107-35 36-66q-2-31 1-62 6-64 32-69l46-6 56-5 17-1m-48 682-24 96q-24 105-25 144-3 62-52 164l78-78q38-69 38-92l-15-234m-29-317-30-63-39-3-369 209q-32 18-89 36l77 30 26 102q3 13 34 47l38 46 16 48 6 30 84 69q-1-65 17-98l42-103q32-80 48-87l84-21 63-12-8-230m-617 979-3 64 88 77-81 249 144-190q34 39 68 49 15 4 58-11l62-22q-67 13-96-11-37-30-106-171l-20 11-50 9q-25-2-47-28l-17-26m324-306 13 49q18 53 40 70 23 17 92-21l65-41-47-6q-53-8-77-21-24-13-43-48l-13-33-30 51M634 1103 420 1286 380 986l94 94L749 790l45 393 114-137 92 330-113-116-192 196-61-353" fill="#fff"/><path d="M1750 202l-17 1-56 5 7-195 75 7-9 182M96 961l25-42L1 877V711l197 79 21-36 189 90-112 186L96 961M700 285l31-27L882 403 716 544 549 415l37-32L164 51q73-38 170-38h46L700 285" fill="#fff" fill-opacity=".8"/></svg>