<?xml version="1.1" encoding="UTF-8"?><svg xmlns="http://www.w3.org/2000/svg" xmlns:xlink="http://www.w3.org/1999/xlink" version="2.0" width="100pt" height="100pt" viewBox="0 0 2000 2000" clip-rule="evenodd" fill-rule="evenodd" preserveAspectRatio="none"><path d="M1699 869q-79-254-263-302-91-24-167 3 135 28 185 57 85 49 148 173 35 68 43 145l4 115q2 33-4 60l-7 47 7-6q36-61 54-134 21-91 0-158M284 647q-44-1-75-32-31-30-31-74 0-44 31-75 31-31 75-31h4q50 0 95 59 54 69 139 92 150 41 257 36 86-3 131-34l22-18q142-107 320-107 221 0 378 156 156 156 156 377 0 230-198 397-206 175-449 115-326-81-431-35-21 9-63 45-33 28-73 34-50 7-87-32-36-38-36-91 0-42 26-76 26-33 66-43 31-8 78 0l77 14q83 11 91-67-9-95-23-121-51-94-215-76-84 9-155 93-63 74-142 63-84-12-138-63-58-55-58-133 0-82 58-139 57-58 138-58 47 0 87 20l1 1 27 16q49 28 98 41 70 19 124 2 128-39 133-83 7-60-192-144-80-34-131-34l-115 5" fill="#fff"/><path d="M1560 173q299 151 440 380v891q-30 198-257 395-113 98-221 157l97-115q83-106 10-65-73 42-307 65l-219 15 416-150-345 14-352 16 231-43q272-65 476-170 141-72 236-196 95-125 121-271 61-335-234-590-174-151-566-137-196 7-357 44l563-177-292-106 366 30-77-92q122 30 271 105" fill="#fff" fill-opacity=".8"/><path d="M1450 169l139 76q75 45 210 151 74 59 144 149l56 78 1 257-21-71q-31-86-77-162-148-243-399-297-110-24-248-26l-116 2 330-66-157-64 167 27-29-54" fill="#fff"/><path d="M2000 1393l-28 68q-40 85-103 167l-178 222 47-111-189 51 100-94-114-6q-126-6-186-4-32 1-4-7l108-32q214-68 333-161 113-87 175-257l39-153v317" fill="#fff"/></svg>