<?xml version="1.1" encoding="UTF-8"?><svg xmlns="http://www.w3.org/2000/svg" xmlns:xlink="http://www.w3.org/1999/xlink" version="2.0" width="100pt" height="100pt" viewBox="0 0 2000 2000" clip-rule="evenodd" fill-rule="evenodd" preserveAspectRatio="none"><path d="M473 309q16-11 20 21 5 38 18 43 22 8 27 38 6 31-10 68L445 640l37-1q47-24 85-59 80-73 95-20 7 25-13 61-16 29-39 50l-81 54q-68 45-86 69-25 34-48 90-23 58-2 44 33-23 230-69 38-8 58 28 20 37-20 43-53 7-259 113l-22 22q-26 28-41 63-16 38-11 61 3 14 21 36 16 19 60 27 48 8 76-10l111-76q86-60 111-67 31-9 70 12 37 20 42 46 5 25-34 65-38 40-90 65-42 20-119 80l-120 94q-39 30-68 68l-59 71q-55 56-169 104l-33 53-75 107Q0 1782 0 1664V1202L79 984q40-129 157-312 99-155 143-194 22-19 52-91 28-69 42-78" fill="#fff"/><path d="M1110 1027l-44 9q-20 7-41 25-33 29-33 54l13 26q-1-18 11-42 25-47 94-72m241-135q-39-15-55-52-16-33-5-62l2-5q18-48 77-53 68-7 124 70 43 60 82 84l291-28 127-14h6V932l-312 33-507 37q-12 35-19 85-11 95-74 122-55 24-93-9l-4-4q-38-33-23-90 18-66 110-91l31-10H999q-176-4-378 74-100 40-168 81-13 8-26 8-27 0-43-24-10-17-6-37 5-21 22-32 78-48 188-91 217-84 413-79l350-13m-1-125 43-4q53 6 101 62l-24-38q-15-17-39-30-38-20-62-11l-19 21" fill="#fff"/></svg>