<?xml version="1.1" encoding="UTF-8"?><svg xmlns="http://www.w3.org/2000/svg" xmlns:xlink="http://www.w3.org/1999/xlink" version="2.0" width="100pt" height="100pt" viewBox="0 0 2000 2000" clip-rule="evenodd" fill-rule="evenodd" preserveAspectRatio="none"><path d="M984 181l9 47-8 406-18 192q-15 145-12 189l1 221q-1 180 1 214 12 135-38 197-39 47-455 343H339q-158 0-254-97-58-58-79-144v-16l427-199 113-42q61-22 75-51l55-120q38-103 46-213 9-129 15-167 6-38 24-81 19-44 46-145 29-104 40-171 31-189 42-340 4-53 25-69 14-11 41-6 16 4 29 52M1991 1689q-12 125-94 204-92 97-249 97h-57q-416-296-454-343-51-61-39-197l2-214q-2-182 1-221 3-44-12-189l-19-192-8-406q3-23 9-47 13-48 30-52 27-5 41 6 21 16 25 69 12 162 41 340 11 66 40 171 28 100 47 145 18 43 24 81l15 167q8 110 46 213 16 44 55 120 14 29 75 51l113 42q90 43 368 155" fill="#fff"/></svg>