<?xml version="1.1" encoding="UTF-8"?><svg xmlns="http://www.w3.org/2000/svg" xmlns:xlink="http://www.w3.org/1999/xlink" version="2.0" width="100pt" height="100pt" viewBox="0 0 2000 2000" clip-rule="evenodd" fill-rule="evenodd" preserveAspectRatio="none"><path d="M1015 776l24-2-24-18v20M948 264q7 25 7 58l43 34 8 10q32-11 85 1l5 2h3l7 2 30 10 25 8q44 29 77 75l20 21q41 86 112 167l61 81q56 77 59 89l11 68 5 54q9 99-38 134-33 100-77 173l-22 78-2 8q31 20 71 76l52 80 58 95 26 37 3 5 36 37q17 27-8 60l-7 16-8 20-32 68q-35 61-86 66l-17 3q-24 0-40-20-17-20-9-43l10-22 9-11 8-16 5-23q7-16 18-25v-1l10-75 3-10-12-22-9-12-2-2q-34-47-83-97l-74-59-23-7-3-2q-15-9-22-28-27-51-29-137-13-10-16-28l-1-13v-5l-19 50-2 4 1 3 12 77 12 15q53 80 54 149 11 30 18 116 7 74 29 112l13 19 2 26q8 20 1 38-9 20-33 26l-125 18-59 1-60-3q-49 2-55-26-5-29 46-39l58-13q28-15 66-42l-28-120-34-106q-30-56-31-89l-22-50q-8-16-5-33-12-20-9-40l8-143q3-88 22-140l31-81 24-82 2-8-14-29-81 3 1 4-1 13 4 68-2 9-4 10q-30 39-92 94-49 58-83 82v9l-2 2-14 16q-6 13-28 31l-2 1-1 27q1 14 8 24 6 8-2 13-9 5-15-3l-2-3 2 4q3 8-7 12l-8 3q-5 0-8-4-11-15-14-41-1-3 1-7l5-21-9 13-2 15q2 11 11 27 4 7-2 13l-12 1q-27-17-18-50l3-6 3-13-10 12 1 5q2 20-18 20-20 0-22-20-1-14 5-24l15-20 25-37q29-41 73-42h1l54-65q16-84 67-149l1-27-22 3-44 19q-14 6-29 18l-24 28-5 3-12-2q-6-5-2-12l5-7 15-17 1-1 2-7 17-18-17 2-51 42-10 13q-5 8-14 3-9-5-3-13l2-5 10-15 7-5q26-28 48-36l4-3-4-1q-10 0-10-10-16 4-41 19l-42 21q-9 3-11-6-3-10 6-13l22-11 4-7 36-19 41-11q-40-14-99 8-9 4-12-5-3-8 4-13 48-35 76-28l50 15 2-1q29-5 97-1l-12-51-29-67q-12-29-11-56-2-19 4-35 0-16 3-28l3-31q-33 11-75 0-41-12-70-39-19-19-36-52-19-36-24-69-7-22-7-50-17-48 37-106 32-36 89-43 13-10 27-11l40 3 9 2q80 19 84 119" fill="#fff"/><g transform="translate(1368 278)"><path d="M78 12Q92 26 89 47q4 30-19 41L31 95Q14 92 5 75-10 44 22 12 33 0 50 0 67 1 78 12" fill="#fff" fill-opacity=".3"/><path d="M282 356l4-1 30 4q15 8 19 24 5 21-7 36l-10 16q-21 21-46 7-20 2-32-13-23-26-5-56 8-11 21-16l26-1" fill="#fff" fill-opacity=".3"/><path d="M267 521q18-2 31 11 12 12 12 29 0 17-12 28l-26 15-6 2q-29 18-51-4-11-11-12-28 0-18 12-29l28-19q13-6 24-5" fill="#fff" fill-opacity=".3"/></g><g transform="translate(119-83)"><path d="M918 1027q21-12 14-35-6-23-14 34v1m723 850q77 46 63 63l-779 26q-763 10-764-1l304-31 323-25q80-16 111-31-13-19-2-42 11-25 35-21l29 4q23-6-29-31-33-3-39-38-6-34 29-41l-3-41q-35 1-39-34-4-34 28-45l11 2v-3l19 1-26-10-53-11q-27-3-37-28-10-25 11-43-12-11-13-27-1-16 11-30l5-7q-30 8-44-19-14-27 5-47-10-21 4-42 15-22 42-16 25-19 10-22l-7 1v-2l-11 1q-35-6-28-41 7-34 39-38 18-3 57-44 42-45 12-57l-21-17-55 47q2 15-6 24l-46 67q-15 21-41 18-54 71-60 142-3 28-32 38-29 11-43-18-4-33-39-33-24 2-35-23-25-3-36-25-12-23 10-41l9-7 7-7q-11-17-6-36 6-21 27-27l26-28q3-23 17-47 13-20 39-18 28 1 33 26l11-9 11 3q-19-10-19-35 0-24 19-34 32-13 53-40-6-7-6-19l-69 12-227 29-225 24 199-33 200-37-31 5q-16 1-30-13h-3q-14-1-24-32-9-28-6-48 1-12-261 5L1 928q-2-12 267-50l288-47q18-14 37-7 17 6 30 25 25-20 45-26 16-6 31 4l1-10 5-15-1-14q-6-14-3-30-9-12-7-29l-41 1-41-2-9-2v1q-35 8-64 22l-30 4q-16-3-25-18-8-14-4-30 4-18 19-25l17-10 15-16q12-6 26-6l10-5V629H320L76 622l187-22q212-18 211-33-13-1-23-10-10-9-12-21l-16 4h-3l-3 1h-3l-18-4q-28 10-45-7-18-18-11-39 13-33 36-40l17-1h4l16-1 11-1q23-9 49-12l26-16 1-1q0-13 9-24-8-9-9-23-1-14 5-25h-3q-13-3-21-14l-10 2-5-1 6 21v6q0 16-12 28-12 13-28 12l-27-4-10-2h-3q-17-1-28-12-12-12-12-28 0-31 30-39l25-4q-10-11-8-24l2-14-12 6q-107 28-170-18-22-15-19-39 3-24 28-34 42-14 83 0l8-1q37 0 71 15 22 4 27 24 12-12 29-12 18 0 31 15L381 115 286 1q10 4 123 127L526 260q1-26 50-43 20-7 66-15l2-2L611 1q6-6 42 87 37 97 44 100 7 0 11 4l36 3 1 1 27-9q23-12 44 4 20 15 16 38l15 6q12-70 72-95 30-12 48 6 21 23 6 49l-14 26q14 14 13 32-1 19-20 29l-20 10-5 23-12 14q16 23 5 46l-1 1 6 3q14-10 33-8 18 2 29 14l17-24 6-6 21-41 3-4-2-1q-41-30-23-65 6-13 20-18l6-4-3 4q10-9 24-11 11-8 26-7 15 2 25 12 12 11 12 28l-4 17 58-93q77-127 76-121L1100 363q32 0 38 30l244-258-180 226 141-124q127-114 134-103 3 5-120 140L1232 413l-5 22-33 48q-15 15-35 11-19-4-29-21-5 16-17 22 13 3 23 15 9 11 10 24 25 5 32 33h16q32-24 79-35 0-10 5-18 10-16 34-24l16-1 4-2 31-4q15 3 24 18 8 14 4 31-4 17-18 24l-6 7-24 11q-4 4-9 7 16 18 10 38 431-322 266-169L1344 679l-9 16q11 13 11 28 1 16-12 27l-62 35 27 3q24-1 35 21 9 20-2 40l36-6q22-5 37 10 14 14 13 33 15 11 19 29 4 21-10 35l-21 25 3 1q19 4 26 20 7 15 0 32 24 5 29 33 5 29-18 41l-46 24q16 15 11 39-6 24-28 28l-16 21q9 20 1 37-8 16-27 21l-19 19-27 2 12 8 6 21-7 21q8 13 5 27-3 16-17 25l16 16q20-8 41 7 20 15 16 36 21 2 34 22 13 21-1 39l-8 10q20 8 26 28 6 21-11 37-24 20-8 10 24-17 47 6 22 22 10 46l43-11q28-3 36 24 8 25-8 45-21 25-61 51l53-6q30-2 38 29 7 31-18 45 33 7 102 48" fill="#fff" fill-opacity=".3"/></g></svg>