<?xml version="1.1" encoding="UTF-8"?><svg xmlns="http://www.w3.org/2000/svg" xmlns:xlink="http://www.w3.org/1999/xlink" version="2.0" width="100pt" height="100pt" viewBox="0 0 2000 2000" clip-rule="evenodd" fill-rule="evenodd" preserveAspectRatio="none"><path d="M1020 411l191 553-177 254L861 960l159-549" fill="#fff"/><path d="M848 427q133 52 73 52-109 0-129 3-52 8-18 42l129 98q76 58 18 58-80 0-166 46-92 48-52 88l116 79q66 43 42 67-20 21-131 102-88 71-38 71l200-27q129-16 85 27-72 72-274 230l-234 37L610 591l93-216 145 52" fill="#fff" fill-opacity=".6"/><path d="M1208 960q-24-24 42-67 103-66 116-79 40-40-51-88-86-46-167-46-58 0 19-58l129-98q34-34-18-42-20-3-130-3-60 0 73-52l145-52 93 216 141 809-234-37-110-88q-119-97-164-142-43-43 85-27l200 27q50 0-38-71L1208 960" fill="#fff" fill-opacity=".6"/><path d="M431 1060q9-129 15-167 6-37 24-80 19-44 46-145 29-104 40-171 31-191 42-340 4-54 25-70 14-11 41-5 17 4 30 52l9 47-8 406-19 192q-15 144-12 189l2 221q-2 180 1 214 12 135-39 197-39 48-455 343l-17 10q-38-22-67-51-92-92-92-250v-97l145-68 113-42q61-22 75-51 39-76 55-120 38-103 46-214" fill="#fff"/><path d="M1476 157q11 149 42 340 11 67 40 171 27 101 46 145 18 43 24 80l15 167q8 111 46 214 16 44 55 120 14 29 75 51l113 42 65 29v136q0 157-96 250l-25 23q-396-283-430-325-51-62-39-197l2-214q-2-182 1-221 3-45-12-189l-19-192-8-406q3-23 9-47 13-48 30-52 27-6 41 5 21 16 25 70" fill="#fff"/></svg>