<?xml version="1.1" encoding="UTF-8"?><svg xmlns="http://www.w3.org/2000/svg" xmlns:xlink="http://www.w3.org/1999/xlink" version="2.0" width="100pt" height="100pt" viewBox="0 0 2000 2000" clip-rule="evenodd" fill-rule="evenodd" preserveAspectRatio="none"><path d="M1882 74l117 203V1647l-325 249 90-267-478 129 409-575H1133l590-297-592-283 633 36-349-429 402 198 65-334" fill="#fff" fill-opacity=".8"/><path d="M1198 1407q-20-93-114-182 13 115-26 200-54 121-247 289-10 8-21-5-12-12-22-6-4 6-1 20l1 20q-35 24-58 56-10 14-25 61-12 42-16 42-12 2-29-19-14-18-20-38-4-11-2-40l6-56q6-64 23-85 45-25 73-24 48-51 109-151 66-108 103-152-8-18-14-74-6-49-24-75-45-73-55-105-26-68-127-207-75-104-120-154-31 48-36 85l-13 68q-8 25-25 43l-38 27-29 1q-7-8 16-43 29-45 34-64 9-29 11-98l4-99-25-23-61-2-78 22-108 10q-64 1-90 12-10 4-34 25-19 17-36 18-6-18 11-52 17-33 38-48 47-35 181-53 131-17 182-59-8-17-54-38-46-21-59-52-14-32 4-76 18-43 53-60 39-19 84 13 55 40 82 40-7 23 17 47l41 37q3 15-28 29-35 16-39 26 161 90 302 277l124 206 2 10q216 226 257 314 45 99 47 122 6 56-49 151l-69 144q-52 103-73 89l-21-22-1 7q-4 12 2 40 6 30-2 63l-22 60-19-1q-20-26-41-94-17-57-20-86-3-26 61-61l-7-15q138-216 130-255" fill="url(#A)"/><defs><linearGradient id="A" x1="-16384" x2="16384" gradientUnits="userSpaceOnUse" gradientTransform="matrix(.04.03.03-.04 694 1160)"><stop offset="0" stop-color="#fff"/><stop offset="1" stop-color="#fff"/></linearGradient></defs></svg>