<?xml version="1.1" encoding="UTF-8"?><svg xmlns="http://www.w3.org/2000/svg" xmlns:xlink="http://www.w3.org/1999/xlink" version="2.0" width="100pt" height="100pt" viewBox="0 0 2000 2000" clip-rule="evenodd" fill-rule="evenodd" preserveAspectRatio="none"><path d="M1307 8h171Q1082 72 748 455 411 842 310 1358q-16 77-26 171-9 86-9 166 0 153 29 295l-24-3-29-180-5-72 9-253 24-158q92-468 384-836Q949 125 1307 8" fill="#fff" fill-opacity=".8"/><path d="M1307 8Q1084 81 879 259 676 436 526 684q-8 47 3 53l7 1q36 0 144-120L782 497 399 1189l52-166q47-167 20-173h-3q-14 0-42 23-102 221-147 451l-31 238-1 195 26 199 7 31q-59-9-104-31-53-299 12-632 52-260 167-500 2-19-6-22l-7-2q-36 0-144 121L96 1042 479 349 427 516q-47 167-20 173h3q8 0 22-8Q560 460 732 286 903 113 1097 8h210" fill="#fff"/><path d="M1995 272l4 37q-407 44-757 432-352 392-457 924-16 77-26 171-8 85-8 156H720l7-175 27-186q107-542 468-936 359-392 773-423" fill="#fff" fill-opacity=".8"/><path d="M1619 476l123-75-611 550 113-148q109-151 88-167l-13-4q-15 0-52 16-147 147-261 336-117 192-189 408-4 82 13 86l3 1q34 0 118-133l78-134-234 700 17-160q12-160-16-160-15 0-40 30l-2 9-31 238-3 123H627q0-175 36-361l11-51-8-8h-3q-34 0-118 134-42 66-78 133l234-701-17 161q-11 160 16 160l6-1q76-264 218-500 138-229 322-404V539q-4-6-16-6-44 0-176 75L931 682l612-550-113 148q-109 151-88 167 4 4 13 4l15-3q296-229 603-263 17 45 22 87-279 21-551 222-24 41-17 50 6 6 17 6 44 0 175-74" fill="#fff"/><path d="M2000 695v55q-258 184-447 485-194 310-265 667l-15 90h-35l6-44 14-80q72-368 276-685 197-308 466-488" fill="#fff" fill-opacity=".8"/><path d="M1678 865q150-160 322-268v98q-291 195-494 533-10 47 2 54l7 1q36 0 145-121l102-121-384 694 52-167q47-168 20-173h-3q-16 0-42 23-101 216-147 450l-14 80-6 44h-91l20-124q52-260 167-499 0-19-7-23l-6-1q-36 0-145 121-55 61-102 121l384-694-53 167q-47 168-20 173h4q8 0 22-8 115-199 267-360" fill="#fff"/></svg>