<?xml version="1.1" encoding="UTF-8"?><svg xmlns="http://www.w3.org/2000/svg" xmlns:xlink="http://www.w3.org/1999/xlink" version="2.0" width="100pt" height="100pt" viewBox="0 0 2000 2000" clip-rule="evenodd" fill-rule="evenodd" preserveAspectRatio="none"><path d="M177 530q12-58 59-150 53-104 66-148-11 55 1 158l15 82q11 49 9 83-2 40-54 137-45 85-31 138l-15 15q3-32-13-72l-32-68q-26-64-5-175" fill="#fff"/><path d="M1588 320l-74-90q22 3 50 22 27 18 39 37 21 7 49 36 29 31 36 54 60 36 45 176l-21 91q-14 56-9 88-24-30-26-74l15-20q-10-19-11-57l-4-58q-16-68-44-101-7-52-45-104" fill="#fff"/><path d="M934 875q-12-28-34-48-54-51-137-40-83 10-145 77-63 67-69 150-7 83 48 135 22 20 51 31l127 185 18 5 9 29 167 199q62 64 123 86 281 102 387-11 98-104-17-382-26-60-93-118l-209-156-29-7-6-18L934 875m139-458q-46 128 118 233 8-128 22-171 29-91 122-135-71 74-75 193-4 109 47 200 35 62 106 151 52 79 45 167 26-64 38-119 21-100 16-263l55 220q55 259 55 455 41-57 45-103l2-73q1-41 14-71 31-66 83-101-23 22-22 112 1 74 13 123l37 103q22 61 18 112-6 92-76 171-40 46-145 123l-108 72q-72 39-120 35-16 20-75 28-52 7-113 2l-144 15q-85 0-167-20-65-5-149-32l-141-50q-85-30-148-85-67-59-96-134 2-21-6-59l-12-61-5-128q14 31 28 87 16 47 51 77l72 49q-117-270-64-634 16-114 48-223l28-87q11 144 27 197l31 80q-9-100 51-190 82-102 122-172 58-103 54-227-5-136-86-220 105 50 139 153 15 47 25 196 187-120 134-266 80 95 39 260-23 93-25 129-5 73 30 132l2 13 14 17 14 17 1 10 15 2q-27-102-32-153-10-89 48-157" fill="#fff"/><path d="M1025 1249q-54 57-83 125-27 66-25 127-42-64-28-150 14-87 79-156 65-69 151-88 85-19 151 20-60 1-125 32-66 33-120 90" fill="#fff"/><path d="M1028 1074q-58 28-105 79-47 50-72 110-24 57-22 110-37-56-25-131 12-76 69-136 57-61 133-78 74-16 132 18-54 1-110 28" fill="#fff"/><path d="M705 947q45-48 106-61 59-13 105 14-43 1-87 22-47 23-84 63-37 40-57 87-20 46-18 88-29-45-20-104 10-61 55-109" fill="#fff"/></svg>