<?xml version="1.1" encoding="UTF-8"?><svg xmlns="http://www.w3.org/2000/svg" xmlns:xlink="http://www.w3.org/1999/xlink" version="2.0" width="100pt" height="100pt" viewBox="0 0 2000 2000" clip-rule="evenodd" fill-rule="evenodd" preserveAspectRatio="none"><path d="M775 1059l5-35 360 17-14 55-351-37M608 1260l-37 195-338 135 375-330m50-183-30 138-283-171L66 879q65 25 592 198m24 378-1 8 349 25-60 233q-16 56-111 267l-336 2 94-310q28-135 56-203l9-22m44-143 10-41 319 118-9 34-320-111m26-114 12-69 265 98-277-29M166 400 708 855l-40 162L166 400m1672 46-107-97q-21-19-144-73l-119-50 240 160-10 57-7 306 77 487-84 113 57 80v340l30 130 43-116 27-364-47-50 64-116-60-477 3-307 37-23m94-345q67 74 76 207l-14-5q-183 96-160 96 23 0 176-52V1649q0 156-96 247-76 77-189 92H1189l57-283q15-66-57-868l-27 113L799 839q23-180 86-317 49-106 110-165 45-43 201-66l184-22q30-5 57-56l53-97q22-31 13-107h178q167-3 251 92" fill="#fff"/></svg>