<?xml version="1.1" encoding="UTF-8"?><svg xmlns="http://www.w3.org/2000/svg" xmlns:xlink="http://www.w3.org/1999/xlink" version="2.0" width="100pt" height="100pt" viewBox="0 0 2000 2000" clip-rule="evenodd" fill-rule="evenodd" preserveAspectRatio="none"><path d="M1204 955V904H553v51h651m531-35q115 21 117 49-2 29-117 49l-176 25-234 17-62 40H522v23H473v-8l-146-9 130-40-424-48 414-62-210-23 220-53-357-34 373-19V816h49v22h741l62 40 234 17 176 25" fill="#fff"/><path d="M10 1488v-89l1190 37L10 1488m94 411-2-3q-35-34-57-79l1343 18-1284 64M25 1765q-11-42-14-83l1852 18L25 1765M10 1633v-97l1863 40L10 1633M10 594V506l1378 19L10 594m0-155V363l1797 43L10 439m0-97q2-47 10-85l1903 18L10 342M34 206q18-45 42-76l1431 36L34 206" fill="#fff" fill-opacity=".8"/></svg>