<?xml version="1.1" encoding="UTF-8"?><svg xmlns="http://www.w3.org/2000/svg" xmlns:xlink="http://www.w3.org/1999/xlink" version="2.0" width="100pt" height="100pt" viewBox="0 0 2000 2000" clip-rule="evenodd" fill-rule="evenodd" preserveAspectRatio="none"><path d="M657 837l68 63L347 785 719 962 299 893l366 124-324 62 325 13-155 67 254-55-114 161 250-165-51-11 66-44-146-28 161-14-132-72 176 30L690 798l110 90-143-51M403 682l-30 13-23 9q69-2 121 25 6-8 30-18l29-18-38-8-39-4h10l-60 1M649 359l-5-6-3 23-3 23 3 17 4 26q4 14 15 16l22-7 19-16q-14-6-20-11-7-6-11-20l-11-22-10-23M433 226l-22-17-16-19-9 13q-5 11-1 16l8 5 10 15-15 8-14-5-6-19-18-51-11-19h-2l-8-7-9-8-4-3-6 2 16 56q19 42 14 52l-22-44q-17-36-24-32l11 48 20 52-3 1-12-20q-5-18-13-20-3 11 3 41l4 24 7 23q5 9 25 22l15 10 10 10 9 8-19 2 8 4q3 13 22 34l27 33q6 11-4 9-7-2 1 8 16 18 24 48l35 33-12-43q41 41 49 65l19 12v-6l14 3-7-24q10 7 22 9 11 13 28 13l-12-32-20-28 25 10q-12-31-12-67l-11-15-17-15-19-15-26-29-23-29q-15-19-11-32l-10 11v-7l-2-28V264q25-10-6-38M832 442l7 7q4 32 30 59 25 26 58 35v25l-30 39q-5 6-3 11l-17-4-38-15-75-37q-34-15-57-15l-14-2-8-9-32-25 10 23-26-7 3 5-3 5q1 6 8 12l9 11-29 9 1 1-23 7 31 15q-4 3-5 9l-3 9-18 12 5 1q-5 11-30 22l-36 17 84-6 61-4-16 11 30 2q22-1 23 7l-7 1 42 4 42 3q9 11 35 23v1l14 18 19 17 15 8 45 62 39 62q-17 8-8 26l4 8 21 18q37 36 27 89l3 1 2 2q7 11 20 8 63-16 102-37 8-4 9-13l-6-15-4-4q11-5 9-15-1-10-10-15v-1l6-14-1-29q0-11-11-16l-19 2-3-2 2-8 9-15q-3-90-34-209l-5-32-2-6q8-9-1-20-6-9-19-8-11-1-49-19h-1l-10-23q14-9 21-24 16-31 9-71 3-29-5-51-14-38-49-60-38-24-74-11l-12-2q-31 5-48 25-17 20-14 49-18 30 0 63m807 756 6-15-2 17 30 14-30-10-14 156 41 24q28 19 87 55l43 32q26 19 45 21l11 25q-5 22 10 61l24 58q14 41 51 115l25 67q-23 46-60 80-32 32-72 55 12-24 9-57-2-30-15-56l-31-71-31-71-10-35q-8-25-3-36 0-15 3-21l-21-30q-1-20-21-33l-38-19-41-23-42-18-22-5-181 46 130-80-110-23 106-12-146-103 205 58-35-68 53 33 45-127-330-114 90 113-147-108 67 246-93-113 3 17-92 306-5 359-628 13 463-78-153-34 35-62 29-91q13-49 31-93l11-50q5-32 14-47-18-32-20-46 29-1 39-20 8-15 6-48l23-18 14-25 21-30 23-30q32-47 78-90-8 9-11 45l24-14 23-16-8 62 26-42 22-42-27-13q-18-11-30-13l14-24q-8-4-8-19l1-25q-15 12-68 35-44 19-60 41l18-38q9-23 7-42-13 11-27 7 4-14-8-22-10-8-24-7v5l10 18 7 21q-23-2-42 35l-25 56-39 55-37 52-33 43q-19 24-21 45-8 69-20 107l-21 63q-12 37-17 62-13 10-20 47l-10 53-30 80-560-135 538-63-260-107 247-53-515-197 328 5L58 989l220-33L61 809l300 34L168 703l177 41L26 279 316 456 130 70q70-50 164-57L571 286 540 51 658 161 713 11H832L956 226V39l104 229 73-257h69l-12 480 33-85-15 95h1l-1 1-2 39 154-105-120 133 103-33-58 45 60 20-99 35 105 5-101 22 110 63-145-28 40 80-71-59-5 204 72-25-41 41 326 5-268 27 392 132-372-77 351 172M1871 158l-1 26-3 25 10 5 19-17 10-3 10 9-17 22-9 19 7 5 12-7 5 12-17 15-12 6-9 7-3 9-3 8-21 11-2 17q11 2 13 6l-2 17-14 47-21 39q-16 26-21 38-38 90-51 148l-16 54-43-1-43-1-78 11-20 4q-10 3-18 10l-27 34-29 44-18 29 17-57 13-58-31 29-35 21 34-40q18-23 25-44l-27 18 12-13 13-13-43-16-43-17 40-9-88-147 65 58 77 46 54-7 56-11 24-2 22-5 26 6q-2-15-14-36 12-9 25-7l15-35 11-37 24-69 13-36q11-28 18-30l16 5V285l-4-14-17-30-24-25q-2-5-1-14l-1-14 8-6q16 35 24 40 10 6 21 5l14-13q4-15-3-41l-10-42 7-6q13 5 21 29 9 26 17 32 10-12 16-39 7-30 14-40 13 2 14 21l-3 30" fill="#fff"/></svg>