<?xml version="1.1" encoding="UTF-8"?><svg xmlns="http://www.w3.org/2000/svg" xmlns:xlink="http://www.w3.org/1999/xlink" version="2.0" width="100pt" height="100pt" viewBox="0 0 2000 2000" clip-rule="evenodd" fill-rule="evenodd" preserveAspectRatio="none"><path d="M1415 1132v107H878V1132h537M925 715V863h453V715H925m-96 69V958H444V784H829m18-382q23-35 61-42 44-8 85 22 35 26 55 70 38 85 31 188h336v436H878V640h154q7-79-18-146-33-90-90-89-28 0-47 36 31 56 14 120l-12 13-18 1q-31-10-40-45-8-29-1-64l6-22-11-10q-22-17-50-18-30 0-50 19-25 25-30 73 32 61 22 123-3 17-20 21-17 3-24-13-25-52-25-119-29-50-79-65-14 36-6 83l22 82q5 17-12 24-17 7-29-5l-45-49q-29-28-56-38-32-13-62-9l-18 3q2 13 40 51l55 51q12 13 1 29-11 16-27 9-76-34-105-40-69-14-97 31-11 19 3 32 8 8 32 16l93 21q22 5 20 27-2 22-25 20-170-13-167 70 1 33 62 24 48-7 78-24 18-10 30 8 11 18-4 31l-52 42q-33 33-22 56 11 21 37 29l48 2 25-8q19-6 26 15 6 21-12 29l-26 8q-32 12-47 21l116-6 9-1v-64H829v173H444v-62q-123 35-181-24-7-6-6-16 1-10 8-17l11-10q-33-13-47-43-22-46 11-93-46 4-74-10-35-18-36-60-3-79 82-106-65-34-39-91 40-91 164-61l-2-1q-44-57-21-85 19-23 61-25 35-1 68 11 35 15 64 39l-4-29q-4-47 24-100 8-12 22-10 56 9 99 52 16-54 61-75 77-34 138 20m1009 623v173H1462V1025h394m0 260v174H444V1285H829v31h633v-31h394m0-501V958H1462V784h394" fill="#fff"/></svg>