<?xml version="1.1" encoding="UTF-8"?><svg xmlns="http://www.w3.org/2000/svg" xmlns:xlink="http://www.w3.org/1999/xlink" version="2.0" width="100pt" height="100pt" viewBox="0 0 2000 2000" clip-rule="evenodd" fill-rule="evenodd" preserveAspectRatio="none"><path d="M1467 812v-1l80-58q54-35 71-59l27-12q-16 11-31 53-13 35-17 62 64 3 170-2l170-7q-24 2-26 54l-6 15q-2 2 2 14l34 25-18 8-2 8q-10 1-17 7l-12 12q55 49 118 79v103q-100 12-167 46 49 39 113 158-28 6-70-11l-67-30q-70-28-127-38l-98-13-95-16q13 5 17 12l5 21q-26 5-63-14l-61-29-41-8-37-3h-81q20 2 40 24l24 33 4 7h-12q-22-6-49-42l-12-15-40-48-10-41q28 15 54 15l75 5 75 2q28-3 63-18l58-29q95-46 132-76l-79-18q-57-11-68-29l-62-1-60 18q-11 24-70 37-58 11-68 45l-12 1q9-30 25-52 20-27 41-28l5 15 46-44 41-45 88-92M1146 283h-12l-3 7-16-2 2 6 1 5q31-4 38-19l-10 3m-12-45q19-8 33-10 31 71 36 112l-31 12q-23 7-32 13l22 66q23 8 25 36v47l-61 22-62 22 2 14 1 11q-89 28-195 66l-53 18q-75 33-131 47l-2 1q16 21 20 58l1 61-48 25q-32 15-47 27l35 39q22 25 21 50-1 25-29 60-28 35-29 58l12 25q12 15 10 27l-12 21-15 21q-13 38-15 53l3 28 1 30q-34 22-105 52-75 32-108 52-157 96-182 143 39 32 50 152-88 38-185 87l-6 6q-48-82-48-188V1037l79-25 79-26q-40-41-12-130 19-59 65-133l-13-21q-24-8-49 0-9-24-7-43 33-3 37-39l-4-44-6-19q35-18 84-28l53-21q4 0 7 3l9 2L659 389q191-72 330-120-3-9 5-12l11-7V234q0-10 3-14 29-14 59-5 30 9 34 35 10-2 33-12" fill="#fff"/><path d="M1467 812l-88 92-41 45 2-9q38-159 17-315-20-151-93-273 118 124 169 265 35 98 34 195m-234 383 12 15q27 36 49 42-92 76-254 151 115-84 193-208m69 50-24-33q-20-22-40-24h81l37 3-54 54" fill="#fff" fill-opacity=".8"/></svg>