<?xml version="1.1" encoding="UTF-8"?><svg xmlns="http://www.w3.org/2000/svg" xmlns:xlink="http://www.w3.org/1999/xlink" version="2.0" width="100pt" height="100pt" viewBox="0 0 2000 2000" clip-rule="evenodd" fill-rule="evenodd" preserveAspectRatio="none"><path d="M1678 798l-25 167-287 357 9-126 303-398m76-376q51-87 116-138-17 21-28 85-10 61-4 95l60-23 60-30 52-16V637l-22 37 22-10V917l-63-1q-23 4-58 21l-14 7 6 134-7 14-13 4-169-14-13-7q-5-6-4-13l20-230-3-7-23-128q-13-76-12-131 9 20 34 28 10-82 63-172m-104 676-437 525 22-250 114-124-9 133 310-359v75M324 1339v-54l226 261-6-97 82 91 17 182-319-383m-20-184 5 2-1-4-4 2m31-277q8 59 18 91 12 5 19 39 8 45 11 51l23-9q0 26-40 59l-45 35 28 36 28 16-10 8 158 207 6 92-210-261-2-12-10 4-9 4 6 75q0 13-13 15l-123 9q-13 2-15-12l4-84q-23-2-58-19l-82-48 47 5q-11-28-56-35V729q60 54 116 55 11-30 14-56l1-58q80 101 102 189 38 0 79-74l13 93m705-185 6-5-2-1q-41-31-89-25-36 5-63 30l2 1q30 24 73 24 43 0 73-24m208-432q-15 33-16 113-2 83-13 115-5 15-52 64-36 39-28 72l41-37-38 90-13 27 19 259q0 12-8 21-9 8-21 8H811q-12 0-20-8-9-9-9-21l16-197-13-1q-36-6-50-24 20-7 27-8l-24-55q-18-36-10-50-12-35-47-96l-52-95q88 40 124 13-21-50-30-124-8-61-6-121l40 53 52 42q49-38 69-126L901 10h141q56 122 97 126 19 19 37 66 22 56 34 74 4-5 14-13l14-14 10 12M87 1922l1-2 2 1 3 2-6-1m400-70 83 2 10 136H495l-8-138m50-213-17 20-4-59 124 139-1 38-13 9 13 204H595l-16-264q0-45-15-58l-19-19-8-10m470 23-23 248-43 3-9-251h75m305 142 115-3-11 189H1299l13-186m69-268-23-27-11 13-26 27q-21 17-21 79l-22 362h-60l19-280-19-12-1-52 170-191-6 81M863 1901h46l6 40h95l20-54 43 3 2 100H864l-1-89" fill="#fff"/><path d="M1853 1116l-279 292-41 126-31 17-15 5q3 93-3 105l-41 43 9 35-23 44-123-2 8-115 35 3 14 24 48-35 11-108-22-20 19-108 257-320 177 14M176 1352l129-10 187 233 15 79-17 15 8 79 35 25 11-17 25-3 6 85-90 1-17-32 7-26-30-31q-3-6-3-42l1-35-11-3-23-13-30-92-203-213m734 505-46 1-72-824 339-4-56 823-51 2 12-225H900l10 227" fill="#fff" fill-opacity=".8"/></svg>