<?xml version="1.1" encoding="UTF-8"?><svg xmlns="http://www.w3.org/2000/svg" xmlns:xlink="http://www.w3.org/1999/xlink" version="2.0" width="100pt" height="100pt" viewBox="0 0 2000 2000" clip-rule="evenodd" fill-rule="evenodd" preserveAspectRatio="none"><path d="M1874 744l-73 38q-46 23-69 43 16 2 42 19l39 25q28 14 78 21l84 11 35 7v96q-111 31-173 34l-44-3q-30-2-42 6-16 10-7 28l19 31-83 11-43 7-25-1-23 1q-19 6-11 34l17 44 23 99q-12-9-21-10-28-33-96-67l-52-33-50-39q2 20 20 56 19 37 22 56l-13-9q-10-22-37-41l-49-32-98-71q-17-12-34-40l-27-48 123 68-26-55 120 2-72-50 199-34-183-10 68-32-73-12 7-4-17 2-39-6 24-26-136 45 160-145q107-105 176-109-13 6-31 31l-28 40-36 46q-22 28-29 48 33 1 81-20 25-11 74-38l-5 4 166-6 168-12M1007 930v8l32-4h-8l-8-3-4 3-12-4m-78-52 9-2 9-22q25-2 44 11 20 14 16 34h27 26q4 61-2 90l-26 1-25 1-1 53q14 10 9 31l-11 34-99 1-2 11-2 8-236-2-75 4q-31 6-59 28-30 25-41 59-4 14-3 43 2 28-3 42l-77 25-83 8-6 221-209 105-2 14-96-6-1-765 7-1 10-28q14-4 27 7l20 20 308-12 4 4 6 4 530-14q0-7 7-7M264 1200l11-2 2-37q-37 4-53 43l40-4m159-16 16 33q10 27 5 36-4 9-32 14l-38 6-8 2 23 16q-12 10-48-7l-16 5v26q53 2 86-12 44-17 55-74 12-60-49-73-14-3-42 0l-45-1-9 33 102-4" fill="#fff"/><path d="M815 633l15 31q9 25 5 34-4 8-30 12l-35 6-8 2 21 15q-11 9-45-7l-14 6-1 24q50 0 81-12 41-16 51-69 11-56-45-68-13-3-40 0l-42-1-8 31 95-4m560-237-4 4-10-4-1 8 30-4h-7q-3 0-8-4m-30-60q19 13 15 31h49q4 57-1 84l-48 2-1 49q14 10 8 29l-10 32q-62-1-92 1l-2 10-2 7H1115q-102-5-144 2-30 6-55 27-29 23-38 55-4 13-3 40l-4 39q-88 34-149 31l-1 50L92 838 14 808l-4 1V745q164-78 173-65L286 811l9-14 12-28-9-44q-5-23-3-32 3-13 19-23 14-9 31-14 2-54-45-64l-26-1q-10-4-14-14-5-11 0-17 3-5 19-10 17-6 22-11l21-33 10-37-4 3q-19-25-20-51-2-31 37-17 11 1 20-9l16-18 28-2 27-4 9-25q13-4 25 6l20 19 143-5 143-6 5 4q1 3 5 3l494-13q1-7 7-7l9-2 4-11 4-9q23-2 41 11M629 652l38-4 10-2 2-35q-36 4-50 41" fill="#fff" fill-opacity=".8"/></svg>