<?xml version="1.1" encoding="UTF-8"?><svg xmlns="http://www.w3.org/2000/svg" xmlns:xlink="http://www.w3.org/1999/xlink" version="2.0" width="100pt" height="100pt" viewBox="0 0 2000 2000" clip-rule="evenodd" fill-rule="evenodd" preserveAspectRatio="none"><path d="M1289 954l1 2q20 12 28 27 11 17 5 44l-3 9v1 4q-2 14-14 24-12 9-26 9-16 0-27-11l-14-5 14 22 40 20 41-38 27-29q-8-54-34-75-15-12-40-5l2 1m-43-24 25 14 1 1 3 1q29-23 50-22 19 1 45 14l21 13 25-2q2-23-16-55-12-22-47-21-28 0-55 12-27 11-52 45M-2 1004V365L525 610l-29 76 122 32L860 596q109 24 149 14l74-17q39 6 56 0l36 3q23 10 26 29 3 21-22 52-27 33-55 40l-68 2H986l-41 24 88 66 187 106 24-27q54-44 119-36l54 17q43-36 53-66 20-59-9-100-11-15-69-71-49-49-46-54 21-38 15-56l-11-56q93-94 120-106 25-12 103 65 83 82 97 158 36 205 53 237 15 29 14 51l-15 20-7 18-39 37-2 15-9 30-9 25q-1 10 6 18 20 18 44 5l29-14 18 17-32 25-14-5q-15-3-21 5-11 12-15 44l-13 16 12 10q10 11 5 17l-235 239-49 30-254 252-30 52-47 33q-32-1-43-13l-32-42q-22-34-26-46-4-10 7-29l12-18 165-163q52 19 66 15 30-9 47-24 18-15 13-29l-4-24v-12l54 20 80 4 39-33 13-19 3-38q64-3 74-32 6-17 4-46l-3-25q-30-22-70-44-81-43-131-44l87 45 46 35q43 39 34 56-10 18-43 21l-32-1-80-43-132-42 69 44 67 27q67 29 69 41 8 51-36 59-37 6-119-34l-246-111 142 111q55 42 58 51 5 15 3 28-2 16-16 18-21 2-114-37-7-2-155-91l-156-71q-74-23-135-67l-68-55q-31-29-53-41-27-14-80-29l-53-14-15-5-45 117L-2 1004m1131 16 81 40-3-15-78-25" fill="#fff"/><path d="M1181 434q-213-80-423-68-207 12-358 108l11-14Q594 265 858 221q259-44 492 75L1181 434M291 1374q-60-111-81-236 64 151 197 277 137 130 320 208 60 25 135 47 34 79 89 122-139-7-266-59-131-55-236-153-97-91-158-206m836 407 7-10q36-23 62-64 128-8 234-48-134 92-303 122" fill="#fff" fill-opacity=".8"/></svg>