<?xml version="1.1" encoding="UTF-8"?><svg xmlns="http://www.w3.org/2000/svg" xmlns:xlink="http://www.w3.org/1999/xlink" version="2.0" width="100pt" height="100pt" viewBox="0 0 2000 2000" clip-rule="evenodd" fill-rule="evenodd" preserveAspectRatio="none"><path d="M1056 1065q-20-39-40-54-22-15-63-18-45-4-72 15-24 18-26 48-2 27 12 51 13 22 37 33l46 8q23 2 19 10-7 17-44 31 54 16 84 0 28-16 44-49 20-40 3-75M853 703l6-142H501l4 105 65-10 7 47H853M-4 1336V1122l52 3q8-8 18-9 37-6 84 0l28 5 15-31 14-10q-14-43-17-66-3-37 12-67 18-34 64-45l-17-18-6-2-3-2-40-5 1-32-63-58 30-58-1-6h92l10-23-14-28 28-58V563l-83-2q-5-1-76 38L54 638 0 637V370q0-47 8-93l46-1 148 81 85 2-4-25H499l-2 31h51l2-23h42l-2-18H570V225l22-16H752l28 10V320l-22 2-2 18 40 2 10 17 49 6 4-37h216l-2 29h23l28-13h36l31-12 77 2 91-69h216l-4 391H1367l-97-73-85 2-25-14-38 2-20-14-31 4 1 140h635l5-49 56 19 9 35 7 149-18 5-10 103H1394l-7 32H1186l-33-4q-35 0-48 23-21 37-19 58l4 51q-1 55-27 71-42 25-110 44l-7 143-133 49-14 119-73 63 38 114-338 64-324-86-101-4-1-366H-4" fill="#fff"/></svg>