<?xml version="1.1" encoding="UTF-8"?><svg xmlns="http://www.w3.org/2000/svg" xmlns:xlink="http://www.w3.org/1999/xlink" version="2.0" width="100pt" height="100pt" viewBox="0 0 2000 2000" clip-rule="evenodd" fill-rule="evenodd" preserveAspectRatio="none"><path d="M1895 110l-95 30q50-26 95-30m67 367q25-15 48-23V1543l-61-63q-48-58-78-111l-28-59q-20-39-37-50 15 49 26 158 11 106 27 156-24 4-80-71l-70-101-60-83q-36-48-66-75l2 54q-2 32-18 46-38-44-54-140l-25-153q16-1 38 13l37 23 34 13 34 12-32-42q-15-25-19-43l9-22 36 1 14 10h20l-34-10-3-2q16-13 64-11l70 3 84 1 81-9q-25 1-73-25l-73-37q-100-36-135-55 17-10 52-9h56q59-10 98-38l-99 4q-49-7-96-25V787l-1-16q-27 0-14-45l22-63q-20 1-50 23-29 20-38 38-20 5-46 25-26 18-36 34l-5 8q42-96 147-191 62-56 191-147-23 21-43 73l-31 85q43-11 110-59 90-67 105-75M1800 140q-34 16-70 43-85 60-127 129-11 17-42 93-25 63-48 85-12 12-59 22-46 10-57 24l-1-49q3-27 21-37l25-25q8-31 50-68l69-57q75-72 114-101 42-30 125-59M1332 1235q6-7 24-14l14 80 11 79q7 32 30 86l31 84 24 104q14 61 30 101l32 87q12 29 27 48l-59-60q-52-54-65-94l-67-58q-39-41-53-72-11-27-12-79l-2-82-12-75q-8-53 2-70l45-65m-7-137 23-6q11-7 10-15l-17 9q-13 3-16 12M90 1091l-4 10q12 3 16-9-6-1-4-5 3-4-3-6l-5 10m-9-44h1l-1-6-9 3q4 5 9 3m34 46 2-20-5-3-3 21q-9 36-33 34-14-1-19-15l-13-24q-9 12-3 31l9 31q30-9 38-20l2 8 14-20q9-15 24-10 5-11-13-13m-10-13 1-14-20-13-3-4-2 5v6l-10-1q-4 13-15 17 5 5 10 0 4-3 4 1l-9 5-8 7q1 18 14 27 14 9 27-6H86l-9-1q-8-11-4-28 4-19 20-18l8 7 4 10m119 99q11 12-1 5-12-7 1-5-16-4-27-27-9-18-11-40l-2-1h-1q-14 44-53 72l39 12 30 14-2 2q31 6 58 19 30 15 38 32 12 25 6 78l-13 79-55 13q-39 5-47 18-5 8-5 33v34q-5 33-17 59l-16 19-26 7q-19 5-48 24l-19 18-4 26q-1 29-10 48-29-69-29-154V438l13-11-13-2V356L1423 650l-9 43-55-11-27 19q17-9 33-8l42 12q-33 3-57 21-27 22-24 56-18 9-20 36l-7 60-16 68q-4 41 31 49 16-31 48-27 33 3 37 44l-12 19v24q-5-10-10 6l-13 28q-17 4-8 4-7 13-40 9-35-5-44-29-2 12 13 25 15 13 33 14-40 4-145-27-119-35-152-38 1 5 11 7l15 4q-13 36-79 20-84-21-94-18L579 988l4 5 7 2q-7 0-26 27-13 18-7-3l-4-11-31-9 30 25q-54 6-58 150l-20 12q-13 6-18 17l-27-1-21 8q30 19 89-12l3-4 3-4q2-9 4-5l-2 9q-59 91-175 47 96-1 129-143 12-55 21-76 17-39 45-42-27-15-105-32l-5-18q77 9 233 49 162 41 215 48-41-15-211-53-145-33-213-68 11-25 54-17l77 20 315 74q18-25 37-83l-21 28q-1-14-14-12l5-6V899q-5 0-9 10-4-4 1-11l1-8-6 1-3 6q-15-15-56-15l7-1Q541 796 321 754l-15 56-14 49q0-38 20-107l-78-16-64-13-17-5-30-5q1 5 16 4l-1 3-6 9-3-8-13-6 7 19q5 9 3 17l5-4 2 2q4 0 1-6-3-8 1-13l24 5q16 1 21 14 10-8 21-5l32 6-2 12 2 11 3-7q0-10 3-14 11 0 10 10l-5 18-31-6-4-5q-2-4 1-9l-13 9q-8 2-10-9l-14 1-14-8q-12 15-2-7l-10 12-11 5 16 8 21 2q-6 4-5 10l-6 7 6 4q7-1 8 4l-3-13q-2-6 3-11l16 6 18 4-2 15-8 8q-10-2-3-24l-9 2q-4 2-7-3-4 2 0 10l11 10-18-2-18-1q-3 5 4 8 6 3 1 10l9-8-1 16q-4 12-12 7L112 936q-27 62-53 82 5 11 15 15l7 2 1-9 22-66q9-23 34-35 22-12 51-12l22 2 37-51 29 2q18 3 22-8 98 21 118 66l-10 2-13-2q0 6 7 9-21 5-54-10-31-15-54-7l29 5q24 4 33 12-15 7-34 0l-34-9-18 4 35 10 54 16q37 12 44 23l22 11v2q10 5 8 34l-8 41-14 34-21 31q-6 2-29 17-15 9-33 8-28-1-68-22l-37-10-27-8q2 43 30 61 12 7 34 10 21 2 36 13l-35 1-36-21M647 942q-127-31-204-41 252 77 449 107-4-10-17-12l-22-2-206-52m95-95-24-3 27 8 23 2-26-7m-61-14-26-3 54 11-28-8m127 28-18-1q29 13 38 8l-20-7M518 739q8-18-2-30-2 25 2 30m-5-91q-2-5 5-15l11-17-96-25-85-8q-3 39 67 52l98 13m-49 66q-1 10-4-7l-5 18q9 5 14-10l1-19-5 5-1 13m-20 5-2-6-2-5-3 12 12 3 3-11q2-8-3-2l-5 9m56-58q-1-7-8-4l-16 4-37-9q-23-6-33 0l49 8 45 1M197 795q-1 8 4 9l5-8-3-11-6 10m-5-38q1-3 6-3v5l3-1-7-12q-5 2-5 9-1 7 3 10v-8m155-98 4 24 3-11-1-8q-5 5-3-1l-3-4M129 426q-38 13-49 36l58 15q41 7 55 20 5-6 14-6 11 1 8 12 14-10 33 0l34 18q13-13 48-19 36-6 49-17l-3-8-247-51M893 882l-22-6-19-2q32 13 41 8m190-202 19-2-3 7-4 7q6 2 15-6l17-2q8 2 3 7l-7 9q10 3 16-12l22 6q0 5-4 6l-6 4 18-6q10-7 21 0l-3 6-4 6 16-6 22 3-10 11 36 9 36 7 31-30 34-24L593 522q-25 22-106 0-86-24-112-12 4 12-7 24-14 16-17 26 92 31 182 40l8-27 204 44 212 47 12-10 20 2-3 6-4 6 16-7q9-6 19 0l-3 8-4 7q10-6 15-8l18-3q5 3 1 7l-5 8 15-7q9-7 20 0l-4 8-4 7 17-8" fill="#fff"/></svg>