<?xml version="1.1" encoding="UTF-8"?><svg xmlns="http://www.w3.org/2000/svg" xmlns:xlink="http://www.w3.org/1999/xlink" version="2.0" width="100pt" height="100pt" viewBox="0 0 2000 2000" clip-rule="evenodd" fill-rule="evenodd" preserveAspectRatio="none"><path d="M1425 645l1 17q14 360-154 621-167 260-418 269l-47-1q213-61 346-306 135-248 124-567l148-33m325-83 1 24q18 487-209 840-227 352-566 365l-64-2q289-82 469-414 183-335 167-768l202-45" fill="#fff" fill-opacity=".8"/><path d="M353 797l-27-3 5 15q7 16 27 37l29 34q25 40 42 98l16 58q12-43 45-112-6-42-47-78-50-37-71-61l-20-3 1 15m796-184-5-52q-3-27 10-39-34 15-56 15 26 12 39 44 14 36-6 59l4-27-8-29q-120-13-162 28 66 11 70 40 4 20-4 47 59-7 84-22 33-19 34-64m529-280 11-31L885 433l84 10 709-110m37-20q4 49 10 76l-23 34-30 27q-55 4-132 22l-130 31-147 21q-82 14-113 49 19 68-20 103-30 28-105 39l-16 31-71-1-8-3-16 14 6 2q12 18 8 44-5 42-29 67h22q23 4 29 22 10 29-16 56l-45 33 47 10q46 15 43 39-2 24-22 40l-19 11-103 20-35 18-5 32q-25 26-73 36l-88 8-39 13-120 2-89 86-151-66-237-1V700l212 72 171-28 112-90 8-3q-12-13-49-12l-55-4-1-3-1-6-4-4q0-3 3-2l-1-11 3-2q4-9 18-17 14-9 22-8l88-55 7-20q2-18-9-34-10-15-36-28l-25-10-21-18 21-9 55 10 21-30h5q5-17 40-30 35-13 40-29l16 8 19 12 130-15 132-15 11 3 12 4 82-8 88-13 9-7 6-10 550-79 30 31 8 73" fill="#fff"/></svg>