<?xml version="1.1" encoding="UTF-8"?><svg xmlns="http://www.w3.org/2000/svg" xmlns:xlink="http://www.w3.org/1999/xlink" version="2.0" width="100pt" height="100pt" viewBox="0 0 2000 2000" clip-rule="evenodd" fill-rule="evenodd" preserveAspectRatio="none"><path d="M850 267q69 150 104 275 112 400-154 400-266 0-166-400 32-125 96-275l58-125 62 125m77 483V699q-5-33-27-30-5 37-36 52l-64 18q-44 10-61 20l-26 19q-14 10-31 9 0 11 6 24l12 19q40 47 109 50 35 1 58-11l44-35q-2-6 3-18l8-19 5-47m832 330-41 5-84 13-91 12-94-2 57 84q34 48 70 79l11 37q7 23 6 40 27-12 61-49 36-37 43-64 29-17 58-68 24-42 36-83v-4l3-20-35 20m60-127 145 10 36-2v474l-9 13-57 84-46 79-47 78 76-43q41-25 66-56l17-23v87q0 155-96 248-94 96-250 96H414v-60q4-27 0-117l-5-85q-84-182-91-232-5-39 11-81 17-44 47-66 24-17 84-21l73-7q16-6 33-35l27-44q13-14 40-6l24 11q81 82 134 96 37 10 115-32 75-40 84-66l13-102 4-79 55-41 100 15 13-93q30-78 65-103l59 3 32 23q250 90 317 88l83-16 33-15 55 20" fill="#fff"/></svg>