<?xml version="1.1" encoding="UTF-8"?><svg xmlns="http://www.w3.org/2000/svg" xmlns:xlink="http://www.w3.org/1999/xlink" version="2.0" width="100pt" height="100pt" viewBox="0 0 2000 2000" clip-rule="evenodd" fill-rule="evenodd" preserveAspectRatio="none"><path d="M1643 1418q8-75-7-100-21-36-128-85-110-51-137-86-7 4-2 18l1 18-58-54-1-1-15-11-14-12q-13-7-7-22l-24-76q30 307 84 478l-55 3q44 220 64 504H1137q-9-26-39-190-22-120-64-177-50 47-64 159-7 65-10 208H743q19-276 17-481-6-12-18 13-13 26-20 12 11-354-12-615-81 115-59 279-3 22-14 3-17-27-26-25-10 58-29 116l1 7-1 9q11 14 11 28 14 26-3 46-17 24-52 27l-4 1q-40 88-57 136l39 74q21 50 8 89-15 2-21-21-6-24-20-24-26 25 2 79 29 58 13 86-52 3-76-59-19-46-19-118 0-61 12-154-14-2-17-15l-10-20-11-19q-7-26 11-44 18-19 45-21l6-34-4-2q-17-11-25-26-10-18-4-35 10-28 44-43l8-2 11-62q-7-18-31 25 5-33 34-124 30-93 40-156 12-170 21-244 14-127 79-179 22-18 78-36 55-17 84-42-100 0-140-68-35-59-11-135 24-76 87-100 72-28 155 38 12 44 58 102 48 61 61 98 29 9 70-6 48-21 74-31 98-36 189 44 105 92 102 286v-1q66 78 255 231 148 146 113 291-43 2-51-66-9-74-64-86-10 11 1 38 12 29 7 40-44-18-42-78 2-75-15-99-24-34-134-75l-83-34-5 67q0 87 39 129l1 8q55 86 240 258 146 164 99 309-44-1-47-69-2-75-56-91-11 10-2 38 10 30 4 40-43-22-36-81" fill="#fff"/></svg>