<?xml version="1.1" encoding="UTF-8"?><svg xmlns="http://www.w3.org/2000/svg" xmlns:xlink="http://www.w3.org/1999/xlink" version="2.0" width="100pt" height="100pt" viewBox="0 0 2000 2000" clip-rule="evenodd" fill-rule="evenodd" preserveAspectRatio="none"><path d="M1275 1516l19-14q9-6 5-14-8 0-19 10-11 11-5 18m-254 133 21-15-33 12q-22 11-17 14l29-11m102-46 24-9q15-10 10-21-4 11-17 15-13 5-17 15m74-60q2 21-34 30 11 12 33-7 22-18 1-23m-31-129q3 10-1 9-9-1-13 3 9 2 8 14-2 11 13 16 15-15-5-32l4-8q-1-4-6-2m-72 28 10 9 5 8 13-8q5-3 1-11l-5 3h-5l4-9q-7 0-8 3l-6 9-9-4m-42 7-6-3-6-4 7-13q0-10-6-6l-2 7-8 2q10 9 5 16-4 8-13 3-2 9 8 19 9 9 10-6h-12l8-7 8-2q-1 12 19 8-1-5-10-7-6-1-2-7 6 1 19 9 11 7 18 6v-6l1-7-17 3q-11-2-8-11l11-1 11-1-10-10-11-7-7 9q-3-6-9-6l2 22m56-26q9-3 3-9-6-6-3-9l-27 6q-13 5-18 10l17-3q9 2 8 11 4-10 12-13 7-4 8 7m77-359-8 8q-4 4-2 7l21 4 20 2-2-16q-7 13-13 8l-16-13m-1-29h-7l-5-16q-2-7-13-5l5 7 1 7-6-1h-7q2-6-4-8-4-1-1-5 4 3 13-6l-18-8q-12-1-11 10 7-2 2 13-6 15 3 13l24 2 24-3m258 343q-44 21-73 46-33 27-61 68l134-114m35-21 25-14q-11-3-32 9-22 13-18 24 10-11 25-19m51-30q16-11 8-20l-20 17q-12 10-11 16l23-13m-253 7 13 13q15-14 11-28l-13 10-11 5m11-22v6l6 1-4-17q-4-9-13-10-6 5-7 13l-1 12q11-8 19-5M488 1928q6 11 16 5l-2-11-6-12q-13 6-8 18m-27-84 1-3h-4q4 3 1 9-4 7-2 10l17-3-1 4h4q-3-6 3-10-3-6-9-5l-10-2m327-193 7-9q43-22 60-53l59-31 14-35 20-17 19-19q14-25 4-52-9-25-33-41-13-14-26-18-22-7-47 11l-12 10q-13 12-18 29-6 17-1 33 0 10 6 26l6 26q0 21-24 67l-34 73M309 1835q21-18 48-13-11-27-54-6l6 19m24 21q-3-6 7-12-3 7 10 11 12 4 9-4-4 4-9-3l-9-11-8 5q-6 1-9 4l5 8q1 4 4 2m-160 10-14 12 5 15q0 10 3 14l17-17 14-16q-9 2-25-8M93 1703v-14q-38 36-19 60l9-18q5-10 15-10-9-9-5-18m208-69-9-7q-12 10-22 9-10 0-13-14-34 3-39 34-4 27 14 60l35-27q22-11 30 5 10-3 3-11-8-8-4-11 6 12 11 6 6-7 8-5l12 13q-9 4-10 11l-1 11-40-4q-26-5-34 16l57 3 7 23q8 14 3 22l10-2q1 12 12 13l-3 7-7 2q15 13 25 8-6-8-5-17 2-7-3-12l31 14q13-13 26-11 5-8-2-19l-9-14 13 1q-4-4-3-8l1-8q-16-1-29-18-13-18-3-32-3-7-10-3-6 4-9-4 12-3 7-16-6-18-5-22h-9q-3 0-3-7-10 8-17 8 10 4 2 13-9 9-12 3l-6-10m-51-46q-10-3-16-12l-62 73q12 3 3 12-13 12-11 19l19 1-46 30 28 11q13-14 11-28l10-3 2 7 4 6 11-17q3-6 15-7-11-13-3-35 9-26 7-35l43-13-15-9m88-37-10 1-7 13q10 10 18 7-10-9-5-12 4-3 12 0l2-10q1-7-7-3 4 6-3 4m-32-38 3-16q-11 11-23 12-14 1-30 17l3 5-1 5-3-1v4q8-8 23-6 15 1 22-5l6-15m182-140-14 25-24 27q-9-9-13-7l3 10-13 1q-5 10-10 7l-8-20q-4-8-2-19l-17 18q-8 11-5 19 8-7 15 3l6 21q-6 2-10 11l-6 4-3-16q-5-11-2-16-5 2-9-4l-6 9-8 3q15 15 12 33l-6 34 10-2q-4 17-2 31 3 22 24 21l-13 12q17 7 18 28 1 20 8 21-6 6-6 26l6 35q5-3 9 4 9-3 4-10-7-7-3-9l26 41q14 18 34 26-2-17 8-32l10 1 4-6q7 11 10 6 4-8 9-5-8 8-1 12 3-4 15-5 10-1 8-9l-13 1q-8-3-9-12l19-2q12-1 11-6-11 4-2-4 6-6 10-6l-7-7 3-11q-10-1-12 10l-5 17-6-2-7-5q10-4 12-14l6-14 9 2 8-7 5 2 68 8q39-4 59-31 12-16 7-40-5-21-21-35l-23-19-14-15-4 7-7-3q-4-13-14-20l2-1q-4-12-16-21l-19-15-4 2 3-3-6-10q-7 0-13 11-5 9-13 7l-5-11q-7-8-3-12l8-1 8-1-10-10q-4-6 4-10l-32-25-35-23m35-346q-8-7-9-17l-2-16-10 7q-7 1-10 5l7 13 11 13q6-5 13-5m162 143-23-1 17 20q6 8-6 19 0-8-9-10l-16 2 20 22-11 14q-11 14-4 30l-6 20q-4 17 1 39l9 36 3-4 3 4q12 24 31 36l18 9h3v1q68 28 102-12 31-37 8-85l9-70q-4-43-48-61l-74 4-3-2q-6-2-8 5-2 7-8 4 7-11-8-20m25-280-15-21q-7-10-19-3 1 10 13 18 12 9 21 6m58 81q5 11 13 6-2-8 3-18 3-8-4-17l-9 9-14-1 11 21m-44-59 16-1-7-15-14-2 5 18m-26-62q-3 4-9 4l12 14q17-12 5-23l-8 5m-46-14-3-6-16 4H611l-4 9 22 14q11 7 19-8 6 8 16 7l16 1-12-14-7 5-7 1 3-6q-10 2-12-4l7-3m-28-34q11 1 21-11l-42 1 21 10m-19 71q-7 1-10 5l45 8q0-7-9-8-11-2-16-12l-10 7m-20 74q6 10 16 10-9 20 7 35l3 5 1-3 3 2 1 1 1 8q2 32 6 43l3 6-6 20 11-11 3 3-5 8-10 6q9 9-4 9 8 16-7 43-17 29-13 42-15 20-22 8-7-11 16-21-9-8-18 5l-15 19q16 9 20 23 4 14 10 17-5-11 14-20l29-13-2-16q34-10 52-22-1 7 7 12l14 5-9-10q-7-6-2-10l15 1q10-2 7-9-7 5-11-2l-4-15 8 1v-13l15 10q15 4 22 11l-9-17 12 1 10 8q21 19 44 7 26 5 48-19 17-18 9-38l9-11q18-25 7-53-11-29-44-28-15 1-33 14l-8 7-1-2q-18-12-39-13-25-1-40 12l-2 2-20-28-10-21 6-11-1-15q-3 4-10 5-6 1-10 6l-6-4v-8l-16 2q-10 2-15-10l-17 13-20 13M532 807q10 11 0 30-11 20-6 30l16-5 16-6q-21-8-18-25 2-14 18-29-5 4-11 0-6-4-15 5m-21 37q10 0 11-11 2-10-3-20-6-1-11 4l-6 11-9-4 12 13 7-9v-9q9 5 4 13-6 9-5 12m-4-45q-2-5 4-9l-12-7 3-5v-5l-6 2-7 4 5 10v9l7 1h6m58-9 16-3q-16-20-31-8l15 11m723 39-9-24q-13 2-13 11l22 13M977 947q-3 12-1 32l1 31-11 26q-7 14 1 28l-9 1-2 5q-10 1-24 12l-24 12q-20 3-40 32-17 23-12 55l1 27q-31 52-3 86l25 21q17 17 45 15l10 11q17 16 41 22 30 8 71-13 62-34 66-35 27-11 68 5-8-8-13-28l-8-29q-22-28-27-50l-12-42-24-36q-16-19-21-33-7-18-1-41-42-18-63-44-20-24-34-70M812 852l9 6 1-9q5-12 11-3-7-23-60-6l9 5 9 8 21-1m52-37-6-9q-8 4-5 15 2 11 7 8-4-6 7-6l-3-8m136 18-32 2 12 13 9-7 8-2q4 4 0 12-5 7 2 11 4-5 11-5l11-3-21-21m125-110-15 7-46 22q-6 9-4 22l-6 8 4-9-28 1-18 13-3 5q6 4 8-3 2-8 8-6v12l9 11-3-16q12-2 14 6l-5 17q13-3 31 8l-1 2q-2 10-1 28l-1 27q-16 23-13 47 4 26 29 42 33 20 71-10 10 10 27 13l10-1 10 7 12 13 20 17 27-1 6-5 28 44q-16-4-12 22 4 26 18 39l7-5q2-11 7-13v25q-1 14 14 11 5 11-2 29-9 20-8 28l23-12 29 2h-11l-12 2q-2 3 2 8l7 8q-8-1-16 6l-16 5-2 8-3 8q4 7 13 3 9-3 13 5-3 3 5 13-9 4-16-4-2 3 2 8l7 8-12 3-11 12 17 3q10 0 1 11l28 1q17 7 6 23l-3-10q-6 11 8 12 13 1 7 11 6 4 9-5 4-11 11-13-4-6-11-4l-11 6q2-10 13-22-15-37 1-82 8-21 1-25-14-10-18-22l-6-23-1 8q-12 5-10-8l8-21h-7q-5 0-8-4l8-7 7-2 1-8-21 6q-11 3-10-6 17 4 32-9v-8l2-6-8 12q-8-12-16-4-10-7-11-18-1-9-10-12 10-9 15 3l3 17q4-11 11-11h16q-10-2-9-9l-3-5q0-14 17-28 8 10 4 13l-15 9q6 0 9 6l6 7 2-4q-3-11 2-23v-2l-5-7-3 1q-3-1-1-5l-12-24h-1l2 14q1 9-7 14 5-16-12-13 6-13 6-54 5 0 6 9l4 17q0-21 5-32l-1-6q-13-1-24 15l-24-27q9-6 19 7 4-8-5-19l19-5-35-16-1-2 2 15 8 14-16-3q-7-8-12-2l-45-60q-21-35-22-68-18 1-12-7-1-7-10-14-18 12-42 0l-44-29m-31-108-12 16 10-3 9-3-6-11-1 1m297-461 11 9q11-9 2-16l-17-1 4 8m429 929-4 18q0 11-8 17l-2-1q-10 62-72 84l5 2q-61 54-127 54 3 8 9 4 7-4 10 3-13 14-46 26-29 11-37 24l170-87q101-66 102-144M1680 472l2 2q23 17 30 46l-40 56-44 55q-11 13-10 29 1 14 11 26l-15 20-31 37q-21 24-22 37l-18 14q-9 10-11 20l-30 32q14-5 32-22l26-28h7q7-9 29-17 22-9 28-18 30-9 61-35 32 24 35 58l6 14 7 7v-1l26 26-18 30-21 27 1 4h-4q-8 27-48 42l-1 7h-4l-9 9-31 46h-4l-6 7-5 13-9 3-25 34-8 11-6 12h3l-2 5-3 13 12-1 16-18 27-23 6-2 2-6 1-1q49-20 81-25l70-10 10 12q17 15 21 35 37 27 41 69 4 45-36 78-40 33-130 65-103 38-136 57-65 39-174 133-87 75-135 90l-2 11-9 10-4-6-2-7q-9 28-46 48-20 12-60 29-6-4-4-11l-4-12q-8-3-11 11-4 14 6 12l-36 24-43 22 1-6q-18 18-86 45-57 24-67 48-18 8-41 32l-32 28 5 10-13 9 3 7 3 12q-11-1-20 18-7 14-10 3-9 12-11 32l-6 31q-4 9-9 2-7-7-10-3-3 4 2 6 6 1 4 7l-13-1-7 35H555q5-25-7-31 6 8-4 31H526l7-7q-14-23-34-18l6-7 5-8q-15-2-27-14l-16-20q8 10-3 19l-15 8q4-3-1-8l-8-2 4 10q5 7 2 10l-25-21 8-11q3-6-3-11l-10 13-11 12-1-8-1-9-13 12q-8 7-14 6 13 10 2 17-10 6-19 5l-6 32q-146-1-236-83l15-23 16-28q-13-22-42-19-29 2-34 22-52-72-61-171l179-136q182-138 242-203 34-39 38-90l-2-100q-1-47-31-176-25-107-14-159 16-83 48-114 4 6-6 15-10 9 0 19 15-5 23-18 10-14-1-26l-15 9q17-17 34-8v16l5 17q-3 2-13-8-5 18-5 35 27 15 33-23 9 18 22 12l30-22q-2-12-11-12l-17-6 2-8-11-2q1-11 11-5 13 7 19-3 1 12 4 10l6-3q-4-14-15-29l-25-24 1-21-2-21 15 27q-5-18 3-32l-1-3 6-3 11-10 62-40 54-49 33-44 34-42q23-23 48-9l15-3q36 44 38 70 2 19-13 55-14 35-32 57l-38 35q-28 21-39 34-12 16-25 56-10 34-25 44-4 11 1 35 91 3 175-41l5-9q12-17 53-45 39-25 48-45l28-56q16-31 36-50 14-14 31-14l15-45 11-35 12-30q9-21 17-26l20-6 23-5 4-4h7l1 15v14l32 1-5-7 26-11 27-5-17-20q-13-11-15-22-2-10 7-27l12-28-1-44q-1-18 17-39 62-76 71-73l18-5q11-6 17 3 26-23 57-9 28 11 47 44l-5 24q-4 14 5 24l-40 69q-14-17-37-20-29-3-47 21l-36 37-11 45-12 24q-6 14-2 24-2-6 10-26l19-22 31 1 29 14q-93 166-130 277 26 49 80 12 32-22 88-89 117-50 241-144 21 21 31 41" fill="#fff"/></svg>