<?xml version="1.1" encoding="UTF-8"?><svg xmlns="http://www.w3.org/2000/svg" xmlns:xlink="http://www.w3.org/1999/xlink" version="2.0" width="100pt" height="100pt" viewBox="0 0 2000 2000" clip-rule="evenodd" fill-rule="evenodd" preserveAspectRatio="none"><path d="M196 862v5l-2 20 20 17-2-4q-12-17 1-34l1-5h-3l-7-2q-5 0-8 3m-78-7v-1l-8 5h-5l-2 2-7 16 2 8 4-1 1-1 1-3v-1l14-24M960 276q15-32 32-50 18-19 61-30l90-4q38 6 70 29l23 21 45 93-8 59 15 35-2 138-43 49h-39l-12 73 59 45h46l69 26 28 33 31 133-21 70 15 23q33 24 35 79l3 21q21-15 57-35l57-31 79-48q49-34 65-68 0-7 3-10 5-24 48-24l61-8 4-6 1-9-10 2-17 5q-7 4-10-5-3-8 3-12l4-2 3-3h1l1-4q-9-4-6-12l1-5q-6-12 6-15h2l64-5 6 2h7l28-1q9 7 10 25l2-1 3-5q3-8 12-4 8 4 6 12l-16 45-8 15-1 8-4 18-3 5-22 23-62 15v-1l-1 1q-31 5-60 30l-46 52-80 86-74 72-57 54-60 50 1 1h-1q-24 22-44 6l-32-21 1 27 5 36q-6 48 22 159l29 146 97 268 7 54H1227l-48-204-83-13-146 217H631l248-610-5-72 20-88-46-104v-78l-23 46-125 156-8 11q-14 20-33 18l-20-7q-53-21-139-72-114-67-134-105l-7-7-3-4-57-58-18-20-43-10-46-13-52-15q-11-1-33-17L74 925 59 912l-4-10V890l22-49 8-5 1-2 8-2h1 15l14 3 6 3 5-7q-1-5 3-9 4-4 9-3l32 5q7 1 7 10l8 1 26 6 3 1 7 8 10 2 14 12 6 3q9 3 7 9v7l7 7-1 12-11 2 18 19 1 9 47 10 4 5 4 7 123 70 47 12q62 23 105 49l7-90 44-107 20-98 60-101 63-24 56-3 92-44 22-16q24-23 27-58 2-17-37-78-39-58-25-134 3-24 20-56" fill="#fff"/><g transform="matrix(.98 0 0 .98 236 507)"><path d="M13 173q19-68 6-106Q0 14 0 0L1 3 36 50q18 26 12 58L36 149l-9 42q-2 21 28 63l21 22q17 15 30 42L28 279Q-7 247 13 173" fill="#fff" fill-opacity=".3"/></g><path d="M527 265q-25-34-61-44-38-10-74 9-76 37-105 91-19 36-9 75 9 38 45 59l40 5q42-4 44-43v-3q0-40-52-46-39-5-22-26 28-35 74-39l76 7q13 8 4 11l-25 3q-44 9-9 54l18 14 22-3q24-11 39-48 17-44-5-76M295 278l34-34q32-32 61-44l101-6q68 16 77 80 9 59-23 104l-67 77q-16 23-31 78-14 52-34 76-16 20-23 47-8 30 0 53l39 101q8 23-10 72v-1q-5-20-2-47-2-18-11-32l-16-26-17-21-21-18q-35-31-25-70 17-45 17-70 0-43-32-85-44-55-53-116-10-71 36-118" fill="#fff"/><g transform="matrix(.98 0 0 .98 456 417)"><path d="M86 75q-17 29-17 64l9 108q7 60-2 93-10 40-44 60L22 357 1 288q-5-40 18-75 24-33 30-87 3-30 30-66L129 0q-2 20-17 40L86 75" fill="#fff" fill-opacity=".3"/></g><g transform="matrix(.98 0 0 .98 1741 484)"><path d="M63 170q14 74-10 105L0 314q9-28 20-42l15-22q20-42 18-62l-6-41-8-41q-4-32 8-57L70 3l2-3L59 66q-9 37 4 104" fill="#fff" fill-opacity=".3"/></g><path d="M1686 192q-29-9-54 13-24 21-27 56-4 35 8 53-1-28 12-38l19-3q12-18 42-12 36 7 38 60l3 27 10 13 16 4q16-5 18-45 2-39-14-59-25-55-71-69m-99 60q7-62 47-81 26-12 68-9 22 2 47 22l27 26q31 46 21 140-7 83-38 139-22 39-22 83 0 25 12 68 7 40-16 70l-26 39-11 25-8 32-1 47-1 1q-11-51-6-72l27-99q10-50-16-100-13-23-22-75-10-53-22-75-33-51-44-77-22-45-16-104" fill="#fff"/><g transform="matrix(.98 0 0 .98 1577 393)"><path d="M29 75 12 40Q1 20 0 0L34 60q18 35 20 65 5 55 20 86 16 35 13 74L72 353q-6 24-6 43-23-20-30-59-6-33-2-93l7-106q0-35-12-63" fill="#fff" fill-opacity=".3"/></g></svg>