<?xml version="1.1" encoding="UTF-8"?><svg xmlns="http://www.w3.org/2000/svg" xmlns:xlink="http://www.w3.org/1999/xlink" version="2.0" width="100pt" height="100pt" viewBox="0 0 2000 2000" clip-rule="evenodd" fill-rule="evenodd" preserveAspectRatio="none"><path d="M1173 503q42-30 143-69 111-43 148-33 33 8 167 155l172 191q38 38 67 152l21 106 8 149q2 45-54 89l-56 35q-4-4 3-54l7-49-34 36-22 4q3-18 14-41 22-45 60-66-76-217-82-218-75-94-210-135-52-16-84-14-33 1-25 19l141 294q81 168 152 286l3 19q3 18 8 24 26 34 56 61l7 5 116 133q55 64 109 156-20 100-88 165-59 60-141 83-93-206-238-264-46-18-91-20l-36 2-61 296H1089q20-93 37-269l12-258-108-299-143 502 68 109-60 28 60 94H896l-98-74-47-299 64-292-22-142q-29-177 2-271 11-35 57-98l44-58Q760 584 733 549q-26-34-32-97-7-79 34-133 22-20 54-36 62-33 108-22 45 11 93 74l47 72 136 96" fill="#fff"/><g transform="scale(1.01 1.01)"><path d="M1524 0h26q-24 186-157 389-222 309-550 532-335 227-662 282-94 12-181 1v-23q257 41 575-110 360-170 632-482Q1471 285 1524 0" fill="#fff" fill-opacity=".4"/><path d="M877 142q-38-38 17-51 56-13 83 26 24 35 15 159-9 111-28 158-99 153-266 247-153 86-334 108-226 1-219-220 7-209 204-450Q399 56 456 0h34Q254 230 200 470q-19 90 25 143 44 53 136 50 138-13 346-213Q920 244 877 142" fill="#fff" fill-opacity=".4"/></g><g transform="scale(1.01 1.01)"><path d="M1133 365q150-248 71-365h47q28 97-11 216-41 125-151 263Q865 761 523 895 192 1024 10 922L0 914V852q72 76 218 93 149-14 258-48 139-45 279-139 230-151 378-393" fill="#fff" fill-opacity=".4"/><path d="M567 230q-33 28-48 93-22 89 48 144 13 10 26 10l-132 4q-84-53 14-213Q562 125 719 0H869Q702 85 567 230" fill="#fff" fill-opacity=".4"/><path d="M235 11Q81 186 0 354V343q0-43 8-86Q70 149 163 38q28-15 72-27" fill="#fff" fill-opacity=".4"/></g><path d="M244 322 189 504q-41 189 32 217 74 28 253-37 91-31 165-69l81 79q-96 54-175 87-88 36-175 38-128 4-222-68-91-67-6-255 26-59 67-122l35-52" fill="#fff"/><path d="M1157 114q25-61 30-114h134q12 149-101 314l-128-86q39-53 65-114" fill="#fff"/><path d="M804 0Q562 163 484 292 558 142 725 0h79" fill="#fff"/></svg>