<?xml version="1.1" encoding="UTF-8"?><svg xmlns="http://www.w3.org/2000/svg" xmlns:xlink="http://www.w3.org/1999/xlink" version="2.0" width="100pt" height="100pt" viewBox="0 0 2000 2000" clip-rule="evenodd" fill-rule="evenodd" preserveAspectRatio="none"><path d="M992 265q-20-5-19-31-29-51 31-94h13q67-1 89 71 22 72-33 104 23 20 10 58-11 30-35 54 14 14 16 47 2 34 15 47l-23 94q-16 65-14 100-7 11-23 6-14-5-21-13 42-39 7-109-43-84-38-109l25 6q15-41 2-105L967 278l25-13" fill="#fff"/><path d="M1204 271q8-37 15-39l22 2 30 10 27-4q11 107-38 200-12 24-10 50l4 62-8 14q-9 11-11 17-4 14-1 42l1 27q-16 45-56 50-7-7-5-18l5-19q-28-3-44-38 36-99 51-167 22-98 18-189" fill="#fff"/><path d="M961 1495v-25H942q-3 26 19 25M760 658q-41-65-18-118-11-9-14-42-3-36-11-46-10 153-12 518l-6 44q-1 26 18 38 1-9 14-14l17-11q-10-13 9-28 23-18 23-29 12 5 12 19l31-16-6-28 33-2q14 1 29 9-5 26 37 69 40 42 32 74 23-7 19 25l51-2 55 8q-5-58 38-92 53-30 68-51l-36 4q-14 2-20-10 25-37-6-94l-25 16-38 3q-8-9-10-41-2-24-27-34-5 5-2 22l2 34-25 6q-19 1-19 13l19 37-65-4q-42-17-60 4 0-7 6-19-23-4-34-15l-22-22 8-8 5-11q-1-8-8-3l-17 3q-2-14 10-43 11-29 8-57l-18 6q-10 5-13-6 12-39-32-106M676 401q-6-17 4-30-3-15-25-12l17-39q3-18-11-36 7-11 28-23l28-21 69 38 31 96q13 57-6 97l11 34q3 24 8 35l26 46q18 30 17 60l-18 12q67 39 87 94 26-4 47 6l28 13 19-22q9-18 18-22 23 0 33 17 7 11 11 39l25 12 25 13q-17-25-19-39-2-18 13-42 23 10 45 45 21 31 42 36 32 7 67-39 26-34 33-61l32-83 42-109q13-25 29-39l15-25q32 2 47 14 10 7 28 36-5 21-8 64-7 37-35 55l1 270q0 242-14 255-13-3-24-247l-13-247q-18 54-53 188-42 162-35 174-10 33-16 108-6 79-15 111-6 1-4 7 1 6-7 5l-4 34q1 13 10 28-22 18-28 68-6 50 9 76-10 4-14 58l-4 79-8 81q-7 44-31 57-8-46 1-134 9-95 5-135l-24-78q-16-47 5-84-21 15-38 73l-30 89q-9 5-8 50l2 31q21 12 20 43l-2 51 10 25 9 25q9 48 8 122l-2 115v19q-4 15-25 0 14-30 2-75-15-57-14-69 0-7 7-22l5-22-10-67q-13-53-15-70l-18-18q-16-16-28-18-38-5-47 129-1 15 4 48 1 26-17 33l3-94-4 13q-11 47-15-96l-3-16-6-12q0-9 7-18l6-19q-3-9-16-15l-22-10 22 19q14 8 3 24-24-4-50-21l-43-29q-1-7 8-10l10-8-24 3q-5 0-7 9-14 8-14-15 0-23 14-16l-29-4q-26 2-21-20-8 3-23 171-15 167-33 171V1470q-9-10-26-9l-30-4 1 241q0 145-14 227-15-14-24-60-7-39-7-77V1420l-21-28q-12-11-4-28-40-24-34-103 8-93-13-127l-87-72q1-43 19-63l18-11 104 26q0-43 11-285 10-199 1-295l-10-33" fill="#fff"/><path d="M436 846l47 62q25 33 47 50-9 16-13 69-52 8-82-9l-64-46q-8 103-12 274l-3 29-26 20q-11-8-15-32l-3-43q-4-49 3-137l9-125q-4-13-30-43-19-22-14-44 8-41 63-45 47-3 93 20" fill="#fff"/></svg>