<?xml version="1.1" encoding="UTF-8"?><svg xmlns="http://www.w3.org/2000/svg" xmlns:xlink="http://www.w3.org/1999/xlink" version="2.0" width="100pt" height="100pt" viewBox="0 0 2000 2000" clip-rule="evenodd" fill-rule="evenodd" preserveAspectRatio="none"><path d="M533 878q0-7 3-2l2 6-3-1-2-3" fill="#fff"/><path d="M537 888q8 3-16 19-2-5 6-10l10-9" fill="#fff"/><path d="M760 792l9-1q2 4-4 5-6 2-5-4" fill="#fff"/><path d="M617 863q47-34 64-22l-29 10 29-3-5 11-14 9q0-7 6-9l-18 6q-12 4-16-6l7 1 1-5-11 3-14 5" fill="#fff"/><path d="M775 792l4 2 4 1-2 3-5 2q-2-3-1-8" fill="#fff"/><path d="M503 915l10-4-13 12q-4-5 3-8" fill="#fff"/><path d="M685 843l-2-5 7-4q4 5-5 9" fill="#fff"/><path d="M742 812l12-2 11 1-23 1" fill="#fff"/><path d="M771 809q-2-3 3-5l8-3 1 7 2 7-7-3q-4-5-7-3" fill="#fff"/><path d="M478 963l13-6-4 8-8 6-1-8" fill="#fff"/><path d="M427 1064l-3-3v-5l3 3v5" fill="#fff"/><path d="M390 1089l-5 10-5 9q-3-7 0-14 2-7 10-5" fill="#fff"/><path d="M402 1096q5-1 5 6l-6 6 2-6-1-6" fill="#fff"/><path d="M360 1196q11-5 5 13-5 1-4-5l-1-8" fill="#fff"/><path d="M1098 941l-18-20-18-22q18 3 31 29l4 7 1 6" fill="#fff"/><path d="M359 1215q5 0 3 5-3 6 0 9-6 0-5-6l2-8" fill="#fff"/><path d="M354 1232l3 3v5l-3-3v-5" fill="#fff"/><path d="M356 1243l4 10v13q-5-1-5-10-1-7 1-13" fill="#fff"/><path d="M1210 1143q5-5 8 4l2 12-6-4-4-12" fill="#fff"/><path d="M592 1634h-7l-2-5 4-5q5-1 5 10" fill="#fff"/><path d="M1158 1460q9 2 1 6-8 3-1-6" fill="#fff"/><path d="M803 1665l4-1h4l-4 5q-5 2-4-4" fill="#fff"/><path d="M520 1793l4-5 8-3-12 8" fill="#fff"/><path d="M885 1660l-6-5-8-1q2-5 11-6l15-3q5 1-4 6-12 5-8 9" fill="#fff"/><path d="M852 1668q2-7 16-7 14-1 9 8l-4 1-2-7-19 5" fill="#fff"/><path d="M975 1621q1 4-6 8l-9 7q-6-1 1-7l14-8" fill="#fff"/><path d="M944 1640l10 2-7 6-3-8" fill="#fff"/><path d="M877 1675q1-4 10-7l15-6q-2 7-25 13" fill="#fff"/><path d="M527 780l23 21q13 12 13 21h3l5-3 36-15q24-12 29-10l-69 30 25 32 28 21q-3-10 8-9l23 2-11 10 9-1 6-8q8 8 22-3l23-19v15l4-7-1-7h8q5 0 1-7l-4 1-7 1q3-11-4-13l-19 2q7-10-9-6 6-6 18-3 11 3 18 9 9-12 26-12h24l3 5q1 5 6 3v-8l9-8-5 11 9 1q6 0 2-5l25 6q15 3 26-7l-23-5q-8 4 4 4l-7 3q-8-3-4-8-8 6-14-6l11-1 14 3-5-5-6 1 18-3 24-4q-1-5-13-3 0-10 7-12l3 4 1 6 6-4q2-3 6-4l6 11 7-8q-3 5 1 11l3 12-11 3-12 1q3 4 8 4l11-3q3 9 22 11 21 2 27 10l9-1 12 1q-2-5-15-7-10-1-9-7H898l-18-1q0-5 7-5h9q-3-3-11-3l-12-2 2-5 6-4-5-2v-2h-3l-6 1 3-5-1-5h13q5 11 0 15l10 5 9 5-4-6-11-2q-3-5 2-9l-2-4 9 2q7 7 16 0 1 7-5 7l-11-3 20 15q17 9 29 0-10 2-17-5-7-7-14-3-4-9 7-12 3 7 11 9l11 6q1-9 13-5l17 10-13-2q-5-3-10 0l23 17q15 11 29 12-5 7 2 18l6-27q6-15 21-16l-10-1q-4-1 7-3 14-3 13-9 12 10 15 0l2 1v4l4-5 20 7q16 5 15 18 7-2 11 10-9-6-7-2l8 14-4 6-9 18q-9 10-37 22l-45-14q7 10 21 13l25 3 16 25q14 15 8 23 7-5 18 6 13 13 23 12-4 5-1 8l8 8 12-1q10 0 13 8l10-10q5 10 18 3l33-19 27-9 5-8q27-14 58-22-10 1 4-10l19-15q-8 2-2-4 5-7 7-4-2-6 8-16 5-1 2 3l-7 5q28-10 35-18l17 8 16 12 6 15-2 10-10-2q7 17-2 26l-18 10 6 1q-14 14-51 9-60 27-136 80-5 17 9 59l26 70q-31-67-40-99v-21l-4-6q-1-3 5-7-8 2-13 13l-8 17 17 18q9 10 8 18-6 3-5-3l-2-13q-6 2-12-7l2 7 6 11q-7 3-3 9l-4 3q-3 3 1 13l9 10-3-14-1-15q8 14 12 49 5 34 12 48l-4-3-5-3v4l1 5 17-1 17 2-4-19q-4-17 3-2l7 18q5 6 16 5-4-4 2-5l4 6 20-4 23-3q-4 8-3 14l3 14 5-16 2-18q18-11 29-15l49 27q7 31-9 65l7 3 3-1 13 9 48-16q33-9 44 4 12 14 8 30-5 19-31 29l-31-8v-7q-6 1-13-4-9-7-13-8l-78 3-2-5-51 2q-30 1-53 9v-27l4-33q-8-9-13 3l-5 5q-4 3 0 6l5 7-7 14-13 1-2 4 8 2 5 7 5-9q0-8 5-10l-2 12q-3 8 2 9-12 7-25 47l-2-1v-4l-6 9 5 1 4 4q16-26 15-43 8 1 4 6-4 7 2 10-10 10-18 35l5-4 8-8-5 12-10 10 4 5 1 5-6 4-8-1 6 7-15 20q-9 19-19 22 3 9-8 23l-24 21q-2-7 3-11l8-6 2-5 3-4 1-12 15-12 12-9q-5-6-19 8-13 14-14 22l-11 6-11 6-6 21q10-18 19-26 5 3-4 12-10 10-4 18-6 0-10 10l-13 15 6-15q4-8-3-7l12-20q-7 1-13 11-7 11 0 22l-12 13-13 13q5 3 18-14 7-1 0 12-7 13-7 0l-4 5q-3 4 1 8l-15 9q-10 5-10 11l-4-3-4-2q-4 3 0 5l4 5q-5 6-32 17 4-11 25-20-7-8-15 0l-11 9q5 1 0 6l-9 3 7 8q6 0 7 4 5-10 19-14l-21 22q8 21 16 23l-5 2 13 21 12 17-9 1q27 18 38 11 6 15 19 7l-4 5 12 20 2-2q19 35-2 2l-5 4h6l7 22q3-10 4-1l-1 15-12 2 9-1q13 12-26 26-29 7-3-2h-12q-9 2-10 7l-8-2-7-7-19-2-17-10-5-13q-2-5 2-7l-3-4-4-5 19-24q10-10 17-13 6-3 7-3l3 5 11-9q8-3 12 5l4-4q-6-12-27-7-20 4-26 17-6 3-3-7l-3-1h-4l-22-36q-17-24-31-10-6-1 2-5l12-5q4-17-21-9-20 6-28 13l1 1v4l-4 1v-3l-10 9-12 4 1-3 3-2H889q-19 1-27-11 21 3 19 10l18-5 14-6 17 1q17-7 25-16-5-2-15 6l-18 9-6-7-1 5-13 4-1-5-4-5-1 10H879l-16-4-6 6q1 5 8 5l-16 3-16-7 7 1 6 2q-4-6-12-7l-16-2q-3 2 3 7l10 2-6 6-9 1-1-9h-6q-3 3 1 7l2 7 27-5h26l-7 8-12-3q2 5-5 6-10 0-15 6-5-5-12-4l-12-4q2 6-4 5l-14-3 5 5-5 1q3 4 8 4l9 1q-1 7-12 6-11 0-7-7l-9 7q3-8-9-8 1-5 7-3l10 1-29-6-24-4-7 5 5 4 5 4h-6l-13 48-14 37-7 28q-6 18-5 29l-11 4q9 5 15 21l10 14-2 20-8 21-22 6 3 2 3-1q-8 9-20 8l-24-5q-2-6 2-4h9l-18-5-4-6-7-7q7-3 4-12l-4-15 11-18q5-12 13-17-3 8 0 5l8-9q5 6-1 10l-7 6q3 6 16-4l-2-12q-1-6 6-8-7-3-5-10l3 2 2 2q-3-21-1-45l5-8-2-9-3-10 4-14q-4-10 7-18-4 1-3-10l1-23-24-5q-12 12-15 28-4 1-2-3l1-6-11 25q-6 10-6 19-7 0-6 3l-7 3-1 7q-3 1-1 9-4-2-9 4l-11 7 9-1-16 26-2 8-5 4 5 6 4 8q-8-5-5 1l2 13q8-3 8 11l-6 1q-6 7 4 3l-29 31q-21 4-37-8-18-14-8-40 26-6 42-29l19-48q-6 0 2-13l10-29-4 10-5 9q4-29 18-35-6-6 5-30l-2 10 6-9 2-9q-3-4-3 1 0-3-12-10l-12-10 29 14 29 13 6-1 7-2-1 12-7 10 7-8 9-11q4 4 13 5l12 5 6-15-24-2q-14-3-15-11-7 2-5 8-4 1-2-3l1-6H611l-15-1q-1-5 5-4l9 1-4-7-5-5-7 8-12-3q-3 1 1 4l-4 3q-11-6 0-8l-5-4-4 5-5 2q5-7-1-8l-12-2q-1-5 4-4l7 2-15-8-10-8-1 6q-13-6-3-8l-23-21-19-27q-6 8-1 16l13 12q-15-4-28-28-16-29-24-35 4-4 7 0l3 8v-9q-1-7 1-10l-14 10-7-9-1-9-7-2-7 2 7 6q3 3-5 2l7 9v-4l3-4q0 13 12 20 15 7 17 20-7 2-10-6l-6-12q-6 3-1 13l-15-16-8-17q-1 15-12-7 13 14 4-1-8-13-6-1-6-1-4-8 1-7 7-8-5-3-10 0l-9 5-93 46q-59 30-69 51l-2 16-3 3q-7 22-35 24-29 2-32-27-2 12-9-5 10 5 3-5l-13-18 4-9 2-12 2 2-1 6 5-10q1-5 10-5h-6l15-8 21-5-1 10q4-10 20-7h23v-6q18-8 51-35 31-25 51-31-1-5 9-9l9-7q-1-5 3-3l4 3q5-4-1-21l-11-32-13 1q-9 2-7-4l-19 9q-12 2-22 8 1-5-16 4l-28 6-28 34v-7q-12 20-32 19-21-1-29-26l5-1-6-8q6 5 6 0 0-9 5-10l-4-1-4 4 2-6 5-14 2 5 9-8h-6q1-3 10-5l15-6q3 6 11 5h13q4-3 0-3l-6-4 4 1q10 3 7 10l5-4 4 6 16-10 16-1q6-14 31-19l39-11q-1-6-7-3l-11 5-18 7q-7-2 27-14l7-1 3-4 16 39 16 48q6-6 5-20-1-17 1-22l-6 1-2 9q-6 2-8-12 19 0-3-57l10-4q-3-6-3-16 0-12 5-15l2-7q1-4 4 1l-4-22q-4-14-1-25l8-9-3-8q8 1 8-3l-9-9-3 7 1 12-5-4v13l-5 11q-4-13 2-28l9-25 6 5 1 7q11-38-2-57l7-12q-6-8-1-18l9-19-1-15q-2-9 1-13l27-30-6-4 3-9 2 5q-1 5 3-1 3-1 2 5l-2 10 6-14q3-9 11-12 6 5 1 11l-11 9q-3 2 0 6l-15 10-13 11q-6 10-8 35l-6 38 7-17q3-16 9-17v19l-4 22q7 0 7 12l-6 18q11-7 10-33l-3-43q11-8 16-28 5-22 11-29l12-5q7-6 11-5-2-12-12 2-4 0 1-6l9-8q-8-2-2-13l9-20q4 1 1 7l-3 9 4-6-2 11 7-15-5-16 4 4q31-23 26-47l17-11 10-16q5-4 11-5l11-2-2 8-8 6-15 10-16 9-7 18q3-3 9-3l13-9q-3-4-5 0-4 6-8 5 0-9 16-18l21-16q6 1 1 7l-6 10 10-7 4-11q9 8 8-3l-10-18q-9-12-8-23l-4-2-2 2-31-55q-24-37-45-43-8-4 9-1l-30-7q-16-8-22-29 6 7 7 0 1-8-5-9l7-17 10-21q26-15 56-12l18 35q1 4-2 1l-3-4 3 13q3 9-2 16-2 3-1-4l-1-14-2 20q-1 13-9 18l14-3 8 7 2 10q3-5 6 0l4 8m188 56 8 3q-2 6 2 5-4-4 0-6l1-7q-24 0-16 7 2-4 5-2m59 8 6 5 8 1-4-6-3-3q1 5-7 3m42-2q3-5-3-6l-2 9q-2 7 2 6l3-9m-59-9q-2-6-8-5-6 2-4 7l12-2m147 7q-6-3-5 5l13 1 3 1-11-7m-85-31q6 8 17 9 11 0 13-10l-15 2-15-1m22 26 12 2H838l-9 1 37 9q2-5-7-9-7-3-1-9-15 5-27 0 2 8 10 6m57 22q3 6 11 8l12 4q-2-5 5-4 5 1 4-3l-16-2-16-3m75-8 9-1v-5l-3-2-3 4-3 4m-41-25q7 9 24 5l-1-5-3-2-8 3-12-1m16 43q-6-1-5 4l10 2-5-6m-27 29q4-3 13 0h8l-12-4q-7-3-9 4m30-7-2-5-5 2 2 5 5-2m7-33-38-11 19 12 19-1m31 14q-3-4-9-5l-10-2q3 5 8 6l11 1m-17 31q3 10-8 21l-18 12q3 12-8 14l-23 5q0 7 5 7h7q-1 6 2 5 1-13 8-3l23-30 26-33q-5 1-9 7l-5-5m20-2 9-11 8-12-14 12q-8 5-3 11m-15-12q-8 0-7 3l16 2-9-5m423 6-2-10-8-7q4 18 10 17m-59 47 12 2q8 3 9-2l-12-2-9 2m-252 14 8 26q6 14 8 4l-12-19q7-1 3-6l-7-5m-14 2 4 3q-2-4 3-3l3-3-6-2-7-1 3 6m3 15 6 5 6 2-6-11-3-3-3 7m-27-44 3 3 4-5q4 12 4 2l-12-7 1 7m20 14-8-8q-8-2-7 2l8 2 7 4m-15 0 5 8q5 3 3-2l-4-3q-2-3-4-3m17 59-6-6 6 12q5 6 5 2l-5-8m20 20q-2 6 2 16 4 10 9 3-5 0-7-10l-4-9m23 7q0-2-2-1-2 10 4 15 6 5-3-13l1-1m3 33 5 4-3-5q-3-3-2 1m22 15-6-5q-3-4-6-2l7 8 5-1m29 39q-4-31-16-51-3 11 10 38-3 17 6 13m13 42q0 12 3 9l2-14q2-7-4-12l-1 17m-3-19 5-2-2-5-5 2 2 5m9 42 6 3 6 4-7-9q-6-3-5 2m-12 8 1 3q-6 19 1 3 5-11-2-6m-15-6v6l-10-1 7 5q7 0 9 3-7 4 1 3 8-1 4-5l-8-6 1-3-4-2m-6 97q8-3 8-10l-1-14q-8 6-7 24m49-33-9-1q-4-1-1 5 9-3 4 5-5 9 1 8l3-8 2-9m-21 6 5-2-3-5-5 2 3 5m-145 123-19-1 11 2 8-1m164-64-1 7q-1 5 3 4l2-7-4-4m-20 34q-2 7 1 7 6-26 1-18l-2 11m-15-31 5-2-3-6-5 3 3 5m17 53-2-6q-3-5-3 2l2 3 3 1m-9 22q6-3 5 1l5 1q21-30 11-29l-16 25-3-1-2 3m1 9q3 12 12 7l-1-5-3-3-1 4-7-3m29-16q3-9-3-6-7 4 3 6m68-130 11 2-1 6 18 1 21 4q3-18-16-30l-18 3-25 4 10 10M1013 933l-10 10q-3 8 3 2 15-20 7-12m-37 70 7-6 3-13q-6 2-7 9l-3 10m-64 352 4 2q-1-10 17-17l26-4-1-12-2-2-2 10q-16-2-31 7-11 7-17 17l6-1m26-32 14 4-2-14-11-8 7 9q4 5 1 9-1-7-10-6-9 0-11 6h12m21 18q-4 1-6-3l-30 14v11q0 7 5 8-7-17 14-21l26-6-9-3m5 29 10 2q-2-9 5-6l10 6-4-7-5-8 1-1-2-1q1 5-8 3 5 4-2 7-7 2-5 5m-17-2-3 5 9-6q2-6-5-5l-1 6m8 24q-9-9-20-12l11 11 9 1m18 9q-7-1-6 4 16 4 17-4l-3-2-2-2-6 4m20-15 3-5 5 4q6-9-11-7-17 3-7 8 0-7 4-3 4 4 1 7l5-4m23 138q-11 18 0 22l7-11 4-12-8 8-6 10 3-13v-4m-173 81-4 2-2 4 4-1 2-5m-19 47q-5 4-2 8l4-3 2-3-4-2m67-43h-8q-6 1-5 5l9-2q5 1 4-3m118-36q12 1 6-5-5-6-6 5m-46 5-8-9-8-6 2 11q4-4 9 3l5 1m-23 36 2-6-9 1 2 7 3 3 2-5m-16-20-10-2q0 5 6 6l4-4m-277 29 4 7q5-3 13 0l12 2-6-11-6-9-3 14q-22-7-14-3m111 17 16 1-13-4q-7-3-5-10-9 8-11-4l-13 13q-5 9-1 11-2-6 8-3l-1-9 20 5m18-21-4-4-2 9 6-5m-2 35 1-4 19 3-26-4 1 9 8-3-3-1m20-9 6-5 1-8-41-3 18 5 19 3q-3 2-3 8M637 1839q-2 4 2 3l3-6-4-3-1 6m29-22q8 4 7-2l-9-5q6-3-1-3l-5 7q-4 4 1 4l7-1m490-405q-4 1-9-5-2 9 3 14-2-5 2-6l4-3m-54 57-2 4 4-1 2-5-4 2m-6-13 5-7-5-5-1 6 1 6m18-29q6 13 11 13l-4-10q-2-7-7-3m-12 8q9 8 6 0-4-8-6 0m-37-8v-12q0-8-6-10l2 14q-1 7 4 8m6 55q8-4 0-6-8 9 0 6m-14 12q-20 15-8 10l8-10m14 17q3-8-6-5 3 12 6 5m8-8-10 14q-7 7 3 11l-16 13-11 10 18-9q8-7 12-7l1-17q0-11 9-8l-2 8q-3 5 1 4l12-18q7-11 6-20-6 3-5 9l-9 3q5 9 2 11l-11-4m-44 52q0-5 14-17 12-10 5-15l-14 17q-10 10-5 15M535 920l-3-8-3 6 6 2m-77 103q8-3 5 4l7-12-8 3-4 5m24-24-7 13 12-14 1-12-6 13m13 23q-3-4 8-11l5-7-13 9q-8 6 0 9m-60 44q-3-3 1-3l-1 9-4 8q10-6 10-19l-7 1q-5 5 1 4m-3 33 3 4q0-12-4-11l1 7m24-25 4-6-11 4q-1 8 4 8l3-6m-2 16q6-6 0-7l-5 8-6 8 11-9m-22 28v-8q-7 3-6 15l6-7m-13 25q7-4 4 4-4 7 1 6l10-25-7 4h-4q14-7-1-2l-1 7-2 6m21-2q2-5-3-6-6 15 3 14-3-2 0-8m-45 3-2 7-5 5q8 5 5 17l-1 10 4-2 4-5-2-1 3-3q-6-3-4-15l-2-13m11 75q2 30 8 18-4 1-5-12l-3-6M288 1367l-8 4q-4 2 0 6l8-10m109-22-3-6q-3-3-2 1l5 5m1 23-3 7q-4 3-1 7l7-8q2-6-3-6m-19-12q2-6-5-8l-1 11q-1 7 6 8-3-3 0-11m1 28 2 1 2-2 5 1-3-7-4 4-2 3m3 6-2 7q-1 5 4 4l1-7-3-4m23 11-4 5-5-4 2 8 2 2 6-7q5-4-1-4m180-202-5 2-6-7-3 8q15 5 14-3m-61 6q-7 0-7 5 6-1 6 3l-2 7 9-6 3-8-9-1m24 6q4 4 7 4 0-5 3-1l4 1q-4-7-12-10l-10 1 8 5m16-3q6 5 0 12l4 3 4 3q-4-16-3-36l-17 11 12 7m-11 50 12 7 5-8-4-4 1-5-5-3q1 8-7 8l-14-2 12 7m36-15 3-6q2-4-4-3l-1 6 2 3m-83-32q-4-1-3 2 5-2 5 6 0 8 3 6l3-8-1-8-7 2m-10-1q-4 7-5 35-1 22-15 31l-8 3q-6 2-4 6 15-4 23-17l13-20-2-14-5-2q12-16 5-17 0 6-3 1l1-6m-57-20 28 2q-10-10-30-6-21 4-22 19 10-12 24-15m-25 64 6 9 7 7q-6-16-13-16m98 1-7-5q-7-1-6 4l13 1m-97 227q0 5 6 6l4-4-10-2m62 31-2-5-5 2 2 5 5-2m-1 4q-3 7 7 9 4-9-7-9m22 15 10 4q6 4 7 0l-10-10-10-8 3 6v8m-2-19 2-3q-9-18-6-6l4 9m-12 15q4 13 11 11l-5-7q-3-3-6-4m23 28 8 2q-7-10-13-10l5 8m21 26q4-4-2-7-7-3-6 2l4 2 4 3m-41-33q3-12-12-20l12 20" fill="#fff"/><path d="M1003 839q-9 1-20-6l-18-11 20 6 18 11" fill="#fff"/><path d="M410 1101l4-23q2-13 7-21l-3 23-8 21" fill="#fff"/><path d="M352 1172l5-24q5 2 3 11l-8 13" fill="#fff"/><path d="M369 1189q-8-9 6-42-2-3-6 4-3 5-3 9-4 0-2-6v-11l8-3 6-7q2 16-9 56" fill="#fff"/><path d="M371 1286l-4-6-2 5-3-5q-1-6-3-1-2-1 2-10 5-10 2-16 6 10 8 33" fill="#fff"/><path d="M358 1291q7-4 5 11l-5 23q-4-2 0-17 4-14 0-17" fill="#fff"/><path d="M482 1563l16 12 16 14 4 3h-5l-15-14-16-15" fill="#fff"/><path d="M761 1661q-2 6-11 6l-15-3 9-2 17-1" fill="#fff"/><path d="M771 1670l-20 5-23 1 19-5 24-1" fill="#fff"/><path d="M1318 1181l-3 6q-4 2-2 5-5 2-2-4l7-7" fill="#fff"/><path d="M605 531l-3 7-7 6 1-3 9-10" fill="#fff"/><path d="M591 570q4-28 26-39 23-12 45 5 2 12 11 26-4-3-5 1l4 3q-4 3-7 20l-7 25 21 60 17 57q-2 2-5 3l12 14 7 14q8-4 13 3 9 2 0 1l-7-3 1 8-33 9-30 9 5-13q1-6-6-11l3-2 3-6q-6 0-5-6l1-17q-3 1 0 5-10-17-11-31l2-16q-9-18-11-32l-1-20-6-25-18-22-19-20" fill="#fff"/><path d="M227 867q4-4 21-6l18-2 18 16 21 32q27 8 58 35l24 12 26 6-13 23q-13 15-16 23-3 13-1 0l4-7-8-3-5-7-16-7-15-7-1-3-10-10-22-14-17-12-4-3-16 6v-7l-9 7q-30 7-45-47l4-12 4-13" fill="#fff"/><path d="M391 1000q4 0 1 7l-7 8 2-7 4-8" fill="#fff"/><path d="M1018 571q19-10 42-6 24 4 37 21l-8 24q-4 13-13 12l-12 13q-10 7-16 6l-6 12q-2 8-8 6l3 3-3 3-2 13-8 13 5-1-5 16-2-2v-4l-5 14-5 12q7-8 6 0l-9 7q6 13-7 34h-6l-1 9-6 11q5-2 4 9 0 15 7 23-12 1-30-12-19-13-30-14l-4-6-4-5-11 1-10-1q5-6 0-6l-10-2 20-3q-7 0 0 5l6-1q10 5 17-8l-11 2 9-22q3-13-6-28 7 2 3-3-4-5 3-3-6-3-4-10 6-2 1 3l10-9q2-8 9-11l10-1 8 2 7-5 9-2 18-26q9-17 5-33l-7-21q-4-13 1-22l2 3-2 6 8-9 1-7M971 716l1 3q-6 18 1 3 5-11-2-6m-22 40h-7l-1 4h5l3-4m-1-10 2-8-6 10-2 8q3-5 7-3l4-1-5-6m48 72q-4-8-8-6l2 5 6 1" fill="#fff"/><path d="M309 1093l23-3 18-2q-1-5 4-11l3 7-8 10 9-1 9-7-9 39q-7 23-20 29l5 5 4 6-6-1q0-5-5-3v15q-8-3-14-18-5-6-24-14l-2-3-23-4-21-7q-3-2-3-8l-10 5 1-4-48-16-58-5q-7 2-17 10-36 13-55-34l6-27q6-16 28-21l-4 5 16-3 13-1 5 8q3 6 5 0l7 6 5 8q12 11 36 18l30 8 52 3 46 6 2 1v4m33 56 2-5v-5q-4 0-5 6-2 6 3 4" fill="#fff"/><path d="M372 1084l2 9-3 10v-1l-4-9 5-9" fill="#fff"/><path d="M609 847l12-10q3 3-1 3-2 6 6 5l9 1-17 5-17 10v-5l-4 1 12-10" fill="#fff"/><path d="M500 901l-1-2q10-9 3 2-14 19-2 0" fill="#fff"/><path d="M699 819l-1-3q9-9 2 2l-1 1" fill="#fff"/><path d="M790 797l-5-4q0-11 26-4 26 6 5 12l7-5-18-2q-9-2-15 3" fill="#fff"/><path d="M436 971l3-1-3 9q-3 1 0-8" fill="#fff"/><path d="M471 968q6-1 4 3l-3 6q-4 1-2-2l1-7" fill="#fff"/><path d="M443 1008q5 0 2 7l-8 8 2-8 4-7" fill="#fff"/><path d="M408 1047l-7 11-5 10q-6-2 1-10l11-11" fill="#fff"/><path d="M1006 826q-4 1-2-5l4 4 4-2q5-1 0 3l-3 1-3-1" fill="#fff"/><path d="M375 1111l-5 9q-4 5 4 3 0 8-10 13l2-14q0-9 9-11" fill="#fff"/><path d="M327 1177q5 2 4 24v35q-3-2-3-24l-1-35" fill="#fff"/><path d="M338 1181l3 6-2 9q-7 1-1-15" fill="#fff"/><path d="M345 1184q4-3 6 4 2 9-3 1-3 4 1 12 3 6-5 8l1-25" fill="#fff"/><path d="M363 1176l-2 16-5 2v7q-5-3-2-12l9-13" fill="#fff"/><path d="M377 1180h3l1-5q4 0 1 8l-8 10q-3-4 5-8-3-1-3-8 0-5 2-1l-1 4" fill="#fff"/><path d="M1082 890l9 21q1 7-4-3-4-9-4-3-9-14-1-15" fill="#fff"/><path d="M330 1246q2-5 3 1l2 11q-5 1-4-4l-1-8" fill="#fff"/><path d="M332 1266q2-5 3 1l3 12q-5 1-5-5l-1-8" fill="#fff"/><path d="M1107 947q5-2 8 4 3 5 8-2l-1 12-15-14" fill="#fff"/><path d="M336 1304q2-5 3 1l3 11q-5 1-5-4l-1-8" fill="#fff"/><path d="M339 1324q2-5 3 1l2 12q-5 1-4-5l-1-8" fill="#fff"/><path d="M356 1335l8 21q1 14-6 20l2-19-4-22" fill="#fff"/><path d="M1200 1113q3-4 3 8 1 13 6 13-5 7-7-4l-2-17" fill="#fff"/><path d="M524 1597l12 7 19 16-31-23" fill="#fff"/><path d="M1222 1355q2-13 9-21l46 20q28 8 39-14l-1 4 25 1 18 35-13 21-24 22-6-4q-4-3-3 2l-9-5q-4-4-11-5-5-27-30-32-10-3-44 0l4-24" fill="#fff"/><path d="M1176 1458l-4 9q-3 5-6-2l10-7" fill="#fff"/><path d="M1141 1476q-8 29-35 46l9-14 13-11q-4-2 1-8l12-13" fill="#fff"/><path d="M1132 1505l21-28q1 5 8 3l-13 11-16 14" fill="#fff"/><path d="M1103 1540l20-20q-2 12-8 16l8 6q-7 14 12 37l39 44 3 7 2 6 28 30 24 27 13-6q-1 6 9 9l15 5 5 23 3 23q-5 2-11 11l-18 7q16 6-16 4l-6-10q-6-7-6-18-5 2-2 9l6 7q-10 0-16-24l-7-36-12-7-73-62-9-9-1-6-5-2-8-1q-2-11-12-17l-24-4 4-6 4-8 3 3 5-8h-6q-3-7 13-13l13-3 11-14m104 175 4 8 6-3 3-4-9 1-4-2" fill="#fff"/><path d="M876 1701q3 17-2 24l7 7 5 22-5 2 6 6-3 8q15 61 46 99l-8 15-15 16-19 4-15 1-7-9q-9 11-20-5-10-16-2-25l4 3 3 6v-7l-4-9 9-13 10-14q-2-19-12-47l-17-47-9-42h5l2-5q-4 3-6-3l-7-7 23-5 31 3q-3 5 0 22" fill="#fff"/><path d="M1456 222q2-3 3 0l-1 4-2-4" fill="#fff" fill-opacity=".8"/><path d="M1456 229l-3 4-10 3 6-5 7-2" fill="#fff" fill-opacity=".8"/><path d="M1600 229l5 2-4 2-1-4" fill="#fff" fill-opacity=".8"/><path d="M1534 244l-10-1-8-7 4 2 1-2-15-2 39 3-18-1 17 5-6 5-9 1 5-3" fill="#fff" fill-opacity=".8"/><path d="M1608 232l3 4-1 1h-4l2-5" fill="#fff" fill-opacity=".8"/><path d="M1438 237l-10 2 4-3 6 1" fill="#fff" fill-opacity=".8"/><path d="M1547 239v-3h5q1 3-5 3" fill="#fff" fill-opacity=".8"/><path d="M1602 241q-1-2 3-2h5l-2 8-3-3-3-3" fill="#fff" fill-opacity=".8"/><path d="M1407 255h8l-10 5 2-5" fill="#fff" fill-opacity=".8"/><path d="M1329 303l-10 9q3-15 10-9" fill="#fff" fill-opacity=".8"/><path d="M1334 310l2 4q-2 4-5 2l3-6" fill="#fff" fill-opacity=".8"/><path d="M1748 389l-10-31q10 7 10 23l1 4-1 4" fill="#fff" fill-opacity=".8"/><path d="M1283 364l1 4-3 5q-5-2 2-9" fill="#fff" fill-opacity=".8"/><path d="M1275 379v6l-3 7q-4-2 3-13" fill="#fff" fill-opacity=".8"/><path d="M1762 524q4-1 4 5l-3 7q-6-1-1-12" fill="#fff" fill-opacity=".8"/><path d="M1311 646l-3-1v-3l3-2q6 0 0 6" fill="#fff" fill-opacity=".8"/><path d="M1418 712l5 2-3 2-2-4" fill="#fff" fill-opacity=".8"/><path d="M1235 716q0-2 3-2h6l-9 2" fill="#fff" fill-opacity=".8"/><path d="M1465 729l-3-4-4-3h7l9 2-3 2q-7 0-6 3" fill="#fff" fill-opacity=".8"/><path d="M1445 726l10-1q8 3 3 7l-3-1 1-4-11-1" fill="#fff" fill-opacity=".8"/><path d="M1522 729l-5 3q-5 0-6 2-3-3 2-4l9-1" fill="#fff" fill-opacity=".8"/><path d="M1501 732q12 6 0 5v-5" fill="#fff" fill-opacity=".8"/><path d="M1915 412l7 8 6 10v10l-3 5-5-3q0 11-8 14l-12 1 3 1q-10 5-29-6l-93 11q-7 7-8 34l-3 44 1-63 5-11v-4l4-3q-5-1-10 4l-8 8 5 13v11q-4 0-2-3l2-7-5-6q-3 0 0 11-5 0-5 4 1 3-2 1l-2 8 2 7 5-16-5 29q-6 19-5 28l-3-5-1 2-1 3 10 3q7 2 8 6l3-11q1-10 2-1-3 15 7 18l2-2 1 4 11 2q8 6 14 5-5 4-7 14l12-16 20-2 19 27q-2 16-19 33l5 3 4 8 30 3q21 3 23 12 3 10-2 18-7 9-24 8-3-5-15-11l2-3-7-7-5-7-20-9-23-7v-3l-28-11q-16-7-30-8l15-31q-2-7-7-2l-4 2q-3 1-1 3l1 5-7 6-8-2-2 1 4 3 1 6 5-5q2-4 5-4l-4 6-1 6q-5 1-12 8l-13 12v-4l-5 4 4 5 18-20 1 4q-3 3-1 6-10 4-18 15l4-1 6-3-6 6-8 2 1 4-1 3-3 1-5-3 2 5q-3 0-12 8-10 8-16 7-2 13-28 17l4-6 6-1 3-2q-10 5 2-3l-2 3 2-2 3-6 11-3 9-2q-1-4-12 0l-13 9-15 1-8 10q10-8 16-10l-5 6q-8 3-6 9-3-1-7 3l-11 5 7-7q3-3-1-4l12-9-10 3q-6 5-5 12l-20 9h7l6-4-3 7q-6 5-3-2-6 4-5 7l-10 1q-7 0-8 4l-2-3-2-2-1 2 1 4-21 2 18-5q-2-6-8-4l-8 2q3 3-2 4h-5l2 5 3 5q4-4 13-4l-16 7q-2 12 3 16l-1 1-2-1 5 27-5-2q9 16 18 15 0 10 8 8l-3 2 2 14-4 1 3 1-1 14q14-16-2 8l-7-2 5 2q4 10-20 8-17-3-1-1l-6-4-7 2-7-8q-10-1-16-15v-9q0-3 3-3l-2-6q15-12 28-12h4l1 3 8-2 6 6q2-2 3-2-1-8-13-10l-19 3q-3 0 0-5l-3-1-4-25q-3-17-14-13l10-2q6-8-9-10h-19v4l-2-2-15 2q0-2 4-2l-18-7-12-13q12 6 8 10l11 1 9 1q-3 4 9 4l17-3h-9-12l-2-5-2 3-8-1 1-3-1-4-3 5q-8 0-16-9l-5 1 3 5-9-2-8-8 7 5-5-7-8-4v4l5 4q-2 5-10 0l2-5-4-2q-3 1-1 5v4l15 3 14 6-11-1-4 1h-9l-6-5-6-4q0 4-3 1l-7-5 1 4h-2l3 4 5 2-8 1q-6-3-2-6l-7 2-3-7 5 1 5 3q-2-5-15-11l-12-8-4 2 1 3 2 4-3-2-35 40-10 14-10 14h-7q4 4 4 14-1 9 1 10-6 16-14 20l-14-1 4 2-13-1-12-8q0-4 2-2l5 2-9-7-1-4-2-6 5-5 2-9q11-12 21-14l-2 3 7-3-3 5-5 2 10 2 2-7q0-4 4-3l-1-4q-1-1 1-3l2 3 10-24 5-4q-2-6 1-11l5-7q1-5 9-8-3 0 0-6l6-12q-2-3-11-8-10 3-15 11l-1-2 2-3-12 11-7 9h-4-5l-2 3-3 5h-5l-8 2 5 2-15 9-3 4-3 1 1 5v5q-3-4-3 0l-2 7q5 0 3 7h-5q-4 2 2 3l-23 10q-12-4-18-14-6-11 5-23 27 5 51-28-3-1 4-6l13-13-10 8q9-15 18-15l10-14-3 4 8-8h-2l-4-9-4-8 25 28 8 2-10 10 6-2 7-5 6 6 6 6 6-7-12-7-6-9-5 3v-2l2-3-17-8 4-1 5 2-2-8-6 3-5-4q-2 0-1 2l-3 1q-3-6 2-5l-2-3q-2 0-3 2l-3-1q4-2 1-4l-6-4q1-3 3-1l3 3-10-15-1 3-3-3q-1-3 3-2-10-18-12-36-5 3-4 8l4 10q-7-6-8-22l-5-24 3 6 5-9-10 1-1-6q-1-3 1-5l-3-3h-4l2 4h-3l2 7v-2q-1-2 3-1-3 7 2 13l5 15q-9-2-5-14l-4 7q-6-16-5-23-3 6-5-7 4 10 3 1-1-10-3-2-3-2 0-6 2-3 5-3l-11-1-61 3q-39 3-50 12l-5 8h-1q-9 11-25 5-17-6-12-22-3 6-3-5 4 5 2-2l-2-12 8-10 1 2-2 3 4-5h7q0-2-3-2l23 2-3 5q5-5 13 0l12 6 1-3 37-7 34-5 7-3 6-2h2l2 2 5-11 1-20-8-3q-5-1-2-4h-12-14l-10-2-16-3-24 12 2-4-22 3q-11-6-9-21l3 1-2-6 4 2 5-5-2-1-3 1 8-10v4l7-2-4-2h7 10q0 7 11 8l1-2-2-3 2 2q4 4 1 7l4-1 1 4 11-2 9 4 13-4 8 1 23 3-3-4h-7-11l18-1 4 1 3-1-4 54 8-10 5-11-3-1-3 4q-4 0-2-8 10 4 12-32h6q0-14 9-16 3-8 5-2 0-18 8-26l6-3v-5h5l-2-7-6 10-2-3-3 6-5 5q1-8 8-14l10-12q4 4 0 10 15-20 14-33l6-5q-1-6 4-10l7-6-11 19 8-8 9-7-5 10-7 12q4 1 1 8l-8 8 14-15 8-25 15-11 13-13h8 7l-3-4-4 2q-3-1 8-5-4-3 3-8l9-8-1 3-4 5 4-2-4 5 7-6 1-10 2 3q22-5 25-20l12-1 9-7 13 2-8 5-21 3-9 8 15-2h-3-5q2-4 13-5l15-4q3 2-1 4l-6 4 8-2 4-5q3 7 5 0l-1-12q-2-8 1-14-3-6-3-2l-4-37q-4-23-13-32h3l-14-11q-7-8-5-20l4 1-1-6 18-17q18-2 33 7l2 23-2-4-2 9-5 8 1-2 3-8-6 10-9 8 8 2 3 5-1 6 3 1v6l8 17 2 14 2 1 3-1 41 2h-44q4 27 16 41 1-6 6-2l12 6-8 3q1 3 5 2l5-4 13 3 17-4-4 8 4-3 1-4 7-1-3-1-4-1q9-10-10-12 7-3-3-5 10-4 18 12 8-4 17 0l13 5v3l3 3 2-4 7-2-5 5q9 9 6 0l13 9 15 2-11-8-1 2 2 1-4 1q-4-4-1-6-6 2-6-6l6 2 7 4-1-3-4-1 11 3 14 3-7-5 7-5 1 3-1 4 4-1 4-1q-1 7 1 7l6-2q-3 2-3 7l-1 6-13-3q0 3 10 5l9 11 12 12 5 2q1 4 7 3l-6-7-4-6-7-4-9-4 5-1 5 2-12-8 3-3h4l-2-2v-2h-2l-3-1 3-5 7 3-3 8 8 10-1-4-6-4 4-4v-3q2-2 4 3 2 6 9 4l-5 2-5-4q8 24 23 20l-8-7q-2-5-7-4 0-6 7-5l3 7 5 6q3-5 8 0l7 10-6-5-6-2 9 15 13 13q-5 4-4 10l10-12q7-7 15-4l-5-4h4l9-1q5 8 9 3v3l3-1 9 8q8 6 4 13l3 8-2-2 1 9-4 2-9 8-25 3-22-18q1 7 9 12l13 8q-2 4 2 17 4 11-1 14l9 8 10 12-3 4 3 6 6 2q6 3 5 8l8-4q0 7 9 7l23-3 16 1 5-3 37 2q-10-4 18-9-7-1 5-3 0-4 8-6l-3 3 11-1 10-1M1572 242q-11-3-10 0h4l3 4q-9 0 0 3-1-2 1-3l2-4m10 7 6 1-3-4q-3-1-3 3m13 11 3 5 4 2-2-7-2 1-3-1m23 10v-5q-7 7-3 9l3-4m-170-24v-5q-3 0-3 2l3 3m196 13-16-7 7 9q5 3 9-2m-12 13-6-2 18 13-1-5q-3-4 1-6-10-2-14-7-1 5 4 6l5 4-7-3m66 20-1-2q-2 4-11-3 1 6 11 8l1-3m16 24-5-4 1 3 4 1m-7-9-5 3 5 2 1-3-1-2m-26 16h-4v3h4v-3m16-7 8 9-3-5-5-4m-5-6-18-15q1 7 8 11 6 4 10 4m-1 31-2-3-9 10-12 1-8 6-14-2 1 4 4 2-1 2 1 2 4-3 1 3 41-23-6 1m24-8-10 3q-6 1-4 5l7-4 7-4m-46-25 4-1h3l-17-10 10 11m-1 86 5-2 4-6q-6 0-9 8m57-15 1 6 3-1-4-5m15 22q8 1 0-7-3 28 2 20l-2-13m-4-8 2-1-6-5 2 7q0-2 2-1m11 118v3h3v-3h-3m0-11 3-32q-3 4-3 23l-3 6 3 3m-5 39 5 7-2-6-3-1m1-8 5-7v-8l-5 15m-16-95v-6q-3 4-3 10l5 4-2-8m-2 102q0-4-5-4l3 5 4 4q-5 0 0 2l3-2-3-5 2-2-2-2-2 4m-26 66v3h3v-3h-3m23-27h3v-3h-3v3m-76 83-3-4q0 9 3 10v-6m-16 1-2 3-2 4 5-3-1-4m87-41 3-3-1-4q-6 7-2 7m-21 20v-4q-1-3-2 1l2 3m86-46-14-4 3 8 5 4-1 3 9 5q8 2 11 7 6-9-2-20l-11-3m-51-17q-2-2-2 2l1 3q-5 4-1 5l6-8q-2 1-4-2m-148-13-1-2-4 5-31 2 5 3q1-5 13-5l15 4 3-7m4 21-2 1-3-1-3 4-4 1 5 4q1-6 4-2l4 5v-5l-1-5q4 0 0-2m-5 19q2-5 3-1l-2 4 4-1q2-2 3-2l2 3q5-4-5-6-10-2-5 3m-3-30-2-3h-20q-6 9-2 11 1-10 13-8l15 3-4-3m-6-19-8 1 7 2 6 6q5-9-1-15l2 6-2 6-4-6m-3 31q3-3-1-4l-2 3q-3 1-3 2l6-1m-1 24q7 7 9 2l-1-2-4-1-4 1m42 84-5-5-8 6q-5 2-1 6l-12 4-8 3 12-1 8-1 4-9q3-6 7-3l-3 4q-3 2 0 3l10-7 8-10-4 4h-6l-2 6m-23 0-12 6q-8 4-6 8l12-7 6-7m-21-3-5 3 4-5 1-3q-11 7-5 12l6-4 5-6-6 3m-48 7 4 3 3 2-2-7-3-5-2 7m-18 5-5-4 1 5 4-1m6 11-4-2-1 5 1 2 4-5m-74-3q-4 0-3 3l5-2-2-1m453-265-6-1q9 9 12 5l-6-4M1361 292l-11 2q-6 0-9 3l-11 13q1-10 6-13l21-10-2-4 4-4v3h2l-1 3-3 5 6-6q4-4 9-4l-10 8q-2 1-1 4m21-9q6 0 2 4l6-5h-5q-3-1-3 1m-69 57-1 10-3 5h2l3-2 2-2q-3-3 1-9l2-7-6 5m59-32h-6l-1 3 1 2q0-1 3-2l3-3m-13-6 2-2-3 5-4 3 10-8-5-1q-3 1 0 3m-6 16-2-3q-5 5 0 6l2-3m-10 9-2 4 6-6-4 2m-3 8h-2v-2l-3 3-2 4 1 2q-4 4-1 4l11-11h-4m5 8-1-3q-6 6-1 8l2-5m-13 24q-12-2-16 6 15-8 31 5-3-8-15-11m41 35-2 4 9-5-4-3-5 1 2 3m-9-5h-2l2 5v4l3-4 2-5h-5m-5-3-11 18q-6 12-15 13h-6q-3 0-3 2l17-3 11-9 2-7-2-2 7-9q0 4-2 0l2-3m-8 25 6 3-2-4-4 1m43-7-4-8q-3-5-6-2l6 9h2l2 1m2-3-2 6 3 5 7-19-12 1 4 7m14 0h-3l-2-5-3 3q7 6 8 2m-5 22-1-2q-7 4-2 5l3-3m-16 6-2-3v-5l-6 2-7-4 5 7 5 6 5-3m-129 3q-7 8-2 12l3-7-1-5m8 20v-3l-3 2-2 4 5-3m-11 3 1-1h2v-3l-3 1v3m-1 4-1-2q-7 5-2 7l3-5m-4 56 1 4 4-1-5-3m26 31v-3h-3v3h3m11 20q3 4 4 2l-3-8-4-7q3 6-1 8l4 5m1 30v-5q-3-3-4 0l2 2 2 3m54 54 7 3 6 4v-8l-1-6-5 7-7-5v5M1209 430l-5 1-2 3 7-4m213 266-4 3 7-5-21-11 8 7 10 6m-12-13 5-2-2-3-3 5m-8-2q-7 2-5-5l-10 4q-5 4-3 6h5l1-5 10 7q5 7 9 5-10-8-7-12m5 20v-3l10 6q-1-6-13-8l-2 5h5m-116 67-1-3-2 3q-3 2 0 2l3-2" fill="#fff" fill-opacity=".8"/><path d="M1720 312q-9-3-16-19l10 8 6 11" fill="#fff" fill-opacity=".8"/><path d="M1290 340l8-12-1 7-7 5" fill="#fff" fill-opacity=".8"/><path d="M1313 325l-8 15-10 13q-2-4 4-11l9-11-4 1-4 4q-3-1 0-4l3-6 5 1 5-2" fill="#fff" fill-opacity=".8"/><path d="M1273 406l-1-4-2 2-1-4-1-1 4-5 5-6-4 18" fill="#fff" fill-opacity=".8"/><path d="M1265 406q5-1 0 7l-8 11q-2-3 4-9l4-9" fill="#fff" fill-opacity=".8"/><path d="M1268 582l12 22 1 2-3-1-10-23" fill="#fff" fill-opacity=".8"/><path d="M1397 701h-7l-8-5 15 5" fill="#fff" fill-opacity=".8"/><path d="M1587 107l-3 38-4 35h-3l3 10v9l4 1 3 4-4-3-1 5-20-3-18-2 5-6v-7l5-3-1-5 4-9-2 4 2-20 5-8 2-20 6-27-5-16-5-15q8-14 23-15 16-1 23 13V84l-3-1 2 2q-6 2-18 22" fill="#fff" fill-opacity=".8"/><path d="M1293 145l13 2 12 3v1q6 8 8 34l23 32 10 12 13 10-13 9-10 6q-4 0-5-8l-13-15v-2l-3-8-15-23-1-3-11-1 2-3-7 2q-18-3-13-37l10-11" fill="#fff" fill-opacity=".8"/><path d="M1783 176l8-6 25 6 15 20-10 11q-5 6-10 4l-10 4-10-1-5 5-6 2 1 3h-3l-11 12 3 1-7 7v-3l-11 11q6-3 3 1l-7 2q2 9-11 17l-3-2-3 5-6 5 1 6q-4 8-2 14l-4-3 2 1-3-5v4l-9-11-13-14v-4l-1-4-7-2q-2-3-5-3l2-3-5-4 11 3q-1 6 2 4 4 4 11 0l-6-2 10-10q5-6 3-16l3-1q-1-3 2-1l-1-3 1-4q4 2 0 2l7-2 8-5 6 3q4 0 4 2h10l16-10 10-16 1-14 6-11v2l-2 3m-51 63q-8 9 0 2 5-5 0-4v2m-17 5-5 4-3 4h5 2l-1-4 2-4" fill="#fff" fill-opacity=".8"/><path d="M1190 207l7 2q-1 11 4 7l3 10q6 13 30 29l27 14 24 14v4l13 3 10 3 5-5v5l-7 4 5 1 7-1-14 18q-9 11-18 11l2 9-2-2-3-3-3 8q-4-3-3-13l-10-13v-2l-22-17v-5h-6l1-1-22-20q-16-15-31-17l-11 2q-22-1-22-31l10-13q7-7 20-5l-3 1 9 3m103 113-4 1 1 4 3-5" fill="#fff" fill-opacity=".8"/><path d="M1321 297l-5 10q-3 3 0-7l5-3" fill="#fff" fill-opacity=".8"/><path d="M1512 222l3 4 4 3-10-1-11 1-2-3 16-4" fill="#fff" fill-opacity=".8"/><path d="M1433 227v-1q8-3 1 2-9 6-1-1" fill="#fff" fill-opacity=".8"/><path d="M1560 229v-2q8-2 1 2-18 12-1 0" fill="#fff" fill-opacity=".8"/><path d="M1615 239l-2-3q3-6 15 3 13 10 0 8l5-1-9-5-9-2" fill="#fff" fill-opacity=".8"/><path d="M1382 250h2l-4 5q-2 0 2-5" fill="#fff" fill-opacity=".8"/><path d="M1402 257l1 3-3 2q-5-1 2-5" fill="#fff" fill-opacity=".8"/><path d="M1377 272v4l-6 3 3-4 3-3" fill="#fff" fill-opacity=".8"/><path d="M1316 312l-4 4q-4 1 1 2l-8 5 4-7q2-5 7-4" fill="#fff" fill-opacity=".8"/><path d="M1280 341v4l-3 4q-4-1 3-8" fill="#fff" fill-opacity=".8"/><path d="M1283 345l2 3q-1 5-2 0l-2 7-4 3 6-13" fill="#fff" fill-opacity=".8"/><path d="M1295 345l-5 8q-3-3-5 3-2-3 2-7l8-4" fill="#fff" fill-opacity=".8"/><path d="M1752 358v13l-2-2-2-3q-1-10 4-8" fill="#fff" fill-opacity=".8"/><path d="M1260 374l1 1-1 7q-5-1 0-8" fill="#fff" fill-opacity=".8"/><path d="M1257 386l1 1-1 7q-5-1 0-8" fill="#fff" fill-opacity=".8"/><path d="M1752 394l3 4 5 1-3 7-5-12" fill="#fff" fill-opacity=".8"/><path d="M1250 407q2-2 2 1l-2 7q-5-1 0-8" fill="#fff" fill-opacity=".8"/><path d="M1247 419l1 1-1 7q-5-1 0-8" fill="#fff" fill-opacity=".8"/><path d="M1253 429v13l-8 10 6-10 2-13" fill="#fff" fill-opacity=".8"/><path d="M1771 658l14 7 1 23-29 15-3-4q-1-3-2 0l-9-10q4-16-8-24l-25-10 8-12 11-10 19 22 25 1q6 2-2 2" fill="#fff" fill-opacity=".8"/><path d="M1646 689q-11 14-30 17l19-8q-2-2 2-4l9-5" fill="#fff" fill-opacity=".8"/><path d="M1646 699l-11 4 18-10 3 3-10 3" fill="#fff" fill-opacity=".8"/><path d="M1582 727l5-3-4-2q0-4 10-3l8 1q13-9 25-11l-8 7q0 4 3 5-7 6-2 23l11 33v8l14 43h9q-2 3 3 7l7 6-7 27-8 3h-12q4 4 0 2l-10-4v-7-11l-3 4 2 6q-6-3 1-38l-5-7-24-51-3-6 2-4-3-2-5-3-2-11q-5-7-13-8l9-6v2m44 108v5l7-2-5-2q0-2-2-1" fill="#fff" fill-opacity=".8"/><path d="M1428 731l-3-5q25 4 30 11l-5 12-6 13-1 18h-3l1 5-3 3q-6 39 2 65l-8 6-12 5-20-5-1-6q-7 4-10-8-2-11 5-14l1 7 2-4v-6l16-10 5-28 2-30 5-24 3 1 2-3-2-3" fill="#fff" fill-opacity=".8"/></svg>