<?xml version="1.1" encoding="UTF-8"?><svg xmlns="http://www.w3.org/2000/svg" xmlns:xlink="http://www.w3.org/1999/xlink" version="2.0" width="100pt" height="100pt" viewBox="0 0 2000 2000" clip-rule="evenodd" fill-rule="evenodd" preserveAspectRatio="none"><path d="M1584 127l-70 100L248 127H1584" fill="#fff" fill-opacity=".8"/><path d="M1168 280l-57 73-797-73h854" fill="#fff" fill-opacity=".8"/><path d="M1387 1013l-70-3-85-3-4-2-4-12-37 3-38 4-36 5-37 6-7 9-5 11-4 5-9 7-9 7-27 1-28 1-27-4-4 3 10 14 13 13 34 13h38l38-3 54-4 54-5q33 0 59-16l13-9 80-2q46 0 94-19l37-17q24-12 35-14l-128 11m210-240q-10-40-22-60-162 81-233 201l39 16 123-33 53-26q37-19 56-27l-16-71m43-383 12-19 9-20-21-15q-13-12-3-18l-3-10-5 23-11 58-11 26q-6 16-3 26 5 17 39 49l21 21 23 18-45-91-7-24q-1-11 5-24m-264 89-9 17-13 13-1 4-61 51q-12 11-16 31l-10 34q-12 22-52 64l-27 29-22 31q-7 17-9 54-2 39-8 55l-15 21-21 18-19 22q-13 14-23 15l-3 5 26-3 26-6 57-5q-16-6-1-83 8-50 19-75l38-62 18-32 16-32 11-16h4l15-19 4-11 2-12 11-20 17-14q13-9 34-38 25-33 12-36l1-2-4 2h3M258 1004q16 0 16-17 0-16-16-16-17 0-17 16 0 17 17 17m-94 0q17 0 17-17l-5-11q-5-5-12-5-17 0-17 16 0 17 17 17m-53-73 13-12 6-70q6-72 9-78H308l11 144 15 12 148 15 419-3q12-20 30-25l49-8q2-13 25-36l3-5 28-77 6-54 5-60q3-38 14-58 6-38 19-56l56-75q29-43 40-82l5-9 14-27q19-27 49-43 21-12 60-25l6-1q25-6 44 10l149 33 19-8 24-22 27-24q37-68 63-92 43-39 108-28 59 9 94 38 44 36 68 111-2 30-17 61-22 48-35 93-31-5-69 35-37 39-66 34 8 28 1 63l-11 57 19 39 7 10 13 43q9 3 10 12 9 25 8 69l-2 71q1 11-10 17l1 5 2 6v6q-1 11-10 17l-18 2-10 3-4 4q-29 15-72 23l-75 13-41 9 57 41q20 13 65 30 39 18 53 53 16 43-22 115l-65 106-104 155q-73 112-63 160 13 63 69 98l106 46q-14 63-128 36-81-18-244-90 10-90 75-136 25-55 64-194 35-127 70-192l-213-40q-15 23-39 125-19 79-69 113-30 96-103 205L893 1828l-57 65q-33 38-44 61l-16 38H598l73-34q42-49 70-140 35-114 51-146 14-27 57-64 45-40 59-62 24-37 31-113l13-123 18-72q9-40 7-63l-19-63-22-65-34 5q-18 0-20-19l-400-1-148 16-15 12-10 144H139q-5-10-15-148l-13-12v-8h-8q-8 0-9-49l2-24q2-24 7-24h8v-8" fill="#fff"/></svg>