<?xml version="1.1" encoding="UTF-8"?><svg xmlns="http://www.w3.org/2000/svg" xmlns:xlink="http://www.w3.org/1999/xlink" version="2.0" width="100pt" height="100pt" viewBox="0 0 2000 2000" clip-rule="evenodd" fill-rule="evenodd" preserveAspectRatio="none"><path d="M1089 804V979l-152 80V884l152-80M937 656l152-80V751L937 831V656m0-220 152-80V531L937 611V436M915 194l140-73 38 10-4 180-152 80V234l-22-40m718 1232v405q-32-14-56-10l-34 17V1324l90 102M533 1323l3-4h952l4 5v523l-17 3-44 17-48 5q-11-2 0-50 10-50 3-52-7-3-46 45-36 44-41 56l-55-3-55 2q-13 4-34-19-23-25-35-26-10 0-28 28-18 28-27 27l-146-14q-28-4-88-46-62-44-75-71-17-1-10 40 8 44-7 50l-94 3-51-5-22 11-22 5q-4-1-17-14V1323M392 1768l-1-1V1426l92-103v494l-14-32-19-26q-10-7-31 7l-27 2m545-657 152-80v255H937V1111" fill="#fff"/><path d="M1752 1833l-70-42 218-843-91 827-57 58m-124-537-42-12 143-498-59 488-42 22M582 1236l-80-38-91-827 218 843-47 22m-210 84-40-23-60-488 143 498-43 13m-37 448-77 38-49-55-91-826 217 843m1097-518-63-29 218-843-91 827-64 45" fill="#fff" fill-opacity=".8"/></svg>