<?xml version="1.1" encoding="UTF-8"?><svg xmlns="http://www.w3.org/2000/svg" xmlns:xlink="http://www.w3.org/1999/xlink" version="2.0" width="100pt" height="100pt" viewBox="0 0 2000 2000" clip-rule="evenodd" fill-rule="evenodd" preserveAspectRatio="none"><path d="M220 478 0 555V472l182-62q95-33 104-43 11-13 35-21l37-16q11-8 20-6 8 2 17-5l35 2 40-4 35-4 71-31 72-29q19-8 11-46l-17-54q-4-17 34-29l56-14q24-8 38 21l19 54q5 12 20 24 14 12 19 26l3 31-6 25 13 55q13 46 7 48L739 429q-8 3-24-37l-18-50q-6-16-52-5-24 5-59 17-21 5-47 17l-44 17q-13 4-10 22 2 22-5 30l-38 36q-14 13-15 24l6 30q12 62 23 96-6 6-2 16l31 92q22 51 61 65 8 6 36 16l23 11q84-27 130-36 82-17 126 17h1l9-10q16-11 6-26 0-25-23-94l-19-39q-13-25-13-41 0-44 34-78 23-23 69-37 43-13 78-11 16 2 24 10 10 9 21 4l11-2 7 1 4 7q2 5 7 4 0-8 12-9l17 1q21 18 27 53l-1 20v20l9 30 7 30-4 25q-2 12 8 25l12 18q9 10 3 20l-12 12q-3 2-3 14l-10 15-12 14q10 1 9 8l-5 11-6 4-6 6q0 26-5 27l59 8q46 10 74 39 26 28 72 36l31 17 33 15 82-4 9-2q61-28 101-129V807l3-3q18-29 29-37l11-3q11-19 39-31l49-19q27-15 84-13l87 5q-4 0-4 11-8 14-42 15l-47 6 17 20q9 11-1 22l-4 16-2 19q-12-2-28 10-17 13-28 12l-3-11q-2-7 3-8-7-14-23 14l-16 35-43 74-28 38-26 39-52 59q-25 27-52 32l-64-3-123-5-49-9-47-13q-14-2-19 47-5 49-14 49l1 88-3 88-11 77 6 25q3 97 50 244 50 157 57 243l7 31q7 21 4 29H1004l-5-39q-2-42-18-113l-23-113q-36 37-61 107l-34 120-6 38H591q13-48 9-66 5 4 3-27l9-37 35-118 29-121v-8q22-44 28-71l-1-11 1-4 32-144 4-10v-3l-2-9q6-27-4-94l-16-83-1-13-9-44-5-6-2-23 2-5v-56l4-8 1-9 2-4-10-2q-7-13-22-10-97 20-170-21l-8-3h-1l-35-15v-1q-36-14-58-30V899q-35-77-49-166L340 626q-12-61-30-104-18-44-33-51-15-7-57 7" fill="#fff"/></svg>