<?xml version="1.1" encoding="UTF-8"?><svg xmlns="http://www.w3.org/2000/svg" xmlns:xlink="http://www.w3.org/1999/xlink" version="2.0" width="100pt" height="100pt" viewBox="0 0 2000 2000" clip-rule="evenodd" fill-rule="evenodd" preserveAspectRatio="none"><path d="M1786 1727q28 16 13 26l-88 12q-78 3-104 17-52 28-231 65-213 45-348 37-100-6-344 0-221 5-283-3-37-4-217 79-52-24-92-64-86-84-92-230l186-64q56-18 132-34l65-13 51-49q60-53 106-73 24-11 88-29 45-14 87-40l130-80q83-51 117-83 41-40 92-61 51-22 73-9 22 13 28 56 6 43-13 69-16 21-102 81l-110 76q-27 20-36 68-8 45 4 66 13 24 26 32 20 13 61 11 38-2 74-16l28-13q171-155 197-203 20-35 47-4 28 32 6 65-114 169-146 192-21 14 42 13l101-13q29-9 95-57 73-54 79-57 29-14 60-18 42-6 63 10 44 33-53 81-46 23-85 59-41 36-14 34l180-20q41-2 68 14 25 15 25 38 0 14 34 32" fill="#fff"/><path d="M973 655 725 427 973 65V655" fill="#fff" fill-opacity=".8"/><path d="M1327 410 1042 659l119-445 166 196" fill="#fff" fill-opacity=".8"/><path d="M1181 713l166-150 238 98-140 155-264-103" fill="#fff" fill-opacity=".8"/><path d="M858 674 377 746 615 529 858 674" fill="#fff" fill-opacity=".8"/><path d="M570 870l357-88-135 311L570 870" fill="#fff" fill-opacity=".8"/><path d="M1084 794l181 103 31 238-212-341" fill="#fff" fill-opacity=".8"/></svg>