<?xml version="1.1" encoding="UTF-8"?><svg xmlns="http://www.w3.org/2000/svg" xmlns:xlink="http://www.w3.org/1999/xlink" version="2.0" width="100pt" height="100pt" viewBox="0 0 2000 2000" clip-rule="evenodd" fill-rule="evenodd" preserveAspectRatio="none"><path d="M1778 414q26-22 59 14l-14-37q25 7 43 61 14 41 60 23-54 29-63 90-5 36-1 111-2 89-20 125-23 48-94 79l-101 40q-46 25-68 84-17 45-35 124l-31 126q-7-5-27-10l-27-11q5 77-50 91l-128-8-139-23q-69-1-84 49l-40 101q-28 71-24 107 4 40-85 45-87 5-112-22l69-39q51-31 53-48l31-197q14-84 61-119 29-20 133-51-107-62-157-77-88-27-173 6-58 24-88-61L691 841q42 2 75 49 36 50 58 54 8 2 32-19 26-21 38-22l21 4 19 2q75-22 90-23 35-3 84 22l79 45 68 59 38-78q22-53 13-81-9-28-60-55-50-25-52-38-4-23-31-60-30-42-37-61-3-7 2-31 4-21-7-37-8-12-42-27l-49-22 23-5 23-5-25-17-26-18 45-1-46-24q24-3 24-15l2-21q45 20 109 106l93 133q23 27 103 36 85 10 111 33 4-10-9-69-10-45 23-58 19-7 26-37 7-26 38-30l33-5 38 5 41 99q10 56-42 96 32 42 87 38 57-4 70-55l35-134q14-100-51-98l20-10q10-6 25-7-49-22-22-45" fill="#fff"/><path d="M730 1231q-58 111-189 179-137 70-280 55-22-99-18-261 85-63 165-168 86-120 135-178 71 39 118 166l69 207" fill="#fff" fill-opacity=".8"/><path d="M303 1038q-49-7-109-70L99 863q1-77 54-145 55-70 137-93 39 53 81 147-28 55-43 134l-25 132" fill="#fff" fill-opacity=".8"/><path d="M515 374q27 15 45 64l27 80q-22 43-73 69-53 27-108 21-9-39-7-100 33-25 64-65l52-69" fill="#fff" fill-opacity=".8"/><path d="M792 408l-3 85q-31-1-74-37l-68-59q-7-49 20-96 27-48 76-68 31 32 64 87-13 37-15 88" fill="#fff" fill-opacity=".8"/><path d="M672 743l-96-1q-4-28 29-67l55-61q53-7 110 16 58 23 89 66l-87 58-100-11" fill="#fff" fill-opacity=".8"/></svg>