<?xml version="1.1" encoding="UTF-8"?><svg xmlns="http://www.w3.org/2000/svg" xmlns:xlink="http://www.w3.org/1999/xlink" version="2.0" width="100pt" height="100pt" viewBox="0 0 2000 2000" clip-rule="evenodd" fill-rule="evenodd" preserveAspectRatio="none"><path d="M944 987q-9 9-9 22 0 13 9 23 9 9 22 9 13 0 22-10 9-9 10-22 0-13-10-22-9-9-22-9-13 0-22 9m22-184q-13 0-22 9-9 9-9 22 0 13 9 23 9 9 22 9 14 0 23-9 9-10 8-23 1-13-8-22-9-9-23-9m260-34 145 18v317l-269 20-22 29-18 142-12 134 1 563H884V1429l-13-134-18-142-22-29-270-20V787l145-18 132-10 23-23h15V720q0-9 45-14l45-2 45 2q45 5 45 14v16h16l23 23 131 10" fill="#fff"/><path d="M1121 700l-13-12q-15-27-62-37l-79-7h-2l-79 7q-46 10-62 37l-13 12q-252 19-277 33l-33 16v411l295 22 8 65 20 182v304H682V1223H171V661H682V150h562V661h510v562H1244v510H1111l-1-304 20-192 7-55 294-22V749l-33-16q-25-14-277-33" fill="#fff" fill-opacity=".8"/></svg>