<?xml version="1.1" encoding="UTF-8"?><svg xmlns="http://www.w3.org/2000/svg" xmlns:xlink="http://www.w3.org/1999/xlink" version="2.0" width="100pt" height="100pt" viewBox="0 0 2000 2000" clip-rule="evenodd" fill-rule="evenodd" preserveAspectRatio="none"><path d="M614 434q0 45 22 76 19 26 60 45l71 29 10 5q24 13 25 44 0 33-13 56l-36 38q-4-61-31-90l-61-48q-47-29-64-51-48-61-68-112l-19-52q-14-32-39-36-79-14-117 190-16 84-31 303-22 303-77 531-64 262-166 401 71-224 108-364 66-251 80-466 16-245 30-353 31-246 87-305 58-60 138-36 78 24 89 99l2 96" fill="#fff"/><path d="M479 420l-1 55-18 130-23 105-20 106q-14-8-20-29l-5-36q-4-40 2-119l12-130 7-61q8-34 35-47 26-13 31 26" fill="#fff"/><path d="M505 460q47 41 25 218-17 129-51 239-52-38-14-204 48-204 40-253" fill="#fff"/><path d="M557 552q47 87 39 252-7 160-54 223-54-43-14-223 45-204 29-252" fill="#fff"/><path d="M668 646q1-6 9-7l14-1q50 35 43 179-6 132-43 194-8-29-1-193 6-144-22-172" fill="#fff"/><path d="M354 800q5 1 11 8l12 8q18 209-14 382-36 202-134 307 59-121 88-327l37-378" fill="#fff"/><path d="M417 902l12 3 11 5q25 90 0 215-20 101-63 192-2-58 21-197 23-137 19-218" fill="#fff"/><path d="M479 996q25 45 55 62-38 117-102 212l25-126q20-91 22-148" fill="#fff"/><path d="M619 609q36 42 42 218 5 173-25 255-18-3-32-19l-23-28q21-79 36-214 17-157 2-212" fill="#fff"/><path d="M550 1066q51 46-71 165l35-63q32-63 36-102" fill="#fff"/><path d="M1507 338q-24 4-39 36l-18 52q-21 50-68 112-16 20-65 51-37 23-60 48-28 29-32 90l-36-38q-14-24-12-56 1-31 24-44l10-5 71-29q41-19 60-45 23-31 23-76-1-80 1-96 11-75 90-99 79-24 137 36 56 59 88 305 16 124 29 353 14 214 81 466 37 140 107 364-102-139-166-401-55-229-76-531-18-228-32-303-38-204-117-190" fill="#fff"/><path d="M1500 420q5-39 31-26 26 13 34 47l7 61 12 130q6 79 2 119l-5 36q-6 21-19 29l-21-106-23-105q-16-97-18-130V420" fill="#fff"/><path d="M1474 460q-9 49 39 253 38 166-14 204-34-110-50-239-22-177 25-218" fill="#fff"/><path d="M1422 552q-17 48 28 252 40 180-14 223-46-63-53-223-8-165 39-252" fill="#fff"/><path d="M1311 646q-28 28-22 172 7 165-1 193-37-61-44-194-6-144 43-179l15 1q8 1 9 7" fill="#fff"/><path d="M1624 800q26 300 37 378 30 206 89 327-98-105-135-307-32-174-14-382l12-8 11-8" fill="#fff"/><path d="M1562 902q-4 81 18 218 23 139 21 197-43-91-63-192-25-125 0-215l11-5 13-3" fill="#fff"/><path d="M1499 996q2 56 22 148l25 126q-64-95-102-212 30-17 55-62" fill="#fff"/><path d="M1359 609q-15 55 3 212 15 135 35 214l-23 28q-14 16-32 19-30-82-24-255 5-176 41-218" fill="#fff"/><path d="M1429 1066q4 39 35 102l35 63q-122-119-70-165" fill="#fff"/><path d="M983 429l14-6 6-15-6-14q-6-6-14-6-9 0-15 6-6 6-6 14l6 15 15 6m20-135-6-15q-6-6-14-6-9 0-15 6-6 7-6 15 0 8 6 14l15 6 14-6 6-14M923 193q0-6 30-9l29-2 30 2q29 3 29 9v10h10l15 15 86 7 95 11V444l-176 13-15 19q-19 195-19 237v546h10v485h-13v8l14 17-11 32-22 12-32 11q-15 0-55-23l-11-32 15-17v-8H919V1259h9V713L908 476l-14-19-177-13V236l95-11 86-7 15-15h10V193" fill="#fff"/></svg>