<?xml version="1.1" encoding="UTF-8"?><svg xmlns="http://www.w3.org/2000/svg" xmlns:xlink="http://www.w3.org/1999/xlink" version="2.0" width="100pt" height="100pt" viewBox="0 0 2000 2000" clip-rule="evenodd" fill-rule="evenodd" preserveAspectRatio="none"><path d="M1425 1466l-9-15q95 58 130 136 17 34 17 69 0 40-23 80h-1q-58 55-140 87-85 34-180 36-97 3-187-25-92-29-151-83-59-50-59-120 0-70 62-123l32-25 40-23q42-19 89-25 104-16 198 21 43 17 79 47 28 25 38 60-5 37-27 68l-30 33-40 29q-43 25-103 34-58 10-118 1-63-10-110-38 42 32 105 48l129 11q67-5 126-32l51-29 42-37q52-55 52-123 0-32-12-62M0 1409q120-177 340-293 183-94 417-120 233-25 448 25 221 51 377 164l21 17q-34-22-72-42-214-112-489-118-276-5-502 100-226 106-330 265-90 129-90 275 0 155 99 292-73-24-127-78-92-92-92-247V1409m715-83h-1l-54 31h-1q-51 34-75 57-107 100-115 228l-1 18q0 103 66 211 41 65 103 121H433q-107-118-121-253l-1-36q0-125 82-236 93-127 268-208 168-76 374-70 204 3 371 86l9 6q-83-19-172-17l-37-8q-168-28-342 15-68 17-132 47l-17 8m1178-80q-61-90-162-162-199-142-465-195-265-56-542-20-281 37-489 157Q97 1106 0 1208V1093Q190 963 442 891q261-74 550-74 295 0 561 78 257 75 447 210v544q0 156-96 247-94 96-249 96H1545l93-41q112-59 193-143 140-146 140-322l-3-52q-14-98-75-188" fill="#fff" fill-opacity=".8"/><path d="M235 612l-12-2-18 31 17 11 23-29-10-11M350 333l50-2 10 10 19 31v14l5 4v19l-8 11v19l-32 30h-3l-6 11v11h12l6 7v9l9 2 24 24h7l30 31 14 149q92 48 184 95l17-23 11 2v15l-15 14 115 54-8 21-106-45-3 6-22-8-15-1-5 10-7 1-13-12-64-28-33-2-4-23 10-10H508l-37 22H448l-16-22V748l-17 26v70q7 1 15 10 17 16 28 52l34 63 2 20 12 16 4 62 20 107 6 21 12 18 40 37-3 25-31-7-24 1-8 12H512l-7-10-10-53-52-94V1022l-70-54H328l-9-12h-8l-65 236v24l7 3 6 6-44 48H204l-10-14v-23l11-33-7-123 21-38 18-39V958l-11-41-26-32V807l26-75-27-22-20-2-52-36V628L232 514V503l72-13v-4h27v-6l-10-6-21-48V381l10-19 21-21 19-8" fill="#fff"/><path d="M1362 641l18 11 23-29-10-11-12-2-19 31m106-279 21-21 19-8 49-2 11 10 19 31v14l4 4v19l-8 11v19l-31 30h-3l-5 11v11h11l6 7v9l9 2 24 24h6l31 31 14 149 183 95 18-23 11 2v15l-16 14 116 54-8 21-106-45-4 6-22-8-15-1-4 10-7 1-13-12-64-28-33-2-4-23 10-10h-22l-36 22h-23l-16-22V748l-18 26v70l16 10q17 16 28 52l34 63 2 20 12 16 4 62 20 107 6 21 12 18 40 37-3 25-31-7-25 1-7 12h-10l-7-10-10-53-53-94V1022l-69-54h-46l-8-12h-9l-64 236v24l7 3 5 6-43 48h-11l-10-14v-23l11-33-7-123 21-38 18-39q-3 0 0-45l-11-41-26-32V807l26-75-27-22-20-2-52-36V628l105-114V503l72-13v-4h27v-6l-10-6-21-48V381l10-19" fill="#fff"/><path d="M837 708l-15-17-18-3-27 47 26 16 34-43M661 782V715L818 544V528l108-19v-6l41-1v-8l-16-10-31-71V346l15-29 31-31 28-12 75-3 15 15 28 46v22l8 4v30l-12 15v30l-48 44h-4l-8 17v16h17l9 11v14l14 3 36 36h9l45 46 22 223 274 141 27-34 16 4v21l-23 22 173 80-13 31-158-66-6 9-32-13-23-2-6 16-11 2-20-19-95-42-50-3-5-34 14-15h-32l-54 33h-35l-24-34V895l-26 38v104l23 15q27 26 43 79l50 94 3 29 18 25 6 93 38 192 19 26 60 56-5 36-46-10-37 1-11 19h-15l-11-16-14-79-79-140V1305l-104-81H961l-13-18H936l-97 353v35l11 4 8 10-65 72H776l-14-21v-35l16-49-10-183 31-58 27-58q-4 0 0-68l-7-30-9-30-40-49V982q28-92 40-111l-41-33-30-3-78-53" fill="#fff"/></svg>