<?xml version="1.1" encoding="UTF-8"?><svg xmlns="http://www.w3.org/2000/svg" xmlns:xlink="http://www.w3.org/1999/xlink" version="2.0" width="100pt" height="100pt" viewBox="0 0 2000 2000" clip-rule="evenodd" fill-rule="evenodd" preserveAspectRatio="none"><path d="M1900 459V818H1547v353H1189V818H836V459h353V106h358V459h353m-87 271V546l-353 1V193H1276V547l-353-1V730h353v353h184V730h353" fill="#fff" fill-opacity=".8"/><path d="M232 1595q0 110 219 188 218 78 526 78 309 0 528-78 219-78 219-188 0-110-219-188-219-78-528-78-308 0-526 78-219 78-219 188m150-212q248-88 595-88 349 0 596 88 247 88 247 212 0 124-247 212-247 88-596 88-348 0-595-88-247-88-247-212 0-124 247-212" fill="#fff"/><path d="M1025 1547H929V1373h96v174" fill="#fff"/><path d="M1025 1658v166H929V1658h96" fill="#fff"/><path d="M1123 1578h488v34H1123v-34" fill="#fff"/><path d="M345 1578H812v34H345v-34" fill="#fff"/><path d="M391 627H287V191H391V627" fill="#fff"/><path d="M121 461V357H557V461H121" fill="#fff"/><path d="M564 832H667v436H564V832" fill="#fff"/><path d="M398 998H833v104H398V998" fill="#fff"/></svg>