<?xml version="1.1" encoding="UTF-8"?><svg xmlns="http://www.w3.org/2000/svg" xmlns:xlink="http://www.w3.org/1999/xlink" version="2.0" width="100pt" height="100pt" viewBox="0 0 2000 2000" clip-rule="evenodd" fill-rule="evenodd" preserveAspectRatio="none"><path d="M1941 1129l-211 461q-35-37-127-80-185-85-470-113-7 0-10-38-3-38-11-39l-136-5-118 4q-11 1-11 38l2 37q-283 23-455 107-86 43-115 80 5 0-186-354l182 130L119 397l421 789 10-493 234 467L970 163l161 1028 270-441-26 565 415-944-103 1007 254-249" fill="#fff" fill-opacity=".8"/><path d="M944 1315l-42 1-42 3q-2 0-5 38l-6 37-73 6L965 750l80 566-101-1" fill="#fff"/><path d="M1603 1424l-2 87q-99-46-223-76l283-556-58 545" fill="#fff"/><path d="M316 1009l290 423q-66 14-128 36-58 20-89 37l-73-496" fill="#fff"/><path d="M1323 1008l-12 414-183-25-13-70q-12-8-20-9l228-310" fill="#fff"/><path d="M633 1097l143 303-92 16-86 18 35-337" fill="#fff"/><path d="M1847 1279l-141 288-105-56 246-232" fill="#fff"/><path d="M341 1668q22-81 190-138 168-57 405-65v-75l121 1v74q220 6 384 57l100 53q103 61 112 99h214v40H1653q-22 81-190 138-169 58-406 65v68h-2v6H936v-74q-218-6-384-57-49-23-100-53-102-61-112-99H126v-40H341m654-163-278 21q-122 19-197 65-75 46-75 98 0 78 162 133 162 55 391 55l257-21q125-29 203-69 91-46 91-94 0-78-162-133-162-55-392-55" fill="#fff"/></svg>