<?xml version="1.1" encoding="UTF-8"?><svg xmlns="http://www.w3.org/2000/svg" xmlns:xlink="http://www.w3.org/1999/xlink" version="2.0" width="100pt" height="100pt" viewBox="0 0 2000 2000" clip-rule="evenodd" fill-rule="evenodd" preserveAspectRatio="none"><path d="M954 827l-69-5q14 35 0 41l-24 8 4 3q2 5-7 13l-27 17q0 19-22 27-22 8-134-3l-4 7q-3 10 4 29 11 30 8 46l79 93 24-23q27-23 39-26 12-4 16-11l9-25q7-15 33-48l24-31 47-112M566 764q-8 17-22 25-9 5-3 28l8 21 33 11q58-36 66-49 5-9 44-27 31-14 57-22 19-7 27-18 9-11-5-15-26-7-118 19l-87 27M894 543q-14 2-13 17l4 21 70 4 83-9 40-3h32q7-4 5-17-2-13-8-13-191-3-213 0m590 76 76-95 20 5 2 112 315-2 2 38H1591l-3 16-19 6-14-25-36 11-13 19-38-3v20l-307-3v65l-3 54q-7 32-18 42-17 14-41 14l24 90-101 33-5 24-11 41-18 78q-17 70-37 103-23 37-73 81-47 39-64 42l-60-12-63-21-49-36-43-43q-9-12-70-59l-59-45-31 98q-32 103-37 129l-31 120q-23 94-16 112 6 16 1 30-7 16-6 27 6 53-6 99-6 26-6 38 0 11 6 19l96 134 24 30H345q-158 0-254-97-91-92-91-249V563l101-39 57-4 36-4 18-24 23-28q14-14 20-50 7-35-4-35-8 0-15-7l-6-7q0-25 6-58 12-64 43-100 32-38 130-68 84-25 118-22 98 6 156 71 37 41 68 101 28 56 28 84L768 494l-52 13-19 33 5 49q-5 14-16 14H653l96 14 35-39 11-35q13-36 22-36l303 36 2 21q3 22 12 31 14 13 27 8V584l309 8v25l14 2" fill="#fff"/></svg>