<?xml version="1.1" encoding="UTF-8"?><svg xmlns="http://www.w3.org/2000/svg" xmlns:xlink="http://www.w3.org/1999/xlink" version="2.0" width="100pt" height="100pt" viewBox="0 0 2000 2000" clip-rule="evenodd" fill-rule="evenodd" preserveAspectRatio="none"><path d="M574 825H679V991H844v103H679v166H574V1094H409V991H574V825M91 94q25-25 48-40V1620q0 163 87 285 44 61 87 90H286q-114-16-191-93-92-92-92-249v-24l1-4V330Q9 184 91 94M502 244V410H667V514H502V680H397V514H232V410H397V244H502M1865 43q34 19 61 49 62 71 74 194V1625l3 24v4q0 158-96 249-74 77-185 92l-30 1q43-29 87-90 86-122 86-285V43M404 1571H851v33H404v-33m36-186q236-84 569-84 333 0 570 84 236 84 236 203 0 118-236 202-237 84-570 84-333 0-569-84-236-84-236-202 0-119 236-203m65 383q209 74 504 74 295 0 504-74 209-75 209-180 0-105-209-179-209-75-504-75-295 0-504 75-209 74-209 179 0 105 209 180m550-393v166H963V1375h92m-92 272h92v159H963V1647m186-76h465v33H1149v-33" fill="#fff"/><path d="M1792 458V803H1452v340H1107V803H767V458h340V119h345V458h340m-84 261V542l-340 1V202H1191V543l-340-1V719h340v340h177V719h340" fill="#fff" fill-opacity=".8"/></svg>