<?xml version="1.1" encoding="UTF-8"?><svg xmlns="http://www.w3.org/2000/svg" xmlns:xlink="http://www.w3.org/1999/xlink" version="2.0" width="100pt" height="100pt" viewBox="0 0 2000 2000" clip-rule="evenodd" fill-rule="evenodd" preserveAspectRatio="none"><path d="M461 1709q-102-61-112-99H135v-41H349q23-80 191-138 168-57 404-65v-74h121v74q223 8 384 57l100 53q103 61 112 99h214v41H1661q-22 80-190 138-169 58-406 65v68h-2v6H944v-74q-222-8-383-57l-100-53m265-281q-122 19-197 65-75 45-75 97 0 78 162 134 161 55 390 55 164 0 257-22 125-28 203-68 90-46 90-94 0-78-162-133-162-56-391-56-141 0-277 22" fill="#fff"/><path d="M188 33Q248 7 329 5L642 1286 188 33" fill="#fff"/><path d="M19 238q21-79 74-138L383 901 19 238" fill="#fff"/><path d="M536 1351 6 752V466l530 885" fill="#fff"/><path d="M1403 5l14-1h168L1234 1256 1403 5" fill="#fff"/><path d="M1676 4q72 0 127 16L1545 634 1676 4" fill="#fff"/><path d="M1891 64l36 33q43 49 63 124-144 265-614 1064L1891 64" fill="#fff"/><path d="M2005 409V629l-555 743 555-963" fill="#fff"/><path d="M414 5 563 8l29 698L414 5" fill="#fff"/><path d="M803 4l16 1238L629 4H803" fill="#fff"/><path d="M885 4h159L958 976 885 4" fill="#fff"/><path d="M1134 4h183L1096 1148 1134 4" fill="#fff"/></svg>