<?xml version="1.1" encoding="UTF-8"?><svg xmlns="http://www.w3.org/2000/svg" xmlns:xlink="http://www.w3.org/1999/xlink" version="2.0" width="100pt" height="100pt" viewBox="0 0 2000 2000" clip-rule="evenodd" fill-rule="evenodd" preserveAspectRatio="none"><path d="M755 733l28-18q8-11-6-15-26-7-118 19l-87 28q-8 16-22 24-8 5-2 28l8 21 33 11q57-35 65-49 5-9 45-27l56-22M867 853l4 3-6 14-28 16q0 19-22 27-22 8-134-2l-4 6q-2 10 4 29 11 30 9 47l79 92 24-22q27-23 39-27l15-10 9-25q7-16 33-49l25-31 46-112-68-5q14 36 0 41l-25 8m249-298q8-4 6-17-2-13-9-13H900q-21 3-8 38l69 4 84-9 40-2 31-1m899 414v135H1610q-89-10-177-50-178-80-178-230l20 23 63 50q115 72 277 72h400M1903 621l3 38H1597l-3 17-19 5-14-25-35 11-14 19-38-2v19l-306-3-1 22q-1 25 1 44 2 24-4 54-7 32-18 41-16 14-41 14l25 90-102 33-5 25-11 41-18 77q-17 70-37 103-22 38-73 81-46 39-63 42l-60-11-63-22q-16-8-49-36l-44-43-70-59-59-45-31 98q-32 103-37 129l-30 120q-23 94-16 112 6 17 0 30-7 16-6 28 6 50-5 98-6 26-6 38 0 11 6 19l95 134 24 30H351q-157 0-253-97-92-92-92-249V546l102-40 57-4 35-4 18-24 23-28q15-14 21-50 7-35-4-35-9 0-16-6l-6-7q0-25 6-58 12-65 43-101 33-38 131-67 84-26 118-23 100 9 156 71 37 41 67 101 28 57 28 85L774 476l-52 14-19 33 6 49q-6 13-17 13H660l95 14 36-38 11-35q13-36 22-36l303 35 2 21q3 22 12 31 13 14 27 8V566l309 8v25l13 3 77-96 19 6 3 112 314-3m112-313v26H1615q-162 0-277 73-58 36-83 72 0-150 178-230 88-40 177-50h395q10 47 10 109" fill="#fff"/></svg>