<?xml version="1.1" encoding="UTF-8"?><svg xmlns="http://www.w3.org/2000/svg" xmlns:xlink="http://www.w3.org/1999/xlink" version="2.0" width="100pt" height="100pt" viewBox="0 0 2000 2000" clip-rule="evenodd" fill-rule="evenodd" preserveAspectRatio="none"><path d="M1682 482q12 67 30 100 23 42 85 91l96 79q112 113 71 275-15 56-118 264 98-210-41-371-126-145-360-178 14 1 32-74 17-72 14-93-7-54-65-116-69-75-179-121-108-44-212-43H962q-104-1-212 43-110 46-179 121-58 62-65 116-3 21 14 93 18 75 33 74-235 33-361 178-139 161-40 371Q48 1083 33 1027-8 865 104 752q13-13 97-79 61-49 84-91 18-33 30-100 11-66 31-101 62-109 185-187Q636 128 774 92q91-23 224-25 134 2 225 25 138 36 243 102 123 78 185 187 20 35 31 101" fill="#fff" fill-opacity=".7"/><path d="M1463 1636l123-110 120-115 35 94q33 92 40 136 6 44-6 99l-24 97q-12 57-59 152l-37 2H1135l140-154q86-102 122-136 74 20 122 64 52 48 66 119 13-77-23-145-34-63-99-103" fill="#fff"/><path d="M339 1387l121 145q70 74 154 107-19 19-118 174L380 1991H346l-56-4-4-19q-7-37-33-103l-36-103q-31-122 19-215l55-87 48-73M1654 937l34-2q46 5 43 60l-2 30q-1 18 6 30l43 60q27 41 17 69-7 18-34 40l-41 34-60 50q-37 30-57 52l-40 9q-30-1-38 9-9 11-29 54l-30 53q-42 48-127 164-75 103-131 161l-182 181H380l146-159q130-139 151-157 58-50 131-91 67-37 133-75 101-64 200-152 98-88 172-181 10-12 41-119 25-87 59-87l53 9q17 2 45-29l36-40q23-23 41-26 24-4 29 10l8 30q8 13 29 13" fill="#fff"/><path d="M997 394q133 1 226 96 94 95 94 229 0 28-16 108-15 78-25 105l-7 66-5 66q0 23 8 39l-121 180q-69 88-154 82-85 6-154-82L722 1103q8-16 8-39l-4-66-8-66q-10-27-25-105-16-80-16-108 0-134 94-229 93-95 226-96m233 516q-69 25-100 28l-99 6 26 31q35 30 79 22 45-7 74-48l20-39M802 923l-38-13 20 39q29 41 74 48 44 8 79-22l26-31-99-6-62-15" fill="#fff"/><path d="M431 901q24-28 52-9 15 10 36 44l32 51 36-15 49-3q10 9 15 38l5 42 4 26 7 55q5 30 18 55 65 129 238 239-10-6-134 80L647 1605q-55-35-98-93l-82-106-124-120q-73-73-99-140-7-19 4-41 9-19 26-33l16-10 13-13q5-10 2-38-3-27 3-37 9-17 39-29 27-11 48-11l36-33" fill="#fff"/></svg>