<?xml version="1.1" encoding="UTF-8"?><svg xmlns="http://www.w3.org/2000/svg" xmlns:xlink="http://www.w3.org/1999/xlink" version="2.0" width="100pt" height="100pt" viewBox="0 0 2000 2000" clip-rule="evenodd" fill-rule="evenodd" preserveAspectRatio="none"><path d="M551 859l-71 88q-76 121-101 291-24 171 26 297 26 64 56 93l188 66q-64-92-108-242-89-301 10-593m996-303q5-19 24-13 19 5 14 24l-23 70-27 70q-6 18-25 13-20-5-13-24l27-69 23-71M1278 283q7-6 17-4l28 10 28 13q58 23 84 30 19 5 13 25-5 19-24 14l-90-33q-46-20-50-21h1q-16-4-16-19 1-10 9-15m96 136 38-4 90-14q26-9 55-38l71 71q-45 45-93 61l-113 19-37 4q-51 5-87 110l122 68-164 149q91 94 143 202 58 122 58 245-1 273-143 422-150 157-438 157-295 0-442-158-138-147-137-422 0-265 158-423Q612 711 878 711l140 16 83-207q54 30 108 59 57-149 165-160m54-262 62 75 47 60 4 15-8 14-12 4q-10 0-16-8L1400 185q-6-5-6-14 0-8 6-14 6-6 14-6 8 0 14 6m268 228q-19 0-19-20 0-20 19-20l192 17q19 4 14 23-6 19-25 16l-181-16m-44 108q10-18 27-9l89 60q68 55 42 75l-22 3q-11-5-13-16l-2-3-48-40q-40-30-66-44-17-9-7-26m-16-384q20 0 20 19 0 94-21 182-4 19-23 14-19-5-15-24 19-82 19-172 0-19 20-19" fill="#fff"/></svg>