<?xml version="1.1" encoding="UTF-8"?><svg xmlns="http://www.w3.org/2000/svg" xmlns:xlink="http://www.w3.org/1999/xlink" version="2.0" width="100pt" height="100pt" viewBox="0 0 2000 2000" clip-rule="evenodd" fill-rule="evenodd" preserveAspectRatio="none"><path d="M793 530 200 449l699-82-81 90-25 73" fill="#fff" fill-opacity=".8"/><path d="M824 720l139 26-94 102L0 803V764l824-44" fill="#fff" fill-opacity=".8"/><path d="M875 1122l-482-54 506-53-24 107" fill="#fff" fill-opacity=".8"/><path d="M694 1379l-161 92L1 1417l-1-25 694-13" fill="#fff" fill-opacity=".8"/><path d="M1184 1208q20-5 44-25 28-22 41-28l-28-9-32-5-12 35-13 32m119-714 8-8q4-4-1-9l-41 7-44 10-29 1-28 2q-24 6-60 25l-61 32q-13 6-59 32l-58 28-57 10-25 8-25-4q0-14 17-21l22-15q-13 2-14-7l24 1q15 1 15-8l-63-6q-12-2-15-8 2-13 25-14l36-4q-2-9-20-20-15-9-12-26l25 5 21 9q5-15-11-25-14-10-7-21 14-1 26 14 13 16 24 18l38-4 40 4q131-113 303-176h21q36 42 89 54l35 26 39 24 19 20 20 19 39 21q21 12 28 29l24 4 19 10q19-3 26-25l10-39 16-20 12-19q68-27 100-21 31 7 65 41 32 33 37 59 9 54-27 99-42 51-44 79l-21 3-6 9-5 12h-11v11h-14q-5 1-7 7-31 14-49-10-26-36-36-40-1 10 14 39l60 132 4 1q3 0 3 2l107-49q-9-32 16-65 28-37 27-63 12-1 16 9l5 20 30-38 34-33 8 6v14l-5 5 5-1V776q-27 25-37 44-16 7-117 87-69 55-153 51l-22-30-21-31q-6-1-12 7-4 5-9 0l-21-41-18-44q-134 33-238 113 3 11 15 19l20 13q29 25 70 82 45 62 68 85 9 37 7 68-18 35-81 62l-111 36-106 22-104 13q-14 14-32 52-17 37-32 51-47 9-79 35-7 24 0 50l14 43q-43 20-74-61l-91 36q-62 22-94 38l-37 19q-19 13-24 27l-5 29-6 35-14 33-11 27 5 31q4 18-5 33l-20-1q-12-1-15 4H595l-21-30-21-30v-7q37-62 36-103-1-18-17-51-13-28-8-45 8-30 71-32l9 7q3 9 9 7 34-14 80-45l77-50q22-58 92-81-18-72 22-82l36 4q24 7 39 0-13-98 11-178 20-49 21-67l-3-28-7-26q-5-40-3-63 4-56 46-94l78-62 57-63q35-40 58-58l58-32q37-19 55-38l-31-38-36-34" fill="#fff"/></svg>