<?xml version="1.1" encoding="UTF-8"?><svg xmlns="http://www.w3.org/2000/svg" xmlns:xlink="http://www.w3.org/1999/xlink" version="2.0" width="100pt" height="100pt" viewBox="0 0 2000 2000" clip-rule="evenodd" fill-rule="evenodd" preserveAspectRatio="none"><path d="M498 176V340H662V521H498V684H317V521H153V340H317V176H498" fill="#fff"/><path d="M1601 1685V1521H1437V1341h164V1177h180v164h164v180H1781v164H1601" fill="#fff" fill-opacity=".8"/><path d="M1117 1610q15-9 34-42l16-31-84 43 15-28q1-6 15-23l13-17-35 16-38 12-31-1-34-17q-19-14-47-16l34 44 7 13 5 14-41-21q-12-8-47-21 22 53 45 76 33 30 91 30 25 0 46-10l36-21m6-258q37 34 86 25 48-9 80-55l22-45-42 15-68 18-106 6q9 19 28 36m-261-43q-34-3-109-32 6 22 22 45 31 47 80 55 49 9 87-25l28-36-41-2-67-5m179-847q104 0 190 33 110 42 167 133 53 84 48 213-3 65-16 112v22q30-35 45-37 9-1 10 17l5 32q4 11-15 65l-26 71-14 51q-10 32-22 35-19 6-20-28l-13 70q-17 76-32 108-21 44-106 172-89 135-109 148-23 15-93 14-71-1-96-18-24-16-113-157L723 1335q-30-60-32-131H681l-20-4q-8-4-11-20l-4-34q-7-44-37-92-12-19-12-56-1-40 15-54 14-13 37 14l20 30q-21-125-15-218 5-102 84-189 108-119 303-119" fill="#fff"/><path d="M498 1777q22-52 140-167l114-104q43 72 108 159 64 84 84 98 25 17 96 18 69 0 93-14l73-81q60-75 100-139l90 80 92 86q52 48 129 273l-1169-1q26-152 50-208" fill="#fff"/></svg>