<?xml version="1.1" encoding="UTF-8"?><svg xmlns="http://www.w3.org/2000/svg" xmlns:xlink="http://www.w3.org/1999/xlink" version="2.0" width="100pt" height="100pt" viewBox="0 0 2000 2000" clip-rule="evenodd" fill-rule="evenodd" preserveAspectRatio="none"><path d="M1066 1377l-4 8q2 11 31 28 29 18 104 93l69 72 18 19q21 12 32-19 12-32 96-124l82-86-103 75q-96 70-107 62l-116-69-102-59m610-848 76 81 48 51-71-29q-64-25-71-30-15-10-38-15-25-6-7 15 15 18 95 55 79 36 82 41l47 98 40 89q27-9 27-37 0-18-49-141l-19-46-93-123-117-150q-32-37-109-196l23 66 22 80q0 12 49 90l65 101M724 1632l-59-26q-42-25-42-51 0-7 5-15l109-72-44 10q-46 14-60 36l-22-5 17-82q-9 32-50 87l-129 21q-122 23-91 34l142-7q99-7 73 46-14 27 60 166-23-91-19-110 3-10 65-19 55-9 45-13M837 582l-49-53q-9-12-7-56l7-62 6-98q5-82 16-98 12-17 51-29l36-8q237-55 273-55l139-13q124-5 181 32l310 323 194 187-6 846-134 48q-69 23-92 18-39-9-67 11-13 10-19 21l101-3q121-9 217-33v166q-79 39-144 98-31 27-114 77-100 59-189 95H1088q108-62 114-72l137-5 144 14 130-4q43-11 127-81 87-73 101-115l-91 90q-103 90-169 87l-365-36q41-68 55-123 8-34 0-64l-9-23-30 80q-32 82-43 93l-65 73q-57 62-86 73l-25 13H386q18-36 16-88-2-48-20-98v76q-5 82-33 110h-4q-157 0-253-97-92-92-92-249V1423H227q23 8 45-5l60-46q47-35 154-69 120-37 201-31 87 7 168 27 78 20 110 42 19 12 20 30l26-35q45-53 113-97 82-53 160-63l157 7q64 13 103 34 21 12 35 39 11 23 25 25 17 3 21-14l1-18-7-39-20-70-19-45q-7-27-13-115l-12-151q-4-55-2-63 5-14-21-94-27-85-52-106l-79-95q-56-70-66-65l-59 48q-49 43-65 48l-47 7q-29 4-35 20-5 15-40 41l-37 32v37q2 30-9 41-29 29-119-28-42-27-87-70" fill="#fff"/><path d="M432 200V364H596V544H432V708H252V544H88V364H252V200H432" fill="#fff"/><path d="M364 846H528V683H708V846H872v181H708v164H528V1027H364V846" fill="#fff"/><path d="M628 1540q13-22 62-49l47-23-109 72" fill="#fff"/></svg>