<?xml version="1.1" encoding="UTF-8"?><svg xmlns="http://www.w3.org/2000/svg" xmlns:xlink="http://www.w3.org/1999/xlink" version="2.0" width="100pt" height="100pt" viewBox="0 0 2000 2000" clip-rule="evenodd" fill-rule="evenodd" preserveAspectRatio="none"><path d="M1417 907l-405-2q-256-4-402 2 2-58-3-71 180 0 810 7v64m114-110v18l-515-6q-302-3-515 3V789q71-77 132-157h772l126 165M1365 935l-2 136q-2 79-10 126h-5q-10-4-10-24l1-32V935h26m125-92q2 126-9 301l-17 290h-26V1133q0-179 9-290h43M696 931v133l-3 129q-13 3-17-15l-3-34-2-101-3-100V931h28M585 836q9 112 5 296-6 233-5 302H560L540 836h45" fill="#fff"/><path d="M1822 1504q-63 113-144 226-88 123-175 218l-58-158-29 11-61 20-164 42-86 13-87 5-168-6q-161-15-326-58l-158-47-78-27-79-33 79-173 67 27 71 26 145 43q161 41 296 52l147 6 71-5 70-10 143-36 81-28-58-158q105 26 243 39l258 11M1736 261l79 32-79 173-68-27-71-26-145-43q-151-39-295-52l-147-5-71 4-71 10q-65 13-142 37l-81 27 58 158q-114-27-243-39L202 499q63-113 144-226Q427 158 521 55l58 158 90-31q79-25 164-42l173-18 168 6q152 14 326 58 74 20 158 47l78 28" fill="#fff" fill-opacity=".8"/></svg>