<?xml version="1.1" encoding="UTF-8"?><svg xmlns="http://www.w3.org/2000/svg" xmlns:xlink="http://www.w3.org/1999/xlink" version="2.0" width="100pt" height="100pt" viewBox="0 0 2000 2000" clip-rule="evenodd" fill-rule="evenodd" preserveAspectRatio="none"><path d="M694 980l81 4-46 93-44-2q-74-6-144-31-79-30-130-84l-12-13q64-22 120-29 65 48 175 62" fill="#fff" fill-opacity=".8"/><path d="M1231 1836l15 44-108 22q-203 31-408 7l6-10 131-1q137-6 263-34l101-28" fill="#fff" fill-opacity=".8"/><path d="M801 1663q19-89 43-139h5q144-13 256-39l6-1 84 120-60 15-274 40-60 4" fill="#fff" fill-opacity=".8"/><path d="M665 1138l40-9-84 149-38 17q-53 31-88 71-18 20-29 41-11 22-10 37 0 14 7 25l30 23q22 13 66 24l-31 128q-52-13-100-38-46-27-71-64-32-47-29-102 1-45 26-91 17-35 48-67 53-56 122-95 52-28 141-49" fill="#fff" fill-opacity=".8"/><path d="M474 712q-16 23-21 41L339 773q5-70 45-126 45-65 124-102 56-26 115-37L581 640q-71 24-107 72" fill="#fff" fill-opacity=".8"/><path d="M1675 464q30 30 43 62 16 38 5 79-8 32-34 68l-43 46 8 7 55 60q48 64 67 146 19 80 6 159-13 84-57 161l22 23q28 34 38 75 11 39 3 84-12 66-62 136-40 55-93 107l-84 68-6-78 41-40q44-44 79-98 38-60 45-107 7-53-28-91l-5-5-32 37q-72 73-165 127-28-61-64-123 75-46 127-100l10-11q-90-30-212-43l-41-3-84-82 2-29 135 13 44 7q53 69 86 82 41 15 72 11l66-7q38 0 72-33l27-33-30-24q-32-30-41-61 11-106-49-186l-35-39-31-26-98 57-30-57 79-40q-33-24-70-46l-18-10-2-151q50 21 88 44 58 33 119 81l5 5 45-43q45-54 28-103-14-45-78-90-81-57-238-112l-125-39 1-9 129 30 129 42q71 27 123 59 33 22 56 43" fill="#fff" fill-opacity=".8"/><path d="M687 499q18-48 68-76l150-42q91-24 96-85 1-14-14-40-14-25-12-36l20-86q19-49 56-58h85q59 20 56 129-2 107-35 111-34 4-42 22l-2 30q131 27 193 55 31 60 22 170-11 123 3 169 11 39 93 135 76 89 85 153l44-3 40-6q16 14 11 25-11 22-11 35 22 26 85 51-9 19-55 21-52 2-63 12-58-26-108-73l-96-104-85-100q-41-56-59-121l-27 181q-16 108-15 192 73 44 126 118 40 56 94 170l56 114q31 69 37 115 8 58-7 152-21 129-23 158l-47 3h-63l-53-188q-29-108-1-193l-104-114-108-115q-64-72-127-110-37 27-68 89l-51 114-56 105q-34 65-45 107-3 12-1 33l1 35q-4 32-33 83-30 53-35 78-4 19-2 76H562l7-25q3-27-20-92-24-67-23-103 1-16 14-37l20-39q21-56 52-198 31-142 50-192 13-36 53-101l57-102q72-165 68-237-1-22-30-78-26-50-21-75-32 16-82 73l-79 97q-46 5-106 2l-69 4-43 11q-23 3-48 16-55 26-136-23-31-18-35-31-4-15 31-11 85 14 83-10-17-26-7-24 67 19 126-2 63-30 101-41l28-8q13-5 21-17l3-10 4-7 1-8 4-11q12-25 47-66 34-41 46-69l6-42 2-35" fill="#fff"/></svg>