<?xml version="1.1" encoding="UTF-8"?><svg xmlns="http://www.w3.org/2000/svg" xmlns:xlink="http://www.w3.org/1999/xlink" version="2.0" width="100pt" height="100pt" viewBox="0 0 2000 2000" clip-rule="evenodd" fill-rule="evenodd" preserveAspectRatio="none"><path d="M1930 120l-5 2q-6-1-13-19l-21-39 33 30 15 20-9 6" fill="#fff"/><path d="M42 325q-4-89-11-125l-2-8q23-54 59-95-3 40-17 89-11 41-7 56 3 14-22 83" fill="#fff"/><path d="M202 111 192 83l-1-11-69-5Q206 1 334 1H1672q103 0 174 34l-5 7-9 8q-8 6 0 34l8 36-9 13q-8 7-10 17-3 20-3 100 0 73-11 78-7 4-6-15l2-35-7-45-18-49q-11-18-13-30l2-32q5-31-44-52l-21 1-15 15q-9 9-10 19-2 12 3 37 4 17-9 30-13 11-9 23 4 15 1 33l-5 20 4 52q0 39 3 62l-3 35-11 26q-7 7-22-22-8-18 4-67 4-21-1-31l-14-22q-8-16-9-28l2-33-1-24-17-10q-11-5-10-21l-1-26q-5-10-25-14l-30-3q-15 3-40 19-30 19-32 34-2 13 8 28l28 36q13 20 0 42l-22 39-7 24 3 23q5 18-4 44l-14 40-1 27 1 31-7 37q-7 21-7 33l-1 37q1 21 8 35 7 13 2 34l-6 27 4 92-3 39q-1 17 3 25l6 27-2 26-5 58-3 61-8 63q-10 52-17 54-11 3-29-114l-7-24q-6-19-4-34 4-23-11-59-6-13-9-35-4-22-2-32 4-14 4-58 0-50-11-61-7-7-2-21l6-13-11-86q-3-6-3-27l6-37q6-13-1-30l-20-36q-11-17-4-33l11-20q0-23-26-42-18-14 22-67 4-42-7-55-11-14-4-39l8-22q3-16-11-28-15-13-38-13-20 0-28 7-6 7-11 20-5 14 0 19 4 4 4 30v37l2 30q2 23 13 45 10 20-8 33-21 14-21 22l-7 34q-8 24-8 42 0 17-14 44-17 33-22 56l-12 43q-2 10 4 26 11 25 0 56-10 64 0 75 7 7 6 62l-2 69-7 79-4 79-6 33q-7 20-1 26 7 7-1 33l-10 25 11 86q8 46 0 75l-5 51-2 49q0 39-8 59-3 10-7 53l-7 52q-4 12-3 70l3 75-4 103q0 13-18 34-18 21-18 13 7-75-11-103-11-16-17-74l-8-70q-5-14 2-108l8-104-6-58q-4-51 3-70 7-19-4-54l-14-40q-6-17-44-56-21-21-10-33l14-8q0-34 3-56l4-45-15-52q-6-17 0-26l8-5q0-14-8-22-4-5-2-13l10-29q5-21 2-31l-10-14-12-28-6-35 1-34q-1-24-15-42-14-17-8-38l8-17 8-10q6-13-8-29-14-16-12-34l5-16q-4-39 3-64 4-16 16-23l10-5-15-10q-13-14-4-37l29-59q-18-11-18-36 0-67-7-83l-29-95-36 61q-27 45-19 70 8 22 8 72v39 45q3 39-15 142-6 31-15 47-7 11-7 30l1 37-4 22q-18 49-18 80 0 13-9 17-11 4-13 11-2 10 3 25l8 25q6 35 0 75l-12 23q-8 12-6 19l3 20q1 13 8 30 6 17-2 26l-9 13-7 43q-5 39-1 54l5 54-1 47-9 95q-8 89-6 110 4 37-29 78l-18-47q-7-145-22-175-9-20-1-52l12-34 1-43-8-44-10-40-4-43q7-75 3-92l-14-75q-15-41-15-67l7-36q6-25 4-36-6-31-22-58-8-14-4-38l15-57 9-37-2-5q-18-41-21-66-2-16 4-21l7-2-22-41q-7-16 3-32l11-13q-3-14-22-44-11-19-7-31l7-8q11-11-3-37-8-14-8-36l-3-36-8-52-3-34-14 19-22 25q-8 7-18 70-4 19-19 33l11 19q11 22 11 34 0 20-14 28l-2 28-6 33-5 50-2 70q0 36-25 67l-8-120-13-49-16-54q-15-58-25-67-9-6-16-28-7-23-2-33 5-10-3-28l-19-30q-10-11-11-22V147q0-14 11-30l11-14-65-6-15 27q-15 30-15 46v11q-1-4-3 3l-9 21q-6 14-6 26l-7 81q0 69-4 89-3 19-21 50-8-48 0-67 4-12-2-25l-13-22-6-38-8-40q-4-7-9-34-4-24-17-41-12-18-11-39l-3-34" fill="#fff"/></svg>