<?xml version="1.1" encoding="UTF-8"?><svg xmlns="http://www.w3.org/2000/svg" xmlns:xlink="http://www.w3.org/1999/xlink" version="2.0" width="100pt" height="100pt" viewBox="0 0 2000 2000" clip-rule="evenodd" fill-rule="evenodd" preserveAspectRatio="none"><path d="M1910 1248q-42-112-104-153l21-21q17-29 28-119l8-85 35 68q36 92 38 210 1 97-11 142l-15-42" fill="#fff" fill-opacity=".8"/><path d="M1480 659q96-61 51-27-57 43-108 124-25 41-39 73-31 107 15 109 28 2 70-30 60-44 100-90 88-102 123-247 36-143-82-326-37-58-85-112l-40-43q50 13 154 118 116 117 151 219 54 153-16 394l-25 77q-17 57-25 121-19-35-50-52-26-15-90-25l-8-1q35-48 105-102l62-45-24 3q-41 13-127 62-54 32-90 84l-74 3q-10 2-38 21l-35 22q-10 4 14 35l26 34h-6q-13 2-13 16 0 14 13 13l54 58v73l-26-54q-9-20-34-26-24-5-43 6-23 13-23 102l-6-15-40-37-41-30q-10-147 76-317 46-92 174-188" fill="#fff" fill-opacity=".8"/><path d="M180 1560q-46 12-48 41 45 10 83-25 37-33 21-50-7 21-56 34m504-108q-38 56-149 76l-179 13q75 55 206 14 128-40 122-103M416 1333q33-42 0-60-62 81-99 173-47 114-36 200 20-33 39-115 20-90 36-124l60-74m271-248q67-36 57-81-15 44-92 64-98 26-117 40 82 14 152-23M526 786q-13-25-38-39-21-12-42-8-24 4-24 29l1 5 3 7q4 36 23 48l26 9 27 5 13-2q6 2 10-4 16-22 1-50M636 913l-36-3q-56 5-72 50-3 9 4 14v6q29 1 61-21 49 3 65-1 14-4 1-11l2-9q-5-18-25-25m77-213q-9-9-21-9-20 1-37 22-15 19-22 41-8 26 2 44l1 4q2 10 14 6l5-2 3-1 10-2 2-3q20 1 37-21 17-21 18-51v-3l-2-5-10-20M72 481q4-55 9-64 10-21 64-60 42-31 80-20l56 10q78 40 116 71 56 46 78 108 50 3 59-53l1-111q19 23 30 67l15 82 47-12q25-6 42 12 22-29 47-95 27-73 43-99 69-55 114-62 59-9 125 47 73 106 40 249-28 122-115 214 83 75 206 13 117-60 137-162l-32-79q-22-42-57-56 117 19 137 98 18 67-37 164-51 88-137 160-86 73-157 86-171-49-239-164 13 42 45 111 22 62 0 128 14 32 71 67 55 35 93 37 26 2 76-18 47-19 73-12 43 11 70 46 17 20 50 71l-3 135-11 63q-10 2-8 13 7 50 41 174-7 24-4 36 6 28 34 87 24 50 25 77 10-51-7-122l1-7-4-15v-16l-3-9q5-5 2-13-25-69-33-154-6-61-4-157 13-90 4-149l71 198q45 120 63 205 35-75-16-225-49-143-14-193 57 55 104 143 32 61 75 171 89-39 36-143l-44-82q-20-46-7-74l-43-63q-27-31-60-46l-5-10q95 3 180 78 24 56 89 158 48 92 31 173v7l-13 46q16 3 22-9l6-26q11 0 12-10l3-14h2q13-91-22-163l-67-106-35-61-7-18-7-7q-38-67-73-92-48-33-122-21h-20q44-50 129-39 65 9 120 44 52 33 120 146 69 114 104 137v120q-30 24-60 64l-52 72-57 48-58 47h-3l-15 12q-5 7-2 15l-38 22q-13 7-5 19 7 12 19 6l52-32 10 11q29 32 29 134 0 127 8 157l-229 1q-62-31-91-49-50-31-61-79-26-1-59-22-33-22-60-23-61-39-115-154-64-138-94-174-2 51 20 99l40 80q-30 62-106 162-78 103-107 160H346q-158 0-254-97l-9-11q-13-64-11-95 2-25 24-82 21-54 21-82 0-23-18-74-16-46-12-75 19-117 155-184l119-55q71-35 114-75-1-73-27-152L401 885l-8 3q-9-2-11 9v48l1 47-32 25q-17 15-25 32Q118 1012 1 919V775q20 25 26 50l46-1q23 3 14 31 48-22 119 12l120 3Q206 788 154 721 77 621 72 481" fill="#fff"/><path d="M868 1998q64-118 240-109 167 9 248 109H1121q-7-10-34-10-26 0-34 10H868" fill="#fff"/></svg>