<?xml version="1.1" encoding="UTF-8"?><svg xmlns="http://www.w3.org/2000/svg" xmlns:xlink="http://www.w3.org/1999/xlink" version="2.0" width="100pt" height="100pt" viewBox="0 0 2000 2000" clip-rule="evenodd" fill-rule="evenodd" preserveAspectRatio="none"><path d="M0 649l13-1q80 0 147 57 64 55 95 147l658 167-18-374 826 390-2-46 5-52 8-51q26-105 94-171 70-67 157-67l14 1V1683q-9 134-95 217l-24 22V1301q-56-32-95-90-39-59-55-135L1169 946l32 373L265 886l9 51 1 101q-10 87-52 158-42 69-104 105v625l-29-26q-78-79-90-204V649" fill="#fff"/></svg>