<?xml version="1.1" encoding="UTF-8"?><svg xmlns="http://www.w3.org/2000/svg" xmlns:xlink="http://www.w3.org/1999/xlink" version="2.0" width="100pt" height="100pt" viewBox="0 0 2000 2000" clip-rule="evenodd" fill-rule="evenodd" preserveAspectRatio="none"><path d="M1347 2000l-16-86 32 50 26 36h-42" fill="#fff"/><path d="M164 1376q18-2 62 21 43 23 62 44l-7-3q-31-10-77-39l-19-14q-12-8-21-9" fill="#fff"/><path d="M1656 1118l94-7q-20 2-57 19l-57 26-116 42-44 17q-31 14-37 28-14 39 76 47l131-5q-40 11-56 40-15 28 21 28l59-5 91 5 54 2-47 8-171 22q-50 5-129 26-21 5-33 27-12 22-7 45 8 37 83 41-23 4-33 12 7 10 23 15l27 8-40 10q-28 8-32 22-2 13 33 52 28 28 115 58 37 12 97 24l97 21 48 9q31 7 45 18l-53-5-130-27q-144-27-228-28l-41 2q-24 5-20 25 4 14 30 33 27 20 31 30l-24-5q-16-5-23 0-19 13 8 53l34 48q27 32 46 40l-39-20q-26-15-39-20-53-18-118-15l-4-19-17-52q-11-33-13-53-3-30 11-83l19-86q3-29-7-81-10-52-8-75 4-36 47-101 39-59 34-110-61-22-96 58-39 89-87 89l-12-175q-10-105-85-81-3 20-3 118l2 65q-2 39-17 43-32 8-66-105l-40-125q-32-66-84-26-2 62 22 140 30 97 33 122-27-6-49-33l-36-54-36-51q-17-49-30-58-17-12-43-8-27 4-32 20-5 18 24 88 16 41 45 86l48 76 26 48q12 31-2 55-19-4-111-61-65-40-127-14 15 22 52 53 44 36 60 55l30 42 33 39q15 12 104 58 70 36 86 72l12 69q7 98 4 171H815q30-51 31-87 0-18-12-42l-16-40q-10-4-27 12-19 17-28 17-24 1-15-16l20-28q-34-3-86 15l-84 26q-9-14-32-4-13 5-35 17-59 24-92 24l32-11 34-18q36-17 61-42l17-19q11-15 7-25-5-11-27-13H529l6 2-76-12q-12-20-62-18l71-13 50-9 48-12q73-27 22-60-14-9-54-11-38-2-51-12l27 1 18-11q-11 0-18-11l-12-21q-29-39-60-62-27-20-70-37l-72-27-8-12 64 16 63 12 44 6q25-2 32-22 7-19-14-47-18-24-39-35l43 9 43 16q60 20 106 17l-9-47-2-27-8-25-16-22-17-21-14-25-16-26q-29-35-94-96-67-62-95-95l-52-66 62 48 47 30q26 12 54 9l4-16 15 4q10 4 14 0l3-40 43 30q27 17 49 15l32-8q17-5 35 0 13-25 10-67l-7-70-7-63-8-62q9 52 33 98 17 30 50 48 33 18 67 16 8-13 8-26l27 30 51-57q27-34 39-64 7-17 8-53 1-42 4-54 13 47 23 136l10 70q13 45 42 49l2-17q16-2 53 12l56 5q15-5 27-27l18-36 13 30h6l8-10 7-17 5 61q7 33 38 36l23-2 32 10q31 3 56-12 41-25 113-50l119-41 90-35q-49 26-112 77l-98 71q-9 6-27 24l-25 21-5 19-3 18 41 8 41 7q39 11 87 0l37-2 39 2" fill="#fff"/><path d="M1686 870q32-18 49-26 31-14 52-13l-106 42q3-1 5-3" fill="#fff"/><path d="M428 261 684 0h830L1021 196l610 277-520 158 267 145-347 290 155-265L748 628l593-150L428 261" fill="#fff"/></svg>