<?xml version="1.1" encoding="UTF-8"?><svg xmlns="http://www.w3.org/2000/svg" xmlns:xlink="http://www.w3.org/1999/xlink" version="2.0" width="100pt" height="100pt" viewBox="0 0 2000 2000" clip-rule="evenodd" fill-rule="evenodd" preserveAspectRatio="none"><path d="M886 1077q-33 16-40 30-12 22-20 148l14 215 36-235q-5-89 14-109 13-12 22-38l6-23-32 12m244 67q-13-12-30-12h-3v123q0 30-21 51-21 21-50 21-30 0-51-21-21-21-21-51V1132h-2q-17 0-30 12-12 13-12 30v355q0 17 12 30 13 12 30 12h2V1432q0-29 21-51 21-21 51-21 29 0 50 21 21 22 21 51v139h3q17 0 30-12 12-13 12-30V1174q0-17-12-30M952 372q-17 0-30 12-12 13-12 30V769q0 17 12 30 13 12 30 12h2V685q0-29 21-50 21-21 51-21 29 0 50 21 21 21 21 50V811h3q17 0 30-12 12-13 12-30V414q0-17-12-30-13-12-30-12h-3V492q0 30-21 51-21 21-50 21-30 0-51-21-21-21-21-51V372h-2m-66-55q-33 16-40 30-12 22-20 148l14 215 36-235q-5-89 14-109 13-12 22-38l6-23-32 12M792 769V414q0-66 47-112 47-47 113-47h2V5h143V255h3q66 0 113 47 46 46 46 112V769q0 65-46 112-47 47-113 47h-3v87h3q66 0 113 47 46 46 46 112v355q0 65-46 112-47 47-113 47h-3v307H954V1688h-2q-66 0-113-47-47-47-47-112V1174q0-66 47-112 47-47 113-47h2V928h-2q-66 0-113-47-47-47-47-112" fill="#fff"/><path d="M-1 1125V967H875L-1 1125" fill="#fff" fill-opacity=".8"/><path d="M-1 775 695 912H-1V775" fill="#fff" fill-opacity=".8"/><path d="M1999 967v133L1165 967h834" fill="#fff" fill-opacity=".8"/><path d="M1999 780V912H1345l654-132" fill="#fff" fill-opacity=".8"/></svg>