<?xml version="1.1" encoding="UTF-8"?><svg xmlns="http://www.w3.org/2000/svg" xmlns:xlink="http://www.w3.org/1999/xlink" version="2.0" width="100pt" height="100pt" viewBox="0 0 2000 2000" clip-rule="evenodd" fill-rule="evenodd" preserveAspectRatio="none"><path d="M1117 1749q-46 39-83 41l-104-6q-76-13-78-42l33-24 28-31q24-23 35-27l46-6 90-6q66 0 70 22l9 2q5 32 35 43-38-2-81 34" fill="#fff"/><path d="M1237 1886l19-21 21-1-5-12 75-53q40-30 83 3l-3 13-6 15 70 11q36 9 24 50l-142 10q-87 3-136-15" fill="#fff"/><path d="M1605 1003l-41 1-92 10q-65 11-340 108-104 36-605 232l677-175q99-26 260-103l141-73M674 343q19-24 34-25 31 9 77 1l85-19 5 6-2 8q11-9 21-8 2 8-4 16l-9 14q-51 5-82 26-39 27-19 69 34 72 98 118 78 56 144 18l8-9q2-7 7-9l10 9q6 5 0 9l5-3q4-6 9-2 1 8-9 15-12 7-13 11 26-12 43-18l32 37-3 22-4 21q-14 2-25 22-12 22-27 27l-11-2-16 6 28-1q-4 7-24 7l-33 4q-2-3 4-4l8-3q-1-3-9 0 7-16 23-21-1-4-13-4-11 0-10-9l-19 7q-3-10 8-12l20-4q7-6-3-33-5 0-4 5l-5 4-3-17 1-15q-6-13-31-5l-34 4q-20 17-55 15l-57-3 13 2-5 4q-4 0 0 7l-6-1-5-4q-3 1 1 12 2 9-5 4-6 4-4-2l3-9q-31-7-60 14-30 22-14 52-9 4-11 16l-6 21 7 2 7-4q7 15 30 36l29 32 10-1q7 1 13 5 80-34 119-68l-32 30q17 4 36-16 22-23 38-26v9l17-12-20 29-8 109q-1 62 10 117l14-2 17-6q-1 10-24 18l31-6 6-11-7-8-8-8-19 7 10-11 9-11 5 13 111-24 2 9q6-5 9-4 5 24-35 37-46 15-51 31l54-15q32-12 41 14-6 1-4 8l12-3q20-5 30 0l-79 19q-51 13-83 33l-1 2 227-64 171-62q104-38 174-53 10-12 27-12l52 4q12 0 14-12l2-25q4-20 25-39 18-18 39-24l67 4q28 13 43 45 25 19 31 45 8 29-12 54-54 70 8 162 22 33 5 69-16 32-53 47-35 15-76 7-39-7-72-30l-3-2-31 10-71 5-450 88-580 188h7l26 30q15 10 38 11l88-4 96-4 94-10 68-17 67-15 66-4 66-1 65-11 66-12 131-12 65-9 62-17 48-32 43-39q26-21 47-12 18 9 28 41l22 55 5 31 6 32-7 6q10 16 10 45l-3 48q-27 6-41-4l-27-25q-14-10-69-25l-62-3-64 4-138 5-132 7-64 8-65 6-41 12-45 6-136 21q-88 10-136 27l-57 16q-36 9-57 20-63 34-112 11l1-20 4-19-3-21-3-22 5-38q0-21-15-36l-31 4q-9 9-15 27l-10 31-10 24v2q6 20-13 36 0 26-23 41-34 25-78 13-42-12-66-48-20-1-17-23l2-7q-3-13 3-23 6-10 17-14l5-13q2-11-14-59l-1-2q-4-10-90-21-49-5-70-46-22-42 7-81 4-31 25-60 23-30 58-50 45-25 134 0 101 29 141 21l39-13q65-27 98-39 57-20 102-25 66-35 111-51l-39-3 32-5 36-2h3l53-16q-24-11-27-31l-15-13-16-13 18-5q10-5 8-16l23-5 11 20 3-12q1-6 7-10-5-20-26-46l-2 7-6 5-1-9 2-6-12 5q-9 2-7-8-9 9-29 14l18 9-51-2q-36-28-51-26l-1-12q-6 2-4 14H720l10-15q21-15 46 0l39 34 11-10 13-2-3-15q-5-12 4-16-4-7-13-11l-15-6v-9l26-22-44 5q-26 4-38 15l22-3q14-3 20 0-3 7-19 10-14 2-14 9l-35 10q-4-21-24-17L606 928q-10-20-13-32l47-15q23-4 21-28-2-24-25-20l-52 15q-6-38-18-53l-10-15 43-13q22-7 14-30-8-22-30-15l-47 14-11-38 35-15q22-8 14-31-8-22-30-14l-25 10-1-32 3-3-3-4V594l28-2q1 10-11 10 2 5 13 7 7 0 2 9l70-19q40-9 48 13-2 5-13 6-12 1-17 5 34 0 74-15l-7-10-7-12 12-1v-7l-21-1-5 13-12 8q-9-13 4-13l-7-10-6-10q-6 14-41 28l-58 14q1-6 25-13 25-7 30-13l-29 5-31 13q25-33 87-56l-2 9q-5 3-2 8l5 2 4 4q7-6 15-7l16-1v6q-1 3 1 6l11-10h-9q-1-5 7-10l7-11 21 14q8 5-9 1l13 25 14 23q19-9 24-38 6-34 14-43 8 4 7 22 12-21-9-39-28-24-31-39l-12-1-12 1-5-23-3-23 11-3 12-3q12 37 51 58l-41-52q-21-30-17-58l-21 35-13-3q-7-6-14-3-10-11-4-29 5-16-1-18" fill="#fff"/><path d="M262 654q6 0 4 5l-2 7 23-54q15-26 43-34l44-3 46-2q30-7 79-36 52-31 78-39-14 16-50 36l-57 33q4 4 14 0 8-3 10 5l-6 1H469q-6 3-11 13l-14 12 2 12 10-2q7-6 11-6l-3-8 4-8 5-1-3 11 2 44-4-2 4 6 3 19H457l-21 5q1 14-20 29-5-2-7-19-4 4-5 14l-6 15q12 1 30-13-12 13-2 30 10 17 27 9l30-15 1 4 2 24-27 20-8 4q-8 6-9 13l-1 6 8 17q16 14 30 3l24-12 1 1q24 22 34 66-48 15-61 28l-3 4-4 10v10l2 3 2 6 2 2 5 4 27-1 2-2 39-16 10 35-7 4q-23 0-32 24h-1q-6 8-6 15l-13-17q2 8-6 14l-12 11 15 4 15 4q-2 11-16 21l-29 14-4-7-4-6-19 4H423l2 19-2 21 10 5 13 2 3-10-6-1-9 3 3-12v-14l48-2q29-13 39-34l31-2-11 27 12 17 6-4 3-5q-1-3-6-3l-6-5q-1-8 5-20l7-15 6-5 5 7 9 3q2-4 9-6l18 14-8 10q-5 6-5 11l11-8 7-9 4 3q-3 15-23 23l-35 4q15 15 35 5 19-9 28-28l8 6 18 5 15-10 65 13q-16 9-44 11l-46 3 11 8q9 1 12 5l104-19q9-4 14-5 9-2 11 8l-88 24-83 20q-27 10-61 37l-51 34q-41 17-87-20l-84-63q-3-20-19-47l-26-44-10-36-8-37-20-63 2-26 1-27-7-25-7-23q-1-16 7-41l13-39-5-8 1-10" fill="#fff"/><path d="M807 1092l-9-1-12 3 22 1q14-2 18 6-104 1-243 57l-9 10-9 9-24-2-24-2q27-33 98-57l119-40-1 3-4 2 28-5 25-2q-5 9-22 13-24 5-31 9l48-2 18-6q10-4 12 4" fill="#fff"/><path d="M819 947l-8-1 2 9q-9-1-19-17l14-5 11 14" fill="#fff"/><path d="M1064 546l6 5q2 5 6 3l-1 6-5 2q-1-8-6-6l-7-5 7-5" fill="#fff"/><path d="M939 726l11-12 17-4q0 8-11 9-14 2-17 7" fill="#fff"/><path d="M757 724l7-6 10 3v6l-5 5 3-10-13 7-8-11q-4-11 3-11-3 6 3 17" fill="#fff"/><path d="M760 741q7-8 14-5-12 11-11 23l-19-28q-10-21 2-28 0 33 14 38" fill="#fff"/><path d="M1045 936q5-11 28-17l36-9q-4 9-27 14l-37 12" fill="#fff"/><path d="M1136 185v-5l-4-6q106-15 216 67 103 78 159 200l18 48q28 111 0 228-29 121-101 180l-8 12-21 11q-1-7 5-14l11-10q-54 21-88 10 4-10 26-12-36-14-73 22-21 21-55 64l-37 5-33 5q-1-10 9-18l16-13q19-20 46-78 2-62-10-94l10-8 9-8-8-23q-4-6-16-9l-9 12-10 11-6-18q-6-11 3-15l-20-15q-10-14-17-12 3-8-2-14l-11-12-18-65q-11-33-34-54 10-3 7-17l-6-23q-6 1-5 10 2 9-6 9l-2-21-1-21 8 2 10-2q8-11-1-29l-14-30q19-11 30 8 6-8-3-19-11-15-12-22-2-2-11 3l-14 3q-18-52-61-81l-81-40q-8 3-25 9-14 4-19-5l27-22q16-13 35-19l-9 1H920q2-11 14-14-18-2-34 21-20 28-32 33 3-8 13-14-7 0-5-4 2-3-3-2l7-9V250H865q38-21 95-35l98-26q30-12 17-3l-50 20q-32 11-38 18l7 1-10 4q-9 4-9 11l6-8q5 8-4 16l-16 13 80 10q52-2 73-35-24 14-48 20-25 6-40 0 65-58 110-71" fill="#fff"/><path d="M1265 942q7-11 17-19 13-10 24-5-2 8-19 14-19 6-22 10" fill="#fff"/></svg>