<?xml version="1.1" encoding="UTF-8"?><svg xmlns="http://www.w3.org/2000/svg" xmlns:xlink="http://www.w3.org/1999/xlink" version="2.0" width="100pt" height="100pt" viewBox="0 0 2000 2000" clip-rule="evenodd" fill-rule="evenodd" preserveAspectRatio="none"><path d="M1039 1574q-1-29-29-80-29-50-45-49-16 2-29 21-14 20-31 69-14 42-9 79 3 19 9 29 9 15 18 12l13-14 16-61q11-52 17-52 11 0 11 124 0 23 14 29l28-2q22-9 17-105M888 1391l-26-27q-34-29-72-42l-105-33q-66-13-94 18-32 35-22 86 10 49 51 69l81 40q46 18 78 6 37-13 68-47 31-33 41-70m477-13q-2-42-51-63-44-19-100-12-43 6-99 52l-47 44q-14 21 4 48l26 23q26 21 49 31 25 11 87 11l78-11q20-12 37-45 19-38 16-78M874 252l-18 82q-12 91 16 137 35 58 78 171 19 50 77 72 48 19 59-14 10-58 27-101l55-123 28-58-10 70q-9 80 0 132 8 53 41 127l41 87 9 30q1 4 5 3 5-1-3-45l-13-68-16-75q-11-63-7-126 4-93 41-165l35-54-17 50q-16 64-10 138 4 46 46 163 39 108 38 202l-3 91q27 48 44 94l-4-44-9-86q-2-33 5-96 6-57 27-80l20-12-17 48q-14 59 2 118l28 65q19 45 23 96 11 154-26 257l-20 55 2 69 14-30 44-105q26-69 25-113l2-104 4-53 12 78q9 88 0 142-17 89-86 225 7 26 0 47-8 23-31 36l-26 15-14 29q-13 22-30 27l-57-4q-37-5-43 12l-8 40-13 48q-6 10-14 0l8 71q-14 8-29 15-9 4-17-22 5 21-4 30l-22 13q-14 4-20 0l-8-12q6 27-3 35l-43 6-7 12q-4 9-39 11-5 2-19-17l1 9-7 14-30 8-25-1-2-30-4 10-19 15-40 2-8-27-29 7-20-1-14-8v-33l-5 14-15 13q-11 0-32-15l4-25-4 8q-5 9-14 11-13 4-51-19l9-31q-11 16-17 10-6-6-8-52v-52q6-29-9-48l-30-45q-24-31-55-31l-61 3-44-5q-66-32-58-94 5-36 15-42l18-2-7-62-1-2-34-58q-35-69-42-127-7-57-3-140l5-71 24 53q31 57 63 80l5-11q57-134 113-191l-5-29q-20-100 16-185l54-90q13-21 36-44l21-19-33 110q-29 124-8 199l16-8q55-49 80-117 40-107-12-229-30-71 40-174l76-90" fill="#fff"/><path d="M1111 263q-15 40-40 80l-60 83q-27 35-24 88l2 21-9-11q-19-32-12-109 7-76 33-126 62-116 73-161 4-16 1-50l-3-30q38 36 48 105 9 64-9 110" fill="#fff"/></svg>