<?xml version="1.1" encoding="UTF-8"?><svg xmlns="http://www.w3.org/2000/svg" xmlns:xlink="http://www.w3.org/1999/xlink" version="2.0" width="100pt" height="100pt" viewBox="0 0 2000 2000" clip-rule="evenodd" fill-rule="evenodd" preserveAspectRatio="none"><path d="M1129 289q-15 37-17 61 54 52 85 114 33 65 45 153h-61l-51-6q-18-7-44-34l-38-36q-19 1-41 11-22 10-33 23l-28 42q-16 31-15 53 0 16 15 60 13 38 9 59-4 25-20 51-19 29-24 48 50-31 81-71l19-22 13-28q1-11-10-33-13-24-14-37-3-33 4-46 4-9 30-28 17-1 33 16l29 27q23 12 116 20 120 11 331-69 11 7 15 27l2 39-89 18 52 37q32 24 16 47-113-35-207-41-126-8-175 42-14 15-31 53-16 36-18 55-5 40 23 108 29 69 26 108-1 23-19 69-18 45-19 79-1 40 7 88 9 48 22 76l30 49q14 30 8 76-8 52-52 104l-84 87q55-2 86-27l54-46 40-45q10-21 12-75 34 32 64 39l73 3q-35-15-52-39l-25-34q-54-41-79-83-33-54-34-129l-1-68q0-19 10-64l26 8 22 20q15 16 24 40l14 49q30 103 144 98-4-14-28-34l-35-27q-12-25-23-71-9-43-23-66-15-26-52-51l-60-43-8-59q-7-32-21-47 15-1 47 19 36 22 60 26l92-2q43-9 68-31 1 24 32 59 34 39 38 56 10 50 8 193 14 315-115 415-13 10-82 41l-45 19q-25 9-46 10l-53-7-53-10-111-16-29-15q-18-11-29-14l-86-21q-69-23-108-42-57-28-85-60l-18-6-19-7q-42-57-58-117-22-79 13-129l21 34q23 50 33 63-4 28 8 61 13 39 38 45-6-21-6-48l1-55q22 12 47 59 31 60 40 70 3-11-6-56l-16-57q62 2 107 24-21-37-96-56-70-18-109-77-41-60-10-108 20 43 82 95 69 59 89 89 9-23-11-54-23-33-23-39 39-6 98 35-5-37-47-54l-74-24q-23-10-45-38-21-28-25-51-7-51 17-90 15-25 59-64l23 43q17 26 20 49l4 41q1 73 56 122 11-19 3-40l-16-34q-7-17-7-37l1-47q15 21 65 38 47 17 61 42-14-60-111-106l-40-49q-29-35-28-63 1-8 33-64 22-38-9-67-21 18-40 46l-50 66-54 68q-81 115-100 220-36 31-48 57-17 35-9 88 5 31 26 75 16 36 34 62-16 2-27-21l-18-38-25-45-19-57q-72-188-49-336 11-73 73-173 60-98 66-148l3-74 1-74 17-90q11-60 17-74 14-36 44-41 55-10 105 36-2 31-34 105-33 75-37 116-4 50 13 107 19 61 48 80l-3-76q-4-50-1-87 6-80 50-154 30-50 16-107-7-25-35-70-27-43-35-77 22 2 47-19 24-20 39-18 21 3 61 91 42 93 58 102 30-13 43-93l11-117q14-3 19 13 6 18 17 20l48-3 47-13q-1 25-16 62M649 420q4 42 43 47 37 5 56-22 1-14-16-16l-33-1q-32-25-50-8" fill="#fff"/><path d="M1357 789q5 30 33 71 29 41 34 70-29 68-128 45-96-22-117-82 12-57 60-86 49-28 118-18" fill="#fff"/></svg>