<?xml version="1.1" encoding="UTF-8"?><svg xmlns="http://www.w3.org/2000/svg" xmlns:xlink="http://www.w3.org/1999/xlink" version="2.0" width="100pt" height="100pt" viewBox="0 0 2000 2000" clip-rule="evenodd" fill-rule="evenodd" preserveAspectRatio="none"><path d="M728 786Q874 569 937 382l34-144q14-20 24 0l35 144q63 187 209 404 243 363 106 648-54 112-156 180-96 64-194 64H971q-97 0-193-64-102-68-156-180-137-285 106-648m149-55-79 102q-22 19-47 63-50 88-67 212-17 124 15 217 16 47 36 68l121 49q-61-60-88-178-56-238 109-533" fill="#fff"/><path d="M277 510l212 60-19-237L691 513q-13 73-65 162-64 101-94 159-110 216-49 508 20 101 128 278l53 88q13 27-14 7l-389 57 79-174-123-88q-122-89-114-89 8 0 112-82l103-82L128 915l231 7-82-412" fill="#fff" fill-opacity=".8"/><path d="M1529 333l-19 237 212-60-82 412 231-7-190 342q202 164 215 164 13 0-237 177l79 174-389-57q-27 20-14-7l53-88q108-177 129-278 60-292-50-508l-94-159q-52-89-65-162l221-180" fill="#fff" fill-opacity=".8"/></svg>