<?xml version="1.1" encoding="UTF-8"?><svg xmlns="http://www.w3.org/2000/svg" xmlns:xlink="http://www.w3.org/1999/xlink" version="2.0" width="100pt" height="100pt" viewBox="0 0 2000 2000" clip-rule="evenodd" fill-rule="evenodd" preserveAspectRatio="none"><path d="M865 1086v-5q-17-28-52-34-71-10-159 26l-8 2-9 2-32-25q-20-16-41-5-10 0-13 8-39 12-54 77-16 64 11 100 23 1 43 15l34 23q13 1 30 13l21 4q13 1 10 13v112q3 24-6 53-8 31-7 50-6 4-6 22 0 18 6 21-2 14 6 26l11 22q8 19 36 27l54-2q16 2 25-12 9-15 1-26-3-36-21-81l-26-74q-2-17 7-33l14-27 39-82q5-2 4-14v-20q24-14 64-65 1-6 12-22 8-13 6-29l4-9q6-8 5-28-1-20-9-23M994 810q-6 6-6 26 0 21 6 26v17q-13 1-26 7l-22 10h-4q-54 28-56 121 39 29 69 116 4 3 4 30 3 22-8 47v4q-38 41 3 83 15 15 29 9 16-7 19-40-1-11 1-23l3-20 13-30q23-33 30-64 1-9 11-18l11-17 4-13q23-23 30-47l18-45q9-32 17-45l47-39h9q62-59 43-90l-9-9q-47-35-125-41-90-8-111 45m-392 9-2 6-2 7q1 27 35 34l13 3 12 2 19 11q13 6 16 14l-7 25q-4 15 2 23 1 5 11 5l15-1q12 30 42 13 30-17 23-47v-5q9-4 8-17-1-12-8-17 13-19 64-74 35-51-17-85-7 0-15-7-7-6-15-6l-17-4-24-5-24 5-33 14-31 16q-29 12-39 43v4q-24 18-26 43m836-479 21-4 17-8h3l42-7h4q78 27 103 61v11q-5 5-4 29 1 22-8 24l-12 9-14 7q-42 32-57 53-16 19-31 57l-26 61q-17 14-23 38v4l-31 41v4l-8 31q-2 21 5 26l-7 11q-11 12-20 39-8 40-32 82-27 50-36 79-5 5-4 21v25l-1 25q1 13 11 19-9 26-27 104 31-4 75-29l71-41 80-45q41-32 46-75V977q-6-110 80-164 19-8 44-9 29-2 43 6l23 15q11 11 8 30 3 16-8 41-14 29-15 43-4 6-4 25l4 24 9 25 10 25q6 6 8 23v30 4l-19 30v4q-43 24-84 88l-3 8-5 7q-30 43-53 106v4q0 33-46 58l-72 32q-49 25-169 106l-71 47-69 50q-27 22-43 50l-29 60-120 235H249l-54-17 111-244 98-221q11-20 15-46l18-75q11-43-3-73-3-34-19-65v-3l1-28-5-22v-23l1-21-5-17q-6-22-10-65l-9-68V867 848l11-112 8-105q-10-50 0-72l1-33q1-21-4-28l-19-47q-12-29-8-48 42-63 88-114v-4l29-22q18-12 43-9l83-15v53q-5 4-4 17l1 21v4q-6 3-8 23-1 18-11 19-18 8-24 28-6 19 1 44h-4q-4 28 15 77 22 55 23 87v23q38-33 72-103l12-53 4-32-1-37V380l1-23q1-15-4-19l-4-53q-2-14 2-35l2-34 19-34q26-9 53-34l46-42 21-16q13-10 24-14 9-12 32-11l41 3h3q11 3 17 20l14 22-3 6-1 9-7 44q-3 28-20 32-16 12-27 35l-18 45q-26 107-8 209l-1 25q0 16 5 21v7l12 22q8 14 18 5l12-11 53-73q-2-7 2-15l2-15 5-23-5-23V374l4-32q-2-40 22-71l42-51q27-65 124-110 106-49 147 19 19 32 6 58l-41 45q-28 26-50 79l-37 88q-29 63-31 122-5 5-4 22v27l-15 49-9 24q-2 10 9 18 20 14 51-12 29-25 40-58l30-50v-3l25-51q15-33 28-48h4l48-47q29-35 47-48l16-4" fill="#fff"/></svg>