<?xml version="1.1" encoding="UTF-8"?><svg xmlns="http://www.w3.org/2000/svg" xmlns:xlink="http://www.w3.org/1999/xlink" version="2.0" width="100pt" height="100pt" viewBox="0 0 2000 2000" clip-rule="evenodd" fill-rule="evenodd" preserveAspectRatio="none"><path d="M1454 1341l53-44q15 264-154 445-151 161-338 161H985q-204 0-359-186-175-209-122-507 118 38 132 146 14 107 69 139 45 27 86-8l44-65q25-35 86-30 25 2 88 50 56 42 82 31 26-11 20-50-8-46 7-65 20-26 77-10 51 14 66-30 25-69 70-58 39 9 69 63 21 38 54 18" fill="#fff"/><path d="M950 475q-19 0-33-14-14-13-14-33 0-19 14-33 14-14 33-14 19 0 32 14 14 14 14 33 0 19-14 33-13 14-32 14" fill="#fff"/><path d="M628 898q14-13 33-13 20 0 33 13 14 14 14 33 0 20-14 33-13 14-33 14-19 0-33-14-13-13-13-33 0-19 13-33" fill="#fff"/><path d="M935 661q-25 0-44-18-18-18-18-44 0-26 18-45 18-18 44-18 26 0 45 18 18 19 18 45 0 26-18 44-19 18-45 18" fill="#fff"/><path d="M1028 523q0-24 17-41 17-17 41-17 24 0 42 17 17 17 17 41 0 24-17 41-18 17-42 17-24 0-41-17-17-17-17-41" fill="#fff"/><path d="M832 710q39 0 67 28 27 27 27 66 0 39-27 67-28 27-67 27-39 0-66-27-28-28-28-67 0-39 28-66 27-28 66-28M771 810q8-30 23-39l27-24 9-13-26 7q-28 12-36 35-12 38-2 62 1-13 5-28" fill="#fff"/><path d="M1371 1123q-24 0-41-17-17-17-17-41 0-25 17-42 17-17 41-17 24 0 42 17 17 17 17 42 0 24-17 41-18 17-42 17" fill="#fff"/><path d="M978 833q0-55 39-94 39-39 94-39 56 0 95 39 39 39 39 94 0 55-39 94-39 39-95 39-55 0-94-39-39-39-39-94m114-86 13-20-39 10q-41 18-52 52-11 35-8 67 1 15 5 24l7-41q11-44 33-57l41-35" fill="#fff"/><path d="M1117 1141l30-26 10-15-29 8q-30 12-38 38-13 41-3 67l6-30q8-33 24-42m136 37q0 39-28 67-28 28-67 28-40 0-67-28-28-28-28-67 0-40 28-67 27-28 67-28 39 0 67 28 28 27 28 67" fill="#fff"/><path d="M703 1110q26-24 44-59l13-30-50 25q-50 34-56 84-6 49 7 91l13 31q-3-26-1-57 4-61 30-85m97-122q72 0 123 50 50 51 50 122 0 72-50 123-51 50-123 50-71 0-122-50-50-51-50-123 0-71 50-122 51-50 122-50" fill="#fff"/><path d="M988 286q0-13 10-23 10-10 23-10 14 0 24 10 10 9 10 23 0 14-10 24-10 10-24 10-14 0-23-10-10-10-10-24" fill="#fff"/><path d="M1000 135q-8 0-14-6-5-5-5-13 0-18 19-18 8 0 13 5l5 13-5 13-13 6" fill="#fff"/><path d="M571 1010l13 12q9 19-5 53-14 34-38 40l-20-1 50-104" fill="#fff"/><path d="M852 520l8 31q5 37-16 65-21 29-51 38l-25 2 51-61 33-75" fill="#fff"/><path d="M1238 696l-31-11q-33-17-44-50-12-34-2-64l13-22 7 33q8 36 14 45l43 69" fill="#fff"/><path d="M1307 850l31 46 39 66q9 23-44 14-53-9-60-47-7-43 5-74 12-31 29-5" fill="#fff"/></svg>