<?xml version="1.1" encoding="UTF-8"?><svg xmlns="http://www.w3.org/2000/svg" xmlns:xlink="http://www.w3.org/1999/xlink" version="2.0" width="100pt" height="100pt" viewBox="0 0 2000 2000" clip-rule="evenodd" fill-rule="evenodd" preserveAspectRatio="none"><path d="M1400 1714q-11-24-7-54 3-24 15-56l18-40 25-39 28-31q45-42 103-60 62-20 117-8 62 14 104 62 77 89 94 149 25 88-73 122-91 33-194 33-111 0-191-40-27-12-39-38" fill="#fff"/><path d="M878 1480q52 10 89 54 162 188 19 240-79 28-168 28-97 0-167-34-47-23-40-81 3-24 14-50l10-24 6-11 11-20 10-15 24-27q41-38 90-54l102-6" fill="#fff"/><path d="M1523 1011l80-5q41 9 69 43 127 147 15 187-62 22-131 22-75 0-130-27-37-18-32-63l11-39 12-27 17-28 19-21q29-28 70-42" fill="#fff"/><path d="M304 1358q41 9 69 42 52 61 63 101 17 60-49 84-61 22-130 22-74 0-128-27-36-17-31-63 1-17 10-38l8-19 21-35 19-21q31-29 69-41l79-5" fill="#fff"/><path d="M887 946l77 15q39 8 68 33l49 35 51 35q14 11 27 13 16 1 21-13 5-14-4-36-26-58-73-101l-49-45q-31-52-140-59-112-7-86 80 8 28 59 43M794 785q97-32 188-12 99 22 165 100 123 145 151 242 40 144-116 200-147 52-311 52-178 0-307-63-43-21-62-62-17-39-12-88 6-44 25-92l29-64q7-18 21-36l19-28 44-50q71-68 166-99" fill="#fff"/><path d="M1122 278q1 32-48 75l-17 15q-87 76-79 137 3 25 34 69 29 42 29 71v31q-2 15-13 20l-62-4q-22-55-70-76L788 590q-66-15-92-55-42-66 31-156l63-72q36-40 47-66l2-5q12-31 7-64-5-40-32-53l136 13q72 16 120 56 51 44 52 90" fill="#fff" fill-opacity=".8"/><path d="M349 684l-1 2-1 1q-39 74-39 131 1 68 59 137-165-5-198-93-22-62 19-196 52-169 55-207 7-98-83-122 134 33 193 125 64 100-3 220l-1 2" fill="#fff" fill-opacity=".8"/><path d="M1381 743q-23-62 19-196 52-170 54-207 7-98-83-122 134 33 193 125 63 99-2 218l4-6-2 5-2 2-4 6 1-1 3-5-5 9q-38 72-37 128 1 68 59 137-165-5-198-93" fill="#fff" fill-opacity=".8"/></svg>