<?xml version="1.1" encoding="UTF-8"?><svg xmlns="http://www.w3.org/2000/svg" xmlns:xlink="http://www.w3.org/1999/xlink" version="2.0" width="100pt" height="100pt" viewBox="0 0 2000 2000" clip-rule="evenodd" fill-rule="evenodd" preserveAspectRatio="none"><path d="M1160 201q-5-72 129-83l209-14q-20 33-102 70-76 34-93 78-61 12-100-1-41-14-43-50" fill="#fff"/><path d="M1690 700l55-97-47 134q-16 47-35 184-17 122-44 180-88 182-150 165-27-7-32-44-5-28 4-64 10-39 42-80l48-58q20-31 44-89l39-90 76-141" fill="#fff"/><path d="M278 1202l16-14 14-15q13-9 52-26 32-15 45-29-4 16-49 73-37 47-31 100-16 14-69 74-54 51-96 40-32-8-31-57 1-44 23-74l49-37 56-35h21" fill="#fff"/><path d="M1379 426h21l239-158 238-158-104 111q-60 78-69 159v23 23q-7 33-41 88l-56 90q-105 187-211 338-44 61-97 142l-93 145-13-4-17-1q-39 33-83 105-47 77-65 145l-2 83q0 52-27 73-22 16-64 14-39-3-71-18-9-23-9-38 1-10 5-11l12 2q-7-21-4-32v7q13-39 108-155 78-95 78-196-42-41-95 30-71 94-87 101-5-2-3-5l3-7q-36 26-80 76l-1 1q-54 110-182 295-142 203-192 294H351q-90 0-158-31l66-58 60-62 10-22 11-21q5-5 17-10l17-11 45-52q29-39 48-53l18-8 15-9 15-27 11-28q22-37 73-94l75-92 5-24 7-39-61 35q-25 16-23 7-21 8-39 29l-29 39q-26-7-52 16l-45 34q7 68-63 119-72 51-123 0 8-55 39-96 33-43 84-61 88-64 134-108 68-65 106-137 22-8 44-39 24-36 37-45-19-13-16-46 3-33 20-47l-5-2-12 6-8-8q-13 3-36 18-26 16-40 20-28-18-70 6-10 6-61 45 22-69 98-135L686 887q299-174 693-461M952 812q-27 8-42 20-34 25-59 74-29 54-21 95 66 30 154 18 92-13 116-65l11-50q4-34 10-47 25-57 92-112l107-91q4-4 4-29l70-66 73-61 47-39q26-23 34-45h-13l-134 79q-74 50-103 111-30 1-68 31l-67 49-21 6q-14 3-21 7-26 13-65 52l-62 49-42 14" fill="#fff"/></svg>