<?xml version="1.1" encoding="UTF-8"?><svg xmlns="http://www.w3.org/2000/svg" xmlns:xlink="http://www.w3.org/1999/xlink" version="2.0" width="100pt" height="100pt" viewBox="0 0 2000 2000" clip-rule="evenodd" fill-rule="evenodd" preserveAspectRatio="none"><path d="M1000 80q381 0 651 270 269 269 269 650 0 381-269 651-270 270-651 270-381 0-650-270Q80 1381 80 1000q0-381 270-650Q619 80 1000 80m47 320-46-136-44 134-99 26 89-262Q713 177 520 311 332 443 237 651H576l-26 82H309L553 918l48 146L198 752q-38 120-38 248 0 187 78 354 76 162 212 280l161-477 3 19q5 23 17 41 17 24 38 24L540 1623l202-156 61 59-246 188q203 126 443 126 241 0 443-126l-236-186 52-60 201 155-126-371 33-35 20-67 163 485q136-118 212-280 78-168 78-355 0-129-38-251l-406 314 33-129 260-201H1436l-26-82h354q-96-208-284-340-193-134-427-149l86 253-92-15" fill="#fff"/><path d="M1271 1018l2-49-2-50q-53-17-83-20-35-4-86 17-51 20-48 36 6 40 44 76 31 29 52 33 34 7 69-10l52-33m-408 33q42 4 66-28l38-58q-3-62-93-76-85-12-135 23-3 24 9 65 11 40 9 61 12 5 28 0l28-5q10 1 26 9l24 9m115-8q-34 52-33 94 14 11 43 18l88-8q22-39-8-80l-50-69q-10 0-40 45m50-572q139 21 194 46 124 57 148 189l13 96q7 73 0 102l-42 90q-28 56-19 113l9 29q4 23-9 42-14 20-55 22l-69 8q-8 3-17 16l-19 22q-6 4-18 8-13 4-20 10l-3 25-4 25q-14 1-20-16-6-16-16-16-14-1-16 15l-1 33-23 2q-6 0-5-14 1-13-8-11-12 2-16 14-3 11-14 9-10-2-14-11l-12-20q-10-2-20 8l-23 5q-7-7-3-38 3-28-9-33-8 5-10 28-1 20-16 23-15 2-21-14l-14-29q-6-1-5 10 0 10-8 7l-28-53q-25-42-50-33l-54-1q-23-11-17-22 22-51-41-185-44-91-39-188 6-95 57-182 96-75 126-89 87-42 231-42" fill="#fff"/><path d="M855 1345l-2 25 12 3h14v-33l12-3q9 2 14 18 5 17 14 18l8-8q1-9 5-10 16-3 24 18 7 21 24 17 7-3 6-12l2-15q16-1 25 11l15 22q14 1 19-14l12-22q10-2 17 5 9 8 16 8l8-13q3-10 14-10 5 22 13 38l20-18q-10-26-5-38l15-2 11 5 19-52q11-31 31-39l-6 58q-8 39-6 61l6 35q2 17-9 30-17 23-76 60-69 43-106 42-55-1-138-47-90-49-101-98 15-26 10-72l-12-75q26 8 32 65 7 59 26 70 7-7 3-21l-3-30 18 3-1 20" fill="#fff"/></svg>